<?xml version="1.0" encoding="UTF-8"?>
<svg xmlns="http://www.w3.org/2000/svg" xmlns:xlink="http://www.w3.org/1999/xlink" width="48" height="48" viewBox="0 0 48 48" version="1.1">
<g transform="scale(1.33333333)">
<g id="surface190">
<path style=" stroke:none;fill-rule:nonzero;fill:rgb(96.862745%,65.882355%,65.882355%);fill-opacity:1;" d="M 2.699219 32.175781 C 1.832031 32.175781 1.125 31.46875 1.125 30.601562 C 1.125 30.304688 1.214844 30.011719 1.402344 29.703125 L 16.574219 4.730469 C 16.921875 4.15625 17.441406 3.824219 18 3.824219 C 18.558594 3.824219 19.078125 4.15625 19.425781 4.730469 L 34.597656 29.703125 C 34.785156 30.011719 34.875 30.304688 34.875 30.601562 C 34.875 31.46875 34.167969 32.175781 33.300781 32.175781 Z M 2.699219 32.175781 "/>
<path style=" stroke:none;fill-rule:nonzero;fill:rgb(78.039217%,26.274511%,26.274511%);fill-opacity:1;" d="M 18 4.050781 C 18.652344 4.050781 19.054688 4.546875 19.234375 4.847656 L 26.820312 17.332031 L 34.402344 29.820312 C 34.570312 30.09375 34.648438 30.347656 34.648438 30.601562 C 34.648438 31.34375 34.042969 31.949219 33.300781 31.949219 L 2.699219 31.949219 C 1.957031 31.949219 1.351562 31.34375 1.351562 30.601562 C 1.351562 30.347656 1.429688 30.09375 1.597656 29.820312 L 9.179688 17.332031 L 16.765625 4.847656 C 16.945312 4.546875 17.347656 4.050781 18 4.050781 M 18 3.601562 C 17.289062 3.601562 16.726562 4.042969 16.382812 4.613281 C 1.210938 29.585938 16.382812 4.613281 1.210938 29.585938 C 1.03125 29.886719 0.898438 30.226562 0.898438 30.601562 C 0.898438 31.59375 1.707031 32.398438 2.699219 32.398438 C 3.488281 32.398438 32.453125 32.398438 33.300781 32.398438 C 34.292969 32.398438 35.101562 31.59375 35.101562 30.601562 C 35.101562 30.226562 34.96875 29.886719 34.789062 29.585938 C 19.617188 4.613281 34.789062 29.585938 19.617188 4.613281 C 19.273438 4.042969 18.710938 3.601562 18 3.601562 Z M 18 3.601562 "/>
<path style=" stroke:none;fill-rule:nonzero;fill:rgb(21.176471%,25.098041%,30.19608%);fill-opacity:1;" d="M 18 25.199219 C 17.007812 25.199219 16.199219 26.007812 16.199219 27 C 16.199219 27.992188 17.007812 28.800781 18 28.800781 C 18.992188 28.800781 19.800781 27.992188 19.800781 27 C 19.800781 26.007812 18.992188 25.199219 18 25.199219 Z M 18 12.601562 C 17.007812 12.601562 16.199219 13.34375 16.199219 14.261719 C 16.199219 14.875 17.101562 22.636719 17.105469 22.667969 C 17.160156 23.082031 17.539062 23.398438 18 23.398438 C 18.460938 23.398438 18.839844 23.082031 18.894531 22.667969 C 18.898438 22.636719 19.800781 14.875 19.800781 14.261719 C 19.800781 13.34375 18.992188 12.601562 18 12.601562 Z M 18 12.601562 "/>
<path style=" stroke:none;fill-rule:nonzero;fill:rgb(78.039217%,26.274511%,26.274511%);fill-opacity:1;" d="M 29.65625 15.9375 L 34.566406 15.351562 L 34.308594 14.929688 L 29.398438 15.515625 L 29.511719 15.699219 Z M 31.308594 9.992188 L 31.074219 9.605469 L 27.136719 11.785156 L 27.371094 12.171875 Z M 25.121094 8.46875 L 28.097656 4.707031 L 27.851562 4.296875 L 24.871094 8.058594 Z M 11.128906 8.058594 L 8.148438 4.296875 L 7.902344 4.707031 L 10.878906 8.46875 Z M 6.488281 15.699219 L 6.601562 15.515625 L 1.691406 14.929688 L 1.433594 15.351562 L 6.34375 15.9375 Z M 8.628906 12.171875 L 8.863281 11.785156 L 4.925781 9.605469 L 4.691406 9.992188 Z M 8.628906 12.171875 "/>
</g>
</g>
</svg>
