<?xml version="1.0" encoding="UTF-8"?>
<svg xmlns="http://www.w3.org/2000/svg" xmlns:xlink="http://www.w3.org/1999/xlink" width="48" height="48" viewBox="0 0 48 48" version="1.1">
<g transform="scale(1.33333333)">
<g id="surface159">
<path style=" stroke:none;fill-rule:nonzero;fill:rgb(54.509807%,71.764708%,94.117647%);fill-opacity:1;" d="M 18 34.875 C 8.695312 34.875 1.125 27.304688 1.125 18 C 1.125 8.695312 8.695312 1.125 18 1.125 C 27.304688 1.125 34.875 8.695312 34.875 18 C 34.875 27.304688 27.304688 34.875 18 34.875 Z M 18 34.875 "/>
<path style=" stroke:none;fill-rule:nonzero;fill:rgb(30.588236%,47.843137%,70.980394%);fill-opacity:1;" d="M 18 1.351562 C 27.179688 1.351562 34.648438 8.820312 34.648438 18 C 34.648438 27.179688 27.179688 34.648438 18 34.648438 C 8.820312 34.648438 1.351562 27.179688 1.351562 18 C 1.351562 8.820312 8.820312 1.351562 18 1.351562 M 18 0.898438 C 8.554688 0.898438 0.898438 8.554688 0.898438 18 C 0.898438 27.445312 8.554688 35.101562 18 35.101562 C 27.445312 35.101562 35.101562 27.445312 35.101562 18 C 35.101562 8.554688 27.445312 0.898438 18 0.898438 Z M 18 0.898438 "/>
<path style=" stroke:none;fill-rule:nonzero;fill:rgb(100%,100%,100%);fill-opacity:1;" d="M 18 9.449219 C 17.253906 9.449219 16.648438 10.054688 16.648438 10.800781 C 16.648438 11.546875 17.253906 12.148438 18 12.148438 C 18.746094 12.148438 19.351562 11.546875 19.351562 10.800781 C 19.351562 10.054688 18.746094 9.449219 18 9.449219 Z M 18 9.449219 "/>
<path style=" stroke:none;fill-rule:nonzero;fill:rgb(100%,100%,100%);fill-opacity:1;" d="M 19.351562 25.199219 L 19.351562 13.949219 L 15.75 13.949219 L 15.75 14.851562 L 16.648438 14.851562 L 16.648438 25.199219 L 15.75 25.199219 L 15.75 26.101562 L 20.25 26.101562 L 20.25 25.199219 Z M 19.351562 25.199219 "/>
</g>
</g>
</svg>
