<?xml version="1.0" encoding="UTF-8"?>
<svg xmlns="http://www.w3.org/2000/svg" xmlns:xlink="http://www.w3.org/1999/xlink" width="48" height="48" viewBox="0 0 48 48" version="1.1">
<g transform="scale(1.33333333)">
<g id="surface177">
<path style=" stroke:none;fill-rule:nonzero;fill:rgb(100%,93.333334%,63.921571%);fill-opacity:1;" d="M 1.351562 33.074219 C 1.09375 33.074219 0.886719 32.964844 0.769531 32.761719 C 0.636719 32.53125 0.648438 32.226562 0.800781 31.964844 L 17.296875 3.261719 C 17.433594 3.023438 17.695312 2.878906 18 2.878906 C 18.304688 2.878906 18.566406 3.023438 18.707031 3.261719 L 35.21875 31.964844 C 35.371094 32.226562 35.378906 32.519531 35.246094 32.75 C 35.128906 32.957031 34.910156 33.074219 34.648438 33.074219 Z M 1.351562 33.074219 "/>
<path style=" stroke:none;fill-rule:nonzero;fill:rgb(72.941178%,60.784316%,28.235295%);fill-opacity:1;" d="M 18 3.105469 C 18.222656 3.105469 18.414062 3.203125 18.511719 3.375 L 35.027344 32.078125 C 35.136719 32.265625 35.144531 32.476562 35.050781 32.636719 C 34.972656 32.773438 34.828125 32.851562 34.648438 32.851562 L 1.351562 32.851562 C 1.175781 32.851562 1.039062 32.78125 0.964844 32.648438 C 0.871094 32.488281 0.886719 32.269531 0.996094 32.078125 L 17.488281 3.375 C 17.585938 3.203125 17.777344 3.105469 18 3.105469 M 18 2.652344 C 17.644531 2.652344 17.289062 2.820312 17.101562 3.148438 L 0.605469 31.851562 C 0.226562 32.515625 0.585938 33.300781 1.351562 33.300781 L 34.648438 33.300781 C 35.414062 33.300781 35.796875 32.515625 35.414062 31.851562 L 18.898438 3.148438 C 18.707031 2.820312 18.355469 2.652344 18 2.652344 Z M 18 2.652344 "/>
<path style=" stroke:none;fill-rule:nonzero;fill:rgb(21.176471%,25.098041%,30.19608%);fill-opacity:1;" d="M 18 25.648438 C 17.253906 25.648438 16.648438 26.253906 16.648438 27 C 16.648438 27.746094 17.253906 28.351562 18 28.351562 C 18.746094 28.351562 19.351562 27.746094 19.351562 27 C 19.351562 26.253906 18.746094 25.648438 18 25.648438 Z M 16.648438 13.050781 L 19.351562 13.050781 L 19.351562 23.851562 L 16.648438 23.851562 Z M 16.648438 13.050781 "/>
</g>
</g>
</svg>
