<?xml version="1.0" encoding="UTF-8"?>
<svg id="add-compass" xmlns="http://www.w3.org/2000/svg" xmlns:xlink="http://www.w3.org/1999/xlink" width="24" height="24" viewBox="0 0 24 24" version="1.1">
<g transform="scale(1.33333333)">
<g id="surface224">
<path style=" stroke:none;fill-rule:nonzero;fill:rgb(76.078433%,90.980393%,100%);fill-opacity:1;" d="M 9 16.5 C 4.863281 16.5 1.5 13.136719 1.5 9 C 1.5 5.8125 3.515625 3 6.480469 1.945312 L 5.136719 4.816406 C 3.96875 5.894531 3.300781 7.417969 3.300781 9 C 3.300781 12.144531 5.855469 14.699219 9 14.699219 C 12.144531 14.699219 14.699219 12.144531 14.699219 9 C 14.699219 7.4375 14.046875 5.933594 12.90625 4.855469 L 11.585938 1.96875 C 14.511719 3.042969 16.5 5.84375 16.5 9 C 16.5 13.136719 13.136719 16.5 9 16.5 Z M 9 16.5 "/>
<path style=" stroke:none;fill-rule:nonzero;fill:rgb(45.490196%,58.823532%,76.862746%);fill-opacity:1;" d="M 5.878906 2.519531 L 4.890625 4.636719 C 3.6875 5.769531 3 7.355469 3 9 C 3 12.308594 5.691406 15 9 15 C 12.308594 15 15 12.308594 15 9 C 15 7.378906 14.328125 5.808594 13.15625 4.679688 L 12.183594 2.546875 C 14.601562 3.742188 16.199219 6.230469 16.199219 9 C 16.199219 12.96875 12.96875 16.199219 9 16.199219 C 5.03125 16.199219 1.800781 12.96875 1.800781 9 C 1.800781 6.199219 3.421875 3.695312 5.878906 2.519531 M 7.035156 1.460938 C 3.679688 2.332031 1.199219 5.371094 1.199219 9 C 1.199219 13.308594 4.691406 16.800781 9 16.800781 C 13.308594 16.800781 16.800781 13.308594 16.800781 9 C 16.800781 5.398438 14.355469 2.375 11.035156 1.476562 L 12.65625 5.035156 C 13.726562 6.023438 14.398438 7.429688 14.398438 9 C 14.398438 11.984375 11.984375 14.398438 9 14.398438 C 6.015625 14.398438 3.601562 11.984375 3.601562 9 C 3.601562 7.410156 4.292969 5.984375 5.382812 4.996094 Z M 7.035156 1.460938 "/>
<path style=" stroke:none;fill-rule:nonzero;fill:rgb(54.509807%,71.764708%,94.117647%);fill-opacity:1;" d="M 0.300781 8.699219 L 3.300781 8.699219 L 3.300781 9.300781 L 0.300781 9.300781 Z M 0.300781 8.699219 "/>
<path style=" stroke:none;fill-rule:nonzero;fill:rgb(30.588236%,47.843137%,70.980394%);fill-opacity:1;" d="M 3.601562 8.398438 L 0 8.398438 L 0 9.601562 L 3.601562 9.601562 Z M 3.601562 8.398438 "/>
<path style=" stroke:none;fill-rule:nonzero;fill:rgb(54.509807%,71.764708%,94.117647%);fill-opacity:1;" d="M 8.699219 14.699219 L 9.300781 14.699219 L 9.300781 17.699219 L 8.699219 17.699219 Z M 8.699219 14.699219 "/>
<path style=" stroke:none;fill-rule:nonzero;fill:rgb(30.588236%,47.843137%,70.980394%);fill-opacity:1;" d="M 9 15 L 9 17.398438 L 9 15 M 9.601562 14.398438 L 8.398438 14.398438 L 8.398438 18 L 9.601562 18 Z M 9.601562 14.398438 "/>
<path style=" stroke:none;fill-rule:nonzero;fill:rgb(54.509807%,71.764708%,94.117647%);fill-opacity:1;" d="M 14.699219 8.699219 L 17.699219 8.699219 L 17.699219 9.300781 L 14.699219 9.300781 Z M 14.699219 8.699219 "/>
<path style=" stroke:none;fill-rule:nonzero;fill:rgb(30.588236%,47.843137%,70.980394%);fill-opacity:1;" d="M 18 8.398438 L 14.398438 8.398438 L 14.398438 9.601562 L 18 9.601562 Z M 18 8.398438 "/>
<path style=" stroke:none;fill-rule:nonzero;fill:rgb(96.862745%,56.078434%,56.078434%);fill-opacity:1;" d="M 9 6.285156 L 5.96875 7.292969 L 9.039062 0.714844 L 12.039062 7.296875 Z M 9 6.285156 "/>
<path style=" stroke:none;fill-rule:nonzero;fill:rgb(78.039217%,26.274511%,26.274511%);fill-opacity:1;" d="M 9.035156 1.429688 L 11.480469 6.792969 L 9.191406 6.03125 L 9 5.96875 L 8.808594 6.03125 L 6.535156 6.789062 L 9.035156 1.429688 M 9.042969 0 L 5.398438 7.800781 L 9 6.601562 L 12.601562 7.800781 Z M 9.042969 0 "/>
</g>
</g>

<g transform="scale(1.33333333)">    <g id="surface78">
        <path d="M13.801,9.898C11.645,9.898 9.898,11.645 9.898,13.801C9.898,15.953 11.645,17.699 13.801,17.699C15.953,17.699 17.699,15.953 17.699,13.801C17.699,11.645 15.953,9.898 13.801,9.898Z" style="fill:rgb(186,224,189);fill-rule:nonzero;"/>
        <path d="M13.801,10.199C15.781,10.199 17.398,11.82 17.398,13.801C17.398,15.781 15.781,17.398 13.801,17.398C11.82,17.398 10.199,15.781 10.199,13.801C10.199,11.82 11.82,10.199 13.801,10.199M13.801,9.602C11.461,9.602 9.602,11.461 9.602,13.801C9.602,16.141 11.461,18 13.801,18C16.141,18 18,16.141 18,13.801C18,11.461 16.141,9.602 13.801,9.602Z" style="fill:rgb(94,156,118);fill-rule:nonzero;"/>
        <rect x="13.199" y="11.398" width="1.199" height="4.801" style="fill:rgb(254,254,254);fill-rule:nonzero;"/>
        <rect x="11.398" y="13.199" width="4.801" height="1.199" style="fill:rgb(254,254,254);fill-rule:nonzero;"/>
    </g></g>
</svg>
