<?xml version="1.0" encoding="UTF-8"?>
<svg id="add-folder" xmlns="http://www.w3.org/2000/svg" xmlns:xlink="http://www.w3.org/1999/xlink" width="24" height="24" viewBox="0 0 24 24" version="1.1">
<g transform="scale(1.33333333)">
<g id="surface343">
<path style=" stroke:none;fill-rule:nonzero;fill:rgb(85.882354%,69.01961%,39.607844%);fill-opacity:1;" d="M 0.898438 15.898438 L 0.898438 2.101562 L 5.875 2.101562 L 7.675781 3.898438 L 17.101562 3.898438 L 17.101562 15.898438 Z M 0.898438 15.898438 "/>
<path style=" stroke:none;fill-rule:nonzero;fill:rgb(58.823532%,47.843137%,26.666668%);fill-opacity:1;" d="M 5.75 2.398438 L 7.550781 4.199219 L 16.800781 4.199219 L 16.800781 15.601562 L 1.199219 15.601562 L 1.199219 2.398438 L 5.75 2.398438 M 6 1.800781 L 0.601562 1.800781 L 0.601562 16.199219 L 17.398438 16.199219 L 17.398438 3.601562 L 7.800781 3.601562 Z M 6 1.800781 "/>
<path style=" stroke:none;fill-rule:nonzero;fill:rgb(96.078432%,80.784315%,52.156866%);fill-opacity:1;" d="M 0.898438 15.898438 L 0.898438 5.101562 L 6.089844 5.101562 L 7.890625 3.898438 L 17.101562 3.898438 L 17.101562 15.898438 Z M 0.898438 15.898438 "/>
<path style=" stroke:none;fill-rule:nonzero;fill:rgb(58.823532%,47.843137%,26.666668%);fill-opacity:1;" d="M 16.800781 4.199219 L 16.800781 15.601562 L 1.199219 15.601562 L 1.199219 5.398438 L 6.183594 5.398438 L 6.332031 5.300781 L 7.980469 4.199219 L 16.800781 4.199219 M 17.398438 3.601562 L 7.800781 3.601562 L 6 4.800781 L 0.601562 4.800781 L 0.601562 16.199219 L 17.398438 16.199219 Z M 17.398438 3.601562 "/>
</g>
</g>

<g transform="scale(1.33333333)">    <g id="surface78">
        <path d="M13.801,9.898C11.645,9.898 9.898,11.645 9.898,13.801C9.898,15.953 11.645,17.699 13.801,17.699C15.953,17.699 17.699,15.953 17.699,13.801C17.699,11.645 15.953,9.898 13.801,9.898Z" style="fill:rgb(186,224,189);fill-rule:nonzero;"/>
        <path d="M13.801,10.199C15.781,10.199 17.398,11.82 17.398,13.801C17.398,15.781 15.781,17.398 13.801,17.398C11.82,17.398 10.199,15.781 10.199,13.801C10.199,11.82 11.82,10.199 13.801,10.199M13.801,9.602C11.461,9.602 9.602,11.461 9.602,13.801C9.602,16.141 11.461,18 13.801,18C16.141,18 18,16.141 18,13.801C18,11.461 16.141,9.602 13.801,9.602Z" style="fill:rgb(94,156,118);fill-rule:nonzero;"/>
        <rect x="13.199" y="11.398" width="1.199" height="4.801" style="fill:rgb(254,254,254);fill-rule:nonzero;"/>
        <rect x="11.398" y="13.199" width="4.801" height="1.199" style="fill:rgb(254,254,254);fill-rule:nonzero;"/>
    </g></g>
</svg>
