<?xml version="1.0" encoding="UTF-8"?>
<svg xmlns="http://www.w3.org/2000/svg" xmlns:xlink="http://www.w3.org/1999/xlink" width="24" height="24" viewBox="0 0 24 24" version="1.1">
<g transform="scale(1.33333333)">
<g id="surface84">
<path style=" stroke:none;fill-rule:nonzero;fill:rgb(76.078433%,90.980393%,100%);fill-opacity:1;" d="M 5.519531 6 L 0 6 L 0 7.800781 L 5.160156 7.800781 Z M 4.753906 10.199219 L 4.996094 9 L 0 9 L 0 10.199219 Z M 4.5 12 L 4.621094 11.398438 L 0 11.398438 L 0 12 Z M 4.5 12 "/>
<path style=" stroke:none;fill-rule:nonzero;fill:rgb(100%,100%,100%);fill-opacity:1;" d="M 3.367188 14.699219 L 5.644531 3.300781 L 17.632812 3.300781 L 15.355469 14.699219 Z M 3.367188 14.699219 "/>
<path style=" stroke:none;fill-rule:nonzero;fill:rgb(47.058824%,54.509807%,61.176473%);fill-opacity:1;" d="M 17.269531 3.601562 L 15.109375 14.398438 L 3.730469 14.398438 L 5.890625 3.601562 L 17.269531 3.601562 M 18 3 L 5.398438 3 L 3 15 L 15.601562 15 Z M 18 3 "/>
<path style=" stroke:none;fill-rule:nonzero;fill:rgb(54.509807%,71.764708%,94.117647%);fill-opacity:1;" d="M 5.921875 11.101562 L 6.761719 6.898438 L 15.078125 6.898438 L 14.238281 11.101562 Z M 5.921875 11.101562 "/>
<path style=" stroke:none;fill-rule:nonzero;fill:rgb(30.588236%,47.843137%,70.980394%);fill-opacity:1;" d="M 14.710938 7.199219 L 13.992188 10.800781 L 6.289062 10.800781 L 7.007812 7.199219 L 14.710938 7.199219 M 15.445312 6.601562 L 6.515625 6.601562 L 5.554688 11.398438 L 14.484375 11.398438 Z M 15.445312 6.601562 "/>
<path style=" stroke:none;fill-rule:nonzero;fill:rgb(47.058824%,54.509807%,61.176473%);fill-opacity:1;" d="M 18 3 L 5.398438 3 L 5.101562 5.398438 L 17.398438 5.398438 Z M 18 3 "/>
<path style=" stroke:none;fill-rule:nonzero;fill:rgb(100%,100%,100%);fill-opacity:1;" d="M 7.140625 9.601562 L 13.621094 9.601562 L 13.980469 7.800781 L 7.5 7.800781 Z M 7.140625 9.601562 "/>
<path style=" stroke:none;fill-rule:nonzero;fill:rgb(21.568628%,27.843139%,30.980393%);fill-opacity:1;" d="M 8.5625 9.601562 L 8.921875 7.800781 L 8.308594 7.800781 L 7.949219 9.601562 Z M 8.5625 9.601562 "/>
</g>
</g>

<g transform="scale(1.33333333)">    <g id="surface78">
        <path d="M13.801,9.898C11.645,9.898 9.898,11.645 9.898,13.801C9.898,15.953 11.645,17.699 13.801,17.699C15.953,17.699 17.699,15.953 17.699,13.801C17.699,11.645 15.953,9.898 13.801,9.898Z" style="fill:rgb(186,224,189);fill-rule:nonzero;"/>
        <path d="M13.801,10.199C15.781,10.199 17.398,11.82 17.398,13.801C17.398,15.781 15.781,17.398 13.801,17.398C11.82,17.398 10.199,15.781 10.199,13.801C10.199,11.82 11.82,10.199 13.801,10.199M13.801,9.602C11.461,9.602 9.602,11.461 9.602,13.801C9.602,16.141 11.461,18 13.801,18C16.141,18 18,16.141 18,13.801C18,11.461 16.141,9.602 13.801,9.602Z" style="fill:rgb(94,156,118);fill-rule:nonzero;"/>
        <rect x="13.199" y="11.398" width="1.199" height="4.801" style="fill:rgb(254,254,254);fill-rule:nonzero;"/>
        <rect x="11.398" y="13.199" width="4.801" height="1.199" style="fill:rgb(254,254,254);fill-rule:nonzero;"/>
    </g></g>
</svg>
