<?xml version="1.0" encoding="UTF-8" standalone="no"?>
<!DOCTYPE svg PUBLIC "-//W3C//DTD SVG 1.1//EN" "http://www.w3.org/Graphics/SVG/1.1/DTD/svg11.dtd">
<svg width="24" height="24" viewBox="0 0 24 24" version="1.1" xmlns="http://www.w3.org/2000/svg" xmlns:xlink="http://www.w3.org/1999/xlink" xml:space="preserve" xmlns:serif="http://www.serif.com/" style="fill-rule:evenodd;clip-rule:evenodd;stroke-linejoin:round;stroke-miterlimit:2;">
    <g id="surface2908">
        <path d="M0.965,23.035C1.238,21.484 2.273,16.047 3.645,14.676C4.402,13.918 5.41,13.5 6.484,13.5C7.559,13.5 8.566,13.918 9.324,14.676C10.891,16.242 10.891,18.789 9.324,20.355C7.949,21.727 2.516,22.762 0.965,23.035Z" style="fill:rgb(245,206,133);fill-rule:nonzero;"/>
        <path d="M6.484,13.801C7.477,13.801 8.41,14.188 9.113,14.887C10.563,16.336 10.563,18.695 9.113,20.145C7.992,21.262 3.684,22.238 1.336,22.664C1.762,20.316 2.738,16.008 3.859,14.887C4.559,14.188 5.492,13.801 6.484,13.801M6.484,13.199C5.379,13.199 4.277,13.621 3.434,14.465C1.746,16.148 0.602,23.398 0.602,23.398C0.602,23.398 7.852,22.254 9.535,20.566C11.223,18.883 11.223,16.148 9.535,14.465C8.695,13.621 7.59,13.199 6.484,13.199Z" style="fill:rgb(150,121,68);fill-rule:nonzero;"/>
        <path d="M15.254,5.539L19.566,1.027L22.973,4.434L18.461,8.746L15.254,5.539Z" style="fill:rgb(254,196,156);fill-rule:nonzero;"/>
        <path d="M19.57,1.457L22.543,4.43L18.465,8.328L15.672,5.535L19.57,1.457M19.563,0.602L14.832,5.547L18.453,9.168L23.398,4.438L19.563,0.602Z" style="fill:rgb(161,106,74);fill-rule:nonzero;"/>
        <path d="M7.617,13.582L15.383,5.23L18.77,8.617L10.418,16.383L7.617,13.582Z" style="fill:rgb(220,213,242);fill-rule:nonzero;"/>
        <path d="M15.391,5.664L18.336,8.609L10.426,15.965L8.035,13.574L15.391,5.664M15.375,4.801L7.199,13.59L10.41,16.801L19.199,8.625L15.375,4.801Z" style="fill:rgb(139,117,161);fill-rule:nonzero;"/>
        <g id="surface1634" transform="matrix(0.984576,0,0,0.984576,12,12)">
            <path d="M6.094,0.406C2.953,0.406 0.406,2.953 0.406,6.094C0.406,9.234 2.953,11.781 6.094,11.781C9.234,11.781 11.781,9.234 11.781,6.094C11.781,2.953 9.234,0.406 6.094,0.406Z" style="fill:rgb(186,224,189);fill-rule:nonzero;"/>
            <path d="M6.094,0.813C9.004,0.813 11.375,3.184 11.375,6.094C11.375,9.004 9.004,11.375 6.094,11.375C3.184,11.375 0.813,9.004 0.813,6.094C0.813,3.184 3.184,0.813 6.094,0.813M6.094,0C2.727,0 0,2.727 0,6.094C0,9.461 2.727,12.188 6.094,12.188C9.461,12.188 12.188,9.461 12.188,6.094C12.188,2.727 9.461,0 6.094,0Z" style="fill:rgb(94,156,118);fill-rule:nonzero;"/>
            <g transform="matrix(1,0,0,1.94409,0,-5.75304)">
                <rect x="2.844" y="5.688" width="6.5" height="0.813" style="fill:white;"/>
            </g>
            <g transform="matrix(1.94409,0,0,1,-5.75304,0)">
                <rect x="5.688" y="2.844" width="0.813" height="6.5" style="fill:white;"/>
            </g>
        </g>
    </g>
</svg>
