<?xml version="1.0" encoding="UTF-8"?>
<svg id="add-waterfall" xmlns="http://www.w3.org/2000/svg" width="24" height="24" viewBox="0 0 24 24" version="1.1">
<g transform="scale(0.75)">
<g transform="scale(1.06666667)">
<g id="surface_waterfall_large">
<path fill="rgb(88.235295%,92.156863%,94.901961%)" d="M 3 28.125 C 1.964844 28.125 1.125 27.285156 1.125 26.25 L 1.125 3 C 1.125 1.964844 1.964844 1.125 3 1.125 L 26.25 1.125 C 27.285156 1.125 28.125 1.964844 28.125 3 L 28.125 26.25 C 28.125 27.285156 27.285156 28.125 26.25 28.125 Z"/>
<path fill="rgb(47.058824%,54.509807%,61.176473%)" d="M 26.25 1.5 C 27.078125 1.5 27.75 2.171875 27.75 3 L 27.75 26.25 C 27.75 27.078125 27.078125 27.75 26.25 27.75 L 3 27.75 C 2.171875 27.75 1.5 27.078125 1.5 26.25 L 1.5 3 C 1.5 2.171875 2.171875 1.5 3 1.5 L 26.25 1.5 M 26.25 0.75 L 3 0.75 C 1.757812 0.75 0.75 1.757812 0.75 3 L 0.75 26.25 C 0.75 27.492188 1.757812 28.5 3 28.5 L 26.25 28.5 C 27.492188 28.5 28.5 27.492188 28.5 26.25 L 28.5 3 C 28.5 1.757812 27.492188 0.75 26.25 0.75 Z"/>
<rect x="3"   y="3"   width="22.5" height="3.5" fill="rgb(99.2%,90.6%,14.4%)"/>
<rect x="3"   y="6.6" width="22.5" height="3.5" fill="rgb(96.4%,49.2%,16.5%)"/>
<rect x="3"   y="10.2" width="22.5" height="3.5" fill="rgb(81.6%,28.6%,40.8%)"/>
<rect x="3"   y="13.8" width="22.5" height="3.5" fill="rgb(57.7%,17.4%,46.3%)"/>
<rect x="3"   y="17.4" width="22.5" height="3.5" fill="rgb(38.0%,12.5%,46.0%)"/>
<rect x="3"   y="21.0" width="22.5" height="3.5" fill="rgb(20.0%, 8.0%,33.0%)"/>
<rect x="3"   y="24.6" width="22.5" height="1.5" fill="rgb(8.0%, 3.0%,18.0%)"/>
</g>
</g>
</g>

<g transform="scale(1.33333333)">    <g id="surface78">
        <path d="M13.801,9.898C11.645,9.898 9.898,11.645 9.898,13.801C9.898,15.953 11.645,17.699 13.801,17.699C15.953,17.699 17.699,15.953 17.699,13.801C17.699,11.645 15.953,9.898 13.801,9.898Z" style="fill:rgb(186,224,189);fill-rule:nonzero;"/>
        <path d="M13.801,10.199C15.781,10.199 17.398,11.82 17.398,13.801C17.398,15.781 15.781,17.398 13.801,17.398C11.82,17.398 10.199,15.781 10.199,13.801C10.199,11.82 11.82,10.199 13.801,10.199M13.801,9.602C11.461,9.602 9.602,11.461 9.602,13.801C9.602,16.141 11.461,18 13.801,18C16.141,18 18,16.141 18,13.801C18,11.461 16.141,9.602 13.801,9.602Z" style="fill:rgb(94,156,118);fill-rule:nonzero;"/>
        <rect x="13.199" y="11.398" width="1.199" height="4.801" style="fill:rgb(254,254,254);fill-rule:nonzero;"/>
        <rect x="11.398" y="13.199" width="4.801" height="1.199" style="fill:rgb(254,254,254);fill-rule:nonzero;"/>
    </g></g>
</svg>
