<?xml version="1.0" encoding="UTF-8"?>
<svg id="add-group" xmlns="http://www.w3.org/2000/svg" xmlns:xlink="http://www.w3.org/1999/xlink" width="24" height="24" viewBox="0 0 24 24" version="1.1">
<g transform="scale(1.33333333)">
<g id="surface463">
<path style=" stroke:none;fill-rule:nonzero;fill:rgb(86.274511%,83.529413%,94.901961%);fill-opacity:1;" d="M 8.101562 8.101562 L 12.898438 8.101562 L 12.898438 12.898438 L 8.101562 12.898438 Z M 8.101562 8.101562 "/>
<path style=" stroke:none;fill-rule:nonzero;fill:rgb(54.509807%,45.882353%,63.137257%);fill-opacity:1;" d="M 12.601562 8.398438 L 12.601562 12.601562 L 8.398438 12.601562 L 8.398438 8.398438 L 12.601562 8.398438 M 13.199219 7.800781 L 7.800781 7.800781 L 7.800781 13.199219 L 13.199219 13.199219 Z M 13.199219 7.800781 "/>
<path style=" stroke:none;fill-rule:nonzero;fill:rgb(40.000001%,47.450981%,56.078434%);fill-opacity:1;" d="M 15.601562 2.398438 L 15.601562 15.601562 L 2.398438 15.601562 L 2.398438 2.398438 L 15.601562 2.398438 M 16.199219 1.800781 L 1.800781 1.800781 L 1.800781 16.199219 L 16.199219 16.199219 Z M 16.199219 1.800781 "/>
<path style=" stroke:none;fill-rule:nonzero;fill:rgb(54.509807%,71.764708%,94.117647%);fill-opacity:1;" d="M 14.699219 0.898438 L 17.101562 0.898438 L 17.101562 3.300781 L 14.699219 3.300781 Z M 14.699219 0.898438 "/>
<path style=" stroke:none;fill-rule:nonzero;fill:rgb(30.588236%,47.843137%,70.980394%);fill-opacity:1;" d="M 16.800781 1.199219 L 16.800781 3 L 15 3 L 15 1.199219 L 16.800781 1.199219 M 17.398438 0.601562 L 14.398438 0.601562 L 14.398438 3.601562 L 17.398438 3.601562 Z M 17.398438 0.601562 "/>
<path style=" stroke:none;fill-rule:nonzero;fill:rgb(94.901961%,98.039216%,100%);fill-opacity:1;" d="M 5.101562 5.101562 L 9.898438 5.101562 L 9.898438 9.898438 L 5.101562 9.898438 Z M 5.101562 5.101562 "/>
<path style=" stroke:none;fill-rule:nonzero;fill:rgb(47.058824%,54.509807%,61.176473%);fill-opacity:1;" d="M 9.601562 5.398438 L 9.601562 9.601562 L 5.398438 9.601562 L 5.398438 5.398438 L 9.601562 5.398438 M 10.199219 4.800781 L 4.800781 4.800781 L 4.800781 10.199219 L 10.199219 10.199219 Z M 10.199219 4.800781 "/>
<path style=" stroke:none;fill-rule:nonzero;fill:rgb(54.509807%,71.764708%,94.117647%);fill-opacity:1;" d="M 0.898438 0.898438 L 3.300781 0.898438 L 3.300781 3.300781 L 0.898438 3.300781 Z M 0.898438 0.898438 "/>
<path style=" stroke:none;fill-rule:nonzero;fill:rgb(30.588236%,47.843137%,70.980394%);fill-opacity:1;" d="M 3 1.199219 L 3 3 L 1.199219 3 L 1.199219 1.199219 L 3 1.199219 M 3.601562 0.601562 L 0.601562 0.601562 L 0.601562 3.601562 L 3.601562 3.601562 Z M 3.601562 0.601562 "/>
<path style=" stroke:none;fill-rule:nonzero;fill:rgb(54.509807%,71.764708%,94.117647%);fill-opacity:1;" d="M 14.699219 14.699219 L 17.101562 14.699219 L 17.101562 17.101562 L 14.699219 17.101562 Z M 14.699219 14.699219 "/>
<path style=" stroke:none;fill-rule:nonzero;fill:rgb(30.588236%,47.843137%,70.980394%);fill-opacity:1;" d="M 16.800781 15 L 16.800781 16.800781 L 15 16.800781 L 15 15 L 16.800781 15 M 17.398438 14.398438 L 14.398438 14.398438 L 14.398438 17.398438 L 17.398438 17.398438 Z M 17.398438 14.398438 "/>
<path style=" stroke:none;fill-rule:nonzero;fill:rgb(54.509807%,71.764708%,94.117647%);fill-opacity:1;" d="M 0.898438 14.699219 L 3.300781 14.699219 L 3.300781 17.101562 L 0.898438 17.101562 Z M 0.898438 14.699219 "/>
<path style=" stroke:none;fill-rule:nonzero;fill:rgb(30.588236%,47.843137%,70.980394%);fill-opacity:1;" d="M 3 15 L 3 16.800781 L 1.199219 16.800781 L 1.199219 15 L 3 15 M 3.601562 14.398438 L 0.601562 14.398438 L 0.601562 17.398438 L 3.601562 17.398438 Z M 3.601562 14.398438 "/>
</g>
</g>

<g id="add-badge"><g transform="scale(1.33333333)">
    <g id="surface78">
        <path d="M13.801,9.898C11.645,9.898 9.898,11.645 9.898,13.801C9.898,15.953 11.645,17.699 13.801,17.699C15.953,17.699 17.699,15.953 17.699,13.801C17.699,11.645 15.953,9.898 13.801,9.898Z" style="fill:rgb(186,224,189);fill-rule:nonzero;"/>
        <path d="M13.801,10.199C15.781,10.199 17.398,11.82 17.398,13.801C17.398,15.781 15.781,17.398 13.801,17.398C11.82,17.398 10.199,15.781 10.199,13.801C10.199,11.82 11.82,10.199 13.801,10.199M13.801,9.602C11.461,9.602 9.602,11.461 9.602,13.801C9.602,16.141 11.461,18 13.801,18C16.141,18 18,16.141 18,13.801C18,11.461 16.141,9.602 13.801,9.602Z" style="fill:rgb(94,156,118);fill-rule:nonzero;"/>
        <rect x="13.199" y="11.398" width="1.199" height="4.801" style="fill:rgb(254,254,254);fill-rule:nonzero;"/>
        <rect x="11.398" y="13.199" width="4.801" height="1.199" style="fill:rgb(254,254,254);fill-rule:nonzero;"/>
    </g>
</g></g>
</svg>
