<?xml version="1.0" encoding="UTF-8"?>
<svg xmlns="http://www.w3.org/2000/svg" xmlns:xlink="http://www.w3.org/1999/xlink" width="24" height="24" viewBox="0 0 24 24" version="1.1">
<g transform="scale(1.33333333)">
<g id="surface74">
<path style=" stroke:none;fill-rule:nonzero;fill:rgb(76.078433%,90.980393%,100%);fill-opacity:1;" d="M 0.898438 3.300781 L 17.101562 3.300781 L 17.101562 14.699219 L 0.898438 14.699219 Z M 0.898438 3.300781 "/>
<path style=" stroke:none;fill-rule:nonzero;fill:rgb(45.490196%,58.823532%,76.862746%);fill-opacity:1;" d="M 16.800781 3.601562 L 16.800781 14.398438 L 1.199219 14.398438 L 1.199219 3.601562 L 16.800781 3.601562 M 17.398438 3 L 0.601562 3 L 0.601562 15 L 17.398438 15 Z M 17.398438 3 "/>
<path style=" stroke:none;fill-rule:nonzero;fill:rgb(69.01961%,75.686276%,83.137256%);fill-opacity:1;" d="M 6.316406 15.898438 C 6.46875 14.550781 7.613281 13.5 9 13.5 C 10.386719 13.5 11.535156 14.550781 11.683594 15.898438 Z M 6.316406 15.898438 "/>
<path style=" stroke:none;fill-rule:nonzero;fill:rgb(40.000001%,47.450981%,56.078434%);fill-opacity:1;" d="M 9 13.800781 C 10.117188 13.800781 11.058594 14.566406 11.324219 15.601562 L 6.675781 15.601562 C 6.941406 14.566406 7.882812 13.800781 9 13.800781 M 9 13.199219 C 7.34375 13.199219 6 14.542969 6 16.199219 L 12 16.199219 C 12 14.542969 10.65625 13.199219 9 13.199219 Z M 9 13.199219 "/>
<path style=" stroke:none;fill-rule:nonzero;fill:rgb(54.509807%,71.764708%,94.117647%);fill-opacity:1;" d="M 5.398438 6.300781 C 3.910156 6.300781 2.699219 7.507812 2.699219 9 C 2.699219 10.492188 3.910156 11.699219 5.398438 11.699219 C 6.890625 11.699219 8.101562 10.492188 8.101562 9 C 8.101562 7.507812 6.890625 6.300781 5.398438 6.300781 Z M 5.398438 6.300781 "/>
<path style=" stroke:none;fill-rule:nonzero;fill:rgb(30.588236%,47.843137%,70.980394%);fill-opacity:1;" d="M 5.398438 6.601562 C 6.722656 6.601562 7.800781 7.675781 7.800781 9 C 7.800781 10.324219 6.722656 11.398438 5.398438 11.398438 C 4.078125 11.398438 3 10.324219 3 9 C 3 7.675781 4.078125 6.601562 5.398438 6.601562 M 5.398438 6 C 3.742188 6 2.398438 7.34375 2.398438 9 C 2.398438 10.65625 3.742188 12 5.398438 12 C 7.054688 12 8.398438 10.65625 8.398438 9 C 8.398438 7.34375 7.054688 6 5.398438 6 Z M 5.398438 6 "/>
<path style=" stroke:none;fill-rule:nonzero;fill:rgb(96.862745%,56.078434%,56.078434%);fill-opacity:1;" d="M 5.699219 8.699219 L 5.699219 6.316406 C 6.949219 6.457031 7.945312 7.449219 8.082031 8.699219 Z M 5.699219 8.699219 "/>
<path style=" stroke:none;fill-rule:nonzero;fill:rgb(78.039217%,26.274511%,26.274511%);fill-opacity:1;" d="M 6 6.675781 C 6.84375 6.894531 7.507812 7.558594 7.722656 8.398438 L 6 8.398438 L 6 6.675781 M 5.398438 6 L 5.398438 9 L 8.398438 9 C 8.398438 7.34375 7.054688 6 5.398438 6 Z M 5.398438 6 "/>
<path style=" stroke:none;fill-rule:nonzero;fill:rgb(30.588236%,47.843137%,70.980394%);fill-opacity:1;" d="M 15.601562 8.398438 L 10.199219 8.398438 L 10.199219 7.800781 L 15.601562 7.800781 Z M 15.601562 8.398438 "/>
<path style=" stroke:none;fill-rule:nonzero;fill:rgb(55.29412%,75.686276%,87.843138%);fill-opacity:1;" d="M 15.601562 8.398438 L 13.800781 8.398438 L 13.800781 7.800781 L 15.601562 7.800781 Z M 15.601562 8.398438 "/>
<path style=" stroke:none;fill-rule:nonzero;fill:rgb(30.588236%,47.843137%,70.980394%);fill-opacity:1;" d="M 15.601562 6.601562 L 10.199219 6.601562 L 10.199219 6 L 15.601562 6 Z M 15.601562 6.601562 "/>
<path style=" stroke:none;fill-rule:nonzero;fill:rgb(55.29412%,75.686276%,87.843138%);fill-opacity:1;" d="M 15.601562 6.601562 L 14.398438 6.601562 L 14.398438 6 L 15.601562 6 Z M 15.601562 6.601562 "/>
<path style=" stroke:none;fill-rule:nonzero;fill:rgb(30.588236%,47.843137%,70.980394%);fill-opacity:1;" d="M 15.601562 10.199219 L 10.199219 10.199219 L 10.199219 9.601562 L 15.601562 9.601562 Z M 15.601562 10.199219 "/>
<path style=" stroke:none;fill-rule:nonzero;fill:rgb(30.588236%,47.843137%,70.980394%);fill-opacity:1;" d="M 15.601562 12 L 10.199219 12 L 10.199219 11.398438 L 15.601562 11.398438 Z M 15.601562 12 "/>
<path style=" stroke:none;fill-rule:nonzero;fill:rgb(55.29412%,75.686276%,87.843138%);fill-opacity:1;" d="M 15.601562 10.199219 L 14.398438 10.199219 L 14.398438 9.601562 L 15.601562 9.601562 Z M 15.601562 10.199219 "/>
<path style=" stroke:none;fill-rule:nonzero;fill:rgb(55.29412%,75.686276%,87.843138%);fill-opacity:1;" d="M 15.601562 12 L 12.601562 12 L 12.601562 11.398438 L 15.601562 11.398438 Z M 15.601562 12 "/>
</g>
</g>

<g id="add-badge"><g transform="scale(1.33333333)">
    <g id="surface78">
        <path d="M13.801,9.898C11.645,9.898 9.898,11.645 9.898,13.801C9.898,15.953 11.645,17.699 13.801,17.699C15.953,17.699 17.699,15.953 17.699,13.801C17.699,11.645 15.953,9.898 13.801,9.898Z" style="fill:rgb(186,224,189);fill-rule:nonzero;"/>
        <path d="M13.801,10.199C15.781,10.199 17.398,11.82 17.398,13.801C17.398,15.781 15.781,17.398 13.801,17.398C11.82,17.398 10.199,15.781 10.199,13.801C10.199,11.82 11.82,10.199 13.801,10.199M13.801,9.602C11.461,9.602 9.602,11.461 9.602,13.801C9.602,16.141 11.461,18 13.801,18C16.141,18 18,16.141 18,13.801C18,11.461 16.141,9.602 13.801,9.602Z" style="fill:rgb(94,156,118);fill-rule:nonzero;"/>
        <rect x="13.199" y="11.398" width="1.199" height="4.801" style="fill:rgb(254,254,254);fill-rule:nonzero;"/>
        <rect x="11.398" y="13.199" width="4.801" height="1.199" style="fill:rgb(254,254,254);fill-rule:nonzero;"/>
    </g>
</g></g>
</svg>
