<?xml version="1.0" encoding="UTF-8"?>
<svg id="add-meter" xmlns="http://www.w3.org/2000/svg" xmlns:xlink="http://www.w3.org/1999/xlink" width="24" height="24" viewBox="0 0 24 24" version="1.1">
<g transform="scale(0.8)">
<g id="surface804">
<path style=" stroke:none;fill-rule:nonzero;fill:rgb(100%,100%,100%);fill-opacity:1;" d="M 3 25.5 C 1.300781 23.101562 0.5 20.398438 0.5 17.5 C 0.5 9.800781 6.800781 3.5 14.5 3.5 C 22.199219 3.5 28.5 9.800781 28.5 17.5 C 28.5 20.398438 27.601562 23.101562 26 25.5 Z M 3 25.5 "/>
<path style=" stroke:none;fill-rule:nonzero;fill:rgb(30.588236%,47.843137%,70.980394%);fill-opacity:1;" d="M 14.5 4 C 21.898438 4 28 10.101562 28 17.5 C 28 20.199219 27.199219 22.800781 25.699219 25 L 3.300781 25 C 1.800781 22.800781 1 20.199219 1 17.5 C 1 10.101562 7.101562 4 14.5 4 M 14.5 3 C 6.5 3 0 9.5 0 17.5 C 0 20.699219 1 23.601562 2.800781 26 L 26.300781 26 C 28 23.601562 29.101562 20.699219 29.101562 17.5 C 29 9.5 22.5 3 14.5 3 Z M 14.5 3 "/>
<path style=" stroke:none;fill-rule:nonzero;fill:rgb(21.176471%,25.098041%,30.19608%);fill-opacity:1;" d="M 15 4 C 14.800781 4 14.699219 4 14.5 4 C 14.300781 4 14.199219 4 14 4 L 14 7 L 15 7 Z M 4 17 L 1 17 C 1 17.199219 1 17.300781 1 17.5 C 1 17.699219 1 17.800781 1 18 L 4 18 Z M 25 18 L 28 18 C 28 17.800781 28 17.699219 28 17.5 C 28 17.300781 28 17.199219 28 17 L 25 17 Z M 3.101562 24.699219 L 5.699219 23.199219 L 5.199219 22.300781 L 2.601562 23.800781 C 2.699219 24.101562 2.898438 24.398438 3.101562 24.699219 Z M 25.898438 10.300781 L 23.300781 11.800781 L 23.800781 12.699219 L 26.398438 11.199219 C 26.300781 10.898438 26.101562 10.601562 25.898438 10.300781 Z M 26.398438 23.800781 L 23.800781 22.300781 L 23.300781 23.199219 L 25.898438 24.699219 C 26.101562 24.398438 26.300781 24.101562 26.398438 23.800781 Z M 2.601562 11.199219 L 5.199219 12.699219 L 5.699219 11.800781 L 3.101562 10.300781 C 2.898438 10.601562 2.699219 10.898438 2.601562 11.199219 Z M 8.800781 8.699219 L 9.699219 8.199219 L 8.199219 5.601562 C 7.898438 5.699219 7.601562 5.898438 7.300781 6.101562 Z M 21.699219 6.101562 C 21.398438 5.898438 21.101562 5.699219 20.800781 5.601562 L 19.300781 8.199219 L 20.199219 8.699219 Z M 21.699219 6.101562 "/>
<path style=" stroke:none;fill-rule:nonzero;fill:rgb(47.058824%,54.509807%,61.176473%);fill-opacity:1;" d="M 11 21 L 18 21 L 18 23 L 11 23 Z M 11 21 "/>
<path style=" stroke:none;fill-rule:nonzero;fill:rgb(78.039217%,26.274511%,26.274511%);fill-opacity:1;" d="M 14.148438 17.214844 L 21.644531 9.71875 L 22.351562 10.425781 L 14.855469 17.921875 Z M 14.148438 17.214844 "/>
<path style=" stroke:none;fill-rule:nonzero;fill:rgb(96.862745%,56.078434%,56.078434%);fill-opacity:1;" d="M 14.5 16.5 C 13.949219 16.5 13.5 16.949219 13.5 17.5 C 13.5 18.050781 13.949219 18.5 14.5 18.5 C 15.050781 18.5 15.5 18.050781 15.5 17.5 C 15.5 16.949219 15.050781 16.5 14.5 16.5 Z M 14.5 16.5 "/>
<path style=" stroke:none;fill-rule:nonzero;fill:rgb(78.039217%,26.274511%,26.274511%);fill-opacity:1;" d="M 14.5 17 C 14.800781 17 15 17.199219 15 17.5 C 15 17.800781 14.800781 18 14.5 18 C 14.199219 18 14 17.800781 14 17.5 C 14 17.199219 14.199219 17 14.5 17 M 14.5 16 C 13.699219 16 13 16.699219 13 17.5 C 13 18.300781 13.699219 19 14.5 19 C 15.300781 19 16 18.300781 16 17.5 C 16 16.699219 15.300781 16 14.5 16 Z M 14.5 16 "/>
<path style=" stroke:none;fill-rule:nonzero;fill:rgb(30.588236%,47.843137%,70.980394%);fill-opacity:1;" d="M 14.5 4 C 21.898438 4 28 10.101562 28 17.5 C 28 20.199219 27.199219 22.800781 25.699219 25 L 3.300781 25 C 1.800781 22.800781 1 20.199219 1 17.5 C 1 10.101562 7.101562 4 14.5 4 M 14.5 3 C 6.5 3 0 9.5 0 17.5 C 0 20.699219 1 23.601562 2.800781 26 L 26.300781 26 C 28 23.601562 29.101562 20.699219 29.101562 17.5 C 29 9.5 22.5 3 14.5 3 Z M 14.5 3 "/>
</g>
</g>

<g transform="scale(1.33333333)">    <g id="surface78">
        <path d="M13.801,9.898C11.645,9.898 9.898,11.645 9.898,13.801C9.898,15.953 11.645,17.699 13.801,17.699C15.953,17.699 17.699,15.953 17.699,13.801C17.699,11.645 15.953,9.898 13.801,9.898Z" style="fill:rgb(186,224,189);fill-rule:nonzero;"/>
        <path d="M13.801,10.199C15.781,10.199 17.398,11.82 17.398,13.801C17.398,15.781 15.781,17.398 13.801,17.398C11.82,17.398 10.199,15.781 10.199,13.801C10.199,11.82 11.82,10.199 13.801,10.199M13.801,9.602C11.461,9.602 9.602,11.461 9.602,13.801C9.602,16.141 11.461,18 13.801,18C16.141,18 18,16.141 18,13.801C18,11.461 16.141,9.602 13.801,9.602Z" style="fill:rgb(94,156,118);fill-rule:nonzero;"/>
        <rect x="13.199" y="11.398" width="1.199" height="4.801" style="fill:rgb(254,254,254);fill-rule:nonzero;"/>
        <rect x="11.398" y="13.199" width="4.801" height="1.199" style="fill:rgb(254,254,254);fill-rule:nonzero;"/>
    </g></g>
</svg>
