<?xml version="1.0" encoding="UTF-8"?>
<svg id="add-accelerometer" xmlns="http://www.w3.org/2000/svg" xmlns:xlink="http://www.w3.org/1999/xlink" width="24" height="24" viewBox="0 0 24 24" version="1.1">
<g transform="scale(1.33333333)">
<g id="surface151">
<path style=" stroke:none;fill-rule:nonzero;fill:rgb(54.509807%,71.764708%,94.117647%);fill-opacity:1;" d="M 16.09375 14.101562 L 13.5 11.71875 L 13.5 13.5 L 4.472656 13.5 L 4.472656 14.699219 L 13.5 14.699219 L 13.5 16.480469 Z M 16.09375 14.101562 "/>
<path style=" stroke:none;fill-rule:nonzero;fill:rgb(30.588236%,47.843137%,70.980394%);fill-opacity:1;" d="M 13.199219 17.160156 L 13.199219 15 L 4.171875 15 L 4.171875 13.199219 L 13.199219 13.199219 L 13.199219 11.039062 L 16.539062 14.101562 Z M 4.773438 14.398438 L 13.800781 14.398438 L 13.800781 15.796875 L 15.652344 14.101562 L 13.800781 12.402344 L 13.800781 13.800781 L 4.773438 13.800781 Z M 4.773438 14.398438 "/>
<path style=" stroke:none;fill-rule:nonzero;fill:rgb(88.235295%,92.156863%,94.901961%);fill-opacity:1;" d="M 6.28125 4.5 L 3.898438 1.90625 L 1.519531 4.5 L 3.300781 4.5 L 3.300781 13.976562 L 4.5 13.976562 L 4.5 4.5 Z M 6.28125 4.5 "/>
<path style=" stroke:none;fill-rule:nonzero;fill:rgb(47.058824%,54.509807%,61.176473%);fill-opacity:1;" d="M 4.800781 14.273438 L 3 14.273438 L 3 4.800781 L 0.839844 4.800781 L 3.898438 1.460938 L 6.960938 4.800781 L 4.800781 4.800781 Z M 3.601562 13.675781 L 4.199219 13.675781 L 4.199219 4.199219 L 5.597656 4.199219 L 3.898438 2.347656 L 2.203125 4.199219 L 3.601562 4.199219 Z M 3.601562 13.675781 "/>
<path style=" stroke:none;fill-rule:nonzero;fill:rgb(96.862745%,56.078434%,56.078434%);fill-opacity:1;" d="M 5.101562 14.101562 C 5.101562 14.761719 4.5625 15.300781 3.898438 15.300781 C 3.238281 15.300781 2.699219 14.761719 2.699219 14.101562 C 2.699219 13.4375 3.238281 12.898438 3.898438 12.898438 C 4.5625 12.898438 5.101562 13.4375 5.101562 14.101562 Z M 5.101562 14.101562 "/>
<path style=" stroke:none;fill-rule:nonzero;fill:rgb(78.039217%,26.274511%,26.274511%);fill-opacity:1;" d="M 3.898438 15.601562 C 3.074219 15.601562 2.398438 14.925781 2.398438 14.101562 C 2.398438 13.273438 3.074219 12.601562 3.898438 12.601562 C 4.726562 12.601562 5.398438 13.273438 5.398438 14.101562 C 5.398438 14.925781 4.726562 15.601562 3.898438 15.601562 Z M 3.898438 13.199219 C 3.402344 13.199219 3 13.605469 3 14.101562 C 3 14.597656 3.402344 15 3.898438 15 C 4.394531 15 4.800781 14.597656 4.800781 14.101562 C 4.800781 13.605469 4.394531 13.199219 3.898438 13.199219 Z M 3.898438 13.199219 "/>
</g>
</g>

<g transform="scale(1.33333333)">    <g id="surface78">
        <path d="M13.801,9.898C11.645,9.898 9.898,11.645 9.898,13.801C9.898,15.953 11.645,17.699 13.801,17.699C15.953,17.699 17.699,15.953 17.699,13.801C17.699,11.645 15.953,9.898 13.801,9.898Z" style="fill:rgb(186,224,189);fill-rule:nonzero;"/>
        <path d="M13.801,10.199C15.781,10.199 17.398,11.82 17.398,13.801C17.398,15.781 15.781,17.398 13.801,17.398C11.82,17.398 10.199,15.781 10.199,13.801C10.199,11.82 11.82,10.199 13.801,10.199M13.801,9.602C11.461,9.602 9.602,11.461 9.602,13.801C9.602,16.141 11.461,18 13.801,18C16.141,18 18,16.141 18,13.801C18,11.461 16.141,9.602 13.801,9.602Z" style="fill:rgb(94,156,118);fill-rule:nonzero;"/>
        <rect x="13.199" y="11.398" width="1.199" height="4.801" style="fill:rgb(254,254,254);fill-rule:nonzero;"/>
        <rect x="11.398" y="13.199" width="4.801" height="1.199" style="fill:rgb(254,254,254);fill-rule:nonzero;"/>
    </g></g>
</svg>
