<?xml version="1.0" encoding="UTF-8" standalone="no"?>
<!DOCTYPE svg PUBLIC "-//W3C//DTD SVG 1.1//EN" "http://www.w3.org/Graphics/SVG/1.1/DTD/svg11.dtd">
<svg id="add-plot3d" width="24" height="24" viewBox="0 0 24 24" version="1.1" xmlns="http://www.w3.org/2000/svg" xmlns:xlink="http://www.w3.org/1999/xlink" xml:space="preserve" xmlns:serif="http://www.serif.com/" style="fill-rule:evenodd;clip-rule:evenodd;stroke-linejoin:round;stroke-miterlimit:2;">
<g transform="scale(0.4)">
    <g id="surface1008">
        <path d="M1.434,30L30,1.43L58.566,30L30,58.566L1.434,30Z" style="fill:rgb(88,156,219);fill-rule:nonzero;"/>
        <path d="M30,2.801L57.199,30L30,57.199L2.801,30L30,2.801M30,0L0,30L30,60L60,30L30,0Z" style="fill:rgb(78,121,181);fill-rule:nonzero;"/>
        <path d="M29.801,58.398L36,34L58.602,30L30,58.602L29.801,58.398Z" style="fill:rgb(69,133,191);fill-rule:nonzero;"/>
        <path d="M55.801,31.398L31.801,55.398L37,34.801L55.801,31.398M58.801,28.801L35.801,33L35.199,33.199L35,33.801L28.801,58.801L30,60L60,30L58.801,28.801Z" style="fill:rgb(78,121,181);fill-rule:nonzero;"/>
        <path d="M29.031,2.262L30.996,1.895L37.004,33.934L35.039,34.305L29.031,2.262Z" style="fill:rgb(115,115,115);fill-rule:nonzero;"/>
        <path d="M29.023,57.789L35.035,33.727L36.977,34.211L30.965,58.273L29.023,57.789Z" style="fill:rgb(115,115,115);fill-rule:nonzero;"/>
        <path d="M1.801,30.984L2.035,28.996L36,32.992L35.766,34.98L1.801,30.984Z" style="fill:rgb(115,115,115);fill-rule:nonzero;"/>
        <path d="M1.398,30L36,34L29.801,58.398L1.398,30Z" style="fill:rgb(151,201,254);fill-rule:nonzero;"/>
        <path d="M4,31.199L34.602,34.801L29.199,56.398L4,31.199M1.199,28.801L0,30L30,60L30.801,59.199L37,34.199L37.199,33.199L36.199,33L1.199,28.801Z" style="fill:rgb(78,121,181);fill-rule:nonzero;"/>
        <path d="M1.398,30L30,1.602L36,33.801L36,34L35.801,34L1.398,30Z" style="fill:rgb(194,232,254);fill-rule:nonzero;"/>
        <path d="M29.199,3.602L34.602,33L3.602,29.199L29.199,3.602M30,0L0,30L0.801,30.801L35.801,35L36.801,34.801L37,33.801L30.801,0.801L30,0Z" style="fill:rgb(78,121,181);fill-rule:nonzero;"/>
    </g>
</g>

<g transform="scale(1.33333333)">    <g id="surface78">
        <path d="M13.801,9.898C11.645,9.898 9.898,11.645 9.898,13.801C9.898,15.953 11.645,17.699 13.801,17.699C15.953,17.699 17.699,15.953 17.699,13.801C17.699,11.645 15.953,9.898 13.801,9.898Z" style="fill:rgb(186,224,189);fill-rule:nonzero;"/>
        <path d="M13.801,10.199C15.781,10.199 17.398,11.82 17.398,13.801C17.398,15.781 15.781,17.398 13.801,17.398C11.82,17.398 10.199,15.781 10.199,13.801C10.199,11.82 11.82,10.199 13.801,10.199M13.801,9.602C11.461,9.602 9.602,11.461 9.602,13.801C9.602,16.141 11.461,18 13.801,18C16.141,18 18,16.141 18,13.801C18,11.461 16.141,9.602 13.801,9.602Z" style="fill:rgb(94,156,118);fill-rule:nonzero;"/>
        <rect x="13.199" y="11.398" width="1.199" height="4.801" style="fill:rgb(254,254,254);fill-rule:nonzero;"/>
        <rect x="11.398" y="13.199" width="4.801" height="1.199" style="fill:rgb(254,254,254);fill-rule:nonzero;"/>
    </g></g>
</svg>
