<?xml version="1.0" encoding="UTF-8"?>
<svg xmlns="http://www.w3.org/2000/svg" xmlns:xlink="http://www.w3.org/1999/xlink" width="24" height="24" viewBox="0 0 24 24" version="1.1">
<g transform="scale(2)">
<g id="surface237">
<path style=" stroke:none;fill-rule:nonzero;fill:rgb(54.509807%,71.764708%,94.117647%);fill-opacity:1;" d="M 7 5 L 7 2.082031 L 8 3.082031 L 10.398438 0.683594 L 11.316406 1.601562 L 8.917969 4 L 9.917969 5 Z M 7 5 "/>
<path style=" stroke:none;fill-rule:nonzero;fill:rgb(30.588236%,47.843137%,70.980394%);fill-opacity:1;" d="M 10.398438 0.964844 L 11.035156 1.601562 L 8.917969 3.71875 L 8.632812 4 L 8.917969 4.28125 L 9.433594 4.800781 L 7.199219 4.800781 L 7.199219 2.566406 L 7.71875 3.082031 L 8 3.367188 L 8.28125 3.082031 L 10.398438 0.964844 M 10.398438 0.398438 L 8 2.800781 L 6.800781 1.601562 L 6.800781 5.199219 L 10.398438 5.199219 L 9.199219 4 L 11.601562 1.601562 Z M 10.398438 0.398438 "/>
<path style=" stroke:none;fill-rule:nonzero;fill:rgb(54.509807%,71.764708%,94.117647%);fill-opacity:1;" d="M 0.683594 10.398438 L 3.082031 8 L 2.082031 7 L 5 7 L 5 9.917969 L 4 8.917969 L 1.601562 11.316406 Z M 0.683594 10.398438 "/>
<path style=" stroke:none;fill-rule:nonzero;fill:rgb(30.588236%,47.843137%,70.980394%);fill-opacity:1;" d="M 4.800781 7.199219 L 4.800781 9.433594 L 4.28125 8.917969 L 4 8.632812 L 3.71875 8.917969 L 1.601562 11.035156 L 0.964844 10.398438 L 3.082031 8.28125 L 3.367188 8 L 3.082031 7.71875 L 2.566406 7.199219 L 4.800781 7.199219 M 5.199219 6.800781 L 1.601562 6.800781 L 2.800781 8 L 0.398438 10.398438 L 1.601562 11.601562 L 4 9.199219 L 5.199219 10.398438 Z M 5.199219 6.800781 "/>
</g>
</g>
</svg>
