<?xml version="1.0" encoding="UTF-8"?>
<svg xmlns="http://www.w3.org/2000/svg" xmlns:xlink="http://www.w3.org/1999/xlink" width="24" height="24" viewBox="0 0 24 24" version="1.1">
<g transform="scale(0.8)">
<g id="surface27">
<path style=" stroke:none;fill-rule:nonzero;fill:rgb(72.941178%,87.843138%,74.117649%);fill-opacity:1;" d="M 1.738281 17.5 C 1.578125 16.660156 1.5 15.820312 1.5 15 C 1.5 11.660156 2.742188 8.449219 4.996094 5.964844 L 5.316406 5.609375 L 3.207031 3.5 L 9.5 3.5 L 9.5 9.792969 L 7.429688 7.722656 L 7.078125 8.125 C 5.414062 10.039062 4.5 12.480469 4.5 15 C 4.5 15.84375 4.601562 16.683594 4.800781 17.5 Z M 1.738281 17.5 "/>
<path style=" stroke:none;fill-rule:nonzero;fill:rgb(36.862746%,61.176473%,46.27451%);fill-opacity:1;" d="M 9 4 L 9 8.585938 L 7.402344 6.988281 L 6.699219 7.800781 C 4.960938 9.800781 4 12.359375 4 15 C 4 15.671875 4.0625 16.34375 4.183594 17 L 2.160156 17 C 2.054688 16.328125 2 15.660156 2 15 C 2 11.785156 3.195312 8.695312 5.367188 6.300781 L 6.007812 5.59375 L 4.414062 4 L 9 4 M 10 3 L 2 3 L 4.628906 5.628906 C 2.378906 8.105469 1 11.386719 1 15 C 1 16.03125 1.117188 17.03125 1.328125 18 L 5.460938 18 C 5.160156 17.054688 5 16.046875 5 15 C 5 12.492188 5.929688 10.210938 7.453125 8.453125 L 10 11 Z M 10 3 "/>
<path style=" stroke:none;fill-rule:nonzero;fill:rgb(72.941178%,87.843138%,74.117649%);fill-opacity:1;" d="M 20.5 26.5 L 20.5 20.207031 L 22.570312 22.277344 L 22.921875 21.875 C 24.585938 19.960938 25.5 17.519531 25.5 15 C 25.5 14.15625 25.398438 13.316406 25.199219 12.5 L 28.261719 12.5 C 28.421875 13.339844 28.5 14.179688 28.5 15 C 28.5 18.332031 27.257812 21.539062 24.996094 24.03125 L 24.679688 24.386719 L 26.792969 26.5 Z M 20.5 26.5 "/>
<path style=" stroke:none;fill-rule:nonzero;fill:rgb(36.862746%,61.176473%,46.27451%);fill-opacity:1;" d="M 27.839844 13 C 27.945312 13.671875 28 14.339844 28 15 C 28 18.207031 26.800781 21.296875 24.628906 23.695312 L 23.988281 24.402344 L 25.585938 26 L 21 26 L 21 21.414062 L 22.597656 23.011719 L 23.300781 22.199219 C 25.039062 20.199219 26 17.640625 26 15 C 26 14.328125 25.9375 13.65625 25.816406 13 L 27.839844 13 M 28.671875 12 L 24.539062 12 C 24.839844 12.945312 25 13.953125 25 15 C 25 17.507812 24.070312 19.789062 22.546875 21.546875 L 20 19 L 20 27 L 28 27 L 25.367188 24.367188 C 27.617188 21.886719 29 18.613281 29 15 C 29 13.96875 28.882812 12.96875 28.671875 12 Z M 28.671875 12 "/>
<path style=" stroke:none;fill-rule:nonzero;fill:rgb(72.941178%,87.843138%,74.117649%);fill-opacity:1;" d="M 20.207031 9.5 L 22.277344 7.429688 L 21.875 7.074219 C 19.960938 5.414062 17.519531 4.5 15 4.5 C 14.152344 4.5 13.316406 4.601562 12.5 4.800781 L 12.5 1.738281 C 13.339844 1.578125 14.179688 1.5 15 1.5 C 18.328125 1.5 21.535156 2.746094 24.027344 5.003906 L 24.382812 5.324219 L 26.5 3.207031 L 26.5 9.5 Z M 20.207031 9.5 "/>
<path style=" stroke:none;fill-rule:nonzero;fill:rgb(36.862746%,61.176473%,46.27451%);fill-opacity:1;" d="M 15 2 C 18.203125 2 21.292969 3.199219 23.695312 5.375 L 24.398438 6.015625 L 25.070312 5.339844 L 26 4.414062 L 26 9 L 21.414062 9 L 23.011719 7.402344 L 22.199219 6.699219 C 20.199219 4.960938 17.640625 4 15 4 C 14.328125 4 13.65625 4.0625 13 4.183594 L 13 2.160156 C 13.671875 2.054688 14.339844 2 15 2 M 15 1 C 13.96875 1 12.96875 1.117188 12 1.328125 L 12 5.460938 C 12.945312 5.160156 13.953125 5 15 5 C 17.507812 5 19.789062 5.929688 21.546875 7.453125 L 19 10 L 27 10 L 27 2 L 24.363281 4.636719 C 21.886719 2.386719 18.613281 1 15 1 Z M 15 1 "/>
<path style=" stroke:none;fill-rule:nonzero;fill:rgb(72.941178%,87.843138%,74.117649%);fill-opacity:1;" d="M 15 28.5 C 11.65625 28.5 8.445312 27.257812 5.960938 25.003906 L 5.609375 24.683594 L 3.5 26.792969 L 3.5 20.5 L 9.792969 20.5 L 7.722656 22.570312 L 8.125 22.925781 C 10.039062 24.585938 12.480469 25.5 15 25.5 C 15.847656 25.5 16.683594 25.398438 17.5 25.199219 L 17.5 28.261719 C 16.660156 28.421875 15.820312 28.5 15 28.5 Z M 15 28.5 "/>
<path style=" stroke:none;fill-rule:nonzero;fill:rgb(36.862746%,61.176473%,46.27451%);fill-opacity:1;" d="M 8.585938 21 L 6.988281 22.597656 L 7.800781 23.300781 C 9.800781 25.039062 12.359375 26 15 26 C 15.671875 26 16.34375 25.9375 17 25.816406 L 17 27.839844 C 16.328125 27.945312 15.660156 28 15 28 C 11.78125 28 8.691406 26.804688 6.296875 24.632812 L 5.59375 23.992188 L 4 25.585938 L 4 21 L 8.585938 21 M 11 20 L 3 20 L 3 28 L 5.625 25.375 C 8.105469 27.621094 11.386719 29 15 29 C 16.03125 29 17.03125 28.882812 18 28.671875 L 18 24.539062 C 17.054688 24.839844 16.046875 25 15 25 C 12.492188 25 10.210938 24.070312 8.453125 22.546875 Z M 11 20 "/>
</g>
</g>
</svg>
