<?xml version="1.0" encoding="UTF-8"?>
<svg xmlns="http://www.w3.org/2000/svg" xmlns:xlink="http://www.w3.org/1999/xlink" width="24" height="24" viewBox="0 0 24 24" version="1.1">
<g transform="scale(1.33333333)">
<g id="surface1403">
<path style=" stroke:none;fill-rule:nonzero;fill:rgb(100%,100%,100%);fill-opacity:1;" d="M 3.300781 16.5 L 3.300781 1.5 L 11.28125 1.5 L 14.699219 4.921875 L 14.699219 16.5 Z M 3.300781 16.5 "/>
<path style=" stroke:none;fill-rule:nonzero;fill:rgb(47.058824%,54.509807%,61.176473%);fill-opacity:1;" d="M 11.160156 1.800781 L 14.398438 5.039062 L 14.398438 16.199219 L 3.601562 16.199219 L 3.601562 1.800781 L 11.160156 1.800781 M 11.398438 1.199219 L 3 1.199219 L 3 16.800781 L 15 16.800781 L 15 4.800781 Z M 11.398438 1.199219 "/>
<path style=" stroke:none;fill-rule:nonzero;fill:rgb(100%,100%,100%);fill-opacity:1;" d="M 11.101562 5.101562 L 11.101562 1.5 L 11.28125 1.5 L 14.699219 4.921875 L 14.699219 5.101562 Z M 11.101562 5.101562 "/>
<path style=" stroke:none;fill-rule:nonzero;fill:rgb(47.058824%,54.509807%,61.176473%);fill-opacity:1;" d="M 11.398438 2.039062 L 14.160156 4.800781 L 11.398438 4.800781 L 11.398438 2.039062 M 11.398438 1.199219 L 10.800781 1.199219 L 10.800781 5.398438 L 15 5.398438 L 15 4.800781 Z M 11.398438 1.199219 "/>
<path style=" stroke:none;fill-rule:nonzero;fill:rgb(69.803923%,44.705883%,85.882354%);fill-opacity:1;" d="M 11.339844 12.480469 L 10.859375 12.121094 L 11.941406 10.5 L 10.859375 8.878906 L 11.339844 8.519531 L 12.660156 10.5 Z M 6.660156 12.480469 L 5.339844 10.5 L 6.660156 8.519531 L 7.140625 8.878906 L 6.058594 10.5 L 7.140625 12.121094 Z M 6.660156 12.480469 "/>
<path style=" stroke:none;fill-rule:nonzero;fill:rgb(69.803923%,44.705883%,85.882354%);fill-opacity:1;" d="M 7.816406 13.402344 L 9.609375 7.425781 L 10.183594 7.597656 L 8.390625 13.574219 Z M 7.816406 13.402344 "/>
</g>
</g>
</svg>
