<?xml version="1.0" encoding="UTF-8"?>
<svg xmlns="http://www.w3.org/2000/svg" xmlns:xlink="http://www.w3.org/1999/xlink" width="24" height="24" viewBox="0 0 24 24" version="1.1">
<g transform="scale(1.06666667)">
<g id="surface369">
<path style=" stroke:none;fill-rule:nonzero;fill:rgb(96.862745%,56.078434%,56.078434%);fill-opacity:1;" d="M 1.101562 1.101562 L 8.433594 1.101562 L 8.433594 6.234375 L 1.101562 6.234375 Z M 1.101562 1.101562 "/>
<path style=" stroke:none;fill-rule:nonzero;fill:rgb(78.039217%,26.274511%,26.274511%);fill-opacity:1;" d="M 8.066406 1.464844 L 8.066406 5.867188 L 1.464844 5.867188 L 1.464844 1.464844 L 8.066406 1.464844 M 8.800781 0.734375 L 0.734375 0.734375 L 0.734375 6.601562 L 8.800781 6.601562 Z M 8.800781 0.734375 "/>
<path style=" stroke:none;fill-rule:nonzero;fill:rgb(54.509807%,71.764708%,94.117647%);fill-opacity:1;" d="M 13.566406 6.964844 L 20.898438 6.964844 L 20.898438 12.832031 L 13.566406 12.832031 Z M 13.566406 6.964844 "/>
<path style=" stroke:none;fill-rule:nonzero;fill:rgb(30.588236%,47.843137%,70.980394%);fill-opacity:1;" d="M 20.535156 7.332031 L 20.535156 12.464844 L 13.933594 12.464844 L 13.933594 7.332031 L 20.535156 7.332031 M 21.265625 6.601562 L 13.199219 6.601562 L 13.199219 13.199219 L 21.265625 13.199219 Z M 21.265625 6.601562 "/>
<path style=" stroke:none;fill-rule:nonzero;fill:rgb(54.509807%,71.764708%,94.117647%);fill-opacity:1;" d="M 13.566406 15.035156 L 20.898438 15.035156 L 20.898438 20.898438 L 13.566406 20.898438 Z M 13.566406 15.035156 "/>
<path style=" stroke:none;fill-rule:nonzero;fill:rgb(30.588236%,47.843137%,70.980394%);fill-opacity:1;" d="M 20.535156 15.398438 L 20.535156 20.535156 L 13.933594 20.535156 L 13.933594 15.398438 L 20.535156 15.398438 M 21.265625 14.667969 L 13.199219 14.667969 L 13.199219 21.265625 L 21.265625 21.265625 Z M 21.265625 14.667969 "/>
<path style=" stroke:none;fill-rule:nonzero;fill:rgb(40.000001%,47.450981%,56.078434%);fill-opacity:1;" d="M 13.199219 17.601562 L 5.132812 17.601562 L 5.132812 6.601562 L 4.398438 6.601562 L 4.398438 18.332031 L 13.199219 18.332031 Z M 13.199219 17.601562 "/>
<path style=" stroke:none;fill-rule:nonzero;fill:rgb(40.000001%,47.450981%,56.078434%);fill-opacity:1;" d="M 5.132812 10.265625 L 5.132812 9.535156 L 13.199219 9.535156 L 13.199219 10.265625 Z M 5.132812 10.265625 "/>
</g>
</g>
</svg>
