<?xml version="1.0" encoding="UTF-8"?>
<svg xmlns="http://www.w3.org/2000/svg" xmlns:xlink="http://www.w3.org/1999/xlink" width="24" height="24" viewBox="0 0 24 24" version="1.1">
<g transform="scale(1.33333333)">
<g id="surface1378">
<path style=" stroke:none;fill-rule:nonzero;fill:rgb(64.705884%,61.56863%,81.960785%);fill-opacity:1;" d="M 9 17.101562 C 4.535156 17.101562 0.898438 13.464844 0.898438 9 C 0.898438 4.535156 4.535156 0.898438 9 0.898438 C 13.464844 0.898438 17.101562 4.535156 17.101562 9 C 17.101562 13.464844 13.464844 17.101562 9 17.101562 Z M 9 17.101562 "/>
<path style=" stroke:none;fill-rule:nonzero;fill:rgb(54.509807%,45.882353%,63.137257%);fill-opacity:1;" d="M 9 1.199219 C 13.300781 1.199219 16.800781 4.699219 16.800781 9 C 16.800781 13.300781 13.300781 16.800781 9 16.800781 C 4.699219 16.800781 1.199219 13.300781 1.199219 9 C 1.199219 4.699219 4.699219 1.199219 9 1.199219 M 9 0.601562 C 4.359375 0.601562 0.601562 4.359375 0.601562 9 C 0.601562 13.640625 4.359375 17.398438 9 17.398438 C 13.640625 17.398438 17.398438 13.640625 17.398438 9 C 17.398438 4.359375 13.640625 0.601562 9 0.601562 Z M 9 0.601562 "/>
<path style=" stroke:none;fill-rule:nonzero;fill:rgb(100%,100%,100%);fill-opacity:1;" d="M 4.199219 7.800781 L 5.398438 6.601562 L 9 10.199219 L 12.601562 6.601562 L 13.800781 7.800781 L 9 12.601562 Z M 4.199219 7.800781 "/>
</g>
</g>
</svg>
