<?xml version="1.0" encoding="UTF-8" standalone="no"?>
<svg
   viewBox="0 0 30 30"
   width="30"
   height="30"
   version="1.1"
   id="svg13"
   xmlns="http://www.w3.org/2000/svg"
   xmlns:svg="http://www.w3.org/2000/svg">
  <defs
     id="defs13" />
  <path
     fill="#dcd5f2"
     d="m 2.5,27.5 v -25 h 19.3 l 5.7,5.7 v 16.4 c 0,1.6 -1.3,2.9 -2.9,2.9 z"
     id="path1" />
  <path
     fill="#8b75a1"
     d="M 21.6,3 27,8.4 v 16.1 c 0,1.3 -1.1,2.4 -2.4,2.4 H 3 V 3 H 21.6 M 22,2 H 2 V 28 H 24.6 C 26.5,28 28,26.5 28,24.6 V 8 Z"
     id="path2" />
  <path
     fill="#ffffff"
     d="m 5.5,15.5 h 19 v 12 h -19 z"
     id="path3" />
  <path
     fill="#788b9c"
     d="M 24,16 V 27 H 6 V 16 h 18 m 1,-1 H 5 v 13 h 20 z"
     id="path4" />
  <path
     fill="#c6bae6"
     d="M 19,3 H 7 v 7 c 0,0.6 0.4,1 1,1 h 11 c 0.6,0 1,-0.4 1,-1 V 4 C 20,3.4 19.6,3 19,3 Z"
     id="path5" />
  <path
     fill="#e1ebf2"
     d="M 10,10.5 C 9.7,10.5 9.5,10.3 9.5,10 V 3 C 9.5,2.7 9.7,2.5 10,2.5 h 11 c 0.3,0 0.5,0.2 0.5,0.5 v 7 c 0,0.3 -0.2,0.5 -0.5,0.5 z"
     id="path6" />
  <path
     fill="#66798f"
     d="m 21,3 v 7 H 10 V 3 H 21 M 21,2 H 10 C 9.4,2 9,2.4 9,3 v 7 c 0,0.6 0.4,1 1,1 h 11 c 0.6,0 1,-0.4 1,-1 V 3 C 22,2.4 21.6,2 21,2 Z"
     id="path7" />
  <path
     fill="#c2e8ff"
     d="m 8,21 h 14 v 1 H 8 Z m 0,-3 h 14 v 1 H 8 Z m 0,6 h 14 v 1 H 8 Z"
     id="path8" />
  <path
     fill="#788b9c"
     d="m 17,4 h 2 v 5 h -2 z"
     id="path9" />
  <g
     id="g10">
    <path
       fill="#788b9c"
       d="m 24,15 h -1 v 2 h 1 z"
       id="path10" />
  </g>
  <g
     id="surface32"
     transform="matrix(1.3333333,0,0,1.3333333,13.998326,15)">
    <path
       style="fill:#ffeea1;fill-opacity:1;fill-rule:nonzero;stroke:none"
       d="m 0.699219,10.875 c -0.167969,0 -0.253907,-0.113281 -0.28125,-0.160156 -0.027344,-0.04687 -0.082031,-0.175782 0,-0.320313 l 5.304687,-9.1875 C 5.804688,1.0625 5.945312,1.046875 6,1.046875 c 0.054688,0 0.195312,0.015625 0.277344,0.160156 l 5.304687,9.1875 c 0.08203,0.144531 0.02734,0.269531 0,0.320313 -0.02734,0.04687 -0.113281,0.160156 -0.28125,0.160156 z m 0,0"
       id="path1-0" />
    <path
       style="fill:#b89947;fill-opacity:1;fill-rule:nonzero;stroke:none"
       d="M 6,1.476562 11.210938,10.5 H 0.789062 L 6,1.476562 M 6,0.671875 c -0.234375,0 -0.46875,0.117187 -0.601562,0.347656 L 0.09375,10.203125 C -0.175781,10.667969 0.160156,11.25 0.699219,11.25 h 10.601562 c 0.539063,0 0.875,-0.582031 0.605469,-1.042969 L 6.601562,1.023438 C 6.46875,0.789062 6.234375,0.671875 6,0.671875 Z m 0,0"
       id="path2-9" />
    <path
       style="fill:#353f4c;fill-opacity:1;fill-rule:nonzero;stroke:none"
       d="M 6,8.25 C 5.585938,8.25 5.25,8.585938 5.25,9 5.25,9.414062 5.585938,9.75 6,9.75 6.414062,9.75 6.75,9.414062 6.75,9 6.75,8.585938 6.414062,8.25 6,8.25 Z M 5.25,3.75 h 1.5 V 7.5 h -1.5 z m 0,0"
       id="path3-4" />
  </g>
</svg>
