<?xml version="1.0" encoding="UTF-8"?>
<svg xmlns="http://www.w3.org/2000/svg" xmlns:xlink="http://www.w3.org/1999/xlink" width="24" height="24" viewBox="0 0 24 24" version="1.1">
<g transform="scale(1.33333333)">
<g id="surface1751">
<path style=" stroke:none;fill-rule:nonzero;fill:rgb(60.000002%,78.823531%,61.960787%);fill-opacity:1;" d="M 0.898438 12.300781 L 0.898438 3.601562 C 0.898438 3.105469 1.304688 2.699219 1.800781 2.699219 L 16.199219 2.699219 C 16.695312 2.699219 17.101562 3.105469 17.101562 3.601562 L 17.101562 12.300781 Z M 0.898438 12.300781 "/>
<path style=" stroke:none;fill-rule:nonzero;fill:rgb(36.862746%,61.176473%,46.27451%);fill-opacity:1;" d="M 16.199219 3 C 16.53125 3 16.800781 3.269531 16.800781 3.601562 L 16.800781 12 L 1.199219 12 L 1.199219 3.601562 C 1.199219 3.269531 1.46875 3 1.800781 3 L 16.199219 3 M 16.199219 2.398438 L 1.800781 2.398438 C 1.136719 2.398438 0.601562 2.9375 0.601562 3.601562 L 0.601562 12.601562 L 17.398438 12.601562 L 17.398438 3.601562 C 17.398438 2.9375 16.863281 2.398438 16.199219 2.398438 Z M 16.199219 2.398438 "/>
<path style=" stroke:none;fill-rule:nonzero;fill:rgb(21.176471%,25.098041%,30.19608%);fill-opacity:1;" d="M 0.601562 12 L 0.601562 15.601562 L 8.398438 15.601562 L 8.398438 13.800781 C 8.398438 13.46875 8.671875 13.199219 9 13.199219 C 9.328125 13.199219 9.601562 13.46875 9.601562 13.800781 L 9.601562 15.601562 L 17.398438 15.601562 L 17.398438 12 Z M 0.601562 12 "/>
<path style=" stroke:none;fill-rule:nonzero;fill:rgb(96.078432%,80.784315%,52.156866%);fill-opacity:1;" d="M 11.398438 15.601562 L 11.398438 13.5 C 11.398438 13.335938 11.265625 13.199219 11.101562 13.199219 C 10.933594 13.199219 10.800781 13.335938 10.800781 13.5 L 10.800781 15.601562 Z M 12.601562 15.601562 L 12.601562 13.5 C 12.601562 13.335938 12.464844 13.199219 12.300781 13.199219 C 12.136719 13.199219 12 13.335938 12 13.5 L 12 15.601562 Z M 13.800781 15.601562 L 13.800781 13.5 C 13.800781 13.335938 13.664062 13.199219 13.5 13.199219 C 13.335938 13.199219 13.199219 13.335938 13.199219 13.5 L 13.199219 15.601562 Z M 15 15.601562 L 15 13.5 C 15 13.335938 14.863281 13.199219 14.699219 13.199219 C 14.535156 13.199219 14.398438 13.335938 14.398438 13.5 L 14.398438 15.601562 Z M 16.199219 15.601562 L 16.199219 13.5 C 16.199219 13.335938 16.066406 13.199219 15.898438 13.199219 C 15.734375 13.199219 15.601562 13.335938 15.601562 13.5 L 15.601562 15.601562 Z M 2.398438 15.601562 L 2.398438 13.5 C 2.398438 13.335938 2.265625 13.199219 2.101562 13.199219 C 1.933594 13.199219 1.800781 13.335938 1.800781 13.5 L 1.800781 15.601562 Z M 3.601562 15.601562 L 3.601562 13.5 C 3.601562 13.335938 3.464844 13.199219 3.300781 13.199219 C 3.136719 13.199219 3 13.335938 3 13.5 L 3 15.601562 Z M 4.800781 15.601562 L 4.800781 13.5 C 4.800781 13.335938 4.664062 13.199219 4.5 13.199219 C 4.335938 13.199219 4.199219 13.335938 4.199219 13.5 L 4.199219 15.601562 Z M 6 15.601562 L 6 13.5 C 6 13.335938 5.863281 13.199219 5.699219 13.199219 C 5.535156 13.199219 5.398438 13.335938 5.398438 13.5 L 5.398438 15.601562 Z M 7.199219 15.601562 L 7.199219 13.5 C 7.199219 13.335938 7.066406 13.199219 6.898438 13.199219 C 6.734375 13.199219 6.601562 13.335938 6.601562 13.5 L 6.601562 15.601562 Z M 7.199219 15.601562 "/>
<path style=" stroke:none;fill-rule:nonzero;fill:rgb(29.411766%,39.215687%,46.666667%);fill-opacity:1;" d="M 2.699219 5.101562 L 4.5 5.101562 L 4.5 9.898438 L 2.699219 9.898438 Z M 2.699219 5.101562 "/>
<path style=" stroke:none;fill-rule:nonzero;fill:rgb(21.176471%,25.098041%,30.19608%);fill-opacity:1;" d="M 4.199219 5.398438 L 4.199219 9.601562 L 3 9.601562 L 3 5.398438 L 4.199219 5.398438 M 4.800781 4.800781 L 2.398438 4.800781 L 2.398438 10.199219 L 4.800781 10.199219 Z M 4.800781 4.800781 "/>
<path style=" stroke:none;fill-rule:nonzero;fill:rgb(29.411766%,39.215687%,46.666667%);fill-opacity:1;" d="M 6.300781 5.101562 L 8.101562 5.101562 L 8.101562 9.898438 L 6.300781 9.898438 Z M 6.300781 5.101562 "/>
<path style=" stroke:none;fill-rule:nonzero;fill:rgb(21.176471%,25.098041%,30.19608%);fill-opacity:1;" d="M 7.800781 5.398438 L 7.800781 9.601562 L 6.601562 9.601562 L 6.601562 5.398438 L 7.800781 5.398438 M 8.398438 4.800781 L 6 4.800781 L 6 10.199219 L 8.398438 10.199219 Z M 8.398438 4.800781 "/>
<path style=" stroke:none;fill-rule:nonzero;fill:rgb(29.411766%,39.215687%,46.666667%);fill-opacity:1;" d="M 9.898438 5.101562 L 11.699219 5.101562 L 11.699219 9.898438 L 9.898438 9.898438 Z M 9.898438 5.101562 "/>
<path style=" stroke:none;fill-rule:nonzero;fill:rgb(21.176471%,25.098041%,30.19608%);fill-opacity:1;" d="M 11.398438 5.398438 L 11.398438 9.601562 L 10.199219 9.601562 L 10.199219 5.398438 L 11.398438 5.398438 M 12 4.800781 L 9.601562 4.800781 L 9.601562 10.199219 L 12 10.199219 Z M 12 4.800781 "/>
<path style=" stroke:none;fill-rule:nonzero;fill:rgb(29.411766%,39.215687%,46.666667%);fill-opacity:1;" d="M 13.5 5.101562 L 15.300781 5.101562 L 15.300781 9.898438 L 13.5 9.898438 Z M 13.5 5.101562 "/>
<path style=" stroke:none;fill-rule:nonzero;fill:rgb(21.176471%,25.098041%,30.19608%);fill-opacity:1;" d="M 15 5.398438 L 15 9.601562 L 13.800781 9.601562 L 13.800781 5.398438 L 15 5.398438 M 15.601562 4.800781 L 13.199219 4.800781 L 13.199219 10.199219 L 15.601562 10.199219 Z M 15.601562 4.800781 "/>
</g>
</g>
</svg>
