<svg xmlns="http://www.w3.org/2000/svg" viewBox="0 0 48 48" width="48px" height="48px"><path d="M 24 6 C 18.201 6 13.5 10.701 13.5 16.5 L 13.5 20 L 12.5 20 C 10.019 20 8 22.019 8 24.5 L 8 37.5 C 8 39.981 10.019 42 12.5 42 L 35.5 42 C 37.981 42 40 39.981 40 37.5 L 40 24.5 C 40 22.019 37.981 20 35.5 20 L 34.5 20 L 34.5 16.5 C 34.5 10.701 29.799 6 24 6 z M 24 9 C 28.142 9 31.5 12.358 31.5 16.5 L 31.5 20 L 16.5 20 L 16.5 16.5 C 16.5 12.358 19.858 9 24 9 z M 12.5 23 L 35.5 23 C 36.346 23 37 23.654 37 24.5 L 37 37.5 C 37 38.346 36.346 39 35.5 39 L 12.5 39 C 11.654 39 11 38.346 11 37.5 L 11 24.5 C 11 23.654 11.654 23 12.5 23 z M 24 27 C 22.343 27 21 28.343 21 30 C 21 31.104 21.602 32.064 22.5 32.584 L 22.5 34.5 C 22.5 35.328 23.172 36 24 36 C 24.828 36 25.5 35.328 25.5 34.5 L 25.5 32.584 C 26.398 32.064 27 31.104 27 30 C 27 28.343 25.657 27 24 27 z"/></svg>
