<svg xmlns="http://www.w3.org/2000/svg"  viewBox="0 0 48 48" width="48px" height="48px"><path d="M 10.5 6 C 7.467 6 5 8.468 5 11.5 L 5 36.5 C 5 39.532 7.467 42 10.5 42 L 22.605469 42 C 22.807469 41.234 23.081406 40.26 23.441406 39 L 10.5 39 C 9.122 39 8 37.879 8 36.5 L 8 16 L 40 16 L 40 22.191406 C 40.105 22.166406 40.2065 22.126422 40.3125 22.107422 C 40.7065 22.036422 41.102859 21.992953 41.505859 22.001953 C 42.015859 22.001953 42.515 22.067641 43 22.181641 L 43 11.5 C 43 8.468 40.533 6 37.5 6 L 10.5 6 z M 13.5 20 A 1.50015 1.50015 0 1 0 13.5 23 L 15.5 23 A 1.50015 1.50015 0 1 0 15.5 20 L 13.5 20 z M 21.5 20 A 1.50015 1.50015 0 1 0 21.5 23 L 34.5 23 A 1.50015 1.50015 0 1 0 34.5 20 L 21.5 20 z M 41.498047 24 C 41.224047 24.001 40.946969 24.025172 40.667969 24.076172 C 39.783969 24.235172 38.939563 24.696156 38.226562 25.410156 L 26.427734 37.208984 C 26.070734 37.565984 25.807969 38.011141 25.667969 38.494141 L 24.097656 43.974609 C 24.025656 44.164609 23.993 44.365406 24 44.566406 C 24.013 44.929406 24.155594 45.288406 24.433594 45.566406 C 24.710594 45.843406 25.067688 45.986 25.429688 46 C 25.630688 46.007 25.834391 45.975344 26.025391 45.902344 L 31.505859 44.332031 C 31.988859 44.192031 32.431062 43.930266 32.789062 43.572266 L 44.589844 31.773438 C 45.303844 31.060437 45.764828 30.216031 45.923828 29.332031 C 45.973828 29.053031 45.997047 28.775953 45.998047 28.501953 C 46.001047 27.307953 45.540687 26.179312 44.679688 25.320312 C 43.820687 24.460313 42.692047 23.998 41.498047 24 z M 13.5 26 A 1.50015 1.50015 0 1 0 13.5 29 L 15.5 29 A 1.50015 1.50015 0 1 0 15.5 26 L 13.5 26 z M 21.5 26 C 20.671 26 20 26.671 20 27.5 C 20 28.329 20.671 29 21.5 29 L 31.808594 29 L 34.779297 26.027344 C 34.688297 26.010344 34.596 26 34.5 26 L 21.5 26 z M 13.5 32 A 1.50015 1.50015 0 1 0 13.5 35 L 15.5 35 A 1.50015 1.50015 0 1 0 15.5 32 L 13.5 32 z M 21.5 32 C 20.671 32 20 32.671 20 33.5 C 20 34.329 20.671 35 21.5 35 L 25.808594 35 L 28.808594 32 L 21.5 32 z"/></svg>