<?xml version="1.0" encoding="UTF-8"?>
<svg xmlns="http://www.w3.org/2000/svg" xmlns:xlink="http://www.w3.org/1999/xlink" width="72pt" height="72pt" viewBox="0 0 72 72" version="1.1">
<g id="surface7">
<path style=" stroke:none;fill-rule:nonzero;fill:rgb(9.803922%,9.803922%,9.803922%);fill-opacity:1;" d="M 14.175781 9 C 13.605469 9.019531 13.0625 9.253906 12.660156 9.660156 L 9.660156 12.660156 C 8.914062 13.40625 8.785156 14.570312 9.351562 15.460938 L 15.132812 24.535156 C 16.757812 27.132812 20.277344 27.617188 22.667969 25.847656 L 34.386719 37.570312 C 32.382812 41.023438 32.691406 45.480469 35.621094 48.445312 L 47.488281 60.476562 C 47.492188 60.480469 47.492188 60.480469 47.496094 60.480469 C 51.007812 64.015625 56.785156 64.039062 60.320312 60.527344 C 63.851562 57.019531 63.878906 51.242188 60.371094 47.707031 L 60.367188 47.699219 L 48.519531 35.691406 C 48.515625 35.691406 48.515625 35.691406 48.515625 35.691406 C 45.558594 32.707031 41.058594 32.371094 37.574219 34.390625 L 25.847656 22.667969 C 27.613281 20.28125 27.132812 16.761719 24.539062 15.136719 L 15.460938 9.351562 C 15.078125 9.109375 14.628906 8.984375 14.175781 9 Z M 47.121094 9 C 38.695312 9 31.8125 15.65625 31.410156 23.984375 L 36.207031 28.78125 C 36.328125 28.390625 36.347656 27.96875 36.238281 27.558594 C 35.996094 26.605469 35.871094 25.660156 35.871094 24.75 C 35.871094 18.546875 40.917969 13.5 47.121094 13.5 C 47.695312 13.5 48.265625 13.542969 48.824219 13.632812 L 43.976562 18.476562 C 42.699219 19.753906 42 21.445312 42 23.25 C 42 25.054688 42.703125 26.746094 43.976562 28.023438 C 45.253906 29.296875 46.945312 30 48.75 30 C 50.554688 30 52.246094 29.296875 53.523438 28.023438 L 58.273438 23.273438 C 58.339844 23.761719 58.371094 24.253906 58.371094 24.75 C 58.371094 29.21875 55.75 33.105469 51.964844 34.917969 L 55.242188 38.234375 C 59.808594 35.476562 62.871094 30.460938 62.871094 24.746094 C 62.871094 22.433594 62.367188 20.1875 61.371094 18.070312 C 61.058594 17.40625 60.445312 16.933594 59.722656 16.808594 C 59.003906 16.679688 58.261719 16.917969 57.746094 17.433594 L 50.339844 24.839844 C 49.492188 25.6875 48.007812 25.6875 47.160156 24.839844 C 46.734375 24.414062 46.5 23.851562 46.5 23.25 C 46.5 22.648438 46.734375 22.085938 47.160156 21.660156 L 54.605469 14.207031 C 55.121094 13.695312 55.355469 12.964844 55.238281 12.246094 C 55.117188 11.527344 54.65625 10.914062 54.003906 10.59375 C 51.828125 9.535156 49.511719 9 47.121094 9 Z M 14.5625 14.117188 L 22.128906 18.9375 C 22.136719 18.941406 22.140625 18.945312 22.148438 18.945312 C 22.597656 19.226562 22.65625 19.738281 22.28125 20.113281 L 20.113281 22.28125 C 19.734375 22.65625 19.230469 22.601562 18.945312 22.148438 C 18.945312 22.140625 18.941406 22.136719 18.9375 22.128906 L 14.117188 14.5625 Z M 25.820312 33.242188 L 11.632812 47.539062 C 9.925781 49.257812 8.992188 51.542969 9 53.964844 C 9.007812 56.386719 9.960938 58.660156 11.675781 60.367188 C 13.390625 62.066406 15.65625 63 18.066406 63 L 18.097656 63 C 20.523438 62.992188 22.796875 62.039062 24.503906 60.320312 L 33.828125 50.917969 L 33.304688 50.390625 C 32.386719 49.460938 31.664062 48.402344 31.105469 47.273438 L 21.308594 57.148438 C 20.449219 58.015625 19.304688 58.496094 18.085938 58.5 C 16.808594 58.480469 15.714844 58.035156 14.851562 57.171875 C 13.984375 56.3125 13.503906 55.167969 13.5 53.949219 C 13.496094 52.726562 13.96875 51.578125 14.828125 50.714844 L 29 36.425781 Z M 42.089844 37.484375 C 43.253906 37.492188 44.417969 37.949219 45.316406 38.855469 L 57.167969 50.867188 C 57.167969 50.871094 57.171875 50.871094 57.171875 50.875 C 58.96875 52.679688 58.957031 55.539062 57.148438 57.332031 C 55.339844 59.132812 52.484375 59.121094 50.691406 57.308594 L 38.820312 45.285156 C 38.820312 45.28125 38.820312 45.28125 38.820312 45.28125 C 37.03125 43.46875 37.042969 40.621094 38.851562 38.828125 C 39.757812 37.925781 40.921875 37.480469 42.089844 37.484375 Z M 42.089844 37.484375 "/>
</g>
</svg>
