<svg xmlns="http://www.w3.org/2000/svg"  viewBox="0 0 48 48" width="48px" height="48px"><path d="M 9.5 6 C 7.5850452 6 6 7.5850452 6 9.5 L 6 16.5 C 6 18.414955 7.5850452 20 9.5 20 L 10 20 L 10 21.5 A 1.50015 1.50015 0 1 0 13 21.5 L 13 20 L 16.5 20 C 18.414955 20 20 18.414955 20 16.5 L 20 13 L 21.5 13 A 1.50015 1.50015 0 1 0 21.5 10 L 20 10 L 20 9.5 C 20 7.5850452 18.414955 6 16.5 6 L 9.5 6 z M 31.5 6 C 29.585045 6 28 7.5850452 28 9.5 L 28 10 L 26.5 10 A 1.50015 1.50015 0 1 0 26.5 13 L 28 13 L 28 16.5 C 28 18.414955 29.585045 20 31.5 20 L 35 20 L 35 21.5 A 1.50015 1.50015 0 1 0 38 21.5 L 38 20 L 38.5 20 C 40.414955 20 42 18.414955 42 16.5 L 42 9.5 C 42 7.5850452 40.414955 6 38.5 6 L 31.5 6 z M 9.5 9 L 16.5 9 C 16.795045 9 17 9.2049548 17 9.5 L 17 11.253906 A 1.50015 1.50015 0 0 0 17 11.740234 L 17 16.5 C 17 16.795045 16.795045 17 16.5 17 L 11.746094 17 A 1.50015 1.50015 0 0 0 11.476562 16.978516 A 1.50015 1.50015 0 0 0 11.257812 17 L 9.5 17 C 9.2049548 17 9 16.795045 9 16.5 L 9 9.5 C 9 9.2049548 9.2049548 9 9.5 9 z M 31.5 9 L 38.5 9 C 38.795045 9 39 9.2049548 39 9.5 L 39 16.5 C 39 16.795045 38.795045 17 38.5 17 L 36.746094 17 A 1.50015 1.50015 0 0 0 36.476562 16.978516 A 1.50015 1.50015 0 0 0 36.257812 17 L 31.5 17 C 31.204955 17 31 16.795045 31 16.5 L 31 11.746094 A 1.50015 1.50015 0 0 0 31 11.259766 L 31 9.5 C 31 9.2049548 31.204955 9 31.5 9 z M 11.476562 24.978516 A 1.50015 1.50015 0 0 0 10 26.5 L 10 28 L 9.5 28 C 7.5850452 28 6 29.585045 6 31.5 L 6 38.5 C 6 40.414955 7.5850452 42 9.5 42 L 16.5 42 C 18.414955 42 20 40.414955 20 38.5 L 20 38 L 21.5 38 A 1.50015 1.50015 0 1 0 21.5 35 L 20 35 L 20 31.5 C 20 29.585045 18.414955 28 16.5 28 L 13 28 L 13 26.5 A 1.50015 1.50015 0 0 0 11.476562 24.978516 z M 36.476562 24.978516 A 1.50015 1.50015 0 0 0 35 26.5 L 35 28 L 31.5 28 C 29.585045 28 28 29.585045 28 31.5 L 28 35 L 26.5 35 A 1.50015 1.50015 0 1 0 26.5 38 L 28 38 L 28 38.5 C 28 40.414955 29.585045 42 31.5 42 L 38.5 42 C 40.414955 42 42 40.414955 42 38.5 L 42 31.5 C 42 29.585045 40.414955 28 38.5 28 L 38 28 L 38 26.5 A 1.50015 1.50015 0 0 0 36.476562 24.978516 z M 9.5 31 L 11.253906 31 A 1.50015 1.50015 0 0 0 11.740234 31 L 16.5 31 C 16.795045 31 17 31.204955 17 31.5 L 17 36.253906 A 1.50015 1.50015 0 0 0 17 36.740234 L 17 38.5 C 17 38.795045 16.795045 39 16.5 39 L 9.5 39 C 9.2049548 39 9 38.795045 9 38.5 L 9 31.5 C 9 31.204955 9.2049548 31 9.5 31 z M 31.5 31 L 36.253906 31 A 1.50015 1.50015 0 0 0 36.740234 31 L 38.5 31 C 38.795045 31 39 31.204955 39 31.5 L 39 38.5 C 39 38.795045 38.795045 39 38.5 39 L 31.5 39 C 31.204955 39 31 38.795045 31 38.5 L 31 36.746094 A 1.50015 1.50015 0 0 0 31 36.259766 L 31 31.5 C 31 31.204955 31.204955 31 31.5 31 z"/></svg>