<?xml version="1.0" encoding="UTF-8"?>
<svg xmlns="http://www.w3.org/2000/svg" xmlns:xlink="http://www.w3.org/1999/xlink" width="60pt" height="60pt" viewBox="0 0 60 60" version="1.1">
<g id="surface207">
<path style=" stroke:none;fill-rule:nonzero;fill:rgb(96.078432%,80.784315%,52.156866%);fill-opacity:1;" d="M 8.117188 37.707031 C 14.292969 36.664062 24.488281 33.488281 30.421875 23.828125 L 53.070312 36.46875 C 45.964844 46.640625 38.832031 54.632812 36.160156 57.527344 Z M 8.117188 37.707031 "/>
<path style=" stroke:none;fill-rule:nonzero;fill:rgb(58.823532%,47.843137%,26.666668%);fill-opacity:1;" d="M 31.027344 26.3125 L 50.332031 37.085938 C 44.53125 45.199219 38.875 51.730469 35.890625 55.039062 L 12.648438 38.609375 C 18.570312 36.976562 25.949219 33.539062 31.027344 26.3125 M 29.707031 21.285156 C 21.839844 36.339844 2.941406 36.339844 2.941406 36.339844 L 36.414062 60 C 36.414062 60 46.285156 49.777344 55.78125 35.835938 Z M 29.707031 21.285156 "/>
<path style=" stroke:none;fill-rule:nonzero;fill:rgb(54.509807%,71.764708%,94.117647%);fill-opacity:1;" d="M 29.105469 25.40625 L 31.265625 22.320312 C 31.894531 21.21875 32.738281 20.496094 33.75 20.128906 C 34.238281 19.953125 34.753906 19.863281 35.277344 19.863281 C 36.042969 19.863281 36.796875 20.058594 37.460938 20.429688 L 42.148438 23.050781 L 55.605469 2.703125 C 55.859375 2.316406 56.289062 2.089844 56.753906 2.089844 C 56.984375 2.089844 57.210938 2.148438 57.417969 2.261719 C 58.039062 2.609375 58.289062 3.390625 57.988281 4.039062 L 47.738281 26.167969 L 52.191406 28.652344 C 53.085938 29.152344 53.789062 29.953125 54.167969 30.902344 C 54.800781 32.488281 54.714844 33.890625 54.050781 35.082031 L 51.890625 38.128906 Z M 29.105469 25.40625 "/>
<path style=" stroke:none;fill-rule:nonzero;fill:rgb(30.588236%,47.843137%,70.980394%);fill-opacity:1;" d="M 53.480469 9.328125 L 46.773438 23.804688 L 45.3125 26.960938 L 48.347656 28.65625 L 51.285156 30.296875 C 51.804688 30.585938 52.210938 31.050781 52.433594 31.601562 L 52.5625 31.929688 C 52.835938 32.613281 52.8125 33.371094 52.492188 34.03125 L 51.332031 35.671875 L 31.832031 24.792969 L 32.800781 23.398438 L 32.910156 23.242188 L 33.003906 23.074219 C 33.308594 22.527344 33.796875 22.109375 34.386719 21.894531 C 34.671875 21.792969 34.972656 21.738281 35.277344 21.738281 C 35.71875 21.738281 36.15625 21.851562 36.546875 22.070312 L 39.722656 23.84375 L 42.761719 25.539062 L 44.679688 22.636719 L 53.480469 9.328125 M 56.757812 0.214844 C 55.699219 0.214844 54.667969 0.730469 54.046875 1.667969 L 41.550781 20.566406 L 38.375 18.792969 C 37.417969 18.257812 36.347656 17.984375 35.277344 17.984375 C 34.546875 17.984375 33.808594 18.113281 33.105469 18.367188 C 31.671875 18.890625 30.472656 19.914062 29.730469 21.246094 L 26.375 26.03125 L 52.449219 40.585938 L 55.695312 35.992188 C 56.628906 34.320312 56.761719 32.3125 56.042969 30.53125 L 55.914062 30.207031 C 55.371094 28.851562 54.382812 27.726562 53.109375 27.019531 L 50.175781 25.378906 L 59.699219 4.824219 C 60.414062 3.28125 59.820312 1.453125 58.339844 0.625 C 57.835938 0.34375 57.292969 0.214844 56.757812 0.214844 Z M 56.757812 0.214844 "/>
<path style=" stroke:none;fill-rule:nonzero;fill:rgb(58.823532%,47.843137%,26.666668%);fill-opacity:1;" d="M 15.019531 43.273438 L 18.75 46.101562 C 18.75 46.101562 23.683594 43.164062 30.476562 35.101562 C 23.316406 40.988281 15.019531 43.273438 15.019531 43.273438 Z M 26.285156 52.023438 L 29.859375 54.308594 C 29.859375 54.308594 32.539062 53.015625 36.699219 47.804688 C 31.398438 52.039062 26.285156 52.023438 26.285156 52.023438 Z M 26.285156 52.023438 "/>
<path style=" stroke:none;fill-rule:nonzero;fill:rgb(69.01961%,75.686276%,83.137256%);fill-opacity:1;" d="M 7.5 5.625 C 4.394531 5.625 1.875 8.144531 1.875 11.25 C 1.875 14.355469 4.394531 16.875 7.5 16.875 C 10.605469 16.875 13.125 14.355469 13.125 11.25 C 13.125 8.144531 10.605469 5.625 7.5 5.625 Z M 7.5 5.625 "/>
<path style=" stroke:none;fill-rule:nonzero;fill:rgb(40.000001%,47.450981%,56.078434%);fill-opacity:1;" d="M 7.5 7.5 C 9.566406 7.5 11.25 9.183594 11.25 11.25 C 11.25 13.316406 9.566406 15 7.5 15 C 5.433594 15 3.75 13.316406 3.75 11.25 C 3.75 9.183594 5.433594 7.5 7.5 7.5 M 7.5 3.75 C 3.355469 3.75 0 7.105469 0 11.25 C 0 15.394531 3.355469 18.75 7.5 18.75 C 11.644531 18.75 15 15.394531 15 11.25 C 15 7.105469 11.644531 3.75 7.5 3.75 Z M 7.5 3.75 "/>
<path style=" stroke:none;fill-rule:nonzero;fill:rgb(40.000001%,47.450981%,56.078434%);fill-opacity:1;" d="M 11.25 22.5 C 9.179688 22.5 7.5 24.179688 7.5 26.25 C 7.5 28.320312 9.179688 30 11.25 30 C 13.320312 30 15 28.320312 15 26.25 C 15 24.179688 13.320312 22.5 11.25 22.5 Z M 11.25 22.5 "/>
</g>
</svg>
