<?xml version="1.0" encoding="UTF-8"?>
<svg xmlns="http://www.w3.org/2000/svg" xmlns:xlink="http://www.w3.org/1999/xlink" width="60pt" height="60pt" viewBox="0 0 60 60" version="1.1">
<g id="surface120">
<path style=" stroke:none;fill-rule:nonzero;fill:rgb(30.588236%,47.843137%,70.980394%);fill-opacity:1;" d="M 0 26.25 L 56.25 26.25 L 56.25 22.578125 L 0 22.5 Z M 0 30 L 56.25 30 L 56.25 33.75 L 0 33.75 Z M 0 30 "/>
<path style=" stroke:none;fill-rule:nonzero;fill:rgb(54.509807%,71.764708%,94.117647%);fill-opacity:1;" d="M 24.375 54.375 L 24.375 43.125 L 19.132812 43.125 L 28.125 32.847656 L 37.117188 43.125 L 31.875 43.125 L 31.875 54.375 Z M 24.375 54.375 "/>
<path style=" stroke:none;fill-rule:nonzero;fill:rgb(30.588236%,47.843137%,70.980394%);fill-opacity:1;" d="M 28.125 35.695312 L 32.984375 41.25 L 30 41.25 L 30 52.5 L 26.25 52.5 L 26.25 41.25 L 23.265625 41.25 L 28.125 35.695312 M 28.125 30 L 15 45 L 22.5 45 L 22.5 56.25 L 33.75 56.25 L 33.75 45 L 41.25 45 Z M 28.125 30 "/>
<path style=" stroke:none;fill-rule:nonzero;fill:rgb(54.509807%,71.764708%,94.117647%);fill-opacity:1;" d="M 19.132812 13.125 L 24.375 13.125 L 24.375 1.875 L 31.875 1.875 L 31.875 13.125 L 37.117188 13.125 L 28.125 23.402344 Z M 19.132812 13.125 "/>
<path style=" stroke:none;fill-rule:nonzero;fill:rgb(30.588236%,47.843137%,70.980394%);fill-opacity:1;" d="M 30 3.75 L 30 15 L 32.984375 15 L 28.125 20.554688 L 23.265625 15 L 26.25 15 L 26.25 3.75 L 30 3.75 M 33.75 0 L 22.5 0 L 22.5 11.25 L 15 11.25 L 28.125 26.25 L 41.25 11.25 L 33.75 11.25 Z M 33.75 0 "/>
</g>
</svg>
