<?xml version="1.0" encoding="UTF-8"?>
<svg xmlns="http://www.w3.org/2000/svg" width="12pt" height="12pt" viewBox="0 0 12 12" version="1.1">
<path fill="rgb(30.588236%,47.843137%,70.980394%)" d="M2.271 6.483 3.306 3.635H3.323L4.341 6.483ZM2.878 2.899 0.5 9.007H1.33L2.014 7.168H4.597L5.264 9.007H6.163L3.776 2.899ZM11.5 8.99Q11.312 9.101 10.978 9.101Q10.696 9.101 10.529 8.942Q10.362 8.784 10.362 8.425Q10.063 8.784 9.665 8.942Q9.267 9.101 8.806 9.101Q8.506 9.101 8.237 9.032Q7.967 8.964 7.771 8.818Q7.574 8.673 7.458 8.438Q7.343 8.203 7.343 7.869Q7.343 7.493 7.471 7.253Q7.6 7.014 7.809 6.864Q8.019 6.714 8.288 6.637Q8.558 6.56 8.84 6.509Q9.139 6.449 9.409 6.419Q9.678 6.389 9.883 6.334Q10.089 6.278 10.208 6.171Q10.328 6.064 10.328 5.859Q10.328 5.619 10.238 5.474Q10.149 5.329 10.007 5.252Q9.866 5.175 9.691 5.149Q9.516 5.123 9.344 5.123Q8.883 5.123 8.575 5.299Q8.267 5.474 8.241 5.962H7.514Q7.531 5.551 7.685 5.269Q7.839 4.986 8.096 4.811Q8.352 4.636 8.682 4.559Q9.011 4.482 9.387 4.482Q9.687 4.482 9.982 4.524Q10.277 4.567 10.516 4.7Q10.756 4.832 10.901 5.072Q11.047 5.311 11.047 5.696V7.972Q11.047 8.228 11.077 8.348Q11.107 8.468 11.278 8.468Q11.372 8.468 11.5 8.425ZM10.32 6.723Q10.183 6.825 9.96 6.872Q9.738 6.92 9.494 6.949Q9.25 6.979 9.002 7.018Q8.754 7.056 8.558 7.142Q8.361 7.227 8.237 7.386Q8.113 7.544 8.113 7.818Q8.113 7.997 8.185 8.121Q8.258 8.245 8.374 8.322Q8.489 8.399 8.643 8.434Q8.797 8.468 8.968 8.468Q9.327 8.468 9.584 8.369Q9.841 8.271 10.003 8.121Q10.166 7.972 10.243 7.796Q10.32 7.621 10.32 7.467Z"/>
</svg>
