<?xml version="1.0" encoding="UTF-8"?>
<svg xmlns="http://www.w3.org/2000/svg" xmlns:xlink="http://www.w3.org/1999/xlink" width="12pt" height="12pt" viewBox="0 0 12 12" version="1.1">
<g id="surface47">
<path style=" stroke:none;fill-rule:nonzero;fill:rgb(71.372551%,78.823531%,83.92157%);fill-opacity:1;" d="M 0.851562 11.625 C 0.722656 11.625 0.605469 11.574219 0.515625 11.484375 C 0.328125 11.300781 0.328125 10.996094 0.515625 10.8125 L 6.582031 5.027344 L 6.976562 5.421875 L 1.183594 11.492188 C 1.097656 11.574219 0.980469 11.625 0.851562 11.625 Z M 0.851562 11.625 "/>
<path style=" stroke:none;fill-rule:nonzero;fill:rgb(47.058824%,54.509807%,61.176473%);fill-opacity:1;" d="M 3.894531 8.109375 L 0.925781 11.21875 C 0.902344 11.242188 0.878906 11.25 0.851562 11.25 C 0.832031 11.25 0.804688 11.246094 0.78125 11.21875 C 0.742188 11.179688 0.742188 11.117188 0.765625 11.089844 L 3.894531 8.109375 M 6.589844 4.503906 L 0.25 10.546875 C -0.0820312 10.878906 -0.0820312 11.417969 0.25 11.75 C 0.414062 11.917969 0.632812 12 0.851562 12 C 1.070312 12 1.289062 11.917969 1.453125 11.75 L 7.5 5.414062 Z M 6.589844 4.503906 "/>
<path style=" stroke:none;fill-rule:nonzero;fill:rgb(81.960785%,92.941177%,100%);fill-opacity:1;" d="M 7.5 0.375 C 5.222656 0.375 3.375 2.222656 3.375 4.5 C 3.375 6.777344 5.222656 8.625 7.5 8.625 C 9.777344 8.625 11.625 6.777344 11.625 4.5 C 11.625 2.222656 9.777344 0.375 7.5 0.375 Z M 7.5 0.375 "/>
<path style=" stroke:none;fill-rule:nonzero;fill:rgb(47.058824%,54.509807%,61.176473%);fill-opacity:1;" d="M 7.5 0.75 C 9.566406 0.75 11.25 2.433594 11.25 4.5 C 11.25 6.566406 9.566406 8.25 7.5 8.25 C 5.433594 8.25 3.75 6.566406 3.75 4.5 C 3.75 2.433594 5.433594 0.75 7.5 0.75 M 7.5 0 C 5.015625 0 3 2.015625 3 4.5 C 3 6.984375 5.015625 9 7.5 9 C 9.984375 9 12 6.984375 12 4.5 C 12 2.015625 9.984375 0 7.5 0 Z M 7.5 0 "/>
</g>
</svg>
