<svg xmlns="http://www.w3.org/2000/svg"  viewBox="0 0 30 30" width="30px" height="30px"><path fill="#b0c1d4" d="M6.5 8.4L4 7.6 1.6 3.7 3.7 1.6 7.6 4 8.4 6.5 17.3 15.4 15.4 17.3z"/><path fill="#66798f" d="M3.8,2.3l3.4,2L8,6.6v0.2L8.2,7l8.4,8.4l-1.2,1.2L7,8.2L6.8,8L6.6,7.9L4.3,7.2l-2-3.4L3.8,2.3 M3.6,1L1,3.6L3.6,8l2.6,0.9l9.1,9.1l2.6-2.6l-9-9.1L8,3.6L3.6,1L3.6,1z"/><path fill="#f78f8f" d="M25.6,28.5c-0.8,0-1.5-0.3-2.1-0.9l-9.8-9.9l4.1-4.1l9.8,9.9c1.1,1.1,1.1,3,0,4.1 C27.1,28.2,26.4,28.5,25.6,28.5L25.6,28.5z"/><path fill="#c74343" d="M17.9,14.4l9.4,9.5c0.4,0.5,0.7,1.1,0.7,1.7s-0.3,1.2-0.7,1.7c-0.5,0.4-1,0.7-1.7,0.7 c-0.6,0-1.2-0.3-1.7-0.7l-9.4-9.5L17.9,14.4 M17.9,13l-4.8,4.8L23.2,28c0.7,0.7,1.5,1,2.4,1s1.7-0.3,2.4-1c1.3-1.3,1.3-3.5,0-4.8 L17.9,13L17.9,13z"/><path fill="#c74343" d="M22.32 18.15H23.32V27.349999999999998H22.32z" transform="rotate(-45.001 22.82 22.75)"/><g><path fill="#dcd5f2" d="M5,28.5c-0.9,0-1.8-0.4-2.5-1c-0.7-0.7-1-1.6-1-2.5s0.4-1.8,1-2.5L15.3,9.8l5,5L7.5,27.5 C6.8,28.1,6,28.5,5,28.5L5,28.5z M5,23.5c-0.8,0-1.5,0.7-1.5,1.5c0,0.4,0.2,0.8,0.4,1.1c0.3,0.3,0.7,0.4,1.1,0.4 c0.8,0,1.5-0.7,1.5-1.5c0-0.4-0.2-0.8-0.4-1.1C5.8,23.7,5.4,23.5,5,23.5L5,23.5z"/><path fill="#8b75a1" d="M15.3,10.5l4.3,4.3L7.2,27.1C6.6,27.7,5.8,28,5,28s-1.6-0.3-2.2-0.9c-1.2-1.2-1.2-3.1,0-4.3 L15.3,10.5 M5,27L5,27c1.1,0,2-0.9,2-2s-0.9-2-2-2s-2,0.9-2,2c0,0.5,0.2,1,0.6,1.4S4.5,27,5,27L5,27 M15.3,9.1l-13.1,13 c-1.6,1.6-1.6,4.1,0,5.7C3,28.6,4,29,5,29s2-0.4,2.8-1.2l13.1-13L15.3,9.1L15.3,9.1z M5,26L5,26c-0.6,0-1-0.5-1-1c0-0.6,0.4-1,1-1 l0,0c0.6,0,1,0.5,1,1C6,25.6,5.6,26,5,26L5,26z"/></g><g><path fill="#dcd5f2" d="M22.729,15.5c-1.997,0-4.093-0.9-5.69-2.5c-1.398-1.4-2.296-3.2-2.496-5 c-0.2-1.8,0.299-3.3,1.497-4.4c1.198-1.2,3.394-2.1,5.391-2.1c0.699,0,1.398,0.1,1.997,0.3l-4.692,4.7l1.198,3.6l3.594,1.3 l4.692-4.7c0.799,2.5-0.2,5.8-1.797,7.4C25.424,15,24.126,15.5,22.729,15.5L22.729,15.5z"/><path fill="#8b75a1" d="M22.729,16c-2.161,0-4.364-0.965-6.044-2.646c-1.488-1.491-2.426-3.373-2.639-5.299 c-0.218-1.96,0.354-3.628,1.656-4.823C17.008,1.924,19.37,1,21.431,1c0.772,0,1.518,0.112,2.155,0.325l0.767,0.256l-5.045,5.054 l1.023,3.077l3.067,1.11l5.047-5.057l0.25,0.782c0.895,2.8-0.3,6.283-1.92,7.905C25.664,15.457,24.233,16,22.729,16z M21.431,2 c-1.816,0-3.888,0.803-5.037,1.953c-1.087,0.999-1.538,2.338-1.354,3.991c0.186,1.677,1.043,3.391,2.352,4.702 C18.886,14.143,20.831,15,22.729,15c1.257,0,2.449-0.451,3.358-1.271c1.239-1.241,2.174-3.82,1.848-6.036l-4.278,4.286l-4.12-1.491 l-1.373-4.122l4.281-4.288C22.121,2.026,21.78,2,21.431,2z"/></g></svg>