<?xml version="1.0" encoding="UTF-8"?>
<svg xmlns="http://www.w3.org/2000/svg" xmlns:xlink="http://www.w3.org/1999/xlink" width="30pt" height="30pt" viewBox="0 0 30 30" version="1.1">
<g id="surface61">
<path style=" stroke:none;fill-rule:nonzero;fill:rgb(100%,100%,100%);fill-opacity:1;" d="M 4.875 28.125 L 4.875 1.875 L 18.59375 1.875 L 25.125 8.40625 L 25.125 28.125 Z M 4.875 28.125 "/>
<path style=" stroke:none;fill-rule:nonzero;fill:rgb(47.058824%,54.509807%,61.176473%);fill-opacity:1;" d="M 18.441406 2.25 L 24.75 8.558594 L 24.75 27.75 L 5.25 27.75 L 5.25 2.25 L 18.441406 2.25 M 18.75 1.5 L 4.5 1.5 L 4.5 28.5 L 25.5 28.5 L 25.5 8.25 Z M 18.75 1.5 "/>
<path style=" stroke:none;fill-rule:nonzero;fill:rgb(100%,100%,100%);fill-opacity:1;" d="M 18.375 8.625 L 18.375 1.875 L 18.59375 1.875 L 25.125 8.40625 L 25.125 8.625 Z M 18.375 8.625 "/>
<path style=" stroke:none;fill-rule:nonzero;fill:rgb(47.058824%,54.509807%,61.176473%);fill-opacity:1;" d="M 18.75 2.558594 L 24.441406 8.25 L 18.75 8.25 L 18.75 2.558594 M 18.75 1.5 L 18 1.5 L 18 9 L 25.5 9 L 25.5 8.25 Z M 18.75 1.5 "/>
<path style="fill:none;stroke-width:1;stroke-linecap:butt;stroke-linejoin:miter;stroke:rgb(69.803923%,44.705883%,85.882354%);stroke-opacity:1;stroke-miterlimit:10;" d="M 25.5 19.5 L 27.5 23.5 L 25.5 27.5 M 14.5 19.5 L 12.5 23.5 L 14.5 27.5 M 22.5 16.5 L 17.5 30.5 " transform="matrix(0.75,0,0,0.75,0,0)"/>
</g>
</svg>
