<?xml version="1.0" encoding="UTF-8"?>
<svg xmlns="http://www.w3.org/2000/svg" xmlns:xlink="http://www.w3.org/1999/xlink" width="16" height="16" viewBox="0 0 16 16" version="1.1">
<g transform="scale(1.33333333)">
<g id="surface1937">
<path style=" stroke:none;fill-rule:nonzero;fill:rgb(54.509807%,71.764708%,94.117647%);fill-opacity:1;" d="M 5.625 0.375 C 2.726562 0.375 0.375 2.726562 0.375 5.625 C 0.375 8.523438 2.726562 10.875 5.625 10.875 C 8.523438 10.875 10.875 8.523438 10.875 5.625 C 10.875 2.726562 8.523438 0.375 5.625 0.375 Z M 5.625 0.375 "/>
<path style=" stroke:none;fill-rule:nonzero;fill:rgb(30.588236%,47.843137%,70.980394%);fill-opacity:1;" d="M 5.625 0.75 C 8.324219 0.75 10.5 2.925781 10.5 5.625 C 10.5 8.324219 8.324219 10.5 5.625 10.5 C 2.925781 10.5 0.75 8.324219 0.75 5.625 C 0.75 2.925781 2.925781 0.75 5.625 0.75 M 5.625 0 C 2.550781 0 0 2.550781 0 5.625 C 0 8.699219 2.550781 11.25 5.625 11.25 C 8.699219 11.25 11.25 8.699219 11.25 5.625 C 11.25 2.550781 8.699219 0 5.625 0 Z M 5.625 0 "/>
<path style=" stroke:none;fill-rule:nonzero;fill:rgb(100%,100%,100%);fill-opacity:1;" d="M 5.625 8.101562 C 5.335938 8.101562 5.101562 8.335938 5.101562 8.625 C 5.101562 8.914062 5.335938 9.148438 5.625 9.148438 C 5.914062 9.148438 6.148438 8.914062 6.148438 8.625 C 6.148438 8.335938 5.914062 8.101562 5.625 8.101562 Z M 6 7.5 L 5.25 7.5 L 5.25 6.601562 C 5.25 6.148438 5.625 5.851562 5.925781 5.550781 C 6.300781 5.25 6.75 4.875 6.75 4.125 C 6.75 3.523438 6.226562 3 5.625 3 C 5.023438 3 4.5 3.523438 4.5 4.125 L 4.5 4.5 L 3.75 4.5 L 3.75 4.125 C 3.75 3.074219 4.574219 2.25 5.625 2.25 C 6.675781 2.25 7.5 3.074219 7.5 4.125 C 7.5 5.25 6.898438 5.773438 6.375 6.148438 C 6.148438 6.300781 6 6.449219 6 6.601562 Z M 6 7.5 "/>
</g>
</g>
</svg>
