<?xml version="1.0" encoding="UTF-8"?>
<svg xmlns="http://www.w3.org/2000/svg" xmlns:xlink="http://www.w3.org/1999/xlink" width="16" height="16" viewBox="0 0 16 16" version="1.1">
<g transform="scale(1.33333333)">
<g id="surface1924">
<path style=" stroke:none;fill-rule:nonzero;fill:rgb(54.509807%,71.764708%,94.117647%);fill-opacity:1;" d="M 5.625 9.375 C 7.691406 9.375 9.375 7.691406 9.375 5.625 C 9.375 4.851562 9.121094 4.09375 8.644531 3.4375 L 8.386719 3.085938 L 7.875 3.59375 L 7.875 1.125 L 10.34375 1.125 L 9.449219 2.019531 L 9.667969 2.28125 C 10.445312 3.21875 10.875 4.40625 10.875 5.625 C 10.875 8.519531 8.519531 10.875 5.625 10.875 Z M 5.625 9.375 "/>
<path style=" stroke:none;fill-rule:nonzero;fill:rgb(30.588236%,47.843137%,70.980394%);fill-opacity:1;" d="M 9.441406 1.5 L 9.425781 1.511719 L 8.945312 1.996094 L 9.378906 2.519531 C 10.101562 3.394531 10.5 4.496094 10.5 5.625 C 10.5 8.1875 8.511719 10.292969 6 10.484375 L 6 9.734375 C 8.097656 9.542969 9.75 7.773438 9.75 5.625 C 9.75 4.773438 9.472656 3.941406 8.945312 3.21875 L 8.429688 2.511719 L 8.25 2.691406 L 8.25 1.5 L 9.441406 1.5 M 11.25 0.75 L 7.5 0.75 L 7.5 4.5 L 8.339844 3.660156 C 8.746094 4.214844 9 4.886719 9 5.625 C 9 7.488281 7.488281 9 5.625 9 C 5.496094 9 5.375 8.976562 5.25 8.960938 L 5.25 11.230469 C 5.375 11.238281 5.5 11.25 5.625 11.25 C 8.730469 11.25 11.25 8.730469 11.25 5.625 C 11.25 4.261719 10.765625 3.015625 9.957031 2.042969 Z M 11.25 0.75 "/>
<path style=" stroke:none;fill-rule:nonzero;fill:rgb(54.509807%,71.764708%,94.117647%);fill-opacity:1;" d="M 0.90625 10.125 L 1.804688 9.226562 L 1.585938 8.964844 C 0.792969 8.007812 0.375 6.851562 0.375 5.625 C 0.375 2.730469 2.730469 0.375 5.625 0.375 L 5.625 1.875 C 3.558594 1.875 1.875 3.558594 1.875 5.625 C 1.875 6.398438 2.128906 7.15625 2.605469 7.8125 L 2.867188 8.164062 L 3.375 7.65625 L 3.375 10.125 Z M 0.90625 10.125 "/>
<path style=" stroke:none;fill-rule:nonzero;fill:rgb(30.588236%,47.843137%,70.980394%);fill-opacity:1;" d="M 5.25 0.765625 L 5.25 1.515625 C 3.152344 1.707031 1.5 3.476562 1.5 5.625 C 1.5 6.476562 1.777344 7.3125 2.304688 8.03125 L 2.820312 8.738281 L 3 8.558594 L 3 9.75 L 1.808594 9.75 L 1.828125 9.734375 L 2.308594 9.25 L 1.875 8.726562 C 1.136719 7.835938 0.75 6.765625 0.75 5.625 C 0.75 3.0625 2.738281 0.957031 5.25 0.765625 M 5.625 0 C 2.519531 0 0 2.519531 0 5.625 C 0 6.988281 0.492188 8.230469 1.296875 9.203125 L 0 10.5 L 3.75 10.5 L 3.75 6.75 L 2.910156 7.589844 C 2.503906 7.035156 2.25 6.363281 2.25 5.625 C 2.25 3.761719 3.761719 2.25 5.625 2.25 C 5.753906 2.25 5.875 2.273438 6 2.289062 L 6 0.0195312 C 5.875 0.0117188 5.75 0 5.625 0 Z M 5.625 0 "/>
</g>
</g>
</svg>
