<?xml version="1.0" encoding="UTF-8"?>
<svg xmlns="http://www.w3.org/2000/svg" xmlns:xlink="http://www.w3.org/1999/xlink" width="16" height="16" viewBox="0 0 16 16" version="1.1">
<g transform="scale(1.33333333)">
<g id="surface1429">
<path style=" stroke:none;fill-rule:nonzero;fill:rgb(96.078432%,76.078433%,46.27451%);fill-opacity:1;" d="M 5.25 0.75 L 6 0.75 L 6 11.25 L 5.25 11.25 Z M 3.75 0.75 L 4.5 0.75 L 4.5 11.25 L 3.75 11.25 Z M 6.75 0.75 L 7.5 0.75 L 7.5 11.25 L 6.75 11.25 Z M 8.25 0.75 L 9 0.75 L 9 11.25 L 8.25 11.25 Z M 2.25 0.75 L 3 0.75 L 3 11.25 L 2.25 11.25 Z M 2.25 0.75 "/>
<path style=" stroke:none;fill-rule:nonzero;fill:rgb(96.078432%,76.078433%,46.27451%);fill-opacity:1;" d="M 0.75 6 L 11.25 6 L 11.25 6.75 L 0.75 6.75 Z M 0.75 7.5 L 11.25 7.5 L 11.25 8.25 L 0.75 8.25 Z M 0.75 4.5 L 11.25 4.5 L 11.25 5.25 L 0.75 5.25 Z M 0.75 3 L 11.25 3 L 11.25 3.75 L 0.75 3.75 Z M 0.75 9 L 11.25 9 L 11.25 9.75 L 0.75 9.75 Z M 0.75 9 "/>
<path style=" stroke:none;fill-rule:nonzero;fill:rgb(29.411766%,39.215687%,46.666667%);fill-opacity:1;" d="M 2.316406 10.125 C 2.074219 10.125 1.875 9.925781 1.875 9.683594 L 1.875 2.316406 C 1.875 2.074219 2.074219 1.875 2.316406 1.875 L 9.683594 1.875 C 9.925781 1.875 10.125 2.074219 10.125 2.316406 L 10.125 9.683594 C 10.125 9.925781 9.925781 10.125 9.683594 10.125 Z M 2.316406 10.125 "/>
<path style=" stroke:none;fill-rule:nonzero;fill:rgb(21.176471%,25.098041%,30.19608%);fill-opacity:1;" d="M 9.683594 2.25 C 9.71875 2.25 9.75 2.28125 9.75 2.316406 L 9.75 9.683594 C 9.75 9.71875 9.71875 9.75 9.683594 9.75 L 2.316406 9.75 C 2.28125 9.75 2.25 9.71875 2.25 9.683594 L 2.25 2.316406 C 2.25 2.28125 2.28125 2.25 2.316406 2.25 L 9.683594 2.25 M 9.683594 1.5 L 2.316406 1.5 C 1.867188 1.5 1.5 1.867188 1.5 2.316406 L 1.5 9.683594 C 1.5 10.132812 1.867188 10.5 2.316406 10.5 L 9.683594 10.5 C 10.132812 10.5 10.5 10.132812 10.5 9.683594 L 10.5 2.316406 C 10.5 1.867188 10.132812 1.5 9.683594 1.5 Z M 9.683594 1.5 "/>
<path style=" stroke:none;fill-rule:nonzero;fill:rgb(74.117649%,80.000001%,83.137256%);fill-opacity:1;" d="M 3.375 3 C 3.167969 3 3 3.167969 3 3.375 C 3 3.582031 3.167969 3.75 3.375 3.75 C 3.582031 3.75 3.75 3.582031 3.75 3.375 C 3.75 3.167969 3.582031 3 3.375 3 Z M 8.625 3 C 8.417969 3 8.25 3.167969 8.25 3.375 C 8.25 3.582031 8.417969 3.75 8.625 3.75 C 8.832031 3.75 9 3.582031 9 3.375 C 9 3.167969 8.832031 3 8.625 3 Z M 3.375 8.25 C 3.167969 8.25 3 8.417969 3 8.625 C 3 8.832031 3.167969 9 3.375 9 C 3.582031 9 3.75 8.832031 3.75 8.625 C 3.75 8.417969 3.582031 8.25 3.375 8.25 Z M 3.375 8.25 "/>
<path style=" stroke:none;fill-rule:nonzero;fill:rgb(74.117649%,80.000001%,83.137256%);fill-opacity:1;" d="M 8.625 8.25 C 8.417969 8.25 8.25 8.417969 8.25 8.625 C 8.25 8.832031 8.417969 9 8.625 9 C 8.832031 9 9 8.832031 9 8.625 C 9 8.417969 8.832031 8.25 8.625 8.25 Z M 8.625 8.25 "/>
</g>
</g>

    <g transform="matrix(0.266667,0,0,0.266667,0,0)">
        <g id="surface25">
            <path d="M43.125,26.25C33.805,26.25 26.25,33.805 26.25,43.125C26.25,52.445 33.805,60 43.125,60C52.445,60 60,52.445 60,43.125C60,33.805 52.445,26.25 43.125,26.25Z" style="fill:rgb(94,156,118);fill-rule:nonzero;"/>
            <rect x="41.25" y="33.75" width="3.75" height="18.75" style="fill:rgb(254,254,254);fill-rule:nonzero;"/>
            <rect x="33.75" y="41.25" width="18.75" height="3.75" style="fill:rgb(254,254,254);fill-rule:nonzero;"/>
        </g>
    </g>
</svg>
