<?xml version="1.0" encoding="UTF-8"?>
<svg id="add-gyroscope" xmlns="http://www.w3.org/2000/svg" xmlns:xlink="http://www.w3.org/1999/xlink" width="16" height="16" viewBox="0 0 16 16" version="1.1">
<g transform="scale(1.33333333)">
<g id="surface1287">
<path style=" stroke:none;fill-rule:nonzero;fill:rgb(76.078433%,58.823532%,32.549021%);fill-opacity:1;" d="M 8.101562 9 C 7.199219 9 5.925781 8.101562 4.875 7.050781 C 4.199219 6.375 3.675781 5.625 3.300781 4.949219 C 2.851562 3.976562 3 3.449219 3.226562 3.226562 C 3.449219 3 3.976562 2.773438 4.949219 3.300781 C 5.625 3.601562 6.375 4.199219 7.050781 4.875 C 7.726562 5.550781 8.324219 6.300781 8.625 6.976562 C 9.148438 7.949219 8.925781 8.476562 8.699219 8.699219 C 8.625 8.925781 8.398438 9 8.101562 9 Z M 3.898438 3.75 C 3.824219 3.75 3.75 3.75 3.75 3.75 C 3.75 3.75 3.675781 4.050781 3.976562 4.648438 C 4.273438 5.25 4.800781 5.925781 5.476562 6.523438 C 6.898438 8.023438 8.101562 8.324219 8.25 8.25 C 8.398438 8.101562 8.023438 6.976562 6.523438 5.476562 C 5.925781 4.800781 5.25 4.273438 4.648438 3.976562 C 4.199219 3.824219 3.976562 3.75 3.898438 3.75 Z M 3.898438 3.75 "/>
<path style=" stroke:none;fill-rule:nonzero;fill:rgb(58.823532%,47.843137%,26.666668%);fill-opacity:1;" d="M 7.273438 3.75 C 7.648438 3.75 7.875 3.824219 8.023438 3.976562 C 8.25 4.199219 8.324219 4.648438 8.25 5.175781 C 8.101562 5.851562 7.726562 6.601562 7.199219 7.125 C 6.300781 7.949219 5.398438 8.25 4.726562 8.25 C 4.351562 8.25 4.125 8.175781 3.976562 8.023438 C 3.523438 7.574219 3.675781 6 4.875 4.875 C 5.699219 4.050781 6.601562 3.75 7.273438 3.75 M 7.273438 3 C 6.300781 3 5.25 3.449219 4.351562 4.351562 C 2.925781 5.773438 2.625 7.726562 3.449219 8.550781 C 3.75 8.851562 4.199219 9 4.726562 9 C 5.625 9 6.75 8.550781 7.648438 7.648438 C 9.074219 6.226562 9.300781 4.273438 8.550781 3.449219 C 8.25 3.148438 7.800781 3 7.273438 3 Z M 7.273438 3 "/>
<path style=" stroke:none;fill-rule:nonzero;fill:rgb(58.823532%,47.843137%,26.666668%);fill-opacity:1;" d="M 6.226562 5.773438 C 5.851562 5.398438 5.398438 5.175781 5.25 5.25 C 5.101562 5.324219 5.324219 5.773438 5.699219 6.226562 C 6.148438 6.601562 6.601562 6.824219 6.75 6.75 C 6.898438 6.675781 6.601562 6.148438 6.226562 5.773438 Z M 10.875 0.75 C 10.667969 0.75 10.5 0.917969 10.5 1.125 C 10.5 1.332031 10.667969 1.5 10.875 1.5 C 11.082031 1.5 11.25 1.332031 11.25 1.125 C 11.25 0.917969 11.082031 0.75 10.875 0.75 Z M 1.125 10.5 C 0.917969 10.5 0.75 10.667969 0.75 10.875 C 0.75 11.082031 0.917969 11.25 1.125 11.25 C 1.332031 11.25 1.5 11.082031 1.5 10.875 C 1.5 10.667969 1.332031 10.5 1.125 10.5 Z M 1.125 10.5 "/>
<path style=" stroke:none;fill-rule:nonzero;fill:rgb(58.823532%,47.843137%,26.666668%);fill-opacity:1;" d="M 7.238281 4.195312 L 10.628906 0.800781 L 11.160156 1.332031 L 7.765625 4.726562 Z M 7.238281 4.195312 "/>
<path style=" stroke:none;fill-rule:nonzero;fill:rgb(58.823532%,47.843137%,26.666668%);fill-opacity:1;" d="M 0.902344 10.621094 L 4.296875 7.226562 L 4.828125 7.753906 L 1.433594 11.148438 Z M 0.902344 10.621094 "/>
<path style=" stroke:none;fill-rule:nonzero;fill:rgb(96.078432%,76.078433%,46.27451%);fill-opacity:1;" d="M 6 11.25 C 3.074219 11.25 0.75 8.925781 0.75 6 C 0.75 3.074219 3.074219 0.75 6 0.75 C 8.925781 0.75 11.25 3.074219 11.25 6 C 11.25 8.925781 8.925781 11.25 6 11.25 Z M 6 1.5 C 3.523438 1.5 1.5 3.523438 1.5 6 C 1.5 8.476562 3.523438 10.5 6 10.5 C 8.476562 10.5 10.5 8.476562 10.5 6 C 10.5 3.523438 8.476562 1.5 6 1.5 Z M 6 1.5 "/>
<path style=" stroke:none;fill-rule:nonzero;fill:rgb(76.078433%,58.823532%,32.549021%);fill-opacity:1;" d="M 7.5 8.023438 C 6.976562 7.800781 6.300781 7.351562 5.476562 6.523438 C 4.648438 5.699219 4.199219 5.023438 3.976562 4.5 L 3.148438 4.5 C 3.449219 5.324219 4.125 6.300781 4.949219 7.050781 C 5.773438 7.800781 6.75 8.550781 7.5 8.851562 Z M 7.5 8.023438 "/>
</g>
</g>

    <g transform="matrix(0.266667,0,0,0.266667,0,0)">
        <g id="surface25">
            <path d="M43.125,26.25C33.805,26.25 26.25,33.805 26.25,43.125C26.25,52.445 33.805,60 43.125,60C52.445,60 60,52.445 60,43.125C60,33.805 52.445,26.25 43.125,26.25Z" style="fill:rgb(94,156,118);fill-rule:nonzero;"/>
            <rect x="41.25" y="33.75" width="3.75" height="18.75" style="fill:rgb(254,254,254);fill-rule:nonzero;"/>
            <rect x="33.75" y="41.25" width="18.75" height="3.75" style="fill:rgb(254,254,254);fill-rule:nonzero;"/>
        </g>
    </g>
</svg>
