<?xml version="1.0" encoding="UTF-8"?>
<svg id="add-led" xmlns="http://www.w3.org/2000/svg" xmlns:xlink="http://www.w3.org/1999/xlink" width="16" height="16" viewBox="0 0 16 16" version="1.1">
<g transform="scale(1.18518519)">
<g id="surface3036">
<path style=" stroke:none;fill-rule:nonzero;fill:rgb(96.078432%,76.078433%,46.27451%);fill-opacity:1;" d="M 4.875 7.3125 L 5.6875 7.3125 L 5.6875 12.1875 L 4.875 12.1875 Z M 7.3125 7.3125 L 8.125 7.3125 L 8.125 12.1875 L 7.3125 12.1875 Z M 7.3125 7.3125 "/>
<path style=" stroke:none;fill-rule:nonzero;fill:rgb(96.862745%,56.078434%,56.078434%);fill-opacity:1;" d="M 3.65625 6.90625 L 3.65625 3.25 C 3.65625 1.683594 4.933594 0.40625 6.5 0.40625 C 8.066406 0.40625 9.34375 1.683594 9.34375 3.25 L 9.34375 6.90625 Z M 3.65625 6.90625 "/>
<path style=" stroke:none;fill-rule:nonzero;fill:rgb(67.058825%,20.392157%,20.392157%);fill-opacity:1;" d="M 6.5 0.8125 C 7.84375 0.8125 8.9375 1.90625 8.9375 3.25 L 8.9375 6.5 L 4.0625 6.5 L 4.0625 3.25 C 4.0625 1.90625 5.15625 0.8125 6.5 0.8125 M 6.5 0 C 4.710938 0 3.25 1.460938 3.25 3.25 L 3.25 7.3125 L 9.75 7.3125 L 9.75 3.25 C 9.75 1.460938 8.289062 0 6.5 0 Z M 6.5 0 "/>
<path style=" stroke:none;fill-rule:nonzero;fill:rgb(96.862745%,56.078434%,56.078434%);fill-opacity:1;" d="M 2.4375 6.5 L 10.5625 6.5 L 10.5625 7.3125 L 2.4375 7.3125 Z M 2.4375 6.5 "/>
<path style=" stroke:none;fill-rule:nonzero;fill:rgb(67.058825%,20.392157%,20.392157%);fill-opacity:1;" d="M 10.5625 6.5 L 2.4375 6.5 L 2.4375 7.3125 L 10.5625 7.3125 Z M 10.5625 6.5 "/>
<path style=" stroke:none;fill-rule:nonzero;fill:rgb(96.862745%,32.156864%,32.156864%);fill-opacity:1;" d="M 4.875 5.6875 L 5.6875 5.6875 L 5.6875 7.3125 L 4.875 7.3125 Z M 7.3125 5.6875 L 8.125 5.6875 L 8.125 7.3125 L 7.3125 7.3125 Z M 7.3125 5.6875 "/>
<path style=" stroke:none;fill-rule:nonzero;fill:rgb(96.862745%,32.156864%,32.156864%);fill-opacity:1;" d="M 5.6875 6.5 L 4.875 6.5 L 4.875 5.195312 C 4.882812 4.675781 5.230469 3.917969 6.152344 3.917969 L 6.152344 4.730469 C 5.765625 4.730469 5.695312 5.027344 5.6875 5.207031 Z M 8.125 6.5 L 7.3125 6.5 L 7.3125 5.195312 C 7.304688 5.027344 7.234375 4.730469 6.847656 4.730469 L 6.847656 3.917969 C 7.769531 3.917969 8.117188 4.675781 8.125 5.1875 Z M 8.125 6.5 "/>
<path style=" stroke:none;fill-rule:nonzero;fill:rgb(100%,100%,100%);fill-opacity:1;" d="M 6.5 3.25 C 6.050781 3.25 5.6875 3.613281 5.6875 4.0625 C 5.6875 4.511719 6.050781 4.875 6.5 4.875 C 6.949219 4.875 7.3125 4.511719 7.3125 4.0625 C 7.3125 3.613281 6.949219 3.25 6.5 3.25 Z M 6.5 3.25 "/>
</g>
</g>

    <g transform="matrix(0.266667,0,0,0.266667,0,0)">
        <g id="surface25">
            <path d="M43.125,26.25C33.805,26.25 26.25,33.805 26.25,43.125C26.25,52.445 33.805,60 43.125,60C52.445,60 60,52.445 60,43.125C60,33.805 52.445,26.25 43.125,26.25Z" style="fill:rgb(94,156,118);fill-rule:nonzero;"/>
            <rect x="41.25" y="33.75" width="3.75" height="18.75" style="fill:rgb(254,254,254);fill-rule:nonzero;"/>
            <rect x="33.75" y="41.25" width="18.75" height="3.75" style="fill:rgb(254,254,254);fill-rule:nonzero;"/>
        </g>
    </g>
</svg>
