<?xml version="1.0" encoding="UTF-8"?>
<svg xmlns="http://www.w3.org/2000/svg" xmlns:xlink="http://www.w3.org/1999/xlink" width="16" height="16" viewBox="0 0 16 16" version="1.1">
<g transform="scale(1.33333333)">
<g id="surface1368">
<path style=" stroke:none;fill-rule:nonzero;fill:rgb(96.078432%,80.784315%,52.156866%);fill-opacity:1;" d="M 0.460938 11.539062 C 0.714844 10.152344 1.28125 7.65625 1.933594 7.007812 C 2.339844 6.601562 2.882812 6.375 3.460938 6.375 C 4.039062 6.375 4.582031 6.601562 4.992188 7.007812 C 5.835938 7.851562 5.835938 9.226562 4.992188 10.070312 C 4.34375 10.71875 1.847656 11.285156 0.460938 11.539062 Z M 0.460938 11.539062 "/>
<path style=" stroke:none;fill-rule:nonzero;fill:rgb(58.823532%,47.843137%,26.666668%);fill-opacity:1;" d="M 3.460938 6.75 C 3.9375 6.75 4.386719 6.9375 4.726562 7.273438 C 5.421875 7.972656 5.421875 9.105469 4.726562 9.800781 C 4.269531 10.257812 2.484375 10.753906 0.929688 11.070312 C 1.246094 9.515625 1.742188 7.730469 2.195312 7.273438 C 2.535156 6.9375 2.984375 6.75 3.460938 6.75 M 3.460938 6 C 2.8125 6 2.164062 6.246094 1.667969 6.742188 C 0.675781 7.734375 0 12 0 12 C 0 12 4.265625 11.324219 5.257812 10.332031 C 6.25 9.34375 6.25 7.734375 5.257812 6.742188 C 4.761719 6.246094 4.113281 6 3.460938 6 Z M 3.460938 6 "/>
<path style=" stroke:none;fill-rule:nonzero;fill:rgb(100%,76.862746%,61.176473%);fill-opacity:1;" d="M 7.214844 3.023438 L 9.507812 0.542969 L 11.460938 2.492188 L 8.980469 4.789062 Z M 7.214844 3.023438 "/>
<path style=" stroke:none;fill-rule:nonzero;fill:rgb(63.137257%,41.568628%,29.019609%);fill-opacity:1;" d="M 9.519531 1.082031 L 10.917969 2.484375 L 8.992188 4.269531 L 7.734375 3.011719 L 9.519531 1.082031 M 9.496094 0 L 6.695312 3.035156 L 8.972656 5.308594 L 12 2.503906 Z M 9.496094 0 "/>
<path style=" stroke:none;fill-rule:nonzero;fill:rgb(86.274511%,83.529413%,94.901961%);fill-opacity:1;" d="M 4.246094 6.253906 L 7.261719 2.910156 L 9.089844 4.738281 L 5.746094 7.753906 Z M 4.246094 6.253906 "/>
<path style=" stroke:none;fill-rule:nonzero;fill:rgb(54.509807%,45.882353%,63.137257%);fill-opacity:1;" d="M 7.277344 3.457031 L 8.542969 4.722656 L 5.757812 7.234375 L 4.765625 6.242188 L 7.277344 3.457031 M 7.246094 2.367188 L 3.730469 6.265625 L 5.734375 8.269531 L 9.632812 4.75 Z M 7.246094 2.367188 "/>
</g>
</g>
</svg>
