<?xml version="1.0" encoding="UTF-8"?>
<svg id="add-plot3d" xmlns="http://www.w3.org/2000/svg" xmlns:xlink="http://www.w3.org/1999/xlink" width="16" height="16" viewBox="0 0 16 16" version="1.1">
<g transform="scale(1.33333333)">
<g id="surface2922">
<path style=" stroke:none;fill-rule:nonzero;fill:rgb(88.235295%,92.156863%,94.901961%);fill-opacity:1;" d="M 0.53125 6 L 6 0.53125 L 11.46875 6 L 6 11.46875 Z M 0.53125 6 "/>
<path style=" stroke:none;fill-rule:nonzero;fill:rgb(47.058824%,54.509807%,61.176473%);fill-opacity:1;" d="M 6 1.058594 L 10.941406 6 L 6 10.941406 L 1.058594 6 L 6 1.058594 M 6 0 L 0 6 L 6 12 L 12 6 Z M 6 0 "/>
<path style=" stroke:none;fill-rule:nonzero;fill:rgb(47.058824%,54.509807%,61.176473%);fill-opacity:1;" d="M 11.6875 5.6875 L 7.039062 6.757812 L 6.753906 7.066406 L 5.6875 11.6875 L 6 12 L 12 6 Z M 6.996094 3.894531 L 9.351562 3.351562 L 8.726562 2.726562 L 6.878906 3.152344 L 6.1875 3.746094 Z M 7.25 5.515625 L 10.714844 4.714844 L 10.089844 4.089844 L 7.132812 4.773438 L 6.878906 5.34375 Z M 7.25 5.515625 "/>
<path style=" stroke:none;fill-rule:nonzero;fill:rgb(54.509807%,71.764708%,94.117647%);fill-opacity:1;" d="M 0.628906 6.101562 L 6.875 7.085938 L 7.082031 7.316406 L 6.160156 11.3125 L 6 11.46875 Z M 0.628906 6.101562 "/>
<path style=" stroke:none;fill-rule:nonzero;fill:rgb(47.058824%,54.509807%,61.176473%);fill-opacity:1;" d="M 1.710938 6.648438 L 6.667969 7.433594 L 5.886719 10.824219 L 1.710938 6.648438 M 0.328125 5.671875 L 0 6 L 6 12 L 6.5 11.5 L 7.492188 7.210938 L 7.0625 6.734375 Z M 0.328125 5.671875 "/>
<path style=" stroke:none;fill-rule:nonzero;fill:rgb(76.078433%,90.980393%,100%);fill-opacity:1;" d="M 0.628906 6.097656 L 0.53125 6 L 6 0.53125 L 6.101562 0.628906 L 7.09375 6.929688 L 6.917969 7.09375 Z M 0.628906 6.097656 "/>
<path style=" stroke:none;fill-rule:nonzero;fill:rgb(47.058824%,54.509807%,61.176473%);fill-opacity:1;" d="M 5.816406 1.242188 L 6.675781 6.671875 L 1.246094 5.816406 L 5.816406 1.242188 M 6 0 L 0 6 L 0.449219 6.449219 L 7.039062 7.492188 L 7.496094 7.066406 L 6.449219 0.453125 Z M 6 0 "/>
</g>
</g>

    <g transform="matrix(0.266667,0,0,0.266667,0,0)">
        <g id="surface25">
            <path d="M43.125,26.25C33.805,26.25 26.25,33.805 26.25,43.125C26.25,52.445 33.805,60 43.125,60C52.445,60 60,52.445 60,43.125C60,33.805 52.445,26.25 43.125,26.25Z" style="fill:rgb(94,156,118);fill-rule:nonzero;"/>
            <rect x="41.25" y="33.75" width="3.75" height="18.75" style="fill:rgb(254,254,254);fill-rule:nonzero;"/>
            <rect x="33.75" y="41.25" width="18.75" height="3.75" style="fill:rgb(254,254,254);fill-rule:nonzero;"/>
        </g>
    </g>
</svg>
