<?xml version="1.0" encoding="UTF-8"?>
<svg xmlns="http://www.w3.org/2000/svg" xmlns:xlink="http://www.w3.org/1999/xlink" width="16" height="16" viewBox="0 0 16 16" version="1.1">
<g transform="scale(1.33333333)">
<g id="surface1467">
<path style=" stroke:none;fill-rule:nonzero;fill:rgb(100%,100%,100%);fill-opacity:1;" d="M 1.875 10.875 L 1.875 0.375 L 7.425781 0.375 L 10.125 3.148438 L 10.125 10.875 Z M 1.875 10.875 "/>
<path style=" stroke:none;fill-rule:nonzero;fill:rgb(47.058824%,54.509807%,61.176473%);fill-opacity:1;" d="M 7.273438 0.75 L 9.75 3.300781 L 9.75 10.5 L 2.25 10.5 L 2.25 0.75 L 7.273438 0.75 M 7.574219 0 L 1.5 0 L 1.5 11.25 L 10.5 11.25 L 10.5 3 Z M 7.574219 0 "/>
<path style=" stroke:none;fill-rule:nonzero;fill:rgb(100%,100%,100%);fill-opacity:1;" d="M 7.125 3.375 L 7.125 0.375 L 7.351562 0.375 L 10.125 3.148438 L 10.125 3.375 Z M 7.125 3.375 "/>
<path style=" stroke:none;fill-rule:nonzero;fill:rgb(47.058824%,54.509807%,61.176473%);fill-opacity:1;" d="M 7.5 1.050781 L 9.449219 3 L 7.5 3 L 7.5 1.050781 M 7.5 0 L 6.75 0 L 6.75 3.75 L 10.5 3.75 L 10.5 3 Z M 7.5 0 "/>
<path style=" stroke:none;fill-rule:nonzero;fill:rgb(69.803923%,44.705883%,85.882354%);fill-opacity:1;" d="M 8.175781 8.773438 L 7.574219 8.476562 L 8.175781 7.125 L 7.574219 5.773438 L 8.175781 5.476562 L 9.074219 7.125 Z M 3.824219 8.773438 L 2.925781 7.125 L 3.824219 5.476562 L 4.425781 5.773438 L 3.824219 7.125 L 4.425781 8.476562 Z M 3.824219 8.773438 "/>
<path style=" stroke:none;fill-rule:nonzero;fill:rgb(69.803923%,44.705883%,85.882354%);fill-opacity:1;" d="M 5.261719 9.28125 L 6.011719 4.769531 L 6.75 4.894531 L 6 9.40625 Z M 5.261719 9.28125 "/>
</g>
</g>
</svg>
