<?xml version="1.0" encoding="UTF-8"?>
<svg xmlns="http://www.w3.org/2000/svg" xmlns:xlink="http://www.w3.org/1999/xlink" width="16" height="16" viewBox="0 0 16 16" version="1.1">
<g transform="scale(1.33333333)">
<g id="surface167">
<path style=" stroke:none;fill-rule:nonzero;fill:rgb(96.862745%,56.078434%,56.078434%);fill-opacity:1;" d="M 0.375 0.375 L 4.875 0.375 L 4.875 3.375 L 0.375 3.375 Z M 0.375 0.375 "/>
<path style=" stroke:none;fill-rule:nonzero;fill:rgb(78.039217%,26.274511%,26.274511%);fill-opacity:1;" d="M 4.5 0.75 L 4.5 3 L 0.75 3 L 0.75 0.75 L 4.5 0.75 M 5.25 0 L 0 0 L 0 3.75 L 5.25 3.75 Z M 5.25 0 "/>
<path style=" stroke:none;fill-rule:nonzero;fill:rgb(54.509807%,71.764708%,94.117647%);fill-opacity:1;" d="M 7.125 8.625 L 11.625 8.625 L 11.625 11.625 L 7.125 11.625 Z M 7.125 8.625 "/>
<path style=" stroke:none;fill-rule:nonzero;fill:rgb(30.588236%,47.843137%,70.980394%);fill-opacity:1;" d="M 11.25 9 L 11.25 11.25 L 7.5 11.25 L 7.5 9 L 11.25 9 M 12 8.25 L 6.75 8.25 L 6.75 12 L 12 12 Z M 12 8.25 "/>
<path style=" stroke:none;fill-rule:nonzero;fill:rgb(40.000001%,47.450981%,56.078434%);fill-opacity:1;" d="M 6.75 9.75 L 3 9.75 L 3 3.75 L 2.25 3.75 L 2.25 10.5 L 6.75 10.5 Z M 6.75 9.75 "/>
<path style=" stroke:none;fill-rule:nonzero;fill:rgb(40.000001%,47.450981%,56.078434%);fill-opacity:1;" d="M 2.25 6 L 2.25 5.25 L 6.75 5.25 L 6.75 6 Z M 2.25 6 "/>
<path style=" stroke:none;fill-rule:nonzero;fill:rgb(54.509807%,71.764708%,94.117647%);fill-opacity:1;" d="M 7.125 4.125 L 11.625 4.125 L 11.625 7.125 L 7.125 7.125 Z M 7.125 4.125 "/>
<path style=" stroke:none;fill-rule:nonzero;fill:rgb(30.588236%,47.843137%,70.980394%);fill-opacity:1;" d="M 11.25 4.5 L 11.25 6.75 L 7.5 6.75 L 7.5 4.5 L 11.25 4.5 M 12 3.75 L 6.75 3.75 L 6.75 7.5 L 12 7.5 Z M 12 3.75 "/>
</g>
</g>
</svg>
