<?xml version="1.0" encoding="UTF-8"?>
<svg xmlns="http://www.w3.org/2000/svg" xmlns:xlink="http://www.w3.org/1999/xlink" width="16" height="16" viewBox="0 0 16 16" version="1.1">
<g transform="scale(1.33333333)">
<g id="surface1502">
<path style=" stroke:none;fill-rule:nonzero;fill:rgb(40.000001%,47.450981%,56.078434%);fill-opacity:1;" d="M 10.5 1.5 L 10.5 10.5 L 1.5 10.5 L 1.5 1.5 L 10.5 1.5 M 11.25 0.75 L 0.75 0.75 L 0.75 11.25 L 11.25 11.25 Z M 11.25 0.75 "/>
<path style=" stroke:none;fill-rule:nonzero;fill:rgb(30.588236%,47.843137%,70.980394%);fill-opacity:1;" d="M 9.75 0 L 12 0 L 12 2.25 L 9.75 2.25 Z M 0 0 L 2.25 0 L 2.25 2.25 L 0 2.25 Z M 9.75 9.75 L 12 9.75 L 12 12 L 9.75 12 Z M 0 9.75 L 2.25 9.75 L 2.25 12 L 0 12 Z M 0 9.75 "/>
<path style=" stroke:none;fill-rule:nonzero;fill:rgb(86.274511%,83.529413%,94.901961%);fill-opacity:1;" d="M 5.625 5.625 L 8.625 5.625 L 8.625 8.625 L 5.625 8.625 Z M 5.625 5.625 "/>
<path style=" stroke:none;fill-rule:nonzero;fill:rgb(54.509807%,45.882353%,63.137257%);fill-opacity:1;" d="M 8.25 6 L 8.25 8.25 L 6 8.25 L 6 6 L 8.25 6 M 9 5.25 L 5.25 5.25 L 5.25 9 L 9 9 Z M 9 5.25 "/>
<path style=" stroke:none;fill-rule:nonzero;fill:rgb(94.901961%,98.039216%,100%);fill-opacity:1;" d="M 3.375 3.375 L 6.375 3.375 L 6.375 6.375 L 3.375 6.375 Z M 3.375 3.375 "/>
<path style=" stroke:none;fill-rule:nonzero;fill:rgb(47.058824%,54.509807%,61.176473%);fill-opacity:1;" d="M 6 3.75 L 6 6 L 3.75 6 L 3.75 3.75 L 6 3.75 M 6.75 3 L 3 3 L 3 6.75 L 6.75 6.75 Z M 6.75 3 "/>
</g>
</g>
</svg>
