<?xml version="1.0" encoding="UTF-8"?>
<svg xmlns="http://www.w3.org/2000/svg" xmlns:xlink="http://www.w3.org/1999/xlink" width="16" height="16" viewBox="0 0 16 16" version="1.1">
<g transform="scale(1.33333333)">
<g id="surface1523">
<path style=" stroke:none;fill-rule:nonzero;fill:rgb(64.705884%,61.56863%,81.960785%);fill-opacity:1;" d="M 5.625 0.375 C 2.726562 0.375 0.375 2.726562 0.375 5.625 C 0.375 8.523438 2.726562 10.875 5.625 10.875 C 8.523438 10.875 10.875 8.523438 10.875 5.625 C 10.875 2.726562 8.523438 0.375 5.625 0.375 Z M 5.625 0.375 "/>
<path style=" stroke:none;fill-rule:nonzero;fill:rgb(54.509807%,45.882353%,63.137257%);fill-opacity:1;" d="M 5.625 0.75 C 8.3125 0.75 10.5 2.9375 10.5 5.625 C 10.5 8.3125 8.3125 10.5 5.625 10.5 C 2.9375 10.5 0.75 8.3125 0.75 5.625 C 0.75 2.9375 2.9375 0.75 5.625 0.75 M 5.625 0 C 2.519531 0 0 2.519531 0 5.625 C 0 8.730469 2.519531 11.25 5.625 11.25 C 8.730469 11.25 11.25 8.730469 11.25 5.625 C 11.25 2.519531 8.730469 0 5.625 0 Z M 5.625 0 "/>
<path style=" stroke:none;fill-rule:nonzero;fill:rgb(100%,100%,100%);fill-opacity:1;" d="M 5.625 6 L 3.375 3.75 L 2.25 4.875 L 5.625 8.25 L 9 4.855469 L 7.875 3.75 Z M 5.625 6 "/>
</g>
</g>
</svg>
