<?xml version="1.0" encoding="UTF-8"?>
<svg xmlns="http://www.w3.org/2000/svg" xmlns:xlink="http://www.w3.org/1999/xlink" width="30pt" height="30pt" viewBox="0 0 30 30" version="1.1">
<g id="surface60">
<path style=" stroke:none;fill-rule:nonzero;fill:rgb(64.705884%,61.56863%,81.960785%);fill-opacity:1;" d="M 15 28.875 C 7.347656 28.875 1.125 22.652344 1.125 15 C 1.125 7.347656 7.347656 1.125 15 1.125 C 22.652344 1.125 28.875 7.347656 28.875 15 C 28.875 22.652344 22.652344 28.875 15 28.875 Z M 15 28.875 "/>
<path style=" stroke:none;fill-rule:nonzero;fill:rgb(54.509807%,45.882353%,63.137257%);fill-opacity:1;" d="M 15 1.5 C 22.445312 1.5 28.5 7.554688 28.5 15 C 28.5 22.445312 22.445312 28.5 15 28.5 C 7.554688 28.5 1.5 22.445312 1.5 15 C 1.5 7.554688 7.554688 1.5 15 1.5 M 15 0.75 C 7.128906 0.75 0.75 7.128906 0.75 15 C 0.75 22.871094 7.128906 29.25 15 29.25 C 22.871094 29.25 29.25 22.871094 29.25 15 C 29.25 7.128906 22.871094 0.75 15 0.75 Z M 15 0.75 "/>
<path style=" stroke:none;fill-rule:nonzero;fill:rgb(100%,100%,100%);fill-opacity:1;" d="M 23.25 17.25 L 21 19.5 L 15 13.5 L 9 19.5 L 6.75 17.25 L 15 9 Z M 23.25 17.25 "/>
</g>
</svg>
