<?xml version="1.0" encoding="UTF-8"?>
<svg xmlns="http://www.w3.org/2000/svg" xmlns:xlink="http://www.w3.org/1999/xlink" width="16" height="16" viewBox="0 0 16 16" version="1.1">
<g transform="scale(1.33333333)">
<g id="surface38">
<path style=" stroke:none;fill-rule:nonzero;fill:rgb(30.588236%,47.843137%,70.980394%);fill-opacity:1;" d="M 6 5.25 C 5.585938 5.25 5.25 5.585938 5.25 6 C 5.25 6.414062 5.585938 6.75 6 6.75 C 6.414062 6.75 6.75 6.414062 6.75 6 C 6.75 5.585938 6.414062 5.25 6 5.25 Z M 6 5.25 "/>
<path style=" stroke:none;fill-rule:nonzero;fill:rgb(54.509807%,71.764708%,94.117647%);fill-opacity:1;" d="M 3.988281 10.019531 C 2.515625 9.277344 1.5 7.757812 1.5 6 C 1.5 4.242188 2.515625 2.722656 3.988281 1.980469 L 3.652344 1.308594 C 1.933594 2.171875 0.75 3.945312 0.75 6 C 0.75 8.054688 1.933594 9.828125 3.652344 10.691406 Z M 8.347656 1.308594 L 8.011719 1.980469 C 9.484375 2.722656 10.5 4.242188 10.5 6 C 10.5 7.757812 9.484375 9.277344 8.011719 10.019531 L 8.347656 10.691406 C 10.066406 9.828125 11.25 8.054688 11.25 6 C 11.25 3.945312 10.066406 2.171875 8.347656 1.308594 Z M 8.347656 1.308594 "/>
<path style=" stroke:none;fill-rule:nonzero;fill:rgb(45.490196%,58.823532%,76.862746%);fill-opacity:1;" d="M 7.671875 2.660156 L 7.339844 3.328125 C 8.320312 3.824219 9 4.828125 9 6 C 9 7.171875 8.316406 8.175781 7.335938 8.671875 L 7.671875 9.339844 C 8.898438 8.722656 9.75 7.46875 9.75 6 C 9.75 4.53125 8.898438 3.277344 7.671875 2.660156 Z M 4.328125 9.339844 L 4.664062 8.671875 C 3.679688 8.175781 3 7.171875 3 6 C 3 4.828125 3.683594 3.824219 4.664062 3.328125 L 4.328125 2.660156 C 3.101562 3.277344 2.25 4.53125 2.25 6 C 2.25 7.46875 3.101562 8.722656 4.328125 9.339844 Z M 4.328125 9.339844 "/>
<path style=" stroke:none;fill-rule:nonzero;fill:rgb(30.588236%,47.843137%,70.980394%);fill-opacity:1;" d="M 7.5 6 C 7.5 6.585938 7.160156 7.089844 6.667969 7.335938 L 7.003906 8.003906 C 7.738281 7.632812 8.25 6.878906 8.25 6 C 8.25 5.121094 7.738281 4.367188 7.003906 3.996094 L 6.667969 4.664062 C 7.160156 4.910156 7.5 5.414062 7.5 6 Z M 4.5 6 C 4.5 5.414062 4.839844 4.910156 5.332031 4.664062 L 4.996094 3.996094 C 4.261719 4.367188 3.75 5.121094 3.75 6 C 3.75 6.878906 4.261719 7.632812 4.996094 8.003906 L 5.332031 7.335938 C 4.839844 7.089844 4.5 6.585938 4.5 6 Z M 4.5 6 "/>
</g>
</g>
</svg>
