<?xml version="1.0" encoding="UTF-8"?>
<svg xmlns="http://www.w3.org/2000/svg" xmlns:xlink="http://www.w3.org/1999/xlink" width="16" height="16" viewBox="0 0 16 16" version="1.1">
<g transform="scale(1.33333333)">
<g id="surface1624">
<path style=" stroke:none;fill-rule:nonzero;fill:rgb(100%,100%,100%);fill-opacity:1;" d="M 0.375 0.375 L 11.625 0.375 L 11.625 11.625 L 0.375 11.625 Z M 0.375 0.375 "/>
<path style=" stroke:none;fill-rule:nonzero;fill:rgb(47.058824%,54.509807%,61.176473%);fill-opacity:1;" d="M 11.25 0.75 L 11.25 11.25 L 0.75 11.25 L 0.75 0.75 L 11.25 0.75 M 12 0 L 0 0 L 0 12 L 12 12 Z M 12 0 "/>
<path style=" stroke:none;fill-rule:nonzero;fill:rgb(77.254903%,83.137256%,87.058824%);fill-opacity:1;" d="M 3 0.75 L 3 11.25 L 2.25 11.25 L 2.25 0.75 Z M 3 0.75 "/>
<path style=" stroke:none;fill-rule:nonzero;fill:rgb(77.254903%,83.137256%,87.058824%);fill-opacity:1;" d="M 5.25 0.75 L 5.25 11.25 L 4.5 11.25 L 4.5 0.75 Z M 5.25 0.75 "/>
<path style=" stroke:none;fill-rule:nonzero;fill:rgb(77.254903%,83.137256%,87.058824%);fill-opacity:1;" d="M 7.5 0.75 L 7.5 11.25 L 6.75 11.25 L 6.75 0.75 Z M 7.5 0.75 "/>
<path style=" stroke:none;fill-rule:nonzero;fill:rgb(77.254903%,83.137256%,87.058824%);fill-opacity:1;" d="M 9.75 0.75 L 9.75 11.25 L 9 11.25 L 9 0.75 Z M 9.75 0.75 "/>
<path style=" stroke:none;fill-rule:nonzero;fill:rgb(77.254903%,83.137256%,87.058824%);fill-opacity:1;" d="M 11.25 3 L 0.75 3 L 0.75 2.25 L 11.25 2.25 Z M 11.25 3 "/>
<path style=" stroke:none;fill-rule:nonzero;fill:rgb(77.254903%,83.137256%,87.058824%);fill-opacity:1;" d="M 11.25 5.25 L 0.75 5.25 L 0.75 4.5 L 11.25 4.5 Z M 11.25 5.25 "/>
<path style=" stroke:none;fill-rule:nonzero;fill:rgb(77.254903%,83.137256%,87.058824%);fill-opacity:1;" d="M 11.25 7.5 L 0.75 7.5 L 0.75 6.75 L 11.25 6.75 Z M 11.25 7.5 "/>
<path style=" stroke:none;fill-rule:nonzero;fill:rgb(77.254903%,83.137256%,87.058824%);fill-opacity:1;" d="M 11.25 9.75 L 0.75 9.75 L 0.75 9 L 11.25 9 Z M 11.25 9.75 "/>
</g>
</g>
</svg>
