<svg xmlns="http://www.w3.org/2000/svg"  viewBox="0 0 16 16" width="30px" height="30px"><path fill="#c2e8ff" d="M3,10.5c-1.378,0-2.5-1.121-2.5-2.5S1.622,5.5,3,5.5h0.5V5c0-0.827,0.673-1.5,1.5-1.5l0.521,0.054 L5.65,3.182C6.001,2.176,6.945,1.5,8,1.5c1.085,0,2.038,0.702,2.37,1.748l0.145,0.456l0.462-0.125 C11.177,3.525,11.344,3.5,11.5,3.5c0.993,0,1.841,0.747,1.972,1.738l0.041,0.307l0.293,0.101C14.819,5.993,15.5,6.939,15.5,8 c0,1.379-1.122,2.5-2.5,2.5H3z"/><path fill="#7496c4" d="M8,2c0.867,0,1.628,0.563,1.893,1.4l0.29,0.914l0.925-0.252C11.265,4.019,11.389,4,11.5,4 c0.743,0,1.378,0.561,1.476,1.304l0.081,0.614l0.586,0.201C14.455,6.397,15,7.153,15,8c0,1.103-0.897,2-2,2H3c-1.103,0-2-0.897-2-2 s0.897-2,2-2h1V5c0-0.551,0.448-0.999,0.977-0.999c0.001,0,0.001,0,0.002,0l0.11,0.013l0.777,0.07l0.257-0.737 C6.403,2.541,7.158,2,8,2 M8,1C6.689,1,5.586,1.846,5.178,3.017C5.119,3.012,5.061,3,5,3C3.895,3,3,3.895,3,5C1.343,5,0,6.343,0,8 s1.343,3,3,3s8.343,0,10,0s3-1.343,3-3c0-1.316-0.853-2.422-2.033-2.826C13.806,3.948,12.769,3,11.5,3 c-0.228,0-0.444,0.04-0.653,0.097C10.462,1.884,9.34,1,8,1L8,1z"/><path fill="#c2e8ff" d="M5 9H11V11H5z"/><g><path fill="#4e7ab5" d="M7 8L7 14 9 14 9 8 11 8 8 5 5 8z"/></g></svg>