<?xml version="1.0" encoding="UTF-8"?>
<svg xmlns="http://www.w3.org/2000/svg" xmlns:xlink="http://www.w3.org/1999/xlink" width="32" height="32" viewBox="0 0 32 32" version="1.1">
<g transform="scale(1.33333333)">
<g id="surface968">
<path style=" stroke:none;fill-rule:nonzero;fill:rgb(72.941178%,87.843138%,74.117649%);fill-opacity:1;" d="M 12 14.398438 L 15 14.398438 L 15 18 L 12 18 Z M 12 14.398438 "/>
<path style=" stroke:none;fill-rule:nonzero;fill:rgb(36.862746%,61.176473%,46.27451%);fill-opacity:1;" d="M 14.398438 15 L 14.398438 17.398438 L 12.601562 17.398438 L 12.601562 15 L 14.398438 15 M 15 14.398438 L 12 14.398438 L 12 18 L 15 18 Z M 15 14.398438 "/>
<path style=" stroke:none;fill-rule:nonzero;fill:rgb(72.941178%,87.843138%,74.117649%);fill-opacity:1;" d="M 14.398438 10.199219 L 17.398438 10.199219 L 17.398438 18 L 14.398438 18 Z M 14.398438 10.199219 "/>
<path style=" stroke:none;fill-rule:nonzero;fill:rgb(36.862746%,61.176473%,46.27451%);fill-opacity:1;" d="M 16.800781 10.800781 L 16.800781 17.398438 L 15 17.398438 L 15 10.800781 L 16.800781 10.800781 M 17.398438 10.199219 L 14.398438 10.199219 L 14.398438 18 L 17.398438 18 Z M 17.398438 10.199219 "/>
<path style=" stroke:none;fill-rule:nonzero;fill:rgb(72.941178%,87.843138%,74.117649%);fill-opacity:1;" d="M 16.800781 5.398438 L 19.800781 5.398438 L 19.800781 18 L 16.800781 18 Z M 16.800781 5.398438 "/>
<path style=" stroke:none;fill-rule:nonzero;fill:rgb(36.862746%,61.176473%,46.27451%);fill-opacity:1;" d="M 19.199219 6 L 19.199219 17.398438 L 17.398438 17.398438 L 17.398438 6 L 19.199219 6 M 19.800781 5.398438 L 16.800781 5.398438 L 16.800781 18 L 19.800781 18 Z M 19.800781 5.398438 "/>
<path style=" stroke:none;fill-rule:nonzero;fill:rgb(72.941178%,87.843138%,74.117649%);fill-opacity:1;" d="M 19.199219 12.601562 L 22.199219 12.601562 L 22.199219 18 L 19.199219 18 Z M 19.199219 12.601562 "/>
<path style=" stroke:none;fill-rule:nonzero;fill:rgb(36.862746%,61.176473%,46.27451%);fill-opacity:1;" d="M 21.601562 13.199219 L 21.601562 17.398438 L 19.800781 17.398438 L 19.800781 13.199219 L 21.601562 13.199219 M 22.199219 12.601562 L 19.199219 12.601562 L 19.199219 18 L 22.199219 18 Z M 22.199219 12.601562 "/>
<path style=" stroke:none;fill-rule:nonzero;fill:rgb(72.941178%,87.843138%,74.117649%);fill-opacity:1;" d="M 1.800781 13.800781 L 4.800781 13.800781 L 4.800781 18 L 1.800781 18 Z M 1.800781 13.800781 "/>
<path style=" stroke:none;fill-rule:nonzero;fill:rgb(36.862746%,61.176473%,46.27451%);fill-opacity:1;" d="M 4.199219 14.398438 L 4.199219 17.398438 L 2.398438 17.398438 L 2.398438 14.398438 L 4.199219 14.398438 M 4.800781 13.800781 L 1.800781 13.800781 L 1.800781 18 L 4.800781 18 Z M 4.800781 13.800781 "/>
<path style=" stroke:none;fill-rule:nonzero;fill:rgb(72.941178%,87.843138%,74.117649%);fill-opacity:1;" d="M 4.199219 7.199219 L 7.199219 7.199219 L 7.199219 18 L 4.199219 18 Z M 4.199219 7.199219 "/>
<path style=" stroke:none;fill-rule:nonzero;fill:rgb(36.862746%,61.176473%,46.27451%);fill-opacity:1;" d="M 6.601562 7.800781 L 6.601562 17.398438 L 4.800781 17.398438 L 4.800781 7.800781 L 6.601562 7.800781 M 7.199219 7.199219 L 4.199219 7.199219 L 4.199219 18 L 7.199219 18 Z M 7.199219 7.199219 "/>
<path style=" stroke:none;fill-rule:nonzero;fill:rgb(72.941178%,87.843138%,74.117649%);fill-opacity:1;" d="M 6.601562 12.601562 L 9.601562 12.601562 L 9.601562 18 L 6.601562 18 Z M 6.601562 12.601562 "/>
<path style=" stroke:none;fill-rule:nonzero;fill:rgb(36.862746%,61.176473%,46.27451%);fill-opacity:1;" d="M 9 13.199219 L 9 17.398438 L 7.199219 17.398438 L 7.199219 13.199219 L 9 13.199219 M 9.601562 12.601562 L 6.601562 12.601562 L 6.601562 18 L 9.601562 18 Z M 9.601562 12.601562 "/>
<path style=" stroke:none;fill-rule:nonzero;fill:rgb(72.941178%,87.843138%,74.117649%);fill-opacity:1;" d="M 9 15.601562 L 12 15.601562 L 12 18 L 9 18 Z M 9 15.601562 "/>
<path style=" stroke:none;fill-rule:nonzero;fill:rgb(36.862746%,61.176473%,46.27451%);fill-opacity:1;" d="M 11.398438 16.199219 L 11.398438 17.398438 L 9.601562 17.398438 L 9.601562 16.199219 L 11.398438 16.199219 M 12 15.601562 L 9 15.601562 L 9 18 L 12 18 Z M 12 15.601562 "/>
<path style=" stroke:none;fill-rule:nonzero;fill:rgb(30.588236%,47.843137%,70.980394%);fill-opacity:1;" d="M 11.398438 1.199219 L 12.601562 1.199219 L 12.601562 22.800781 L 11.398438 22.800781 Z M 11.398438 1.199219 "/>
</g>
</g>
</svg>
