<?xml version="1.0" encoding="UTF-8"?>
<svg xmlns="http://www.w3.org/2000/svg" xmlns:xlink="http://www.w3.org/1999/xlink" width="32" height="32" viewBox="0 0 32 32" version="1.1">
<g transform="scale(1.33333333)">
<g id="surface996">
<path style=" stroke:none;fill-rule:nonzero;fill:rgb(54.509807%,71.764708%,94.117647%);fill-opacity:1;" d="M 12 23.101562 C 7.699219 23.101562 3.300781 21.78125 3.300781 12 C 3.300781 2.21875 7.699219 0.898438 12 0.898438 C 16.300781 0.898438 20.699219 2.21875 20.699219 12 C 20.699219 21.78125 16.300781 23.101562 12 23.101562 Z M 12 23.101562 "/>
<path style=" stroke:none;fill-rule:nonzero;fill:rgb(30.588236%,47.843137%,70.980394%);fill-opacity:1;" d="M 12 1.199219 C 16.15625 1.199219 20.398438 2.484375 20.398438 12 C 20.398438 21.515625 16.15625 22.800781 12 22.800781 C 7.847656 22.800781 3.601562 21.515625 3.601562 12 C 3.601562 2.484375 7.847656 1.199219 12 1.199219 M 12 0.601562 C 6.699219 0.601562 3 2.964844 3 12 C 3 21.035156 6.699219 23.398438 12 23.398438 C 17.304688 23.398438 21 21.035156 21 12 C 21 2.964844 17.304688 0.601562 12 0.601562 Z M 12 0.601562 "/>
<path style="fill:none;stroke-width:2;stroke-linecap:butt;stroke-linejoin:miter;stroke:rgb(100%,100%,100%);stroke-opacity:1;stroke-miterlimit:10;" d="M 13.001302 26.002604 L 26.002604 13.997396 L 18.997396 6.998698 L 18.997396 31.998698 L 26.002604 25 L 13.001302 13.001302 " transform="matrix(0.6,0,0,0.6,0,0)"/>
</g>
</g>
</svg>
