<?xml version="1.0" encoding="UTF-8"?>
<svg xmlns="http://www.w3.org/2000/svg" xmlns:xlink="http://www.w3.org/1999/xlink" width="32" height="32" viewBox="0 0 32 32" version="1.1">
<g transform="scale(1.33333333)">
<g id="surface1017">
<path style=" stroke:none;fill-rule:nonzero;fill:rgb(86.274511%,83.529413%,94.901961%);fill-opacity:1;" d="M 7.925781 19.5 L 5.523438 17.101562 L 3.300781 17.101562 L 3.300781 9.898438 L 6.75 9.898438 L 8.550781 7.5 L 20.699219 7.5 L 20.699219 16.644531 L 16.703125 19.5 Z M 7.925781 19.5 "/>
<path style=" stroke:none;fill-rule:nonzero;fill:rgb(54.509807%,45.882353%,63.137257%);fill-opacity:1;" d="M 20.398438 7.800781 L 20.398438 16.492188 L 16.609375 19.199219 L 8.046875 19.199219 L 5.648438 16.800781 L 3.601562 16.800781 L 3.601562 10.199219 L 6.898438 10.199219 L 7.078125 9.960938 L 8.699219 7.800781 L 20.398438 7.800781 M 21 7.199219 L 8.398438 7.199219 L 6.601562 9.601562 L 3 9.601562 L 3 17.398438 L 5.398438 17.398438 L 7.800781 19.800781 L 16.800781 19.800781 L 21 16.800781 Z M 21 7.199219 "/>
<path style="fill:none;stroke-width:3;stroke-linecap:butt;stroke-linejoin:miter;stroke:rgb(54.509807%,45.882353%,63.137257%);stroke-opacity:1;stroke-miterlimit:10;" d="M 22.5 13.001302 L 22.5 8.997396 " transform="matrix(0.6,0,0,0.6,0,0)"/>
<path style=" stroke:none;fill-rule:nonzero;fill:rgb(54.509807%,45.882353%,63.137257%);fill-opacity:1;" d="M 12.601562 17.398438 L 14.210938 13.617188 L 12.601562 12.90625 L 12.601562 9.617188 L 11.011719 13.597656 L 12.601562 14.398438 Z M 12.601562 17.398438 "/>
<path style=" stroke:none;fill-rule:nonzero;fill:rgb(86.274511%,83.529413%,94.901961%);fill-opacity:1;" d="M 10.5 4.5 L 16.5 4.5 L 16.5 6.300781 L 10.5 6.300781 Z M 10.5 4.5 "/>
<path style=" stroke:none;fill-rule:nonzero;fill:rgb(54.509807%,45.882353%,63.137257%);fill-opacity:1;" d="M 16.199219 4.800781 L 16.199219 6 L 10.800781 6 L 10.800781 4.800781 L 16.199219 4.800781 M 16.800781 4.199219 L 10.199219 4.199219 L 10.199219 6.601562 L 16.800781 6.601562 Z M 16.800781 4.199219 "/>
<path style="fill:none;stroke-width:2;stroke-linecap:butt;stroke-linejoin:miter;stroke:rgb(54.509807%,45.882353%,63.137257%);stroke-opacity:1;stroke-miterlimit:10;" d="M 33.997396 20 L 37.330729 20 " transform="matrix(0.6,0,0,0.6,0,0)"/>
<path style=" stroke:none;fill-rule:nonzero;fill:rgb(86.274511%,83.529413%,94.901961%);fill-opacity:1;" d="M 21.898438 8.101562 L 23.699219 8.101562 L 23.699219 15.898438 L 21.898438 15.898438 Z M 21.898438 8.101562 "/>
<path style=" stroke:none;fill-rule:nonzero;fill:rgb(54.509807%,45.882353%,63.137257%);fill-opacity:1;" d="M 23.398438 8.398438 L 23.398438 15.601562 L 22.199219 15.601562 L 22.199219 8.398438 L 23.398438 8.398438 M 24 7.800781 L 21.601562 7.800781 L 21.601562 16.199219 L 24 16.199219 Z M 24 7.800781 "/>
<path style="fill:none;stroke-width:3;stroke-linecap:butt;stroke-linejoin:miter;stroke:rgb(54.509807%,45.882353%,63.137257%);stroke-opacity:1;stroke-miterlimit:10;" d="M 6.002604 22.5 L 1.998698 22.5 " transform="matrix(0.6,0,0,0.6,0,0)"/>
<path style=" stroke:none;fill-rule:nonzero;fill:rgb(86.274511%,83.529413%,94.901961%);fill-opacity:1;" d="M 0.300781 10.5 L 2.101562 10.5 L 2.101562 16.5 L 0.300781 16.5 Z M 0.300781 10.5 "/>
<path style=" stroke:none;fill-rule:nonzero;fill:rgb(54.509807%,45.882353%,63.137257%);fill-opacity:1;" d="M 1.800781 10.800781 L 1.800781 16.199219 L 0.601562 16.199219 L 0.601562 10.800781 L 1.800781 10.800781 M 2.398438 10.199219 L 0 10.199219 L 0 16.800781 L 2.398438 16.800781 Z M 2.398438 10.199219 "/>
</g>
</g>
</svg>
