<?xml version="1.0" encoding="UTF-8"?>
<svg xmlns="http://www.w3.org/2000/svg" xmlns:xlink="http://www.w3.org/1999/xlink" width="32" height="32" viewBox="0 0 32 32" version="1.1">
<g transform="scale(1.33333333)">
<g id="surface1043">
<path style=" stroke:none;fill-rule:nonzero;fill:rgb(96.862745%,56.078434%,56.078434%);fill-opacity:1;" d="M 1.199219 23.101562 C 1.035156 23.101562 0.898438 22.964844 0.898438 22.800781 L 0.898438 8.398438 C 0.898438 8.234375 1.035156 8.101562 1.199219 8.101562 L 22.800781 8.101562 C 22.964844 8.101562 23.101562 8.234375 23.101562 8.398438 L 23.101562 22.800781 C 23.101562 22.964844 22.964844 23.101562 22.800781 23.101562 Z M 1.199219 23.101562 "/>
<path style=" stroke:none;fill-rule:nonzero;fill:rgb(78.039217%,26.274511%,26.274511%);fill-opacity:1;" d="M 22.800781 8.398438 L 22.800781 22.800781 L 1.199219 22.800781 L 1.199219 8.398438 L 22.800781 8.398438 M 22.800781 7.800781 L 1.199219 7.800781 C 0.867188 7.800781 0.601562 8.070312 0.601562 8.398438 L 0.601562 22.800781 C 0.601562 23.132812 0.867188 23.398438 1.199219 23.398438 L 22.800781 23.398438 C 23.132812 23.398438 23.398438 23.132812 23.398438 22.800781 L 23.398438 8.398438 C 23.398438 8.070312 23.132812 7.800781 22.800781 7.800781 Z M 22.800781 7.800781 "/>
<path style=" stroke:none;fill-rule:nonzero;fill:rgb(100%,76.078433%,76.078433%);fill-opacity:1;" d="M 22.199219 9 L 22.199219 22.199219 L 1.800781 22.199219 L 1.800781 9 L 22.199219 9 M 22.800781 8.398438 L 1.199219 8.398438 L 1.199219 22.800781 L 22.800781 22.800781 Z M 22.800781 8.398438 "/>
<path style=" stroke:none;fill-rule:nonzero;fill:rgb(40.000001%,47.450981%,56.078434%);fill-opacity:1;" d="M 20.398438 1.199219 L 21 1.199219 L 21 7.800781 L 20.398438 7.800781 Z M 18.601562 1.199219 L 19.199219 1.199219 L 19.199219 7.800781 L 18.601562 7.800781 Z M 5.398438 1.199219 L 6 1.199219 L 6 7.800781 L 5.398438 7.800781 Z M 16.199219 1.199219 L 17.398438 1.199219 L 17.398438 7.800781 L 16.199219 7.800781 Z M 3 1.199219 L 4.199219 1.199219 L 4.199219 7.800781 L 3 7.800781 Z M 13.199219 1.199219 L 15 1.199219 L 15 7.800781 L 13.199219 7.800781 Z M 7.199219 1.199219 L 12 1.199219 L 12 7.800781 L 7.199219 7.800781 Z M 7.199219 1.199219 "/>
<path style=" stroke:none;fill-rule:nonzero;fill:rgb(21.176471%,25.098041%,30.19608%);fill-opacity:1;" d="M 20.398438 9 L 21 9 L 21 19.199219 L 20.398438 19.199219 Z M 18.601562 9 L 19.199219 9 L 19.199219 19.199219 L 18.601562 19.199219 Z M 5.398438 9 L 6 9 L 6 19.199219 L 5.398438 19.199219 Z M 16.199219 9 L 17.398438 9 L 17.398438 19.199219 L 16.199219 19.199219 Z M 3 9 L 4.199219 9 L 4.199219 19.199219 L 3 19.199219 Z M 13.199219 9 L 15 9 L 15 19.199219 L 13.199219 19.199219 Z M 13.199219 9 "/>
<path style=" stroke:none;fill-rule:nonzero;fill:rgb(21.176471%,25.098041%,30.19608%);fill-opacity:1;" d="M 7.199219 9 L 12 9 L 12 19.199219 L 7.199219 19.199219 Z M 7.199219 9 "/>
</g>
</g>
</svg>
