<?xml version="1.0" encoding="UTF-8"?>
<svg xmlns="http://www.w3.org/2000/svg" xmlns:xlink="http://www.w3.org/1999/xlink" width="32" height="32" viewBox="0 0 32 32" version="1.1">
<g transform="scale(1.33333333)">
<g id="surface1091">
<path style=" stroke:none;fill-rule:nonzero;fill:rgb(69.01961%,75.686276%,83.137256%);fill-opacity:1;" d="M 14.164062 3.980469 L 18.632812 0.941406 L 22.386719 2.546875 L 21.535156 4.191406 L 18.632812 3.050781 L 15.09375 5.566406 Z M 14.164062 3.980469 "/>
<path style=" stroke:none;fill-rule:nonzero;fill:rgb(40.000001%,47.450981%,56.078434%);fill-opacity:1;" d="M 18.664062 1.28125 L 21.972656 2.699219 L 21.394531 3.816406 L 18.894531 2.832031 L 18.589844 2.710938 L 18.324219 2.898438 L 15.1875 5.132812 L 14.566406 4.070312 L 18.664062 1.28125 M 18.601562 0.601562 L 13.765625 3.890625 L 15 6 L 18.671875 3.390625 L 21.679688 4.570312 L 22.800781 2.398438 Z M 18.601562 0.601562 "/>
<path style=" stroke:none;fill-rule:nonzero;fill:rgb(69.01961%,75.686276%,83.137256%);fill-opacity:1;" d="M 14.164062 6.21875 L 15.09375 4.632812 L 18.632812 7.148438 L 21.535156 6.007812 L 22.386719 7.652344 L 18.632812 9.261719 Z M 14.164062 6.21875 "/>
<path style=" stroke:none;fill-rule:nonzero;fill:rgb(40.000001%,47.450981%,56.078434%);fill-opacity:1;" d="M 15.1875 5.070312 L 18.324219 7.300781 L 18.589844 7.488281 L 18.894531 7.371094 L 21.394531 6.386719 L 21.972656 7.503906 L 18.664062 8.917969 L 14.566406 6.128906 L 15.1875 5.070312 M 15 4.199219 L 13.765625 6.308594 L 18.601562 9.601562 L 22.800781 7.800781 L 21.679688 5.628906 L 18.671875 6.8125 Z M 15 4.199219 "/>
<path style=" stroke:none;fill-rule:nonzero;fill:rgb(69.01961%,75.686276%,83.137256%);fill-opacity:1;" d="M 6.898438 3.300781 L 14.699219 3.300781 L 14.699219 6.898438 L 6.898438 6.898438 Z M 6.898438 3.300781 "/>
<path style=" stroke:none;fill-rule:nonzero;fill:rgb(40.000001%,47.450981%,56.078434%);fill-opacity:1;" d="M 14.398438 3.601562 L 14.398438 6.601562 L 7.199219 6.601562 L 7.199219 3.601562 L 14.398438 3.601562 M 15 3 L 6.597656 3 L 6.597656 7.199219 L 15 7.199219 Z M 15 3 "/>
<path style=" stroke:none;fill-rule:nonzero;fill:rgb(69.01961%,75.686276%,83.137256%);fill-opacity:1;" d="M 3.535156 6.074219 L 6.832031 4.988281 L 12.410156 18.328125 L 9.113281 19.417969 Z M 3.535156 6.074219 "/>
<path style=" stroke:none;fill-rule:nonzero;fill:rgb(40.000001%,47.450981%,56.078434%);fill-opacity:1;" d="M 6.660156 5.359375 L 12.007812 18.144531 L 9.28125 19.042969 L 3.933594 6.257812 L 6.660156 5.359375 M 7 4.613281 L 3.132812 5.890625 L 8.941406 19.789062 L 12.8125 18.511719 Z M 7 4.613281 "/>
<path style=" stroke:none;fill-rule:nonzero;fill:rgb(100%,93.333334%,63.921571%);fill-opacity:1;" d="M 4.800781 8.699219 C 2.980469 8.699219 1.5 7.21875 1.5 5.398438 C 1.5 3.582031 2.980469 2.101562 4.800781 2.101562 C 6.621094 2.101562 8.101562 3.582031 8.101562 5.398438 C 8.101562 7.21875 6.621094 8.699219 4.800781 8.699219 Z M 4.800781 8.699219 "/>
<path style=" stroke:none;fill-rule:nonzero;fill:rgb(72.941178%,60.784316%,28.235295%);fill-opacity:1;" d="M 4.800781 2.398438 C 6.453125 2.398438 7.800781 3.746094 7.800781 5.398438 C 7.800781 7.054688 6.453125 8.398438 4.800781 8.398438 C 3.144531 8.398438 1.800781 7.054688 1.800781 5.398438 C 1.800781 3.746094 3.144531 2.398438 4.800781 2.398438 M 4.800781 1.800781 C 2.8125 1.800781 1.199219 3.410156 1.199219 5.398438 C 1.199219 7.386719 2.8125 9 4.800781 9 C 6.789062 9 8.398438 7.386719 8.398438 5.398438 C 8.398438 3.410156 6.789062 1.800781 4.800781 1.800781 Z M 4.800781 1.800781 "/>
<path style=" stroke:none;fill-rule:nonzero;fill:rgb(100%,93.333334%,63.921571%);fill-opacity:1;" d="M 14.398438 7.5 C 13.902344 7.5 13.5 7.097656 13.5 6.601562 L 13.5 3.601562 C 13.5 3.105469 13.902344 2.699219 14.398438 2.699219 L 15.898438 2.699219 L 15.898438 7.5 Z M 14.398438 7.5 "/>
<path style=" stroke:none;fill-rule:nonzero;fill:rgb(72.941178%,60.784316%,28.235295%);fill-opacity:1;" d="M 15.601562 3 L 15.601562 7.199219 L 14.398438 7.199219 C 14.070312 7.199219 13.800781 6.929688 13.800781 6.601562 L 13.800781 3.601562 C 13.800781 3.269531 14.070312 3 14.398438 3 L 15.601562 3 M 16.199219 2.398438 L 14.398438 2.398438 C 13.738281 2.398438 13.199219 2.9375 13.199219 3.601562 L 13.199219 6.601562 C 13.199219 7.261719 13.738281 7.800781 14.398438 7.800781 L 16.199219 7.800781 Z M 16.199219 2.398438 "/>
<path style=" stroke:none;fill-rule:nonzero;fill:rgb(100%,93.333334%,63.921571%);fill-opacity:1;" d="M 4.714844 20.699219 L 7.542969 15.753906 C 7.703125 15.472656 8.003906 15.300781 8.328125 15.300781 L 11.21875 15.300781 C 11.542969 15.300781 11.839844 15.472656 12 15.753906 L 14.828125 20.699219 Z M 4.714844 20.699219 "/>
<path style=" stroke:none;fill-rule:nonzero;fill:rgb(72.941178%,60.784316%,28.235295%);fill-opacity:1;" d="M 11.21875 15.601562 C 11.433594 15.601562 11.636719 15.714844 11.742188 15.902344 L 14.3125 20.398438 L 5.234375 20.398438 L 7.804688 15.902344 C 7.910156 15.714844 8.113281 15.601562 8.328125 15.601562 L 11.21875 15.601562 M 11.21875 15 L 8.328125 15 C 7.894531 15 7.496094 15.230469 7.285156 15.605469 L 4.199219 21 L 15.347656 21 L 12.261719 15.605469 C 12.046875 15.230469 11.648438 15 11.21875 15 Z M 11.21875 15 "/>
<path style=" stroke:none;fill-rule:nonzero;fill:rgb(69.01961%,75.686276%,83.137256%);fill-opacity:1;" d="M 4.800781 4.5 C 4.304688 4.5 3.898438 4.902344 3.898438 5.398438 C 3.898438 5.898438 4.304688 6.300781 4.800781 6.300781 C 5.296875 6.300781 5.699219 5.898438 5.699219 5.398438 C 5.699219 4.902344 5.296875 4.5 4.800781 4.5 Z M 4.800781 4.5 "/>
<path style=" stroke:none;fill-rule:nonzero;fill:rgb(40.000001%,47.450981%,56.078434%);fill-opacity:1;" d="M 4.800781 4.800781 C 5.128906 4.800781 5.398438 5.070312 5.398438 5.398438 C 5.398438 5.730469 5.128906 6 4.800781 6 C 4.46875 6 4.199219 5.730469 4.199219 5.398438 C 4.199219 5.070312 4.46875 4.800781 4.800781 4.800781 M 4.800781 4.199219 C 4.136719 4.199219 3.601562 4.738281 3.601562 5.398438 C 3.601562 6.0625 4.136719 6.601562 4.800781 6.601562 C 5.464844 6.601562 6 6.0625 6 5.398438 C 6 4.738281 5.464844 4.199219 4.800781 4.199219 Z M 4.800781 4.199219 "/>
<path style=" stroke:none;fill-rule:nonzero;fill:rgb(69.01961%,75.686276%,83.137256%);fill-opacity:1;" d="M 9.597656 17.101562 C 9.101562 17.101562 8.699219 17.503906 8.699219 18 C 8.699219 18.496094 9.101562 18.898438 9.597656 18.898438 C 10.097656 18.898438 10.5 18.496094 10.5 18 C 10.5 17.503906 10.097656 17.101562 9.597656 17.101562 Z M 9.597656 17.101562 "/>
<path style=" stroke:none;fill-rule:nonzero;fill:rgb(40.000001%,47.450981%,56.078434%);fill-opacity:1;" d="M 9.597656 17.398438 C 9.929688 17.398438 10.199219 17.667969 10.199219 18 C 10.199219 18.332031 9.929688 18.601562 9.597656 18.601562 C 9.269531 18.601562 9 18.332031 9 18 C 9 17.667969 9.269531 17.398438 9.597656 17.398438 M 9.597656 16.800781 C 8.9375 16.800781 8.398438 17.335938 8.398438 18 C 8.398438 18.664062 8.9375 19.199219 9.597656 19.199219 C 10.261719 19.199219 10.800781 18.664062 10.800781 18 C 10.800781 17.335938 10.261719 16.800781 9.597656 16.800781 Z M 9.597656 16.800781 "/>
<path style=" stroke:none;fill-rule:nonzero;fill:rgb(69.01961%,75.686276%,83.137256%);fill-opacity:1;" d="M 3.300781 23.101562 L 3.300781 22.199219 C 3.300781 21.371094 3.972656 20.699219 4.800781 20.699219 L 19.199219 20.699219 C 20.027344 20.699219 20.699219 21.371094 20.699219 22.199219 L 20.699219 23.101562 Z M 3.300781 23.101562 "/>
<path style=" stroke:none;fill-rule:nonzero;fill:rgb(40.000001%,47.450981%,56.078434%);fill-opacity:1;" d="M 19.199219 21 C 19.863281 21 20.398438 21.539062 20.398438 22.199219 L 20.398438 22.800781 L 3.601562 22.800781 L 3.601562 22.199219 C 3.601562 21.539062 4.136719 21 4.800781 21 L 19.199219 21 M 19.199219 20.398438 L 4.800781 20.398438 C 3.808594 20.398438 3 21.210938 3 22.199219 L 3 23.398438 L 21 23.398438 L 21 22.199219 C 21 21.210938 20.191406 20.398438 19.199219 20.398438 Z M 19.199219 20.398438 "/>
</g>
</g>
</svg>
