<?xml version="1.0" encoding="UTF-8"?>
<svg xmlns="http://www.w3.org/2000/svg" xmlns:xlink="http://www.w3.org/1999/xlink" width="32" height="32" viewBox="0 0 32 32" version="1.1">
<g transform="scale(1.33333333)">
<g id="surface1127">
<path style=" stroke:none;fill-rule:nonzero;fill:rgb(88.235295%,92.156863%,94.901961%);fill-opacity:1;" d="M 1.5 1.5 L 22.5 1.5 L 22.5 22.5 L 1.5 22.5 Z M 1.5 1.5 "/>
<path style=" stroke:none;fill-rule:nonzero;fill:rgb(40.000001%,47.450981%,56.078434%);fill-opacity:1;" d="M 22.199219 1.800781 L 22.199219 22.199219 L 1.800781 22.199219 L 1.800781 1.800781 L 22.199219 1.800781 M 22.800781 1.199219 L 1.199219 1.199219 L 1.199219 22.800781 L 22.800781 22.800781 Z M 22.800781 1.199219 "/>
<path style=" stroke:none;fill-rule:nonzero;fill:rgb(40.000001%,47.450981%,56.078434%);fill-opacity:1;" d="M 18.601562 15.601562 L 5.398438 15.601562 L 5.398438 7.199219 L 18.601562 7.199219 Z M 18.601562 15.601562 "/>
<path style=" stroke:none;fill-rule:nonzero;fill:rgb(40.000001%,47.450981%,56.078434%);fill-opacity:1;" d="M 16.199219 18 L 7.800781 18 L 7.800781 13.800781 L 16.199219 13.800781 Z M 16.199219 18 "/>
<path style=" stroke:none;fill-rule:nonzero;fill:rgb(100%,93.333334%,63.921571%);fill-opacity:1;" d="M 15 7.800781 L 15.601562 7.800781 L 15.601562 9.601562 L 15 9.601562 Z M 16.800781 7.800781 L 17.398438 7.800781 L 17.398438 9.601562 L 16.800781 9.601562 Z M 6.601562 7.800781 L 7.199219 7.800781 L 7.199219 9.601562 L 6.601562 9.601562 Z M 13.199219 7.800781 L 13.800781 7.800781 L 13.800781 9.601562 L 13.199219 9.601562 Z M 10.199219 7.800781 L 10.800781 7.800781 L 10.800781 9.601562 L 10.199219 9.601562 Z M 8.398438 7.800781 L 9 7.800781 L 9 9.601562 L 8.398438 9.601562 Z M 8.398438 7.800781 "/>
</g>
</g>
</svg>
