<?xml version="1.0" encoding="UTF-8"?>
<svg xmlns="http://www.w3.org/2000/svg" xmlns:xlink="http://www.w3.org/1999/xlink" width="32" height="32" viewBox="0 0 32 32" version="1.1">
<g transform="scale(1.33333333)">
<g id="surface1169">
<path style=" stroke:none;fill-rule:nonzero;fill:rgb(69.01961%,75.686276%,83.137256%);fill-opacity:1;" d="M 9.898438 16.5 L 14.101562 16.5 L 14.101562 20.101562 L 9.898438 20.101562 Z M 9.898438 16.5 "/>
<path style=" stroke:none;fill-rule:nonzero;fill:rgb(40.000001%,47.450981%,56.078434%);fill-opacity:1;" d="M 13.800781 16.800781 L 13.800781 19.800781 L 10.199219 19.800781 L 10.199219 16.800781 L 13.800781 16.800781 M 14.398438 16.199219 L 9.601562 16.199219 L 9.601562 20.398438 L 14.398438 20.398438 Z M 14.398438 16.199219 "/>
<path style=" stroke:none;fill-rule:nonzero;fill:rgb(85.09804%,94.901961%,100%);fill-opacity:1;" d="M 0.898438 2.101562 L 23.101562 2.101562 L 23.101562 17.699219 L 0.898438 17.699219 Z M 0.898438 2.101562 "/>
<path style=" stroke:none;fill-rule:nonzero;fill:rgb(40.000001%,47.450981%,56.078434%);fill-opacity:1;" d="M 22.800781 2.398438 L 22.800781 17.398438 L 1.199219 17.398438 L 1.199219 2.398438 L 22.800781 2.398438 M 23.398438 1.800781 L 0.601562 1.800781 L 0.601562 18 L 23.398438 18 Z M 23.398438 1.800781 "/>
<path style=" stroke:none;fill-rule:nonzero;fill:rgb(40.000001%,47.450981%,56.078434%);fill-opacity:1;" d="M 0.601562 15 L 23.398438 15 L 23.398438 18 L 0.601562 18 Z M 18.601562 21.601562 L 5.398438 21.601562 C 5.398438 20.605469 6.207031 19.800781 7.199219 19.800781 L 16.800781 19.800781 C 17.792969 19.800781 18.601562 20.605469 18.601562 21.601562 Z M 18.601562 21.601562 "/>
<path style=" stroke:none;fill-rule:nonzero;fill:rgb(100%,93.333334%,63.921571%);fill-opacity:1;" d="M 20.398438 16.199219 L 22.199219 16.199219 L 22.199219 16.800781 L 20.398438 16.800781 Z M 20.398438 16.199219 "/>
<path style="fill:none;stroke-width:1;stroke-linecap:butt;stroke-linejoin:miter;stroke:rgb(30.588236%,47.843137%,70.980394%);stroke-opacity:1;stroke-miterlimit:10;" d="M 1.998698 14.498698 L 13.001302 14.498698 L 16.497396 8.001302 L 22.5 21.002604 L 26.002604 14.498698 L 38.001302 14.498698 " transform="matrix(0.6,0,0,0.6,0,0)"/>
</g>
</g>
</svg>
