<?xml version="1.0" encoding="UTF-8"?>
<svg xmlns="http://www.w3.org/2000/svg" xmlns:xlink="http://www.w3.org/1999/xlink" width="32" height="32" viewBox="0 0 32 32" version="1.1">
<g transform="scale(1.33333333)">
<g id="surface1235">
<path style=" stroke:none;fill-rule:nonzero;fill:rgb(100%,93.333334%,63.921571%);fill-opacity:1;" d="M 2.699219 3.898438 L 21.300781 3.898438 L 21.300781 5.101562 L 2.699219 5.101562 Z M 2.699219 3.898438 "/>
<path style=" stroke:none;fill-rule:nonzero;fill:rgb(96.078432%,76.078433%,46.27451%);fill-opacity:1;" d="M 21 4.199219 L 21 4.800781 L 3 4.800781 L 3 4.199219 L 21 4.199219 M 21.601562 3.601562 L 2.398438 3.601562 L 2.398438 5.398438 L 21.601562 5.398438 Z M 21.601562 3.601562 "/>
<path style=" stroke:none;fill-rule:nonzero;fill:rgb(100%,93.333334%,63.921571%);fill-opacity:1;" d="M 2.699219 6.300781 L 21.300781 6.300781 L 21.300781 7.5 L 2.699219 7.5 Z M 2.699219 6.300781 "/>
<path style=" stroke:none;fill-rule:nonzero;fill:rgb(96.078432%,76.078433%,46.27451%);fill-opacity:1;" d="M 21 6.601562 L 21 7.199219 L 3 7.199219 L 3 6.601562 L 21 6.601562 M 21.601562 6 L 2.398438 6 L 2.398438 7.800781 L 21.601562 7.800781 Z M 21.601562 6 "/>
<path style=" stroke:none;fill-rule:nonzero;fill:rgb(100%,93.333334%,63.921571%);fill-opacity:1;" d="M 2.699219 8.699219 L 21.300781 8.699219 L 21.300781 9.898438 L 2.699219 9.898438 Z M 2.699219 8.699219 "/>
<path style=" stroke:none;fill-rule:nonzero;fill:rgb(96.078432%,76.078433%,46.27451%);fill-opacity:1;" d="M 21 9 L 21 9.601562 L 3 9.601562 L 3 9 L 21 9 M 21.601562 8.398438 L 2.398438 8.398438 L 2.398438 10.199219 L 21.601562 10.199219 Z M 21.601562 8.398438 "/>
<path style=" stroke:none;fill-rule:nonzero;fill:rgb(100%,93.333334%,63.921571%);fill-opacity:1;" d="M 2.699219 11.101562 L 21.300781 11.101562 L 21.300781 12.300781 L 2.699219 12.300781 Z M 2.699219 11.101562 "/>
<path style=" stroke:none;fill-rule:nonzero;fill:rgb(96.078432%,76.078433%,46.27451%);fill-opacity:1;" d="M 21 11.398438 L 21 12 L 3 12 L 3 11.398438 L 21 11.398438 M 21.601562 10.800781 L 2.398438 10.800781 L 2.398438 12.601562 L 21.601562 12.601562 Z M 21.601562 10.800781 "/>
<path style=" stroke:none;fill-rule:nonzero;fill:rgb(100%,93.333334%,63.921571%);fill-opacity:1;" d="M 2.699219 13.5 L 21.300781 13.5 L 21.300781 14.699219 L 2.699219 14.699219 Z M 2.699219 13.5 "/>
<path style=" stroke:none;fill-rule:nonzero;fill:rgb(96.078432%,76.078433%,46.27451%);fill-opacity:1;" d="M 21 13.800781 L 21 14.398438 L 3 14.398438 L 3 13.800781 L 21 13.800781 M 21.601562 13.199219 L 2.398438 13.199219 L 2.398438 15 L 21.601562 15 Z M 21.601562 13.199219 "/>
<path style=" stroke:none;fill-rule:nonzero;fill:rgb(100%,93.333334%,63.921571%);fill-opacity:1;" d="M 2.699219 15.898438 L 21.300781 15.898438 L 21.300781 17.101562 L 2.699219 17.101562 Z M 2.699219 15.898438 "/>
<path style=" stroke:none;fill-rule:nonzero;fill:rgb(96.078432%,76.078433%,46.27451%);fill-opacity:1;" d="M 21 16.199219 L 21 16.800781 L 3 16.800781 L 3 16.199219 L 21 16.199219 M 21.601562 15.601562 L 2.398438 15.601562 L 2.398438 17.398438 L 21.601562 17.398438 Z M 21.601562 15.601562 "/>
<path style=" stroke:none;fill-rule:nonzero;fill:rgb(100%,93.333334%,63.921571%);fill-opacity:1;" d="M 2.699219 18.300781 L 21.300781 18.300781 L 21.300781 19.5 L 2.699219 19.5 Z M 2.699219 18.300781 "/>
<path style=" stroke:none;fill-rule:nonzero;fill:rgb(96.078432%,76.078433%,46.27451%);fill-opacity:1;" d="M 21 18.601562 L 21 19.199219 L 3 19.199219 L 3 18.601562 L 21 18.601562 M 21.601562 18 L 2.398438 18 L 2.398438 19.800781 L 21.601562 19.800781 Z M 21.601562 18 "/>
<path style=" stroke:none;fill-rule:nonzero;fill:rgb(60.000002%,78.823531%,61.960787%);fill-opacity:1;" d="M 6 22.5 C 5.503906 22.5 5.101562 22.097656 5.101562 21.601562 L 5.101562 2.398438 C 5.101562 1.902344 5.503906 1.5 6 1.5 L 18 1.5 C 18.496094 1.5 18.898438 1.902344 18.898438 2.398438 L 18.898438 21.601562 C 18.898438 22.097656 18.496094 22.5 18 22.5 Z M 6 22.5 "/>
<path style=" stroke:none;fill-rule:nonzero;fill:rgb(36.862746%,61.176473%,46.27451%);fill-opacity:1;" d="M 18 1.800781 C 18.332031 1.800781 18.601562 2.070312 18.601562 2.398438 L 18.601562 21.601562 C 18.601562 21.929688 18.332031 22.199219 18 22.199219 L 6 22.199219 C 5.667969 22.199219 5.398438 21.929688 5.398438 21.601562 L 5.398438 2.398438 C 5.398438 2.070312 5.667969 1.800781 6 1.800781 L 18 1.800781 M 18 1.199219 L 6 1.199219 C 5.335938 1.199219 4.800781 1.738281 4.800781 2.398438 L 4.800781 21.601562 C 4.800781 22.261719 5.335938 22.800781 6 22.800781 L 18 22.800781 C 18.664062 22.800781 19.199219 22.261719 19.199219 21.601562 L 19.199219 2.398438 C 19.199219 1.738281 18.664062 1.199219 18 1.199219 Z M 18 1.199219 "/>
<path style=" stroke:none;fill-rule:nonzero;fill:rgb(29.411766%,39.215687%,46.666667%);fill-opacity:1;" d="M 8.398438 3.898438 C 7.902344 3.898438 7.5 4.304688 7.5 4.800781 C 7.5 5.296875 7.902344 5.699219 8.398438 5.699219 C 8.898438 5.699219 9.300781 5.296875 9.300781 4.800781 C 9.300781 4.304688 8.898438 3.898438 8.398438 3.898438 Z M 8.398438 3.898438 "/>
<path style=" stroke:none;fill-rule:nonzero;fill:rgb(21.176471%,25.098041%,30.19608%);fill-opacity:1;" d="M 8.398438 4.199219 C 8.730469 4.199219 9 4.46875 9 4.800781 C 9 5.128906 8.730469 5.398438 8.398438 5.398438 C 8.070312 5.398438 7.800781 5.128906 7.800781 4.800781 C 7.800781 4.46875 8.070312 4.199219 8.398438 4.199219 M 8.398438 3.601562 C 7.738281 3.601562 7.199219 4.136719 7.199219 4.800781 C 7.199219 5.464844 7.738281 6 8.398438 6 C 9.0625 6 9.601562 5.464844 9.601562 4.800781 C 9.601562 4.136719 9.0625 3.601562 8.398438 3.601562 Z M 8.398438 3.601562 "/>
</g>
</g>
</svg>
