<?xml version="1.0" encoding="UTF-8"?>
<svg xmlns="http://www.w3.org/2000/svg" xmlns:xlink="http://www.w3.org/1999/xlink" width="32" height="32" viewBox="0 0 32 32" version="1.1">
<g transform="scale(1.33333333)">
<g id="surface1197">
<path style=" stroke:none;fill-rule:nonzero;fill:rgb(71.372551%,78.823531%,83.92157%);fill-opacity:1;" d="M 6.898438 1.5 L 17.101562 1.5 L 17.101562 12.300781 L 6.898438 12.300781 Z M 6.898438 1.5 "/>
<path style=" stroke:none;fill-rule:nonzero;fill:rgb(47.058824%,54.509807%,61.176473%);fill-opacity:1;" d="M 16.800781 1.800781 L 16.800781 12 L 7.199219 12 L 7.199219 1.800781 L 16.800781 1.800781 M 17.398438 1.199219 L 6.601562 1.199219 L 6.601562 12.601562 L 17.398438 12.601562 Z M 17.398438 1.199219 "/>
<path style=" stroke:none;fill-rule:nonzero;fill:rgb(21.176471%,25.098041%,30.19608%);fill-opacity:1;" d="M 8.398438 4.800781 L 10.800781 4.800781 L 10.800781 6.601562 L 8.398438 6.601562 Z M 13.199219 4.800781 L 15.601562 4.800781 L 15.601562 6.601562 L 13.199219 6.601562 Z M 13.199219 4.800781 "/>
<path style=" stroke:none;fill-rule:nonzero;fill:rgb(77.64706%,72.941178%,90.196079%);fill-opacity:1;" d="M 10.5 23.101562 L 10.5 20.699219 L 10.199219 20.699219 C 7.386719 20.699219 5.101562 18.414062 5.101562 15.601562 L 5.101562 10.800781 C 5.101562 9.972656 5.773438 9.300781 6.601562 9.300781 L 17.398438 9.300781 C 18.226562 9.300781 18.898438 9.972656 18.898438 10.800781 L 18.898438 15.601562 C 18.898438 18.414062 16.613281 20.699219 13.800781 20.699219 L 13.5 20.699219 L 13.5 23.101562 Z M 10.5 23.101562 "/>
<path style=" stroke:none;fill-rule:nonzero;fill:rgb(54.509807%,45.882353%,63.137257%);fill-opacity:1;" d="M 17.398438 9.601562 C 18.0625 9.601562 18.601562 10.136719 18.601562 10.800781 L 18.601562 15.601562 C 18.601562 18.246094 16.445312 20.398438 13.800781 20.398438 L 13.199219 20.398438 L 13.199219 22.800781 L 10.800781 22.800781 L 10.800781 20.398438 L 10.199219 20.398438 C 7.554688 20.398438 5.398438 18.246094 5.398438 15.601562 L 5.398438 10.800781 C 5.398438 10.136719 5.9375 9.601562 6.601562 9.601562 L 17.398438 9.601562 M 17.398438 9 L 6.601562 9 C 5.605469 9 4.800781 9.804688 4.800781 10.800781 L 4.800781 15.601562 C 4.800781 18.582031 7.21875 21 10.199219 21 L 10.199219 23.398438 L 13.800781 23.398438 L 13.800781 21 C 16.78125 21 19.199219 18.582031 19.199219 15.601562 L 19.199219 10.800781 C 19.199219 9.804688 18.394531 9 17.398438 9 Z M 17.398438 9 "/>
</g>
</g>
</svg>
