<?xml version="1.0" encoding="UTF-8"?>
<svg xmlns="http://www.w3.org/2000/svg" xmlns:xlink="http://www.w3.org/1999/xlink" width="16" height="16" viewBox="0 0 16 16" version="1.1">
<g transform="scale(1.33333333)">
<g id="surface2006">
<path style=" stroke:none;fill-rule:nonzero;fill:rgb(65.882355%,87.058824%,100%);fill-opacity:1;" d="M 3.75 7.125 C 3.523438 7.125 3.375 6.976562 3.375 6.75 L 3.375 1.5 C 3.375 1.273438 3.523438 1.125 3.75 1.125 L 10.5 1.125 C 10.726562 1.125 10.875 1.273438 10.875 1.5 L 10.875 6.75 C 10.875 6.976562 10.726562 7.125 10.5 7.125 Z M 3.75 7.125 "/>
<path style=" stroke:none;fill-rule:nonzero;fill:rgb(47.058824%,54.509807%,61.176473%);fill-opacity:1;" d="M 10.5 1.5 L 10.5 6.75 L 3.75 6.75 L 3.75 1.5 L 10.5 1.5 M 10.5 0.75 L 3.75 0.75 C 3.300781 0.75 3 1.050781 3 1.5 L 3 6.75 C 3 7.199219 3.300781 7.5 3.75 7.5 L 10.5 7.5 C 10.949219 7.5 11.25 7.199219 11.25 6.75 L 11.25 1.5 C 11.25 1.050781 10.949219 0.75 10.5 0.75 Z M 10.5 0.75 "/>
<path style=" stroke:none;fill-rule:nonzero;fill:rgb(47.058824%,54.509807%,61.176473%);fill-opacity:1;" d="M 6.75 6.75 L 12 6.75 L 12 7.5 L 6.75 7.5 Z M 6.75 6.75 "/>
<path style=" stroke:none;fill-rule:nonzero;fill:rgb(94.901961%,98.039216%,100%);fill-opacity:1;" d="M 2.25 10.125 C 2.023438 10.125 1.875 9.976562 1.875 9.75 L 1.875 3.75 C 1.875 3.523438 2.023438 3.375 2.25 3.375 L 6.75 3.375 C 6.976562 3.375 7.125 3.523438 7.125 3.75 L 7.125 9.75 C 7.125 9.976562 6.976562 10.125 6.75 10.125 Z M 2.25 10.125 "/>
<path style=" stroke:none;fill-rule:nonzero;fill:rgb(54.509807%,45.882353%,63.137257%);fill-opacity:1;" d="M 6.75 3.75 L 6.75 9.75 L 2.25 9.75 L 2.25 3.75 L 6.75 3.75 M 6.75 3 L 2.25 3 C 1.800781 3 1.5 3.300781 1.5 3.75 L 1.5 9.75 C 1.5 10.199219 1.800781 10.5 2.25 10.5 L 6.75 10.5 C 7.199219 10.5 7.5 10.199219 7.5 9.75 L 7.5 3.75 C 7.5 3.300781 7.199219 3 6.75 3 Z M 6.75 3 "/>
<path style=" stroke:none;fill-rule:nonzero;fill:rgb(94.901961%,98.039216%,100%);fill-opacity:1;" d="M 0.75 11.625 C 0.523438 11.625 0.375 11.476562 0.375 11.25 L 0.375 6.75 C 0.375 6.523438 0.523438 6.375 0.75 6.375 L 3 6.375 C 3.226562 6.375 3.375 6.523438 3.375 6.75 L 3.375 11.25 C 3.375 11.476562 3.226562 11.625 3 11.625 Z M 0.75 11.625 "/>
<path style=" stroke:none;fill-rule:nonzero;fill:rgb(63.137257%,41.568628%,29.019609%);fill-opacity:1;" d="M 3 6.75 L 3 11.25 L 0.75 11.25 L 0.75 6.75 L 3 6.75 M 3 6 L 0.75 6 C 0.300781 6 0 6.300781 0 6.75 L 0 11.25 C 0 11.699219 0.300781 12 0.75 12 L 3 12 C 3.449219 12 3.75 11.699219 3.75 11.25 L 3.75 6.75 C 3.75 6.300781 3.449219 6 3 6 Z M 3 6 "/>
</g>
</g>
</svg>
