<?xml version="1.0" encoding="UTF-8"?>
<svg xmlns="http://www.w3.org/2000/svg" xmlns:xlink="http://www.w3.org/1999/xlink" width="16" height="16" viewBox="0 0 16 16" version="1.1">
<g transform="scale(1.33333333)">
<g id="surface2029">
<path style=" stroke:none;fill-rule:nonzero;fill:rgb(30.588236%,47.843137%,70.980394%);fill-opacity:1;" d="M 7.34375 7.558594 L 7.308594 7.558594 C 6.953125 8.714844 6.253906 9.296875 5.210938 9.296875 C 4.542969 9.296875 4.003906 9.050781 3.597656 8.558594 C 3.191406 8.066406 2.988281 7.402344 2.988281 6.570312 C 2.988281 5.46875 3.269531 4.554688 3.832031 3.828125 C 4.394531 3.097656 5.132812 2.734375 6.050781 2.734375 C 6.402344 2.734375 6.714844 2.824219 6.988281 3.003906 C 7.265625 3.183594 7.441406 3.410156 7.519531 3.683594 L 7.546875 3.683594 C 7.558594 3.546875 7.582031 3.269531 7.621094 2.84375 L 8.535156 2.84375 C 8.304688 5.527344 8.191406 6.894531 8.191406 6.945312 C 8.191406 7.953125 8.480469 8.457031 9.058594 8.457031 C 9.585938 8.457031 10.023438 8.171875 10.371094 7.601562 C 10.71875 7.03125 10.894531 6.292969 10.894531 5.386719 C 10.894531 4.046875 10.472656 2.953125 9.625 2.105469 C 8.777344 1.257812 7.601562 0.835938 6.101562 0.835938 C 4.652344 0.835938 3.457031 1.339844 2.511719 2.355469 C 1.566406 3.367188 1.09375 4.636719 1.09375 6.15625 C 1.09375 7.652344 1.542969 8.859375 2.445312 9.777344 C 3.34375 10.695312 4.554688 11.152344 6.078125 11.152344 C 7.28125 11.152344 8.3125 10.953125 9.164062 10.554688 L 9.164062 11.460938 C 8.320312 11.820312 7.269531 12 6.007812 12 C 4.234375 12 2.804688 11.464844 1.722656 10.394531 C 0.636719 9.328125 0.09375 7.925781 0.09375 6.195312 C 0.09375 4.414062 0.664062 2.933594 1.800781 1.761719 C 2.9375 0.585938 4.390625 0 6.160156 0 C 7.816406 0 9.1875 0.492188 10.273438 1.476562 C 11.359375 2.460938 11.90625 3.742188 11.90625 5.328125 C 11.90625 6.488281 11.617188 7.4375 11.046875 8.179688 C 10.472656 8.925781 9.777344 9.296875 8.953125 9.296875 C 7.886719 9.296875 7.347656 8.714844 7.34375 7.558594 Z M 6.035156 3.582031 C 5.433594 3.582031 4.945312 3.871094 4.570312 4.445312 C 4.199219 5.019531 4.011719 5.730469 4.011719 6.585938 C 4.011719 7.160156 4.136719 7.613281 4.390625 7.945312 C 4.640625 8.277344 4.976562 8.441406 5.394531 8.441406 C 5.996094 8.441406 6.476562 8.140625 6.832031 7.539062 C 7.183594 6.9375 7.359375 6.140625 7.359375 5.144531 C 7.359375 4.101562 6.917969 3.582031 6.035156 3.582031 Z M 6.035156 3.582031 "/>
</g>
</g>
</svg>
