<?xml version="1.0" encoding="UTF-8"?>
<svg xmlns="http://www.w3.org/2000/svg" xmlns:xlink="http://www.w3.org/1999/xlink" width="16" height="16" viewBox="0 0 16 16" version="1.1">
<g transform="scale(1.33333333)">
<g id="surface1976">
<path style=" stroke:none;fill-rule:nonzero;fill:rgb(96.078432%,80.784315%,52.156866%);fill-opacity:1;" d="M 1.050781 10.273438 L 1.425781 9.148438 L 4.949219 5.625 L 6.375 7.050781 L 4.726562 8.699219 L 3.449219 8.699219 L 3.449219 9.976562 L 2.851562 10.574219 L 1.726562 10.949219 Z M 1.050781 10.273438 "/>
<path style=" stroke:none;fill-rule:nonzero;fill:rgb(58.823532%,47.843137%,26.666668%);fill-opacity:1;" d="M 4.949219 6.074219 L 6 7.125 L 4.648438 8.476562 L 3.226562 8.476562 L 3.226562 9.824219 L 2.773438 10.273438 L 1.800781 10.574219 L 1.425781 10.199219 L 1.726562 9.226562 L 4.949219 6.074219 M 4.949219 5.25 L 1.199219 9 L 0.75 10.351562 L 1.648438 11.25 L 3 10.800781 L 3.75 10.050781 L 3.75 9 L 4.800781 9 L 6.75 7.050781 Z M 4.949219 5.25 "/>
<path style=" stroke:none;fill-rule:nonzero;fill:rgb(58.823532%,47.843137%,26.666668%);fill-opacity:1;" d="M 5.941406 7.898438 L 6.472656 7.371094 L 6.523438 7.421875 L 5.992188 7.953125 Z M 5.941406 7.898438 "/>
<path style=" stroke:none;fill-rule:nonzero;fill:rgb(58.823532%,47.843137%,26.666668%);fill-opacity:1;" d="M 7.875 1.5 C 8.550781 1.5 9.226562 1.800781 9.75 2.25 C 10.273438 2.773438 10.5 3.375 10.5 4.125 C 10.5 4.875 10.199219 5.476562 9.75 6 C 9.226562 6.523438 8.625 6.75 7.875 6.75 C 7.125 6.75 6.523438 6.449219 6 6 C 5.476562 5.550781 5.25 4.800781 5.25 4.125 C 5.25 3.449219 5.550781 2.773438 6 2.25 C 6.449219 1.726562 7.199219 1.5 7.875 1.5 M 7.875 0.75 C 6.976562 0.75 6.148438 1.050781 5.476562 1.726562 C 4.125 3.074219 4.125 5.175781 5.476562 6.523438 C 6.148438 7.199219 6.976562 7.5 7.875 7.5 C 8.773438 7.5 9.601562 7.199219 10.273438 6.523438 C 11.625 5.175781 11.625 3.074219 10.273438 1.726562 C 9.601562 1.050781 8.773438 0.75 7.875 0.75 Z M 7.875 0.75 "/>
<path style=" stroke:none;fill-rule:nonzero;fill:rgb(96.078432%,80.784315%,52.156866%);fill-opacity:1;" d="M 6.074219 7.875 C 5.925781 7.875 5.851562 7.800781 5.773438 7.726562 L 4.273438 6.226562 C 4.125 6.148438 4.125 6 4.125 5.925781 C 4.125 5.851562 4.199219 5.699219 4.273438 5.625 L 4.949219 4.949219 L 4.949219 4.800781 C 4.648438 3.75 4.949219 2.699219 5.699219 1.949219 C 5.851562 1.800781 6 1.648438 6.226562 1.5 L 10.5 5.773438 C 10.351562 6 10.199219 6.148438 10.050781 6.300781 C 9.449219 6.898438 8.699219 7.199219 7.875 7.199219 C 7.648438 7.199219 7.425781 7.199219 7.199219 7.125 L 7.050781 7.125 L 6.375 7.800781 C 6.375 7.875 6.226562 7.875 6.074219 7.875 Z M 6.074219 7.875 "/>
<path style=" stroke:none;fill-rule:nonzero;fill:rgb(58.823532%,47.843137%,26.666668%);fill-opacity:1;" d="M 6.226562 1.875 L 10.125 5.773438 C 10.050781 5.925781 9.976562 6 9.898438 6.074219 C 9.375 6.601562 8.699219 6.898438 7.949219 6.898438 C 7.726562 6.898438 7.574219 6.898438 7.351562 6.824219 L 6.976562 6.824219 L 6.226562 7.574219 C 6.148438 7.648438 6.148438 7.648438 6.074219 7.648438 C 6 7.648438 6 7.574219 6 7.574219 L 4.5 6.074219 C 4.425781 6 4.425781 5.851562 4.5 5.773438 L 4.949219 5.25 L 5.175781 5.023438 L 5.101562 4.726562 C 4.949219 3.75 5.175781 2.773438 5.851562 2.101562 C 6 2.023438 6.074219 1.949219 6.226562 1.875 M 6.300781 1.199219 C 6 1.351562 5.699219 1.5 5.476562 1.726562 C 4.648438 2.550781 4.351562 3.75 4.574219 4.800781 L 4.050781 5.398438 C 3.75 5.625 3.75 6.148438 4.050781 6.449219 L 5.550781 7.949219 C 5.699219 8.101562 5.925781 8.175781 6.074219 8.175781 C 6.300781 8.175781 6.449219 8.101562 6.601562 7.949219 L 7.125 7.425781 C 7.351562 7.5 7.574219 7.5 7.875 7.5 C 8.699219 7.5 9.601562 7.199219 10.273438 6.523438 C 10.5 6.300781 10.648438 6 10.800781 5.699219 Z M 6.300781 1.199219 "/>
</g>
</g>
</svg>
