<?xml version="1.0" encoding="UTF-8"?>
<svg xmlns="http://www.w3.org/2000/svg" xmlns:xlink="http://www.w3.org/1999/xlink" width="16" height="16" viewBox="0 0 16 16" version="1.1">
<g transform="scale(1.33333333)">
<g id="surface2049">
<path style=" stroke:none;fill-rule:nonzero;fill:rgb(54.509807%,71.764708%,94.117647%);fill-opacity:1;" d="M 1.054688 9.375 C 0.679688 9.375 0.375 9.082031 0.375 8.71875 L 0.375 2.53125 C 0.375 2.167969 0.679688 1.875 1.054688 1.875 L 10.195312 1.875 C 10.570312 1.875 10.875 2.167969 10.875 2.53125 L 10.875 8.71875 C 10.875 9.082031 10.570312 9.375 10.195312 9.375 Z M 1.054688 9.375 "/>
<path style=" stroke:none;fill-rule:nonzero;fill:rgb(30.588236%,47.843137%,70.980394%);fill-opacity:1;" d="M 10.195312 2.25 C 10.363281 2.25 10.5 2.375 10.5 2.53125 L 10.5 8.71875 C 10.5 8.875 10.363281 9 10.195312 9 L 1.054688 9 C 0.886719 9 0.75 8.875 0.75 8.71875 L 0.75 2.53125 C 0.75 2.375 0.886719 2.25 1.054688 2.25 L 10.195312 2.25 M 10.195312 1.5 L 1.054688 1.5 C 0.472656 1.5 0 1.960938 0 2.53125 L 0 8.71875 C 0 9.289062 0.472656 9.75 1.054688 9.75 L 10.195312 9.75 C 10.777344 9.75 11.25 9.289062 11.25 8.71875 L 11.25 2.53125 C 11.25 1.960938 10.777344 1.5 10.195312 1.5 Z M 10.195312 1.5 "/>
<path style=" stroke:none;fill-rule:nonzero;fill:rgb(88.235295%,92.156863%,94.901961%);fill-opacity:1;" d="M 1.875 3.375 L 4.125 3.375 L 4.125 4.875 L 1.875 4.875 Z M 1.875 3.375 "/>
<path style=" stroke:none;fill-rule:nonzero;fill:rgb(30.588236%,47.843137%,70.980394%);fill-opacity:1;" d="M 3.75 3.75 L 3.75 4.5 L 2.25 4.5 L 2.25 3.75 L 3.75 3.75 M 4.5 3 L 1.5 3 L 1.5 5.25 L 4.5 5.25 Z M 4.5 3 "/>
<path style=" stroke:none;fill-rule:nonzero;fill:rgb(88.235295%,92.156863%,94.901961%);fill-opacity:1;" d="M 1.5 6 L 3 6 L 3 6.75 L 1.5 6.75 Z M 3.75 6 L 5.25 6 L 5.25 6.75 L 3.75 6.75 Z M 5.25 3 L 9.75 3 L 9.75 4.5 L 5.25 4.5 Z M 1.5 7.5 L 6 7.5 L 6 8.25 L 1.5 8.25 Z M 1.5 7.5 "/>
<path style=" stroke:none;fill-rule:nonzero;fill:rgb(100%,93.333334%,63.921571%);fill-opacity:1;" d="M 8.625 11.605469 C 8.09375 11.410156 5.738281 10.339844 5.628906 6.523438 L 8.625 5.640625 L 11.621094 6.523438 C 11.511719 10.351562 9.15625 11.414062 8.625 11.605469 Z M 8.625 11.605469 "/>
<path style=" stroke:none;fill-rule:nonzero;fill:rgb(72.941178%,60.784316%,28.235295%);fill-opacity:1;" d="M 8.625 6.03125 L 11.234375 6.800781 C 11.039062 9.910156 9.242188 10.941406 8.628906 11.203125 C 8.007812 10.933594 6.210938 9.894531 6.015625 6.800781 L 8.625 6.03125 M 8.625 5.25 L 5.25 6.246094 C 5.25 11.054688 8.625 12 8.625 12 C 8.625 12 12 11.070312 12 6.246094 Z M 8.625 5.25 "/>
<path style=" stroke:none;fill-rule:nonzero;fill:rgb(100%,76.862746%,61.176473%);fill-opacity:1;" d="M 8.628906 10.367188 C 8.058594 10.035156 7.101562 9.210938 6.828125 7.34375 L 8.625 6.8125 L 10.425781 7.34375 C 10.148438 9.222656 9.191406 10.039062 8.628906 10.367188 Z M 8.628906 10.367188 "/>
</g>
</g>
</svg>
