<?xml version="1.0" encoding="UTF-8"?>
<svg xmlns="http://www.w3.org/2000/svg" xmlns:xlink="http://www.w3.org/1999/xlink" width="16" height="16" viewBox="0 0 16 16" version="1.1">
<g transform="scale(1.33333333)">
<g id="surface2079">
<path style=" stroke:none;fill-rule:nonzero;fill:rgb(83.92157%,89.019608%,92.941177%);fill-opacity:1;" d="M 1.125 10.125 C 0.710938 10.125 0.375 9.789062 0.375 9.375 L 0.375 2.625 C 0.375 2.210938 0.710938 1.875 1.125 1.875 L 10.875 1.875 C 11.289062 1.875 11.625 2.210938 11.625 2.625 L 11.625 9.375 C 11.625 9.789062 11.289062 10.125 10.875 10.125 Z M 1.125 10.125 "/>
<path style=" stroke:none;fill-rule:nonzero;fill:rgb(47.058824%,54.509807%,61.176473%);fill-opacity:1;" d="M 10.875 2.25 C 11.082031 2.25 11.25 2.417969 11.25 2.625 L 11.25 9.375 C 11.25 9.582031 11.082031 9.75 10.875 9.75 L 1.125 9.75 C 0.917969 9.75 0.75 9.582031 0.75 9.375 L 0.75 2.625 C 0.75 2.417969 0.917969 2.25 1.125 2.25 L 10.875 2.25 M 10.875 1.5 L 1.125 1.5 C 0.503906 1.5 0 2.003906 0 2.625 L 0 9.375 C 0 9.996094 0.503906 10.5 1.125 10.5 L 10.875 10.5 C 11.496094 10.5 12 9.996094 12 9.375 L 12 2.625 C 12 2.003906 11.496094 1.5 10.875 1.5 Z M 10.875 1.5 "/>
<path style="fill:none;stroke-width:1;stroke-linecap:butt;stroke-linejoin:miter;stroke:rgb(47.058824%,54.509807%,61.176473%);stroke-opacity:1;stroke-miterlimit:10;" d="M 14 6.5 L 10 6.5 M 14 8.5 L 10 8.5 M 14 10.5 L 10 10.5 " transform="matrix(0.75,0,0,0.75,0,0)"/>
<path style=" stroke:none;fill-rule:nonzero;fill:rgb(100%,93.333334%,63.921571%);fill-opacity:1;" d="M 3.75 3.375 C 3.128906 3.375 2.625 3.878906 2.625 4.5 C 2.625 5.121094 3.128906 5.625 3.75 5.625 C 4.371094 5.625 4.875 5.121094 4.875 4.5 C 4.875 3.878906 4.371094 3.375 3.75 3.375 Z M 3.75 3.375 "/>
<path style=" stroke:none;fill-rule:nonzero;fill:rgb(72.941178%,60.784316%,28.235295%);fill-opacity:1;" d="M 3.75 3.75 C 4.164062 3.75 4.5 4.085938 4.5 4.5 C 4.5 4.914062 4.164062 5.25 3.75 5.25 C 3.335938 5.25 3 4.914062 3 4.5 C 3 4.085938 3.335938 3.75 3.75 3.75 M 3.75 3 C 2.921875 3 2.25 3.671875 2.25 4.5 C 2.25 5.328125 2.921875 6 3.75 6 C 4.578125 6 5.25 5.328125 5.25 4.5 C 5.25 3.671875 4.578125 3 3.75 3 Z M 3.75 3 "/>
<path style=" stroke:none;fill-rule:nonzero;fill:rgb(76.078433%,90.980393%,100%);fill-opacity:1;" d="M 1.914062 8.625 C 2.085938 7.769531 2.84375 7.125 3.75 7.125 C 4.65625 7.125 5.414062 7.769531 5.585938 8.625 Z M 1.914062 8.625 "/>
<path style=" stroke:none;fill-rule:nonzero;fill:rgb(45.490196%,58.823532%,76.862746%);fill-opacity:1;" d="M 3.75 7.5 C 4.304688 7.5 4.789062 7.800781 5.050781 8.25 L 2.449219 8.25 C 2.710938 7.800781 3.195312 7.5 3.75 7.5 M 3.75 6.75 C 2.507812 6.75 1.5 7.757812 1.5 9 L 6 9 C 6 7.757812 4.992188 6.75 3.75 6.75 Z M 3.75 6.75 "/>
</g>
</g>
</svg>
