<?xml version="1.0" encoding="UTF-8"?>
<svg xmlns="http://www.w3.org/2000/svg" xmlns:xlink="http://www.w3.org/1999/xlink" width="16" height="16" viewBox="0 0 16 16" version="1.1">
<g transform="scale(1.33333333)">
<g id="surface2111">
<path style=" stroke:none;fill-rule:nonzero;fill:rgb(69.01961%,75.686276%,83.137256%);fill-opacity:1;" d="M 4.875 8.625 L 7.125 8.625 L 7.125 10.875 L 4.875 10.875 Z M 4.875 8.625 "/>
<path style=" stroke:none;fill-rule:nonzero;fill:rgb(40.000001%,47.450981%,56.078434%);fill-opacity:1;" d="M 6.75 9 L 6.75 10.5 L 5.25 10.5 L 5.25 9 L 6.75 9 M 7.5 8.25 L 4.5 8.25 L 4.5 11.25 L 7.5 11.25 Z M 7.5 8.25 "/>
<path style=" stroke:none;fill-rule:nonzero;fill:rgb(72.941178%,87.843138%,74.117649%);fill-opacity:1;" d="M 0.375 1.125 L 11.625 1.125 L 11.625 9.375 L 0.375 9.375 Z M 0.375 1.125 "/>
<path style=" stroke:none;fill-rule:nonzero;fill:rgb(40.000001%,47.450981%,56.078434%);fill-opacity:1;" d="M 11.25 1.5 L 11.25 9 L 0.75 9 L 0.75 1.5 L 11.25 1.5 M 12 0.75 L 0 0.75 L 0 9.75 L 12 9.75 Z M 12 0.75 "/>
<path style=" stroke:none;fill-rule:nonzero;fill:rgb(40.000001%,47.450981%,56.078434%);fill-opacity:1;" d="M 0 8.25 L 12 8.25 L 12 9.75 L 0 9.75 Z M 9 11.25 L 3 11.25 C 3 10.875 3.300781 10.5 3.75 10.5 L 8.25 10.5 C 8.699219 10.5 9 10.800781 9 11.25 Z M 9 11.25 "/>
<path style=" stroke:none;fill-rule:nonzero;fill:rgb(100%,93.333334%,63.921571%);fill-opacity:1;" d="M 9.75 8.25 L 10.5 8.25 L 10.5 9 L 9.75 9 Z M 9.75 8.25 "/>
<path style=" stroke:none;fill-rule:nonzero;fill:rgb(36.862746%,61.176473%,46.27451%);fill-opacity:1;" d="M 5.023438 7.050781 L 3 5.101562 L 3.523438 4.574219 L 5.023438 6 L 8.175781 2.851562 L 8.699219 3.375 Z M 5.023438 7.050781 "/>
</g>
</g>
</svg>
