<?xml version="1.0" encoding="UTF-8"?>
<svg xmlns="http://www.w3.org/2000/svg" xmlns:xlink="http://www.w3.org/1999/xlink" width="30pt" height="30pt" viewBox="0 0 30 30" version="1.1">
<g id="surface45">
<path style=" stroke:none;fill-rule:nonzero;fill:rgb(96.078432%,80.784315%,52.156866%);fill-opacity:1;" d="M 1.148438 28.851562 C 1.785156 25.382812 3.207031 19.144531 4.828125 17.523438 C 5.851562 16.5 7.210938 15.9375 8.65625 15.9375 C 10.101562 15.9375 11.457031 16.5 12.480469 17.523438 C 14.589844 19.632812 14.589844 23.0625 12.480469 25.171875 C 10.855469 26.792969 4.613281 28.214844 1.148438 28.851562 Z M 1.148438 28.851562 "/>
<path style=" stroke:none;fill-rule:nonzero;fill:rgb(58.823532%,47.843137%,26.666668%);fill-opacity:1;" d="M 8.652344 16.875 C 9.847656 16.875 10.96875 17.339844 11.8125 18.183594 C 13.558594 19.925781 13.558594 22.765625 11.8125 24.507812 C 10.675781 25.644531 6.207031 26.886719 2.328125 27.671875 C 3.113281 23.792969 4.355469 19.320312 5.492188 18.183594 C 6.335938 17.339844 7.457031 16.875 8.652344 16.875 M 8.652344 15 C 7.03125 15 5.40625 15.617188 4.167969 16.859375 C 1.6875 19.335938 0 30 0 30 C 0 30 10.664062 28.3125 13.140625 25.832031 C 15.621094 23.355469 15.621094 19.335938 13.140625 16.859375 C 11.902344 15.617188 10.277344 15 8.652344 15 Z M 8.652344 15 "/>
<path style=" stroke:none;fill-rule:nonzero;fill:rgb(100%,76.862746%,61.176473%);fill-opacity:1;" d="M 18.039062 7.558594 L 23.769531 1.355469 L 28.648438 6.234375 L 22.453125 11.976562 Z M 18.039062 7.558594 "/>
<path style=" stroke:none;fill-rule:nonzero;fill:rgb(63.137257%,41.568628%,29.019609%);fill-opacity:1;" d="M 23.796875 2.707031 L 27.296875 6.207031 L 22.476562 10.675781 L 19.335938 7.535156 L 23.796875 2.707031 M 23.742188 0 L 16.738281 7.585938 L 22.429688 13.273438 L 30 6.257812 Z M 23.742188 0 "/>
<path style=" stroke:none;fill-rule:nonzero;fill:rgb(86.274511%,83.529413%,94.901961%);fill-opacity:1;" d="M 10.617188 15.636719 L 18.15625 7.277344 L 22.722656 11.84375 L 14.363281 19.382812 Z M 10.617188 15.636719 "/>
<path style=" stroke:none;fill-rule:nonzero;fill:rgb(54.509807%,45.882353%,63.137257%);fill-opacity:1;" d="M 18.191406 8.636719 L 21.363281 11.808594 L 14.398438 18.089844 L 11.910156 15.601562 L 18.191406 8.636719 M 18.121094 5.914062 L 9.328125 15.667969 L 14.332031 20.671875 L 24.085938 11.878906 Z M 18.121094 5.914062 "/>
</g>
</svg>
