<?xml version="1.0" encoding="UTF-8"?>
<svg xmlns="http://www.w3.org/2000/svg" xmlns:xlink="http://www.w3.org/1999/xlink" width="32" height="32" viewBox="0 0 32 32" version="1.1">
<g transform="scale(1.33333333)">
<g id="surface91">
<path style=" stroke:none;fill-rule:nonzero;fill:rgb(100%,100%,100%);fill-opacity:1;" d="M 0.898438 21.300781 L 0.898438 5.128906 L 23.101562 5.128906 L 23.101562 17.242188 L 17.304688 21.300781 Z M 0.898438 21.300781 "/>
<path style=" stroke:none;fill-rule:nonzero;fill:rgb(47.058824%,54.509807%,61.176473%);fill-opacity:1;" d="M 22.800781 5.429688 L 22.800781 17.085938 L 17.210938 21 L 1.199219 21 L 1.199219 5.429688 L 22.800781 5.429688 M 23.398438 4.828125 L 0.601562 4.828125 L 0.601562 21.601562 L 17.398438 21.601562 L 23.398438 17.398438 Z M 23.398438 4.828125 "/>
<path style=" stroke:none;fill-rule:nonzero;fill:rgb(78.431374%,81.960785%,85.882354%);fill-opacity:1;" d="M 0.898438 5.101562 L 0.898438 3.898438 C 0.898438 3.238281 1.4375 2.699219 2.101562 2.699219 L 21.898438 2.699219 C 22.5625 2.699219 23.101562 3.238281 23.101562 3.898438 L 23.101562 5.101562 Z M 0.898438 5.101562 "/>
<path style=" stroke:none;fill-rule:nonzero;fill:rgb(40.000001%,47.450981%,56.078434%);fill-opacity:1;" d="M 21.898438 3 C 22.394531 3 22.800781 3.402344 22.800781 3.898438 L 22.800781 4.800781 L 1.199219 4.800781 L 1.199219 3.898438 C 1.199219 3.402344 1.605469 3 2.101562 3 L 21.898438 3 M 21.898438 2.398438 L 2.101562 2.398438 C 1.269531 2.398438 0.601562 3.070312 0.601562 3.898438 L 0.601562 5.398438 L 23.398438 5.398438 L 23.398438 3.898438 C 23.398438 3.070312 22.730469 2.398438 21.898438 2.398438 Z M 21.898438 2.398438 "/>
<path style="fill:none;stroke-width:1;stroke-linecap:butt;stroke-linejoin:miter;stroke:rgb(47.058824%,54.509807%,61.176473%);stroke-opacity:1;stroke-miterlimit:10;" d="M 6.998698 16.497396 L 10 16.497396 M 13.001302 16.497396 L 33.001302 16.497396 M 6.998698 20.501302 L 10 20.501302 M 13.001302 20.501302 L 33.001302 20.501302 M 6.998698 24.498698 L 10 24.498698 M 6.998698 28.502604 L 10 28.502604 " transform="matrix(0.6,0,0,0.6,0,0)"/>
<path style=" stroke:none;fill-rule:nonzero;fill:rgb(47.058824%,54.509807%,61.176473%);fill-opacity:1;" d="M 12.789062 16.800781 L 7.800781 16.800781 L 7.800781 17.398438 L 13.085938 17.398438 Z M 14.847656 14.398438 L 7.800781 14.398438 L 7.800781 15 L 14.742188 15 Z M 14.847656 14.398438 "/>
<path style=" stroke:none;fill-rule:nonzero;fill:rgb(83.92157%,89.019608%,92.941177%);fill-opacity:1;" d="M 13.746094 21 L 16.800781 21 L 16.800781 21.601562 L 13.976562 21.601562 Z M 22.800781 18.253906 L 23.398438 17.265625 L 23.398438 15.539062 L 22.800781 15.203125 Z M 22.800781 18.253906 "/>
<path style=" stroke:none;fill-rule:nonzero;fill:rgb(100%,93.333334%,63.921571%);fill-opacity:1;" d="M 17.425781 22.390625 L 15.730469 22.632812 L 15.433594 20.941406 L 13.917969 20.140625 L 14.671875 18.601562 L 13.917969 17.058594 L 15.433594 16.257812 L 15.730469 14.570312 L 17.425781 14.808594 L 18.660156 13.617188 L 19.890625 14.808594 L 21.585938 14.570312 L 21.882812 16.257812 L 23.398438 17.058594 L 22.644531 18.601562 L 23.398438 20.140625 L 21.882812 20.941406 L 21.585938 22.632812 L 19.890625 22.390625 L 18.660156 23.582031 Z M 17.425781 22.390625 "/>
<path style=" stroke:none;fill-rule:nonzero;fill:rgb(72.941178%,60.784316%,28.235295%);fill-opacity:1;" d="M 18.660156 14.035156 L 19.578125 14.921875 L 19.789062 15.125 L 20.078125 15.085938 L 21.34375 14.90625 L 21.5625 16.164062 L 21.613281 16.453125 L 21.871094 16.589844 L 23 17.1875 L 22.4375 18.335938 L 22.3125 18.601562 L 22.441406 18.863281 L 23 20.011719 L 21.871094 20.609375 L 21.613281 20.746094 L 21.5625 21.035156 L 21.34375 22.292969 L 20.078125 22.113281 L 19.789062 22.074219 L 19.578125 22.277344 L 18.660156 23.164062 L 17.742188 22.277344 L 17.53125 22.074219 L 17.242188 22.113281 L 15.976562 22.292969 L 15.753906 21.035156 L 15.703125 20.746094 L 15.445312 20.609375 L 14.316406 20.011719 L 14.878906 18.863281 L 15.007812 18.601562 L 14.878906 18.335938 L 14.316406 17.1875 L 15.445312 16.589844 L 15.703125 16.453125 L 15.753906 16.164062 L 15.976562 14.90625 L 17.238281 15.085938 L 17.53125 15.128906 L 17.738281 14.921875 L 18.660156 14.035156 M 18.660156 13.199219 L 17.324219 14.492188 L 15.484375 14.230469 L 15.164062 16.058594 L 13.523438 16.929688 L 14.339844 18.601562 L 13.523438 20.269531 L 15.164062 21.140625 L 15.484375 22.96875 L 17.324219 22.707031 L 18.660156 24 L 19.992188 22.707031 L 21.832031 22.96875 L 22.152344 21.140625 L 23.792969 20.269531 L 22.980469 18.601562 L 23.792969 16.929688 L 22.152344 16.0625 L 21.832031 14.230469 L 19.992188 14.492188 Z M 18.660156 13.199219 "/>
</g>
</g>
</svg>
