<?xml version="1.0" encoding="UTF-8"?>
<svg xmlns="http://www.w3.org/2000/svg" xmlns:xlink="http://www.w3.org/1999/xlink" width="32" height="32" viewBox="0 0 32 32" version="1.1">
<g transform="scale(1.42222222)">
<g id="surface2439">
<path style=" stroke:none;fill-rule:evenodd;fill:rgb(69.01961%,75.686276%,83.137256%);fill-opacity:1;" d="M 21.175781 12.925781 C 21.175781 12.597656 21.175781 10.503906 21.175781 10.175781 C 21.175781 9.566406 20.683594 9.074219 20.074219 9.074219 C 19.980469 9.074219 19.070312 9.074219 18.972656 9.074219 C 18.367188 9.074219 17.875 9.566406 17.875 10.175781 C 17.875 10.503906 17.875 12.597656 17.875 12.925781 C 17.875 13.53125 18.367188 14.027344 18.972656 14.027344 C 19.070312 14.027344 19.980469 14.027344 20.074219 14.027344 C 20.683594 14.027344 21.175781 13.53125 21.175781 12.925781 Z M 21.175781 12.925781 "/>
<path style=" stroke:none;fill-rule:evenodd;fill:rgb(40.000001%,47.450981%,56.078434%);fill-opacity:1;" d="M 17.597656 12.925781 L 17.597656 10.175781 C 17.597656 9.417969 18.214844 8.800781 18.972656 8.800781 L 20.074219 8.800781 C 20.832031 8.800781 21.449219 9.417969 21.449219 10.175781 L 21.449219 12.925781 C 21.449219 13.683594 20.832031 14.300781 20.074219 14.300781 L 18.972656 14.300781 C 18.214844 14.300781 17.597656 13.683594 17.597656 12.925781 Z M 20.898438 12.925781 L 20.898438 10.175781 C 20.898438 9.71875 20.53125 9.351562 20.074219 9.351562 L 18.972656 9.351562 C 18.519531 9.351562 18.148438 9.71875 18.148438 10.175781 L 18.148438 12.925781 C 18.148438 13.382812 18.519531 13.75 18.972656 13.75 L 20.074219 13.75 C 20.53125 13.75 20.898438 13.382812 20.898438 12.925781 Z M 20.898438 12.925781 "/>
<path style=" stroke:none;fill-rule:evenodd;fill:rgb(69.01961%,75.686276%,83.137256%);fill-opacity:1;" d="M 4.125 12.925781 C 4.125 12.597656 4.125 10.503906 4.125 10.175781 C 4.125 9.566406 3.632812 9.074219 3.023438 9.074219 C 2.929688 9.074219 2.019531 9.074219 1.925781 9.074219 C 1.316406 9.074219 0.824219 9.566406 0.824219 10.175781 C 0.824219 10.503906 0.824219 12.597656 0.824219 12.925781 C 0.824219 13.53125 1.316406 14.027344 1.925781 14.027344 C 2.019531 14.027344 2.929688 14.027344 3.023438 14.027344 C 3.632812 14.027344 4.125 13.53125 4.125 12.925781 Z M 4.125 12.925781 "/>
<path style=" stroke:none;fill-rule:evenodd;fill:rgb(40.000001%,47.450981%,56.078434%);fill-opacity:1;" d="M 0.550781 12.925781 L 0.550781 10.175781 C 0.550781 9.417969 1.164062 8.800781 1.925781 8.800781 L 3.023438 8.800781 C 3.785156 8.800781 4.398438 9.417969 4.398438 10.175781 L 4.398438 12.925781 C 4.398438 13.683594 3.785156 14.300781 3.023438 14.300781 L 1.925781 14.300781 C 1.164062 14.300781 0.550781 13.683594 0.550781 12.925781 Z M 3.847656 12.925781 L 3.847656 10.175781 C 3.847656 9.71875 3.480469 9.351562 3.023438 9.351562 L 1.925781 9.351562 C 1.46875 9.351562 1.097656 9.71875 1.097656 10.175781 L 1.097656 12.925781 C 1.097656 13.382812 1.46875 13.75 1.925781 13.75 L 3.023438 13.75 C 3.480469 13.75 3.847656 13.382812 3.847656 12.925781 Z M 3.847656 12.925781 "/>
<path style=" stroke:none;fill-rule:evenodd;fill:rgb(69.01961%,75.686276%,83.137256%);fill-opacity:1;" d="M 10.179688 2.199219 L 11.820312 2.199219 L 11.820312 6.601562 L 10.179688 6.601562 Z M 10.179688 2.199219 "/>
<path style=" stroke:none;fill-rule:evenodd;fill:rgb(40.000001%,47.450981%,56.078434%);fill-opacity:1;" d="M 9.90625 6.875 L 9.90625 1.925781 L 12.09375 1.925781 L 12.09375 6.875 Z M 11.542969 6.324219 L 11.542969 2.476562 L 10.453125 2.476562 L 10.453125 6.324219 Z M 11.542969 6.324219 "/>
<path style=" stroke:none;fill-rule:evenodd;fill:rgb(69.01961%,75.686276%,83.137256%);fill-opacity:1;" d="M 12.375 2.199219 C 12.375 2.960938 11.757812 3.574219 11 3.574219 C 10.238281 3.574219 9.625 2.960938 9.625 2.199219 C 9.625 1.441406 10.238281 0.824219 11 0.824219 C 11.757812 0.824219 12.375 1.441406 12.375 2.199219 Z M 12.375 2.199219 "/>
<path style=" stroke:none;fill-rule:evenodd;fill:rgb(40.000001%,47.450981%,56.078434%);fill-opacity:1;" d="M 9.347656 2.199219 C 9.347656 1.289062 10.085938 0.550781 11 0.550781 C 11.910156 0.550781 12.648438 1.289062 12.648438 2.199219 C 12.648438 3.113281 11.910156 3.851562 11 3.851562 C 10.085938 3.851562 9.347656 3.113281 9.347656 2.199219 Z M 12.097656 2.199219 C 12.097656 1.59375 11.605469 1.101562 11 1.101562 C 10.390625 1.101562 9.898438 1.59375 9.898438 2.199219 C 9.898438 2.808594 10.390625 3.300781 11 3.300781 C 11.605469 3.300781 12.097656 2.808594 12.097656 2.199219 Z M 12.097656 2.199219 "/>
<path style=" stroke:none;fill-rule:evenodd;fill:rgb(54.509807%,71.764708%,94.117647%);fill-opacity:1;" d="M 5.222656 20.785156 L 5.222656 17.875 L 2.472656 17.875 L 2.472656 5.226562 L 19.523438 5.226562 L 19.523438 17.875 L 8.136719 17.875 Z M 5.222656 20.785156 "/>
<path style=" stroke:none;fill-rule:evenodd;fill:rgb(30.588236%,48.235294%,70.980394%);fill-opacity:1;" d="M 4.949219 21.449219 L 4.949219 18.152344 L 2.199219 18.152344 L 2.199219 4.949219 L 19.800781 4.949219 L 19.800781 18.152344 L 8.25 18.152344 Z M 5.5 20.121094 L 8.019531 17.601562 L 19.25 17.601562 L 19.25 5.5 L 2.75 5.5 L 2.75 17.601562 L 5.5 17.601562 Z M 5.5 20.121094 "/>
<path style=" stroke:none;fill-rule:evenodd;fill:rgb(100%,100%,100%);fill-opacity:1;" d="M 8.800781 13.75 L 13.199219 13.75 C 12.875 14.710938 12.011719 15.402344 11 15.402344 C 9.988281 15.402344 9.125 14.710938 8.800781 13.75 Z M 8.800781 13.75 "/>
<path style=" stroke:none;fill-rule:evenodd;fill:rgb(100%,100%,100%);fill-opacity:1;" d="M 8.800781 10.175781 C 8.800781 10.933594 8.183594 11.550781 7.425781 11.550781 C 6.664062 11.550781 6.050781 10.933594 6.050781 10.175781 C 6.050781 9.417969 6.664062 8.800781 7.425781 8.800781 C 8.183594 8.800781 8.800781 9.417969 8.800781 10.175781 Z M 8.800781 10.175781 "/>
<path style=" stroke:none;fill-rule:evenodd;fill:rgb(100%,100%,100%);fill-opacity:1;" d="M 15.949219 10.175781 C 15.949219 10.933594 15.332031 11.550781 14.574219 11.550781 C 13.816406 11.550781 13.199219 10.933594 13.199219 10.175781 C 13.199219 9.417969 13.816406 8.800781 14.574219 8.800781 C 15.332031 8.800781 15.949219 9.417969 15.949219 10.175781 Z M 15.949219 10.175781 "/>
</g>
</g>
</svg>
