<?xml version="1.0" encoding="UTF-8"?>
<svg xmlns="http://www.w3.org/2000/svg" xmlns:xlink="http://www.w3.org/1999/xlink" width="32" height="32" viewBox="0 0 32 32" version="1.1">
<g transform="scale(1.33333333)">
<g id="surface454">
<path style=" stroke:none;fill-rule:nonzero;fill:rgb(76.078433%,90.980393%,100%);fill-opacity:1;" d="M 3.898438 22.5 L 3.898438 1.5 L 14.875 1.5 L 20.101562 6.722656 L 20.101562 22.5 Z M 3.898438 22.5 "/>
<path style=" stroke:none;fill-rule:nonzero;fill:rgb(45.490196%,58.823532%,76.862746%);fill-opacity:1;" d="M 14.75 1.800781 L 19.800781 6.847656 L 19.800781 22.199219 L 4.199219 22.199219 L 4.199219 1.800781 L 14.75 1.800781 M 15 1.199219 L 3.601562 1.199219 L 3.601562 22.800781 L 20.398438 22.800781 L 20.398438 6.601562 Z M 15 1.199219 "/>
<path style=" stroke:none;fill-rule:nonzero;fill:rgb(100%,100%,100%);fill-opacity:1;" d="M 14.699219 6.898438 L 14.699219 1.5 L 14.875 1.5 L 20.101562 6.722656 L 20.101562 6.898438 Z M 14.699219 6.898438 "/>
<path style=" stroke:none;fill-rule:nonzero;fill:rgb(45.490196%,58.823532%,76.862746%);fill-opacity:1;" d="M 15 2.046875 L 19.550781 6.601562 L 15 6.601562 L 15 2.046875 M 15 1.199219 L 14.398438 1.199219 L 14.398438 7.199219 L 20.398438 7.199219 L 20.398438 6.601562 Z M 15 1.199219 "/>
<path style="fill-rule:nonzero;fill:rgb(54.509807%,71.764708%,94.117647%);fill-opacity:1;stroke-width:1;stroke-linecap:butt;stroke-linejoin:miter;stroke:rgb(30.588236%,47.843137%,70.980394%);stroke-opacity:1;stroke-miterlimit:10;" d="M 20.501302 26.002604 L 20.501302 16.497396 C 23.138021 16.497396 24.498698 17.5 24.498698 17.5 L 24.498698 19.498698 C 24.498698 19.498698 22.64974 18.502604 21.002604 18.502604 " transform="matrix(0.6,0,0,0.6,0,0)"/>
<path style=" stroke:none;fill-rule:nonzero;fill:rgb(54.509807%,71.764708%,94.117647%);fill-opacity:1;" d="M 10.800781 14.101562 C 9.972656 14.101562 9.300781 14.773438 9.300781 15.601562 C 9.300781 16.429688 9.972656 17.101562 10.800781 17.101562 C 11.628906 17.101562 12.300781 16.429688 12.300781 15.601562 C 12.300781 14.773438 11.628906 14.101562 10.800781 14.101562 Z M 10.800781 14.101562 "/>
<path style=" stroke:none;fill-rule:nonzero;fill:rgb(30.588236%,47.843137%,70.980394%);fill-opacity:1;" d="M 10.800781 14.398438 C 11.460938 14.398438 12 14.9375 12 15.601562 C 12 16.261719 11.460938 16.800781 10.800781 16.800781 C 10.136719 16.800781 9.601562 16.261719 9.601562 15.601562 C 9.601562 14.9375 10.136719 14.398438 10.800781 14.398438 M 10.800781 13.800781 C 9.804688 13.800781 9 14.605469 9 15.601562 C 9 16.59375 9.804688 17.398438 10.800781 17.398438 C 11.792969 17.398438 12.601562 16.59375 12.601562 15.601562 C 12.601562 14.605469 11.792969 13.800781 10.800781 13.800781 Z M 10.800781 13.800781 "/>
</g>
</g>
</svg>
