<?xml version="1.0" encoding="UTF-8"?>
<svg xmlns="http://www.w3.org/2000/svg" xmlns:xlink="http://www.w3.org/1999/xlink" width="32" height="32" viewBox="0 0 32 32" version="1.1">
<g transform="scale(1.33333333)">
<g id="surface512">
<path style=" stroke:none;fill-rule:nonzero;fill:rgb(69.01961%,75.686276%,83.137256%);fill-opacity:1;" d="M 9.898438 16.5 L 14.101562 16.5 L 14.101562 20.101562 L 9.898438 20.101562 Z M 9.898438 16.5 "/>
<path style=" stroke:none;fill-rule:nonzero;fill:rgb(40.000001%,47.450981%,56.078434%);fill-opacity:1;" d="M 13.800781 16.800781 L 13.800781 19.800781 L 10.199219 19.800781 L 10.199219 16.800781 L 13.800781 16.800781 M 14.398438 16.199219 L 9.601562 16.199219 L 9.601562 20.398438 L 14.398438 20.398438 Z M 14.398438 16.199219 "/>
<path style=" stroke:none;fill-rule:nonzero;fill:rgb(85.09804%,94.901961%,100%);fill-opacity:1;" d="M 0.898438 2.101562 L 23.101562 2.101562 L 23.101562 17.699219 L 0.898438 17.699219 Z M 0.898438 2.101562 "/>
<path style=" stroke:none;fill-rule:nonzero;fill:rgb(40.000001%,47.450981%,56.078434%);fill-opacity:1;" d="M 22.800781 2.398438 L 22.800781 17.398438 L 1.199219 17.398438 L 1.199219 2.398438 L 22.800781 2.398438 M 23.398438 1.800781 L 0.601562 1.800781 L 0.601562 18 L 23.398438 18 Z M 23.398438 1.800781 "/>
<path style=" stroke:none;fill-rule:nonzero;fill:rgb(40.000001%,47.450981%,56.078434%);fill-opacity:1;" d="M 0.601562 15 L 23.398438 15 L 23.398438 18 L 0.601562 18 Z M 18.601562 21.601562 L 5.398438 21.601562 C 5.398438 20.605469 6.207031 19.800781 7.199219 19.800781 L 16.800781 19.800781 C 17.792969 19.800781 18.601562 20.605469 18.601562 21.601562 Z M 18.601562 21.601562 "/>
<path style=" stroke:none;fill-rule:nonzero;fill:rgb(100%,93.333334%,63.921571%);fill-opacity:1;" d="M 20.398438 16.199219 L 22.199219 16.199219 L 22.199219 16.800781 L 20.398438 16.800781 Z M 20.398438 16.199219 "/>
<path style=" stroke:none;fill-rule:nonzero;fill:rgb(100%,76.862746%,61.176473%);fill-opacity:1;" d="M 3.75 12.898438 C 3.617188 12.898438 3.484375 12.84375 3.394531 12.746094 C 3.328125 12.675781 3.296875 12.597656 3.300781 12.519531 L 3.300781 4.898438 C 3.296875 4.792969 3.324219 4.710938 3.390625 4.644531 C 3.472656 4.554688 3.609375 4.5 3.75 4.5 L 8.25 4.5 C 8.5 4.5 8.699219 4.679688 8.699219 4.898438 L 8.699219 12.5 C 8.699219 12.722656 8.5 12.902344 8.25 12.902344 L 3.75 12.902344 Z M 3.75 12.898438 "/>
<path style=" stroke:none;fill-rule:nonzero;fill:rgb(63.137257%,41.568628%,29.019609%);fill-opacity:1;" d="M 8.25 4.800781 C 8.335938 4.800781 8.398438 4.851562 8.398438 4.898438 L 8.398438 12.5 C 8.398438 12.546875 8.335938 12.601562 8.25 12.601562 L 3.75 12.601562 C 3.671875 12.601562 3.605469 12.542969 3.601562 12.539062 L 3.601562 4.859375 C 3.605469 4.84375 3.660156 4.800781 3.75 4.800781 L 8.25 4.800781 M 8.25 4.199219 L 3.75 4.199219 C 3.335938 4.199219 2.976562 4.492188 3 4.898438 L 3 12.5 C 2.976562 12.863281 3.335938 13.199219 3.75 13.199219 L 8.25 13.199219 C 8.664062 13.199219 9 12.886719 9 12.5 L 9 4.898438 C 9 4.511719 8.664062 4.199219 8.25 4.199219 Z M 8.25 4.199219 "/>
<path style=" stroke:none;fill-rule:nonzero;fill:rgb(94.901961%,98.039216%,100%);fill-opacity:1;" d="M 3.300781 5.699219 L 8.699219 5.699219 L 8.699219 11.699219 L 3.300781 11.699219 Z M 3.300781 5.699219 "/>
<path style=" stroke:none;fill-rule:nonzero;fill:rgb(63.137257%,41.568628%,29.019609%);fill-opacity:1;" d="M 8.398438 6 L 8.398438 11.398438 L 3.601562 11.398438 L 3.601562 6 L 8.398438 6 M 9 5.398438 L 3 5.398438 L 3 12 L 9 12 Z M 9 5.398438 "/>
<path style=" stroke:none;fill-rule:nonzero;fill:rgb(100%,76.862746%,61.176473%);fill-opacity:1;" d="M 12.148438 12.898438 C 12.027344 12.898438 11.902344 12.84375 11.8125 12.75 C 11.734375 12.667969 11.695312 12.5625 11.699219 12.46875 L 11.699219 4.949219 C 11.691406 4.792969 11.753906 4.695312 11.804688 4.640625 C 11.890625 4.550781 12.015625 4.5 12.148438 4.5 L 20.25 4.5 C 20.5 4.5 20.699219 4.703125 20.699219 4.949219 L 20.699219 12.449219 C 20.699219 12.699219 20.5 12.898438 20.25 12.898438 Z M 12.148438 12.898438 "/>
<path style=" stroke:none;fill-rule:nonzero;fill:rgb(63.137257%,41.568628%,29.019609%);fill-opacity:1;" d="M 20.25 4.800781 C 20.332031 4.800781 20.398438 4.867188 20.398438 4.949219 L 20.398438 12.449219 C 20.398438 12.53125 20.332031 12.601562 20.25 12.601562 L 12.148438 12.601562 C 12.109375 12.601562 12.0625 12.578125 12.03125 12.542969 C 12.007812 12.515625 12 12.492188 12 12.484375 L 12 4.917969 C 11.996094 4.886719 12.003906 4.867188 12.023438 4.847656 C 12.042969 4.824219 12.089844 4.800781 12.148438 4.800781 L 20.25 4.800781 M 20.25 4.199219 L 12.148438 4.199219 C 11.734375 4.199219 11.375 4.511719 11.398438 4.949219 L 11.398438 12.449219 C 11.375 12.839844 11.734375 13.199219 12.148438 13.199219 L 20.25 13.199219 C 20.664062 13.199219 21 12.863281 21 12.449219 L 21 4.949219 C 21 4.535156 20.664062 4.199219 20.25 4.199219 Z M 20.25 4.199219 "/>
<path style=" stroke:none;fill-rule:nonzero;fill:rgb(94.901961%,98.039216%,100%);fill-opacity:1;" d="M 11.699219 5.699219 L 20.699219 5.699219 L 20.699219 11.699219 L 11.699219 11.699219 Z M 11.699219 5.699219 "/>
<path style=" stroke:none;fill-rule:nonzero;fill:rgb(63.137257%,41.568628%,29.019609%);fill-opacity:1;" d="M 20.398438 6 L 20.398438 11.398438 L 12 11.398438 L 12 6 L 20.398438 6 M 21 5.398438 L 11.398438 5.398438 L 11.398438 12 L 21 12 Z M 21 5.398438 "/>
</g>
</g>
</svg>
