<?xml version="1.0" encoding="UTF-8"?>
<svg xmlns="http://www.w3.org/2000/svg" xmlns:xlink="http://www.w3.org/1999/xlink" width="32" height="32" viewBox="0 0 32 32" version="1.1">
<g transform="scale(1.33333333)">
<g id="surface579">
<path style="fill:none;stroke-width:2;stroke-linecap:butt;stroke-linejoin:miter;stroke:rgb(40.000001%,47.450981%,56.078434%);stroke-opacity:1;stroke-miterlimit:10;" d="M 8.001302 13.997396 L 11.998698 6.998698 L 33.001302 6.998698 M 21.998698 6.998698 L 21.998698 13.997396 " transform="matrix(0.6,0,0,0.6,0,0)"/>
<path style=" stroke:none;fill-rule:nonzero;fill:rgb(51.372552%,61.176473%,69.803923%);fill-opacity:1;" d="M 22.324219 18.898438 L 19.324219 15.898438 L 17.101562 15.898438 L 17.101562 11.699219 L 19.324219 11.699219 L 22.324219 8.699219 L 23.699219 8.699219 L 23.699219 18.898438 Z M 22.324219 18.898438 "/>
<path style=" stroke:none;fill-rule:nonzero;fill:rgb(40.000001%,47.450981%,56.078434%);fill-opacity:1;" d="M 23.398438 9 L 23.398438 18.601562 L 22.449219 18.601562 L 19.449219 15.601562 L 17.398438 15.601562 L 17.398438 12 L 19.449219 12 L 22.449219 9 L 23.398438 9 M 24 8.398438 L 22.199219 8.398438 L 19.199219 11.398438 L 16.800781 11.398438 L 16.800781 16.199219 L 19.199219 16.199219 L 22.199219 19.199219 L 24 19.199219 Z M 24 8.398438 "/>
<path style=" stroke:none;fill-rule:nonzero;fill:rgb(69.01961%,75.686276%,83.137256%);fill-opacity:1;" d="M 1.199219 20.101562 C 0.703125 20.101562 0.300781 19.695312 0.300781 19.199219 L 0.300781 8.398438 C 0.300781 7.902344 0.703125 7.5 1.199219 7.5 L 16.199219 7.5 C 16.695312 7.5 17.101562 7.902344 17.101562 8.398438 L 17.101562 19.199219 C 17.101562 19.695312 16.695312 20.101562 16.199219 20.101562 Z M 1.199219 20.101562 "/>
<path style=" stroke:none;fill-rule:nonzero;fill:rgb(40.000001%,47.450981%,56.078434%);fill-opacity:1;" d="M 16.199219 7.800781 C 16.53125 7.800781 16.800781 8.070312 16.800781 8.398438 L 16.800781 19.199219 C 16.800781 19.53125 16.53125 19.800781 16.199219 19.800781 L 1.199219 19.800781 C 0.871094 19.800781 0.601562 19.53125 0.601562 19.199219 L 0.601562 8.398438 C 0.601562 8.070312 0.871094 7.800781 1.199219 7.800781 L 16.199219 7.800781 M 16.199219 7.199219 L 1.199219 7.199219 C 0.539062 7.199219 0 7.738281 0 8.398438 L 0 19.199219 C 0 19.859375 0.539062 20.398438 1.199219 20.398438 L 16.199219 20.398438 C 16.859375 20.398438 17.398438 19.859375 17.398438 19.199219 L 17.398438 8.398438 C 17.398438 7.738281 16.859375 7.199219 16.199219 7.199219 Z M 16.199219 7.199219 "/>
<path style=" stroke:none;fill-rule:nonzero;fill:rgb(77.254903%,83.137256%,87.058824%);fill-opacity:1;" d="M 2.699219 9.898438 L 11.699219 9.898438 L 11.699219 17.699219 L 2.699219 17.699219 Z M 2.699219 9.898438 "/>
<path style=" stroke:none;fill-rule:nonzero;fill:rgb(40.000001%,47.450981%,56.078434%);fill-opacity:1;" d="M 11.398438 10.199219 L 11.398438 17.398438 L 3 17.398438 L 3 10.199219 L 11.398438 10.199219 M 12 9.601562 L 2.398438 9.601562 L 2.398438 18 L 12 18 Z M 12 9.601562 "/>
<path style=" stroke:none;fill-rule:nonzero;fill:rgb(76.078433%,90.980393%,100%);fill-opacity:1;" d="M 4 11.398438 L 10.402344 11.398438 L 10.402344 16.199219 L 4 16.199219 Z M 4 11.398438 "/>
<path style=" stroke:none;fill-rule:nonzero;fill:rgb(76.078433%,90.980393%,100%);fill-opacity:1;" d="M 3.898438 11.101562 L 10.5 11.101562 L 10.5 16.5 L 3.898438 16.5 Z M 3.898438 11.101562 "/>
<path style=" stroke:none;fill-rule:nonzero;fill:rgb(45.490196%,58.823532%,76.862746%);fill-opacity:1;" d="M 10.199219 11.398438 L 10.199219 16.199219 L 4.199219 16.199219 L 4.199219 11.398438 L 10.199219 11.398438 M 10.800781 10.800781 L 3.601562 10.800781 L 3.601562 16.800781 L 10.800781 16.800781 Z M 10.800781 10.800781 "/>
<path style=" stroke:none;fill-rule:nonzero;fill:rgb(100%,100%,100%);fill-opacity:1;" d="M 8.398438 12 C 8.070312 12 7.800781 12.269531 7.800781 12.601562 C 7.800781 12.929688 8.070312 13.199219 8.398438 13.199219 C 8.730469 13.199219 9 12.929688 9 12.601562 C 9 12.269531 8.730469 12 8.398438 12 Z M 8.398438 12 "/>
<path style=" stroke:none;fill-rule:nonzero;fill:rgb(43.137255%,61.960787%,87.843138%);fill-opacity:1;" d="M 10.199219 16.199219 L 7.800781 13.800781 L 6 15.601562 L 6 16.199219 Z M 10.199219 16.199219 "/>
<path style=" stroke:none;fill-rule:nonzero;fill:rgb(46.666667%,66.274512%,92.941177%);fill-opacity:1;" d="M 8.398438 16.199219 L 5.398438 13.199219 L 4.199219 14.398438 L 4.199219 16.199219 Z M 8.398438 16.199219 "/>
<path style=" stroke:none;fill-rule:nonzero;fill:rgb(21.176471%,25.098041%,30.19608%);fill-opacity:1;" d="M 21.601562 5.398438 L 18.601562 5.398438 L 18.601562 3 L 21.601562 3 C 22.261719 3 22.800781 3.535156 22.800781 4.199219 C 22.800781 4.863281 22.261719 5.398438 21.601562 5.398438 Z M 21.601562 5.398438 "/>
</g>
</g>
</svg>
