<?xml version="1.0" encoding="UTF-8"?>
<svg xmlns="http://www.w3.org/2000/svg" xmlns:xlink="http://www.w3.org/1999/xlink" width="32" height="32" viewBox="0 0 32 32" version="1.1">
<g transform="scale(1.33333333)">
<g id="surface653">
<path style=" stroke:none;fill-rule:nonzero;fill:rgb(60.000002%,78.823531%,61.960787%);fill-opacity:1;" d="M 12 14.699219 C 10.511719 14.699219 9.300781 13.488281 9.300781 12 C 9.300781 10.511719 10.511719 9.300781 12 9.300781 C 13.488281 9.300781 14.699219 10.511719 14.699219 12 C 14.699219 13.488281 13.488281 14.699219 12 14.699219 Z M 12 14.699219 "/>
<path style=" stroke:none;fill-rule:nonzero;fill:rgb(36.862746%,61.176473%,46.27451%);fill-opacity:1;" d="M 12 9.601562 C 13.324219 9.601562 14.398438 10.675781 14.398438 12 C 14.398438 13.324219 13.324219 14.398438 12 14.398438 C 10.675781 14.398438 9.601562 13.324219 9.601562 12 C 9.601562 10.675781 10.675781 9.601562 12 9.601562 M 12 9 C 10.34375 9 9 10.34375 9 12 C 9 13.65625 10.34375 15 12 15 C 13.65625 15 15 13.65625 15 12 C 15 10.34375 13.65625 9 12 9 Z M 12 9 "/>
<path style=" stroke:none;fill-rule:nonzero;fill:rgb(76.078433%,90.980393%,100%);fill-opacity:1;" d="M 12 21.300781 C 6.871094 21.300781 2.699219 17.128906 2.699219 12 C 2.699219 6.871094 6.871094 2.699219 12 2.699219 C 17.128906 2.699219 21.300781 6.871094 21.300781 12 C 21.300781 17.128906 17.128906 21.300781 12 21.300781 Z M 12 5.101562 C 8.195312 5.101562 5.101562 8.195312 5.101562 12 C 5.101562 15.804688 8.195312 18.898438 12 18.898438 C 15.804688 18.898438 18.898438 15.804688 18.898438 12 C 18.898438 8.195312 15.804688 5.101562 12 5.101562 Z M 12 5.101562 "/>
<path style=" stroke:none;fill-rule:nonzero;fill:rgb(45.490196%,58.823532%,76.862746%);fill-opacity:1;" d="M 12 3 C 16.960938 3 21 7.039062 21 12 C 21 16.960938 16.960938 21 12 21 C 7.039062 21 3 16.960938 3 12 C 3 7.039062 7.039062 3 12 3 M 12 19.199219 C 15.96875 19.199219 19.199219 15.96875 19.199219 12 C 19.199219 8.03125 15.96875 4.800781 12 4.800781 C 8.03125 4.800781 4.800781 8.03125 4.800781 12 C 4.800781 15.96875 8.03125 19.199219 12 19.199219 M 12 2.398438 C 6.699219 2.398438 2.398438 6.699219 2.398438 12 C 2.398438 17.300781 6.699219 21.601562 12 21.601562 C 17.300781 21.601562 21.601562 17.300781 21.601562 12 C 21.601562 6.699219 17.300781 2.398438 12 2.398438 Z M 12 18.601562 C 8.355469 18.601562 5.398438 15.644531 5.398438 12 C 5.398438 8.355469 8.355469 5.398438 12 5.398438 C 15.644531 5.398438 18.601562 8.355469 18.601562 12 C 18.601562 15.644531 15.644531 18.601562 12 18.601562 Z M 12 18.601562 "/>
<path style=" stroke:none;fill-rule:nonzero;fill:rgb(54.509807%,71.764708%,94.117647%);fill-opacity:1;" d="M 11.699219 0.898438 L 12.300781 0.898438 L 12.300781 5.101562 L 11.699219 5.101562 Z M 11.699219 0.898438 "/>
<path style=" stroke:none;fill-rule:nonzero;fill:rgb(30.588236%,47.843137%,70.980394%);fill-opacity:1;" d="M 12 1.199219 L 12 4.800781 L 12 1.199219 M 12.601562 0.601562 L 11.398438 0.601562 L 11.398438 5.398438 L 12.601562 5.398438 Z M 12.601562 0.601562 "/>
<path style=" stroke:none;fill-rule:nonzero;fill:rgb(54.509807%,71.764708%,94.117647%);fill-opacity:1;" d="M 18.898438 11.699219 L 23.101562 11.699219 L 23.101562 12.300781 L 18.898438 12.300781 Z M 18.898438 11.699219 "/>
<path style=" stroke:none;fill-rule:nonzero;fill:rgb(30.588236%,47.843137%,70.980394%);fill-opacity:1;" d="M 23.398438 11.398438 L 18.601562 11.398438 L 18.601562 12.601562 L 23.398438 12.601562 Z M 23.398438 11.398438 "/>
<path style=" stroke:none;fill-rule:nonzero;fill:rgb(54.509807%,71.764708%,94.117647%);fill-opacity:1;" d="M 0.898438 11.699219 L 5.101562 11.699219 L 5.101562 12.300781 L 0.898438 12.300781 Z M 0.898438 11.699219 "/>
<path style=" stroke:none;fill-rule:nonzero;fill:rgb(30.588236%,47.843137%,70.980394%);fill-opacity:1;" d="M 5.398438 11.398438 L 0.601562 11.398438 L 0.601562 12.601562 L 5.398438 12.601562 Z M 5.398438 11.398438 "/>
<path style=" stroke:none;fill-rule:nonzero;fill:rgb(54.509807%,71.764708%,94.117647%);fill-opacity:1;" d="M 11.699219 18.898438 L 12.300781 18.898438 L 12.300781 23.101562 L 11.699219 23.101562 Z M 11.699219 18.898438 "/>
<path style=" stroke:none;fill-rule:nonzero;fill:rgb(30.588236%,47.843137%,70.980394%);fill-opacity:1;" d="M 12 19.199219 L 12 22.800781 L 12 19.199219 M 12.601562 18.601562 L 11.398438 18.601562 L 11.398438 23.398438 L 12.601562 23.398438 Z M 12.601562 18.601562 "/>
</g>
</g>
</svg>
