<?xml version="1.0" encoding="UTF-8" standalone="no"?>
<!DOCTYPE svg PUBLIC "-//W3C//DTD SVG 1.1//EN" "http://www.w3.org/Graphics/SVG/1.1/DTD/svg11.dtd">
<svg width="32" height="32" viewBox="0 0 32 32" version="1.1" xmlns="http://www.w3.org/2000/svg" xmlns:xlink="http://www.w3.org/1999/xlink" xml:space="preserve" xmlns:serif="http://www.serif.com/" style="fill-rule:evenodd;clip-rule:evenodd;stroke-linejoin:round;stroke-miterlimit:2;">
<g transform="scale(1.33333333)">
    <g id="surface1897">
        <path d="M2.102,22.5L2.102,1.5L13.074,1.5L18.301,6.723L18.301,22.5L2.102,22.5Z" style="fill:rgb(254,254,254);fill-rule:nonzero;"/>
        <path d="M12.953,1.801L18,6.848L18,22.199L2.398,22.199L2.398,1.801L12.953,1.801M13.199,1.199L1.801,1.199L1.801,22.801L18.602,22.801L18.602,6.602L13.199,1.199Z" style="fill:rgb(120,139,156);fill-rule:nonzero;"/>
        <path d="M12.898,6.898L12.898,1.5L13.074,1.5L18.301,6.723L18.301,6.898L12.898,6.898Z" style="fill:rgb(254,254,254);fill-rule:nonzero;"/>
        <path d="M13.199,2.047L17.75,6.602L13.199,6.602L13.199,2.047M13.199,1.199L12.602,1.199L12.602,7.199L18.602,7.199L18.602,6.602L13.199,1.199Z" style="fill:rgb(120,139,156);fill-rule:nonzero;"/>
        <path d="M4.199,5.398L6.602,5.398L6.602,4.801L4.199,4.801L4.199,5.398ZM8.398,4.801L8.398,5.398L12,5.398L12,4.801L8.398,4.801ZM4.199,6.602L6.602,6.602L6.602,6L4.199,6L4.199,6.602ZM8.398,6L8.398,6.602L12,6.602L12,6L8.398,6ZM4.199,7.801L6.602,7.801L6.602,7.199L4.199,7.199L4.199,7.801ZM13.801,7.199L13.801,7.801L16.199,7.801L16.199,7.199L13.801,7.199ZM8.398,7.801L12,7.801L12,7.199L8.398,7.199L8.398,7.801ZM4.199,18L6.602,18L6.602,17.398L4.199,17.398L4.199,18ZM13.801,17.398L13.801,18L16.199,18L16.199,17.398L13.801,17.398ZM8.398,18L12,18L12,17.398L8.398,17.398L8.398,18ZM4.199,19.199L6.602,19.199L6.602,18.602L4.199,18.602L4.199,19.199ZM13.801,18.602L13.801,19.199L16.199,19.199L16.199,18.602L13.801,18.602ZM8.398,19.199L12,19.199L12,18.602L8.398,18.602L8.398,19.199ZM4.199,20.398L6.602,20.398L6.602,19.801L4.199,19.801L4.199,20.398ZM13.801,19.801L13.801,20.398L16.199,20.398L16.199,19.801L13.801,19.801ZM8.398,20.398L12,20.398L12,19.801L8.398,19.801L8.398,20.398Z" style="fill:rgb(180,180,180);fill-rule:nonzero;"/>
        <rect x="1.801" y="8.398" width="16.801" height="8.402" style="fill:rgb(50,55,60);fill-rule:nonzero;"/>
        <rect x="16.801" y="12.602" width="1.801" height="4.199" style="fill:rgb(180,180,180);fill-rule:nonzero;"/>
        <g transform="matrix(0.451215,0,0,0.365662,-3.66143,0.874273)">
            <path d="M18.758,26.949L16.082,26.949L16.082,24.227L24.406,24.227L24.406,26.949L21.703,26.949L21.703,39.383L18.758,39.383L18.758,26.949ZM31.539,39.383L30.594,36.598C30.301,35.719 30.031,34.863 29.781,33.895L29.715,33.895C29.469,34.863 29.242,35.781 29.016,36.641L28.207,39.383L25.281,39.383L28.117,31.625L25.398,24.227L28.453,24.227L29.355,27.039C29.578,27.824 29.805,28.613 30.031,29.465L30.074,29.465C30.324,28.543 30.523,27.824 30.727,26.992L31.492,24.227L34.441,24.227L31.605,31.758L34.598,39.383L31.539,39.383ZM38.063,26.949L35.391,26.949L35.391,24.227L43.711,24.227L43.711,26.949L41.016,26.949L41.016,39.383L38.063,39.383L38.063,26.949Z" style="fill:white;fill-rule:nonzero;"/>
        </g>
        <path d="M18,13.801L18,22.199L16.566,22.199L17.039,22.801L18.602,22.801L18.602,13.801L18,13.801Z" style="fill:rgb(214,227,237);fill-rule:nonzero;"/>
        <path d="M15.023,18.301L17.699,18.301L17.699,13.5L20.699,13.5L20.699,18.301L23.375,18.301L19.199,23.52L15.023,18.301Z" style="fill:rgb(156,172,189);fill-rule:nonzero;"/>
        <path d="M20.398,13.801L20.398,18.602L22.75,18.602L19.199,23.039L15.648,18.602L18,18.602L18,13.801L20.398,13.801M21,13.199L17.398,13.199L17.398,18L14.398,18L19.199,24L24,18L21,18L21,13.199Z" style="fill:rgb(54,64,77);fill-rule:nonzero;"/>
    </g>
</g>
</svg>
