<?xml version="1.0" encoding="UTF-8"?>
<svg xmlns="http://www.w3.org/2000/svg" xmlns:xlink="http://www.w3.org/1999/xlink" width="32" height="32" viewBox="0 0 32 32" version="1.1">
<g transform="scale(1.33333333)">
<g id="surface688">
<path style=" stroke:none;fill-rule:nonzero;fill:rgb(100%,100%,100%);fill-opacity:1;" d="M 2.101562 22.5 L 2.101562 1.5 L 13.074219 1.5 L 18.300781 6.722656 L 18.300781 22.5 Z M 2.101562 22.5 "/>
<path style=" stroke:none;fill-rule:nonzero;fill:rgb(47.058824%,54.509807%,61.176473%);fill-opacity:1;" d="M 12.953125 1.800781 L 18 6.847656 L 18 22.199219 L 2.398438 22.199219 L 2.398438 1.800781 L 12.953125 1.800781 M 13.199219 1.199219 L 1.800781 1.199219 L 1.800781 22.800781 L 18.601562 22.800781 L 18.601562 6.601562 Z M 13.199219 1.199219 "/>
<path style=" stroke:none;fill-rule:nonzero;fill:rgb(100%,100%,100%);fill-opacity:1;" d="M 12.898438 6.898438 L 12.898438 1.5 L 13.074219 1.5 L 18.300781 6.722656 L 18.300781 6.898438 Z M 12.898438 6.898438 "/>
<path style=" stroke:none;fill-rule:nonzero;fill:rgb(47.058824%,54.509807%,61.176473%);fill-opacity:1;" d="M 13.199219 2.046875 L 17.75 6.601562 L 13.199219 6.601562 L 13.199219 2.046875 M 13.199219 1.199219 L 12.601562 1.199219 L 12.601562 7.199219 L 18.601562 7.199219 L 18.601562 6.601562 Z M 13.199219 1.199219 "/>
<path style=" stroke:none;fill-rule:nonzero;fill:rgb(72.941178%,87.843138%,74.117649%);fill-opacity:1;" d="M 4.199219 5.398438 L 6.601562 5.398438 L 6.601562 4.800781 L 4.199219 4.800781 Z M 8.398438 4.800781 L 8.398438 5.398438 L 12 5.398438 L 12 4.800781 Z M 4.199219 6.601562 L 6.601562 6.601562 L 6.601562 6 L 4.199219 6 Z M 8.398438 6 L 8.398438 6.601562 L 12 6.601562 L 12 6 Z M 4.199219 7.800781 L 6.601562 7.800781 L 6.601562 7.199219 L 4.199219 7.199219 Z M 13.800781 7.199219 L 13.800781 7.800781 L 16.199219 7.800781 L 16.199219 7.199219 Z M 8.398438 7.800781 L 12 7.800781 L 12 7.199219 L 8.398438 7.199219 Z M 4.199219 18 L 6.601562 18 L 6.601562 17.398438 L 4.199219 17.398438 Z M 13.800781 17.398438 L 13.800781 18 L 16.199219 18 L 16.199219 17.398438 Z M 8.398438 18 L 12 18 L 12 17.398438 L 8.398438 17.398438 Z M 4.199219 19.199219 L 6.601562 19.199219 L 6.601562 18.601562 L 4.199219 18.601562 Z M 13.800781 18.601562 L 13.800781 19.199219 L 16.199219 19.199219 L 16.199219 18.601562 Z M 8.398438 19.199219 L 12 19.199219 L 12 18.601562 L 8.398438 18.601562 Z M 4.199219 20.398438 L 6.601562 20.398438 L 6.601562 19.800781 L 4.199219 19.800781 Z M 13.800781 19.800781 L 13.800781 20.398438 L 16.199219 20.398438 L 16.199219 19.800781 Z M 8.398438 20.398438 L 12 20.398438 L 12 19.800781 L 8.398438 19.800781 Z M 8.398438 20.398438 "/>
<path style=" stroke:none;fill-rule:nonzero;fill:rgb(36.862746%,61.176473%,46.27451%);fill-opacity:1;" d="M 1.800781 8.398438 L 18.601562 8.398438 L 18.601562 16.800781 L 1.800781 16.800781 Z M 1.800781 8.398438 "/>
<path style=" stroke:none;fill-rule:nonzero;fill:rgb(72.941178%,87.843138%,74.117649%);fill-opacity:1;" d="M 16.800781 12.601562 L 18.601562 12.601562 L 18.601562 16.800781 L 16.800781 16.800781 Z M 16.800781 12.601562 "/>
<path style=" stroke:none;fill-rule:nonzero;fill:rgb(100%,100%,100%);fill-opacity:1;" d="M 7.058594 11.042969 L 7.058594 11.367188 L 5.976562 11.367188 L 5.976562 11.089844 C 5.976562 10.59375 5.515625 10.488281 5.308594 10.488281 C 5.042969 10.488281 4.644531 10.554688 4.644531 11.164062 L 4.644531 14.117188 C 4.644531 14.289062 4.648438 14.710938 5.300781 14.710938 C 5.914062 14.710938 5.976562 14.242188 5.976562 14.128906 L 5.976562 13.84375 L 7.054688 13.84375 L 7.054688 14.199219 C 7.054688 14.675781 6.578125 15.539062 5.34375 15.539062 C 5.136719 15.539062 3.5625 15.519531 3.5625 14.175781 L 3.5625 10.992188 C 3.5625 10.402344 4.066406 9.660156 5.320312 9.660156 C 6.84375 9.660156 7.058594 10.71875 7.058594 11.042969 Z M 10.605469 9.660156 C 8.808594 9.660156 8.753906 11.027344 8.753906 11.242188 C 8.753906 12.367188 9.460938 12.582031 9.929688 12.730469 L 10.699219 12.972656 C 11.183594 13.144531 11.324219 13.175781 11.324219 13.851562 C 11.324219 14.550781 11.121094 14.710938 10.542969 14.710938 C 9.925781 14.710938 9.78125 14.367188 9.78125 14.117188 L 9.78125 13.859375 L 8.699219 13.859375 L 8.699219 14.167969 C 8.699219 15.167969 9.84375 15.539062 10.542969 15.539062 C 11.992188 15.539062 12.40625 14.746094 12.40625 13.839844 C 12.40625 12.679688 11.898438 12.46875 11.273438 12.257812 L 10.445312 12.007812 C 9.820312 11.816406 9.859375 11.601562 9.847656 11.523438 C 9.839844 11.445312 9.832031 11.347656 9.832031 11.234375 C 9.832031 10.480469 10.414062 10.488281 10.5625 10.488281 C 11.234375 10.488281 11.324219 10.996094 11.324219 11.1875 L 11.324219 11.371094 L 12.40625 11.371094 L 12.40625 10.96875 C 12.40625 10.527344 11.929688 9.660156 10.605469 9.660156 Z M 16.203125 9.707031 L 15.335938 13.746094 L 15.3125 13.746094 L 14.457031 9.707031 L 13.3125 9.707031 L 14.847656 15.492188 L 15.800781 15.492188 L 17.34375 9.707031 Z M 16.203125 9.707031 "/>
<path style=" stroke:none;fill-rule:nonzero;fill:rgb(83.92157%,89.019608%,92.941177%);fill-opacity:1;" d="M 18 13.800781 L 18 22.199219 L 16.566406 22.199219 L 17.039062 22.800781 L 18.601562 22.800781 L 18.601562 13.800781 Z M 18 13.800781 "/>
<path style=" stroke:none;fill-rule:nonzero;fill:rgb(61.176473%,67.450982%,74.117649%);fill-opacity:1;" d="M 15.023438 18.300781 L 17.699219 18.300781 L 17.699219 13.5 L 20.699219 13.5 L 20.699219 18.300781 L 23.375 18.300781 L 19.199219 23.519531 Z M 15.023438 18.300781 "/>
<path style=" stroke:none;fill-rule:nonzero;fill:rgb(21.176471%,25.098041%,30.19608%);fill-opacity:1;" d="M 20.398438 13.800781 L 20.398438 18.601562 L 22.75 18.601562 L 19.199219 23.039062 L 15.648438 18.601562 L 18 18.601562 L 18 13.800781 L 20.398438 13.800781 M 21 13.199219 L 17.398438 13.199219 L 17.398438 18 L 14.398438 18 L 19.199219 24 L 24 18 L 21 18 Z M 21 13.199219 "/>
</g>
</g>
</svg>
