<?xml version="1.0" encoding="UTF-8" standalone="no"?>
<!DOCTYPE svg PUBLIC "-//W3C//DTD SVG 1.1//EN" "http://www.w3.org/Graphics/SVG/1.1/DTD/svg11.dtd">
<svg width="32" height="32" viewBox="0 0 32 32" version="1.1" xmlns="http://www.w3.org/2000/svg" xmlns:xlink="http://www.w3.org/1999/xlink" xml:space="preserve" xmlns:serif="http://www.serif.com/" style="fill-rule:evenodd;clip-rule:evenodd;stroke-linejoin:round;stroke-miterlimit:2;">
<g transform="scale(1.33333333)">
    <g transform="matrix(1,0,0,1,1.79883,0)">
        <g id="surface688">
            <g>
                <path d="M2.102,22.5L2.102,1.5L13.074,1.5L18.301,6.723L18.301,22.5L2.102,22.5Z" style="fill:rgb(254,254,254);fill-rule:nonzero;"/>
                <path d="M12.953,1.801L18,6.848L18,22.199L2.398,22.199L2.398,1.801L12.953,1.801M13.199,1.199L1.801,1.199L1.801,22.801L18.602,22.801L18.602,6.602L13.199,1.199Z" style="fill:rgb(120,139,156);fill-rule:nonzero;"/>
                <path d="M12.898,6.898L12.898,1.5L13.074,1.5L18.301,6.723L18.301,6.898L12.898,6.898Z" style="fill:rgb(254,254,254);fill-rule:nonzero;"/>
                <path d="M13.199,2.047L17.75,6.602L13.199,6.602L13.199,2.047M13.199,1.199L12.602,1.199L12.602,7.199L18.602,7.199L18.602,6.602L13.199,1.199Z" style="fill:rgb(120,139,156);fill-rule:nonzero;"/>
                <path d="M4.199,5.398L6.602,5.398L6.602,4.801L4.199,4.801L4.199,5.398ZM8.398,4.801L8.398,5.398L12,5.398L12,4.801L8.398,4.801ZM4.199,6.602L6.602,6.602L6.602,6L4.199,6L4.199,6.602ZM8.398,6L8.398,6.602L12,6.602L12,6L8.398,6ZM4.199,7.801L6.602,7.801L6.602,7.199L4.199,7.199L4.199,7.801ZM13.801,7.199L13.801,7.801L16.199,7.801L16.199,7.199L13.801,7.199ZM8.398,7.801L12,7.801L12,7.199L8.398,7.199L8.398,7.801ZM4.199,18L6.602,18L6.602,17.398L4.199,17.398L4.199,18ZM13.801,17.398L13.801,18L16.199,18L16.199,17.398L13.801,17.398ZM8.398,18L12,18L12,17.398L8.398,17.398L8.398,18ZM4.199,19.199L6.602,19.199L6.602,18.602L4.199,18.602L4.199,19.199ZM13.801,18.602L13.801,19.199L16.199,19.199L16.199,18.602L13.801,18.602ZM8.398,19.199L12,19.199L12,18.602L8.398,18.602L8.398,19.199ZM4.199,20.398L6.602,20.398L6.602,19.801L4.199,19.801L4.199,20.398ZM13.801,19.801L13.801,20.398L16.199,20.398L16.199,19.801L13.801,19.801ZM8.398,20.398L12,20.398L12,19.801L8.398,19.801L8.398,20.398Z" style="fill:rgb(186,224,189);fill-rule:nonzero;"/>
                <rect x="1.801" y="8.398" width="16.801" height="8.402" style="fill:rgb(94,156,118);fill-rule:nonzero;"/>
                <path d="M7.059,11.043L7.059,11.367L5.977,11.367L5.977,11.09C5.977,10.594 5.516,10.488 5.309,10.488C5.043,10.488 4.645,10.555 4.645,11.164L4.645,14.117C4.645,14.289 4.648,14.711 5.301,14.711C5.914,14.711 5.977,14.242 5.977,14.129L5.977,13.844L7.055,13.844L7.055,14.199C7.055,14.676 6.578,15.539 5.344,15.539C5.137,15.539 3.563,15.52 3.563,14.176L3.563,10.992C3.563,10.402 4.066,9.66 5.32,9.66C6.844,9.66 7.059,10.719 7.059,11.043ZM10.605,9.66C8.809,9.66 8.754,11.027 8.754,11.242C8.754,12.367 9.461,12.582 9.93,12.73L10.699,12.973C11.184,13.145 11.324,13.176 11.324,13.852C11.324,14.551 11.121,14.711 10.543,14.711C9.926,14.711 9.781,14.367 9.781,14.117L9.781,13.859L8.699,13.859L8.699,14.168C8.699,15.168 9.844,15.539 10.543,15.539C11.992,15.539 12.406,14.746 12.406,13.84C12.406,12.68 11.898,12.469 11.273,12.258L10.445,12.008C9.82,11.816 9.859,11.602 9.848,11.523C9.84,11.445 9.832,11.348 9.832,11.234C9.832,10.48 10.414,10.488 10.563,10.488C11.234,10.488 11.324,10.996 11.324,11.188L11.324,11.371L12.406,11.371L12.406,10.969C12.406,10.527 11.93,9.66 10.605,9.66ZM16.203,9.707L15.336,13.746L15.313,13.746L14.457,9.707L13.313,9.707L14.848,15.492L15.801,15.492L17.344,9.707L16.203,9.707Z" style="fill:rgb(254,254,254);fill-rule:nonzero;"/>
            </g>
        </g>
    </g>
</g>
</svg>
