<?xml version="1.0" encoding="UTF-8"?>
<svg xmlns="http://www.w3.org/2000/svg" xmlns:xlink="http://www.w3.org/1999/xlink" width="32" height="32" viewBox="0 0 32 32" version="1.1">
<g transform="scale(1.33333333)">
<g id="surface719">
<path style=" stroke:none;fill-rule:nonzero;fill:rgb(86.274511%,83.529413%,94.901961%);fill-opacity:1;" d="M 12 23.101562 C 7.285156 23.101562 3.300781 21.453125 3.300781 19.5 L 3.300781 4.199219 L 20.699219 4.199219 L 20.699219 19.5 C 20.699219 21.453125 16.714844 23.101562 12 23.101562 Z M 12 23.101562 "/>
<path style=" stroke:none;fill-rule:nonzero;fill:rgb(54.509807%,45.882353%,63.137257%);fill-opacity:1;" d="M 20.398438 4.5 L 20.398438 19.5 C 20.398438 21.0625 16.949219 22.800781 12 22.800781 C 7.050781 22.800781 3.601562 21.0625 3.601562 19.5 L 3.601562 4.5 L 20.398438 4.5 M 21 3.898438 L 3 3.898438 C 3 4.675781 3 18.726562 3 19.5 C 3 21.652344 7.03125 23.398438 12 23.398438 C 16.96875 23.398438 21 21.652344 21 19.5 C 21 18.726562 21 4.675781 21 3.898438 Z M 21 3.898438 "/>
<path style=" stroke:none;fill-rule:nonzero;fill:rgb(86.274511%,83.529413%,94.901961%);fill-opacity:1;" d="M 12 6.898438 C 6.796875 6.898438 3.300781 5.347656 3.300781 3.898438 C 3.300781 2.449219 6.796875 0.898438 12 0.898438 C 17.203125 0.898438 20.699219 2.449219 20.699219 3.898438 C 20.699219 5.347656 17.203125 6.898438 12 6.898438 Z M 12 6.898438 "/>
<path style=" stroke:none;fill-rule:nonzero;fill:rgb(54.509807%,45.882353%,63.137257%);fill-opacity:1;" d="M 12 1.199219 C 17.203125 1.199219 20.398438 2.773438 20.398438 3.898438 C 20.398438 5.027344 17.203125 6.601562 12 6.601562 C 6.796875 6.601562 3.601562 5.027344 3.601562 3.898438 C 3.601562 2.773438 6.796875 1.199219 12 1.199219 M 12 0.601562 C 7.03125 0.601562 3 2.078125 3 3.898438 C 3 5.722656 7.03125 7.199219 12 7.199219 C 16.96875 7.199219 21 5.722656 21 3.898438 C 21 2.078125 16.96875 0.601562 12 0.601562 Z M 12 0.601562 "/>
<path style="fill:none;stroke-width:1;stroke-linecap:butt;stroke-linejoin:miter;stroke:rgb(54.509807%,45.882353%,63.137257%);stroke-opacity:1;stroke-miterlimit:10;" d="M 34.498698 15.182292 C 34.498698 18.11849 28.007812 20.501302 20 20.501302 C 11.992188 20.501302 5.501302 18.11849 5.501302 15.182292 M 5.501302 23.216146 C 5.501302 26.686198 11.992188 29.498698 20 29.498698 C 28.007812 29.498698 34.498698 26.686198 34.498698 23.216146 " transform="matrix(0.6,0,0,0.6,0,0)"/>
<path style=" stroke:none;fill-rule:nonzero;fill:rgb(61.176473%,67.450982%,74.117649%);fill-opacity:1;" d="M 15.023438 18.300781 L 17.699219 18.300781 L 17.699219 13.5 L 20.699219 13.5 L 20.699219 18.300781 L 23.375 18.300781 L 19.199219 23.519531 Z M 15.023438 18.300781 "/>
<path style=" stroke:none;fill-rule:nonzero;fill:rgb(21.176471%,25.098041%,30.19608%);fill-opacity:1;" d="M 20.398438 13.800781 L 20.398438 18.601562 L 22.75 18.601562 L 19.199219 23.039062 L 15.648438 18.601562 L 18 18.601562 L 18 13.800781 L 20.398438 13.800781 M 21 13.199219 L 17.398438 13.199219 L 17.398438 18 L 14.398438 18 L 19.199219 24 L 24 18 L 21 18 Z M 21 13.199219 "/>
<path style=" stroke:none;fill-rule:nonzero;fill:rgb(86.274511%,83.529413%,94.901961%);fill-opacity:1;" d="M 14.398438 18 L 17.398438 18 L 17.398438 13.199219 L 21 13.199219 C 21 12.804688 21 12.402344 21 12 L 19.199219 12 L 16.199219 13.199219 L 16.199219 16.800781 L 11.902344 16.800781 L 16.71875 22.816406 C 17.152344 22.699219 17.558594 22.570312 17.941406 22.425781 Z M 14.398438 18 "/>
</g>
</g>
</svg>
