<?xml version="1.0" encoding="UTF-8"?>
<svg xmlns="http://www.w3.org/2000/svg" xmlns:xlink="http://www.w3.org/1999/xlink" width="32" height="32" viewBox="0 0 32 32" version="1.1">
<g transform="scale(1.33333333)">
<g id="surface746">
<path style="fill:none;stroke-width:1;stroke-linecap:butt;stroke-linejoin:miter;stroke:rgb(40.000001%,47.450981%,56.078434%);stroke-opacity:1;stroke-miterlimit:10;" d="M 35 16.002604 L 20 20 M 30 35 L 20 20 L 23.001302 5 M 5 16.002604 L 20 20 L 11.998698 35 " transform="matrix(0.6,0,0,0.6,0,0)"/>
<path style=" stroke:none;fill-rule:nonzero;fill:rgb(54.509807%,71.764708%,94.117647%);fill-opacity:1;" d="M 12 9.300781 C 10.507812 9.300781 9.300781 10.507812 9.300781 12 C 9.300781 13.492188 10.507812 14.699219 12 14.699219 C 13.492188 14.699219 14.699219 13.492188 14.699219 12 C 14.699219 10.507812 13.492188 9.300781 12 9.300781 Z M 12 9.300781 "/>
<path style=" stroke:none;fill-rule:nonzero;fill:rgb(30.588236%,47.843137%,70.980394%);fill-opacity:1;" d="M 12 9.601562 C 13.324219 9.601562 14.398438 10.675781 14.398438 12 C 14.398438 13.324219 13.324219 14.398438 12 14.398438 C 10.675781 14.398438 9.601562 13.324219 9.601562 12 C 9.601562 10.675781 10.675781 9.601562 12 9.601562 M 12 9 C 10.34375 9 9 10.34375 9 12 C 9 13.65625 10.34375 15 12 15 C 13.65625 15 15 13.65625 15 12 C 15 10.34375 13.65625 9 12 9 Z M 12 9 "/>
<path style=" stroke:none;fill-rule:nonzero;fill:rgb(72.941178%,87.843138%,74.117649%);fill-opacity:1;" d="M 13.800781 0.898438 C 12.640625 0.898438 11.699219 1.839844 11.699219 3 C 11.699219 4.160156 12.640625 5.101562 13.800781 5.101562 C 14.960938 5.101562 15.898438 4.160156 15.898438 3 C 15.898438 1.839844 14.960938 0.898438 13.800781 0.898438 Z M 13.800781 0.898438 "/>
<path style=" stroke:none;fill-rule:nonzero;fill:rgb(36.862746%,61.176473%,46.27451%);fill-opacity:1;" d="M 13.800781 1.199219 C 14.792969 1.199219 15.601562 2.007812 15.601562 3 C 15.601562 3.992188 14.792969 4.800781 13.800781 4.800781 C 12.808594 4.800781 12 3.992188 12 3 C 12 2.007812 12.808594 1.199219 13.800781 1.199219 M 13.800781 0.601562 C 12.472656 0.601562 11.398438 1.675781 11.398438 3 C 11.398438 4.324219 12.472656 5.398438 13.800781 5.398438 C 15.125 5.398438 16.199219 4.324219 16.199219 3 C 16.199219 1.675781 15.125 0.601562 13.800781 0.601562 Z M 13.800781 0.601562 "/>
<path style=" stroke:none;fill-rule:nonzero;fill:rgb(72.941178%,87.843138%,74.117649%);fill-opacity:1;" d="M 21 7.5 C 19.839844 7.5 18.898438 8.441406 18.898438 9.601562 C 18.898438 10.761719 19.839844 11.699219 21 11.699219 C 22.160156 11.699219 23.101562 10.761719 23.101562 9.601562 C 23.101562 8.441406 22.160156 7.5 21 7.5 Z M 21 7.5 "/>
<path style=" stroke:none;fill-rule:nonzero;fill:rgb(36.862746%,61.176473%,46.27451%);fill-opacity:1;" d="M 21 7.800781 C 21.992188 7.800781 22.800781 8.609375 22.800781 9.601562 C 22.800781 10.59375 21.992188 11.398438 21 11.398438 C 20.007812 11.398438 19.199219 10.59375 19.199219 9.601562 C 19.199219 8.609375 20.007812 7.800781 21 7.800781 M 21 7.199219 C 19.675781 7.199219 18.601562 8.273438 18.601562 9.601562 C 18.601562 10.925781 19.675781 12 21 12 C 22.324219 12 23.398438 10.925781 23.398438 9.601562 C 23.398438 8.273438 22.324219 7.199219 21 7.199219 Z M 21 7.199219 "/>
<path style=" stroke:none;fill-rule:nonzero;fill:rgb(72.941178%,87.843138%,74.117649%);fill-opacity:1;" d="M 18 18.898438 C 16.839844 18.898438 15.898438 19.839844 15.898438 21 C 15.898438 22.160156 16.839844 23.101562 18 23.101562 C 19.160156 23.101562 20.101562 22.160156 20.101562 21 C 20.101562 19.839844 19.160156 18.898438 18 18.898438 Z M 18 18.898438 "/>
<path style=" stroke:none;fill-rule:nonzero;fill:rgb(36.862746%,61.176473%,46.27451%);fill-opacity:1;" d="M 18 19.199219 C 18.992188 19.199219 19.800781 20.007812 19.800781 21 C 19.800781 21.992188 18.992188 22.800781 18 22.800781 C 17.007812 22.800781 16.199219 21.992188 16.199219 21 C 16.199219 20.007812 17.007812 19.199219 18 19.199219 M 18 18.601562 C 16.675781 18.601562 15.601562 19.675781 15.601562 21 C 15.601562 22.324219 16.675781 23.398438 18 23.398438 C 19.324219 23.398438 20.398438 22.324219 20.398438 21 C 20.398438 19.675781 19.324219 18.601562 18 18.601562 Z M 18 18.601562 "/>
<path style=" stroke:none;fill-rule:nonzero;fill:rgb(72.941178%,87.843138%,74.117649%);fill-opacity:1;" d="M 7.199219 18.898438 C 6.039062 18.898438 5.101562 19.839844 5.101562 21 C 5.101562 22.160156 6.039062 23.101562 7.199219 23.101562 C 8.359375 23.101562 9.300781 22.160156 9.300781 21 C 9.300781 19.839844 8.359375 18.898438 7.199219 18.898438 Z M 7.199219 18.898438 "/>
<path style=" stroke:none;fill-rule:nonzero;fill:rgb(36.862746%,61.176473%,46.27451%);fill-opacity:1;" d="M 7.199219 19.199219 C 8.191406 19.199219 9 20.007812 9 21 C 9 21.992188 8.191406 22.800781 7.199219 22.800781 C 6.207031 22.800781 5.398438 21.992188 5.398438 21 C 5.398438 20.007812 6.207031 19.199219 7.199219 19.199219 M 7.199219 18.601562 C 5.875 18.601562 4.800781 19.675781 4.800781 21 C 4.800781 22.324219 5.875 23.398438 7.199219 23.398438 C 8.527344 23.398438 9.601562 22.324219 9.601562 21 C 9.601562 19.675781 8.527344 18.601562 7.199219 18.601562 Z M 7.199219 18.601562 "/>
<path style=" stroke:none;fill-rule:nonzero;fill:rgb(72.941178%,87.843138%,74.117649%);fill-opacity:1;" d="M 3 7.5 C 1.839844 7.5 0.898438 8.441406 0.898438 9.601562 C 0.898438 10.761719 1.839844 11.699219 3 11.699219 C 4.160156 11.699219 5.101562 10.761719 5.101562 9.601562 C 5.101562 8.441406 4.160156 7.5 3 7.5 Z M 3 7.5 "/>
<path style=" stroke:none;fill-rule:nonzero;fill:rgb(36.862746%,61.176473%,46.27451%);fill-opacity:1;" d="M 3 7.800781 C 3.992188 7.800781 4.800781 8.609375 4.800781 9.601562 C 4.800781 10.59375 3.992188 11.398438 3 11.398438 C 2.007812 11.398438 1.199219 10.59375 1.199219 9.601562 C 1.199219 8.609375 2.007812 7.800781 3 7.800781 M 3 7.199219 C 1.675781 7.199219 0.601562 8.273438 0.601562 9.601562 C 0.601562 10.925781 1.675781 12 3 12 C 4.324219 12 5.398438 10.925781 5.398438 9.601562 C 5.398438 8.273438 4.324219 7.199219 3 7.199219 Z M 3 7.199219 "/>
</g>
</g>
</svg>
