<?xml version="1.0" encoding="UTF-8"?>
<svg xmlns="http://www.w3.org/2000/svg" xmlns:xlink="http://www.w3.org/1999/xlink" width="32" height="32" viewBox="0 0 32 32" version="1.1">
<g transform="scale(1.33333333)">
<g id="surface810">
<path style=" stroke:none;fill-rule:nonzero;fill:rgb(96.078432%,80.784315%,52.156866%);fill-opacity:1;" d="M 2.101562 0.898438 L 20.101562 0.898438 L 20.101562 17.101562 L 2.101562 17.101562 Z M 2.101562 0.898438 "/>
<path style=" stroke:none;fill-rule:nonzero;fill:rgb(58.823532%,47.843137%,26.666668%);fill-opacity:1;" d="M 19.800781 1.199219 L 19.800781 16.800781 L 2.398438 16.800781 L 2.398438 1.199219 L 19.800781 1.199219 M 20.398438 0.601562 L 1.800781 0.601562 L 1.800781 17.398438 L 20.398438 17.398438 Z M 20.398438 0.601562 "/>
<path style=" stroke:none;fill-rule:nonzero;fill:rgb(58.823532%,47.843137%,26.666668%);fill-opacity:1;" d="M 12.898438 5.398438 L 9.300781 5.398438 C 8.804688 5.398438 8.398438 4.996094 8.398438 4.5 C 8.398438 4.003906 8.804688 3.601562 9.300781 3.601562 L 12.898438 3.601562 C 13.398438 3.601562 13.800781 4.003906 13.800781 4.5 C 13.800781 4.996094 13.398438 5.398438 12.898438 5.398438 Z M 12.898438 5.398438 "/>
<path style=" stroke:none;fill-rule:nonzero;fill:rgb(88.235295%,92.156863%,94.901961%);fill-opacity:1;" d="M 0.898438 23.101562 L 0.898438 17.101562 L 20.101562 17.101562 C 21.753906 17.101562 23.101562 18.445312 23.101562 20.101562 C 23.101562 21.753906 21.753906 23.101562 20.101562 23.101562 Z M 0.898438 23.101562 "/>
<path style=" stroke:none;fill-rule:nonzero;fill:rgb(40.000001%,47.450981%,56.078434%);fill-opacity:1;" d="M 20.101562 17.398438 C 21.589844 17.398438 22.800781 18.613281 22.800781 20.101562 C 22.800781 21.589844 21.589844 22.800781 20.101562 22.800781 L 1.199219 22.800781 L 1.199219 17.398438 L 20.101562 17.398438 M 20.101562 16.800781 L 0.601562 16.800781 L 0.601562 23.398438 L 20.101562 23.398438 C 21.914062 23.398438 23.398438 21.914062 23.398438 20.101562 C 23.398438 18.285156 21.914062 16.800781 20.101562 16.800781 Z M 20.101562 16.800781 "/>
<path style=" stroke:none;fill-rule:nonzero;fill:rgb(88.235295%,92.156863%,94.901961%);fill-opacity:1;" d="M 0.601562 17.398438 L 1.800781 17.398438 L 1.800781 22.800781 L 0.601562 22.800781 Z M 0.601562 17.398438 "/>
<path style=" stroke:none;fill-rule:nonzero;fill:rgb(69.01961%,75.686276%,83.137256%);fill-opacity:1;" d="M 20.101562 18.898438 C 19.4375 18.898438 18.898438 19.4375 18.898438 20.101562 C 18.898438 20.761719 19.4375 21.300781 20.101562 21.300781 C 20.761719 21.300781 21.300781 20.761719 21.300781 20.101562 C 21.300781 19.4375 20.761719 18.898438 20.101562 18.898438 Z M 20.101562 18.898438 "/>
<path style=" stroke:none;fill-rule:nonzero;fill:rgb(40.000001%,47.450981%,56.078434%);fill-opacity:1;" d="M 20.101562 19.199219 C 20.597656 19.199219 21 19.605469 21 20.101562 C 21 20.597656 20.597656 21 20.101562 21 C 19.605469 21 19.199219 20.597656 19.199219 20.101562 C 19.199219 19.605469 19.605469 19.199219 20.101562 19.199219 M 20.101562 18.601562 C 19.269531 18.601562 18.601562 19.269531 18.601562 20.101562 C 18.601562 20.929688 19.269531 21.601562 20.101562 21.601562 C 20.929688 21.601562 21.601562 20.929688 21.601562 20.101562 C 21.601562 19.269531 20.929688 18.601562 20.101562 18.601562 Z M 20.101562 18.601562 "/>
<path style=" stroke:none;fill-rule:nonzero;fill:rgb(69.01961%,75.686276%,83.137256%);fill-opacity:1;" d="M 15.898438 18.898438 C 15.238281 18.898438 14.699219 19.4375 14.699219 20.101562 C 14.699219 20.761719 15.238281 21.300781 15.898438 21.300781 C 16.5625 21.300781 17.101562 20.761719 17.101562 20.101562 C 17.101562 19.4375 16.5625 18.898438 15.898438 18.898438 Z M 15.898438 18.898438 "/>
<path style=" stroke:none;fill-rule:nonzero;fill:rgb(40.000001%,47.450981%,56.078434%);fill-opacity:1;" d="M 15.898438 19.199219 C 16.394531 19.199219 16.800781 19.605469 16.800781 20.101562 C 16.800781 20.597656 16.394531 21 15.898438 21 C 15.402344 21 15 20.597656 15 20.101562 C 15 19.605469 15.402344 19.199219 15.898438 19.199219 M 15.898438 18.601562 C 15.070312 18.601562 14.398438 19.269531 14.398438 20.101562 C 14.398438 20.929688 15.070312 21.601562 15.898438 21.601562 C 16.730469 21.601562 17.398438 20.929688 17.398438 20.101562 C 17.398438 19.269531 16.730469 18.601562 15.898438 18.601562 Z M 15.898438 18.601562 "/>
<path style=" stroke:none;fill-rule:nonzero;fill:rgb(69.01961%,75.686276%,83.137256%);fill-opacity:1;" d="M 11.699219 18.898438 C 11.039062 18.898438 10.5 19.4375 10.5 20.101562 C 10.5 20.761719 11.039062 21.300781 11.699219 21.300781 C 12.363281 21.300781 12.898438 20.761719 12.898438 20.101562 C 12.898438 19.4375 12.363281 18.898438 11.699219 18.898438 Z M 11.699219 18.898438 "/>
<path style=" stroke:none;fill-rule:nonzero;fill:rgb(40.000001%,47.450981%,56.078434%);fill-opacity:1;" d="M 11.699219 19.199219 C 12.195312 19.199219 12.601562 19.605469 12.601562 20.101562 C 12.601562 20.597656 12.195312 21 11.699219 21 C 11.203125 21 10.800781 20.597656 10.800781 20.101562 C 10.800781 19.605469 11.203125 19.199219 11.699219 19.199219 M 11.699219 18.601562 C 10.871094 18.601562 10.199219 19.269531 10.199219 20.101562 C 10.199219 20.929688 10.871094 21.601562 11.699219 21.601562 C 12.527344 21.601562 13.199219 20.929688 13.199219 20.101562 C 13.199219 19.269531 12.527344 18.601562 11.699219 18.601562 Z M 11.699219 18.601562 "/>
<path style=" stroke:none;fill-rule:nonzero;fill:rgb(69.01961%,75.686276%,83.137256%);fill-opacity:1;" d="M 7.5 18.898438 C 6.835938 18.898438 6.300781 19.4375 6.300781 20.101562 C 6.300781 20.761719 6.835938 21.300781 7.5 21.300781 C 8.164062 21.300781 8.699219 20.761719 8.699219 20.101562 C 8.699219 19.4375 8.164062 18.898438 7.5 18.898438 Z M 7.5 18.898438 "/>
<path style=" stroke:none;fill-rule:nonzero;fill:rgb(40.000001%,47.450981%,56.078434%);fill-opacity:1;" d="M 7.5 19.199219 C 7.996094 19.199219 8.398438 19.605469 8.398438 20.101562 C 8.398438 20.597656 7.996094 21 7.5 21 C 7.003906 21 6.601562 20.597656 6.601562 20.101562 C 6.601562 19.605469 7.003906 19.199219 7.5 19.199219 M 7.5 18.601562 C 6.671875 18.601562 6 19.269531 6 20.101562 C 6 20.929688 6.671875 21.601562 7.5 21.601562 C 8.328125 21.601562 9 20.929688 9 20.101562 C 9 19.269531 8.328125 18.601562 7.5 18.601562 Z M 7.5 18.601562 "/>
<path style=" stroke:none;fill-rule:nonzero;fill:rgb(69.01961%,75.686276%,83.137256%);fill-opacity:1;" d="M 3.300781 18.898438 C 2.636719 18.898438 2.101562 19.4375 2.101562 20.101562 C 2.101562 20.761719 2.636719 21.300781 3.300781 21.300781 C 3.960938 21.300781 4.5 20.761719 4.5 20.101562 C 4.5 19.4375 3.960938 18.898438 3.300781 18.898438 Z M 3.300781 18.898438 "/>
<path style=" stroke:none;fill-rule:nonzero;fill:rgb(40.000001%,47.450981%,56.078434%);fill-opacity:1;" d="M 3.300781 19.199219 C 3.796875 19.199219 4.199219 19.605469 4.199219 20.101562 C 4.199219 20.597656 3.796875 21 3.300781 21 C 2.804688 21 2.398438 20.597656 2.398438 20.101562 C 2.398438 19.605469 2.804688 19.199219 3.300781 19.199219 M 3.300781 18.601562 C 2.472656 18.601562 1.800781 19.269531 1.800781 20.101562 C 1.800781 20.929688 2.472656 21.601562 3.300781 21.601562 C 4.128906 21.601562 4.800781 20.929688 4.800781 20.101562 C 4.800781 19.269531 4.128906 18.601562 3.300781 18.601562 Z M 3.300781 18.601562 "/>
</g>
</g>
</svg>
