<?xml version="1.0" encoding="UTF-8"?>
<svg xmlns="http://www.w3.org/2000/svg" xmlns:xlink="http://www.w3.org/1999/xlink" width="32" height="32" viewBox="0 0 32 32" version="1.1">
<g transform="scale(1.33333333)">
<g id="surface897">
<path style=" stroke:none;fill-rule:nonzero;fill:rgb(100%,76.862746%,61.176473%);fill-opacity:1;" d="M 1.5 22.5 L 1.5 4.90625 L 3.742188 2.101562 L 20.253906 2.101562 L 22.5 4.90625 L 22.5 22.5 Z M 1.5 22.5 "/>
<path style=" stroke:none;fill-rule:nonzero;fill:rgb(63.137257%,41.568628%,29.019609%);fill-opacity:1;" d="M 20.113281 2.398438 L 22.199219 5.011719 L 22.199219 22.199219 L 1.800781 22.199219 L 1.800781 5.011719 L 3.886719 2.398438 L 20.113281 2.398438 M 20.398438 1.800781 L 3.601562 1.800781 L 1.199219 4.800781 L 1.199219 22.800781 L 22.800781 22.800781 L 22.800781 4.800781 Z M 20.398438 1.800781 "/>
<path style=" stroke:none;fill-rule:nonzero;fill:rgb(83.92157%,59.215689%,42.745098%);fill-opacity:1;" d="M 1.5 5.101562 L 1.5 4.90625 L 3.742188 2.101562 L 20.253906 2.101562 L 22.5 4.90625 L 22.5 5.101562 Z M 1.5 5.101562 "/>
<path style=" stroke:none;fill-rule:nonzero;fill:rgb(63.137257%,41.568628%,29.019609%);fill-opacity:1;" d="M 20.113281 2.398438 L 22.03125 4.800781 L 1.96875 4.800781 L 3.886719 2.398438 L 20.113281 2.398438 M 20.398438 1.800781 L 3.601562 1.800781 L 1.199219 4.800781 L 1.199219 5.398438 L 22.800781 5.398438 L 22.800781 4.800781 Z M 20.398438 1.800781 "/>
<path style=" stroke:none;fill-rule:nonzero;fill:rgb(88.235295%,92.156863%,94.901961%);fill-opacity:1;" d="M 3.574219 5.101562 L 9.859375 0.957031 L 16.292969 5.101562 Z M 3.574219 5.101562 "/>
<path style=" stroke:none;fill-rule:nonzero;fill:rgb(47.058824%,54.509807%,61.176473%);fill-opacity:1;" d="M 9.859375 1.316406 L 15.273438 4.800781 L 4.574219 4.800781 L 9.859375 1.316406 M 9.855469 0.601562 L 2.570312 5.398438 L 17.3125 5.398438 Z M 9.855469 0.601562 "/>
<path style=" stroke:none;fill-rule:nonzero;fill:rgb(100%,100%,100%);fill-opacity:1;" d="M 6.910156 5.101562 L 13.789062 0.957031 L 19.859375 5.101562 Z M 6.910156 5.101562 "/>
<path style=" stroke:none;fill-rule:nonzero;fill:rgb(47.058824%,54.509807%,61.176473%);fill-opacity:1;" d="M 13.78125 1.3125 L 18.886719 4.800781 L 7.988281 4.800781 L 13.78125 1.3125 M 13.800781 0.601562 L 5.828125 5.398438 L 20.828125 5.398438 Z M 13.800781 0.601562 "/>
<path style="fill:none;stroke-width:1;stroke-linecap:butt;stroke-linejoin:miter;stroke:rgb(63.137257%,41.568628%,29.019609%);stroke-opacity:1;stroke-miterlimit:10;" d="M 1.998698 8.502604 L 38.001302 8.502604 " transform="matrix(0.6,0,0,0.6,0,0)"/>
<path style=" stroke:none;fill-rule:nonzero;fill:rgb(63.137257%,41.568628%,29.019609%);fill-opacity:1;" d="M 14.398438 7.800781 L 9.601562 7.800781 C 9.269531 7.800781 9 8.070312 9 8.398438 C 9 8.730469 9.269531 9 9.601562 9 L 14.398438 9 C 14.730469 9 15 8.730469 15 8.398438 C 15 8.070312 14.730469 7.800781 14.398438 7.800781 Z M 14.398438 7.800781 "/>
</g>
</g>
</svg>
