<?xml version="1.0" encoding="UTF-8"?>
<svg xmlns="http://www.w3.org/2000/svg" xmlns:xlink="http://www.w3.org/1999/xlink" width="32" height="32" viewBox="0 0 32 32" version="1.1">
<g transform="scale(1.33333333)">
<g id="surface968">
<path style=" stroke:none;fill-rule:nonzero;fill:rgb(100%,100%,100%);fill-opacity:1;" d="M 4.5 0.898438 L 23.101562 0.898438 L 23.101562 19.5 L 4.5 19.5 Z M 4.5 0.898438 "/>
<path style=" stroke:none;fill-rule:nonzero;fill:rgb(47.058824%,54.509807%,61.176473%);fill-opacity:1;" d="M 22.800781 1.199219 L 22.800781 19.199219 L 4.800781 19.199219 L 4.800781 1.199219 L 22.800781 1.199219 M 23.398438 0.601562 L 4.199219 0.601562 L 4.199219 19.800781 L 23.398438 19.800781 Z M 23.398438 0.601562 "/>
<path style=" stroke:none;fill-rule:nonzero;fill:rgb(47.058824%,54.509807%,61.176473%);fill-opacity:1;" d="M 4.199219 0.601562 L 23.398438 0.601562 L 23.398438 4.199219 L 4.199219 4.199219 Z M 4.199219 0.601562 "/>
<path style=" stroke:none;fill-rule:nonzero;fill:rgb(78.431374%,81.960785%,85.882354%);fill-opacity:1;" d="M 4.800781 19.199219 L 4.800781 15.601562 L 4.199219 16.199219 L 4.199219 19.800781 L 7.410156 19.800781 L 8.007812 19.199219 Z M 4.800781 19.199219 "/>
<path style=" stroke:none;fill-rule:nonzero;fill:rgb(54.509807%,71.764708%,94.117647%);fill-opacity:1;" d="M 1.023438 21.441406 L 11.746094 10.71875 L 9.722656 8.699219 L 15.300781 8.699219 L 15.300781 14.277344 L 13.28125 12.253906 L 2.558594 22.976562 Z M 1.023438 21.441406 "/>
<path style=" stroke:none;fill-rule:nonzero;fill:rgb(30.588236%,47.843137%,70.980394%);fill-opacity:1;" d="M 15 9 L 15 13.550781 L 13.28125 11.832031 L 12.855469 12.253906 L 2.558594 22.550781 L 1.449219 21.441406 L 11.746094 11.144531 L 12.167969 10.71875 L 10.449219 9 L 15 9 M 15.601562 8.398438 L 9 8.398438 L 11.320312 10.71875 L 0.601562 21.441406 L 2.558594 23.398438 L 13.28125 12.679688 L 15.601562 15 Z M 15.601562 8.398438 "/>
</g>
</g>
</svg>
