<?xml version="1.0" encoding="UTF-8"?>
<svg xmlns="http://www.w3.org/2000/svg" xmlns:xlink="http://www.w3.org/1999/xlink" width="32" height="32" viewBox="0 0 32 32" version="1.1">
<g transform="scale(1.33333333)">
<g id="surface993">
<path style=" stroke:none;fill-rule:nonzero;fill:rgb(90.980393%,83.137256%,48.235294%);fill-opacity:1;" d="M 0.898438 21.300781 L 0.898438 2.699219 L 7.074219 2.699219 L 8.875 4.5 L 23.101562 4.5 L 23.101562 21.300781 Z M 0.898438 21.300781 "/>
<path style=" stroke:none;fill-rule:nonzero;fill:rgb(72.941178%,60.784316%,28.235295%);fill-opacity:1;" d="M 6.953125 3 L 8.574219 4.625 L 8.75 4.800781 L 22.800781 4.800781 L 22.800781 21 L 1.199219 21 L 1.199219 3 L 6.953125 3 M 7.199219 2.398438 L 0.601562 2.398438 L 0.601562 21.601562 L 23.398438 21.601562 L 23.398438 4.199219 L 9 4.199219 Z M 7.199219 2.398438 "/>
<path style=" stroke:none;fill-rule:nonzero;fill:rgb(100%,93.333334%,63.921571%);fill-opacity:1;" d="M 0.898438 21.300781 L 0.898438 5.699219 L 7.289062 5.699219 L 9.089844 4.5 L 23.101562 4.5 L 23.101562 21.300781 Z M 0.898438 21.300781 "/>
<path style=" stroke:none;fill-rule:nonzero;fill:rgb(72.941178%,60.784316%,28.235295%);fill-opacity:1;" d="M 22.800781 4.800781 L 22.800781 21 L 1.199219 21 L 1.199219 6 L 7.382812 6 L 7.53125 5.898438 L 9.183594 4.800781 L 22.800781 4.800781 M 23.398438 4.199219 L 9 4.199219 L 7.199219 5.398438 L 0.601562 5.398438 L 0.601562 21.601562 L 23.398438 21.601562 Z M 23.398438 4.199219 "/>
<path style=" stroke:none;fill-rule:nonzero;fill:rgb(100%,93.333334%,63.921571%);fill-opacity:1;" d="M 7.800781 19.800781 L 16.199219 19.800781 L 16.199219 21.601562 L 7.800781 21.601562 Z M 7.800781 19.800781 "/>
<path style=" stroke:none;fill-rule:nonzero;fill:rgb(78.039217%,26.274511%,26.274511%);fill-opacity:1;" d="M 11.398438 15 L 11.398438 23.398438 L 12.601562 23.398438 L 12.601562 15 L 16.199219 15 L 12 10.800781 L 7.800781 15 Z M 11.398438 15 "/>
<path style=" stroke:none;fill-rule:nonzero;fill:rgb(100%,93.333334%,63.921571%);fill-opacity:1;" d="M 15 4.199219 L 23.398438 4.199219 L 23.398438 12.601562 L 15 12.601562 Z M 15 4.199219 "/>
<path style=" stroke:none;fill-rule:nonzero;fill:rgb(78.039217%,26.274511%,26.274511%);fill-opacity:1;" d="M 21 4.199219 C 21 5.527344 22.074219 6.601562 23.398438 6.601562 L 23.398438 4.199219 Z M 21 4.199219 "/>
<path style="fill:none;stroke-width:1;stroke-linecap:butt;stroke-linejoin:miter;stroke:rgb(78.039217%,26.274511%,26.274511%);stroke-opacity:1;stroke-miterlimit:10;" d="M 38.997396 14.498698 C 34.856771 14.498698 31.497396 11.139323 31.497396 6.998698 M 38.997396 18.502604 C 32.64974 18.502604 27.5 13.352865 27.5 6.998698 " transform="matrix(0.6,0,0,0.6,0,0)"/>
</g>
</g>
</svg>
