<?xml version="1.0" encoding="UTF-8"?>
<svg xmlns="http://www.w3.org/2000/svg" xmlns:xlink="http://www.w3.org/1999/xlink" width="32" height="32" viewBox="0 0 32 32" version="1.1">
<g transform="scale(1.33333333)">
<g id="surface1013">
<path style="fill:none;stroke-width:2;stroke-linecap:butt;stroke-linejoin:miter;stroke:rgb(40.000001%,47.450981%,56.078434%);stroke-opacity:1;stroke-miterlimit:10;" d="M 26.998698 17.402344 C 26.998698 17.402344 26.998698 9.283854 26.998698 8.997396 C 26.998698 5.136719 23.867188 1.998698 20 1.998698 C 16.132812 1.998698 13.001302 5.136719 13.001302 8.997396 C 13.001302 9.283854 13.001302 17.402344 13.001302 17.402344 " transform="matrix(0.6,0,0,0.6,0,0)"/>
<path style=" stroke:none;fill-rule:nonzero;fill:rgb(54.509807%,71.764708%,94.117647%);fill-opacity:1;" d="M 12 23.101562 C 7.863281 23.101562 4.5 19.734375 4.5 15.601562 C 4.5 11.464844 7.863281 8.101562 12 8.101562 C 16.136719 8.101562 19.5 11.464844 19.5 15.601562 C 19.5 19.734375 16.136719 23.101562 12 23.101562 Z M 12 23.101562 "/>
<path style=" stroke:none;fill-rule:nonzero;fill:rgb(30.588236%,47.843137%,70.980394%);fill-opacity:1;" d="M 12 8.398438 C 15.96875 8.398438 19.199219 11.628906 19.199219 15.601562 C 19.199219 19.570312 15.96875 22.800781 12 22.800781 C 8.03125 22.800781 4.800781 19.570312 4.800781 15.601562 C 4.800781 11.628906 8.03125 8.398438 12 8.398438 M 12 7.800781 C 7.691406 7.800781 4.199219 11.292969 4.199219 15.601562 C 4.199219 19.90625 7.691406 23.398438 12 23.398438 C 16.308594 23.398438 19.800781 19.90625 19.800781 15.601562 C 19.800781 11.292969 16.308594 7.800781 12 7.800781 Z M 12 7.800781 "/>
<path style=" stroke:none;fill-rule:nonzero;fill:rgb(85.882354%,94.901961%,100%);fill-opacity:1;" d="M 12 10.800781 C 9.347656 10.800781 7.199219 12.949219 7.199219 15.601562 C 7.199219 18.25 9.347656 20.398438 12 20.398438 C 14.652344 20.398438 16.800781 18.25 16.800781 15.601562 C 16.800781 12.949219 14.652344 10.800781 12 10.800781 Z M 12 10.800781 "/>
<path style=" stroke:none;fill-rule:nonzero;fill:rgb(21.176471%,25.098041%,30.19608%);fill-opacity:1;" d="M 11.398438 15.601562 L 12.601562 15.601562 L 12.601562 18.601562 L 11.398438 18.601562 Z M 11.398438 15.601562 "/>
</g>
</g>
</svg>
