<?xml version="1.0" encoding="UTF-8"?>
<svg xmlns="http://www.w3.org/2000/svg" xmlns:xlink="http://www.w3.org/1999/xlink" width="32" height="32" viewBox="0 0 32 32" version="1.1">
<g transform="scale(1.33333333)">
<g id="surface1198">
<path style=" stroke:none;fill-rule:nonzero;fill:rgb(54.509807%,71.764708%,94.117647%);fill-opacity:1;" d="M 1.5 22.5 L 1.5 16.324219 L 3.601562 18.425781 L 7.800781 14.222656 L 9.777344 16.199219 L 5.574219 20.398438 L 7.675781 22.5 Z M 1.5 22.5 "/>
<path style=" stroke:none;fill-rule:nonzero;fill:rgb(30.588236%,47.843137%,70.980394%);fill-opacity:1;" d="M 7.800781 14.648438 L 9.351562 16.199219 L 5.152344 20.398438 L 5.574219 20.824219 L 6.953125 22.199219 L 1.800781 22.199219 L 1.800781 17.046875 L 3.175781 18.425781 L 3.601562 18.847656 L 7.800781 14.648438 M 7.800781 13.800781 L 3.601562 18 L 1.199219 15.601562 L 1.199219 22.800781 L 8.398438 22.800781 L 6 20.398438 L 10.199219 16.199219 Z M 7.800781 13.800781 "/>
<path style=" stroke:none;fill-rule:nonzero;fill:rgb(54.509807%,71.764708%,94.117647%);fill-opacity:1;" d="M 3.601562 5.574219 L 1.5 7.675781 L 1.5 1.5 L 7.675781 1.5 L 5.574219 3.601562 L 9.777344 7.800781 L 7.800781 9.777344 Z M 3.601562 5.574219 "/>
<path style=" stroke:none;fill-rule:nonzero;fill:rgb(30.588236%,47.843137%,70.980394%);fill-opacity:1;" d="M 6.953125 1.800781 L 5.574219 3.175781 L 5.152344 3.601562 L 9.351562 7.800781 L 7.800781 9.351562 L 3.601562 5.152344 L 3.175781 5.574219 L 1.800781 6.953125 L 1.800781 1.800781 L 6.953125 1.800781 M 8.398438 1.199219 L 1.199219 1.199219 L 1.199219 8.398438 L 3.601562 6 L 7.800781 10.199219 L 10.199219 7.800781 L 6 3.601562 Z M 8.398438 1.199219 "/>
<path style=" stroke:none;fill-rule:nonzero;fill:rgb(54.509807%,71.764708%,94.117647%);fill-opacity:1;" d="M 16.324219 22.5 L 18.421875 20.402344 L 14.203125 16.085938 L 16.195312 14.21875 L 20.398438 18.425781 L 22.5 16.324219 L 22.5 22.5 Z M 16.324219 22.5 "/>
<path style=" stroke:none;fill-rule:nonzero;fill:rgb(30.588236%,47.843137%,70.980394%);fill-opacity:1;" d="M 16.1875 14.636719 L 20.398438 18.847656 L 20.824219 18.425781 L 22.199219 17.046875 L 22.199219 22.199219 L 17.046875 22.199219 L 18.425781 20.824219 L 18.84375 20.40625 L 18.429688 19.980469 L 14.632812 16.097656 L 16.1875 14.636719 M 16.199219 13.800781 L 13.773438 16.078125 L 18 20.398438 L 15.601562 22.800781 L 22.800781 22.800781 L 22.800781 15.601562 L 20.398438 18 Z M 16.199219 13.800781 "/>
<path style=" stroke:none;fill-rule:nonzero;fill:rgb(54.509807%,71.764708%,94.117647%);fill-opacity:1;" d="M 14.222656 7.800781 L 18.425781 3.601562 L 16.324219 1.5 L 22.5 1.5 L 22.5 7.675781 L 20.398438 5.574219 L 16.199219 9.777344 Z M 14.222656 7.800781 "/>
<path style=" stroke:none;fill-rule:nonzero;fill:rgb(30.588236%,47.843137%,70.980394%);fill-opacity:1;" d="M 22.199219 1.800781 L 22.199219 6.953125 L 20.824219 5.574219 L 20.398438 5.152344 L 16.199219 9.351562 L 14.648438 7.800781 L 18.847656 3.601562 L 18.425781 3.175781 L 17.046875 1.800781 L 22.199219 1.800781 M 22.800781 1.199219 L 15.601562 1.199219 L 18 3.601562 L 13.800781 7.800781 L 16.199219 10.199219 L 20.398438 6 L 22.800781 8.398438 Z M 22.800781 1.199219 "/>
</g>
</g>
</svg>
