<?xml version="1.0" encoding="UTF-8" standalone="no"?>
<!DOCTYPE svg PUBLIC "-//W3C//DTD SVG 1.1//EN" "http://www.w3.org/Graphics/SVG/1.1/DTD/svg11.dtd">
<svg width="32" height="32" viewBox="0 0 32 32" version="1.1" xmlns="http://www.w3.org/2000/svg" xmlns:xlink="http://www.w3.org/1999/xlink" xml:space="preserve" xmlns:serif="http://www.serif.com/" style="fill-rule:evenodd;clip-rule:evenodd;stroke-linejoin:round;stroke-miterlimit:2;">
<g transform="scale(1.33333333)">
<g transform="scale(0.75)">
    <g transform="matrix(1.33333,0,0,1.33333,0,0)">
        <g transform="matrix(1,0,0,1,1.79883,0)">
            <g id="surface688">
                <g>
                    <path d="M2.102,22.5L2.102,1.5L13.074,1.5L18.301,6.723L18.301,22.5L2.102,22.5Z" style="fill:rgb(254,254,254);fill-rule:nonzero;"/>
                    <path d="M12.953,1.801L18,6.848L18,22.199L2.398,22.199L2.398,1.801L12.953,1.801M13.199,1.199L1.801,1.199L1.801,22.801L18.602,22.801L18.602,6.602L13.199,1.199Z" style="fill:rgb(120,139,156);fill-rule:nonzero;"/>
                    <path d="M12.898,6.898L12.898,1.5L13.074,1.5L18.301,6.723L18.301,6.898L12.898,6.898Z" style="fill:rgb(254,254,254);fill-rule:nonzero;"/>
                    <path d="M13.199,2.047L17.75,6.602L13.199,6.602L13.199,2.047M13.199,1.199L12.602,1.199L12.602,7.199L18.602,7.199L18.602,6.602L13.199,1.199Z" style="fill:rgb(120,139,156);fill-rule:nonzero;"/>
                    <path d="M4.199,5.398L6.602,5.398L6.602,4.801L4.199,4.801L4.199,5.398ZM8.398,4.801L8.398,5.398L12,5.398L12,4.801L8.398,4.801ZM4.199,6.602L6.602,6.602L6.602,6L4.199,6L4.199,6.602ZM8.398,6L8.398,6.602L12,6.602L12,6L8.398,6ZM4.199,7.801L6.602,7.801L6.602,7.199L4.199,7.199L4.199,7.801ZM13.801,7.199L13.801,7.801L16.199,7.801L16.199,7.199L13.801,7.199ZM8.398,7.801L12,7.801L12,7.199L8.398,7.199L8.398,7.801ZM4.199,18L6.602,18L6.602,17.398L4.199,17.398L4.199,18ZM13.801,17.398L13.801,18L16.199,18L16.199,17.398L13.801,17.398ZM8.398,18L12,18L12,17.398L8.398,17.398L8.398,18ZM4.199,19.199L6.602,19.199L6.602,18.602L4.199,18.602L4.199,19.199ZM13.801,18.602L13.801,19.199L16.199,19.199L16.199,18.602L13.801,18.602ZM8.398,19.199L12,19.199L12,18.602L8.398,18.602L8.398,19.199ZM4.199,20.398L6.602,20.398L6.602,19.801L4.199,19.801L4.199,20.398ZM13.801,19.801L13.801,20.398L16.199,20.398L16.199,19.801L13.801,19.801ZM8.398,20.398L12,20.398L12,19.801L8.398,19.801L8.398,20.398Z" style="fill:rgb(224,186,187);fill-rule:nonzero;"/>
                    <rect x="1.801" y="8.398" width="16.801" height="8.402" style="fill:rgb(156,94,98);"/>
                </g>
            </g>
        </g>
        <g transform="matrix(0.642787,0,0,0.642787,3.75952,5.02922)">
            <g transform="matrix(1.3103,0,0,1.3103,-4.54155,-8.95339)">
                <path d="M5.1,19.5L5.1,12.5L6.5,12.5L7.9,16.5L9.3,12.5L10.7,12.5L10.7,19.5L9.5,19.5L9.5,14.8L8.3,18.2L7.5,18.2L6.3,14.8L6.3,19.5L5.1,19.5Z" style="fill:rgb(254,254,254);fill-rule:nonzero;"/>
            </g>
            <g transform="matrix(1.3103,0,0,1.3103,1.22377,-8.95339)">
                <path d="M12.2,17L12.2,15.8L14.8,12.5L16,12.5L16,15.8L17,15.8L17,17L16,17L16,19.5L14.8,19.5L14.8,17L12.2,17ZM13.4,15.8L14.8,15.8L14.8,14.2L13.4,15.8Z" style="fill:rgb(254,254,254);"/>
            </g>
            <g transform="matrix(1.3103,0,0,1.3103,-12.4033,-8.95339)">
                <path d="M18.2,19.5L18.2,12.5L21.8,12.5L21.8,13.7L19.4,13.7L19.4,15.4L21.5,15.4L21.5,16.6L19.4,16.6L19.4,19.5L18.2,19.5Z" style="fill:rgb(254,254,254);fill-rule:nonzero;"/>
            </g>
        </g>
    </g>
</g>
</g>
</svg>
