<?xml version="1.0" encoding="UTF-8"?>
<svg xmlns="http://www.w3.org/2000/svg" xmlns:xlink="http://www.w3.org/1999/xlink" width="32" height="32" viewBox="0 0 32 32" version="1.1">
<g transform="scale(1.33333333)">
<g id="surface1373">
<path style=" stroke:none;fill-rule:nonzero;fill:rgb(96.078432%,80.784315%,52.156866%);fill-opacity:1;" d="M 12 23.101562 C 5.878906 23.101562 0.898438 18.121094 0.898438 12 C 0.898438 5.878906 5.878906 0.898438 12 0.898438 C 18.121094 0.898438 23.101562 5.878906 23.101562 12 C 23.101562 18.121094 18.121094 23.101562 12 23.101562 Z M 12 23.101562 "/>
<path style=" stroke:none;fill-rule:nonzero;fill:rgb(58.823532%,47.843137%,26.666668%);fill-opacity:1;" d="M 12 1.199219 C 17.953125 1.199219 22.800781 6.046875 22.800781 12 C 22.800781 17.953125 17.953125 22.800781 12 22.800781 C 6.046875 22.800781 1.199219 17.953125 1.199219 12 C 1.199219 6.046875 6.046875 1.199219 12 1.199219 M 12 0.601562 C 5.703125 0.601562 0.601562 5.703125 0.601562 12 C 0.601562 18.296875 5.703125 23.398438 12 23.398438 C 18.296875 23.398438 23.398438 18.296875 23.398438 12 C 23.398438 5.703125 18.296875 0.601562 12 0.601562 Z M 12 0.601562 "/>
<path style=" stroke:none;fill-rule:nonzero;fill:rgb(100%,100%,100%);fill-opacity:1;" d="M 20.699219 12 L 14.699219 12 L 17.699219 9 Z M 3.300781 12 L 9.300781 12 L 6.300781 15 Z M 3.300781 12 "/>
<path style=" stroke:none;fill-rule:nonzero;fill:rgb(100%,100%,100%);fill-opacity:1;" d="M 12 7.050781 C 13.363281 7.050781 14.597656 7.609375 15.496094 8.503906 L 16.660156 7.339844 C 15.46875 6.144531 13.824219 5.398438 12 5.398438 C 8.355469 5.398438 5.398438 8.355469 5.398438 12 C 5.398438 12.28125 5.421875 12.554688 5.457031 12.824219 L 7.125 12.824219 C 7.078125 12.554688 7.050781 12.28125 7.050781 12 C 7.050781 9.269531 9.269531 7.050781 12 7.050781 Z M 18.542969 11.175781 L 16.875 11.175781 C 16.921875 11.445312 16.949219 11.71875 16.949219 12 C 16.949219 14.730469 14.730469 16.949219 12 16.949219 C 10.636719 16.949219 9.402344 16.390625 8.503906 15.496094 L 7.339844 16.660156 C 8.53125 17.855469 10.175781 18.601562 12 18.601562 C 15.644531 18.601562 18.601562 15.644531 18.601562 12 C 18.601562 11.71875 18.578125 11.445312 18.542969 11.175781 Z M 18.542969 11.175781 "/>
</g>
</g>
</svg>
