<?xml version="1.0" encoding="UTF-8"?>
<svg xmlns="http://www.w3.org/2000/svg" xmlns:xlink="http://www.w3.org/1999/xlink" width="32" height="32" viewBox="0 0 32 32" version="1.1">
<g transform="scale(1.33333333)">
<g id="surface1462">
<path style=" stroke:none;fill-rule:nonzero;fill:rgb(85.882354%,69.01961%,39.607844%);fill-opacity:1;" d="M 0.898438 21.300781 L 0.898438 2.699219 L 7.074219 2.699219 L 8.875 4.5 L 23.101562 4.5 L 23.101562 21.300781 Z M 0.898438 21.300781 "/>
<path style=" stroke:none;fill-rule:nonzero;fill:rgb(58.823532%,47.843137%,26.666668%);fill-opacity:1;" d="M 6.953125 3 L 8.574219 4.625 L 8.75 4.800781 L 22.800781 4.800781 L 22.800781 21 L 1.199219 21 L 1.199219 3 L 6.953125 3 M 7.199219 2.398438 L 0.601562 2.398438 L 0.601562 21.601562 L 23.398438 21.601562 L 23.398438 4.199219 L 9 4.199219 Z M 7.199219 2.398438 "/>
<path style=" stroke:none;fill-rule:nonzero;fill:rgb(96.078432%,80.784315%,52.156866%);fill-opacity:1;" d="M 0.898438 21.300781 L 0.898438 5.699219 L 7.289062 5.699219 L 9.089844 4.5 L 23.101562 4.5 L 23.101562 21.300781 Z M 0.898438 21.300781 "/>
<path style=" stroke:none;fill-rule:nonzero;fill:rgb(58.823532%,47.843137%,26.666668%);fill-opacity:1;" d="M 22.800781 4.800781 L 22.800781 21 L 1.199219 21 L 1.199219 6 L 7.382812 6 L 7.53125 5.898438 L 9.183594 4.800781 L 22.800781 4.800781 M 23.398438 4.199219 L 9 4.199219 L 7.199219 5.398438 L 0.601562 5.398438 L 0.601562 21.601562 L 23.398438 21.601562 Z M 23.398438 4.199219 "/>
<path style=" stroke:none;fill-rule:nonzero;fill:rgb(96.862745%,56.078434%,56.078434%);fill-opacity:1;" d="M 12.300781 15.601562 L 12.300781 7.71875 L 15.898438 9.773438 L 15.898438 12.085938 L 12.898438 10.398438 L 12.898438 15.601562 Z M 12.300781 15.601562 "/>
<path style=" stroke:none;fill-rule:nonzero;fill:rgb(78.039217%,26.274511%,26.274511%);fill-opacity:1;" d="M 12.601562 8.234375 L 15.601562 9.949219 L 15.601562 11.574219 L 13.492188 10.390625 L 12.601562 9.886719 L 12.601562 15.300781 L 12.601562 8.234375 M 12 7.199219 L 12 15.898438 L 13.199219 15.898438 L 13.199219 10.914062 L 16.199219 12.601562 L 16.199219 9.601562 Z M 12 7.199219 "/>
<path style=" stroke:none;fill-rule:nonzero;fill:rgb(96.862745%,56.078434%,56.078434%);fill-opacity:1;" d="M 10.5 18.300781 C 9.175781 18.300781 8.101562 17.222656 8.101562 15.898438 C 8.101562 14.578125 9.175781 13.5 10.5 13.5 C 11.824219 13.5 12.898438 14.578125 12.898438 15.898438 C 12.898438 17.222656 11.824219 18.300781 10.5 18.300781 Z M 10.5 18.300781 "/>
<path style=" stroke:none;fill-rule:nonzero;fill:rgb(78.039217%,26.274511%,26.274511%);fill-opacity:1;" d="M 10.5 13.800781 C 11.65625 13.800781 12.601562 14.742188 12.601562 15.898438 C 12.601562 17.058594 11.65625 18 10.5 18 C 9.34375 18 8.398438 17.058594 8.398438 15.898438 C 8.398438 14.742188 9.34375 13.800781 10.5 13.800781 M 10.5 13.199219 C 9.007812 13.199219 7.800781 14.410156 7.800781 15.898438 C 7.800781 17.390625 9.007812 18.601562 10.5 18.601562 C 11.992188 18.601562 13.199219 17.390625 13.199219 15.898438 C 13.199219 14.410156 11.992188 13.199219 10.5 13.199219 Z M 10.5 13.199219 "/>
</g>
</g>
</svg>
