<?xml version="1.0" encoding="UTF-8"?>
<svg xmlns="http://www.w3.org/2000/svg" xmlns:xlink="http://www.w3.org/1999/xlink" width="32" height="32" viewBox="0 0 32 32" version="1.1">
<g transform="scale(1.33333333)">
<g transform="scale(1.33333333)">
<g id="surface2181">
<path style=" stroke:none;fill-rule:nonzero;fill:rgb(69.01961%,75.686276%,83.137256%);fill-opacity:1;" d="M 3.898438 5.039062 L 2.398438 4.558594 L 0.960938 2.21875 L 2.21875 0.960938 L 4.558594 2.398438 L 5.039062 3.898438 L 10.378906 9.238281 L 9.238281 10.378906 Z M 3.898438 5.039062 "/>
<path style=" stroke:none;fill-rule:nonzero;fill:rgb(40.000001%,47.450981%,56.078434%);fill-opacity:1;" d="M 2.28125 1.378906 L 4.320312 2.578125 L 4.800781 3.960938 L 4.800781 4.078125 L 9.960938 9.238281 L 9.238281 9.960938 L 4.078125 4.800781 L 3.960938 4.738281 L 2.578125 4.320312 L 1.378906 2.28125 L 2.28125 1.378906 M 2.160156 0.601562 L 0.601562 2.160156 L 2.160156 4.800781 L 3.71875 5.339844 L 9.179688 10.800781 L 10.738281 9.238281 L 5.339844 3.78125 L 4.800781 2.160156 Z M 2.160156 0.601562 "/>
<path style=" stroke:none;fill-rule:nonzero;fill:rgb(96.862745%,56.078434%,56.078434%);fill-opacity:1;" d="M 15.359375 17.101562 C 14.878906 17.101562 14.460938 16.921875 14.101562 16.558594 L 8.21875 10.621094 L 10.679688 8.160156 L 16.558594 14.101562 C 17.21875 14.761719 17.21875 15.898438 16.558594 16.558594 C 16.261719 16.921875 15.839844 17.101562 15.359375 17.101562 Z M 15.359375 17.101562 "/>
<path style=" stroke:none;fill-rule:nonzero;fill:rgb(78.039217%,26.274511%,26.274511%);fill-opacity:1;" d="M 10.738281 8.640625 L 16.378906 14.339844 C 16.621094 14.640625 16.800781 15 16.800781 15.359375 C 16.800781 15.71875 16.621094 16.078125 16.378906 16.378906 C 16.078125 16.621094 15.78125 16.800781 15.359375 16.800781 C 15 16.800781 14.640625 16.621094 14.339844 16.378906 L 8.699219 10.679688 L 10.738281 8.640625 M 10.738281 7.800781 L 7.859375 10.679688 L 13.921875 16.800781 C 14.339844 17.21875 14.820312 17.398438 15.359375 17.398438 C 15.898438 17.398438 16.378906 17.21875 16.800781 16.800781 C 17.578125 16.019531 17.578125 14.699219 16.800781 13.921875 Z M 10.738281 7.800781 "/>
<path style=" stroke:none;fill-rule:nonzero;fill:rgb(78.039217%,26.274511%,26.274511%);fill-opacity:1;" d="M 11.527344 11.910156 L 11.953125 11.484375 L 15.855469 15.390625 L 15.429688 15.8125 Z M 11.527344 11.910156 "/>
<path style=" stroke:none;fill-rule:nonzero;fill:rgb(86.274511%,83.529413%,94.901961%);fill-opacity:1;" d="M 3 17.101562 C 2.460938 17.101562 1.921875 16.859375 1.5 16.5 C 1.078125 16.078125 0.898438 15.539062 0.898438 15 C 0.898438 14.460938 1.140625 13.921875 1.5 13.5 L 9.179688 5.878906 L 12.179688 8.878906 L 4.5 16.5 C 4.078125 16.859375 3.601562 17.101562 3 17.101562 Z M 3 14.101562 C 2.519531 14.101562 2.101562 14.519531 2.101562 15 C 2.101562 15.238281 2.21875 15.480469 2.339844 15.660156 C 2.519531 15.839844 2.761719 15.898438 3 15.898438 C 3.480469 15.898438 3.898438 15.480469 3.898438 15 C 3.898438 14.761719 3.78125 14.519531 3.660156 14.339844 C 3.480469 14.21875 3.238281 14.101562 3 14.101562 Z M 3 14.101562 "/>
<path style=" stroke:none;fill-rule:nonzero;fill:rgb(54.509807%,45.882353%,63.137257%);fill-opacity:1;" d="M 9.179688 6.300781 L 11.761719 8.878906 L 4.320312 16.261719 C 3.960938 16.621094 3.480469 16.800781 3 16.800781 C 2.519531 16.800781 2.039062 16.621094 1.679688 16.261719 C 0.960938 15.539062 0.960938 14.398438 1.679688 13.679688 L 9.179688 6.300781 M 3 16.199219 C 3.660156 16.199219 4.199219 15.660156 4.199219 15 C 4.199219 14.339844 3.660156 13.800781 3 13.800781 C 2.339844 13.800781 1.800781 14.339844 1.800781 15 C 1.800781 15.300781 1.921875 15.601562 2.160156 15.839844 C 2.398438 16.078125 2.699219 16.199219 3 16.199219 M 9.179688 5.460938 L 1.320312 13.261719 C 0.359375 14.21875 0.359375 15.71875 1.320312 16.679688 C 1.800781 17.160156 2.398438 17.398438 3 17.398438 C 3.601562 17.398438 4.199219 17.160156 4.679688 16.679688 L 12.539062 8.878906 Z M 3 15.601562 C 2.640625 15.601562 2.398438 15.300781 2.398438 15 C 2.398438 14.640625 2.640625 14.398438 3 14.398438 C 3.359375 14.398438 3.601562 14.699219 3.601562 15 C 3.601562 15.359375 3.359375 15.601562 3 15.601562 Z M 3 15.601562 "/>
<path style=" stroke:none;fill-rule:nonzero;fill:rgb(86.274511%,83.529413%,94.901961%);fill-opacity:1;" d="M 13.636719 9.300781 C 12.4375 9.300781 11.179688 8.761719 10.222656 7.800781 C 9.382812 6.960938 8.847656 5.878906 8.726562 4.800781 C 8.605469 3.71875 8.90625 2.820312 9.625 2.160156 C 10.34375 1.441406 11.660156 0.898438 12.859375 0.898438 C 13.277344 0.898438 13.699219 0.960938 14.058594 1.078125 L 11.242188 3.898438 L 11.960938 6.058594 L 14.117188 6.839844 L 16.933594 4.019531 C 17.410156 5.519531 16.8125 7.5 15.855469 8.460938 C 15.253906 9 14.476562 9.300781 13.636719 9.300781 Z M 13.636719 9.300781 "/>
<path style=" stroke:none;fill-rule:nonzero;fill:rgb(54.509807%,45.882353%,63.137257%);fill-opacity:1;" d="M 13.636719 9.601562 C 12.339844 9.601562 11.019531 9.019531 10.011719 8.011719 C 9.117188 7.117188 8.554688 5.988281 8.425781 4.832031 C 8.296875 3.65625 8.640625 2.65625 9.421875 1.9375 C 10.203125 1.15625 11.621094 0.601562 12.859375 0.601562 C 13.320312 0.601562 13.769531 0.667969 14.152344 0.796875 L 14.613281 0.949219 L 11.585938 3.980469 L 12.199219 5.828125 L 14.039062 6.492188 L 17.066406 3.460938 L 17.21875 3.929688 C 17.753906 5.609375 17.035156 7.699219 16.066406 8.671875 C 15.398438 9.273438 14.539062 9.601562 13.636719 9.601562 Z M 12.859375 1.199219 C 11.769531 1.199219 10.527344 1.683594 9.835938 2.371094 C 9.183594 2.972656 8.914062 3.773438 9.023438 4.765625 C 9.136719 5.773438 9.648438 6.800781 10.433594 7.585938 C 11.332031 8.484375 12.5 9 13.636719 9 C 14.390625 9 15.105469 8.730469 15.652344 8.238281 C 16.394531 7.492188 16.957031 5.945312 16.761719 4.617188 L 14.195312 7.1875 L 11.722656 6.292969 L 10.898438 3.820312 L 13.46875 1.246094 C 13.273438 1.214844 13.066406 1.199219 12.859375 1.199219 Z M 12.859375 1.199219 "/>
</g>
</g>
</g>
</svg>
