<?xml version="1.0" encoding="UTF-8"?>
<svg xmlns="http://www.w3.org/2000/svg" xmlns:xlink="http://www.w3.org/1999/xlink" width="32" height="32" viewBox="0 0 32 32" version="1.1">
<g transform="scale(1.33333333)">
<g id="surface1600">
<path style="fill-rule:nonzero;fill:rgb(88.235295%,92.156863%,94.901961%);fill-opacity:1;stroke-width:1;stroke-linecap:butt;stroke-linejoin:miter;stroke:rgb(40.000001%,47.450981%,56.078434%);stroke-opacity:1;stroke-miterlimit:10;" d="M 4.498698 2.5 L 35.501302 2.5 C 36.608073 2.5 37.5 3.391927 37.5 4.498698 L 37.5 35.501302 C 37.5 36.608073 36.608073 37.5 35.501302 37.5 L 4.498698 37.5 C 3.391927 37.5 2.5 36.608073 2.5 35.501302 L 2.5 4.498698 C 2.5 3.391927 3.391927 2.5 4.498698 2.5 Z M 4.498698 2.5 " transform="matrix(0.6,0,0,0.6,0,0)"/>
<path style=" stroke:none;fill-rule:nonzero;fill:rgb(54.509807%,71.764708%,94.117647%);fill-opacity:1;" d="M 4.199219 8.699219 C 4.035156 8.699219 3.898438 8.566406 3.898438 8.398438 L 3.898438 4.199219 C 3.898438 4.035156 4.035156 3.898438 4.199219 3.898438 L 8.398438 3.898438 C 8.566406 3.898438 8.699219 4.035156 8.699219 4.199219 L 8.699219 8.398438 C 8.699219 8.566406 8.566406 8.699219 8.398438 8.699219 Z M 4.199219 8.699219 "/>
<path style=" stroke:none;fill-rule:nonzero;fill:rgb(30.588236%,47.843137%,70.980394%);fill-opacity:1;" d="M 8.398438 4.199219 L 8.398438 8.398438 L 4.199219 8.398438 L 4.199219 4.199219 L 8.398438 4.199219 M 8.398438 3.601562 L 4.199219 3.601562 C 3.867188 3.601562 3.601562 3.867188 3.601562 4.199219 L 3.601562 8.398438 C 3.601562 8.730469 3.867188 9 4.199219 9 L 8.398438 9 C 8.730469 9 9 8.730469 9 8.398438 L 9 4.199219 C 9 3.867188 8.730469 3.601562 8.398438 3.601562 Z M 8.398438 3.601562 "/>
<path style=" stroke:none;fill-rule:nonzero;fill:rgb(54.509807%,71.764708%,94.117647%);fill-opacity:1;" d="M 15.601562 8.699219 C 15.433594 8.699219 15.300781 8.566406 15.300781 8.398438 L 15.300781 4.199219 C 15.300781 4.035156 15.433594 3.898438 15.601562 3.898438 L 19.800781 3.898438 C 19.964844 3.898438 20.101562 4.035156 20.101562 4.199219 L 20.101562 8.398438 C 20.101562 8.566406 19.964844 8.699219 19.800781 8.699219 Z M 15.601562 8.699219 "/>
<path style=" stroke:none;fill-rule:nonzero;fill:rgb(30.588236%,47.843137%,70.980394%);fill-opacity:1;" d="M 19.800781 4.199219 L 19.800781 8.398438 L 15.601562 8.398438 L 15.601562 4.199219 L 19.800781 4.199219 M 19.800781 3.601562 L 15.601562 3.601562 C 15.269531 3.601562 15 3.867188 15 4.199219 L 15 8.398438 C 15 8.730469 15.269531 9 15.601562 9 L 19.800781 9 C 20.132812 9 20.398438 8.730469 20.398438 8.398438 L 20.398438 4.199219 C 20.398438 3.867188 20.132812 3.601562 19.800781 3.601562 Z M 19.800781 3.601562 "/>
<path style=" stroke:none;fill-rule:nonzero;fill:rgb(54.509807%,71.764708%,94.117647%);fill-opacity:1;" d="M 4.199219 20.101562 C 4.035156 20.101562 3.898438 19.964844 3.898438 19.800781 L 3.898438 15.601562 C 3.898438 15.433594 4.035156 15.300781 4.199219 15.300781 L 8.398438 15.300781 C 8.566406 15.300781 8.699219 15.433594 8.699219 15.601562 L 8.699219 19.800781 C 8.699219 19.964844 8.566406 20.101562 8.398438 20.101562 Z M 4.199219 20.101562 "/>
<path style=" stroke:none;fill-rule:nonzero;fill:rgb(30.588236%,47.843137%,70.980394%);fill-opacity:1;" d="M 8.398438 15.601562 L 8.398438 19.800781 L 4.199219 19.800781 L 4.199219 15.601562 L 8.398438 15.601562 M 8.398438 15 L 4.199219 15 C 3.867188 15 3.601562 15.269531 3.601562 15.601562 L 3.601562 19.800781 C 3.601562 20.132812 3.867188 20.398438 4.199219 20.398438 L 8.398438 20.398438 C 8.730469 20.398438 9 20.132812 9 19.800781 L 9 15.601562 C 9 15.269531 8.730469 15 8.398438 15 Z M 8.398438 15 "/>
<path style=" stroke:none;fill-rule:nonzero;fill:rgb(54.509807%,71.764708%,94.117647%);fill-opacity:1;" d="M 15.601562 20.101562 C 15.433594 20.101562 15.300781 19.964844 15.300781 19.800781 L 15.300781 15.601562 C 15.300781 15.433594 15.433594 15.300781 15.601562 15.300781 L 19.800781 15.300781 C 19.964844 15.300781 20.101562 15.433594 20.101562 15.601562 L 20.101562 19.800781 C 20.101562 19.964844 19.964844 20.101562 19.800781 20.101562 Z M 15.601562 20.101562 "/>
<path style=" stroke:none;fill-rule:nonzero;fill:rgb(30.588236%,47.843137%,70.980394%);fill-opacity:1;" d="M 19.800781 15.601562 L 19.800781 19.800781 L 15.601562 19.800781 L 15.601562 15.601562 L 19.800781 15.601562 M 19.800781 15 L 15.601562 15 C 15.269531 15 15 15.269531 15 15.601562 L 15 19.800781 C 15 20.132812 15.269531 20.398438 15.601562 20.398438 L 19.800781 20.398438 C 20.132812 20.398438 20.398438 20.132812 20.398438 19.800781 L 20.398438 15.601562 C 20.398438 15.269531 20.132812 15 19.800781 15 Z M 19.800781 15 "/>
<path style=" stroke:none;fill-rule:nonzero;fill:rgb(30.588236%,47.843137%,70.980394%);fill-opacity:1;" d="M 6.601562 13.800781 L 6 13.800781 L 6 15.601562 L 6.601562 15.601562 Z M 6.601562 13.800781 "/>
<path style=" stroke:none;fill-rule:nonzero;fill:rgb(54.509807%,71.764708%,94.117647%);fill-opacity:1;" d="M 6 12.601562 L 6.601562 12.601562 L 6.601562 13.199219 L 6 13.199219 Z M 6 12.601562 "/>
<path style=" stroke:none;fill-rule:nonzero;fill:rgb(30.588236%,47.843137%,70.980394%);fill-opacity:1;" d="M 6.601562 12.601562 L 6 12.601562 L 6 13.199219 L 6.601562 13.199219 Z M 6.601562 12.601562 "/>
<path style=" stroke:none;fill-rule:nonzero;fill:rgb(54.509807%,71.764708%,94.117647%);fill-opacity:1;" d="M 6 11.398438 L 6.601562 11.398438 L 6.601562 12 L 6 12 Z M 6 11.398438 "/>
<path style=" stroke:none;fill-rule:nonzero;fill:rgb(30.588236%,47.843137%,70.980394%);fill-opacity:1;" d="M 6.601562 11.398438 L 6 11.398438 L 6 12 L 6.601562 12 Z M 6.601562 11.398438 "/>
<path style=" stroke:none;fill-rule:nonzero;fill:rgb(54.509807%,71.764708%,94.117647%);fill-opacity:1;" d="M 6 10.199219 L 6.601562 10.199219 L 6.601562 10.800781 L 6 10.800781 Z M 6 10.199219 "/>
<path style=" stroke:none;fill-rule:nonzero;fill:rgb(30.588236%,47.843137%,70.980394%);fill-opacity:1;" d="M 6.601562 10.199219 L 6 10.199219 L 6 10.800781 L 6.601562 10.800781 Z M 6.601562 10.199219 "/>
<path style=" stroke:none;fill-rule:nonzero;fill:rgb(30.588236%,47.843137%,70.980394%);fill-opacity:1;" d="M 6.601562 8.398438 L 6 8.398438 L 6 9.601562 L 6.601562 9.601562 Z M 6.601562 8.398438 "/>
<path style=" stroke:none;fill-rule:nonzero;fill:rgb(54.509807%,71.764708%,94.117647%);fill-opacity:1;" d="M 8.398438 6 L 10.199219 6 L 10.199219 6.601562 L 8.398438 6.601562 Z M 8.398438 6 "/>
<path style=" stroke:none;fill-rule:nonzero;fill:rgb(30.588236%,47.843137%,70.980394%);fill-opacity:1;" d="M 10.199219 6 L 8.398438 6 L 8.398438 6.601562 L 10.199219 6.601562 Z M 10.199219 6 "/>
<path style=" stroke:none;fill-rule:nonzero;fill:rgb(54.509807%,71.764708%,94.117647%);fill-opacity:1;" d="M 10.800781 6 L 11.398438 6 L 11.398438 6.601562 L 10.800781 6.601562 Z M 10.800781 6 "/>
<path style=" stroke:none;fill-rule:nonzero;fill:rgb(30.588236%,47.843137%,70.980394%);fill-opacity:1;" d="M 11.398438 6 L 10.800781 6 L 10.800781 6.601562 L 11.398438 6.601562 Z M 11.398438 6 "/>
<path style=" stroke:none;fill-rule:nonzero;fill:rgb(54.509807%,71.764708%,94.117647%);fill-opacity:1;" d="M 12 6 L 12.601562 6 L 12.601562 6.601562 L 12 6.601562 Z M 12 6 "/>
<path style=" stroke:none;fill-rule:nonzero;fill:rgb(30.588236%,47.843137%,70.980394%);fill-opacity:1;" d="M 12.601562 6 L 12 6 L 12 6.601562 L 12.601562 6.601562 Z M 12.601562 6 "/>
<path style=" stroke:none;fill-rule:nonzero;fill:rgb(54.509807%,71.764708%,94.117647%);fill-opacity:1;" d="M 13.199219 6 L 13.800781 6 L 13.800781 6.601562 L 13.199219 6.601562 Z M 13.199219 6 "/>
<path style=" stroke:none;fill-rule:nonzero;fill:rgb(30.588236%,47.843137%,70.980394%);fill-opacity:1;" d="M 13.800781 6 L 13.199219 6 L 13.199219 6.601562 L 13.800781 6.601562 Z M 13.800781 6 "/>
<path style=" stroke:none;fill-rule:nonzero;fill:rgb(54.509807%,71.764708%,94.117647%);fill-opacity:1;" d="M 14.398438 6 L 15.601562 6 L 15.601562 6.601562 L 14.398438 6.601562 Z M 14.398438 6 "/>
<path style=" stroke:none;fill-rule:nonzero;fill:rgb(30.588236%,47.843137%,70.980394%);fill-opacity:1;" d="M 15.601562 6 L 14.398438 6 L 14.398438 6.601562 L 15.601562 6.601562 Z M 15.601562 6 "/>
<path style=" stroke:none;fill-rule:nonzero;fill:rgb(30.588236%,47.843137%,70.980394%);fill-opacity:1;" d="M 18 8.398438 L 17.398438 8.398438 L 17.398438 10.199219 L 18 10.199219 Z M 18 8.398438 "/>
<path style=" stroke:none;fill-rule:nonzero;fill:rgb(54.509807%,71.764708%,94.117647%);fill-opacity:1;" d="M 17.398438 10.800781 L 18 10.800781 L 18 11.398438 L 17.398438 11.398438 Z M 17.398438 10.800781 "/>
<path style=" stroke:none;fill-rule:nonzero;fill:rgb(30.588236%,47.843137%,70.980394%);fill-opacity:1;" d="M 18 10.800781 L 17.398438 10.800781 L 17.398438 11.398438 L 18 11.398438 Z M 18 10.800781 "/>
<path style=" stroke:none;fill-rule:nonzero;fill:rgb(54.509807%,71.764708%,94.117647%);fill-opacity:1;" d="M 17.398438 12 L 18 12 L 18 12.601562 L 17.398438 12.601562 Z M 17.398438 12 "/>
<path style=" stroke:none;fill-rule:nonzero;fill:rgb(30.588236%,47.843137%,70.980394%);fill-opacity:1;" d="M 18 12 L 17.398438 12 L 17.398438 12.601562 L 18 12.601562 Z M 18 12 "/>
<path style=" stroke:none;fill-rule:nonzero;fill:rgb(54.509807%,71.764708%,94.117647%);fill-opacity:1;" d="M 17.398438 13.199219 L 18 13.199219 L 18 13.800781 L 17.398438 13.800781 Z M 17.398438 13.199219 "/>
<path style=" stroke:none;fill-rule:nonzero;fill:rgb(30.588236%,47.843137%,70.980394%);fill-opacity:1;" d="M 18 13.199219 L 17.398438 13.199219 L 17.398438 13.800781 L 18 13.800781 Z M 18 13.199219 "/>
<path style=" stroke:none;fill-rule:nonzero;fill:rgb(30.588236%,47.843137%,70.980394%);fill-opacity:1;" d="M 18 14.398438 L 17.398438 14.398438 L 17.398438 15.601562 L 18 15.601562 Z M 18 14.398438 "/>
<path style=" stroke:none;fill-rule:nonzero;fill:rgb(54.509807%,71.764708%,94.117647%);fill-opacity:1;" d="M 13.800781 17.398438 L 15.601562 17.398438 L 15.601562 18 L 13.800781 18 Z M 13.800781 17.398438 "/>
<path style=" stroke:none;fill-rule:nonzero;fill:rgb(30.588236%,47.843137%,70.980394%);fill-opacity:1;" d="M 15.601562 17.398438 L 13.800781 17.398438 L 13.800781 18 L 15.601562 18 Z M 15.601562 17.398438 "/>
<path style=" stroke:none;fill-rule:nonzero;fill:rgb(54.509807%,71.764708%,94.117647%);fill-opacity:1;" d="M 12.601562 17.398438 L 13.199219 17.398438 L 13.199219 18 L 12.601562 18 Z M 12.601562 17.398438 "/>
<path style=" stroke:none;fill-rule:nonzero;fill:rgb(30.588236%,47.843137%,70.980394%);fill-opacity:1;" d="M 13.199219 17.398438 L 12.601562 17.398438 L 12.601562 18 L 13.199219 18 Z M 13.199219 17.398438 "/>
<path style=" stroke:none;fill-rule:nonzero;fill:rgb(54.509807%,71.764708%,94.117647%);fill-opacity:1;" d="M 11.398438 17.398438 L 12 17.398438 L 12 18 L 11.398438 18 Z M 11.398438 17.398438 "/>
<path style=" stroke:none;fill-rule:nonzero;fill:rgb(30.588236%,47.843137%,70.980394%);fill-opacity:1;" d="M 12 17.398438 L 11.398438 17.398438 L 11.398438 18 L 12 18 Z M 12 17.398438 "/>
<path style=" stroke:none;fill-rule:nonzero;fill:rgb(54.509807%,71.764708%,94.117647%);fill-opacity:1;" d="M 10.199219 17.398438 L 10.800781 17.398438 L 10.800781 18 L 10.199219 18 Z M 10.199219 17.398438 "/>
<path style=" stroke:none;fill-rule:nonzero;fill:rgb(30.588236%,47.843137%,70.980394%);fill-opacity:1;" d="M 10.800781 17.398438 L 10.199219 17.398438 L 10.199219 18 L 10.800781 18 Z M 10.800781 17.398438 "/>
<path style=" stroke:none;fill-rule:nonzero;fill:rgb(54.509807%,71.764708%,94.117647%);fill-opacity:1;" d="M 8.398438 17.398438 L 9.601562 17.398438 L 9.601562 18 L 8.398438 18 Z M 8.398438 17.398438 "/>
<path style=" stroke:none;fill-rule:nonzero;fill:rgb(30.588236%,47.843137%,70.980394%);fill-opacity:1;" d="M 9.601562 17.398438 L 8.398438 17.398438 L 8.398438 18 L 9.601562 18 Z M 9.601562 17.398438 "/>
</g>
</g>
</svg>
