<?xml version="1.0" encoding="UTF-8"?>
<svg xmlns="http://www.w3.org/2000/svg" xmlns:xlink="http://www.w3.org/1999/xlink" width="32" height="32" viewBox="0 0 32 32" version="1.1">
<g transform="scale(2.66666667)">
<g id="surface110">
<path style=" stroke:none;fill-rule:nonzero;fill:rgb(96.862745%,65.882355%,65.882355%);fill-opacity:1;" d="M 0.898438 10.648438 C 0.652344 10.648438 0.449219 10.449219 0.449219 10.199219 C 0.449219 10.117188 0.476562 10.03125 0.53125 9.941406 L 5.589844 1.617188 C 5.648438 1.515625 5.78125 1.351562 6 1.351562 C 6.21875 1.351562 6.351562 1.515625 6.410156 1.617188 L 11.46875 9.941406 C 11.523438 10.03125 11.550781 10.117188 11.550781 10.199219 C 11.550781 10.449219 11.347656 10.648438 11.101562 10.648438 Z M 0.898438 10.648438 "/>
<path style=" stroke:none;fill-rule:nonzero;fill:rgb(78.039217%,26.274511%,26.274511%);fill-opacity:1;" d="M 6 1.5 C 6.144531 1.5 6.238281 1.621094 6.28125 1.691406 L 8.8125 5.855469 L 11.339844 10.019531 C 11.378906 10.085938 11.398438 10.144531 11.398438 10.199219 C 11.398438 10.367188 11.265625 10.5 11.101562 10.5 L 0.898438 10.5 C 0.734375 10.5 0.601562 10.367188 0.601562 10.199219 C 0.601562 10.144531 0.621094 10.085938 0.660156 10.019531 L 5.714844 1.691406 C 5.761719 1.621094 5.855469 1.5 6 1.5 M 6 1.199219 C 5.761719 1.199219 5.574219 1.347656 5.460938 1.539062 C 0.402344 9.863281 5.460938 1.539062 0.402344 9.863281 C 0.34375 9.960938 0.300781 10.074219 0.300781 10.199219 C 0.300781 10.53125 0.570312 10.800781 0.898438 10.800781 C 1.164062 10.800781 10.816406 10.800781 11.101562 10.800781 C 11.429688 10.800781 11.699219 10.53125 11.699219 10.199219 C 11.699219 10.074219 11.65625 9.960938 11.597656 9.863281 C 6.539062 1.539062 11.597656 9.863281 6.539062 1.539062 C 6.425781 1.347656 6.238281 1.199219 6 1.199219 Z M 6 1.199219 "/>
<path style=" stroke:none;fill-rule:nonzero;fill:rgb(70.19608%,23.529412%,23.529412%);fill-opacity:1;" d="M 2.164062 5.234375 L 2.246094 5.097656 L 0.609375 4.902344 L 0.4375 5.183594 L 2.074219 5.378906 Z M 2.164062 5.234375 "/>
<path style=" stroke:none;fill-rule:nonzero;fill:rgb(70.19608%,23.529412%,23.529412%);fill-opacity:1;" d="M 3.746094 2.625 L 2.753906 1.375 L 2.585938 1.644531 L 3.582031 2.898438 Z M 3.746094 2.625 "/>
<path style=" stroke:none;fill-rule:nonzero;fill:rgb(70.19608%,23.529412%,23.529412%);fill-opacity:1;" d="M 2.839844 4.117188 L 2.996094 3.859375 L 1.683594 3.128906 L 1.527344 3.386719 Z M 2.839844 4.117188 "/>
<path style=" stroke:none;fill-rule:nonzero;fill:rgb(70.19608%,23.529412%,23.529412%);fill-opacity:1;" d="M 9.835938 5.234375 L 9.753906 5.097656 L 11.390625 4.902344 L 11.5625 5.183594 L 9.925781 5.378906 Z M 9.835938 5.234375 "/>
<path style=" stroke:none;fill-rule:nonzero;fill:rgb(70.19608%,23.529412%,23.529412%);fill-opacity:1;" d="M 8.253906 2.625 L 9.246094 1.375 L 9.414062 1.644531 L 8.417969 2.898438 Z M 8.253906 2.625 "/>
<path style=" stroke:none;fill-rule:nonzero;fill:rgb(70.19608%,23.529412%,23.529412%);fill-opacity:1;" d="M 9.160156 4.117188 L 9.003906 3.859375 L 10.316406 3.128906 L 10.472656 3.386719 Z M 9.160156 4.117188 "/>
<path style=" stroke:none;fill-rule:nonzero;fill:rgb(21.176471%,25.098041%,30.19608%);fill-opacity:1;" d="M 6.601562 9 C 6.601562 9.332031 6.332031 9.601562 6 9.601562 C 5.667969 9.601562 5.398438 9.332031 5.398438 9 C 5.398438 8.667969 5.667969 8.398438 6 8.398438 C 6.332031 8.398438 6.601562 8.667969 6.601562 9 Z M 6.601562 9 "/>
<path style=" stroke:none;fill-rule:nonzero;fill:rgb(21.176471%,25.098041%,30.19608%);fill-opacity:1;" d="M 6 4.199219 C 5.667969 4.199219 5.398438 4.449219 5.398438 4.753906 C 5.398438 4.957031 5.699219 7.546875 5.703125 7.554688 C 5.71875 7.695312 5.847656 7.800781 6 7.800781 C 6.152344 7.800781 6.28125 7.695312 6.296875 7.554688 C 6.300781 7.546875 6.601562 4.957031 6.601562 4.753906 C 6.601562 4.449219 6.332031 4.199219 6 4.199219 Z M 6 4.199219 "/>
</g>
</g>
</svg>
