<?xml version="1.0" encoding="UTF-8"?>
<svg xmlns="http://www.w3.org/2000/svg" xmlns:xlink="http://www.w3.org/1999/xlink" width="32" height="32" viewBox="0 0 32 32" version="1.1">
<g transform="scale(1.33333333)">
<g id="surface135">
<path style=" stroke:none;fill-rule:nonzero;fill:rgb(54.509807%,71.764708%,94.117647%);fill-opacity:1;" d="M 12 23.101562 C 5.878906 23.101562 0.898438 18.121094 0.898438 12 C 0.898438 5.878906 5.878906 0.898438 12 0.898438 C 18.121094 0.898438 23.101562 5.878906 23.101562 12 C 23.101562 18.121094 18.121094 23.101562 12 23.101562 Z M 12 23.101562 "/>
<path style=" stroke:none;fill-rule:nonzero;fill:rgb(30.588236%,47.843137%,70.980394%);fill-opacity:1;" d="M 12 1.199219 C 17.953125 1.199219 22.800781 6.046875 22.800781 12 C 22.800781 17.953125 17.953125 22.800781 12 22.800781 C 6.046875 22.800781 1.199219 17.953125 1.199219 12 C 1.199219 6.046875 6.046875 1.199219 12 1.199219 M 12 0.601562 C 5.703125 0.601562 0.601562 5.703125 0.601562 12 C 0.601562 18.296875 5.703125 23.398438 12 23.398438 C 18.296875 23.398438 23.398438 18.296875 23.398438 12 C 23.398438 5.703125 18.296875 0.601562 12 0.601562 Z M 12 0.601562 "/>
<path style=" stroke:none;fill-rule:nonzero;fill:rgb(100%,100%,100%);fill-opacity:1;" d="M 12 6 C 11.335938 6 10.800781 6.539062 10.800781 7.199219 C 10.800781 7.863281 11.335938 8.398438 12 8.398438 C 12.664062 8.398438 13.199219 7.863281 13.199219 7.199219 C 13.199219 6.539062 12.664062 6 12 6 Z M 12 6 "/>
<path style=" stroke:none;fill-rule:nonzero;fill:rgb(100%,100%,100%);fill-opacity:1;" d="M 13.199219 16.800781 L 13.199219 9.601562 L 10.199219 9.601562 L 10.199219 10.199219 L 10.800781 10.199219 L 10.800781 16.800781 L 10.199219 16.800781 L 10.199219 17.398438 L 13.800781 17.398438 L 13.800781 16.800781 Z M 13.199219 16.800781 "/>
</g>
</g>
</svg>
