<?xml version="1.0" encoding="UTF-8"?>
<svg xmlns="http://www.w3.org/2000/svg" xmlns:xlink="http://www.w3.org/1999/xlink" width="32" height="32" viewBox="0 0 32 32" version="1.1">
<g transform="scale(2.66666667)">
<g id="surface91">
<path style=" stroke:none;fill-rule:nonzero;fill:rgb(100%,93.333334%,63.921571%);fill-opacity:1;" d="M 0.960938 10.648438 C 0.777344 10.648438 0.613281 10.554688 0.519531 10.394531 C 0.425781 10.234375 0.425781 10.042969 0.519531 9.882812 L 5.558594 1.15625 C 5.648438 0.996094 5.816406 0.902344 6 0.902344 C 6.183594 0.902344 6.351562 0.996094 6.441406 1.15625 L 11.480469 9.882812 C 11.574219 10.042969 11.574219 10.234375 11.480469 10.394531 C 11.386719 10.554688 11.222656 10.648438 11.039062 10.648438 Z M 0.960938 10.648438 "/>
<path style=" stroke:none;fill-rule:nonzero;fill:rgb(72.941178%,60.784316%,28.235295%);fill-opacity:1;" d="M 6 1.050781 C 6.0625 1.050781 6.21875 1.070312 6.3125 1.234375 L 11.351562 9.957031 C 11.445312 10.121094 11.382812 10.265625 11.351562 10.320312 C 11.320312 10.375 11.226562 10.5 11.039062 10.5 L 0.960938 10.5 C 0.773438 10.5 0.679688 10.375 0.648438 10.320312 C 0.617188 10.265625 0.554688 10.121094 0.648438 9.957031 L 5.6875 1.234375 C 5.78125 1.070312 5.9375 1.050781 6 1.050781 M 6 0.75 C 5.777344 0.75 5.554688 0.863281 5.425781 1.082031 L 0.390625 9.808594 C 0.136719 10.25 0.453125 10.800781 0.960938 10.800781 L 11.039062 10.800781 C 11.546875 10.800781 11.863281 10.25 11.609375 9.808594 L 6.574219 1.082031 C 6.445312 0.863281 6.222656 0.75 6 0.75 Z M 6 0.75 "/>
<path style=" stroke:none;fill-rule:nonzero;fill:rgb(21.176471%,25.098041%,30.19608%);fill-opacity:1;" d="M 6 8.253906 C 5.71875 8.253906 5.492188 8.484375 5.492188 8.765625 C 5.492188 9.046875 5.71875 9.273438 6 9.273438 C 6.28125 9.273438 6.507812 9.046875 6.507812 8.765625 C 6.507812 8.484375 6.28125 8.253906 6 8.253906 Z M 5.59375 3.878906 L 6.40625 3.878906 L 6.40625 7.542969 L 5.59375 7.542969 Z M 5.59375 3.878906 "/>
</g>
</g>
</svg>
