<?xml version="1.0" encoding="UTF-8"?>
<svg xmlns="http://www.w3.org/2000/svg" xmlns:xlink="http://www.w3.org/1999/xlink" width="24" height="24" viewBox="0 0 24 24" version="1.1">
<g transform="scale(1.33333333)">
<g id="surface107">
<path style=" stroke:none;fill-rule:nonzero;fill:rgb(72.941178%,87.843138%,74.117649%);fill-opacity:1;" d="M 9 10.199219 L 12 10.199219 L 12 13.800781 L 9 13.800781 Z M 9 10.199219 "/>
<path style=" stroke:none;fill-rule:nonzero;fill:rgb(36.862746%,61.176473%,46.27451%);fill-opacity:1;" d="M 11.398438 10.800781 L 11.398438 13.199219 L 9.601562 13.199219 L 9.601562 10.800781 L 11.398438 10.800781 M 12 10.199219 L 9 10.199219 L 9 13.800781 L 12 13.800781 Z M 12 10.199219 "/>
<path style=" stroke:none;fill-rule:nonzero;fill:rgb(72.941178%,87.843138%,74.117649%);fill-opacity:1;" d="M 11.398438 3 L 14.398438 3 L 14.398438 13.800781 L 11.398438 13.800781 Z M 11.398438 3 "/>
<path style=" stroke:none;fill-rule:nonzero;fill:rgb(36.862746%,61.176473%,46.27451%);fill-opacity:1;" d="M 13.800781 3.601562 L 13.800781 13.199219 L 12 13.199219 L 12 3.601562 L 13.800781 3.601562 M 14.398438 3 L 11.398438 3 L 11.398438 13.800781 L 14.398438 13.800781 Z M 14.398438 3 "/>
<path style=" stroke:none;fill-rule:nonzero;fill:rgb(72.941178%,87.843138%,74.117649%);fill-opacity:1;" d="M 13.800781 7.800781 L 16.800781 7.800781 L 16.800781 13.800781 L 13.800781 13.800781 Z M 13.800781 7.800781 "/>
<path style=" stroke:none;fill-rule:nonzero;fill:rgb(36.862746%,61.176473%,46.27451%);fill-opacity:1;" d="M 16.199219 8.398438 L 16.199219 13.199219 L 14.398438 13.199219 L 14.398438 8.398438 L 16.199219 8.398438 M 16.800781 7.800781 L 13.800781 7.800781 L 13.800781 13.800781 L 16.800781 13.800781 Z M 16.800781 7.800781 "/>
<path style=" stroke:none;fill-rule:nonzero;fill:rgb(72.941178%,87.843138%,74.117649%);fill-opacity:1;" d="M 3.601562 5.398438 L 6.601562 5.398438 L 6.601562 13.800781 L 3.601562 13.800781 Z M 3.601562 5.398438 "/>
<path style=" stroke:none;fill-rule:nonzero;fill:rgb(36.862746%,61.176473%,46.27451%);fill-opacity:1;" d="M 6 6 L 6 13.199219 L 4.199219 13.199219 L 4.199219 6 L 6 6 M 6.601562 5.398438 L 3.601562 5.398438 L 3.601562 13.800781 L 6.601562 13.800781 Z M 6.601562 5.398438 "/>
<path style=" stroke:none;fill-rule:nonzero;fill:rgb(72.941178%,87.843138%,74.117649%);fill-opacity:1;" d="M 1.199219 9 L 4.199219 9 L 4.199219 13.800781 L 1.199219 13.800781 Z M 1.199219 9 "/>
<path style=" stroke:none;fill-rule:nonzero;fill:rgb(36.862746%,61.176473%,46.27451%);fill-opacity:1;" d="M 3.601562 9.601562 L 3.601562 13.199219 L 1.800781 13.199219 L 1.800781 9.601562 L 3.601562 9.601562 M 4.199219 9 L 1.199219 9 L 1.199219 13.800781 L 4.199219 13.800781 Z M 4.199219 9 "/>
<path style=" stroke:none;fill-rule:nonzero;fill:rgb(72.941178%,87.843138%,74.117649%);fill-opacity:1;" d="M 6 11.398438 L 9 11.398438 L 9 13.800781 L 6 13.800781 Z M 6 11.398438 "/>
<path style=" stroke:none;fill-rule:nonzero;fill:rgb(36.862746%,61.176473%,46.27451%);fill-opacity:1;" d="M 8.398438 12 L 8.398438 13.199219 L 6.601562 13.199219 L 6.601562 12 L 8.398438 12 M 9 11.398438 L 6 11.398438 L 6 13.800781 L 9 13.800781 Z M 9 11.398438 "/>
<path style=" stroke:none;fill-rule:nonzero;fill:rgb(30.588236%,47.843137%,70.980394%);fill-opacity:1;" d="M 8.398438 1.199219 L 9.601562 1.199219 L 9.601562 16.800781 L 8.398438 16.800781 Z M 8.398438 1.199219 "/>
</g>
</g>
</svg>
