<?xml version="1.0" encoding="UTF-8"?>
<svg xmlns="http://www.w3.org/2000/svg" xmlns:xlink="http://www.w3.org/1999/xlink" width="24" height="24" viewBox="0 0 24 24" version="1.1">
<g transform="scale(1.33333333)">
<g id="surface131">
<path style=" stroke:none;fill-rule:nonzero;fill:rgb(54.509807%,71.764708%,94.117647%);fill-opacity:1;" d="M 9 17.101562 C 5.878906 17.101562 2.699219 16.140625 2.699219 9 C 2.699219 1.859375 5.878906 0.898438 9 0.898438 C 12.121094 0.898438 15.300781 1.859375 15.300781 9 C 15.300781 16.140625 12.121094 17.101562 9 17.101562 Z M 9 17.101562 "/>
<path style=" stroke:none;fill-rule:nonzero;fill:rgb(30.588236%,47.843137%,70.980394%);fill-opacity:1;" d="M 9 1.199219 C 12.121094 1.199219 15 2.160156 15 9 C 15 12 14.460938 14.039062 13.320312 15.300781 C 12.359375 16.320312 10.980469 16.800781 9 16.800781 C 5.878906 16.800781 3 15.839844 3 9 C 3 6 3.539062 3.960938 4.679688 2.699219 C 5.640625 1.679688 7.019531 1.199219 9 1.199219 M 9 0.601562 C 5.101562 0.601562 2.398438 2.339844 2.398438 9 C 2.398438 15.660156 5.101562 17.398438 9 17.398438 C 12.898438 17.398438 15.601562 15.660156 15.601562 9 C 15.601562 2.339844 12.898438 0.601562 9 0.601562 Z M 9 0.601562 "/>
<path style=" stroke:none;fill-rule:nonzero;fill:rgb(100%,100%,100%);fill-opacity:1;" d="M 8.398438 15.121094 L 8.398438 9.71875 L 5.878906 11.941406 L 5.460938 11.519531 L 8.339844 8.878906 L 5.460938 6.601562 L 5.820312 6.121094 L 8.339844 8.160156 L 8.339844 2.578125 L 12.058594 6.300781 L 9.238281 8.820312 L 12.058594 11.039062 Z M 9 9.300781 L 9 13.558594 L 11.28125 11.101562 Z M 9 4.019531 L 9 8.339844 L 11.28125 6.300781 Z M 9 4.019531 "/>
</g>
</g>
</svg>
