<?xml version="1.0" encoding="UTF-8"?>
<svg xmlns="http://www.w3.org/2000/svg" xmlns:xlink="http://www.w3.org/1999/xlink" width="24" height="24" viewBox="0 0 24 24" version="1.1">
<g transform="scale(1.33333333)">
<g id="surface149">
<path style=" stroke:none;fill-rule:nonzero;fill:rgb(86.274511%,83.529413%,94.901961%);fill-opacity:1;" d="M 6.121094 15.300781 L 4.320312 13.5 L 3.300781 13.5 L 3.300781 8.101562 L 4.980469 8.101562 L 6.179688 6.300781 L 14.699219 6.300781 L 14.699219 13.078125 L 12.480469 15.300781 Z M 6.121094 15.300781 "/>
<path style=" stroke:none;fill-rule:nonzero;fill:rgb(54.509807%,45.882353%,63.137257%);fill-opacity:1;" d="M 14.398438 6.601562 L 14.398438 12.960938 L 12.359375 15 L 6.238281 15 L 4.621094 13.378906 L 4.441406 13.199219 L 3.601562 13.199219 L 3.601562 8.398438 L 5.101562 8.398438 L 5.28125 8.160156 L 6.300781 6.601562 L 14.398438 6.601562 M 15 6 L 6 6 L 4.800781 7.800781 L 3 7.800781 L 3 13.800781 L 4.199219 13.800781 L 6 15.601562 L 12.601562 15.601562 L 15 13.199219 Z M 15 6 "/>
<path style=" stroke:none;fill-rule:nonzero;fill:rgb(54.509807%,45.882353%,63.137257%);fill-opacity:1;" d="M 9.601562 4.800781 L 10.800781 4.800781 L 10.800781 6.601562 L 9.601562 6.601562 Z M 9.601562 13.199219 L 10.800781 10.800781 L 9.601562 10.261719 L 9.601562 8.398438 L 8.398438 10.800781 L 9.601562 11.339844 Z M 9.601562 13.199219 "/>
<path style=" stroke:none;fill-rule:nonzero;fill:rgb(86.274511%,83.529413%,94.901961%);fill-opacity:1;" d="M 8.101562 3.898438 L 12.300781 3.898438 L 12.300781 5.101562 L 8.101562 5.101562 Z M 8.101562 3.898438 "/>
<path style=" stroke:none;fill-rule:nonzero;fill:rgb(54.509807%,45.882353%,63.137257%);fill-opacity:1;" d="M 12 4.199219 L 12 4.800781 L 8.398438 4.800781 L 8.398438 4.199219 L 12 4.199219 M 12.601562 3.601562 L 7.800781 3.601562 L 7.800781 5.398438 L 12.601562 5.398438 Z M 15 9 L 16.800781 9 L 16.800781 10.199219 L 15 10.199219 Z M 15 9 "/>
<path style=" stroke:none;fill-rule:nonzero;fill:rgb(86.274511%,83.529413%,94.901961%);fill-opacity:1;" d="M 16.5 6.898438 L 17.699219 6.898438 L 17.699219 12.300781 L 16.5 12.300781 Z M 16.5 6.898438 "/>
<path style=" stroke:none;fill-rule:nonzero;fill:rgb(54.509807%,45.882353%,63.137257%);fill-opacity:1;" d="M 17.398438 7.199219 L 17.398438 12 L 16.800781 12 L 16.800781 7.199219 L 17.398438 7.199219 M 18 6.601562 L 16.199219 6.601562 L 16.199219 12.601562 L 18 12.601562 Z M 1.199219 10.199219 L 3.601562 10.199219 L 3.601562 11.398438 L 1.199219 11.398438 Z M 1.199219 10.199219 "/>
<path style=" stroke:none;fill-rule:nonzero;fill:rgb(86.274511%,83.529413%,94.901961%);fill-opacity:1;" d="M 0.300781 8.699219 L 1.5 8.699219 L 1.5 12.898438 L 0.300781 12.898438 Z M 0.300781 8.699219 "/>
<path style=" stroke:none;fill-rule:nonzero;fill:rgb(54.509807%,45.882353%,63.137257%);fill-opacity:1;" d="M 1.199219 9 L 1.199219 12.601562 L 0.601562 12.601562 L 0.601562 9 L 1.199219 9 M 1.800781 8.398438 L 0 8.398438 L 0 13.199219 L 1.800781 13.199219 Z M 1.800781 8.398438 "/>
</g>
</g>
</svg>
