<?xml version="1.0" encoding="UTF-8"?>
<svg xmlns="http://www.w3.org/2000/svg" xmlns:xlink="http://www.w3.org/1999/xlink" width="24" height="24" viewBox="0 0 24 24" version="1.1">
<g transform="scale(1.33333333)">
<g id="surface192">
<path style=" stroke:none;fill-rule:nonzero;fill:rgb(96.862745%,56.078434%,56.078434%);fill-opacity:1;" d="M 1.199219 17.101562 C 1.035156 17.101562 0.898438 16.964844 0.898438 16.800781 L 0.898438 6.601562 C 0.898438 6.433594 1.035156 6.300781 1.199219 6.300781 L 16.800781 6.300781 C 16.964844 6.300781 17.101562 6.433594 17.101562 6.601562 L 17.101562 16.800781 C 17.101562 16.964844 16.964844 17.101562 16.800781 17.101562 Z M 1.199219 17.101562 "/>
<path style=" stroke:none;fill-rule:nonzero;fill:rgb(78.039217%,26.274511%,26.274511%);fill-opacity:1;" d="M 16.800781 6.601562 L 16.800781 16.800781 L 1.199219 16.800781 L 1.199219 6.601562 L 16.800781 6.601562 M 16.800781 6 L 1.199219 6 C 0.867188 6 0.601562 6.269531 0.601562 6.601562 L 0.601562 16.800781 C 0.601562 17.132812 0.867188 17.398438 1.199219 17.398438 L 16.800781 17.398438 C 17.132812 17.398438 17.398438 17.132812 17.398438 16.800781 L 17.398438 6.601562 C 17.398438 6.269531 17.132812 6 16.800781 6 Z M 16.800781 6 "/>
<path style=" stroke:none;fill-rule:nonzero;fill:rgb(100%,76.078433%,76.078433%);fill-opacity:1;" d="M 16.199219 7.199219 L 16.199219 16.199219 L 1.800781 16.199219 L 1.800781 7.199219 L 16.199219 7.199219 M 16.800781 6.601562 L 1.199219 6.601562 L 1.199219 16.800781 L 16.800781 16.800781 Z M 16.800781 6.601562 "/>
<path style=" stroke:none;fill-rule:nonzero;fill:rgb(40.000001%,47.450981%,56.078434%);fill-opacity:1;" d="M 8.398438 1.199219 L 11.398438 1.199219 L 11.398438 6 L 8.398438 6 Z M 12.601562 1.199219 L 13.800781 1.199219 L 13.800781 6 L 12.601562 6 Z M 4.199219 1.199219 L 5.398438 1.199219 L 5.398438 6 L 4.199219 6 Z M 15 1.199219 L 15.601562 1.199219 L 15.601562 6 L 15 6 Z M 2.398438 1.199219 L 3 1.199219 L 3 6 L 2.398438 6 Z M 6.601562 1.199219 L 7.199219 1.199219 L 7.199219 6 L 6.601562 6 Z M 6.601562 1.199219 "/>
<path style=" stroke:none;fill-rule:nonzero;fill:rgb(21.176471%,25.098041%,30.19608%);fill-opacity:1;" d="M 8.398438 7.199219 L 11.398438 7.199219 L 11.398438 15.601562 L 8.398438 15.601562 Z M 12.601562 7.199219 L 13.800781 7.199219 L 13.800781 15.601562 L 12.601562 15.601562 Z M 4.199219 7.199219 L 5.398438 7.199219 L 5.398438 15.601562 L 4.199219 15.601562 Z M 15 7.199219 L 15.601562 7.199219 L 15.601562 15.601562 L 15 15.601562 Z M 2.398438 7.199219 L 3 7.199219 L 3 15.601562 L 2.398438 15.601562 Z M 2.398438 7.199219 "/>
<path style=" stroke:none;fill-rule:nonzero;fill:rgb(21.176471%,25.098041%,30.19608%);fill-opacity:1;" d="M 6.601562 7.199219 L 7.199219 7.199219 L 7.199219 15.601562 L 6.601562 15.601562 Z M 6.601562 7.199219 "/>
</g>
</g>
</svg>
