<?xml version="1.0" encoding="UTF-8"?>
<svg xmlns="http://www.w3.org/2000/svg" xmlns:xlink="http://www.w3.org/1999/xlink" width="24" height="24" viewBox="0 0 24 24" version="1.1">
<g transform="scale(1.33333333)">
<g id="surface248">
<path style=" stroke:none;fill-rule:nonzero;fill:rgb(69.01961%,75.686276%,83.137256%);fill-opacity:1;" d="M 10.980469 2.824219 L 13.847656 0.949219 L 16.40625 2.167969 L 15.855469 3.238281 L 13.851562 2.316406 L 11.582031 3.855469 Z M 10.980469 2.824219 "/>
<path style=" stroke:none;fill-rule:nonzero;fill:rgb(40.000001%,47.450981%,56.078434%);fill-opacity:1;" d="M 13.871094 1.292969 L 16 2.308594 L 15.71875 2.847656 L 14.128906 2.113281 L 13.824219 1.972656 L 13.542969 2.164062 L 11.679688 3.429688 L 11.382812 2.921875 L 13.871094 1.292969 M 13.824219 0.605469 L 10.578125 2.730469 L 11.484375 4.285156 L 13.878906 2.660156 L 15.992188 3.632812 L 16.816406 2.03125 Z M 13.824219 0.605469 "/>
<path style=" stroke:none;fill-rule:nonzero;fill:rgb(69.01961%,75.686276%,83.137256%);fill-opacity:1;" d="M 10.964844 5.007812 L 11.570312 3.976562 L 13.851562 5.496094 L 15.855469 4.574219 L 16.40625 5.644531 L 13.847656 6.867188 Z M 10.964844 5.007812 "/>
<path style=" stroke:none;fill-rule:nonzero;fill:rgb(40.000001%,47.450981%,56.078434%);fill-opacity:1;" d="M 11.667969 4.402344 L 13.546875 5.65625 L 13.824219 5.839844 L 14.128906 5.699219 L 15.71875 4.96875 L 16 5.507812 L 13.871094 6.523438 L 11.371094 4.910156 L 11.667969 4.402344 M 11.472656 3.550781 L 10.5625 5.105469 L 13.824219 7.210938 L 16.816406 5.78125 L 15.988281 4.183594 L 13.878906 5.15625 Z M 11.472656 3.550781 "/>
<path style=" stroke:none;fill-rule:nonzero;fill:rgb(69.01961%,75.686276%,83.137256%);fill-opacity:1;" d="M 5.101562 2.699219 L 10.5 2.699219 L 10.5 5.101562 L 5.101562 5.101562 Z M 5.101562 2.699219 "/>
<path style=" stroke:none;fill-rule:nonzero;fill:rgb(40.000001%,47.450981%,56.078434%);fill-opacity:1;" d="M 10.199219 3 L 10.199219 4.800781 L 5.398438 4.800781 L 5.398438 3 L 10.199219 3 M 10.800781 2.398438 L 4.800781 2.398438 L 4.800781 5.398438 L 10.800781 5.398438 Z M 10.800781 2.398438 "/>
<path style=" stroke:none;fill-rule:nonzero;fill:rgb(69.01961%,75.686276%,83.137256%);fill-opacity:1;" d="M 2.875 4.683594 L 5.152344 3.933594 L 9.199219 13.617188 L 6.921875 14.367188 Z M 2.875 4.683594 "/>
<path style=" stroke:none;fill-rule:nonzero;fill:rgb(40.000001%,47.450981%,56.078434%);fill-opacity:1;" d="M 4.980469 4.304688 L 8.796875 13.433594 L 7.089844 13.996094 L 3.277344 4.867188 L 4.980469 4.304688 M 5.320312 3.5625 L 2.472656 4.5 L 6.75 14.738281 L 9.601562 13.800781 Z M 5.320312 3.5625 "/>
<path style=" stroke:none;fill-rule:nonzero;fill:rgb(100%,93.333334%,63.921571%);fill-opacity:1;" d="M 3.898438 6.300781 C 2.578125 6.300781 1.5 5.222656 1.5 3.898438 C 1.5 2.578125 2.578125 1.5 3.898438 1.5 C 5.222656 1.5 6.300781 2.578125 6.300781 3.898438 C 6.300781 5.222656 5.222656 6.300781 3.898438 6.300781 Z M 3.898438 6.300781 "/>
<path style=" stroke:none;fill-rule:nonzero;fill:rgb(72.941178%,60.784316%,28.235295%);fill-opacity:1;" d="M 3.898438 1.800781 C 5.058594 1.800781 6 2.742188 6 3.898438 C 6 5.058594 5.058594 6 3.898438 6 C 2.742188 6 1.800781 5.058594 1.800781 3.898438 C 1.800781 2.742188 2.742188 1.800781 3.898438 1.800781 M 3.898438 1.199219 C 2.410156 1.199219 1.199219 2.410156 1.199219 3.898438 C 1.199219 5.390625 2.410156 6.601562 3.898438 6.601562 C 5.390625 6.601562 6.601562 5.390625 6.601562 3.898438 C 6.601562 2.410156 5.390625 1.199219 3.898438 1.199219 Z M 3.898438 1.199219 "/>
<path style=" stroke:none;fill-rule:nonzero;fill:rgb(100%,93.333334%,63.921571%);fill-opacity:1;" d="M 10.546875 5.699219 C 10.1875 5.699219 9.898438 5.410156 9.898438 5.054688 L 9.898438 2.746094 C 9.898438 2.390625 10.1875 2.101562 10.546875 2.101562 L 11.699219 2.101562 L 11.699219 5.699219 Z M 10.546875 5.699219 "/>
<path style=" stroke:none;fill-rule:nonzero;fill:rgb(72.941178%,60.784316%,28.235295%);fill-opacity:1;" d="M 11.398438 2.398438 L 11.398438 5.398438 L 10.546875 5.398438 C 10.355469 5.398438 10.199219 5.246094 10.199219 5.054688 L 10.199219 2.746094 C 10.199219 2.554688 10.355469 2.398438 10.546875 2.398438 L 11.398438 2.398438 M 12 1.800781 L 10.546875 1.800781 C 10.023438 1.800781 9.601562 2.222656 9.601562 2.746094 L 9.601562 5.054688 C 9.601562 5.578125 10.023438 6 10.546875 6 L 12 6 Z M 12 1.800781 "/>
<path style=" stroke:none;fill-rule:nonzero;fill:rgb(100%,93.333334%,63.921571%);fill-opacity:1;" d="M 4.117188 15.300781 L 6.019531 11.972656 C 6.113281 11.804688 6.292969 11.699219 6.488281 11.699219 L 8.511719 11.699219 C 8.707031 11.699219 8.886719 11.804688 8.980469 11.972656 L 10.882812 15.300781 Z M 4.117188 15.300781 "/>
<path style=" stroke:none;fill-rule:nonzero;fill:rgb(72.941178%,60.784316%,28.235295%);fill-opacity:1;" d="M 8.511719 12 C 8.597656 12 8.679688 12.046875 8.722656 12.121094 L 10.367188 15 L 4.632812 15 L 6.277344 12.121094 C 6.320312 12.046875 6.402344 12 6.488281 12 L 8.511719 12 M 8.511719 11.398438 L 6.488281 11.398438 C 6.1875 11.398438 5.90625 11.5625 5.757812 11.824219 L 3.601562 15.601562 L 11.398438 15.601562 L 9.242188 11.824219 C 9.09375 11.5625 8.8125 11.398438 8.511719 11.398438 Z M 8.511719 11.398438 "/>
<path style=" stroke:none;fill-rule:nonzero;fill:rgb(69.01961%,75.686276%,83.137256%);fill-opacity:1;" d="M 3.898438 3.300781 C 3.570312 3.300781 3.300781 3.570312 3.300781 3.898438 C 3.300781 4.230469 3.570312 4.5 3.898438 4.5 C 4.230469 4.5 4.5 4.230469 4.5 3.898438 C 4.5 3.570312 4.230469 3.300781 3.898438 3.300781 Z M 3.898438 3.300781 "/>
<path style=" stroke:none;fill-rule:nonzero;fill:rgb(40.000001%,47.450981%,56.078434%);fill-opacity:1;" d="M 3.898438 3.601562 C 4.066406 3.601562 4.199219 3.734375 4.199219 3.898438 C 4.199219 4.066406 4.066406 4.199219 3.898438 4.199219 C 3.734375 4.199219 3.601562 4.066406 3.601562 3.898438 C 3.601562 3.734375 3.734375 3.601562 3.898438 3.601562 M 3.898438 3 C 3.402344 3 3 3.402344 3 3.898438 C 3 4.398438 3.402344 4.800781 3.898438 4.800781 C 4.398438 4.800781 4.800781 4.398438 4.800781 3.898438 C 4.800781 3.402344 4.398438 3 3.898438 3 Z M 3.898438 3 "/>
<path style=" stroke:none;fill-rule:nonzero;fill:rgb(69.01961%,75.686276%,83.137256%);fill-opacity:1;" d="M 7.5 12.898438 C 7.167969 12.898438 6.898438 13.167969 6.898438 13.5 C 6.898438 13.832031 7.167969 14.101562 7.5 14.101562 C 7.832031 14.101562 8.101562 13.832031 8.101562 13.5 C 8.101562 13.167969 7.832031 12.898438 7.5 12.898438 Z M 7.5 12.898438 "/>
<path style=" stroke:none;fill-rule:nonzero;fill:rgb(40.000001%,47.450981%,56.078434%);fill-opacity:1;" d="M 7.5 13.199219 C 7.664062 13.199219 7.800781 13.335938 7.800781 13.5 C 7.800781 13.664062 7.664062 13.800781 7.5 13.800781 C 7.335938 13.800781 7.199219 13.664062 7.199219 13.5 C 7.199219 13.335938 7.335938 13.199219 7.5 13.199219 M 7.5 12.601562 C 7.003906 12.601562 6.601562 13.003906 6.601562 13.5 C 6.601562 13.996094 7.003906 14.398438 7.5 14.398438 C 7.996094 14.398438 8.398438 13.996094 8.398438 13.5 C 8.398438 13.003906 7.996094 12.601562 7.5 12.601562 Z M 7.5 12.601562 "/>
<path style=" stroke:none;fill-rule:nonzero;fill:rgb(69.01961%,75.686276%,83.137256%);fill-opacity:1;" d="M 2.699219 17.101562 L 2.699219 16.199219 C 2.699219 15.703125 3.105469 15.300781 3.601562 15.300781 L 14.398438 15.300781 C 14.894531 15.300781 15.300781 15.703125 15.300781 16.199219 L 15.300781 17.101562 Z M 2.699219 17.101562 "/>
<path style=" stroke:none;fill-rule:nonzero;fill:rgb(40.000001%,47.450981%,56.078434%);fill-opacity:1;" d="M 14.398438 15.601562 C 14.730469 15.601562 15 15.871094 15 16.199219 L 15 16.800781 L 3 16.800781 L 3 16.199219 C 3 15.871094 3.269531 15.601562 3.601562 15.601562 L 14.398438 15.601562 M 14.398438 15 L 3.601562 15 C 2.941406 15 2.398438 15.539062 2.398438 16.199219 L 2.398438 17.398438 L 15.601562 17.398438 L 15.601562 16.199219 C 15.601562 15.539062 15.058594 15 14.398438 15 Z M 14.398438 15 "/>
</g>
</g>
</svg>
