<?xml version="1.0" encoding="UTF-8"?>
<svg xmlns="http://www.w3.org/2000/svg" xmlns:xlink="http://www.w3.org/1999/xlink" width="24" height="24" viewBox="0 0 24 24" version="1.1">
<g transform="scale(1.33333333)">
<g id="surface291">
<path style=" stroke:none;fill-rule:nonzero;fill:rgb(30.588236%,47.843137%,70.980394%);fill-opacity:1;" d="M 9 7.800781 C 8.335938 7.800781 7.800781 8.335938 7.800781 9 C 7.800781 9.664062 8.335938 10.199219 9 10.199219 C 9.664062 10.199219 10.199219 9.664062 10.199219 9 C 10.199219 8.335938 9.664062 7.800781 9 7.800781 Z M 9 7.800781 "/>
<path style=" stroke:none;fill-rule:nonzero;fill:rgb(45.490196%,58.823532%,76.862746%);fill-opacity:1;" d="M 11.398438 9 C 11.398438 10.097656 10.652344 11.019531 9.644531 11.300781 L 10.265625 12.367188 C 11.628906 11.855469 12.601562 10.542969 12.601562 9 C 12.601562 7.460938 11.628906 6.148438 10.269531 5.632812 L 9.644531 6.699219 C 10.652344 6.984375 11.398438 7.902344 11.398438 9 Z M 6.601562 9 C 6.601562 7.902344 7.347656 6.980469 8.355469 6.699219 L 7.734375 5.632812 C 6.371094 6.144531 5.398438 7.457031 5.398438 9 C 5.398438 10.539062 6.371094 11.851562 7.730469 12.367188 L 8.355469 11.300781 C 7.347656 11.015625 6.601562 10.097656 6.601562 9 Z M 6.601562 9 "/>
<path style=" stroke:none;fill-rule:nonzero;fill:rgb(54.509807%,71.764708%,94.117647%);fill-opacity:1;" d="M 7.117188 13.414062 C 5.402344 12.679688 4.199219 10.976562 4.199219 9 C 4.199219 7.019531 5.40625 5.316406 7.125 4.582031 L 6.515625 3.542969 C 4.445312 4.488281 3 6.574219 3 9 C 3 11.421875 4.4375 13.503906 6.503906 14.453125 Z M 11.496094 3.546875 L 10.886719 4.585938 C 12.597656 5.320312 13.800781 7.023438 13.800781 9 C 13.800781 10.980469 12.59375 12.683594 10.875 13.417969 L 11.484375 14.457031 C 13.554688 13.511719 15 11.425781 15 9 C 15 6.578125 13.5625 4.496094 11.496094 3.546875 Z M 11.496094 3.546875 "/>
<path style=" stroke:none;fill-rule:nonzero;fill:rgb(76.078433%,90.980393%,100%);fill-opacity:1;" d="M 5.898438 15.488281 C 3.480469 14.328125 1.800781 11.859375 1.800781 9 C 1.800781 6.136719 3.484375 3.664062 5.910156 2.503906 L 5.304688 1.464844 C 2.519531 2.832031 0.601562 5.6875 0.601562 9 C 0.601562 12.304688 2.511719 15.15625 5.289062 16.527344 Z M 12.710938 1.472656 L 12.101562 2.511719 C 14.519531 3.671875 16.199219 6.140625 16.199219 9 C 16.199219 11.863281 14.515625 14.335938 12.089844 15.496094 L 12.695312 16.535156 C 15.480469 15.167969 17.398438 12.3125 17.398438 9 C 17.398438 5.695312 15.488281 2.84375 12.710938 1.472656 Z M 12.710938 1.472656 "/>
</g>
</g>
</svg>
