<?xml version="1.0" encoding="UTF-8"?>
<svg xmlns="http://www.w3.org/2000/svg" xmlns:xlink="http://www.w3.org/1999/xlink" width="24" height="24" viewBox="0 0 24 24" version="1.1">
<g transform="scale(1.33333333)">
<g id="surface312">
<path style=" stroke:none;fill-rule:nonzero;fill:rgb(88.235295%,92.156863%,94.901961%);fill-opacity:1;" d="M 1.5 1.5 L 16.5 1.5 L 16.5 16.5 L 1.5 16.5 Z M 1.5 1.5 "/>
<path style=" stroke:none;fill-rule:nonzero;fill:rgb(40.000001%,47.450981%,56.078434%);fill-opacity:1;" d="M 16.199219 1.800781 L 16.199219 16.199219 L 1.800781 16.199219 L 1.800781 1.800781 L 16.199219 1.800781 M 16.800781 1.199219 L 1.199219 1.199219 L 1.199219 16.800781 L 16.800781 16.800781 Z M 16.800781 1.199219 "/>
<path style=" stroke:none;fill-rule:nonzero;fill:rgb(40.000001%,47.450981%,56.078434%);fill-opacity:1;" d="M 13.800781 11.398438 L 4.199219 11.398438 L 4.199219 5.398438 L 13.800781 5.398438 Z M 13.800781 11.398438 "/>
<path style=" stroke:none;fill-rule:nonzero;fill:rgb(40.000001%,47.450981%,56.078434%);fill-opacity:1;" d="M 12 13.199219 L 6 13.199219 L 6 10.199219 L 12 10.199219 Z M 12 13.199219 "/>
<path style=" stroke:none;fill-rule:nonzero;fill:rgb(100%,93.333334%,63.921571%);fill-opacity:1;" d="M 10.800781 6 L 11.398438 6 L 11.398438 7.199219 L 10.800781 7.199219 Z M 12 6 L 12.601562 6 L 12.601562 7.199219 L 12 7.199219 Z M 5.398438 6 L 6 6 L 6 7.199219 L 5.398438 7.199219 Z M 9.601562 6 L 10.199219 6 L 10.199219 7.199219 L 9.601562 7.199219 Z M 7.800781 6 L 8.398438 6 L 8.398438 7.199219 L 7.800781 7.199219 Z M 6.601562 6 L 7.199219 6 L 7.199219 7.199219 L 6.601562 7.199219 Z M 6.601562 6 "/>
</g>
</g>
</svg>
