<?xml version="1.0" encoding="UTF-8"?>
<svg xmlns="http://www.w3.org/2000/svg" xmlns:xlink="http://www.w3.org/1999/xlink" width="24" height="24" viewBox="0 0 24 24" version="1.1">
<g transform="scale(1.33333333)">
<g id="surface350">
<path style=" stroke:none;fill-rule:nonzero;fill:rgb(69.01961%,75.686276%,83.137256%);fill-opacity:1;" d="M 7.5 12.300781 L 10.5 12.300781 L 10.5 15.300781 L 7.5 15.300781 Z M 7.5 12.300781 "/>
<path style=" stroke:none;fill-rule:nonzero;fill:rgb(40.000001%,47.450981%,56.078434%);fill-opacity:1;" d="M 10.199219 12.601562 L 10.199219 15 L 7.800781 15 L 7.800781 12.601562 L 10.199219 12.601562 M 10.800781 12 L 7.199219 12 L 7.199219 15.601562 L 10.800781 15.601562 Z M 10.800781 12 "/>
<path style=" stroke:none;fill-rule:nonzero;fill:rgb(85.09804%,94.901961%,100%);fill-opacity:1;" d="M 0.898438 2.101562 L 17.101562 2.101562 L 17.101562 13.5 L 0.898438 13.5 Z M 0.898438 2.101562 "/>
<path style=" stroke:none;fill-rule:nonzero;fill:rgb(40.000001%,47.450981%,56.078434%);fill-opacity:1;" d="M 16.800781 2.398438 L 16.800781 13.199219 L 1.199219 13.199219 L 1.199219 2.398438 L 16.800781 2.398438 M 17.398438 1.800781 L 0.601562 1.800781 L 0.601562 13.800781 L 17.398438 13.800781 Z M 17.398438 1.800781 "/>
<path style=" stroke:none;fill-rule:nonzero;fill:rgb(40.000001%,47.450981%,56.078434%);fill-opacity:1;" d="M 1.199219 12 L 16.800781 12 L 16.800781 13.199219 L 1.199219 13.199219 Z M 13.800781 16.199219 L 4.078125 16.199219 C 4.078125 15.539062 4.621094 15 5.28125 15 L 12.601562 15 C 13.261719 15 13.800781 15.539062 13.800781 16.199219 Z M 13.800781 16.199219 "/>
<path style=" stroke:none;fill-rule:nonzero;fill:rgb(100%,93.333334%,63.921571%);fill-opacity:1;" d="M 15 12.601562 L 16.199219 12.601562 L 16.199219 13.199219 L 15 13.199219 Z M 15 12.601562 "/>
<path style=" stroke:none;fill-rule:nonzero;fill:rgb(30.588236%,47.843137%,70.980394%);fill-opacity:1;" d="M 10.5 10.800781 L 7.5 5.398438 L 6.179688 7.800781 L 1.199219 7.800781 L 1.199219 7.199219 L 5.820312 7.199219 L 7.5 4.199219 L 10.5 9.601562 L 11.820312 7.199219 L 16.800781 7.199219 L 16.800781 7.800781 L 12.179688 7.800781 Z M 10.5 10.800781 "/>
</g>
</g>
</svg>
