<?xml version="1.0" encoding="UTF-8"?>
<svg xmlns="http://www.w3.org/2000/svg" xmlns:xlink="http://www.w3.org/1999/xlink" width="24" height="24" viewBox="0 0 24 24" version="1.1">
<g transform="scale(1.33333333)">
<g id="surface377">
<path style=" stroke:none;fill-rule:nonzero;fill:rgb(96.078432%,76.078433%,46.27451%);fill-opacity:1;" d="M 1.800781 6.601562 L 16.199219 6.601562 L 16.199219 7.800781 L 1.800781 7.800781 Z M 1.800781 8.398438 L 16.199219 8.398438 L 16.199219 9.601562 L 1.800781 9.601562 Z M 1.800781 4.800781 L 16.199219 4.800781 L 16.199219 6 L 1.800781 6 Z M 1.800781 10.199219 L 16.199219 10.199219 L 16.199219 11.398438 L 1.800781 11.398438 Z M 1.800781 12 L 16.199219 12 L 16.199219 13.199219 L 1.800781 13.199219 Z M 1.800781 13.800781 L 16.199219 13.800781 L 16.199219 15 L 1.800781 15 Z M 1.800781 3 L 16.199219 3 L 16.199219 4.199219 L 1.800781 4.199219 Z M 1.800781 3 "/>
<path style=" stroke:none;fill-rule:nonzero;fill:rgb(60.000002%,78.823531%,61.960787%);fill-opacity:1;" d="M 4.800781 16.5 C 4.304688 16.5 3.898438 16.097656 3.898438 15.601562 L 3.898438 2.398438 C 3.898438 1.902344 4.304688 1.5 4.800781 1.5 L 13.199219 1.5 C 13.695312 1.5 14.101562 1.902344 14.101562 2.398438 L 14.101562 15.601562 C 14.101562 16.097656 13.695312 16.5 13.199219 16.5 Z M 4.800781 16.5 "/>
<path style=" stroke:none;fill-rule:nonzero;fill:rgb(36.862746%,61.176473%,46.27451%);fill-opacity:1;" d="M 13.199219 1.800781 C 13.53125 1.800781 13.800781 2.070312 13.800781 2.398438 L 13.800781 15.601562 C 13.800781 15.929688 13.53125 16.199219 13.199219 16.199219 L 4.800781 16.199219 C 4.46875 16.199219 4.199219 15.929688 4.199219 15.601562 L 4.199219 2.398438 C 4.199219 2.070312 4.46875 1.800781 4.800781 1.800781 L 13.199219 1.800781 M 13.199219 1.199219 L 4.800781 1.199219 C 4.136719 1.199219 3.601562 1.738281 3.601562 2.398438 L 3.601562 15.601562 C 3.601562 16.261719 4.136719 16.800781 4.800781 16.800781 L 13.199219 16.800781 C 13.863281 16.800781 14.398438 16.261719 14.398438 15.601562 L 14.398438 2.398438 C 14.398438 1.738281 13.863281 1.199219 13.199219 1.199219 Z M 13.199219 1.199219 "/>
<path style=" stroke:none;fill-rule:nonzero;fill:rgb(29.411766%,39.215687%,46.666667%);fill-opacity:1;" d="M 6.300781 3.300781 C 5.96875 3.300781 5.699219 3.570312 5.699219 3.898438 C 5.699219 4.230469 5.96875 4.5 6.300781 4.5 C 6.632812 4.5 6.898438 4.230469 6.898438 3.898438 C 6.898438 3.570312 6.632812 3.300781 6.300781 3.300781 Z M 6.300781 3.300781 "/>
<path style=" stroke:none;fill-rule:nonzero;fill:rgb(21.176471%,25.098041%,30.19608%);fill-opacity:1;" d="M 6.300781 3.601562 C 6.464844 3.601562 6.601562 3.734375 6.601562 3.898438 C 6.601562 4.066406 6.464844 4.199219 6.300781 4.199219 C 6.132812 4.199219 6 4.066406 6 3.898438 C 6 3.734375 6.132812 3.601562 6.300781 3.601562 M 6.300781 3 C 5.804688 3 5.398438 3.402344 5.398438 3.898438 C 5.398438 4.398438 5.804688 4.800781 6.300781 4.800781 C 6.796875 4.800781 7.199219 4.398438 7.199219 3.898438 C 7.199219 3.402344 6.796875 3 6.300781 3 Z M 6.300781 3 "/>
</g>
</g>
</svg>
