<?xml version="1.0" encoding="UTF-8"?>
<svg xmlns="http://www.w3.org/2000/svg" xmlns:xlink="http://www.w3.org/1999/xlink" width="24" height="24" viewBox="0 0 24 24" version="1.1">
<g transform="scale(1.33333333)">
<g id="surface395">
<path style=" stroke:none;fill-rule:nonzero;fill:rgb(71.372551%,78.823531%,83.92157%);fill-opacity:1;" d="M 5.699219 1.5 L 12.300781 1.5 L 12.300781 9.300781 L 5.699219 9.300781 Z M 5.699219 1.5 "/>
<path style=" stroke:none;fill-rule:nonzero;fill:rgb(47.058824%,54.509807%,61.176473%);fill-opacity:1;" d="M 12 1.800781 L 12 9 L 6 9 L 6 1.800781 L 12 1.800781 M 12.601562 1.199219 L 5.398438 1.199219 L 5.398438 9.601562 L 12.601562 9.601562 Z M 12.601562 1.199219 "/>
<path style=" stroke:none;fill-rule:nonzero;fill:rgb(21.176471%,25.098041%,30.19608%);fill-opacity:1;" d="M 6.601562 3.601562 L 8.398438 3.601562 L 8.398438 4.800781 L 6.601562 4.800781 Z M 9.601562 3.601562 L 11.398438 3.601562 L 11.398438 4.800781 L 9.601562 4.800781 Z M 9.601562 3.601562 "/>
<path style=" stroke:none;fill-rule:nonzero;fill:rgb(77.64706%,72.941178%,90.196079%);fill-opacity:1;" d="M 7.5 17.101562 L 7.5 14.699219 L 7.199219 14.699219 C 5.710938 14.699219 4.5 13.488281 4.5 12 L 4.5 7.800781 C 4.5 7.304688 4.902344 6.898438 5.398438 6.898438 L 12.601562 6.898438 C 13.097656 6.898438 13.5 7.304688 13.5 7.800781 L 13.5 12 C 13.5 13.488281 12.289062 14.699219 10.800781 14.699219 L 10.5 14.699219 L 10.5 17.101562 Z M 7.5 17.101562 "/>
<path style=" stroke:none;fill-rule:nonzero;fill:rgb(54.509807%,45.882353%,63.137257%);fill-opacity:1;" d="M 12.601562 7.199219 C 12.929688 7.199219 13.199219 7.46875 13.199219 7.800781 L 13.199219 12 C 13.199219 13.324219 12.125 14.398438 10.800781 14.398438 L 10.199219 14.398438 L 10.199219 16.800781 L 7.800781 16.800781 L 7.800781 14.398438 L 7.199219 14.398438 C 5.875 14.398438 4.800781 13.324219 4.800781 12 L 4.800781 7.800781 C 4.800781 7.46875 5.070312 7.199219 5.398438 7.199219 L 12.601562 7.199219 M 12.601562 6.601562 L 5.398438 6.601562 C 4.738281 6.601562 4.199219 7.140625 4.199219 7.800781 L 4.199219 12 C 4.199219 13.648438 5.550781 15 7.199219 15 L 7.199219 17.398438 L 10.800781 17.398438 L 10.800781 15 C 12.449219 15 13.800781 13.648438 13.800781 12 L 13.800781 7.800781 C 13.800781 7.140625 13.261719 6.601562 12.601562 6.601562 Z M 12.601562 6.601562 "/>
</g>
</g>
</svg>
