<?xml version="1.0" encoding="UTF-8"?>
<svg xmlns="http://www.w3.org/2000/svg" xmlns:xlink="http://www.w3.org/1999/xlink" width="32" height="32" viewBox="0 0 32 32" version="1.1">
<g transform="scale(1.33333333)">
<g id="surface591">
<path style=" stroke:none;fill-rule:nonzero;fill:rgb(100%,100%,100%);fill-opacity:1;" d="M 4.5 22.5 L 4.5 1.5 L 15.476562 1.5 L 20.699219 6.722656 L 20.699219 21.152344 C 20.699219 21.894531 20.097656 22.5 19.355469 22.5 Z M 4.5 22.5 "/>
<path style=" stroke:none;fill-rule:nonzero;fill:rgb(47.058824%,54.509807%,61.176473%);fill-opacity:1;" d="M 15.351562 1.800781 L 20.398438 6.847656 L 20.398438 21.152344 C 20.398438 21.730469 19.929688 22.199219 19.355469 22.199219 L 4.800781 22.199219 L 4.800781 1.800781 L 15.351562 1.800781 M 15.601562 1.199219 L 4.199219 1.199219 L 4.199219 22.800781 L 19.355469 22.800781 C 20.261719 22.800781 21 22.0625 21 21.152344 L 21 6.601562 Z M 15.601562 1.199219 "/>
<path style=" stroke:none;fill-rule:nonzero;fill:rgb(100%,100%,100%);fill-opacity:1;" d="M 15.300781 6.898438 L 15.300781 1.5 L 15.476562 1.5 L 20.699219 6.722656 L 20.699219 6.898438 Z M 15.300781 6.898438 "/>
<path style=" stroke:none;fill-rule:nonzero;fill:rgb(47.058824%,54.509807%,61.176473%);fill-opacity:1;" d="M 15.601562 2.046875 L 20.152344 6.601562 L 15.601562 6.601562 L 15.601562 2.046875 M 15.601562 1.199219 L 15 1.199219 L 15 7.199219 L 21 7.199219 L 21 6.601562 Z M 15.601562 1.199219 "/>
<path style=" stroke:none;fill-rule:nonzero;fill:rgb(77.254903%,83.137256%,87.058824%);fill-opacity:1;" d="M 7.800781 9.601562 L 17.398438 9.601562 L 17.398438 10.199219 L 7.800781 10.199219 Z M 7.800781 11.398438 L 15 11.398438 L 15 12 L 7.800781 12 Z M 7.800781 13.199219 L 17.398438 13.199219 L 17.398438 13.800781 L 7.800781 13.800781 Z M 7.800781 15 L 15 15 L 15 15.601562 L 7.800781 15.601562 Z M 7.800781 16.800781 L 17.398438 16.800781 L 17.398438 17.398438 L 7.800781 17.398438 Z M 7.800781 16.800781 "/>
<path style=" stroke:none;fill-rule:nonzero;fill:rgb(83.92157%,89.019608%,92.941177%);fill-opacity:1;" d="M 20.398438 13.199219 L 20.398438 22.199219 L 15 22.199219 L 15 22.800781 L 19.203125 22.800781 C 20.195312 22.800781 21 21.996094 21 21.003906 L 21 13.199219 Z M 20.398438 13.199219 "/>
<path style=" stroke:none;fill-rule:nonzero;fill:rgb(86.274511%,83.529413%,94.901961%);fill-opacity:1;" d="M 16.5 14.699219 L 23.699219 14.699219 L 23.699219 23.699219 L 16.5 23.699219 Z M 16.5 14.699219 "/>
<path style=" stroke:none;fill-rule:nonzero;fill:rgb(54.509807%,45.882353%,63.137257%);fill-opacity:1;" d="M 23.398438 15 L 23.398438 23.398438 L 16.800781 23.398438 L 16.800781 15 L 23.398438 15 M 24 14.398438 L 16.199219 14.398438 L 16.199219 24 L 24 24 Z M 24 14.398438 "/>
<path style="fill:none;stroke-width:1;stroke-linecap:butt;stroke-linejoin:miter;stroke:rgb(97.647059%,96.862745%,100%);stroke-opacity:1;stroke-miterlimit:10;" d="M 31.497396 38.997396 L 31.497396 25 " transform="matrix(0.6,0,0,0.6,0,0)"/>
<path style="fill:none;stroke-width:1;stroke-linecap:butt;stroke-linejoin:miter;stroke:rgb(54.509807%,45.882353%,63.137257%);stroke-opacity:1;stroke-miterlimit:10;" d="M 26.998698 34.498698 L 40 34.498698 M 26.998698 29.498698 L 40 29.498698 " transform="matrix(0.6,0,0,0.6,0,0)"/>
</g>
</g>
</svg>
