<?xml version="1.0" encoding="UTF-8"?>
<svg xmlns="http://www.w3.org/2000/svg" xmlns:xlink="http://www.w3.org/1999/xlink" width="32" height="32" viewBox="0 0 32 32" version="1.1">
<g transform="scale(1.33333333)">
<g id="surface2126">
<path style=" stroke:none;fill-rule:nonzero;fill:rgb(100%,100%,100%);fill-opacity:1;" d="M 4.398438 22 L 4.398438 2 L 15.039062 2 L 19.601562 6.558594 L 19.601562 22 Z M 4.398438 22 "/>
<path style=" stroke:none;fill-rule:nonzero;fill:rgb(47.058824%,54.509807%,61.176473%);fill-opacity:1;" d="M 14.878906 2.398438 L 19.199219 6.71875 L 19.199219 21.601562 L 4.800781 21.601562 L 4.800781 2.398438 L 14.878906 2.398438 M 15.199219 1.601562 L 4 1.601562 L 4 22.398438 L 20 22.398438 L 20 6.398438 Z M 15.199219 1.601562 "/>
<path style=" stroke:none;fill-rule:nonzero;fill:rgb(77.254903%,83.137256%,87.058824%);fill-opacity:1;" d="M 7.199219 9.601562 L 16.800781 9.601562 L 16.800781 10.398438 L 7.199219 10.398438 Z M 7.199219 12 L 15.199219 12 L 15.199219 12.800781 L 7.199219 12.800781 Z M 7.199219 14.398438 L 16.800781 14.398438 L 16.800781 15.199219 L 7.199219 15.199219 Z M 7.199219 16.800781 L 15.199219 16.800781 L 15.199219 17.601562 L 7.199219 17.601562 Z M 7.199219 16.800781 "/>
<path style=" stroke:none;fill-rule:nonzero;fill:rgb(100%,100%,100%);fill-opacity:1;" d="M 14.800781 6.800781 L 14.800781 2 L 15.039062 2 L 19.601562 6.558594 L 19.601562 6.800781 Z M 14.800781 6.800781 "/>
<path style=" stroke:none;fill-rule:nonzero;fill:rgb(47.058824%,54.509807%,61.176473%);fill-opacity:1;" d="M 15.199219 2.71875 L 18.878906 6.398438 L 15.199219 6.398438 L 15.199219 2.71875 M 15.199219 1.601562 L 14.398438 1.601562 L 14.398438 7.199219 L 20 7.199219 L 20 6.398438 Z M 15.199219 1.601562 "/>
<path style=" stroke:none;fill-rule:nonzero;fill:rgb(83.92157%,89.019608%,92.941177%);fill-opacity:1;" d="M 19.199219 12 L 19.199219 21.601562 L 13.601562 21.601562 L 13.601562 22.398438 L 20 22.398438 L 20 12 Z M 19.199219 12 "/>
<path style=" stroke:none;fill-rule:nonzero;fill:rgb(86.274511%,83.529413%,94.901961%);fill-opacity:1;" d="M 15.601562 14 L 23.601562 14 L 23.601562 23.601562 L 15.601562 23.601562 Z M 15.601562 14 "/>
<path style=" stroke:none;fill-rule:nonzero;fill:rgb(54.509807%,45.882353%,63.137257%);fill-opacity:1;" d="M 23.199219 14.398438 L 23.199219 23.199219 L 16 23.199219 L 16 14.398438 L 23.199219 14.398438 M 24 13.601562 L 15.199219 13.601562 L 15.199219 24 L 24 24 Z M 24 13.601562 "/>
<path style=" stroke:none;fill-rule:nonzero;fill:rgb(97.647059%,96.862745%,100%);fill-opacity:1;" d="M 17.601562 14.398438 L 18.398438 14.398438 L 18.398438 23.199219 L 17.601562 23.199219 Z M 17.601562 14.398438 "/>
<path style=" stroke:none;fill-rule:nonzero;fill:rgb(54.509807%,45.882353%,63.137257%);fill-opacity:1;" d="M 15.199219 16.800781 L 24 16.800781 L 24 17.601562 L 15.199219 17.601562 Z M 15.199219 20 L 24 20 L 24 20.800781 L 15.199219 20.800781 Z M 15.199219 20 "/>
</g>
</g>
</svg>
