<?xml version="1.0" encoding="UTF-8"?>
<svg xmlns="http://www.w3.org/2000/svg" xmlns:xlink="http://www.w3.org/1999/xlink" width="32" height="32" viewBox="0 0 32 32" version="1.1">
<g transform="scale(1.33333333)">
<g id="surface626">
<path style=" stroke:none;fill-rule:nonzero;fill:rgb(100%,93.333334%,63.921571%);fill-opacity:1;" d="M 12 23.101562 C 5.878906 23.101562 0.898438 18.121094 0.898438 12 C 0.898438 5.878906 5.878906 0.898438 12 0.898438 C 18.121094 0.898438 23.101562 5.878906 23.101562 12 C 23.101562 18.121094 18.121094 23.101562 12 23.101562 Z M 12 23.101562 "/>
<path style=" stroke:none;fill-rule:nonzero;fill:rgb(72.941178%,60.784316%,28.235295%);fill-opacity:1;" d="M 12 1.199219 C 17.941406 1.199219 22.800781 6.058594 22.800781 12 C 22.800781 17.941406 17.941406 22.800781 12 22.800781 C 6.058594 22.800781 1.199219 17.941406 1.199219 12 C 1.199219 6.058594 6.058594 1.199219 12 1.199219 M 12 0.601562 C 5.699219 0.601562 0.601562 5.699219 0.601562 12 C 0.601562 18.300781 5.699219 23.398438 12 23.398438 C 18.300781 23.398438 23.398438 18.300781 23.398438 12 C 23.398438 5.699219 18.300781 0.601562 12 0.601562 Z M 12 0.601562 "/>
<path style=" stroke:none;fill-rule:nonzero;fill:rgb(21.176471%,25.098041%,30.19608%);fill-opacity:1;" d="M 10.800781 6.601562 L 13.199219 6.601562 L 13.199219 13.800781 L 10.800781 13.800781 Z M 10.800781 6.601562 "/>
<path style=" stroke:none;fill-rule:nonzero;fill:rgb(21.176471%,25.098041%,30.19608%);fill-opacity:1;" d="M 13.199219 16.199219 C 13.199219 16.863281 12.664062 17.398438 12 17.398438 C 11.335938 17.398438 10.800781 16.863281 10.800781 16.199219 C 10.800781 15.539062 11.335938 15 12 15 C 12.664062 15 13.199219 15.539062 13.199219 16.199219 Z M 13.199219 16.199219 "/>
</g>
</g>
</svg>
