<?xml version="1.0" encoding="UTF-8"?>
<svg xmlns="http://www.w3.org/2000/svg" xmlns:xlink="http://www.w3.org/1999/xlink" width="32" height="32" viewBox="0 0 32 32" version="1.1">
<g transform="scale(1.33333333)">
<g id="surface644">
<path style=" stroke:none;fill-rule:nonzero;fill:rgb(85.882354%,94.901961%,100%);fill-opacity:1;" d="M 2.101562 23.101562 L 2.101562 7.980469 L 12 2.160156 L 21.898438 7.980469 L 21.898438 23.101562 Z M 2.101562 23.101562 "/>
<path style=" stroke:none;fill-rule:nonzero;fill:rgb(70.980394%,86.666667%,96.078432%);fill-opacity:1;" d="M 2.398438 20.398438 L 21.78125 20.398438 L 21.78125 22.800781 L 2.398438 22.800781 Z M 2.398438 20.398438 "/>
<path style=" stroke:none;fill-rule:nonzero;fill:rgb(45.490196%,58.823532%,76.862746%);fill-opacity:1;" d="M 12 2.519531 L 21.601562 8.160156 L 21.601562 22.800781 L 2.398438 22.800781 L 2.398438 8.160156 L 12 2.519531 M 12 1.800781 L 1.800781 7.800781 L 1.800781 23.398438 L 22.199219 23.398438 L 22.199219 7.800781 Z M 12 1.800781 "/>
<path style=" stroke:none;fill-rule:nonzero;fill:rgb(96.862745%,56.078434%,56.078434%);fill-opacity:1;" d="M 12 2.761719 L 0.898438 9.601562 L 0.898438 7.738281 L 12 0.960938 L 23.101562 7.738281 L 23.101562 9.601562 Z M 12 2.761719 "/>
<path style=" stroke:none;fill-rule:nonzero;fill:rgb(78.039217%,26.274511%,26.274511%);fill-opacity:1;" d="M 12 1.320312 L 22.800781 7.921875 L 22.800781 9.058594 L 12.300781 2.640625 L 12 2.460938 L 11.699219 2.640625 L 1.199219 9.058594 L 1.199219 7.921875 L 12 1.320312 M 12 0.601562 L 0.601562 7.558594 L 0.601562 10.078125 L 12 3.121094 L 23.398438 10.078125 L 23.398438 7.558594 Z M 12 0.601562 "/>
<path style=" stroke:none;fill-rule:nonzero;fill:rgb(100%,76.862746%,61.176473%);fill-opacity:1;" d="M 8.699219 12.898438 L 15.300781 12.898438 L 15.300781 23.101562 L 8.699219 23.101562 Z M 8.699219 12.898438 "/>
<path style=" stroke:none;fill-rule:nonzero;fill:rgb(63.137257%,41.568628%,29.019609%);fill-opacity:1;" d="M 15 13.199219 L 15 22.800781 L 9 22.800781 L 9 13.199219 L 15 13.199219 M 15.601562 12.601562 L 8.398438 12.601562 L 8.398438 23.398438 L 15.601562 23.398438 Z M 15.601562 12.601562 "/>
<path style=" stroke:none;fill-rule:nonzero;fill:rgb(63.137257%,41.568628%,29.019609%);fill-opacity:1;" d="M 13.800781 18 C 13.441406 18 13.199219 18.238281 13.199219 18.601562 C 13.199219 18.960938 13.441406 19.199219 13.800781 19.199219 C 14.160156 19.199219 14.398438 18.960938 14.398438 18.601562 C 14.398438 18.238281 14.160156 18 13.800781 18 Z M 13.800781 18 "/>
</g>
</g>
</svg>
