<?xml version="1.0" encoding="UTF-8"?>
<svg xmlns="http://www.w3.org/2000/svg" xmlns:xlink="http://www.w3.org/1999/xlink" width="32" height="32" viewBox="0 0 32 32" version="1.1">
<g transform="scale(1.33333333)">
<g id="surface669">
<path style=" stroke:none;fill-rule:nonzero;fill:rgb(100%,100%,100%);fill-opacity:1;" d="M 2.699219 3.898438 L 23.101562 3.898438 L 23.101562 23.101562 L 2.699219 23.101562 Z M 2.699219 3.898438 "/>
<path style=" stroke:none;fill-rule:nonzero;fill:rgb(47.058824%,54.509807%,61.176473%);fill-opacity:1;" d="M 22.800781 4.199219 L 22.800781 22.800781 L 3 22.800781 L 3 4.199219 L 22.800781 4.199219 M 23.398438 3.601562 L 2.398438 3.601562 L 2.398438 23.398438 L 23.398438 23.398438 Z M 23.398438 3.601562 "/>
<path style=" stroke:none;fill-rule:nonzero;fill:rgb(96.862745%,56.078434%,56.078434%);fill-opacity:1;" d="M 2.699219 3.898438 L 23.101562 3.898438 L 23.101562 7.5 L 2.699219 7.5 Z M 2.699219 3.898438 "/>
<path style=" stroke:none;fill-rule:nonzero;fill:rgb(78.039217%,26.274511%,26.274511%);fill-opacity:1;" d="M 22.800781 4.199219 L 22.800781 7.199219 L 3 7.199219 L 3 4.199219 L 22.800781 4.199219 M 23.398438 3.601562 L 2.398438 3.601562 L 2.398438 7.800781 L 23.398438 7.800781 Z M 23.398438 3.601562 "/>
<path style=" stroke:none;fill-rule:nonzero;fill:rgb(77.254903%,83.137256%,87.058824%);fill-opacity:1;" d="M 18 10.199219 L 19.800781 10.199219 L 19.800781 12 L 18 12 Z M 15 10.199219 L 16.800781 10.199219 L 16.800781 12 L 15 12 Z M 12 10.199219 L 13.800781 10.199219 L 13.800781 12 L 12 12 Z M 9 10.199219 L 10.800781 10.199219 L 10.800781 12 L 9 12 Z M 18 13.199219 L 19.800781 13.199219 L 19.800781 15 L 18 15 Z M 15 13.199219 L 16.800781 13.199219 L 16.800781 15 L 15 15 Z M 12 13.199219 L 13.800781 13.199219 L 13.800781 15 L 12 15 Z M 9 13.199219 L 10.800781 13.199219 L 10.800781 15 L 9 15 Z M 6 13.199219 L 7.800781 13.199219 L 7.800781 15 L 6 15 Z M 15 16.199219 L 16.800781 16.199219 L 16.800781 18 L 15 18 Z M 12 16.199219 L 13.800781 16.199219 L 13.800781 18 L 12 18 Z M 9 16.199219 L 10.800781 16.199219 L 10.800781 18 L 9 18 Z M 6 16.199219 L 7.800781 16.199219 L 7.800781 18 L 6 18 Z M 6 16.199219 "/>
<path style=" stroke:none;fill-rule:nonzero;fill:rgb(88.235295%,92.156863%,94.901961%);fill-opacity:1;" d="M 3 21 L 22.800781 21 L 22.800781 22.800781 L 3 22.800781 Z M 3 21 "/>
<path style=" stroke:none;fill-rule:nonzero;fill:rgb(54.509807%,71.764708%,94.117647%);fill-opacity:1;" d="M 6.898438 12.898438 C 3.589844 12.898438 0.898438 10.207031 0.898438 6.898438 C 0.898438 3.589844 3.589844 0.898438 6.898438 0.898438 C 10.207031 0.898438 12.898438 3.589844 12.898438 6.898438 C 12.898438 10.207031 10.207031 12.898438 6.898438 12.898438 Z M 6.898438 12.898438 "/>
<path style=" stroke:none;fill-rule:nonzero;fill:rgb(30.588236%,47.843137%,70.980394%);fill-opacity:1;" d="M 6.898438 1.199219 C 10.042969 1.199219 12.601562 3.757812 12.601562 6.898438 C 12.601562 10.042969 10.042969 12.601562 6.898438 12.601562 C 3.757812 12.601562 1.199219 10.042969 1.199219 6.898438 C 1.199219 3.757812 3.757812 1.199219 6.898438 1.199219 M 6.898438 0.601562 C 3.421875 0.601562 0.601562 3.421875 0.601562 6.898438 C 0.601562 10.378906 3.421875 13.199219 6.898438 13.199219 C 10.378906 13.199219 13.199219 10.378906 13.199219 6.898438 C 13.199219 3.421875 10.378906 0.601562 6.898438 0.601562 Z M 6.898438 0.601562 "/>
<path style=" stroke:none;fill-rule:nonzero;fill:rgb(100%,100%,100%);fill-opacity:1;" d="M 6.898438 2.398438 C 4.414062 2.398438 2.398438 4.414062 2.398438 6.898438 C 2.398438 9.386719 4.414062 11.398438 6.898438 11.398438 C 9.386719 11.398438 11.398438 9.386719 11.398438 6.898438 C 11.398438 4.414062 9.386719 2.398438 6.898438 2.398438 Z M 6.898438 2.398438 "/>
<path style=" stroke:none;fill-rule:nonzero;fill:rgb(21.176471%,25.098041%,30.19608%);fill-opacity:1;" d="M 6.898438 6.148438 C 6.484375 6.148438 6.148438 6.484375 6.148438 6.898438 C 6.148438 7.3125 6.484375 7.648438 6.898438 7.648438 C 7.3125 7.648438 7.648438 7.3125 7.648438 6.898438 C 7.648438 6.484375 7.3125 6.148438 6.898438 6.148438 Z M 6.898438 6.148438 "/>
<path style="fill:none;stroke-width:1;stroke-linecap:butt;stroke-linejoin:miter;stroke:rgb(21.176471%,25.098041%,30.19608%);stroke-opacity:1;stroke-miterlimit:10;" d="M 14.498698 15.247396 L 11.497396 11.497396 L 13.75 5.501302 " transform="matrix(0.6,0,0,0.6,0,0)"/>
</g>
</g>
</svg>
