<?xml version="1.0" encoding="UTF-8"?>
<svg xmlns="http://www.w3.org/2000/svg" xmlns:xlink="http://www.w3.org/1999/xlink" width="32" height="32" viewBox="0 0 32 32" version="1.1">
<g transform="scale(1.33333333)">
<g id="surface2069">
<path style=" stroke:none;fill-rule:nonzero;fill:rgb(100%,100%,100%);fill-opacity:1;" d="M 2.800781 4.398438 L 22.800781 4.398438 L 22.800781 22.800781 L 2.800781 22.800781 Z M 2.800781 4.398438 "/>
<path style=" stroke:none;fill-rule:nonzero;fill:rgb(47.058824%,54.509807%,61.176473%);fill-opacity:1;" d="M 22.398438 4.800781 L 22.398438 22.398438 L 3.199219 22.398438 L 3.199219 4.800781 L 22.398438 4.800781 M 23.199219 4 L 2.398438 4 L 2.398438 23.199219 L 23.199219 23.199219 Z M 23.199219 4 "/>
<path style=" stroke:none;fill-rule:nonzero;fill:rgb(96.862745%,56.078434%,56.078434%);fill-opacity:1;" d="M 2.800781 4.398438 L 22.800781 4.398438 L 22.800781 7.601562 L 2.800781 7.601562 Z M 2.800781 4.398438 "/>
<path style=" stroke:none;fill-rule:nonzero;fill:rgb(78.039217%,26.274511%,26.274511%);fill-opacity:1;" d="M 22.398438 4.800781 L 22.398438 7.199219 L 3.199219 7.199219 L 3.199219 4.800781 L 22.398438 4.800781 M 23.199219 4 L 2.398438 4 L 2.398438 8 L 23.199219 8 Z M 23.199219 4 "/>
<path style=" stroke:none;fill-rule:nonzero;fill:rgb(77.254903%,83.137256%,87.058824%);fill-opacity:1;" d="M 8.800781 10.398438 L 10.398438 10.398438 L 10.398438 12 L 8.800781 12 Z M 12 10.398438 L 13.601562 10.398438 L 13.601562 12 L 12 12 Z M 15.199219 10.398438 L 16.800781 10.398438 L 16.800781 12 L 15.199219 12 Z M 18.398438 10.398438 L 20 10.398438 L 20 12 L 18.398438 12 Z M 5.601562 13.601562 L 7.199219 13.601562 L 7.199219 15.199219 L 5.601562 15.199219 Z M 8.800781 13.601562 L 10.398438 13.601562 L 10.398438 15.199219 L 8.800781 15.199219 Z M 12 13.601562 L 13.601562 13.601562 L 13.601562 15.199219 L 12 15.199219 Z M 15.199219 13.601562 L 16.800781 13.601562 L 16.800781 15.199219 L 15.199219 15.199219 Z M 18.398438 13.601562 L 20 13.601562 L 20 15.199219 L 18.398438 15.199219 Z M 5.601562 16.800781 L 7.199219 16.800781 L 7.199219 18.398438 L 5.601562 18.398438 Z M 8.800781 16.800781 L 10.398438 16.800781 L 10.398438 18.398438 L 8.800781 18.398438 Z M 12 16.800781 L 13.601562 16.800781 L 13.601562 18.398438 L 12 18.398438 Z M 15.199219 16.800781 L 16.800781 16.800781 L 16.800781 18.398438 L 15.199219 18.398438 Z M 15.199219 16.800781 "/>
<path style=" stroke:none;fill-rule:nonzero;fill:rgb(88.235295%,92.156863%,94.901961%);fill-opacity:1;" d="M 3.199219 20.800781 L 22.398438 20.800781 L 22.398438 22.398438 L 3.199219 22.398438 Z M 3.199219 20.800781 "/>
<path style=" stroke:none;fill-rule:nonzero;fill:rgb(54.509807%,71.764708%,94.117647%);fill-opacity:1;" d="M 7.199219 1.199219 C 3.886719 1.199219 1.199219 3.886719 1.199219 7.199219 C 1.199219 10.515625 3.886719 13.199219 7.199219 13.199219 C 10.515625 13.199219 13.199219 10.515625 13.199219 7.199219 C 13.199219 3.886719 10.515625 1.199219 7.199219 1.199219 Z M 7.199219 1.199219 "/>
<path style=" stroke:none;fill-rule:nonzero;fill:rgb(30.588236%,47.843137%,70.980394%);fill-opacity:1;" d="M 7.199219 1.601562 C 10.320312 1.601562 12.800781 4.078125 12.800781 7.199219 C 12.800781 10.320312 10.320312 12.800781 7.199219 12.800781 C 4.078125 12.800781 1.601562 10.320312 1.601562 7.199219 C 1.601562 4.078125 4.078125 1.601562 7.199219 1.601562 M 7.199219 0.800781 C 3.679688 0.800781 0.800781 3.679688 0.800781 7.199219 C 0.800781 10.71875 3.679688 13.601562 7.199219 13.601562 C 10.71875 13.601562 13.601562 10.71875 13.601562 7.199219 C 13.601562 3.679688 10.71875 0.800781 7.199219 0.800781 Z M 7.199219 0.800781 "/>
<path style=" stroke:none;fill-rule:nonzero;fill:rgb(100%,100%,100%);fill-opacity:1;" d="M 7.199219 2.398438 C 4.550781 2.398438 2.398438 4.550781 2.398438 7.199219 C 2.398438 9.851562 4.550781 12 7.199219 12 C 9.851562 12 12 9.851562 12 7.199219 C 12 4.550781 9.851562 2.398438 7.199219 2.398438 Z M 7.199219 2.398438 "/>
<path style=" stroke:none;fill-rule:nonzero;fill:rgb(21.176471%,25.098041%,30.19608%);fill-opacity:1;" d="M 7.199219 6.398438 C 6.757812 6.398438 6.398438 6.757812 6.398438 7.199219 C 6.398438 7.640625 6.757812 8 7.199219 8 C 7.640625 8 8 7.640625 8 7.199219 C 8 6.757812 7.640625 6.398438 7.199219 6.398438 Z M 7.199219 6.398438 "/>
<path style=" stroke:none;fill-rule:nonzero;fill:rgb(21.176471%,25.098041%,30.19608%);fill-opacity:1;" d="M 8.71875 9.761719 L 6.71875 7.28125 L 8.160156 3.441406 L 8.960938 3.679688 L 7.679688 7.121094 L 9.359375 9.199219 Z M 8.71875 9.761719 "/>
</g>
</g>
</svg>
