<?xml version="1.0" encoding="UTF-8"?>
<svg xmlns="http://www.w3.org/2000/svg" xmlns:xlink="http://www.w3.org/1999/xlink" width="24" height="24" viewBox="0 0 24 24" version="1.1">
<g transform="scale(1.33333333)">
<g id="surface188">
<path style=" stroke:none;fill-rule:nonzero;fill:rgb(54.509807%,71.764708%,94.117647%);fill-opacity:1;" d="M 9 17.101562 C 4.558594 17.101562 0.898438 13.441406 0.898438 9 C 0.898438 4.558594 4.558594 0.898438 9 0.898438 C 13.441406 0.898438 17.101562 4.558594 17.101562 9 C 17.101562 13.441406 13.441406 17.101562 9 17.101562 Z M 9 17.101562 "/>
<path style=" stroke:none;fill-rule:nonzero;fill:rgb(30.588236%,47.843137%,70.980394%);fill-opacity:1;" d="M 9 1.199219 C 13.320312 1.199219 16.800781 4.679688 16.800781 9 C 16.800781 13.320312 13.320312 16.800781 9 16.800781 C 4.679688 16.800781 1.199219 13.320312 1.199219 9 C 1.199219 4.679688 4.679688 1.199219 9 1.199219 M 9 0.601562 C 4.378906 0.601562 0.601562 4.378906 0.601562 9 C 0.601562 13.621094 4.378906 17.398438 9 17.398438 C 13.621094 17.398438 17.398438 13.621094 17.398438 9 C 17.398438 4.378906 13.621094 0.601562 9 0.601562 Z M 9 0.601562 "/>
<path style=" stroke:none;fill-rule:nonzero;fill:rgb(100%,100%,100%);fill-opacity:1;" d="M 9 15.898438 C 5.21875 15.898438 2.101562 12.78125 2.101562 9 C 2.101562 5.21875 5.21875 2.101562 9 2.101562 C 12.78125 2.101562 15.898438 5.21875 15.898438 9 C 15.898438 12.78125 12.78125 15.898438 9 15.898438 Z M 9 15.898438 "/>
<path style=" stroke:none;fill-rule:nonzero;fill:rgb(30.588236%,47.843137%,70.980394%);fill-opacity:1;" d="M 9 2.398438 C 12.660156 2.398438 15.601562 5.339844 15.601562 9 C 15.601562 12.660156 12.660156 15.601562 9 15.601562 C 5.339844 15.601562 2.398438 12.660156 2.398438 9 C 2.398438 5.339844 5.339844 2.398438 9 2.398438 M 9 1.800781 C 5.039062 1.800781 1.800781 5.039062 1.800781 9 C 1.800781 12.960938 5.039062 16.199219 9 16.199219 C 12.960938 16.199219 16.199219 12.960938 16.199219 9 C 16.199219 5.039062 12.960938 1.800781 9 1.800781 Z M 9 1.800781 "/>
<path style=" stroke:none;fill-rule:nonzero;fill:rgb(40.000001%,47.450981%,56.078434%);fill-opacity:1;" d="M 11.578125 11.878906 C 11.519531 11.878906 11.398438 11.878906 11.339844 11.820312 L 8.578125 9.058594 L 11.820312 4.261719 C 11.941406 4.140625 12.121094 4.078125 12.238281 4.199219 C 12.359375 4.320312 12.421875 4.5 12.300781 4.621094 L 9.359375 9 L 11.761719 11.398438 C 11.878906 11.519531 11.878906 11.699219 11.761719 11.820312 C 11.761719 11.878906 11.640625 11.878906 11.578125 11.878906 Z M 11.578125 11.878906 "/>
<path style=" stroke:none;fill-rule:nonzero;fill:rgb(40.000001%,47.450981%,56.078434%);fill-opacity:1;" d="M 9 8.101562 C 8.503906 8.101562 8.101562 8.503906 8.101562 9 C 8.101562 9.496094 8.503906 9.898438 9 9.898438 C 9.496094 9.898438 9.898438 9.496094 9.898438 9 C 9.898438 8.503906 9.496094 8.101562 9 8.101562 Z M 9 8.101562 "/>
<path style=" stroke:none;fill-rule:nonzero;fill:rgb(77.254903%,83.137256%,87.058824%);fill-opacity:1;" d="M 9 3 C 8.667969 3 8.398438 3.269531 8.398438 3.601562 C 8.398438 3.929688 8.667969 4.199219 9 4.199219 C 9.332031 4.199219 9.601562 3.929688 9.601562 3.601562 C 9.601562 3.269531 9.332031 3 9 3 Z M 9 13.800781 C 8.667969 13.800781 8.398438 14.070312 8.398438 14.398438 C 8.398438 14.730469 8.667969 15 9 15 C 9.332031 15 9.601562 14.730469 9.601562 14.398438 C 9.601562 14.070312 9.332031 13.800781 9 13.800781 Z M 9 13.800781 "/>
<path style=" stroke:none;fill-rule:nonzero;fill:rgb(77.254903%,83.137256%,87.058824%);fill-opacity:1;" d="M 14.398438 8.398438 C 14.070312 8.398438 13.800781 8.667969 13.800781 9 C 13.800781 9.332031 14.070312 9.601562 14.398438 9.601562 C 14.730469 9.601562 15 9.332031 15 9 C 15 8.667969 14.730469 8.398438 14.398438 8.398438 Z M 14.398438 8.398438 "/>
<path style=" stroke:none;fill-rule:nonzero;fill:rgb(77.254903%,83.137256%,87.058824%);fill-opacity:1;" d="M 3.601562 8.398438 C 3.269531 8.398438 3 8.667969 3 9 C 3 9.332031 3.269531 9.601562 3.601562 9.601562 C 3.929688 9.601562 4.199219 9.332031 4.199219 9 C 4.199219 8.667969 3.929688 8.398438 3.601562 8.398438 Z M 3.601562 8.398438 "/>
</g>
</g>
</svg>
