<?xml version="1.0" encoding="UTF-8"?>
<svg xmlns="http://www.w3.org/2000/svg" xmlns:xlink="http://www.w3.org/1999/xlink" width="24" height="24" viewBox="0 0 24 24" version="1.1">
<g transform="scale(1.33333333)">
<g id="surface293">
<path style=" stroke:none;fill-rule:nonzero;fill:rgb(76.078433%,90.980393%,100%);fill-opacity:1;" d="M 2.398438 15.898438 C 1.902344 15.898438 1.5 15.496094 1.5 15 L 1.5 2.398438 C 1.5 1.902344 1.902344 1.5 2.398438 1.5 L 15 1.5 C 15.496094 1.5 15.898438 1.902344 15.898438 2.398438 L 15.898438 15 C 15.898438 15.496094 15.496094 15.898438 15 15.898438 Z M 2.398438 15.898438 "/>
<path style=" stroke:none;fill-rule:nonzero;fill:rgb(45.490196%,58.823532%,76.862746%);fill-opacity:1;" d="M 15 1.800781 C 15.332031 1.800781 15.601562 2.070312 15.601562 2.398438 L 15.601562 15 C 15.601562 15.332031 15.332031 15.601562 15 15.601562 L 2.398438 15.601562 C 2.070312 15.601562 1.800781 15.332031 1.800781 15 L 1.800781 2.398438 C 1.800781 2.070312 2.070312 1.800781 2.398438 1.800781 L 15 1.800781 M 15 1.199219 L 2.398438 1.199219 C 1.738281 1.199219 1.199219 1.738281 1.199219 2.398438 L 1.199219 15 C 1.199219 15.664062 1.738281 16.199219 2.398438 16.199219 L 15 16.199219 C 15.664062 16.199219 16.199219 15.664062 16.199219 15 L 16.199219 2.398438 C 16.199219 1.738281 15.664062 1.199219 15 1.199219 Z M 15 1.199219 "/>
<path style=" stroke:none;fill-rule:nonzero;fill:rgb(72.941178%,87.843138%,74.117649%);fill-opacity:1;" d="M 3.601562 5.699219 C 3.433594 5.699219 3.300781 5.566406 3.300781 5.398438 L 3.300781 3.601562 C 3.300781 3.433594 3.433594 3.300781 3.601562 3.300781 L 5.398438 3.300781 C 5.566406 3.300781 5.699219 3.433594 5.699219 3.601562 L 5.699219 5.398438 C 5.699219 5.566406 5.566406 5.699219 5.398438 5.699219 Z M 3.601562 5.699219 "/>
<path style=" stroke:none;fill-rule:nonzero;fill:rgb(36.862746%,61.176473%,46.27451%);fill-opacity:1;" d="M 5.398438 3.601562 L 5.398438 5.398438 L 3.601562 5.398438 L 3.601562 3.601562 L 5.398438 3.601562 M 5.398438 3 L 3.601562 3 C 3.269531 3 3 3.269531 3 3.601562 L 3 5.398438 C 3 5.730469 3.269531 6 3.601562 6 L 5.398438 6 C 5.730469 6 6 5.730469 6 5.398438 L 6 3.601562 C 6 3.269531 5.730469 3 5.398438 3 Z M 5.398438 3 "/>
<path style=" stroke:none;fill-rule:nonzero;fill:rgb(72.941178%,87.843138%,74.117649%);fill-opacity:1;" d="M 7.800781 5.699219 C 7.636719 5.699219 7.5 5.566406 7.5 5.398438 L 7.5 3.601562 C 7.5 3.433594 7.636719 3.300781 7.800781 3.300781 L 9.601562 3.300781 C 9.765625 3.300781 9.898438 3.433594 9.898438 3.601562 L 9.898438 5.398438 C 9.898438 5.566406 9.765625 5.699219 9.601562 5.699219 Z M 7.800781 5.699219 "/>
<path style=" stroke:none;fill-rule:nonzero;fill:rgb(36.862746%,61.176473%,46.27451%);fill-opacity:1;" d="M 9.601562 3.601562 L 9.601562 5.398438 L 7.800781 5.398438 L 7.800781 3.601562 L 9.601562 3.601562 M 9.601562 3 L 7.800781 3 C 7.46875 3 7.199219 3.269531 7.199219 3.601562 L 7.199219 5.398438 C 7.199219 5.730469 7.46875 6 7.800781 6 L 9.601562 6 C 9.929688 6 10.199219 5.730469 10.199219 5.398438 L 10.199219 3.601562 C 10.199219 3.269531 9.929688 3 9.601562 3 Z M 9.601562 3 "/>
<path style=" stroke:none;fill-rule:nonzero;fill:rgb(72.941178%,87.843138%,74.117649%);fill-opacity:1;" d="M 12 5.699219 C 11.835938 5.699219 11.699219 5.566406 11.699219 5.398438 L 11.699219 3.601562 C 11.699219 3.433594 11.835938 3.300781 12 3.300781 L 13.800781 3.300781 C 13.964844 3.300781 14.101562 3.433594 14.101562 3.601562 L 14.101562 5.398438 C 14.101562 5.566406 13.964844 5.699219 13.800781 5.699219 Z M 12 5.699219 "/>
<path style=" stroke:none;fill-rule:nonzero;fill:rgb(36.862746%,61.176473%,46.27451%);fill-opacity:1;" d="M 13.800781 3.601562 L 13.800781 5.398438 L 12 5.398438 L 12 3.601562 L 13.800781 3.601562 M 13.800781 3 L 12 3 C 11.667969 3 11.398438 3.269531 11.398438 3.601562 L 11.398438 5.398438 C 11.398438 5.730469 11.667969 6 12 6 L 13.800781 6 C 14.132812 6 14.398438 5.730469 14.398438 5.398438 L 14.398438 3.601562 C 14.398438 3.269531 14.132812 3 13.800781 3 Z M 13.800781 3 "/>
<path style=" stroke:none;fill-rule:nonzero;fill:rgb(72.941178%,87.843138%,74.117649%);fill-opacity:1;" d="M 3.601562 9.898438 C 3.433594 9.898438 3.300781 9.765625 3.300781 9.601562 L 3.300781 7.800781 C 3.300781 7.636719 3.433594 7.5 3.601562 7.5 L 5.398438 7.5 C 5.566406 7.5 5.699219 7.636719 5.699219 7.800781 L 5.699219 9.601562 C 5.699219 9.765625 5.566406 9.898438 5.398438 9.898438 Z M 3.601562 9.898438 "/>
<path style=" stroke:none;fill-rule:nonzero;fill:rgb(36.862746%,61.176473%,46.27451%);fill-opacity:1;" d="M 5.398438 7.800781 L 5.398438 9.601562 L 3.601562 9.601562 L 3.601562 7.800781 L 5.398438 7.800781 M 5.398438 7.199219 L 3.601562 7.199219 C 3.269531 7.199219 3 7.46875 3 7.800781 L 3 9.601562 C 3 9.929688 3.269531 10.199219 3.601562 10.199219 L 5.398438 10.199219 C 5.730469 10.199219 6 9.929688 6 9.601562 L 6 7.800781 C 6 7.46875 5.730469 7.199219 5.398438 7.199219 Z M 5.398438 7.199219 "/>
<path style=" stroke:none;fill-rule:nonzero;fill:rgb(72.941178%,87.843138%,74.117649%);fill-opacity:1;" d="M 7.800781 9.898438 C 7.636719 9.898438 7.5 9.765625 7.5 9.601562 L 7.5 7.800781 C 7.5 7.636719 7.636719 7.5 7.800781 7.5 L 9.601562 7.5 C 9.765625 7.5 9.898438 7.636719 9.898438 7.800781 L 9.898438 9.601562 C 9.898438 9.765625 9.765625 9.898438 9.601562 9.898438 Z M 7.800781 9.898438 "/>
<path style=" stroke:none;fill-rule:nonzero;fill:rgb(36.862746%,61.176473%,46.27451%);fill-opacity:1;" d="M 9.601562 7.800781 L 9.601562 9.601562 L 7.800781 9.601562 L 7.800781 7.800781 L 9.601562 7.800781 M 9.601562 7.199219 L 7.800781 7.199219 C 7.46875 7.199219 7.199219 7.46875 7.199219 7.800781 L 7.199219 9.601562 C 7.199219 9.929688 7.46875 10.199219 7.800781 10.199219 L 9.601562 10.199219 C 9.929688 10.199219 10.199219 9.929688 10.199219 9.601562 L 10.199219 7.800781 C 10.199219 7.46875 9.929688 7.199219 9.601562 7.199219 Z M 9.601562 7.199219 "/>
<path style=" stroke:none;fill-rule:nonzero;fill:rgb(72.941178%,87.843138%,74.117649%);fill-opacity:1;" d="M 12 9.898438 C 11.835938 9.898438 11.699219 9.765625 11.699219 9.601562 L 11.699219 7.800781 C 11.699219 7.636719 11.835938 7.5 12 7.5 L 13.800781 7.5 C 13.964844 7.5 14.101562 7.636719 14.101562 7.800781 L 14.101562 9.601562 C 14.101562 9.765625 13.964844 9.898438 13.800781 9.898438 Z M 12 9.898438 "/>
<path style=" stroke:none;fill-rule:nonzero;fill:rgb(36.862746%,61.176473%,46.27451%);fill-opacity:1;" d="M 13.800781 7.800781 L 13.800781 9.601562 L 12 9.601562 L 12 7.800781 L 13.800781 7.800781 M 13.800781 7.199219 L 12 7.199219 C 11.667969 7.199219 11.398438 7.46875 11.398438 7.800781 L 11.398438 9.601562 C 11.398438 9.929688 11.667969 10.199219 12 10.199219 L 13.800781 10.199219 C 14.132812 10.199219 14.398438 9.929688 14.398438 9.601562 L 14.398438 7.800781 C 14.398438 7.46875 14.132812 7.199219 13.800781 7.199219 Z M 13.800781 7.199219 "/>
<path style=" stroke:none;fill-rule:nonzero;fill:rgb(72.941178%,87.843138%,74.117649%);fill-opacity:1;" d="M 3.601562 14.101562 C 3.433594 14.101562 3.300781 13.964844 3.300781 13.800781 L 3.300781 12 C 3.300781 11.835938 3.433594 11.699219 3.601562 11.699219 L 5.398438 11.699219 C 5.566406 11.699219 5.699219 11.835938 5.699219 12 L 5.699219 13.800781 C 5.699219 13.964844 5.566406 14.101562 5.398438 14.101562 Z M 3.601562 14.101562 "/>
<path style=" stroke:none;fill-rule:nonzero;fill:rgb(36.862746%,61.176473%,46.27451%);fill-opacity:1;" d="M 5.398438 12 L 5.398438 13.800781 L 3.601562 13.800781 L 3.601562 12 L 5.398438 12 M 5.398438 11.398438 L 3.601562 11.398438 C 3.269531 11.398438 3 11.667969 3 12 L 3 13.800781 C 3 14.132812 3.269531 14.398438 3.601562 14.398438 L 5.398438 14.398438 C 5.730469 14.398438 6 14.132812 6 13.800781 L 6 12 C 6 11.667969 5.730469 11.398438 5.398438 11.398438 Z M 5.398438 11.398438 "/>
<path style=" stroke:none;fill-rule:nonzero;fill:rgb(72.941178%,87.843138%,74.117649%);fill-opacity:1;" d="M 7.800781 14.101562 C 7.636719 14.101562 7.5 13.964844 7.5 13.800781 L 7.5 12 C 7.5 11.835938 7.636719 11.699219 7.800781 11.699219 L 9.601562 11.699219 C 9.765625 11.699219 9.898438 11.835938 9.898438 12 L 9.898438 13.800781 C 9.898438 13.964844 9.765625 14.101562 9.601562 14.101562 Z M 7.800781 14.101562 "/>
<path style=" stroke:none;fill-rule:nonzero;fill:rgb(36.862746%,61.176473%,46.27451%);fill-opacity:1;" d="M 9.601562 12 L 9.601562 13.800781 L 7.800781 13.800781 L 7.800781 12 L 9.601562 12 M 9.601562 11.398438 L 7.800781 11.398438 C 7.46875 11.398438 7.199219 11.667969 7.199219 12 L 7.199219 13.800781 C 7.199219 14.132812 7.46875 14.398438 7.800781 14.398438 L 9.601562 14.398438 C 9.929688 14.398438 10.199219 14.132812 10.199219 13.800781 L 10.199219 12 C 10.199219 11.667969 9.929688 11.398438 9.601562 11.398438 Z M 9.601562 11.398438 "/>
<path style=" stroke:none;fill-rule:nonzero;fill:rgb(72.941178%,87.843138%,74.117649%);fill-opacity:1;" d="M 12 14.101562 C 11.835938 14.101562 11.699219 13.964844 11.699219 13.800781 L 11.699219 12 C 11.699219 11.835938 11.835938 11.699219 12 11.699219 L 13.800781 11.699219 C 13.964844 11.699219 14.101562 11.835938 14.101562 12 L 14.101562 13.800781 C 14.101562 13.964844 13.964844 14.101562 13.800781 14.101562 Z M 12 14.101562 "/>
<path style=" stroke:none;fill-rule:nonzero;fill:rgb(36.862746%,61.176473%,46.27451%);fill-opacity:1;" d="M 13.800781 12 L 13.800781 13.800781 L 12 13.800781 L 12 12 L 13.800781 12 M 13.800781 11.398438 L 12 11.398438 C 11.667969 11.398438 11.398438 11.667969 11.398438 12 L 11.398438 13.800781 C 11.398438 14.132812 11.667969 14.398438 12 14.398438 L 13.800781 14.398438 C 14.132812 14.398438 14.398438 14.132812 14.398438 13.800781 L 14.398438 12 C 14.398438 11.667969 14.132812 11.398438 13.800781 11.398438 Z M 13.800781 11.398438 "/>
</g>
</g>
</svg>
