<?xml version="1.0" encoding="UTF-8"?>
<svg xmlns="http://www.w3.org/2000/svg" xmlns:xlink="http://www.w3.org/1999/xlink" width="24" height="24" viewBox="0 0 24 24" version="1.1">
<g transform="scale(1.33333333)">
<g id="surface326">
<path style="fill-rule:nonzero;fill:rgb(54.509807%,71.764708%,94.117647%);fill-opacity:1;stroke-width:1;stroke-linecap:butt;stroke-linejoin:miter;stroke:rgb(30.588236%,47.843137%,70.980394%);stroke-opacity:1;stroke-miterlimit:4;" d="M 13.997396 13.502604 L 16.002604 13.502604 L 16.002604 17.5 L 13.997396 17.5 Z M 13.997396 13.502604 " transform="matrix(0.6,0,0,0.6,0,0)"/>
<path style="fill-rule:nonzero;fill:rgb(54.509807%,71.764708%,94.117647%);fill-opacity:1;stroke-width:1;stroke-linecap:butt;stroke-linejoin:miter;stroke:rgb(30.588236%,47.843137%,70.980394%);stroke-opacity:1;stroke-miterlimit:4;" d="M 9.498698 9.544271 L 11.497396 9.544271 L 11.497396 20.46224 L 9.498698 20.46224 Z M 9.498698 9.544271 " transform="matrix(0.6,0,0,0.6,0,0)"/>
<path style="fill-rule:nonzero;fill:rgb(54.509807%,71.764708%,94.117647%);fill-opacity:1;stroke-width:1;stroke-linecap:butt;stroke-linejoin:miter;stroke:rgb(30.588236%,47.843137%,70.980394%);stroke-opacity:1;stroke-miterlimit:4;" d="M 1.451823 9.518229 L 3.548177 9.518229 L 3.548177 20.481771 L 1.451823 20.481771 Z M 1.451823 9.518229 " transform="matrix(0.6,0,0,0.6,0,0)"/>
<path style="fill-rule:nonzero;fill:rgb(54.509807%,71.764708%,94.117647%);fill-opacity:1;stroke-width:1;stroke-linecap:butt;stroke-linejoin:miter;stroke:rgb(30.588236%,47.843137%,70.980394%);stroke-opacity:1;stroke-miterlimit:4;" d="M 5.501302 4.498698 L 7.5 4.498698 L 7.5 25.501302 L 5.501302 25.501302 Z M 5.501302 4.498698 " transform="matrix(0.6,0,0,0.6,0,0)"/>
<path style="fill-rule:nonzero;fill:rgb(54.509807%,71.764708%,94.117647%);fill-opacity:1;stroke-width:1;stroke-linecap:butt;stroke-linejoin:miter;stroke:rgb(30.588236%,47.843137%,70.980394%);stroke-opacity:1;stroke-miterlimit:4;" d="M 18.457031 9.544271 L 20.455729 9.544271 L 20.455729 20.46224 L 18.457031 20.46224 Z M 18.457031 9.544271 " transform="matrix(0.6,0,0,0.6,0,0)"/>
<path style="fill-rule:nonzero;fill:rgb(54.509807%,71.764708%,94.117647%);fill-opacity:1;stroke-width:1;stroke-linecap:butt;stroke-linejoin:miter;stroke:rgb(30.588236%,47.843137%,70.980394%);stroke-opacity:1;stroke-miterlimit:4;" d="M 26.40625 9.518229 L 28.502604 9.518229 L 28.502604 20.481771 L 26.40625 20.481771 Z M 26.40625 9.518229 " transform="matrix(0.6,0,0,0.6,0,0)"/>
<path style="fill-rule:nonzero;fill:rgb(54.509807%,71.764708%,94.117647%);fill-opacity:1;stroke-width:1;stroke-linecap:butt;stroke-linejoin:miter;stroke:rgb(30.588236%,47.843137%,70.980394%);stroke-opacity:1;stroke-miterlimit:4;" d="M 22.454427 4.498698 L 24.453125 4.498698 L 24.453125 25.501302 L 22.454427 25.501302 Z M 22.454427 4.498698 " transform="matrix(0.6,0,0,0.6,0,0)"/>
</g>
</g>
</svg>
