<?xml version="1.0" encoding="UTF-8"?>
<svg xmlns="http://www.w3.org/2000/svg" xmlns:xlink="http://www.w3.org/1999/xlink" width="24" height="24" viewBox="0 0 24 24" version="1.1">
<g transform="scale(1.33333333)">
<g id="surface382">
<path style=" stroke:none;fill-rule:nonzero;fill:rgb(94.901961%,98.039216%,100%);fill-opacity:1;" d="M 9 17.101562 C 4.558594 17.101562 0.898438 13.441406 0.898438 9 C 0.898438 4.558594 4.558594 0.898438 9 0.898438 C 13.441406 0.898438 17.101562 4.558594 17.101562 9 C 17.101562 13.441406 13.441406 17.101562 9 17.101562 Z M 9 17.101562 "/>
<path style=" stroke:none;fill-rule:nonzero;fill:rgb(47.058824%,54.509807%,61.176473%);fill-opacity:1;" d="M 9 1.199219 C 13.320312 1.199219 16.800781 4.679688 16.800781 9 C 16.800781 13.320312 13.320312 16.800781 9 16.800781 C 4.679688 16.800781 1.199219 13.320312 1.199219 9 C 1.199219 4.679688 4.679688 1.199219 9 1.199219 M 9 0.601562 C 4.378906 0.601562 0.601562 4.378906 0.601562 9 C 0.601562 13.621094 4.378906 17.398438 9 17.398438 C 13.621094 17.398438 17.398438 13.621094 17.398438 9 C 17.398438 4.378906 13.621094 0.601562 9 0.601562 Z M 9 0.601562 "/>
<path style=" stroke:none;fill-rule:nonzero;fill:rgb(94.901961%,98.039216%,100%);fill-opacity:1;" d="M 9 15.898438 C 5.21875 15.898438 2.101562 12.78125 2.101562 9 C 2.101562 5.21875 5.21875 2.101562 9 2.101562 C 12.78125 2.101562 15.898438 5.21875 15.898438 9 C 15.898438 12.78125 12.78125 15.898438 9 15.898438 Z M 9 15.898438 "/>
<path style=" stroke:none;fill-rule:nonzero;fill:rgb(47.058824%,54.509807%,61.176473%);fill-opacity:1;" d="M 9 2.398438 C 12.660156 2.398438 15.601562 5.339844 15.601562 9 C 15.601562 12.660156 12.660156 15.601562 9 15.601562 C 5.339844 15.601562 2.398438 12.660156 2.398438 9 C 2.398438 5.339844 5.339844 2.398438 9 2.398438 M 9 1.800781 C 5.039062 1.800781 1.800781 5.039062 1.800781 9 C 1.800781 12.960938 5.039062 16.199219 9 16.199219 C 12.960938 16.199219 16.199219 12.960938 16.199219 9 C 16.199219 5.039062 12.960938 1.800781 9 1.800781 Z M 9 1.800781 "/>
<path style=" stroke:none;fill-rule:nonzero;fill:rgb(30.588236%,47.843137%,70.980394%);fill-opacity:1;" d="M 5.207031 5.628906 L 5.628906 5.207031 L 9.238281 8.8125 L 8.8125 9.238281 Z M 5.207031 5.628906 "/>
<path style=" stroke:none;fill-rule:nonzero;fill:rgb(54.509807%,71.764708%,94.117647%);fill-opacity:1;" d="M 9 8.101562 C 8.503906 8.101562 8.101562 8.503906 8.101562 9 C 8.101562 9.496094 8.503906 9.898438 9 9.898438 C 9.496094 9.898438 9.898438 9.496094 9.898438 9 C 9.898438 8.503906 9.496094 8.101562 9 8.101562 Z M 9 8.101562 "/>
<path style=" stroke:none;fill-rule:nonzero;fill:rgb(30.588236%,47.843137%,70.980394%);fill-opacity:1;" d="M 9 8.398438 C 9.359375 8.398438 9.601562 8.640625 9.601562 9 C 9.601562 9.359375 9.359375 9.601562 9 9.601562 C 8.640625 9.601562 8.398438 9.359375 8.398438 9 C 8.398438 8.640625 8.640625 8.398438 9 8.398438 M 9 7.800781 C 8.339844 7.800781 7.800781 8.339844 7.800781 9 C 7.800781 9.660156 8.339844 10.199219 9 10.199219 C 9.660156 10.199219 10.199219 9.660156 10.199219 9 C 10.199219 8.339844 9.660156 7.800781 9 7.800781 Z M 9 7.800781 "/>
<path style=" stroke:none;fill-rule:nonzero;fill:rgb(47.058824%,54.509807%,61.176473%);fill-opacity:1;" d="M 7.3125 2.175781 L 7.898438 2.058594 L 8.15625 3.355469 L 7.570312 3.472656 Z M 7.3125 2.175781 "/>
<path style=" stroke:none;fill-rule:nonzero;fill:rgb(47.058824%,54.509807%,61.176473%);fill-opacity:1;" d="M 14.46875 7.578125 L 15.765625 7.320312 L 15.882812 7.910156 L 14.585938 8.167969 Z M 14.46875 7.578125 "/>
<path style=" stroke:none;fill-rule:nonzero;fill:rgb(47.058824%,54.509807%,61.176473%);fill-opacity:1;" d="M 2.058594 10.101562 L 3.355469 9.84375 L 3.472656 10.429688 L 2.175781 10.6875 Z M 2.058594 10.101562 "/>
<path style=" stroke:none;fill-rule:nonzero;fill:rgb(47.058824%,54.509807%,61.176473%);fill-opacity:1;" d="M 11.863281 4.140625 L 12.597656 3.042969 L 13.097656 3.375 L 12.363281 4.472656 Z M 11.863281 4.140625 "/>
<path style=" stroke:none;fill-rule:nonzero;fill:rgb(47.058824%,54.509807%,61.176473%);fill-opacity:1;" d="M 13.527344 12.363281 L 13.859375 11.867188 L 14.957031 12.601562 L 14.625 13.097656 Z M 13.527344 12.363281 "/>
<path style=" stroke:none;fill-rule:nonzero;fill:rgb(47.058824%,54.509807%,61.176473%);fill-opacity:1;" d="M 2.992188 5.367188 L 3.328125 4.871094 L 4.421875 5.601562 L 4.089844 6.101562 Z M 2.992188 5.367188 "/>
<path style=" stroke:none;fill-rule:nonzero;fill:rgb(47.058824%,54.509807%,61.176473%);fill-opacity:1;" d="M 4.835938 3.355469 L 5.335938 3.019531 L 6.070312 4.117188 L 5.570312 4.453125 Z M 4.835938 3.355469 "/>
<path style=" stroke:none;fill-rule:nonzero;fill:rgb(47.058824%,54.509807%,61.176473%);fill-opacity:1;" d="M 13.546875 5.570312 L 14.644531 4.835938 L 14.980469 5.335938 L 13.882812 6.070312 Z M 13.546875 5.570312 "/>
<path style=" stroke:none;fill-rule:nonzero;fill:rgb(47.058824%,54.509807%,61.176473%);fill-opacity:1;" d="M 3.019531 12.664062 L 4.117188 11.929688 L 4.453125 12.429688 L 3.355469 13.160156 Z M 3.019531 12.664062 "/>
<path style=" stroke:none;fill-rule:nonzero;fill:rgb(47.058824%,54.509807%,61.176473%);fill-opacity:1;" d="M 9.832031 3.421875 L 10.089844 2.128906 L 10.675781 2.246094 L 10.417969 3.539062 Z M 9.832031 3.421875 "/>
<path style=" stroke:none;fill-rule:nonzero;fill:rgb(47.058824%,54.509807%,61.176473%);fill-opacity:1;" d="M 14.460938 10.417969 L 14.578125 9.832031 L 15.871094 10.089844 L 15.753906 10.675781 Z M 14.460938 10.417969 "/>
<path style=" stroke:none;fill-rule:nonzero;fill:rgb(47.058824%,54.509807%,61.176473%);fill-opacity:1;" d="M 2.066406 7.898438 L 2.183594 7.3125 L 3.480469 7.570312 L 3.363281 8.15625 Z M 2.066406 7.898438 "/>
</g>
</g>
</svg>
