<?xml version="1.0" encoding="UTF-8"?>
<svg xmlns="http://www.w3.org/2000/svg" xmlns:xlink="http://www.w3.org/1999/xlink" width="24" height="24" viewBox="0 0 24 24" version="1.1">
<g transform="scale(1.33333333)">
<g id="surface420">
<path style=" stroke:none;fill-rule:nonzero;fill:rgb(72.941178%,87.843138%,74.117649%);fill-opacity:1;" d="M 13.914062 17.101562 C 13.914062 17.097656 13.914062 17.097656 13.910156 17.097656 C 13.90625 17.097656 13.890625 17.101562 13.875 17.101562 C 13.855469 17.101562 13.828125 17.097656 13.796875 17.074219 L 11.484375 15.40625 L 11.3125 15.308594 L 9.917969 14.734375 C 9.816406 14.707031 9.761719 14.699219 9.703125 14.699219 C 9.410156 14.699219 9.15625 14.859375 9.03125 15.125 L 8.449219 16.425781 C 8.425781 16.46875 8.378906 16.5 8.328125 16.5 L 6.0625 15.929688 L 5.878906 15.902344 L 5.179688 15.898438 C 5.160156 15.898438 5.136719 15.890625 5.113281 15.875 C 5.054688 15.835938 3.90625 15.003906 3.90625 15.003906 C 3.910156 15.003906 3.898438 14.988281 3.898438 14.925781 L 3.898438 13.992188 C 3.898438 13.738281 3.777344 13.507812 3.574219 13.367188 L 2.78125 12.734375 C 2.722656 12.691406 2.699219 12.640625 2.699219 12.589844 L 2.699219 10.820312 C 2.699219 10.550781 2.554688 10.300781 2.324219 10.164062 L 1.058594 9.417969 C 0.960938 9.359375 0.902344 9.261719 0.902344 9.152344 C 0.902344 9.097656 0.914062 9.046875 0.941406 9 L 1.960938 7.0625 C 2.011719 6.964844 2.113281 6.902344 2.226562 6.902344 L 3.003906 6.902344 C 3.5 6.902344 3.902344 6.496094 3.902344 6.003906 L 3.902344 5.773438 C 3.902344 5.363281 3.574219 5.164062 3.402344 5.054688 C 3.375 5.039062 3.347656 5.023438 3.328125 5.007812 L 3.3125 4.90625 C 3.40625 4.707031 3.746094 4.5 3.976562 4.5 L 13.148438 4.5 C 13.222656 4.5 13.292969 4.527344 13.347656 4.578125 L 14.265625 5.460938 C 14.433594 5.613281 14.644531 5.695312 14.867188 5.699219 C 14.988281 5.699219 15.089844 5.679688 15.191406 5.644531 L 16.535156 5.117188 C 16.550781 5.109375 16.609375 5.101562 16.65625 5.101562 C 16.777344 5.101562 16.871094 5.171875 16.914062 5.296875 C 16.914062 5.300781 17.070312 5.914062 17.078125 5.933594 C 17.09375 5.984375 17.101562 6.039062 17.101562 6.097656 C 17.101562 6.171875 17.089844 6.246094 17.0625 6.316406 L 16.777344 7.195312 C 16.765625 7.226562 16.746094 7.253906 16.714844 7.269531 L 15.664062 7.863281 C 15.375 8.046875 15.246094 8.378906 15.324219 8.699219 L 15.632812 9.972656 C 15.664062 10.109375 15.71875 10.242188 15.800781 10.367188 C 15.808594 10.382812 16.476562 11.386719 16.476562 11.386719 C 16.492188 11.410156 16.5 11.441406 16.5 11.476562 C 16.5 11.507812 16.492188 11.539062 16.476562 11.5625 C 16.464844 11.578125 14.8125 14.242188 14.8125 14.242188 C 14.675781 14.46875 14.664062 14.75 14.78125 14.984375 C 14.808594 15.039062 15.253906 15.796875 15.273438 15.832031 C 15.320312 15.902344 15.304688 16 15.242188 16.046875 C 15.238281 16.050781 13.988281 17.042969 13.914062 17.101562 Z M 13.914062 17.101562 "/>
<path style=" stroke:none;fill-rule:nonzero;fill:rgb(36.862746%,61.176473%,46.27451%);fill-opacity:1;" d="M 13.148438 4.800781 L 14.070312 5.683594 C 14.285156 5.882812 14.566406 5.996094 14.878906 6 C 15.019531 6 15.160156 5.976562 15.304688 5.921875 L 16.617188 5.40625 C 16.621094 5.402344 16.625 5.402344 16.628906 5.402344 C 16.671875 5.558594 16.78125 5.996094 16.789062 6.011719 C 16.796875 6.039062 16.800781 6.070312 16.800781 6.097656 C 16.800781 6.136719 16.792969 6.175781 16.777344 6.230469 L 16.511719 7.039062 L 15.515625 7.601562 L 15.503906 7.609375 L 15.488281 7.617188 C 15.105469 7.859375 14.921875 8.324219 15.03125 8.765625 L 15.335938 10.027344 C 15.375 10.207031 15.445312 10.375 15.546875 10.527344 C 15.558594 10.546875 15.832031 10.960938 16.03125 11.257812 L 16.175781 11.476562 C 16.070312 11.648438 15.722656 12.207031 14.554688 14.089844 C 14.367188 14.398438 14.351562 14.792969 14.511719 15.117188 C 14.539062 15.171875 14.828125 15.664062 14.960938 15.886719 C 14.730469 16.070312 14.140625 16.539062 13.867188 16.753906 L 11.660156 15.160156 L 11.632812 15.140625 L 11.601562 15.121094 L 11.460938 15.046875 L 11.429688 15.027344 L 11.398438 15.015625 L 10.03125 14.457031 L 9.992188 14.441406 L 9.953125 14.429688 C 9.871094 14.410156 9.785156 14.398438 9.703125 14.398438 C 9.289062 14.398438 8.9375 14.625 8.753906 15.007812 L 8.234375 16.167969 L 6.136719 15.636719 L 6.101562 15.628906 L 6.0625 15.621094 L 5.980469 15.613281 L 5.914062 15.605469 L 5.878906 15.601562 L 5.242188 15.601562 C 5.066406 15.472656 4.460938 15.035156 4.199219 14.847656 L 4.199219 13.992188 C 4.199219 13.648438 4.039062 13.332031 3.765625 13.132812 L 2.996094 12.519531 L 2.996094 10.820312 C 2.996094 10.445312 2.796875 10.09375 2.476562 9.90625 L 1.210938 9.15625 L 1.21875 9.128906 L 1.214844 9.125 L 2.226562 7.199219 L 3.003906 7.203125 C 3.664062 7.199219 4.199219 6.660156 4.199219 6.003906 L 4.199219 5.773438 C 4.199219 5.324219 3.929688 5.058594 3.71875 4.90625 C 3.804688 4.847656 3.910156 4.800781 3.976562 4.800781 L 13.148438 4.800781 M 13.148438 4.199219 L 3.976562 4.199219 C 3.644531 4.199219 3.1875 4.460938 3.039062 4.78125 C 3.015625 4.835938 3.003906 4.890625 3 4.949219 C 2.996094 5.074219 3.046875 5.171875 3.148438 5.25 C 3.289062 5.351562 3.601562 5.476562 3.601562 5.773438 L 3.601562 6.003906 C 3.601562 6.332031 3.332031 6.601562 3.003906 6.601562 L 2.226562 6.601562 C 2.003906 6.601562 1.796875 6.726562 1.695312 6.921875 L 0.683594 8.847656 C 0.625 8.945312 0.597656 9.050781 0.601562 9.15625 C 0.601562 9.363281 0.710938 9.566406 0.90625 9.675781 L 2.171875 10.421875 C 2.3125 10.503906 2.398438 10.65625 2.398438 10.820312 L 2.398438 12.589844 C 2.398438 12.742188 2.472656 12.882812 2.59375 12.96875 L 3.402344 13.613281 C 3.527344 13.699219 3.601562 13.839844 3.601562 13.992188 L 3.601562 14.925781 C 3.601562 15.074219 3.648438 15.160156 3.730469 15.246094 C 3.730469 15.246094 4.917969 16.105469 4.945312 16.125 C 5.015625 16.171875 5.097656 16.199219 5.179688 16.199219 L 5.839844 16.199219 C 5.890625 16.207031 5.9375 16.210938 5.988281 16.21875 L 8.253906 16.792969 C 8.277344 16.796875 8.300781 16.800781 8.324219 16.800781 C 8.492188 16.800781 8.644531 16.703125 8.722656 16.546875 L 9.300781 15.253906 C 9.375 15.09375 9.519531 15 9.703125 15 C 9.738281 15 9.769531 15.003906 9.804688 15.015625 L 11.167969 15.570312 C 11.207031 15.589844 11.269531 15.625 11.308594 15.648438 L 13.628906 17.324219 C 13.703125 17.375 13.789062 17.398438 13.875 17.398438 C 13.949219 17.398438 14.023438 17.378906 14.089844 17.34375 C 14.105469 17.332031 15.421875 16.285156 15.421875 16.285156 C 15.617188 16.136719 15.652344 15.863281 15.527344 15.667969 C 15.511719 15.644531 15.070312 14.890625 15.050781 14.851562 C 14.980469 14.710938 14.984375 14.539062 15.066406 14.398438 C 15.066406 14.398438 16.71875 11.738281 16.726562 11.730469 C 16.773438 11.652344 16.800781 11.5625 16.800781 11.476562 C 16.800781 11.386719 16.773438 11.296875 16.726562 11.222656 C 16.714844 11.210938 16.070312 10.234375 16.050781 10.203125 C 15.992188 10.109375 15.949219 10.007812 15.921875 9.898438 L 15.613281 8.625 C 15.566406 8.433594 15.644531 8.230469 15.8125 8.125 L 16.863281 7.53125 C 16.957031 7.476562 17.027344 7.390625 17.0625 7.289062 L 17.347656 6.417969 C 17.382812 6.3125 17.402344 6.203125 17.398438 6.09375 C 17.398438 6.011719 17.386719 5.929688 17.363281 5.851562 C 17.359375 5.828125 17.199219 5.199219 17.199219 5.199219 C 17.109375 4.953125 16.90625 4.800781 16.660156 4.800781 C 16.65625 4.800781 16.652344 4.800781 16.648438 4.800781 C 16.585938 4.800781 16.492188 4.8125 16.425781 4.835938 L 15.085938 5.363281 C 15.019531 5.386719 14.949219 5.398438 14.878906 5.398438 C 14.878906 5.398438 14.875 5.398438 14.871094 5.398438 C 14.726562 5.398438 14.585938 5.34375 14.476562 5.242188 L 13.550781 4.355469 C 13.441406 4.253906 13.296875 4.199219 13.148438 4.199219 Z M 13.148438 4.199219 "/>
<path style=" stroke:none;fill-rule:nonzero;fill:rgb(36.862746%,61.176473%,46.27451%);fill-opacity:1;" d="M 6.300781 9.601562 C 5.804688 9.601562 5.398438 10.003906 5.398438 10.5 C 5.398438 10.996094 5.804688 11.398438 6.300781 11.398438 C 6.796875 11.398438 7.199219 10.996094 7.199219 10.5 C 7.199219 10.003906 6.796875 9.601562 6.300781 9.601562 Z M 6.300781 9.601562 "/>
<path style=" stroke:none;fill-rule:nonzero;fill:rgb(96.862745%,56.078434%,56.078434%);fill-opacity:1;" d="M 9.597656 9.132812 C 8.90625 8.277344 6.898438 5.628906 6.898438 3.601562 C 6.898438 2.113281 8.113281 0.898438 9.601562 0.898438 C 11.089844 0.898438 12.300781 2.113281 12.300781 3.601562 C 12.300781 5.621094 10.292969 8.277344 9.597656 9.132812 Z M 9.601562 2.699219 C 9.105469 2.699219 8.699219 3.105469 8.699219 3.601562 C 8.699219 4.097656 9.105469 4.5 9.601562 4.5 C 10.097656 4.5 10.5 4.097656 10.5 3.601562 C 10.5 3.105469 10.097656 2.699219 9.601562 2.699219 Z M 9.601562 2.699219 "/>
<path style=" stroke:none;fill-rule:nonzero;fill:rgb(78.039217%,26.274511%,26.274511%);fill-opacity:1;" d="M 9.601562 1.199219 C 10.921875 1.199219 12 2.277344 12 3.601562 C 12 5.339844 10.40625 7.609375 9.597656 8.648438 C 8.792969 7.613281 7.199219 5.347656 7.199219 3.601562 C 7.199219 2.277344 8.277344 1.199219 9.601562 1.199219 M 9.601562 4.800781 C 10.261719 4.800781 10.800781 4.261719 10.800781 3.601562 C 10.800781 2.9375 10.261719 2.398438 9.601562 2.398438 C 8.9375 2.398438 8.398438 2.9375 8.398438 3.601562 C 8.398438 4.261719 8.9375 4.800781 9.601562 4.800781 M 9.601562 0.601562 C 7.945312 0.601562 6.601562 1.945312 6.601562 3.601562 C 6.601562 5.957031 9.09375 9.019531 9.601562 9.601562 C 10.105469 9.015625 12.601562 5.945312 12.601562 3.601562 C 12.601562 1.945312 11.257812 0.601562 9.601562 0.601562 Z M 9.601562 4.199219 C 9.269531 4.199219 9 3.929688 9 3.601562 C 9 3.269531 9.269531 3 9.601562 3 C 9.929688 3 10.199219 3.269531 10.199219 3.601562 C 10.199219 3.929688 9.929688 4.199219 9.601562 4.199219 Z M 9.601562 4.199219 "/>
</g>
</g>
</svg>
