<?xml version="1.0" encoding="UTF-8"?>
<svg xmlns="http://www.w3.org/2000/svg" xmlns:xlink="http://www.w3.org/1999/xlink" width="24" height="24" viewBox="0 0 24 24" version="1.1">
<g transform="scale(0.8)">
<g id="surface679">
<path style=" stroke:none;fill-rule:nonzero;fill:rgb(76.078433%,58.823532%,32.549021%);fill-opacity:1;" d="M 21.5 24 C 20.699219 24 19.601562 23.699219 18.199219 23 C 16.199219 22 14 20.300781 11.800781 18.199219 C 7.800781 14.199219 4.5 8.898438 6.601562 6.699219 C 8.800781 4.5 14.101562 7.800781 18.101562 11.898438 C 20.199219 14 21.898438 16.300781 22.898438 18.300781 C 24.398438 21.300781 23.898438 22.699219 23.199219 23.398438 C 23 23.699219 22.398438 24 21.5 24 Z M 8.5 8 C 8.300781 8 8.199219 8 8.101562 8.101562 C 7.601562 8.601562 8.699219 12.199219 13.300781 16.800781 C 15.300781 18.800781 17.300781 20.398438 19.199219 21.300781 C 20.898438 22.199219 21.800781 22.101562 22 22 C 22.199219 21.800781 22.199219 20.898438 21.300781 19.199219 C 20.398438 17.398438 18.800781 15.300781 16.800781 13.300781 C 12.898438 9.398438 9.699219 8 8.5 8 Z M 8.5 8 "/>
<path style=" stroke:none;fill-rule:nonzero;fill:rgb(58.823532%,47.843137%,26.666668%);fill-opacity:1;" d="M 18.699219 7 C 20.101562 7 21.199219 7.398438 21.898438 8.101562 C 23.898438 10.101562 23.199219 15.398438 19.300781 19.300781 C 17 21.601562 13.898438 23 11.300781 23 C 9.898438 23 8.800781 22.601562 8.101562 21.898438 C 6.101562 19.898438 6.800781 14.601562 10.699219 10.699219 C 13 8.398438 16 7 18.699219 7 M 18.699219 6 C 16 6 12.601562 7.300781 10 10 C 5.800781 14.199219 4.898438 20.101562 7.398438 22.601562 C 8.300781 23.5 9.699219 24 11.300781 24 C 14 24 17.398438 22.699219 20 20 C 24.199219 15.800781 25.101562 9.800781 22.601562 7.398438 C 21.699219 6.5 20.300781 6 18.699219 6 Z M 18.699219 6 "/>
<path style=" stroke:none;fill-rule:nonzero;fill:rgb(58.823532%,47.843137%,26.666668%);fill-opacity:1;" d="M 16.101562 13.898438 C 14.300781 12.101562 12.300781 11.101562 11.699219 11.699219 C 11.101562 12.300781 12.101562 14.199219 13.898438 16.101562 C 15.699219 18 17.699219 18.898438 18.300781 18.300781 C 18.898438 17.699219 17.898438 15.800781 16.101562 13.898438 Z M 16 16 C 15.800781 16.199219 15.300781 15.898438 14.699219 15.300781 C 14.101562 14.699219 13.898438 14.199219 14 14 C 14.101562 13.800781 14.699219 14.101562 15.300781 14.699219 C 15.898438 15.300781 16.101562 15.800781 16 16 Z M 27.5 1 C 26.671875 1 26 1.671875 26 2.5 C 26 3.328125 26.671875 4 27.5 4 C 28.328125 4 29 3.328125 29 2.5 C 29 1.671875 28.328125 1 27.5 1 Z M 2.5 26 C 1.671875 26 1 26.671875 1 27.5 C 1 28.328125 1.671875 29 2.5 29 C 3.328125 29 4 28.328125 4 27.5 C 4 26.671875 3.328125 26 2.5 26 Z M 2.5 26 "/>
<path style=" stroke:none;fill-rule:nonzero;fill:rgb(76.078433%,58.823532%,32.549021%);fill-opacity:1;" d="M 20 21.601562 C 19.699219 21.5 19.398438 21.398438 19.101562 21.199219 C 17.300781 20.300781 15.199219 18.699219 13.199219 16.699219 C 11.199219 14.699219 9.601562 12.699219 8.699219 10.800781 C 8.5 10.5 8.398438 10.199219 8.300781 9.898438 L 6.300781 9.898438 C 6.5 10.398438 6.699219 11 7 11.699219 C 8 13.699219 9.699219 15.898438 11.800781 18.101562 C 13.898438 20.300781 16.199219 21.898438 18.199219 22.898438 C 18.898438 23.199219 19.5 23.5 20 23.601562 Z M 20 21.601562 "/>
<path style=" stroke:none;fill-rule:nonzero;fill:rgb(58.823532%,47.843137%,26.666668%);fill-opacity:1;" d="M 18.617188 10.675781 L 26.605469 2.6875 L 27.3125 3.394531 L 19.324219 11.382812 Z M 18.617188 10.675781 "/>
<path style=" stroke:none;fill-rule:nonzero;fill:rgb(58.823532%,47.843137%,26.666668%);fill-opacity:1;" d="M 3.601562 27.101562 L 2.898438 26.398438 L 10.601562 18.601562 L 11.398438 19.398438 L 6.199219 24.5 Z M 3.601562 27.101562 "/>
<path style=" stroke:none;fill-rule:nonzero;fill:rgb(96.078432%,76.078433%,46.27451%);fill-opacity:1;" d="M 15 29 C 7.300781 29 1 22.699219 1 15 C 1 7.300781 7.300781 1 15 1 C 22.699219 1 29 7.300781 29 15 C 29 22.699219 22.699219 29 15 29 Z M 15 3 C 8.398438 3 3 8.398438 3 15 C 3 21.601562 8.398438 27 15 27 C 21.601562 27 27 21.601562 27 15 C 27 8.398438 21.601562 3 15 3 Z M 15 3 "/>
</g>
</g>
</svg>
