<?xml version="1.0" encoding="UTF-8"?>
<svg xmlns="http://www.w3.org/2000/svg" xmlns:xlink="http://www.w3.org/1999/xlink" width="24" height="24" viewBox="0 0 24 24" version="1.1">
<g transform="scale(0.8)">
<g id="surface710">
<path style=" stroke:none;fill-rule:nonzero;fill:rgb(100%,100%,100%);fill-opacity:1;" d="M 1.5 3.5 L 28.5 3.5 L 28.5 26.5 L 1.5 26.5 Z M 1.5 3.5 "/>
<path style=" stroke:none;fill-rule:nonzero;fill:rgb(47.058824%,54.509807%,61.176473%);fill-opacity:1;" d="M 28 4 L 28 26 L 2 26 L 2 4 L 28 4 M 29 3 L 1 3 L 1 27 L 29 27 Z M 29 3 "/>
<path style=" stroke:none;fill-rule:nonzero;fill:rgb(70.980394%,87.058824%,100%);fill-opacity:1;" d="M 5 7 L 25 7 L 25 20 L 5 20 Z M 5 7 "/>
<path style=" stroke:none;fill-rule:nonzero;fill:rgb(85.09804%,96.470588%,100%);fill-opacity:1;" d="M 5 14 L 25 14 L 25 19.714844 L 5 19.714844 Z M 5 14 "/>
<path style=" stroke:none;fill-rule:nonzero;fill:rgb(47.843137%,67.843139%,94.117647%);fill-opacity:1;" d="M 5 20 L 25 20 L 25 23 L 5 23 Z M 5 20 "/>
<path style=" stroke:none;fill-rule:nonzero;fill:rgb(85.09804%,96.470588%,100%);fill-opacity:1;" d="M 11.25 11.714844 C 9.871094 11.714844 8.75 12.738281 8.75 14 C 8.75 15.261719 9.871094 16.285156 11.25 16.285156 C 12.628906 16.285156 13.75 15.261719 13.75 14 C 13.75 12.738281 12.628906 11.714844 11.25 11.714844 Z M 11.25 11.714844 "/>
<path style=" stroke:none;fill-rule:nonzero;fill:rgb(85.09804%,96.470588%,100%);fill-opacity:1;" d="M 8.75 12.285156 C 7.714844 12.285156 6.875 13.054688 6.875 14 C 6.875 14.945312 7.714844 15.714844 8.75 15.714844 C 9.785156 15.714844 10.625 14.945312 10.625 14 C 10.625 13.054688 9.785156 12.285156 8.75 12.285156 Z M 15 12.855469 C 13.621094 12.855469 12.5 13.878906 12.5 15.144531 C 12.5 16.40625 13.621094 17.429688 15 17.429688 C 16.378906 17.429688 17.5 16.40625 17.5 15.144531 C 17.5 13.878906 16.378906 12.855469 15 12.855469 Z M 15 12.855469 "/>
<path style=" stroke:none;fill-rule:nonzero;fill:rgb(85.09804%,96.470588%,100%);fill-opacity:1;" d="M 18.75 11.714844 C 17.371094 11.714844 16.25 12.738281 16.25 14 C 16.25 15.261719 17.371094 16.285156 18.75 16.285156 C 20.128906 16.285156 21.25 15.261719 21.25 14 C 21.25 12.738281 20.128906 11.714844 18.75 11.714844 Z M 23.75 12.855469 C 23.058594 12.855469 22.5 13.367188 22.5 14 C 22.5 14.632812 23.058594 15.144531 23.75 15.144531 C 24.441406 15.144531 25 14.632812 25 14 C 25 13.367188 24.441406 12.855469 23.75 12.855469 Z M 6.25 12.855469 C 5.558594 12.855469 5 13.367188 5 14 C 5 14.632812 5.558594 15.144531 6.25 15.144531 C 6.941406 15.144531 7.5 14.632812 7.5 14 C 7.5 13.367188 6.941406 12.855469 6.25 12.855469 Z M 6.25 12.855469 "/>
<path style=" stroke:none;fill-rule:nonzero;fill:rgb(85.09804%,96.470588%,100%);fill-opacity:1;" d="M 21.25 12.285156 C 20.214844 12.285156 19.375 13.054688 19.375 14 C 19.375 14.945312 20.214844 15.714844 21.25 15.714844 C 22.285156 15.714844 23.125 14.945312 23.125 14 C 23.125 13.054688 22.285156 12.285156 21.25 12.285156 Z M 21.25 12.285156 "/>
<path style=" stroke:none;fill-rule:nonzero;fill:rgb(29.019609%,42.745098%,61.176473%);fill-opacity:1;" d="M 5 20 L 25 20 L 25 19 L 18.75 15 Z M 5 20 "/>
<path style=" stroke:none;fill-rule:nonzero;fill:rgb(36.470589%,51.764709%,72.156864%);fill-opacity:1;" d="M 20 20 L 5 20 L 5 17 L 11.25 14 Z M 20 20 "/>
</g>
</g>
</svg>
