<?xml version="1.0" encoding="UTF-8"?>
<svg xmlns="http://www.w3.org/2000/svg" xmlns:xlink="http://www.w3.org/1999/xlink" width="24" height="24" viewBox="0 0 24 24" version="1.1">
<g transform="scale(0.8)">
<g id="surface761">
<path style=" stroke:none;fill-rule:nonzero;fill:rgb(96.078432%,76.078433%,46.27451%);fill-opacity:1;" d="M 11 17 L 13 17 L 13 29 L 11 29 Z M 17 17 L 19 17 L 19 29 L 17 29 Z M 17 17 "/>
<path style=" stroke:none;fill-rule:nonzero;fill:rgb(96.862745%,56.078434%,56.078434%);fill-opacity:1;" d="M 9.5 15.5 L 9.5 7 C 9.5 4 12 1.5 15 1.5 C 18 1.5 20.5 4 20.5 7 L 20.5 15.5 Z M 9.5 15.5 "/>
<path style=" stroke:none;fill-rule:nonzero;fill:rgb(67.058825%,20.392157%,20.392157%);fill-opacity:1;" d="M 15 2 C 17.800781 2 20 4.199219 20 7 L 20 15 L 10 15 L 10 7 C 10 4.199219 12.199219 2 15 2 M 15 1 C 11.699219 1 9 3.699219 9 7 L 9 16 L 21 16 L 21 7 C 21 3.699219 18.300781 1 15 1 Z M 15 1 "/>
<path style=" stroke:none;fill-rule:nonzero;fill:rgb(96.862745%,56.078434%,56.078434%);fill-opacity:1;" d="M 8.5 15.5 L 21.5 15.5 L 21.5 17.5 L 8.5 17.5 Z M 8.5 15.5 "/>
<path style=" stroke:none;fill-rule:nonzero;fill:rgb(67.058825%,20.392157%,20.392157%);fill-opacity:1;" d="M 21 16 L 21 17 L 9 17 L 9 16 L 21 16 M 22 15 L 8 15 L 8 18 L 22 18 Z M 22 15 "/>
<path style=" stroke:none;fill-rule:nonzero;fill:rgb(96.862745%,32.156864%,32.156864%);fill-opacity:1;" d="M 11 16 L 13 16 L 13 17 L 11 17 Z M 17 16 L 19 16 L 19 17 L 17 17 Z M 13 15 L 11 15 L 11 12 C 11 10.800781 11.800781 9 14 9 L 14 11 C 13.199219 11 13 11.601562 13 12 Z M 19 15 L 17 15 L 17 12 C 17 11.601562 16.800781 11 16 11 L 16 9 C 18.199219 9 19 10.800781 19 12 Z M 19 15 "/>
<path style=" stroke:none;fill-rule:nonzero;fill:rgb(100%,100%,100%);fill-opacity:1;" d="M 15 8 C 13.894531 8 13 8.894531 13 10 C 13 11.105469 13.894531 12 15 12 C 16.105469 12 17 11.105469 17 10 C 17 8.894531 16.105469 8 15 8 Z M 15 8 "/>
</g>
</g>
</svg>
