<?xml version="1.0" encoding="UTF-8"?>
<svg xmlns="http://www.w3.org/2000/svg" xmlns:xlink="http://www.w3.org/1999/xlink" width="24" height="24" viewBox="0 0 24 24" version="1.1">
<g transform="scale(0.8)">
<g id="surface835">
<path style=" stroke:none;fill-rule:nonzero;fill:rgb(54.509807%,71.764708%,94.117647%);fill-opacity:1;" d="M 2.5 20.5 L 2.5 14.175781 L 10.179688 4.574219 L 20.074219 7.542969 L 27.5 2.902344 L 27.5 20.5 Z M 2.5 20.5 "/>
<path style=" stroke:none;fill-rule:nonzero;fill:rgb(30.588236%,47.843137%,70.980394%);fill-opacity:1;" d="M 27 3.804688 L 27 20 L 3 20 L 3 14.351562 L 10.359375 5.152344 L 19.710938 7.957031 L 20.144531 8.089844 L 20.53125 7.847656 L 27 3.804688 M 28 2 L 20 7 L 10 4 L 2 14 L 2 21 L 28 21 Z M 28 2 "/>
<path style=" stroke:none;fill-rule:nonzero;fill:rgb(72.941178%,87.843138%,74.117649%);fill-opacity:1;" d="M 2.5 27.5 L 2.5 19.277344 L 10.097656 14.527344 L 20.042969 16.519531 L 27.5 13.722656 L 27.5 27.5 Z M 2.5 27.5 "/>
<path style=" stroke:none;fill-rule:nonzero;fill:rgb(36.862746%,61.176473%,46.27451%);fill-opacity:1;" d="M 27 14.441406 L 27 27 L 3 27 L 3 19.554688 L 10.191406 15.058594 L 19.804688 16.980469 L 20.085938 17.035156 L 20.351562 16.9375 L 27 14.441406 M 28 13 L 20 16 L 10 14 L 2 19 L 2 28 L 28 28 Z M 28 13 "/>
</g>
</g>
</svg>
