<?xml version="1.0" encoding="UTF-8"?>
<svg xmlns="http://www.w3.org/2000/svg" xmlns:xlink="http://www.w3.org/1999/xlink" width="24" height="24" viewBox="0 0 24 24" version="1.1">
<g transform="scale(0.4)">
<g id="surface889">
<path style=" stroke:none;fill-rule:nonzero;fill:rgb(71.372551%,78.823531%,83.92157%);fill-opacity:1;" d="M 10 55 C 7.199219 55 5 52.800781 5 50 L 5 10 C 5 7.199219 7.199219 5 10 5 L 50 5 C 52.800781 5 55 7.199219 55 10 L 55 50 C 55 52.800781 52.800781 55 50 55 Z M 10 55 "/>
<path style=" stroke:none;fill-rule:nonzero;fill:rgb(47.058824%,54.509807%,61.176473%);fill-opacity:1;" d="M 50 6 C 52.199219 6 54 7.800781 54 10 L 54 50 C 54 52.199219 52.199219 54 50 54 L 10 54 C 7.800781 54 6 52.199219 6 50 L 6 10 C 6 7.800781 7.800781 6 10 6 L 50 6 M 50 4 L 10 4 C 6.601562 4 4 6.601562 4 10 L 4 50 C 4 53.398438 6.601562 56 10 56 L 50 56 C 53.398438 56 56 53.398438 56 50 L 56 10 C 56 6.601562 53.398438 4 50 4 Z M 50 4 "/>
<path style=" stroke:none;fill-rule:nonzero;fill:rgb(100%,100%,100%);fill-opacity:1;" d="M 31 48 C 30.398438 48 30 47.601562 30 47.199219 L 26.601562 20.601562 L 22 39.199219 C 21.800781 39.601562 21.398438 40 21 40 C 20.601562 40 20.199219 39.601562 20 39.199219 L 18.398438 27.800781 L 15.800781 31.601562 C 15.601562 31.800781 15.398438 32 15 32 L 6 32 L 6 30 L 14.398438 30 L 18.199219 24.398438 C 18.398438 24 18.800781 24 19.199219 24 C 19.601562 24 20 24.398438 20 24.800781 L 21.199219 33.800781 L 26 14.800781 C 26.199219 14.199219 26.601562 14 27 14 C 27.601562 14 28 14.398438 28 14.800781 L 31.398438 41.398438 L 36.199219 22.601562 C 36.398438 22.199219 36.800781 21.800781 37.199219 21.800781 C 37.601562 21.800781 38 22 38.199219 22.601562 L 41.601562 34.398438 L 43.800781 30.398438 C 44 30 44.398438 29.800781 44.601562 29.800781 L 54 29.800781 L 54 31.800781 L 45 31.800781 L 41.800781 37.199219 C 41.601562 37.601562 41.199219 37.800781 40.800781 37.601562 C 40.398438 37.601562 40 37.199219 40 36.800781 L 37 26.398438 L 32 47.199219 C 31.800781 47.601562 31.398438 48 31 48 Z M 31 48 "/>
</g>
</g>
</svg>
