<?xml version="1.0" encoding="UTF-8"?>
<svg xmlns="http://www.w3.org/2000/svg" xmlns:xlink="http://www.w3.org/1999/xlink" width="24" height="24" viewBox="0 0 24 24" version="1.1">
<g transform="scale(0.4)">
<g id="surface962">
<path style=" stroke:none;fill-rule:nonzero;fill:rgb(96.078432%,80.784315%,52.156866%);fill-opacity:1;" d="M 3.21875 56.78125 C 4.242188 50.953125 6.863281 38.996094 9.929688 35.929688 C 11.816406 34.039062 14.328125 33 17 33 C 19.671875 33 22.183594 34.039062 24.070312 35.929688 C 27.972656 39.828125 27.972656 46.171875 24.070312 50.070312 C 21.003906 53.136719 9.046875 55.757812 3.21875 56.78125 Z M 3.21875 56.78125 "/>
<path style=" stroke:none;fill-rule:nonzero;fill:rgb(58.823532%,47.843137%,26.666668%);fill-opacity:1;" d="M 17 34 C 19.402344 34 21.664062 34.9375 23.363281 36.636719 C 25.0625 38.335938 26 40.597656 26 43 C 26 45.402344 25.0625 47.664062 23.363281 49.363281 C 20.917969 51.808594 11.410156 54.242188 4.457031 55.542969 C 5.757812 48.589844 8.1875 39.085938 10.636719 36.636719 C 12.335938 34.9375 14.597656 34 17 34 M 17 32 C 14.183594 32 11.371094 33.074219 9.222656 35.222656 C 4.925781 39.519531 2 58 2 58 C 2 58 20.480469 55.074219 24.777344 50.777344 C 29.074219 46.480469 29.074219 39.519531 24.777344 35.222656 C 22.628906 33.074219 19.816406 32 17 32 Z M 17 32 "/>
<path style=" stroke:none;fill-rule:nonzero;fill:rgb(100%,76.862746%,61.176473%);fill-opacity:1;" d="M 38.746094 13.046875 L 47.859375 3.433594 L 56.566406 12.144531 L 46.953125 21.253906 Z M 38.746094 13.046875 "/>
<path style=" stroke:none;fill-rule:nonzero;fill:rgb(63.137257%,41.568628%,29.019609%);fill-opacity:1;" d="M 47.875 4.867188 L 55.132812 12.125 L 46.972656 19.859375 L 40.140625 13.027344 L 47.875 4.867188 M 47.839844 2 L 37.351562 13.066406 L 46.933594 22.648438 L 58 12.164062 Z M 47.839844 2 "/>
<path style=" stroke:none;fill-rule:nonzero;fill:rgb(86.274511%,83.529413%,94.901961%);fill-opacity:1;" d="M 19.386719 33.84375 L 38.730469 13.046875 L 46.953125 21.265625 L 26.15625 40.613281 Z M 19.386719 33.84375 "/>
<path style=" stroke:none;fill-rule:nonzero;fill:rgb(54.509807%,45.882353%,63.137257%);fill-opacity:1;" d="M 38.757812 14.488281 L 45.511719 21.238281 L 26.179688 39.222656 L 20.777344 33.816406 L 38.757812 14.488281 M 38.707031 11.609375 L 18 33.871094 L 26.128906 42 L 48.390625 21.292969 Z M 38.707031 11.609375 "/>
</g>
</g>
</svg>
