<?xml version="1.0" encoding="UTF-8"?>
<svg xmlns="http://www.w3.org/2000/svg" xmlns:xlink="http://www.w3.org/1999/xlink" width="24" height="24" viewBox="0 0 24 24" version="1.1">
<g transform="scale(0.4)">
<g id="surface920">
<path style=" stroke:none;fill-rule:nonzero;fill:rgb(76.078433%,90.980393%,100%);fill-opacity:1;" d="M 3 11 L 57 11 L 57 49 L 3 49 Z M 3 11 "/>
<path style=" stroke:none;fill-rule:nonzero;fill:rgb(45.490196%,58.823532%,76.862746%);fill-opacity:1;" d="M 56 12 L 56 48 L 4 48 L 4 12 L 56 12 M 58 10 L 2 10 L 2 50 L 58 50 Z M 58 10 "/>
<path style=" stroke:none;fill-rule:nonzero;fill:rgb(69.01961%,75.686276%,83.137256%);fill-opacity:1;" d="M 21.054688 53 C 21.554688 48.507812 25.375 45 30 45 C 34.625 45 38.445312 48.507812 38.945312 53 Z M 21.054688 53 "/>
<path style=" stroke:none;fill-rule:nonzero;fill:rgb(40.000001%,47.450981%,56.078434%);fill-opacity:1;" d="M 30 46 C 33.71875 46 36.855469 48.554688 37.746094 52 L 22.253906 52 C 23.144531 48.554688 26.28125 46 30 46 M 30 44 C 24.476562 44 20 48.476562 20 54 L 40 54 C 40 48.476562 35.523438 44 30 44 Z M 30 44 "/>
<path style=" stroke:none;fill-rule:nonzero;fill:rgb(54.509807%,71.764708%,94.117647%);fill-opacity:1;" d="M 18 21 C 13.03125 21 9 25.03125 9 30 C 9 34.96875 13.03125 39 18 39 C 22.96875 39 27 34.96875 27 30 C 27 25.03125 22.96875 21 18 21 Z M 18 21 "/>
<path style=" stroke:none;fill-rule:nonzero;fill:rgb(30.588236%,47.843137%,70.980394%);fill-opacity:1;" d="M 18 22 C 22.410156 22 26 25.589844 26 30 C 26 34.410156 22.410156 38 18 38 C 13.589844 38 10 34.410156 10 30 C 10 25.589844 13.589844 22 18 22 M 18 20 C 12.476562 20 8 24.476562 8 30 C 8 35.523438 12.476562 40 18 40 C 23.523438 40 28 35.523438 28 30 C 28 24.476562 23.523438 20 18 20 Z M 18 20 "/>
<path style=" stroke:none;fill-rule:nonzero;fill:rgb(96.862745%,56.078434%,56.078434%);fill-opacity:1;" d="M 19 29 L 19 21.054688 C 23.164062 21.519531 26.480469 24.835938 26.945312 29 Z M 19 29 "/>
<path style=" stroke:none;fill-rule:nonzero;fill:rgb(78.039217%,26.274511%,26.274511%);fill-opacity:1;" d="M 20 22.253906 C 22.808594 22.980469 25.023438 25.195312 25.746094 28 L 20 28 L 20 22.253906 M 18 20 L 18 30 L 28 30 C 28 24.476562 23.523438 20 18 20 Z M 18 20 "/>
<path style=" stroke:none;fill-rule:nonzero;fill:rgb(30.588236%,47.843137%,70.980394%);fill-opacity:1;" d="M 52 28 L 34 28 L 34 26 L 52 26 Z M 52 28 "/>
<path style=" stroke:none;fill-rule:nonzero;fill:rgb(55.29412%,75.686276%,87.843138%);fill-opacity:1;" d="M 52 28 L 46 28 L 46 26 L 52 26 Z M 52 28 "/>
<path style=" stroke:none;fill-rule:nonzero;fill:rgb(30.588236%,47.843137%,70.980394%);fill-opacity:1;" d="M 52 22 L 34 22 L 34 20 L 52 20 Z M 52 22 "/>
<path style=" stroke:none;fill-rule:nonzero;fill:rgb(55.29412%,75.686276%,87.843138%);fill-opacity:1;" d="M 52 22 L 48 22 L 48 20 L 52 20 Z M 52 22 "/>
<path style=" stroke:none;fill-rule:nonzero;fill:rgb(30.588236%,47.843137%,70.980394%);fill-opacity:1;" d="M 52 34 L 34 34 L 34 32 L 52 32 Z M 52 34 "/>
<path style=" stroke:none;fill-rule:nonzero;fill:rgb(30.588236%,47.843137%,70.980394%);fill-opacity:1;" d="M 52 40 L 34 40 L 34 38 L 52 38 Z M 52 40 "/>
<path style=" stroke:none;fill-rule:nonzero;fill:rgb(55.29412%,75.686276%,87.843138%);fill-opacity:1;" d="M 52 34 L 48 34 L 48 32 L 52 32 Z M 52 34 "/>
<path style=" stroke:none;fill-rule:nonzero;fill:rgb(55.29412%,75.686276%,87.843138%);fill-opacity:1;" d="M 52 40 L 42 40 L 42 38 L 52 38 Z M 52 40 "/>
</g>
</g>
</svg>
