<?xml version="1.0" encoding="UTF-8"?>
<svg xmlns="http://www.w3.org/2000/svg" xmlns:xlink="http://www.w3.org/1999/xlink" width="24" height="24" viewBox="0 0 24 24" version="1.1">
<g transform="scale(0.4)">
<g id="surface979">
<path style=" stroke:none;fill-rule:nonzero;fill:rgb(88.235295%,92.156863%,94.901961%);fill-opacity:1;" d="M 6 55 C 4.398438 55 3 53.601562 3 52 L 3 6 C 3 4.398438 4.398438 3 6 3 L 52 3 C 53.601562 3 55 4.398438 55 6 L 55 52 C 55 53.601562 53.601562 55 52 55 Z M 6 55 "/>
<path style=" stroke:none;fill-rule:nonzero;fill:rgb(47.058824%,54.509807%,61.176473%);fill-opacity:1;" d="M 52 4 C 53.199219 4 54 4.800781 54 6 L 54 52 C 54 53.199219 53.199219 54 52 54 L 6 54 C 4.800781 54 4 53.199219 4 52 L 4 6 C 4 4.800781 4.800781 4 6 4 L 52 4 M 52 2 L 6 2 C 3.800781 2 2 3.800781 2 6 L 2 52 C 2 54.199219 3.800781 56 6 56 L 52 56 C 54.199219 56 56 54.199219 56 52 L 56 6 C 56 3.800781 54.199219 2 52 2 Z M 52 2 "/>
<path style=" stroke:none;fill-rule:nonzero;fill:rgb(71.372551%,78.823531%,83.92157%);fill-opacity:1;" d="M 28 4 L 30 4 L 30 54 L 28 54 Z M 28 4 "/>
<path style=" stroke:none;fill-rule:nonzero;fill:rgb(71.372551%,78.823531%,83.92157%);fill-opacity:1;" d="M 4 28 L 54 28 L 54 30 L 4 30 Z M 4 28 "/>
<path style=" stroke:none;fill-rule:nonzero;fill:rgb(78.039217%,26.274511%,26.274511%);fill-opacity:1;" d="M 54 52 C 46 52 42.800781 39.800781 39.601562 28.199219 C 36.800781 18.199219 34 8 29 8 C 24 8 21.199219 18.199219 18.601562 28 C 15.398438 39.800781 12 52 4 52 L 4 50 C 10.601562 50 13.601562 38.601562 16.601562 27.398438 C 19.601562 16.398438 22.398438 6 29 6 C 35.601562 6 38.398438 16.398438 41.398438 27.601562 C 44.398438 38.601562 47.601562 50 54 50 Z M 54 52 "/>
</g>
</g>
</svg>
