<?xml version="1.0" encoding="UTF-8"?>
<svg xmlns="http://www.w3.org/2000/svg" xmlns:xlink="http://www.w3.org/1999/xlink" width="24" height="24" viewBox="0 0 24 24" version="1.1">
<g transform="scale(0.4)">
<g id="surface1042">
<path style=" stroke:none;fill-rule:nonzero;fill:rgb(47.058824%,54.509807%,61.176473%);fill-opacity:1;" d="M 43.855469 16.121094 L 47.957031 12.019531 L 51.917969 15.980469 L 47.816406 20.082031 Z M 43.855469 16.121094 "/>
<path style=" stroke:none;fill-rule:nonzero;fill:rgb(47.058824%,54.509807%,61.176473%);fill-opacity:1;" d="M 26 8 L 34 8 L 34 12 L 26 12 Z M 26 8 "/>
<path style=" stroke:none;fill-rule:nonzero;fill:rgb(88.235295%,92.156863%,94.901961%);fill-opacity:1;" d="M 30 57 C 17.398438 57 7 46.601562 7 34 C 7 21.398438 17.398438 11 30 11 C 42.601562 11 53 21.398438 53 34 C 53 46.601562 42.601562 57 30 57 Z M 30 57 "/>
<path style=" stroke:none;fill-rule:nonzero;fill:rgb(47.058824%,54.509807%,61.176473%);fill-opacity:1;" d="M 30 12 C 42.199219 12 52 21.800781 52 34 C 52 46.199219 42.199219 56 30 56 C 17.800781 56 8 46.199219 8 34 C 8 21.800781 17.800781 12 30 12 M 30 10 C 16.800781 10 6 20.800781 6 34 C 6 47.199219 16.800781 58 30 58 C 43.199219 58 54 47.199219 54 34 C 54 20.800781 43.199219 10 30 10 Z M 30 10 "/>
<path style=" stroke:none;fill-rule:nonzero;fill:rgb(100%,100%,100%);fill-opacity:1;" d="M 30 53 C 19.601562 53 11 44.398438 11 34 C 11 23.601562 19.601562 15 30 15 C 40.398438 15 49 23.601562 49 34 C 49 44.398438 40.398438 53 30 53 Z M 30 53 "/>
<path style=" stroke:none;fill-rule:nonzero;fill:rgb(47.058824%,54.509807%,61.176473%);fill-opacity:1;" d="M 30 16 C 40 16 48 24 48 34 C 48 44 40 52 30 52 C 20 52 12 44 12 34 C 12 24 20 16 30 16 M 30 14 C 19 14 10 23 10 34 C 10 45 19 54 30 54 C 41 54 50 45 50 34 C 50 23 41 14 30 14 Z M 30 14 "/>
<path style=" stroke:none;fill-rule:nonzero;fill:rgb(40.000001%,47.450981%,56.078434%);fill-opacity:1;" d="M 30 35 C 29.800781 35 29.398438 35 29.199219 34.800781 L 19.199219 24.800781 C 18.800781 24.398438 18.800781 23.800781 19.199219 23.398438 C 19.601562 23 20.199219 23 20.601562 23.398438 L 30.601562 33.398438 C 31 33.800781 31 34.398438 30.601562 34.800781 C 30.601562 35 30.199219 35 30 35 Z M 30 35 "/>
<path style=" stroke:none;fill-rule:nonzero;fill:rgb(40.000001%,47.450981%,56.078434%);fill-opacity:1;" d="M 30 32 C 28.894531 32 28 32.894531 28 34 C 28 35.105469 28.894531 36 30 36 C 31.105469 36 32 35.105469 32 34 C 32 32.894531 31.105469 32 30 32 Z M 30 32 "/>
<path style=" stroke:none;fill-rule:nonzero;fill:rgb(88.235295%,92.156863%,94.901961%);fill-opacity:1;" d="M 26 9 C 25.398438 9 25 8.601562 25 8 L 25 4 C 25 3.398438 25.398438 3 26 3 L 34 3 C 34.601562 3 35 3.398438 35 4 L 35 8 C 35 8.601562 34.601562 9 34 9 Z M 26 9 "/>
<path style=" stroke:none;fill-rule:nonzero;fill:rgb(47.058824%,54.509807%,61.176473%);fill-opacity:1;" d="M 34 4 L 34 8 L 26 8 L 26 4 L 34 4 M 34 2 L 26 2 C 24.800781 2 24 2.800781 24 4 L 24 8 C 24 9.199219 24.800781 10 26 10 L 34 10 C 35.199219 10 36 9.199219 36 8 L 36 4 C 36 2.800781 35.199219 2 34 2 Z M 34 2 "/>
<path style=" stroke:none;fill-rule:nonzero;fill:rgb(88.235295%,92.156863%,94.901961%);fill-opacity:1;" d="M 50.199219 19 C 50 19 49.800781 19 49.800781 18.800781 L 45.199219 14.199219 C 45 14 45 14 45 13.800781 C 45 13.601562 45 13.398438 45.199219 13.398438 L 47.398438 11.199219 C 47.601562 11 47.601562 11 47.800781 11 C 48 11 48.199219 11 48.199219 11.199219 L 52.800781 15.800781 C 53 16 53 16.398438 52.800781 16.601562 L 50.601562 18.800781 C 50.398438 19 50.199219 19 50.199219 19 Z M 50.199219 19 "/>
<path style=" stroke:none;fill-rule:nonzero;fill:rgb(47.058824%,54.509807%,61.176473%);fill-opacity:1;" d="M 47.800781 12.199219 L 51.800781 16.199219 L 50 18 L 46 14 L 47.800781 12.199219 M 47.800781 10 C 47.398438 10 47 10.199219 46.601562 10.398438 L 44.398438 12.601562 C 43.800781 13.199219 43.800781 14.199219 44.398438 14.800781 L 49 19.398438 C 49.398438 19.800781 49.800781 19.800781 50.199219 19.800781 C 50.601562 19.800781 51 19.601562 51.398438 19.398438 L 53.601562 17.199219 C 54.199219 16.601562 54.199219 15.601562 53.601562 15 L 49 10.398438 C 48.601562 10.199219 48.199219 10 47.800781 10 Z M 47.800781 10 "/>
</g>
</g>
</svg>
