<?xml version="1.0" encoding="UTF-8"?>
<svg xmlns="http://www.w3.org/2000/svg" xmlns:xlink="http://www.w3.org/1999/xlink" width="24" height="24" viewBox="0 0 24 24" version="1.1">
<g transform="scale(0.4)">
<g id="surface1064">
<path style=" stroke:none;fill-rule:nonzero;fill:rgb(25.882354%,30.588236%,36.078432%);fill-opacity:1;" d="M 5 7 L 55 7 L 55 53 L 5 53 Z M 5 7 "/>
<path style=" stroke:none;fill-rule:nonzero;fill:rgb(68.627453%,77.254903%,84.705883%);fill-opacity:1;" d="M 54 8 L 54 52 L 6 52 L 6 8 L 54 8 M 56 6 L 4 6 L 4 54 L 56 54 Z M 56 6 "/>
<path style=" stroke:none;fill-rule:nonzero;fill:rgb(68.627453%,77.254903%,84.705883%);fill-opacity:1;" d="M 4 6 L 56 6 L 56 14 L 4 14 Z M 4 6 "/>
<path style=" stroke:none;fill-rule:nonzero;fill:rgb(72.941178%,87.843138%,74.117649%);fill-opacity:1;" d="M 28 40 L 44 40 L 44 42 L 28 42 Z M 17 40.800781 L 15.601562 39.199219 L 22.800781 33 L 15.601562 26.800781 L 17 25.199219 L 25.800781 33 Z M 17 40.800781 "/>
</g>
</g>
</svg>
