<?xml version="1.0" encoding="UTF-8"?>
<svg xmlns="http://www.w3.org/2000/svg" xmlns:xlink="http://www.w3.org/1999/xlink" width="24" height="24" viewBox="0 0 24 24" version="1.1">
<g transform="scale(0.4)">
<g id="surface1081">
<path style=" stroke:none;fill-rule:nonzero;fill:rgb(75.686276%,89.019608%,96.862745%);fill-opacity:1;" d="M 58 30 C 58 45.589844 45.300781 58 30 58 C 14.703125 58 2 45.589844 2 30 C 2 14.410156 14.410156 2 30 2 C 45.589844 2 58 14.410156 58 30 Z M 58 30 "/>
<path style=" stroke:none;fill-rule:nonzero;fill:rgb(44.705883%,56.470591%,73.333335%);fill-opacity:1;" d="M 4 24 L 56 24 L 56 26 L 4 26 Z M 4 34 L 34 34 L 34 36 L 4 36 Z M 8 44 L 34 44 L 34 46 L 8 46 Z M 8 14 L 52 14 L 52 16 L 8 16 Z M 8 14 "/>
<path style=" stroke:none;fill-rule:nonzero;fill:rgb(39.215687%,46.666667%,54.901963%);fill-opacity:1;" d="M 59.828125 54.171875 L 47.828125 42.171875 L 52 38 L 38 38 L 38 52 L 42.171875 47.828125 L 54.171875 59.828125 Z M 59.828125 54.171875 "/>
<path style=" stroke:none;fill-rule:nonzero;fill:rgb(21.176471%,25.098041%,29.803923%);fill-opacity:1;" d="M 47.171875 40 L 45 42.171875 L 57 54.171875 L 54.171875 57 L 42.171875 45 L 40 47.171875 L 40 40 L 47.171875 40 M 52 38 L 38 38 L 38 52 L 42.171875 47.828125 L 54.171875 59.828125 L 59.828125 54.171875 L 47.828125 42.171875 Z M 52 38 "/>
<path style=" stroke:none;fill-rule:nonzero;fill:rgb(44.705883%,56.470591%,73.333335%);fill-opacity:1;" d="M 34 48.195312 C 32.660156 53.355469 30.972656 56 29.992188 56 C 28.199219 56 23.992188 47.152344 23.992188 30 C 23.992188 12.847656 28.199219 4 29.992188 4 C 31.789062 4 35.992188 12.847656 35.992188 30 C 35.992188 31.394531 35.957031 32.714844 35.90625 34 L 37.902344 34 C 37.957031 32.691406 37.992188 31.363281 37.992188 30 C 37.992188 14.535156 34.410156 2 29.992188 2 C 25.574219 2 21.992188 14.535156 21.992188 30 C 21.992188 45.464844 25.574219 58 29.992188 58 C 31.457031 58 32.820312 56.605469 34 54.210938 Z M 34 48.195312 "/>
<path style=" stroke:none;fill-rule:nonzero;fill:rgb(44.705883%,56.470591%,73.333335%);fill-opacity:1;" d="M 34 55.328125 C 32.710938 55.753906 31.371094 56 29.992188 56 C 20.066406 56 11.992188 44.335938 11.992188 30 C 11.992188 15.664062 20.066406 4 29.992188 4 C 39.921875 4 47.992188 15.664062 47.992188 30 C 47.992188 31.363281 47.898438 32.691406 47.757812 34 L 49.765625 34 C 49.898438 32.691406 49.992188 31.363281 49.992188 30 C 49.992188 14.535156 41.039062 2 29.992188 2 C 18.949219 2 9.992188 14.535156 9.992188 30 C 9.992188 45.464844 18.949219 58 29.992188 58 C 31.367188 58 32.707031 57.804688 34 57.4375 Z M 34 55.328125 "/>
<path style=" stroke:none;fill-rule:nonzero;fill:rgb(44.705883%,56.470591%,73.333335%);fill-opacity:1;" d="M 34 55.660156 C 32.691406 55.863281 31.363281 56 30 56 C 15.664062 56 4 44.335938 4 30 C 4 15.421875 15.421875 4 30 4 C 44.578125 4 56 15.421875 56 30 C 56 31.363281 55.863281 32.691406 55.660156 34 L 57.683594 34 C 57.871094 32.691406 58 31.363281 58 30 C 58 14.410156 45.589844 2 30 2 C 14.410156 2 2 14.410156 2 30 C 2 45.589844 14.703125 58 30 58 C 31.359375 58 32.6875 57.871094 34 57.679688 Z M 34 55.660156 "/>
</g>
</g>
</svg>
