<?xml version="1.0" encoding="UTF-8"?>
<svg xmlns="http://www.w3.org/2000/svg" xmlns:xlink="http://www.w3.org/1999/xlink" width="24" height="24" viewBox="0 0 24 24" version="1.1">
<g transform="scale(0.4)">
<g id="surface1223">
<path style=" stroke:none;fill-rule:nonzero;fill:rgb(100%,100%,100%);fill-opacity:1;" d="M 3 23 L 49 23 L 49 55 L 3 55 Z M 3 23 "/>
<path style=" stroke:none;fill-rule:nonzero;fill:rgb(47.058824%,54.509807%,61.176473%);fill-opacity:1;" d="M 48 24 L 48 54 L 4 54 L 4 24 L 48 24 M 50 22 L 2 22 L 2 56 L 50 56 Z M 50 22 "/>
<path style=" stroke:none;fill-rule:nonzero;fill:rgb(78.431374%,81.960785%,85.882354%);fill-opacity:1;" d="M 3 23 L 3 20 C 3 18.398438 4.398438 17 6 17 L 46 17 C 47.601562 17 49 18.398438 49 20 L 49 23 Z M 3 23 "/>
<path style=" stroke:none;fill-rule:nonzero;fill:rgb(40.000001%,47.450981%,56.078434%);fill-opacity:1;" d="M 46 18 C 47.199219 18 48 18.800781 48 20 L 48 22 L 4 22 L 4 20 C 4 18.800781 4.800781 18 6 18 L 46 18 M 46 16 L 6 16 C 3.800781 16 2 17.800781 2 20 L 2 24 L 50 24 L 50 20 C 50 17.800781 48.199219 16 46 16 Z M 46 16 "/>
<path style=" stroke:none;fill-rule:nonzero;fill:rgb(100%,100%,100%);fill-opacity:1;" d="M 13 11 L 57 11 L 57 45 L 13 45 Z M 13 11 "/>
<path style=" stroke:none;fill-rule:nonzero;fill:rgb(47.058824%,54.509807%,61.176473%);fill-opacity:1;" d="M 56 12 L 56 44 L 14 44 L 14 12 L 56 12 M 58 10 L 12 10 L 12 46 L 58 46 Z M 58 10 "/>
<path style=" stroke:none;fill-rule:nonzero;fill:rgb(78.431374%,81.960785%,85.882354%);fill-opacity:1;" d="M 13 11 L 13 8 C 13 6.398438 14.398438 5 16 5 L 54 5 C 55.601562 5 57 6.398438 57 8 L 57 11 Z M 13 11 "/>
<path style=" stroke:none;fill-rule:nonzero;fill:rgb(40.000001%,47.450981%,56.078434%);fill-opacity:1;" d="M 54 6 C 55.199219 6 56 6.800781 56 8 L 56 10 L 14 10 L 14 8 C 14 6.800781 14.800781 6 16 6 L 54 6 M 54 4 L 16 4 C 13.800781 4 12 5.800781 12 8 L 12 12 L 58 12 L 58 8 C 58 5.800781 56.199219 4 54 4 Z M 54 4 "/>
<path style=" stroke:none;fill-rule:nonzero;fill:rgb(47.058824%,54.509807%,61.176473%);fill-opacity:1;" d="M 30 22 L 48 22 L 48 24 L 30 24 Z M 30 28 L 48 28 L 48 30 L 30 30 Z M 30 34 L 48 34 L 48 36 L 30 36 Z M 22 22 L 26 22 L 26 24 L 22 24 Z M 22 28 L 26 28 L 26 30 L 22 30 Z M 22 34 L 26 34 L 26 36 L 22 36 Z M 22 34 "/>
</g>
</g>
</svg>
