<?xml version="1.0" encoding="UTF-8"?>
<svg xmlns="http://www.w3.org/2000/svg" xmlns:xlink="http://www.w3.org/1999/xlink" width="24" height="24" viewBox="0 0 24 24" version="1.1">
<g transform="scale(1.33333333)">
<g id="surface111">
<path style=" stroke:none;fill-rule:nonzero;fill:rgb(94.901961%,98.039216%,100%);fill-opacity:1;" d="M 6.898438 14.699219 L 6.898438 0.898438 L 13.675781 0.898438 L 17.101562 4.324219 L 17.101562 14.699219 Z M 6.898438 14.699219 "/>
<path style=" stroke:none;fill-rule:nonzero;fill:rgb(47.058824%,54.509807%,61.176473%);fill-opacity:1;" d="M 13.550781 1.199219 L 16.800781 4.449219 L 16.800781 14.398438 L 7.199219 14.398438 L 7.199219 1.199219 L 13.550781 1.199219 M 13.800781 0.601562 L 6.601562 0.601562 L 6.601562 15 L 17.398438 15 L 17.398438 4.199219 Z M 13.800781 0.601562 "/>
<path style=" stroke:none;fill-rule:nonzero;fill:rgb(100%,100%,100%);fill-opacity:1;" d="M 13.5 4.5 L 13.5 0.898438 L 13.675781 0.898438 L 17.101562 4.324219 L 17.101562 4.5 Z M 13.5 4.5 "/>
<path style=" stroke:none;fill-rule:nonzero;fill:rgb(47.058824%,54.509807%,61.176473%);fill-opacity:1;" d="M 13.800781 1.449219 L 16.550781 4.199219 L 13.800781 4.199219 L 13.800781 1.449219 M 13.800781 0.601562 L 13.199219 0.601562 L 13.199219 4.800781 L 17.398438 4.800781 L 17.398438 4.199219 Z M 13.800781 0.601562 "/>
<path style=" stroke:none;fill-rule:nonzero;fill:rgb(100%,100%,100%);fill-opacity:1;" d="M 0.898438 17.101562 L 0.898438 3.300781 L 7.675781 3.300781 L 11.101562 6.722656 L 11.101562 17.101562 Z M 0.898438 17.101562 "/>
<path style=" stroke:none;fill-rule:nonzero;fill:rgb(47.058824%,54.509807%,61.176473%);fill-opacity:1;" d="M 7.550781 3.601562 L 10.800781 6.847656 L 10.800781 16.800781 L 1.199219 16.800781 L 1.199219 3.601562 L 7.550781 3.601562 M 7.800781 3 L 0.601562 3 L 0.601562 17.398438 L 11.398438 17.398438 L 11.398438 6.601562 Z M 7.800781 3 "/>
<path style=" stroke:none;fill-rule:nonzero;fill:rgb(100%,100%,100%);fill-opacity:1;" d="M 7.5 6.898438 L 7.5 3.300781 L 7.675781 3.300781 L 11.101562 6.722656 L 11.101562 6.898438 Z M 7.5 6.898438 "/>
<path style=" stroke:none;fill-rule:nonzero;fill:rgb(47.058824%,54.509807%,61.176473%);fill-opacity:1;" d="M 7.800781 3.847656 L 10.550781 6.601562 L 7.800781 6.601562 L 7.800781 3.847656 M 7.800781 3 L 7.199219 3 L 7.199219 7.199219 L 11.398438 7.199219 L 11.398438 6.601562 Z M 7.800781 3 "/>
</g>
</g>
</svg>
