<?xml version="1.0" encoding="UTF-8"?>
<svg xmlns="http://www.w3.org/2000/svg" xmlns:xlink="http://www.w3.org/1999/xlink" width="24" height="24" viewBox="0 0 24 24" version="1.1">
<g transform="scale(1.33333333)">
<g id="surface133">
<path style=" stroke:none;fill-rule:nonzero;fill:rgb(86.274511%,83.529413%,94.901961%);fill-opacity:1;" d="M 14.363281 15.300781 C 13.496094 15.300781 12.644531 14.949219 12.03125 14.332031 L 4.234375 6.535156 L 5.9375 4.835938 L 16.402344 15.300781 Z M 14.363281 15.300781 "/>
<path style=" stroke:none;fill-rule:nonzero;fill:rgb(54.509807%,45.882353%,63.137257%);fill-opacity:1;" d="M 5.9375 5.257812 L 15.675781 15 L 14.363281 15 C 13.5625 15 12.808594 14.6875 12.242188 14.121094 L 4.660156 6.535156 L 5.9375 5.257812 M 5.9375 4.410156 L 3.808594 6.535156 L 11.820312 14.546875 C 12.496094 15.222656 13.410156 15.601562 14.363281 15.601562 L 17.125 15.601562 Z M 5.9375 4.410156 "/>
<path style=" stroke:none;fill-rule:nonzero;fill:rgb(54.509807%,45.882353%,63.137257%);fill-opacity:1;" d="M 7.011719 9.738281 L 9.136719 7.609375 L 10.96875 9.445312 L 8.84375 11.570312 Z M 7.011719 9.738281 "/>
<path style=" stroke:none;fill-rule:nonzero;fill:rgb(86.274511%,83.529413%,94.901961%);fill-opacity:1;" d="M 4.234375 11.464844 L 12.03125 3.667969 C 12.644531 3.050781 13.496094 2.699219 14.363281 2.699219 L 16.402344 2.699219 L 5.9375 13.164062 Z M 4.234375 11.464844 "/>
<path style=" stroke:none;fill-rule:nonzero;fill:rgb(54.509807%,45.882353%,63.137257%);fill-opacity:1;" d="M 15.675781 3 L 5.9375 12.742188 L 4.660156 11.464844 L 12.242188 3.878906 C 12.808594 3.3125 13.5625 3 14.363281 3 L 15.675781 3 M 17.125 2.398438 L 14.363281 2.398438 C 13.410156 2.398438 12.496094 2.777344 11.820312 3.453125 L 3.808594 11.464844 L 5.9375 13.589844 Z M 17.125 2.398438 "/>
<path style=" stroke:none;fill-rule:nonzero;fill:rgb(96.862745%,56.078434%,56.078434%);fill-opacity:1;" d="M 3.601562 16.5 C 2.113281 16.5 0.898438 15.289062 0.898438 13.800781 C 0.898438 12.3125 2.113281 11.101562 3.601562 11.101562 C 3.808594 11.101562 4.027344 11.132812 4.285156 11.199219 L 4.453125 11.246094 L 5.402344 10.296875 L 7.136719 11.96875 L 6.15625 12.945312 L 6.199219 13.113281 C 6.269531 13.375 6.300781 13.589844 6.300781 13.800781 C 6.300781 15.289062 5.089844 16.5 3.601562 16.5 Z M 3.601562 12.300781 C 2.773438 12.300781 2.101562 12.972656 2.101562 13.800781 C 2.101562 14.625 2.773438 15.300781 3.601562 15.300781 C 4.425781 15.300781 5.101562 14.625 5.101562 13.800781 C 5.101562 12.972656 4.425781 12.300781 3.601562 12.300781 Z M 4.453125 6.753906 L 4.285156 6.800781 C 4.027344 6.867188 3.808594 6.898438 3.601562 6.898438 C 2.113281 6.898438 0.898438 5.6875 0.898438 4.199219 C 0.898438 2.710938 2.113281 1.5 3.601562 1.5 C 5.089844 1.5 6.300781 2.710938 6.300781 4.199219 C 6.300781 4.410156 6.269531 4.625 6.199219 4.886719 L 6.15625 5.054688 L 7.136719 6.03125 L 5.402344 7.703125 Z M 3.601562 2.699219 C 2.773438 2.699219 2.101562 3.375 2.101562 4.199219 C 2.101562 5.027344 2.773438 5.699219 3.601562 5.699219 C 4.425781 5.699219 5.101562 5.027344 5.101562 4.199219 C 5.101562 3.375 4.425781 2.699219 3.601562 2.699219 Z M 3.601562 2.699219 "/>
<path style=" stroke:none;fill-rule:nonzero;fill:rgb(78.039217%,26.274511%,26.274511%);fill-opacity:1;" d="M 3.601562 1.800781 C 4.921875 1.800781 6 2.875 6 4.199219 C 6 4.382812 5.972656 4.578125 5.910156 4.808594 L 5.820312 5.144531 L 6.066406 5.386719 L 6.707031 6.03125 L 5.40625 7.285156 L 4.789062 6.664062 L 4.542969 6.421875 L 4.210938 6.507812 C 3.976562 6.570312 3.78125 6.601562 3.601562 6.601562 C 2.277344 6.601562 1.199219 5.523438 1.199219 4.199219 C 1.199219 2.875 2.277344 1.800781 3.601562 1.800781 M 3.601562 6 C 4.59375 6 5.398438 5.191406 5.398438 4.199219 C 5.398438 3.207031 4.59375 2.398438 3.601562 2.398438 C 2.609375 2.398438 1.800781 3.207031 1.800781 4.199219 C 1.800781 5.191406 2.609375 6 3.601562 6 M 5.40625 10.714844 L 6.707031 11.96875 L 6.066406 12.613281 L 5.820312 12.855469 L 5.910156 13.191406 C 5.972656 13.421875 6 13.617188 6 13.800781 C 6 15.125 4.921875 16.199219 3.601562 16.199219 C 2.277344 16.199219 1.199219 15.125 1.199219 13.800781 C 1.199219 12.476562 2.277344 11.398438 3.601562 11.398438 C 3.78125 11.398438 3.976562 11.429688 4.210938 11.492188 L 4.542969 11.578125 L 4.789062 11.335938 L 5.40625 10.714844 M 3.601562 15.601562 C 4.59375 15.601562 5.398438 14.792969 5.398438 13.800781 C 5.398438 12.808594 4.59375 12 3.601562 12 C 2.609375 12 1.800781 12.808594 1.800781 13.800781 C 1.800781 14.792969 2.609375 15.601562 3.601562 15.601562 M 3.601562 1.199219 C 1.945312 1.199219 0.601562 2.542969 0.601562 4.199219 C 0.601562 5.855469 1.945312 7.199219 3.601562 7.199219 C 3.867188 7.199219 4.117188 7.15625 4.363281 7.089844 L 5.398438 8.125 L 7.5625 6.039062 L 6.488281 4.964844 C 6.554688 4.71875 6.601562 4.464844 6.601562 4.199219 C 6.601562 2.542969 5.257812 1.199219 3.601562 1.199219 Z M 3.601562 5.398438 C 2.9375 5.398438 2.398438 4.863281 2.398438 4.199219 C 2.398438 3.535156 2.9375 3 3.601562 3 C 4.261719 3 4.800781 3.535156 4.800781 4.199219 C 4.800781 4.863281 4.261719 5.398438 3.601562 5.398438 Z M 5.398438 9.875 L 4.363281 10.910156 C 4.117188 10.84375 3.867188 10.800781 3.601562 10.800781 C 1.945312 10.800781 0.601562 12.144531 0.601562 13.800781 C 0.601562 15.457031 1.945312 16.800781 3.601562 16.800781 C 5.257812 16.800781 6.601562 15.457031 6.601562 13.800781 C 6.601562 13.535156 6.554688 13.28125 6.488281 13.035156 L 7.5625 11.960938 Z M 3.601562 15 C 2.9375 15 2.398438 14.464844 2.398438 13.800781 C 2.398438 13.136719 2.9375 12.601562 3.601562 12.601562 C 4.261719 12.601562 4.800781 13.136719 4.800781 13.800781 C 4.800781 14.464844 4.261719 15 3.601562 15 Z M 3.601562 15 "/>
<path style=" stroke:none;fill-rule:nonzero;fill:rgb(54.509807%,45.882353%,63.137257%);fill-opacity:1;" d="M 8.308594 8.527344 C 8 8.527344 7.746094 8.777344 7.746094 9.089844 C 7.746094 9.402344 8 9.652344 8.308594 9.652344 C 8.621094 9.652344 8.871094 9.402344 8.871094 9.089844 C 8.871094 8.777344 8.621094 8.527344 8.308594 8.527344 Z M 8.308594 8.527344 "/>
</g>
</g>
</svg>
