<?xml version="1.0" encoding="UTF-8"?>
<svg xmlns="http://www.w3.org/2000/svg" xmlns:xlink="http://www.w3.org/1999/xlink" width="24" height="24" viewBox="0 0 24 24" version="1.1">
<g transform="scale(1.33333333)">
<g id="surface150">
<path style=" stroke:none;fill-rule:nonzero;fill:rgb(54.509807%,71.764708%,94.117647%);fill-opacity:1;" d="M 9 17.101562 C 4.558594 17.101562 0.898438 13.441406 0.898438 9 C 0.898438 4.558594 4.558594 0.898438 9 0.898438 C 13.441406 0.898438 17.101562 4.558594 17.101562 9 C 17.101562 13.441406 13.441406 17.101562 9 17.101562 Z M 9 17.101562 "/>
<path style=" stroke:none;fill-rule:nonzero;fill:rgb(30.588236%,47.843137%,70.980394%);fill-opacity:1;" d="M 9 1.199219 C 13.320312 1.199219 16.800781 4.679688 16.800781 9 C 16.800781 13.320312 13.320312 16.800781 9 16.800781 C 4.679688 16.800781 1.199219 13.320312 1.199219 9 C 1.199219 4.679688 4.679688 1.199219 9 1.199219 M 9 0.601562 C 4.378906 0.601562 0.601562 4.378906 0.601562 9 C 0.601562 13.621094 4.378906 17.398438 9 17.398438 C 13.621094 17.398438 17.398438 13.621094 17.398438 9 C 17.398438 4.378906 13.621094 0.601562 9 0.601562 Z M 9 0.601562 "/>
<path style=" stroke:none;fill-rule:nonzero;fill:rgb(100%,100%,100%);fill-opacity:1;" d="M 9 12.421875 C 8.570312 12.421875 8.21875 12.769531 8.21875 13.199219 C 8.21875 13.628906 8.570312 13.980469 9 13.980469 C 9.429688 13.980469 9.78125 13.628906 9.78125 13.199219 C 9.78125 12.769531 9.429688 12.421875 9 12.421875 Z M 9.601562 10.800781 L 8.398438 10.800781 L 8.398438 10.199219 C 8.398438 9.121094 9 8.578125 9.421875 8.101562 C 9.839844 7.679688 10.199219 7.320312 10.199219 6.601562 C 10.199219 5.941406 9.660156 5.398438 9 5.398438 C 8.339844 5.398438 7.800781 5.941406 7.800781 6.601562 L 7.800781 7.199219 L 6.601562 7.199219 L 6.601562 6.601562 C 6.601562 5.28125 7.679688 4.199219 9 4.199219 C 10.320312 4.199219 11.398438 5.28125 11.398438 6.601562 C 11.398438 7.800781 10.800781 8.460938 10.261719 8.941406 C 9.839844 9.359375 9.601562 9.660156 9.601562 10.199219 Z M 9.601562 10.800781 "/>
</g>
</g>
</svg>
