<?xml version="1.0" encoding="UTF-8"?>
<svg xmlns="http://www.w3.org/2000/svg" xmlns:xlink="http://www.w3.org/1999/xlink" width="24" height="24" viewBox="0 0 24 24" version="1.1">
<g transform="scale(1.33333333)">
<g id="surface170">
<path style=" stroke:none;fill-rule:nonzero;fill:rgb(85.882354%,69.01961%,39.607844%);fill-opacity:1;" d="M 0.898438 15.898438 L 0.898438 2.101562 L 5.875 2.101562 L 7.675781 3.898438 L 15.898438 3.898438 L 15.898438 15.898438 Z M 0.898438 15.898438 "/>
<path style=" stroke:none;fill-rule:nonzero;fill:rgb(58.823532%,47.843137%,26.666668%);fill-opacity:1;" d="M 5.75 2.398438 L 7.550781 4.199219 L 15.601562 4.199219 L 15.601562 15.601562 L 1.199219 15.601562 L 1.199219 2.398438 L 5.75 2.398438 M 6 1.800781 L 0.601562 1.800781 L 0.601562 16.199219 L 16.199219 16.199219 L 16.199219 3.601562 L 7.800781 3.601562 Z M 6 1.800781 "/>
<path style=" stroke:none;fill-rule:nonzero;fill:rgb(96.078432%,80.784315%,52.156866%);fill-opacity:1;" d="M 0.964844 15.898438 L 2.644531 7.5 L 7.289062 7.5 L 9.089844 6.300781 L 17.0625 6.300781 L 15.933594 15.898438 Z M 0.964844 15.898438 "/>
<path style=" stroke:none;fill-rule:nonzero;fill:rgb(58.823532%,47.843137%,26.666668%);fill-opacity:1;" d="M 16.726562 6.601562 L 15.664062 15.601562 L 1.332031 15.601562 L 2.890625 7.800781 L 7.382812 7.800781 L 7.53125 7.699219 L 9.183594 6.601562 L 16.726562 6.601562 M 17.398438 6 L 9 6 L 7.199219 7.199219 L 2.398438 7.199219 L 0.601562 16.199219 L 16.199219 16.199219 Z M 17.398438 6 "/>
</g>
</g>
</svg>
