<?xml version="1.0" encoding="UTF-8"?>
<svg xmlns="http://www.w3.org/2000/svg" xmlns:xlink="http://www.w3.org/1999/xlink" width="24" height="24" viewBox="0 0 24 24" version="1.1">
<g transform="scale(1.33333333)">
<g id="surface201">
<path style=" stroke:none;fill-rule:nonzero;fill:rgb(40.000001%,47.450981%,56.078434%);fill-opacity:1;" d="M 9 0.601562 C 9.332031 0.601562 9.601562 0.871094 9.601562 1.199219 C 9.601562 1.53125 9.332031 1.800781 9 1.800781 C 8.667969 1.800781 8.398438 1.53125 8.398438 1.199219 C 8.398438 0.871094 8.667969 0.601562 9 0.601562 M 9 0 C 8.335938 0 7.800781 0.535156 7.800781 1.199219 C 7.800781 1.863281 8.335938 2.398438 9 2.398438 C 9.664062 2.398438 10.199219 1.863281 10.199219 1.199219 C 10.199219 0.535156 9.664062 0 9 0 Z M 9 0 "/>
<path style=" stroke:none;fill-rule:nonzero;fill:rgb(96.078432%,76.078433%,46.27451%);fill-opacity:1;" d="M 3 17.101562 C 2.835938 17.101562 2.699219 16.964844 2.699219 16.800781 L 2.699219 1.800781 C 2.699219 1.636719 2.835938 1.5 3 1.5 L 7.53125 1.5 C 7.667969 2.183594 8.273438 2.699219 9 2.699219 C 9.726562 2.699219 10.332031 2.183594 10.46875 1.5 L 15 1.5 C 15.164062 1.5 15.300781 1.636719 15.300781 1.800781 L 15.300781 16.800781 C 15.300781 16.964844 15.164062 17.101562 15 17.101562 Z M 3 17.101562 "/>
<path style=" stroke:none;fill-rule:nonzero;fill:rgb(76.078433%,58.823532%,32.549021%);fill-opacity:1;" d="M 15 1.800781 L 15 16.800781 L 3 16.800781 L 3 1.800781 L 7.300781 1.800781 C 7.550781 2.5 8.21875 3 9 3 C 9.78125 3 10.449219 2.5 10.699219 1.800781 L 15 1.800781 M 15 1.199219 L 10.199219 1.199219 C 10.199219 1.863281 9.664062 2.398438 9 2.398438 C 8.335938 2.398438 7.800781 1.863281 7.800781 1.199219 L 3 1.199219 C 2.667969 1.199219 2.398438 1.46875 2.398438 1.800781 L 2.398438 16.800781 C 2.398438 17.132812 2.667969 17.398438 3 17.398438 L 15 17.398438 C 15.332031 17.398438 15.601562 17.132812 15.601562 16.800781 L 15.601562 1.800781 C 15.601562 1.46875 15.332031 1.199219 15 1.199219 Z M 15 1.199219 "/>
<path style=" stroke:none;fill-rule:nonzero;fill:rgb(100%,100%,100%);fill-opacity:1;" d="M 4.199219 3 L 13.800781 3 L 13.800781 15.601562 L 4.199219 15.601562 Z M 4.199219 3 "/>
<path style=" stroke:none;fill-rule:nonzero;fill:rgb(40.000001%,47.450981%,56.078434%);fill-opacity:1;" d="M 9.898438 1.199219 C 9.898438 1.863281 9.664062 2.03125 9 2.03125 C 8.335938 2.03125 8.136719 1.863281 8.136719 1.199219 L 6 1.199219 L 6 3 C 6 3.332031 6.269531 3.601562 6.601562 3.601562 L 11.398438 3.601562 C 11.730469 3.601562 12 3.332031 12 3 L 12 1.199219 Z M 9.898438 1.199219 "/>
</g>
</g>
</svg>
