<?xml version="1.0" encoding="UTF-8"?>
<svg xmlns="http://www.w3.org/2000/svg" xmlns:xlink="http://www.w3.org/1999/xlink" width="24" height="24" viewBox="0 0 24 24" version="1.1">
<g transform="scale(1.33333333)">
<g id="surface214">
<path style=" stroke:none;fill-rule:nonzero;fill:rgb(54.509807%,71.764708%,94.117647%);fill-opacity:1;" d="M 6 14.699219 C 3.1875 14.699219 0.898438 12.414062 0.898438 9.601562 C 0.898438 6.789062 3.1875 4.5 6 4.5 L 13.5 4.5 L 13.5 1.925781 L 16.976562 5.398438 L 13.5 8.875 L 13.5 6.300781 L 6 6.300781 C 4.179688 6.300781 2.699219 7.78125 2.699219 9.601562 C 2.699219 11.417969 4.179688 12.898438 6 12.898438 L 8.699219 12.898438 L 8.699219 14.699219 Z M 6 14.699219 "/>
<path style=" stroke:none;fill-rule:nonzero;fill:rgb(30.588236%,47.843137%,70.980394%);fill-opacity:1;" d="M 13.800781 2.648438 L 16.550781 5.398438 L 13.800781 8.152344 L 13.800781 6 L 6 6 C 4.015625 6 2.398438 7.613281 2.398438 9.601562 C 2.398438 11.585938 4.015625 13.199219 6 13.199219 L 8.398438 13.199219 L 8.398438 14.398438 L 6 14.398438 C 3.351562 14.398438 1.199219 12.246094 1.199219 9.601562 C 1.199219 6.953125 3.351562 4.800781 6 4.800781 L 13.800781 4.800781 L 13.800781 2.648438 M 13.199219 1.199219 L 13.199219 4.199219 L 6 4.199219 C 3.015625 4.199219 0.601562 6.617188 0.601562 9.601562 C 0.601562 12.582031 3.015625 15 6 15 L 9 15 L 9 12.601562 L 6 12.601562 C 4.34375 12.601562 3 11.257812 3 9.601562 C 3 7.945312 4.34375 6.601562 6 6.601562 L 13.199219 6.601562 L 13.199219 9.601562 L 17.398438 5.398438 Z M 13.199219 1.199219 "/>
</g>
</g>
</svg>
