<?xml version="1.0" encoding="UTF-8"?>
<svg xmlns="http://www.w3.org/2000/svg" xmlns:xlink="http://www.w3.org/1999/xlink" width="24" height="24" viewBox="0 0 24 24" version="1.1">
<g transform="scale(1.33333333)">
<g id="surface226">
<path style=" stroke:none;fill-rule:nonzero;fill:rgb(54.509807%,71.764708%,94.117647%);fill-opacity:1;" d="M 1.925781 15.898438 L 3.1875 14.636719 L 2.996094 14.425781 C 1.644531 12.929688 0.898438 11.003906 0.898438 9 C 0.898438 4.535156 4.535156 0.898438 9 0.898438 C 9.277344 0.898438 9.566406 0.917969 9.898438 0.960938 L 9.898438 2.769531 C 9.597656 2.722656 9.292969 2.699219 9 2.699219 C 5.527344 2.699219 2.699219 5.527344 2.699219 9 C 2.699219 10.507812 3.25 11.972656 4.25 13.121094 L 4.460938 13.363281 L 5.699219 12.125 L 5.699219 15.898438 Z M 1.925781 15.898438 "/>
<path style=" stroke:none;fill-rule:nonzero;fill:rgb(30.588236%,47.843137%,70.980394%);fill-opacity:1;" d="M 9 1.199219 C 9.1875 1.199219 9.386719 1.210938 9.601562 1.230469 L 9.601562 2.429688 C 9.398438 2.410156 9.199219 2.398438 9 2.398438 C 5.359375 2.398438 2.398438 5.359375 2.398438 9 C 2.398438 10.582031 2.976562 12.113281 4.023438 13.316406 L 4.445312 13.800781 L 4.902344 13.347656 L 5.398438 12.847656 L 5.398438 15.601562 L 2.648438 15.601562 L 3.199219 15.050781 L 3.601562 14.644531 L 3.21875 14.222656 C 1.917969 12.785156 1.199219 10.929688 1.199219 9 C 1.199219 4.699219 4.699219 1.199219 9 1.199219 M 9 0.601562 C 4.359375 0.601562 0.601562 4.359375 0.601562 9 C 0.601562 11.167969 1.425781 13.136719 2.773438 14.625 L 1.199219 16.199219 L 6 16.199219 L 6 11.398438 L 4.476562 12.921875 C 3.5625 11.871094 3 10.503906 3 9 C 3 5.6875 5.6875 3 9 3 C 9.410156 3 9.8125 3.046875 10.199219 3.125 L 10.199219 0.699219 C 9.808594 0.640625 9.410156 0.601562 9 0.601562 Z M 9 0.601562 "/>
<path style=" stroke:none;fill-rule:nonzero;fill:rgb(54.509807%,71.764708%,94.117647%);fill-opacity:1;" d="M 9 17.101562 C 8.722656 17.101562 8.433594 17.082031 8.101562 17.039062 L 8.101562 15.230469 C 8.402344 15.277344 8.707031 15.300781 9 15.300781 C 12.472656 15.300781 15.300781 12.472656 15.300781 9 C 15.300781 7.492188 14.75 6.027344 13.75 4.878906 L 13.539062 4.636719 L 12.300781 5.875 L 12.300781 2.101562 L 16.074219 2.101562 L 14.8125 3.363281 L 15.003906 3.574219 C 16.355469 5.070312 17.101562 6.996094 17.101562 9 C 17.101562 13.464844 13.464844 17.101562 9 17.101562 Z M 9 17.101562 "/>
<path style=" stroke:none;fill-rule:nonzero;fill:rgb(30.588236%,47.843137%,70.980394%);fill-opacity:1;" d="M 15.351562 2.398438 L 14.800781 2.949219 L 14.398438 3.355469 L 14.78125 3.777344 C 16.082031 5.214844 16.800781 7.070312 16.800781 9 C 16.800781 13.300781 13.300781 16.800781 9 16.800781 C 8.8125 16.800781 8.613281 16.789062 8.398438 16.769531 L 8.398438 15.570312 C 8.601562 15.589844 8.800781 15.601562 9 15.601562 C 12.640625 15.601562 15.601562 12.640625 15.601562 9 C 15.601562 7.417969 15.023438 5.886719 13.976562 4.683594 L 13.554688 4.199219 L 13.097656 4.652344 L 12.601562 5.152344 L 12.601562 2.398438 L 15.351562 2.398438 M 16.800781 1.800781 L 12 1.800781 L 12 6.601562 L 13.523438 5.078125 C 14.4375 6.128906 15 7.496094 15 9 C 15 12.3125 12.3125 15 9 15 C 8.589844 15 8.1875 14.953125 7.800781 14.875 L 7.800781 17.300781 C 8.191406 17.359375 8.589844 17.398438 9 17.398438 C 13.640625 17.398438 17.398438 13.640625 17.398438 9 C 17.398438 6.832031 16.574219 4.863281 15.226562 3.375 Z M 16.800781 1.800781 "/>
</g>
</g>
</svg>
