<?xml version="1.0" encoding="UTF-8"?>
<svg xmlns="http://www.w3.org/2000/svg" xmlns:xlink="http://www.w3.org/1999/xlink" width="24" height="24" viewBox="0 0 24 24" version="1.1">
<g transform="scale(1.33333333)">
<g id="surface255">
<path style=" stroke:none;fill-rule:nonzero;fill:rgb(86.274511%,83.529413%,94.901961%);fill-opacity:1;" d="M 1.5 16.5 L 1.5 1.5 L 13.074219 1.5 L 16.5 4.925781 L 16.5 16.5 Z M 1.5 16.5 "/>
<path style=" stroke:none;fill-rule:nonzero;fill:rgb(54.509807%,45.882353%,63.137257%);fill-opacity:1;" d="M 12.953125 1.800781 L 16.199219 5.046875 L 16.199219 16.199219 L 1.800781 16.199219 L 1.800781 1.800781 L 12.953125 1.800781 M 13.199219 1.199219 L 1.199219 1.199219 L 1.199219 16.800781 L 16.800781 16.800781 L 16.800781 4.800781 Z M 13.199219 1.199219 "/>
<path style=" stroke:none;fill-rule:nonzero;fill:rgb(100%,100%,100%);fill-opacity:1;" d="M 3.300781 9.300781 L 14.699219 9.300781 L 14.699219 16.5 L 3.300781 16.5 Z M 3.300781 9.300781 "/>
<path style=" stroke:none;fill-rule:nonzero;fill:rgb(47.058824%,54.509807%,61.176473%);fill-opacity:1;" d="M 14.398438 9.601562 L 14.398438 16.199219 L 3.601562 16.199219 L 3.601562 9.601562 L 14.398438 9.601562 M 15 9 L 3 9 L 3 16.800781 L 15 16.800781 Z M 15 9 "/>
<path style=" stroke:none;fill-rule:nonzero;fill:rgb(77.64706%,72.941178%,90.196079%);fill-opacity:1;" d="M 11.398438 1.800781 L 4.199219 1.800781 L 4.199219 6 C 4.199219 6.332031 4.46875 6.601562 4.800781 6.601562 L 11.398438 6.601562 C 11.730469 6.601562 12 6.332031 12 6 L 12 2.398438 C 12 2.070312 11.730469 1.800781 11.398438 1.800781 Z M 11.398438 1.800781 "/>
<path style=" stroke:none;fill-rule:nonzero;fill:rgb(88.235295%,92.156863%,94.901961%);fill-opacity:1;" d="M 6 6.300781 C 5.835938 6.300781 5.699219 6.164062 5.699219 6 L 5.699219 1.800781 C 5.699219 1.632812 5.835938 1.5 6 1.5 L 12.601562 1.5 C 12.765625 1.5 12.898438 1.632812 12.898438 1.800781 L 12.898438 6 C 12.898438 6.164062 12.765625 6.300781 12.601562 6.300781 Z M 6 6.300781 "/>
<path style=" stroke:none;fill-rule:nonzero;fill:rgb(40.000001%,47.450981%,56.078434%);fill-opacity:1;" d="M 12.601562 1.800781 L 12.601562 6 L 6 6 L 6 1.800781 L 12.601562 1.800781 M 12.601562 1.199219 L 6 1.199219 C 5.667969 1.199219 5.398438 1.46875 5.398438 1.800781 L 5.398438 6 C 5.398438 6.332031 5.667969 6.601562 6 6.601562 L 12.601562 6.601562 C 12.929688 6.601562 13.199219 6.332031 13.199219 6 L 13.199219 1.800781 C 13.199219 1.46875 12.929688 1.199219 12.601562 1.199219 Z M 12.601562 1.199219 "/>
<path style=" stroke:none;fill-rule:nonzero;fill:rgb(76.078433%,90.980393%,100%);fill-opacity:1;" d="M 4.800781 12.601562 L 13.199219 12.601562 L 13.199219 13.199219 L 4.800781 13.199219 Z M 4.800781 10.800781 L 13.199219 10.800781 L 13.199219 11.398438 L 4.800781 11.398438 Z M 4.800781 14.398438 L 13.199219 14.398438 L 13.199219 15 L 4.800781 15 Z M 4.800781 14.398438 "/>
<path style=" stroke:none;fill-rule:nonzero;fill:rgb(47.058824%,54.509807%,61.176473%);fill-opacity:1;" d="M 10.199219 2.398438 L 11.398438 2.398438 L 11.398438 5.398438 L 10.199219 5.398438 Z M 10.199219 2.398438 "/>
</g>
</g>
</svg>
