<?xml version="1.0" encoding="UTF-8"?>
<svg xmlns="http://www.w3.org/2000/svg" xmlns:xlink="http://www.w3.org/1999/xlink" width="24" height="24" viewBox="0 0 24 24" version="1.1">
<g transform="scale(1.33333333)">
<g id="surface238">
<path style=" stroke:none;fill-rule:nonzero;fill:rgb(54.509807%,71.764708%,94.117647%);fill-opacity:1;" d="M 9.300781 14.699219 L 9.300781 12.898438 L 12 12.898438 C 13.820312 12.898438 15.300781 11.417969 15.300781 9.601562 C 15.300781 7.78125 13.820312 6.300781 12 6.300781 L 4.5 6.300781 L 4.5 8.875 L 1.023438 5.398438 L 4.5 1.925781 L 4.5 4.5 L 12 4.5 C 14.8125 4.5 17.101562 6.789062 17.101562 9.601562 C 17.101562 12.414062 14.8125 14.699219 12 14.699219 Z M 9.300781 14.699219 "/>
<path style=" stroke:none;fill-rule:nonzero;fill:rgb(30.588236%,47.843137%,70.980394%);fill-opacity:1;" d="M 4.199219 2.648438 L 4.199219 4.800781 L 12 4.800781 C 14.648438 4.800781 16.800781 6.953125 16.800781 9.601562 C 16.800781 12.246094 14.648438 14.398438 12 14.398438 L 9.601562 14.398438 L 9.601562 13.199219 L 12 13.199219 C 13.984375 13.199219 15.601562 11.585938 15.601562 9.601562 C 15.601562 7.613281 13.984375 6 12 6 L 4.199219 6 L 4.199219 8.152344 L 1.449219 5.398438 L 4.199219 2.648438 M 4.800781 1.199219 L 0.601562 5.398438 L 4.800781 9.601562 L 4.800781 6.601562 L 12 6.601562 C 13.65625 6.601562 15 7.945312 15 9.601562 C 15 11.257812 13.65625 12.601562 12 12.601562 L 9 12.601562 L 9 15 L 12 15 C 14.984375 15 17.398438 12.582031 17.398438 9.601562 C 17.398438 6.617188 14.984375 4.199219 12 4.199219 L 4.800781 4.199219 Z M 4.800781 1.199219 "/>
</g>
</g>
</svg>
