<?xml version="1.0" encoding="UTF-8"?>
<svg xmlns="http://www.w3.org/2000/svg" xmlns:xlink="http://www.w3.org/1999/xlink" width="32" height="32" viewBox="0 0 32 32" version="1.1">
<g transform="scale(1.33333333)">
<g transform="scale(1.33333333)">
<g id="surface365">
<path style=" stroke:none;fill-rule:nonzero;fill:rgb(30.588236%,47.843137%,70.980394%);fill-opacity:1;" d="M 1.199219 9.601562 L 16.800781 9.601562 L 16.800781 10.800781 L 1.199219 10.800781 Z M 1.199219 7.199219 L 16.800781 7.199219 L 16.800781 8.398438 L 1.199219 8.398438 Z M 1.199219 7.199219 "/>
<path style=" stroke:none;fill-rule:nonzero;fill:rgb(54.509807%,71.764708%,94.117647%);fill-opacity:1;" d="M 6.050781 3.898438 L 8.101562 3.898438 L 8.101562 0.898438 L 9.898438 0.898438 L 9.898438 3.898438 L 11.949219 3.898438 L 9 7.339844 Z M 6.050781 3.898438 "/>
<path style=" stroke:none;fill-rule:nonzero;fill:rgb(30.588236%,47.843137%,70.980394%);fill-opacity:1;" d="M 9.601562 1.199219 L 9.601562 4.199219 L 11.296875 4.199219 L 9 6.878906 L 6.703125 4.199219 L 8.398438 4.199219 L 8.398438 1.199219 L 9.601562 1.199219 M 10.199219 0.601562 L 7.800781 0.601562 L 7.800781 3.601562 L 5.398438 3.601562 L 9 7.800781 L 12.601562 3.601562 L 10.199219 3.601562 Z M 10.199219 0.601562 "/>
<path style=" stroke:none;fill-rule:nonzero;fill:rgb(54.509807%,71.764708%,94.117647%);fill-opacity:1;" d="M 8.101562 17.101562 L 8.101562 14.101562 L 6.050781 14.101562 L 9 10.660156 L 11.949219 14.101562 L 9.898438 14.101562 L 9.898438 17.101562 Z M 8.101562 17.101562 "/>
<path style=" stroke:none;fill-rule:nonzero;fill:rgb(30.588236%,47.843137%,70.980394%);fill-opacity:1;" d="M 9 11.121094 L 11.296875 13.800781 L 9.601562 13.800781 L 9.601562 16.800781 L 8.398438 16.800781 L 8.398438 13.800781 L 6.703125 13.800781 L 9 11.121094 M 9 10.199219 L 5.398438 14.398438 L 7.800781 14.398438 L 7.800781 17.398438 L 10.199219 17.398438 L 10.199219 14.398438 L 12.601562 14.398438 Z M 9 10.199219 "/>
</g>
</g>
</g>
</svg>
