<?xml version="1.0" encoding="UTF-8"?>
<svg xmlns="http://www.w3.org/2000/svg" xmlns:xlink="http://www.w3.org/1999/xlink" width="30pt" height="30pt" viewBox="0 0 30 30" version="1.1">
<g id="surface14">
<path style=" stroke:none;fill-rule:nonzero;fill:rgb(71.372551%,78.823531%,83.92157%);fill-opacity:1;" d="M 2.929688 28.5 C 2.550781 28.5 2.1875 28.351562 1.917969 28.082031 C 1.359375 27.523438 1.359375 26.613281 1.917969 26.058594 L 15.925781 12.703125 L 17.300781 14.082031 L 3.933594 28.089844 C 3.671875 28.351562 3.3125 28.5 2.929688 28.5 Z M 2.929688 28.5 "/>
<path style=" stroke:none;fill-rule:nonzero;fill:rgb(47.058824%,54.509807%,61.176473%);fill-opacity:1;" d="M 15.917969 13.402344 L 16.601562 14.089844 L 3.589844 27.726562 C 3.414062 27.902344 3.179688 28 2.929688 28 C 2.683594 28 2.449219 27.902344 2.273438 27.726562 C 1.910156 27.363281 1.910156 26.773438 2.257812 26.425781 L 15.917969 13.402344 M 15.933594 12.003906 L 1.566406 25.703125 C 0.8125 26.457031 0.8125 27.679688 1.566406 28.433594 C 1.941406 28.8125 2.4375 29 2.929688 29 C 3.425781 29 3.917969 28.8125 4.296875 28.433594 L 18 14.074219 Z M 15.933594 12.003906 "/>
<path style=" stroke:none;fill-rule:nonzero;fill:rgb(81.960785%,92.941177%,100%);fill-opacity:1;" d="M 19 20.5 C 13.761719 20.5 9.5 16.238281 9.5 11 C 9.5 5.761719 13.761719 1.5 19 1.5 C 24.238281 1.5 28.5 5.761719 28.5 11 C 28.5 16.238281 24.238281 20.5 19 20.5 Z M 19 20.5 "/>
<path style=" stroke:none;fill-rule:nonzero;fill:rgb(47.058824%,54.509807%,61.176473%);fill-opacity:1;" d="M 19 2 C 23.964844 2 28 6.035156 28 11 C 28 15.964844 23.964844 20 19 20 C 14.035156 20 10 15.964844 10 11 C 10 6.035156 14.035156 2 19 2 M 19 1 C 13.476562 1 9 5.476562 9 11 C 9 16.523438 13.476562 21 19 21 C 24.523438 21 29 16.523438 29 11 C 29 5.476562 24.523438 1 19 1 Z M 19 1 "/>
</g>
</svg>
