<?xml version="1.0" encoding="UTF-8"?>
<svg xmlns="http://www.w3.org/2000/svg" xmlns:xlink="http://www.w3.org/1999/xlink" width="30pt" height="30pt" viewBox="0 0 30 30" version="1.1">
<g id="surface119">
<path style=" stroke:none;fill-rule:nonzero;fill:rgb(86.274511%,83.529413%,94.901961%);fill-opacity:1;" d="M 13.390625 28.5 L 12.566406 25.207031 L 12.285156 25.132812 C 10.496094 24.652344 8.867188 23.714844 7.574219 22.421875 L 7.367188 22.214844 L 4.113281 23.144531 L 2.507812 20.355469 L 4.945312 17.996094 L 4.867188 17.714844 C 4.625 16.800781 4.5 15.886719 4.5 15 C 4.5 14.113281 4.625 13.199219 4.867188 12.285156 L 4.941406 12.003906 L 2.503906 9.644531 L 4.113281 6.855469 L 7.363281 7.785156 L 7.570312 7.578125 C 8.863281 6.285156 10.492188 5.347656 12.28125 4.867188 L 12.566406 4.792969 L 13.390625 1.5 L 16.609375 1.5 L 17.433594 4.792969 L 17.71875 4.867188 C 19.507812 5.347656 21.132812 6.285156 22.425781 7.578125 L 22.636719 7.785156 L 25.886719 6.855469 L 27.496094 9.644531 L 25.058594 12.003906 L 25.132812 12.285156 C 25.375 13.199219 25.5 14.113281 25.5 15 C 25.5 15.886719 25.375 16.800781 25.132812 17.714844 L 25.058594 17.996094 L 27.496094 20.355469 L 25.886719 23.144531 L 22.636719 22.214844 L 22.429688 22.421875 C 21.136719 23.714844 19.507812 24.652344 17.71875 25.132812 L 17.433594 25.207031 L 16.609375 28.5 Z M 15 9 C 11.691406 9 9 11.691406 9 15 C 9 18.308594 11.691406 21 15 21 C 18.308594 21 21 18.308594 21 15 C 21 11.691406 18.308594 9 15 9 Z M 15 9 "/>
<path style=" stroke:none;fill-rule:nonzero;fill:rgb(54.509807%,45.882353%,63.137257%);fill-opacity:1;" d="M 16.21875 2 L 16.875 4.628906 L 17.019531 5.199219 L 17.589844 5.351562 C 19.289062 5.808594 20.84375 6.699219 22.074219 7.929688 L 22.488281 8.347656 L 23.054688 8.1875 L 25.648438 7.445312 L 26.867188 9.554688 L 24.921875 11.4375 L 24.496094 11.847656 L 24.648438 12.414062 C 24.882812 13.285156 25 14.15625 25 15 C 25 15.84375 24.882812 16.714844 24.648438 17.585938 L 24.496094 18.152344 L 24.921875 18.5625 L 26.867188 20.445312 L 25.648438 22.554688 L 23.054688 21.8125 L 22.488281 21.652344 L 22.074219 22.070312 C 20.84375 23.300781 19.292969 24.191406 17.589844 24.648438 L 17.019531 24.800781 L 16.878906 25.371094 L 16.21875 28 L 13.78125 28 L 13.121094 25.371094 L 12.980469 24.800781 L 12.410156 24.648438 C 10.707031 24.191406 9.15625 23.300781 7.925781 22.070312 L 7.511719 21.652344 L 6.945312 21.8125 L 4.351562 22.554688 L 3.132812 20.445312 L 5.078125 18.5625 L 5.503906 18.152344 L 5.351562 17.585938 C 5.117188 16.714844 5 15.84375 5 15 C 5 14.15625 5.117188 13.285156 5.351562 12.414062 L 5.503906 11.847656 L 5.078125 11.4375 L 3.132812 9.554688 L 4.351562 7.445312 L 6.945312 8.1875 L 7.511719 8.347656 L 7.925781 7.929688 C 9.15625 6.699219 10.707031 5.808594 12.410156 5.351562 L 12.980469 5.199219 L 13.121094 4.628906 L 13.78125 2 L 16.21875 2 M 15 21.5 C 18.585938 21.5 21.5 18.585938 21.5 15 C 21.5 11.414062 18.585938 8.5 15 8.5 C 11.414062 8.5 8.5 11.414062 8.5 15 C 8.5 18.585938 11.414062 21.5 15 21.5 M 17 1 L 13 1 L 12.152344 4.386719 C 10.261719 4.890625 8.566406 5.878906 7.21875 7.222656 L 3.875 6.269531 L 1.875 9.730469 L 4.386719 12.15625 C 4.140625 13.066406 4 14.015625 4 15 C 4 15.984375 4.140625 16.933594 4.382812 17.84375 L 1.875 20.269531 L 3.875 23.730469 L 7.21875 22.777344 C 8.5625 24.121094 10.261719 25.109375 12.152344 25.613281 L 13 29 L 17 29 L 17.847656 25.613281 C 19.738281 25.109375 21.4375 24.121094 22.78125 22.777344 L 26.125 23.730469 L 28.125 20.269531 L 25.613281 17.84375 C 25.859375 16.933594 26 15.984375 26 15 C 26 14.015625 25.859375 13.066406 25.617188 12.15625 L 28.125 9.730469 L 26.125 6.269531 L 22.78125 7.226562 C 21.4375 5.878906 19.738281 4.894531 17.847656 4.386719 Z M 15 20.5 C 11.960938 20.5 9.5 18.039062 9.5 15 C 9.5 11.960938 11.960938 9.5 15 9.5 C 18.039062 9.5 20.5 11.960938 20.5 15 C 20.5 18.039062 18.039062 20.5 15 20.5 Z M 15 20.5 "/>
<path style=" stroke:none;fill-rule:nonzero;fill:rgb(93.333334%,92.156863%,96.862745%);fill-opacity:1;" d="M 15 22.5 C 10.863281 22.5 7.5 19.136719 7.5 15 C 7.5 10.863281 10.863281 7.5 15 7.5 C 19.136719 7.5 22.5 10.863281 22.5 15 C 22.5 19.136719 19.136719 22.5 15 22.5 Z M 15 11.5 C 13.070312 11.5 11.5 13.070312 11.5 15 C 11.5 16.929688 13.070312 18.5 15 18.5 C 16.929688 18.5 18.5 16.929688 18.5 15 C 18.5 13.070312 16.929688 11.5 15 11.5 Z M 15 11.5 "/>
<path style=" stroke:none;fill-rule:nonzero;fill:rgb(54.509807%,45.882353%,63.137257%);fill-opacity:1;" d="M 15 8 C 18.859375 8 22 11.140625 22 15 C 22 18.859375 18.859375 22 15 22 C 11.140625 22 8 18.859375 8 15 C 8 11.140625 11.140625 8 15 8 M 15 19 C 17.207031 19 19 17.207031 19 15 C 19 12.792969 17.207031 11 15 11 C 12.792969 11 11 12.792969 11 15 C 11 17.207031 12.792969 19 15 19 M 15 7 C 10.582031 7 7 10.582031 7 15 C 7 19.417969 10.582031 23 15 23 C 19.417969 23 23 19.417969 23 15 C 23 10.582031 19.417969 7 15 7 Z M 15 18 C 13.34375 18 12 16.65625 12 15 C 12 13.34375 13.34375 12 15 12 C 16.65625 12 18 13.34375 18 15 C 18 16.65625 16.65625 18 15 18 Z M 15 18 "/>
</g>
</svg>
