<?xml version="1.0" encoding="UTF-8"?>
<svg xmlns="http://www.w3.org/2000/svg" xmlns:xlink="http://www.w3.org/1999/xlink" width="32" height="32" viewBox="0 0 32 32" version="1.1">
<g transform="scale(1.33333333)">
<g transform="scale(1.33333333)">
<g id="surface394">
<path style=" stroke:none;fill-rule:nonzero;fill:rgb(86.274511%,83.529413%,94.901961%);fill-opacity:1;" d="M 8.035156 17.101562 L 7.539062 15.125 L 7.371094 15.078125 C 6.296875 14.792969 5.320312 14.230469 4.542969 13.453125 L 4.417969 13.328125 L 2.46875 13.886719 L 1.503906 12.214844 L 2.96875 10.796875 L 2.921875 10.628906 C 2.773438 10.082031 2.699219 9.53125 2.699219 9 C 2.699219 8.46875 2.773438 7.917969 2.921875 7.371094 L 2.964844 7.203125 L 1.503906 5.785156 L 2.46875 4.113281 L 4.417969 4.671875 L 4.542969 4.546875 C 5.320312 3.769531 6.296875 3.207031 7.371094 2.921875 L 7.539062 2.875 L 8.035156 0.898438 L 9.964844 0.898438 L 10.460938 2.875 L 10.628906 2.921875 C 11.703125 3.207031 12.679688 3.769531 13.457031 4.546875 L 13.582031 4.671875 L 15.53125 4.113281 L 16.496094 5.785156 L 15.035156 7.203125 L 15.078125 7.371094 C 15.226562 7.917969 15.300781 8.46875 15.300781 9 C 15.300781 9.53125 15.226562 10.082031 15.078125 10.628906 L 15.035156 10.796875 L 16.496094 12.214844 L 15.53125 13.886719 L 13.582031 13.328125 L 13.457031 13.453125 C 12.679688 14.230469 11.703125 14.792969 10.628906 15.078125 L 10.460938 15.125 L 9.964844 17.101562 Z M 9 5.398438 C 7.015625 5.398438 5.398438 7.015625 5.398438 9 C 5.398438 10.984375 7.015625 12.601562 9 12.601562 C 10.984375 12.601562 12.601562 10.984375 12.601562 9 C 12.601562 7.015625 10.984375 5.398438 9 5.398438 Z M 9 5.398438 "/>
<path style=" stroke:none;fill-rule:nonzero;fill:rgb(54.509807%,45.882353%,63.137257%);fill-opacity:1;" d="M 9.730469 1.199219 L 10.210938 3.121094 L 10.554688 3.210938 C 11.574219 3.484375 12.503906 4.019531 13.242188 4.757812 L 13.492188 5.007812 L 13.832031 4.910156 L 15.390625 4.464844 L 16.121094 5.734375 L 14.953125 6.863281 L 14.699219 7.109375 L 14.789062 7.449219 C 14.929688 7.972656 15 8.492188 15 9 C 15 9.507812 14.929688 10.027344 14.789062 10.550781 L 14.699219 10.890625 L 14.953125 11.136719 L 16.121094 12.265625 L 15.390625 13.535156 L 13.832031 13.089844 L 13.492188 12.992188 L 13.246094 13.242188 C 12.503906 13.980469 11.574219 14.515625 10.554688 14.789062 L 10.210938 14.878906 L 9.730469 16.800781 L 8.269531 16.800781 L 7.789062 14.878906 L 7.445312 14.789062 C 6.425781 14.515625 5.496094 13.980469 4.753906 13.242188 L 4.507812 12.992188 L 4.167969 13.089844 L 2.609375 13.535156 L 1.878906 12.265625 L 3.046875 11.136719 L 3.300781 10.890625 L 3.210938 10.550781 C 3.070312 10.027344 3 9.507812 3 9 C 3 8.492188 3.070312 7.972656 3.210938 7.449219 L 3.300781 7.109375 L 3.046875 6.863281 L 1.878906 5.734375 L 2.609375 4.464844 L 4.167969 4.910156 L 4.507812 5.007812 L 4.753906 4.757812 C 5.496094 4.019531 6.425781 3.484375 7.445312 3.210938 L 7.789062 3.121094 L 8.269531 1.199219 L 9.730469 1.199219 M 9 12.898438 C 11.152344 12.898438 12.898438 11.152344 12.898438 9 C 12.898438 6.847656 11.152344 5.101562 9 5.101562 C 6.847656 5.101562 5.101562 6.847656 5.101562 9 C 5.101562 11.152344 6.847656 12.898438 9 12.898438 M 10.199219 0.601562 L 7.800781 0.601562 L 7.292969 2.632812 C 6.15625 2.933594 5.140625 3.527344 4.332031 4.335938 L 2.324219 3.761719 L 1.125 5.839844 L 2.632812 7.292969 C 2.484375 7.839844 2.398438 8.410156 2.398438 9 C 2.398438 9.589844 2.484375 10.160156 2.628906 10.707031 L 1.125 12.160156 L 2.324219 14.238281 L 4.332031 13.664062 C 5.136719 14.472656 6.15625 15.066406 7.292969 15.367188 L 7.800781 17.398438 L 10.199219 17.398438 L 10.707031 15.367188 C 11.84375 15.066406 12.863281 14.472656 13.667969 13.664062 L 15.675781 14.238281 L 16.875 12.160156 L 15.367188 10.707031 C 15.515625 10.160156 15.601562 9.589844 15.601562 9 C 15.601562 8.410156 15.515625 7.839844 15.371094 7.292969 L 16.875 5.839844 L 15.675781 3.761719 L 13.667969 4.335938 C 12.863281 3.527344 11.84375 2.9375 10.707031 2.632812 Z M 9 12.300781 C 7.175781 12.300781 5.699219 10.824219 5.699219 9 C 5.699219 7.175781 7.175781 5.699219 9 5.699219 C 10.824219 5.699219 12.300781 7.175781 12.300781 9 C 12.300781 10.824219 10.824219 12.300781 9 12.300781 Z M 9 12.300781 "/>
<path style=" stroke:none;fill-rule:nonzero;fill:rgb(93.333334%,92.156863%,96.862745%);fill-opacity:1;" d="M 9 13.5 C 6.519531 13.5 4.5 11.480469 4.5 9 C 4.5 6.519531 6.519531 4.5 9 4.5 C 11.480469 4.5 13.5 6.519531 13.5 9 C 13.5 11.480469 11.480469 13.5 9 13.5 Z M 9 6.898438 C 7.84375 6.898438 6.898438 7.84375 6.898438 9 C 6.898438 10.15625 7.84375 11.101562 9 11.101562 C 10.15625 11.101562 11.101562 10.15625 11.101562 9 C 11.101562 7.84375 10.15625 6.898438 9 6.898438 Z M 9 6.898438 "/>
<path style=" stroke:none;fill-rule:nonzero;fill:rgb(54.509807%,45.882353%,63.137257%);fill-opacity:1;" d="M 9 4.800781 C 11.316406 4.800781 13.199219 6.683594 13.199219 9 C 13.199219 11.316406 11.316406 13.199219 9 13.199219 C 6.683594 13.199219 4.800781 11.316406 4.800781 9 C 4.800781 6.683594 6.683594 4.800781 9 4.800781 M 9 11.398438 C 10.324219 11.398438 11.398438 10.324219 11.398438 9 C 11.398438 7.675781 10.324219 6.601562 9 6.601562 C 7.675781 6.601562 6.601562 7.675781 6.601562 9 C 6.601562 10.324219 7.675781 11.398438 9 11.398438 M 9 4.199219 C 6.347656 4.199219 4.199219 6.347656 4.199219 9 C 4.199219 11.652344 6.347656 13.800781 9 13.800781 C 11.652344 13.800781 13.800781 11.652344 13.800781 9 C 13.800781 6.347656 11.652344 4.199219 9 4.199219 Z M 9 10.800781 C 8.003906 10.800781 7.199219 9.996094 7.199219 9 C 7.199219 8.003906 8.003906 7.199219 9 7.199219 C 9.996094 7.199219 10.800781 8.003906 10.800781 9 C 10.800781 9.996094 9.996094 10.800781 9 10.800781 Z M 9 10.800781 "/>
</g>
</g>
</g>
</svg>
