<svg version="1.1" id="Layer_1" xmlns="http://www.w3.org/2000/svg" xmlns:xlink="http://www.w3.org/1999/xlink" x="0px" y="0px"
	 width="100%" viewBox="0 0 180 180" enable-background="new 0 0 180 180" xml:space="preserve">
<path fill="#000000" opacity="1.000000" stroke="none" 
	d="
M97.000000,181.000000 
	C64.688789,181.000000 32.877575,181.000000 1.033180,181.000000 
	C1.033180,121.063828 1.033180,61.127632 1.033180,1.095719 
	C60.894360,1.095719 120.788925,1.095719 180.841736,1.095719 
	C180.841736,60.999668 180.841736,120.999794 180.841736,181.000000 
	C153.127960,181.000000 125.313980,181.000000 97.000000,181.000000 
M124.243088,25.931900 
	C121.872078,25.354971 119.503471,24.288328 117.129677,24.276659 
	C92.631271,24.156206 68.131889,24.164433 43.633091,24.238598 
	C37.636761,24.256750 36.018372,26.059328 36.017395,31.990667 
	C36.010876,71.489090 36.011169,110.987511 36.017090,150.485931 
	C36.018066,156.999908 36.968166,157.972488 43.521828,157.975647 
	C75.853859,157.991211 108.185913,157.991364 140.517944,157.975601 
	C146.779800,157.972549 147.978821,156.740326 147.981323,150.369476 
	C147.993637,119.037392 148.074036,87.704651 147.836594,56.374371 
	C147.815460,53.588036 146.270370,50.323471 144.424377,48.129879 
	C138.148697,40.672520 131.420639,33.595863 124.243088,25.931900 
z"/>
<path fill="#787878" opacity="1.000000" stroke="none" 
	d="
M124.554207,26.152866 
	C131.420639,33.595863 138.148697,40.672520 144.424377,48.129879 
	C146.270370,50.323471 147.815460,53.588036 147.836594,56.374371 
	C148.074036,87.704651 147.993637,119.037392 147.981323,150.369476 
	C147.978821,156.740326 146.779800,157.972549 140.517944,157.975601 
	C108.185913,157.991364 75.853859,157.991211 43.521828,157.975647 
	C36.968166,157.972488 36.018066,156.999908 36.017090,150.485931 
	C36.011169,110.987511 36.010876,71.489090 36.017395,31.990667 
	C36.018372,26.059328 37.636761,24.256750 43.633091,24.238598 
	C68.131889,24.164433 92.631271,24.156206 117.129677,24.276659 
	C119.503471,24.288328 121.872078,25.354971 124.554207,26.152866 
M142.962357,54.327198 
	C136.775925,47.396755 130.449280,40.584324 124.469597,33.479870 
	C121.951347,30.487928 119.181374,29.482750 115.394936,29.502630 
	C92.395630,29.623396 69.395370,29.558102 46.395443,29.573154 
	C44.768826,29.574219 43.142303,29.721291 41.318687,29.810062 
	C41.318687,70.991516 41.318687,111.857079 41.318687,152.593811 
	C75.419403,152.593811 109.139282,152.593811 143.026550,152.593811 
	C143.026550,119.842682 143.026550,87.513939 142.962357,54.327198 
z"/>
<path fill="#FEFEFE" opacity="1.000000" stroke="none" 
	d="
M142.994446,54.756203 
	C143.026550,87.513939 143.026550,119.842682 143.026550,152.593811 
	C109.139282,152.593811 75.419403,152.593811 41.318687,152.593811 
	C41.318687,111.857079 41.318687,70.991516 41.318687,29.810062 
	C43.142303,29.721291 44.768826,29.574219 46.395443,29.573154 
	C69.395370,29.558102 92.395630,29.623396 115.394936,29.502630 
	C119.181374,29.482750 121.951347,30.487928 124.469597,33.479870 
	C130.449280,40.584324 136.775925,47.396755 142.994446,54.756203 
M103.494637,107.759293 
	C108.597137,107.759293 113.699646,107.759293 119.206055,107.759293 
	C119.076157,105.484749 118.987503,103.932472 118.879906,102.048454 
	C106.657158,102.048454 94.869499,102.022446 83.082085,102.064598 
	C79.628006,102.076950 76.601227,102.136856 73.977592,98.789230 
	C71.322426,95.401352 65.932442,95.912170 62.817585,98.911850 
	C59.471737,102.133965 59.254009,107.171089 62.316921,110.494514 
	C65.179962,113.601067 70.908806,114.558487 73.499382,111.377739 
	C76.682220,107.469795 80.439987,107.710320 84.532402,107.745903 
	C90.520142,107.797966 96.508667,107.759277 103.494637,107.759293 
M68.465919,92.341187 
	C70.295242,91.664925 72.849213,91.519417 73.810287,90.207230 
	C76.159325,87.000000 79.088882,86.875565 82.515831,86.910988 
	C93.846542,87.028107 105.179352,86.954453 116.511238,86.916862 
	C117.278702,86.914322 118.045158,86.604080 119.070183,86.380699 
	C118.937363,84.751854 118.822403,83.342125 118.677544,81.565659 
	C105.854622,81.565659 93.371536,81.654236 80.892418,81.471657 
	C78.986061,81.443771 76.473465,80.697533 75.323578,79.355904 
	C72.371140,75.911156 68.982422,75.098679 65.087082,76.654465 
	C61.493408,78.089767 59.614746,81.166695 60.105057,85.015091 
	C60.641808,89.227989 63.159332,91.913704 68.465919,92.341187 
M75.155563,58.590347 
	C70.573349,54.086594 65.946022,53.827785 62.277580,57.870064 
	C59.120689,61.348675 59.291840,66.227272 62.683414,69.438271 
	C66.515076,73.065926 71.184799,72.416214 75.334152,68.124664 
	C76.483330,66.936111 78.596497,66.118660 80.279892,66.096832 
	C93.036766,65.931450 105.796761,66.006416 118.789825,66.006416 
	C118.789825,64.183189 118.789825,62.799175 118.789825,60.959644 
	C105.972252,60.959644 93.380356,61.026318 80.790901,60.880875 
	C79.089928,60.861217 77.401268,59.775860 75.155563,58.590347 
M71.392296,117.930695 
	C66.887932,116.060219 63.636108,117.924866 61.253815,121.616463 
	C58.938114,125.204872 59.718197,128.710251 62.652687,131.525925 
	C65.781860,134.528397 70.258148,135.485397 72.917953,132.228210 
	C76.938934,127.304138 81.788277,128.162079 86.754807,128.147705 
	C97.343620,128.117065 107.932579,128.138321 118.678452,128.138321 
	C118.678452,126.177269 118.678452,124.807442 118.678452,123.008690 
	C107.921082,123.008690 97.478737,122.812569 87.048752,123.086708 
	C81.346336,123.236603 75.933479,123.358681 71.392296,117.930695 
z"/>
<path fill="#61AA67" opacity="1.000000" stroke="none" 
	d="
M102.995743,107.759277 
	C96.508667,107.759277 90.520142,107.797966 84.532402,107.745903 
	C80.439987,107.710320 76.682220,107.469795 73.499382,111.377739 
	C70.908806,114.558487 65.179962,113.601067 62.316921,110.494514 
	C59.254009,107.171089 59.471737,102.133965 62.817585,98.911850 
	C65.932442,95.912170 71.322426,95.401352 73.977592,98.789230 
	C76.601227,102.136856 79.628006,102.076950 83.082085,102.064598 
	C94.869499,102.022446 106.657158,102.048454 118.879906,102.048454 
	C118.987503,103.932472 119.076157,105.484749 119.206055,107.759293 
	C113.699646,107.759293 108.597137,107.759293 102.995743,107.759277 
M66.479729,103.248009 
	C65.266968,105.720863 65.756920,107.663841 68.683495,107.766350 
	C69.667984,107.800835 71.665215,105.907829 71.555382,105.127090 
	C71.228851,102.806038 69.802078,101.158730 66.479729,103.248009 
z"/>
<path fill="#5389EB" opacity="1.000000" stroke="none" 
	d="
M68.049095,92.337090 
	C63.159332,91.913704 60.641808,89.227989 60.105057,85.015091 
	C59.614746,81.166695 61.493408,78.089767 65.087082,76.654465 
	C68.982422,75.098679 72.371140,75.911156 75.323578,79.355904 
	C76.473465,80.697533 78.986061,81.443771 80.892418,81.471657 
	C93.371536,81.654236 105.854622,81.565659 118.677544,81.565659 
	C118.822403,83.342125 118.937363,84.751854 119.070183,86.380699 
	C118.045158,86.604080 117.278702,86.914322 116.511238,86.916862 
	C105.179352,86.954453 93.846542,87.028107 82.515831,86.910988 
	C79.088882,86.875565 76.159325,87.000000 73.810287,90.207230 
	C72.849213,91.519417 70.295242,91.664925 68.049095,92.337090 
M69.490723,86.961304 
	C71.806221,85.442924 72.072495,83.504486 69.855042,81.959869 
	C69.119263,81.447334 66.632278,82.009041 66.185555,82.789337 
	C64.806557,85.197983 65.893600,86.796379 69.490723,86.961304 
z"/>
<path fill="#D95343" opacity="1.000000" stroke="none" 
	d="
M75.431229,58.887161 
	C77.401268,59.775860 79.089928,60.861217 80.790901,60.880875 
	C93.380356,61.026318 105.972252,60.959644 118.789825,60.959644 
	C118.789825,62.799175 118.789825,64.183189 118.789825,66.006416 
	C105.796761,66.006416 93.036766,65.931450 80.279892,66.096832 
	C78.596497,66.118660 76.483330,66.936111 75.334152,68.124664 
	C71.184799,72.416214 66.515076,73.065926 62.683414,69.438271 
	C59.291840,66.227272 59.120689,61.348675 62.277580,57.870064 
	C65.946022,53.827785 70.573349,54.086594 75.431229,58.887161 
M65.855888,62.187588 
	C65.046120,64.889435 66.179222,66.552429 68.848030,66.246620 
	C69.754684,66.142723 71.266441,63.812065 71.049011,62.816055 
	C70.401443,59.849556 68.289619,60.195103 65.855888,62.187588 
z"/>
<path fill="#F2BE45" opacity="1.000000" stroke="none" 
	d="
M71.764130,118.036850 
	C75.933479,123.358681 81.346336,123.236603 87.048752,123.086708 
	C97.478737,122.812569 107.921082,123.008690 118.678452,123.008690 
	C118.678452,124.807442 118.678452,126.177269 118.678452,128.138321 
	C107.932579,128.138321 97.343620,128.117065 86.754807,128.147705 
	C81.788277,128.162079 76.938934,127.304138 72.917953,132.228210 
	C70.258148,135.485397 65.781860,134.528397 62.652687,131.525925 
	C59.718197,128.710251 58.938114,125.204872 61.253815,121.616463 
	C63.636108,117.924866 66.887932,116.060219 71.764130,118.036850 
M65.911545,124.399796 
	C66.562889,125.823311 67.127556,127.304420 67.983299,128.592102 
	C68.082130,128.740814 70.323952,128.045441 70.640282,127.329597 
	C71.082253,126.329422 70.951004,124.029900 70.530922,123.889984 
	C69.244934,123.461678 67.703880,123.799232 65.911545,124.399796 
z"/>
<path fill="#F7F9F7" opacity="1.000000" stroke="none" 
	d="
M66.761902,102.988602 
	C69.802078,101.158730 71.228851,102.806038 71.555382,105.127090 
	C71.665215,105.907829 69.667984,107.800835 68.683495,107.766350 
	C65.756920,107.663841 65.266968,105.720863 66.761902,102.988602 
z"/>
<path fill="#EEF3FB" opacity="1.000000" stroke="none" 
	d="
M69.107269,87.002083 
	C65.893600,86.796379 64.806557,85.197983 66.185555,82.789337 
	C66.632278,82.009041 69.119263,81.447334 69.855042,81.959869 
	C72.072495,83.504486 71.806221,85.442924 69.107269,87.002083 
z"/>
<path fill="#F8EBEA" opacity="1.000000" stroke="none" 
	d="
M66.025574,61.894417 
	C68.289619,60.195103 70.401443,59.849556 71.049011,62.816055 
	C71.266441,63.812065 69.754684,66.142723 68.848030,66.246620 
	C66.179222,66.552429 65.046120,64.889435 66.025574,61.894417 
z"/>
<path fill="#FBF6E9" opacity="1.000000" stroke="none" 
	d="
M66.086792,124.119354 
	C67.703880,123.799232 69.244934,123.461678 70.530922,123.889984 
	C70.951004,124.029900 71.082253,126.329422 70.640282,127.329597 
	C70.323952,128.045441 68.082130,128.740814 67.983299,128.592102 
	C67.127556,127.304420 66.562889,125.823311 66.086792,124.119354 
z"/>
</svg>