<?xml version="1.0" encoding="UTF-8"?>
<svg xmlns="http://www.w3.org/2000/svg" xmlns:xlink="http://www.w3.org/1999/xlink" width="32" height="32" viewBox="0 0 32 32" version="1.1">
<g transform="scale(1.33333333)">
<g id="surface458">
<path style=" stroke:none;fill-rule:nonzero;fill:rgb(54.509807%,71.764708%,94.117647%);fill-opacity:1;" d="M 12 13.976562 L 4.800781 21.175781 L 2.824219 19.199219 L 10.023438 12 L 2.824219 4.800781 L 4.800781 2.824219 L 12 10.023438 L 19.199219 2.824219 L 21.175781 4.800781 L 13.976562 12 L 21.175781 19.199219 L 19.199219 21.175781 Z M 12 13.976562 "/>
<path style=" stroke:none;fill-rule:nonzero;fill:rgb(30.588236%,47.843137%,70.980394%);fill-opacity:1;" d="M 19.199219 3.25 L 20.75 4.800781 L 13.550781 12 L 20.75 19.199219 L 19.199219 20.75 L 12 13.550781 L 4.800781 20.75 L 3.25 19.199219 L 10.449219 12 L 3.25 4.800781 L 4.800781 3.25 L 12 10.449219 L 19.199219 3.25 M 19.199219 2.398438 L 12 9.601562 L 4.800781 2.398438 L 2.398438 4.800781 L 9.601562 12 L 2.398438 19.199219 L 4.800781 21.601562 L 12 14.398438 L 19.199219 21.601562 L 21.601562 19.199219 L 14.398438 12 L 21.601562 4.800781 Z M 19.199219 2.398438 "/>
</g>
</g>
</svg>
