<?xml version="1.0" encoding="UTF-8"?>
<svg xmlns="http://www.w3.org/2000/svg" xmlns:xlink="http://www.w3.org/1999/xlink" width="32" height="32" viewBox="0 0 32 32" version="1.1">
<g transform="scale(1.33333333)">
<g id="surface510">
<path style=" stroke:none;fill-rule:nonzero;fill:rgb(100%,100%,100%);fill-opacity:1;" d="M 1.5 21.898438 L 1.5 2.101562 L 22.5 2.101562 L 22.5 21.601562 C 22.5 21.765625 22.367188 21.898438 22.199219 21.898438 Z M 1.5 21.898438 "/>
<path style=" stroke:none;fill-rule:nonzero;fill:rgb(47.058824%,54.509807%,61.176473%);fill-opacity:1;" d="M 22.199219 2.398438 L 22.199219 21.601562 L 1.800781 21.601562 L 1.800781 2.398438 L 22.199219 2.398438 M 22.800781 1.800781 L 1.199219 1.800781 L 1.199219 22.199219 L 22.199219 22.199219 C 22.53125 22.199219 22.800781 21.929688 22.800781 21.601562 Z M 22.800781 1.800781 "/>
<path style=" stroke:none;fill-rule:nonzero;fill:rgb(47.058824%,54.509807%,61.176473%);fill-opacity:1;" d="M 1.199219 1.800781 L 22.800781 1.800781 L 22.800781 5.398438 L 1.199219 5.398438 Z M 1.199219 1.800781 "/>
<path style="fill:none;stroke-width:1;stroke-linecap:butt;stroke-linejoin:miter;stroke:rgb(54.509807%,71.764708%,94.117647%);stroke-opacity:1;stroke-miterlimit:10;" d="M 13.001302 16.497396 L 31.002604 16.497396 M 8.997396 16.497396 L 10 16.497396 M 13.001302 20.501302 L 31.002604 20.501302 M 8.997396 20.501302 L 10 20.501302 M 13.001302 24.498698 L 31.002604 24.498698 M 8.997396 24.498698 L 10 24.498698 M 13.001302 28.502604 L 31.002604 28.502604 M 8.997396 28.502604 L 10 28.502604 " transform="matrix(0.6,0,0,0.6,0,0)"/>
<path style=" stroke:none;fill-rule:nonzero;fill:rgb(76.078433%,90.980393%,100%);fill-opacity:1;" d="M 12.601562 16.800781 L 14.398438 16.800781 L 14.398438 17.398438 L 12.601562 17.398438 Z M 12.601562 14.398438 L 13.800781 14.398438 L 13.800781 15 L 12.601562 15 Z M 15.601562 12 L 17.398438 12 L 17.398438 12.601562 L 15.601562 12.601562 Z M 15.601562 12 "/>
<path style=" stroke:none;fill-rule:nonzero;fill:rgb(86.274511%,83.529413%,94.901961%);fill-opacity:1;" d="M 15.601562 23.699219 C 15.105469 23.699219 14.699219 23.296875 14.699219 22.800781 L 14.699219 15.300781 L 14.101562 15.300781 L 14.101562 14.398438 C 14.101562 14.234375 14.234375 14.101562 14.398438 14.101562 L 23.398438 14.101562 C 23.566406 14.101562 23.699219 14.234375 23.699219 14.398438 L 23.699219 15.300781 L 23.101562 15.300781 L 23.101562 22.800781 C 23.101562 23.296875 22.695312 23.699219 22.199219 23.699219 Z M 15.601562 23.699219 "/>
<path style=" stroke:none;fill-rule:nonzero;fill:rgb(54.509807%,45.882353%,63.137257%);fill-opacity:1;" d="M 23.398438 14.398438 L 23.398438 15 L 22.800781 15 L 22.800781 22.800781 C 22.800781 23.128906 22.53125 23.398438 22.199219 23.398438 L 15.601562 23.398438 C 15.269531 23.398438 15 23.128906 15 22.800781 L 15 15 L 14.398438 15 L 14.398438 14.398438 L 23.398438 14.398438 M 23.398438 13.800781 L 14.398438 13.800781 C 14.070312 13.800781 13.800781 14.070312 13.800781 14.398438 L 13.800781 15.601562 L 14.398438 15.601562 L 14.398438 22.800781 C 14.398438 23.464844 14.9375 24 15.601562 24 L 22.199219 24 C 22.863281 24 23.398438 23.464844 23.398438 22.800781 L 23.398438 15.601562 L 24 15.601562 L 24 14.398438 C 24 14.070312 23.730469 13.800781 23.398438 13.800781 Z M 23.398438 13.800781 "/>
<path style=" stroke:none;fill-rule:nonzero;fill:rgb(54.509807%,45.882353%,63.137257%);fill-opacity:1;" d="M 14.398438 15 L 23.398438 15 L 23.398438 15.601562 L 14.398438 15.601562 Z M 18.601562 17.398438 L 19.199219 17.398438 L 19.199219 21.601562 L 18.601562 21.601562 Z M 16.199219 17.398438 L 16.800781 17.398438 L 16.800781 21.601562 L 16.199219 21.601562 Z M 21 17.398438 L 21.601562 17.398438 L 21.601562 21.601562 L 21 21.601562 Z M 21 17.398438 "/>
<path style="fill:none;stroke-width:1;stroke-linecap:butt;stroke-linejoin:miter;stroke:rgb(54.509807%,45.882353%,63.137257%);stroke-opacity:1;stroke-miterlimit:10;" d="M 28.502604 23.502604 L 28.502604 21.497396 C 28.502604 20.950521 28.945312 20.501302 29.498698 20.501302 L 33.502604 20.501302 C 34.049479 20.501302 34.498698 20.950521 34.498698 21.497396 L 34.498698 23.502604 Z M 28.502604 23.502604 " transform="matrix(0.6,0,0,0.6,0,0)"/>
<path style=" stroke:none;fill-rule:nonzero;fill:rgb(78.431374%,81.960785%,85.882354%);fill-opacity:1;" d="M 22.199219 12.601562 L 22.800781 12.601562 L 22.800781 13.800781 L 22.199219 13.800781 Z M 12.601562 21.601562 L 14.398438 21.601562 L 14.398438 22.199219 L 12.601562 22.199219 Z M 12.601562 21.601562 "/>
</g>
</g>
</svg>
