<?xml version="1.0" encoding="UTF-8"?>
<svg xmlns="http://www.w3.org/2000/svg" xmlns:xlink="http://www.w3.org/1999/xlink" width="32" height="32" viewBox="0 0 32 32" version="1.1">
<g transform="scale(1.33333333)">
<g id="surface540">
<path style=" stroke:none;fill-rule:nonzero;fill:rgb(100%,100%,100%);fill-opacity:1;" d="M 2.101562 22.5 L 2.101562 1.5 L 13.074219 1.5 L 18.300781 6.722656 L 18.300781 22.5 Z M 2.101562 22.5 "/>
<path style=" stroke:none;fill-rule:nonzero;fill:rgb(47.058824%,54.509807%,61.176473%);fill-opacity:1;" d="M 12.953125 1.800781 L 18 6.847656 L 18 22.199219 L 2.398438 22.199219 L 2.398438 1.800781 L 12.953125 1.800781 M 13.199219 1.199219 L 1.800781 1.199219 L 1.800781 22.800781 L 18.601562 22.800781 L 18.601562 6.601562 Z M 13.199219 1.199219 "/>
<path style=" stroke:none;fill-rule:nonzero;fill:rgb(100%,100%,100%);fill-opacity:1;" d="M 12.898438 6.898438 L 12.898438 1.5 L 13.074219 1.5 L 18.300781 6.722656 L 18.300781 6.898438 Z M 12.898438 6.898438 "/>
<path style=" stroke:none;fill-rule:nonzero;fill:rgb(47.058824%,54.509807%,61.176473%);fill-opacity:1;" d="M 13.199219 2.046875 L 17.75 6.601562 L 13.199219 6.601562 L 13.199219 2.046875 M 13.199219 1.199219 L 12.601562 1.199219 L 12.601562 7.199219 L 18.601562 7.199219 L 18.601562 6.601562 Z M 13.199219 1.199219 "/>
<path style=" stroke:none;fill-rule:nonzero;fill:rgb(83.92157%,89.019608%,92.941177%);fill-opacity:1;" d="M 18 12 L 18 22.199219 L 16.566406 22.199219 L 17.039062 22.800781 L 18.601562 22.800781 L 18.601562 12 Z M 18 12 "/>
<path style=" stroke:none;fill-rule:nonzero;fill:rgb(61.176473%,67.450982%,74.117649%);fill-opacity:1;" d="M 15.023438 18.300781 L 17.699219 18.300781 L 17.699219 13.5 L 20.699219 13.5 L 20.699219 18.300781 L 23.375 18.300781 L 19.199219 23.519531 Z M 15.023438 18.300781 "/>
<path style=" stroke:none;fill-rule:nonzero;fill:rgb(21.176471%,25.098041%,30.19608%);fill-opacity:1;" d="M 20.398438 13.800781 L 20.398438 18.601562 L 22.75 18.601562 L 19.199219 23.039062 L 15.648438 18.601562 L 18 18.601562 L 18 13.800781 L 20.398438 13.800781 M 21 13.199219 L 17.398438 13.199219 L 17.398438 18 L 14.398438 18 L 19.199219 24 L 24 18 L 21 18 Z M 21 13.199219 "/>
<path style="fill:none;stroke-width:1;stroke-linecap:butt;stroke-linejoin:miter;stroke:rgb(78.039217%,26.274511%,26.274511%);stroke-opacity:1;stroke-miterlimit:10;" d="M 25.501302 24.238281 C 25.501302 21.191406 7.5 25.481771 7.5 28.203125 C 7.5 29.36849 8.411458 29.498698 8.697917 29.498698 C 12.473958 29.498698 20.00651 11.497396 14.609375 11.497396 C 11.542969 11.497396 19.505208 25.644531 23.90625 25.644531 C 25.00651 25.644531 25.501302 25.071615 25.501302 24.238281 Z M 25.501302 24.238281 " transform="matrix(0.6,0,0,0.6,0,0)"/>
</g>
</g>
</svg>
