<?xml version="1.0" encoding="UTF-8"?>
<svg xmlns="http://www.w3.org/2000/svg" xmlns:xlink="http://www.w3.org/1999/xlink" width="32" height="32" viewBox="0 0 32 32" version="1.1">
<g transform="scale(1.33333333)">
<g id="surface676">
<path style="fill:none;stroke-width:2;stroke-linecap:butt;stroke-linejoin:miter;stroke:rgb(40.000001%,47.450981%,56.078434%);stroke-opacity:1;stroke-miterlimit:10;" d="M 29.84375 10.247396 C 29.016927 5.559896 24.928385 1.998698 20 1.998698 C 14.479167 1.998698 10 6.477865 10 11.998698 C 10 12.408854 10 17.714844 10 17.714844 " transform="matrix(0.6,0,0,0.6,0,0)"/>
<path style=" stroke:none;fill-rule:nonzero;fill:rgb(96.078432%,80.784315%,52.156866%);fill-opacity:1;" d="M 1.5 22.5 L 1.5 11.398438 C 1.5 10.242188 2.441406 9.300781 3.601562 9.300781 L 20.398438 9.300781 C 21.558594 9.300781 22.5 10.242188 22.5 11.398438 L 22.5 22.5 Z M 1.5 22.5 "/>
<path style=" stroke:none;fill-rule:nonzero;fill:rgb(58.823532%,47.843137%,26.666668%);fill-opacity:1;" d="M 20.398438 9.601562 C 21.390625 9.601562 22.199219 10.40625 22.199219 11.398438 L 22.199219 22.199219 L 1.800781 22.199219 L 1.800781 11.398438 C 1.800781 10.40625 2.609375 9.601562 3.601562 9.601562 L 20.398438 9.601562 M 20.398438 9 L 3.601562 9 C 2.273438 9 1.199219 10.074219 1.199219 11.398438 L 1.199219 22.800781 L 22.800781 22.800781 L 22.800781 11.398438 C 22.800781 10.074219 21.726562 9 20.398438 9 Z M 20.398438 9 "/>
<path style=" stroke:none;fill-rule:nonzero;fill:rgb(100%,93.333334%,63.921571%);fill-opacity:1;" d="M 1.800781 18.601562 L 22.199219 18.601562 L 22.199219 20.398438 L 1.800781 20.398438 Z M 1.800781 15 L 22.199219 15 L 22.199219 16.800781 L 1.800781 16.800781 Z M 1.800781 11.398438 L 22.199219 11.398438 L 22.199219 13.199219 L 1.800781 13.199219 Z M 1.800781 11.398438 "/>
</g>
</g>
</svg>
