<?xml version="1.0" encoding="UTF-8"?>
<svg xmlns="http://www.w3.org/2000/svg" xmlns:xlink="http://www.w3.org/1999/xlink" width="32" height="32" viewBox="0 0 32 32" version="1.1">
<g transform="scale(1.33333333)">
<g id="surface586">
<path style=" stroke:none;fill-rule:nonzero;fill:rgb(100%,100%,100%);fill-opacity:1;" d="M 1.5 21.300781 L 1.5 1.5 L 22.5 1.5 L 22.5 18.566406 L 17.027344 21.300781 Z M 1.5 21.300781 "/>
<path style=" stroke:none;fill-rule:nonzero;fill:rgb(47.058824%,54.509807%,61.176473%);fill-opacity:1;" d="M 22.199219 1.800781 L 22.199219 18.378906 L 16.957031 21 L 1.800781 21 L 1.800781 1.800781 L 22.199219 1.800781 M 22.800781 1.199219 L 1.199219 1.199219 L 1.199219 21.601562 L 17.101562 21.601562 L 22.800781 18.75 Z M 22.800781 1.199219 "/>
<path style=" stroke:none;fill-rule:nonzero;fill:rgb(78.431374%,81.960785%,85.882354%);fill-opacity:1;" d="M 18.769531 21 L 12.601562 21 L 12.601562 21.601562 L 17.660156 21.601562 C 18.015625 21.40625 18.390625 21.207031 18.769531 21 Z M 22.800781 18.835938 L 22.800781 16.671875 L 22.199219 16.328125 L 22.199219 19.15625 C 22.40625 19.046875 22.605469 18.9375 22.800781 18.835938 Z M 22.800781 18.835938 "/>
<path style=" stroke:none;fill-rule:nonzero;fill:rgb(47.058824%,54.509807%,61.176473%);fill-opacity:1;" d="M 1.199219 1.199219 L 22.800781 1.199219 L 22.800781 4.800781 L 1.199219 4.800781 Z M 1.199219 1.199219 "/>
<path style="fill:none;stroke-width:1;stroke-linecap:butt;stroke-linejoin:miter;stroke:rgb(54.509807%,71.764708%,94.117647%);stroke-opacity:1;stroke-miterlimit:10;" d="M 13.001302 15.501302 L 31.002604 15.501302 M 8.997396 15.501302 L 10 15.501302 M 13.001302 19.498698 L 31.002604 19.498698 M 8.997396 19.498698 L 10 19.498698 M 13.001302 23.502604 L 31.002604 23.502604 M 8.997396 23.502604 L 10 23.502604 M 13.001302 27.5 L 31.002604 27.5 M 8.997396 27.5 L 10 27.5 " transform="matrix(0.6,0,0,0.6,0,0)"/>
<path style=" stroke:none;fill-rule:nonzero;fill:rgb(76.078433%,90.980393%,100%);fill-opacity:1;" d="M 12.601562 14.398438 L 18 14.398438 L 16.875 13.800781 L 12.601562 13.800781 Z M 12.601562 16.199219 L 18 16.199219 L 18 16.800781 L 12.601562 16.800781 Z M 12.601562 16.199219 "/>
<path style=" stroke:none;fill-rule:nonzero;fill:rgb(54.509807%,71.764708%,94.117647%);fill-opacity:1;" d="M 14.101562 13.699219 L 23.359375 18.601562 L 14.101562 23.5 Z M 14.101562 13.699219 "/>
<path style=" stroke:none;fill-rule:nonzero;fill:rgb(30.588236%,47.843137%,70.980394%);fill-opacity:1;" d="M 14.398438 14.195312 L 22.71875 18.601562 L 14.398438 23.003906 L 14.398438 14.195312 M 13.800781 13.199219 L 13.800781 24 L 24 18.601562 Z M 13.800781 13.199219 "/>
</g>
</g>
</svg>
