<svg xmlns="http://www.w3.org/2000/svg"  viewBox="0 0 30 30" width="30px" height="30px"><path fill="#e1ebf2" stroke="#66798f" stroke-miterlimit="10" d="M4.5,2.5h21c1.105,0,2,0.895,2,2v21c0,1.105-0.895,2-2,2h-21 c-1.105,0-2-0.895-2-2v-21C2.5,3.395,3.395,2.5,4.5,2.5z"/><path fill="#8bb7f0" d="M6,11.5c-0.275,0-0.5-0.225-0.5-0.5V6c0-0.275,0.225-0.5,0.5-0.5h5c0.275,0,0.5,0.225,0.5,0.5v5 c0,0.275-0.225,0.5-0.5,0.5H6z"/><path fill="#4e7ab5" d="M11,6v5H6V6H11 M11,5H6C5.448,5,5,5.448,5,6v5c0,0.552,0.448,1,1,1h5c0.552,0,1-0.448,1-1V6 C12,5.448,11.552,5,11,5L11,5z"/><path fill="#8bb7f0" d="M19,11.5c-0.275,0-0.5-0.225-0.5-0.5V6c0-0.275,0.225-0.5,0.5-0.5h5c0.275,0,0.5,0.225,0.5,0.5v5 c0,0.275-0.225,0.5-0.5,0.5H19z"/><path fill="#4e7ab5" d="M24,6v5h-5V6H24 M24,5h-5c-0.552,0-1,0.448-1,1v5c0,0.552,0.448,1,1,1h5c0.552,0,1-0.448,1-1V6 C25,5.448,24.552,5,24,5L24,5z"/><path fill="#8bb7f0" d="M6,24.5c-0.275,0-0.5-0.225-0.5-0.5v-5c0-0.275,0.225-0.5,0.5-0.5h5c0.275,0,0.5,0.225,0.5,0.5v5 c0,0.275-0.225,0.5-0.5,0.5H6z"/><path fill="#4e7ab5" d="M11,19v5H6v-5H11 M11,18H6c-0.552,0-1,0.448-1,1v5c0,0.552,0.448,1,1,1h5c0.552,0,1-0.448,1-1v-5 C12,18.448,11.552,18,11,18L11,18z"/><path fill="#8bb7f0" d="M19,24.5c-0.275,0-0.5-0.225-0.5-0.5v-5c0-0.275,0.225-0.5,0.5-0.5h5c0.275,0,0.5,0.225,0.5,0.5v5 c0,0.275-0.225,0.5-0.5,0.5H19z"/><path fill="#4e7ab5" d="M24,19v5h-5v-5H24 M24,18h-5c-0.552,0-1,0.448-1,1v5c0,0.552,0.448,1,1,1h5c0.552,0,1-0.448,1-1v-5 C25,18.448,24.552,18,24,18L24,18z"/><path fill="#8bb7f0" d="M11 8H14V9H11z"/><path fill="#4e7ab5" d="M14 8L11 8 11 9 14 9 14 8z"/><path fill="#8bb7f0" d="M15 8H16V9H15z"/><path fill="#4e7ab5" d="M16 8L15 8 15 9 16 9 16 8z"/><path fill="#8bb7f0" d="M17 8H19V9H17z"/><path fill="#4e7ab5" d="M19 8L17 8 17 9 19 9 19 8zM22 11L21 11 21 14 22 14 22 11z"/><path fill="#8bb7f0" d="M21 15H22V16H21z"/><path fill="#4e7ab5" d="M22 15L21 15 21 16 22 16 22 15z"/><g><path fill="#4e7ab5" d="M22 17L21 17 21 19 22 19 22 17z"/></g><g><path fill="#8bb7f0" d="M16 21H19V22H16z"/><path fill="#4e7ab5" d="M19 21L16 21 16 22 19 22 19 21z"/></g><g><path fill="#8bb7f0" d="M14 21H15V22H14z"/><path fill="#4e7ab5" d="M15 21L14 21 14 22 15 22 15 21z"/></g><g><path fill="#8bb7f0" d="M11 21H13V22H11z"/><path fill="#4e7ab5" d="M13 21L11 21 11 22 13 22 13 21z"/></g><g><path fill="#4e7ab5" d="M9 16L8 16 8 19 9 19 9 16z"/></g><g><path fill="#8bb7f0" d="M8 14H9V15H8z"/><path fill="#4e7ab5" d="M9 14L8 14 8 15 9 15 9 14z"/></g><g><path fill="#4e7ab5" d="M9 11L8 11 8 13 9 13 9 11z"/></g></svg>