<?xml version="1.0" encoding="UTF-8"?>
<svg xmlns="http://www.w3.org/2000/svg" xmlns:xlink="http://www.w3.org/1999/xlink" width="48" height="48" viewBox="0 0 48 48" version="1.1">
<g transform="scale(1.33333333)">
<g id="surface1691">
<path style=" stroke:none;fill-rule:nonzero;fill:rgb(96.078432%,80.784315%,52.156866%);fill-opacity:1;" d="M 1.171875 32.265625 L 2.476562 27.988281 L 13.003906 17.460938 L 12.644531 17.101562 C 12.238281 16.695312 12.015625 16.109375 12.015625 15.523438 C 12.015625 14.941406 12.238281 14.355469 12.644531 13.949219 L 13.453125 13.140625 L 13.453125 13.050781 C 13.410156 12.644531 13.410156 12.238281 13.410156 11.878906 C 13.410156 5.941406 18.226562 1.125 24.164062 1.125 C 24.253906 1.125 24.390625 1.125 24.480469 1.125 C 30.105469 1.261719 34.785156 5.984375 34.921875 11.566406 C 35.011719 14.488281 33.929688 17.28125 31.859375 19.394531 C 29.835938 21.511719 27.089844 22.636719 24.121094 22.636719 C 23.761719 22.636719 23.355469 22.636719 22.949219 22.589844 L 22.859375 22.589844 L 22.050781 23.355469 C 21.644531 23.761719 21.058594 23.984375 20.476562 23.984375 C 19.890625 23.984375 19.304688 23.761719 18.898438 23.355469 L 18.539062 22.996094 L 16.558594 24.976562 L 13.273438 24.976562 L 13.273438 28.261719 L 12.058594 29.476562 L 8.773438 29.476562 L 8.773438 32.761719 L 8.011719 33.523438 L 3.734375 34.828125 Z M 24.253906 5.175781 C 22.5 5.175781 20.878906 5.851562 19.621094 7.109375 L 19.441406 7.289062 L 28.710938 16.558594 L 28.890625 16.378906 C 31.453125 13.816406 31.453125 9.675781 28.890625 7.109375 C 27.675781 5.851562 26.011719 5.175781 24.253906 5.175781 Z M 24.253906 5.175781 "/>
<path style=" stroke:none;fill-rule:nonzero;fill:rgb(58.823532%,47.843137%,26.666668%);fill-opacity:1;" d="M 24.121094 1.351562 C 24.210938 1.351562 24.300781 1.351562 24.433594 1.351562 C 29.878906 1.484375 34.515625 6.121094 34.648438 11.609375 C 34.738281 14.488281 33.660156 17.191406 31.679688 19.261719 C 29.699219 21.328125 27 22.453125 24.121094 22.453125 C 23.761719 22.453125 23.398438 22.453125 22.996094 22.410156 L 22.769531 22.363281 L 22.589844 22.5 L 21.871094 23.21875 C 21.511719 23.578125 21.015625 23.804688 20.476562 23.804688 C 19.933594 23.804688 19.441406 23.578125 19.078125 23.21875 L 18.539062 22.679688 L 18.226562 22.996094 L 16.46875 24.75 L 13.050781 24.75 L 13.050781 28.171875 L 11.96875 29.25 L 8.550781 29.25 L 8.550781 32.671875 L 7.875 33.34375 L 3.78125 34.605469 L 1.394531 32.21875 L 2.65625 28.125 L 12.960938 17.820312 L 13.273438 17.503906 L 12.734375 16.964844 C 12.375 16.605469 12.148438 16.109375 12.148438 15.570312 C 12.148438 15.03125 12.375 14.535156 12.734375 14.175781 L 13.453125 13.453125 L 13.589844 13.320312 L 13.636719 13.050781 C 13.589844 12.644531 13.589844 12.285156 13.589844 11.925781 C 13.546875 6.074219 18.316406 1.351562 24.121094 1.351562 M 28.753906 16.828125 L 29.070312 16.515625 C 30.328125 15.253906 31.050781 13.546875 31.050781 11.746094 C 31.050781 9.945312 30.328125 8.234375 29.070312 6.976562 C 27.765625 5.671875 26.101562 4.949219 24.253906 4.949219 C 22.410156 4.949219 20.746094 5.671875 19.484375 6.929688 L 19.171875 7.246094 L 28.753906 16.828125 M 24.121094 0.898438 C 18.046875 0.898438 13.09375 5.804688 13.09375 11.878906 C 13.09375 12.285156 13.140625 12.691406 13.140625 13.050781 L 12.421875 13.769531 C 11.476562 14.714844 11.476562 16.289062 12.421875 17.234375 L 12.644531 17.460938 L 2.296875 27.855469 L 0.898438 32.355469 L 3.644531 35.101562 L 8.101562 33.75 L 9 32.851562 L 9 29.699219 L 12.148438 29.699219 L 13.5 28.351562 L 13.5 25.199219 L 16.648438 25.199219 L 18.539062 23.308594 L 18.765625 23.535156 C 19.261719 24.03125 19.84375 24.253906 20.476562 24.253906 C 21.105469 24.253906 21.734375 24.03125 22.183594 23.535156 L 22.90625 22.816406 C 23.308594 22.859375 23.671875 22.859375 24.074219 22.859375 C 30.238281 22.859375 35.234375 17.773438 35.054688 11.566406 C 34.921875 5.851562 30.148438 1.078125 24.433594 0.898438 C 24.300781 0.898438 24.210938 0.898438 24.121094 0.898438 Z M 28.753906 16.199219 L 19.800781 7.246094 C 21.015625 6.03125 22.636719 5.398438 24.253906 5.398438 C 25.875 5.398438 27.496094 6.03125 28.710938 7.246094 C 31.230469 9.71875 31.230469 13.726562 28.753906 16.199219 Z M 28.753906 16.199219 "/>
<path style=" stroke:none;fill-rule:nonzero;fill:rgb(85.882354%,69.01961%,39.607844%);fill-opacity:1;" d="M 4.890625 29.570312 L 14.914062 19.546875 L 15.234375 19.863281 L 5.210938 29.886719 Z M 4.890625 29.570312 "/>
<path style=" stroke:none;fill-rule:nonzero;fill:rgb(58.823532%,47.843137%,26.666668%);fill-opacity:1;" d="M 12.714844 17.460938 L 13.035156 17.140625 L 18.890625 22.996094 L 18.570312 23.316406 Z M 12.714844 17.460938 "/>
<path style=" stroke:none;fill-rule:nonzero;fill:rgb(72.941178%,87.843138%,74.117649%);fill-opacity:1;" d="M 27.898438 35.773438 C 23.578125 35.773438 20.023438 32.21875 20.023438 27.898438 C 20.023438 23.578125 23.578125 20.023438 27.898438 20.023438 C 32.21875 20.023438 35.773438 23.578125 35.773438 27.898438 C 35.773438 32.21875 32.21875 35.773438 27.898438 35.773438 Z M 27.898438 35.773438 "/>
<path style=" stroke:none;fill-rule:nonzero;fill:rgb(36.862746%,61.176473%,46.27451%);fill-opacity:1;" d="M 27.898438 20.25 C 32.128906 20.25 35.550781 23.671875 35.550781 27.898438 C 35.550781 32.128906 32.128906 35.550781 27.898438 35.550781 C 23.671875 35.550781 20.25 32.128906 20.25 27.898438 C 20.25 23.671875 23.671875 20.25 27.898438 20.25 M 27.898438 19.800781 C 23.445312 19.800781 19.800781 23.445312 19.800781 27.898438 C 19.800781 32.355469 23.445312 36 27.898438 36 C 32.355469 36 36 32.355469 36 27.898438 C 36 23.445312 32.355469 19.800781 27.898438 19.800781 Z M 27.898438 19.800781 "/>
<path style=" stroke:none;fill-rule:nonzero;fill:rgb(100%,100%,100%);fill-opacity:1;" d="M 27 23.398438 L 28.800781 23.398438 L 28.800781 32.398438 L 27 32.398438 Z M 27 23.398438 "/>
<path style=" stroke:none;fill-rule:nonzero;fill:rgb(100%,100%,100%);fill-opacity:1;" d="M 23.398438 27 L 32.398438 27 L 32.398438 28.800781 L 23.398438 28.800781 Z M 23.398438 27 "/>
</g>
</g>
</svg>
