<?xml version="1.0" encoding="UTF-8"?>
<svg xmlns="http://www.w3.org/2000/svg" xmlns:xlink="http://www.w3.org/1999/xlink" width="48" height="48" viewBox="0 0 48 48" version="1.1">
<g transform="scale(1.6)">
<g id="surface273">
<path style=" stroke:none;fill-rule:evenodd;fill:rgb(69.01961%,75.686276%,83.137256%);fill-opacity:1;" d="M 28.6875 17.4375 C 28.6875 16.992188 28.6875 14.136719 28.6875 13.6875 C 28.6875 12.859375 28.015625 12.1875 27.1875 12.1875 C 27.058594 12.1875 25.816406 12.1875 25.6875 12.1875 C 24.859375 12.1875 24.1875 12.859375 24.1875 13.6875 C 24.1875 14.136719 24.1875 16.992188 24.1875 17.4375 C 24.1875 18.265625 24.859375 18.9375 25.6875 18.9375 C 25.816406 18.9375 27.058594 18.9375 27.1875 18.9375 C 28.015625 18.9375 28.6875 18.265625 28.6875 17.4375 Z M 28.6875 17.4375 "/>
<path style=" stroke:none;fill-rule:evenodd;fill:rgb(40.000001%,47.450981%,56.078434%);fill-opacity:1;" d="M 24 17.4375 L 24 13.6875 C 24 12.757812 24.757812 12 25.6875 12 L 27.1875 12 C 28.121094 12 28.875 12.757812 28.875 13.6875 L 28.875 17.4375 C 28.875 18.371094 28.121094 19.125 27.1875 19.125 L 25.6875 19.125 C 24.753906 19.125 24 18.371094 24 17.4375 Z M 28.5 17.4375 L 28.5 13.6875 C 28.5 12.964844 27.910156 12.375 27.1875 12.375 L 25.6875 12.375 C 24.964844 12.375 24.375 12.964844 24.375 13.6875 L 24.375 17.4375 C 24.375 18.164062 24.964844 18.75 25.6875 18.75 L 27.1875 18.75 C 27.910156 18.75 28.5 18.164062 28.5 17.4375 Z M 28.5 17.4375 "/>
<path style=" stroke:none;fill-rule:evenodd;fill:rgb(69.01961%,75.686276%,83.137256%);fill-opacity:1;" d="M 5.4375 17.4375 C 5.4375 16.992188 5.4375 14.136719 5.4375 13.6875 C 5.4375 12.859375 4.765625 12.1875 3.9375 12.1875 C 3.808594 12.1875 2.566406 12.1875 2.4375 12.1875 C 1.609375 12.1875 0.9375 12.859375 0.9375 13.6875 C 0.9375 14.136719 0.9375 16.992188 0.9375 17.4375 C 0.9375 18.265625 1.609375 18.9375 2.4375 18.9375 C 2.566406 18.9375 3.808594 18.9375 3.9375 18.9375 C 4.765625 18.9375 5.4375 18.265625 5.4375 17.4375 Z M 5.4375 17.4375 "/>
<path style=" stroke:none;fill-rule:evenodd;fill:rgb(40.000001%,47.450981%,56.078434%);fill-opacity:1;" d="M 0.75 17.4375 L 0.75 13.6875 C 0.75 12.757812 1.503906 12 2.4375 12 L 3.9375 12 C 4.867188 12 5.625 12.757812 5.625 13.6875 L 5.625 17.4375 C 5.625 18.371094 4.867188 19.125 3.9375 19.125 L 2.4375 19.125 C 1.503906 19.125 0.75 18.371094 0.75 17.4375 Z M 5.25 17.4375 L 5.25 13.6875 C 5.25 12.964844 4.660156 12.375 3.9375 12.375 L 2.4375 12.375 C 1.714844 12.375 1.125 12.964844 1.125 13.6875 L 1.125 17.4375 C 1.125 18.164062 1.714844 18.75 2.4375 18.75 L 3.9375 18.75 C 4.660156 18.75 5.25 18.164062 5.25 17.4375 Z M 5.25 17.4375 "/>
<path style=" stroke:none;fill-rule:evenodd;fill:rgb(69.01961%,75.686276%,83.137256%);fill-opacity:1;" d="M 13.695312 2.8125 L 15.929688 2.8125 L 15.929688 8.8125 L 13.695312 8.8125 Z M 13.695312 2.8125 "/>
<path style=" stroke:none;fill-rule:evenodd;fill:rgb(40.000001%,47.450981%,56.078434%);fill-opacity:1;" d="M 13.507812 9 L 13.507812 2.625 L 16.117188 2.625 L 16.117188 9 Z M 15.742188 8.625 L 15.742188 3 L 13.882812 3 L 13.882812 8.625 Z M 15.742188 8.625 "/>
<path style=" stroke:none;fill-rule:evenodd;fill:rgb(69.01961%,75.686276%,83.137256%);fill-opacity:1;" d="M 16.6875 2.8125 C 16.6875 3.847656 15.847656 4.6875 14.8125 4.6875 C 13.777344 4.6875 12.9375 3.847656 12.9375 2.8125 C 12.9375 1.777344 13.777344 0.9375 14.8125 0.9375 C 15.847656 0.9375 16.6875 1.777344 16.6875 2.8125 Z M 16.6875 2.8125 "/>
<path style=" stroke:none;fill-rule:evenodd;fill:rgb(40.000001%,47.450981%,56.078434%);fill-opacity:1;" d="M 12.75 2.8125 C 12.75 1.675781 13.671875 0.75 14.8125 0.75 C 15.949219 0.75 16.875 1.675781 16.875 2.8125 C 16.875 3.953125 15.949219 4.875 14.8125 4.875 C 13.671875 4.875 12.75 3.953125 12.75 2.8125 Z M 16.5 2.8125 C 16.5 1.882812 15.742188 1.125 14.8125 1.125 C 13.878906 1.125 13.125 1.882812 13.125 2.8125 C 13.125 3.746094 13.878906 4.5 14.8125 4.5 C 15.742188 4.5 16.5 3.746094 16.5 2.8125 Z M 16.5 2.8125 "/>
<path style=" stroke:none;fill-rule:evenodd;fill:rgb(54.509807%,71.764708%,94.117647%);fill-opacity:1;" d="M 6.9375 28.15625 L 6.9375 24.1875 L 3.1875 24.1875 L 3.1875 6.9375 L 26.4375 6.9375 L 26.4375 24.1875 L 10.90625 24.1875 Z M 6.9375 28.15625 "/>
<path style=" stroke:none;fill-rule:evenodd;fill:rgb(30.588236%,48.235294%,70.980394%);fill-opacity:1;" d="M 6.75 28.609375 L 6.75 24.375 L 3 24.375 L 3 6.75 L 26.625 6.75 L 26.625 24.375 L 10.984375 24.375 Z M 7.125 27.707031 L 10.828125 24 L 26.25 24 L 26.25 7.125 L 3.375 7.125 L 3.375 24 L 7.125 24 Z M 7.125 27.707031 "/>
<path style=" stroke:none;fill-rule:evenodd;fill:rgb(100%,100%,100%);fill-opacity:1;" d="M 12.375 18.75 L 17.25 18.75 C 16.890625 19.84375 15.933594 20.625 14.8125 20.625 C 13.691406 20.625 12.738281 19.84375 12.375 18.75 Z M 12.375 18.75 "/>
<path style=" stroke:none;fill-rule:evenodd;fill:rgb(100%,100%,100%);fill-opacity:1;" d="M 11.625 13.6875 C 11.625 14.621094 10.871094 15.375 9.9375 15.375 C 9.003906 15.375 8.25 14.621094 8.25 13.6875 C 8.25 12.757812 9.003906 12 9.9375 12 C 10.871094 12 11.625 12.757812 11.625 13.6875 Z M 11.625 13.6875 "/>
<path style=" stroke:none;fill-rule:evenodd;fill:rgb(100%,100%,100%);fill-opacity:1;" d="M 21.375 13.6875 C 21.375 14.621094 20.621094 15.375 19.6875 15.375 C 18.753906 15.375 18 14.621094 18 13.6875 C 18 12.757812 18.753906 12 19.6875 12 C 20.621094 12 21.375 12.757812 21.375 13.6875 Z M 21.375 13.6875 "/>
</g>
</g>
</svg>
