<?xml version="1.0" encoding="UTF-8"?>
<svg xmlns="http://www.w3.org/2000/svg" xmlns:xlink="http://www.w3.org/1999/xlink" width="48" height="48" viewBox="0 0 48 48" version="1.1">
<g transform="scale(1.33333333)">
<g id="surface1792">
<path style=" stroke:none;fill-rule:evenodd;fill:rgb(69.01961%,75.686276%,83.137256%);fill-opacity:1;" d="M 34.425781 20.925781 C 34.425781 20.390625 34.425781 16.964844 34.425781 16.425781 C 34.425781 15.433594 33.617188 14.625 32.625 14.625 C 32.46875 14.625 30.980469 14.625 30.824219 14.625 C 29.832031 14.625 29.027344 15.433594 29.027344 16.425781 C 29.027344 16.964844 29.027344 20.390625 29.027344 20.925781 C 29.027344 21.917969 29.832031 22.726562 30.824219 22.726562 C 30.980469 22.726562 32.46875 22.726562 32.625 22.726562 C 33.617188 22.726562 34.425781 21.917969 34.425781 20.925781 Z M 34.425781 20.925781 "/>
<path style=" stroke:none;fill-rule:evenodd;fill:rgb(40.000001%,47.450981%,56.078434%);fill-opacity:1;" d="M 28.800781 20.925781 L 28.800781 16.425781 C 28.800781 15.308594 29.707031 14.402344 30.824219 14.402344 L 32.625 14.402344 C 33.742188 14.402344 34.652344 15.308594 34.652344 16.425781 L 34.652344 20.925781 C 34.652344 22.042969 33.742188 22.949219 32.625 22.949219 L 30.824219 22.949219 C 29.707031 22.949219 28.800781 22.042969 28.800781 20.925781 Z M 34.199219 20.925781 L 34.199219 16.425781 C 34.199219 15.554688 33.496094 14.851562 32.625 14.851562 L 30.824219 14.851562 C 29.957031 14.851562 29.25 15.554688 29.25 16.425781 L 29.25 20.925781 C 29.25 21.792969 29.957031 22.5 30.824219 22.5 L 32.625 22.5 C 33.496094 22.5 34.199219 21.792969 34.199219 20.925781 Z M 34.199219 20.925781 "/>
<path style=" stroke:none;fill-rule:evenodd;fill:rgb(69.01961%,75.686276%,83.137256%);fill-opacity:1;" d="M 6.527344 20.925781 C 6.527344 20.390625 6.527344 16.964844 6.527344 16.425781 C 6.527344 15.433594 5.71875 14.625 4.726562 14.625 C 4.570312 14.625 3.082031 14.625 2.925781 14.625 C 1.933594 14.625 1.125 15.433594 1.125 16.425781 C 1.125 16.964844 1.125 20.390625 1.125 20.925781 C 1.125 21.917969 1.933594 22.726562 2.925781 22.726562 C 3.082031 22.726562 4.570312 22.726562 4.726562 22.726562 C 5.71875 22.726562 6.527344 21.917969 6.527344 20.925781 Z M 6.527344 20.925781 "/>
<path style=" stroke:none;fill-rule:evenodd;fill:rgb(40.000001%,47.450981%,56.078434%);fill-opacity:1;" d="M 0.898438 20.925781 L 0.898438 16.425781 C 0.898438 15.308594 1.808594 14.402344 2.925781 14.402344 L 4.726562 14.402344 C 5.84375 14.402344 6.75 15.308594 6.75 16.425781 L 6.75 20.925781 C 6.75 22.042969 5.84375 22.949219 4.726562 22.949219 L 2.925781 22.949219 C 1.808594 22.949219 0.898438 22.042969 0.898438 20.925781 Z M 6.300781 20.925781 L 6.300781 16.425781 C 6.300781 15.554688 5.59375 14.851562 4.726562 14.851562 L 2.925781 14.851562 C 2.054688 14.851562 1.351562 15.554688 1.351562 16.425781 L 1.351562 20.925781 C 1.351562 21.792969 2.054688 22.5 2.925781 22.5 L 4.726562 22.5 C 5.59375 22.5 6.300781 21.792969 6.300781 20.925781 Z M 6.300781 20.925781 "/>
<path style=" stroke:none;fill-rule:evenodd;fill:rgb(69.01961%,75.686276%,83.137256%);fill-opacity:1;" d="M 16.433594 3.375 L 19.117188 3.375 L 19.117188 10.574219 L 16.433594 10.574219 Z M 16.433594 3.375 "/>
<path style=" stroke:none;fill-rule:evenodd;fill:rgb(40.000001%,47.450981%,56.078434%);fill-opacity:1;" d="M 16.207031 10.800781 L 16.207031 3.152344 L 19.339844 3.152344 L 19.339844 10.800781 Z M 18.890625 10.351562 L 18.890625 3.601562 L 16.660156 3.601562 L 16.660156 10.351562 Z M 18.890625 10.351562 "/>
<path style=" stroke:none;fill-rule:evenodd;fill:rgb(69.01961%,75.686276%,83.137256%);fill-opacity:1;" d="M 20.023438 3.375 C 20.023438 4.617188 19.015625 5.625 17.773438 5.625 C 16.53125 5.625 15.523438 4.617188 15.523438 3.375 C 15.523438 2.132812 16.53125 1.125 17.773438 1.125 C 19.015625 1.125 20.023438 2.132812 20.023438 3.375 Z M 20.023438 3.375 "/>
<path style=" stroke:none;fill-rule:evenodd;fill:rgb(40.000001%,47.450981%,56.078434%);fill-opacity:1;" d="M 15.300781 3.375 C 15.300781 2.011719 16.40625 0.902344 17.773438 0.902344 C 19.140625 0.902344 20.25 2.011719 20.25 3.375 C 20.25 4.742188 19.140625 5.851562 17.773438 5.851562 C 16.40625 5.851562 15.300781 4.742188 15.300781 3.375 Z M 19.800781 3.375 C 19.800781 2.257812 18.890625 1.351562 17.773438 1.351562 C 16.65625 1.351562 15.75 2.257812 15.75 3.375 C 15.75 4.496094 16.65625 5.402344 17.773438 5.402344 C 18.890625 5.402344 19.800781 4.496094 19.800781 3.375 Z M 19.800781 3.375 "/>
<path style=" stroke:none;fill-rule:evenodd;fill:rgb(54.509807%,71.764708%,94.117647%);fill-opacity:1;" d="M 8.324219 33.789062 L 8.324219 29.027344 L 3.824219 29.027344 L 3.824219 8.324219 L 31.726562 8.324219 L 31.726562 29.027344 L 13.089844 29.027344 Z M 8.324219 33.789062 "/>
<path style=" stroke:none;fill-rule:evenodd;fill:rgb(30.588236%,48.235294%,70.980394%);fill-opacity:1;" d="M 8.101562 34.332031 L 8.101562 29.25 L 3.601562 29.25 L 3.601562 8.101562 L 31.949219 8.101562 L 31.949219 29.25 L 13.183594 29.25 Z M 8.550781 33.246094 L 12.996094 28.800781 L 31.5 28.800781 L 31.5 8.550781 L 4.050781 8.550781 L 4.050781 28.800781 L 8.550781 28.800781 Z M 8.550781 33.246094 "/>
<path style=" stroke:none;fill-rule:evenodd;fill:rgb(100%,100%,100%);fill-opacity:1;" d="M 14.851562 22.5 L 20.699219 22.5 C 20.265625 23.8125 19.117188 24.75 17.777344 24.75 C 16.429688 24.75 15.285156 23.8125 14.851562 22.5 Z M 14.851562 22.5 "/>
<path style=" stroke:none;fill-rule:evenodd;fill:rgb(100%,100%,100%);fill-opacity:1;" d="M 13.953125 16.425781 C 13.953125 17.542969 13.042969 18.453125 11.925781 18.453125 C 10.804688 18.453125 9.898438 17.542969 9.898438 16.425781 C 9.898438 15.308594 10.804688 14.402344 11.925781 14.402344 C 13.042969 14.402344 13.953125 15.308594 13.953125 16.425781 Z M 13.953125 16.425781 "/>
<path style=" stroke:none;fill-rule:evenodd;fill:rgb(100%,100%,100%);fill-opacity:1;" d="M 25.652344 16.425781 C 25.652344 17.542969 24.746094 18.453125 23.625 18.453125 C 22.507812 18.453125 21.597656 17.542969 21.597656 16.425781 C 21.597656 15.308594 22.507812 14.402344 23.625 14.402344 C 24.746094 14.402344 25.652344 15.308594 25.652344 16.425781 Z M 25.652344 16.425781 "/>
</g>
</g>
</svg>
