<?xml version="1.0" encoding="UTF-8"?>
<svg xmlns="http://www.w3.org/2000/svg" xmlns:xlink="http://www.w3.org/1999/xlink" width="60pt" height="60pt" viewBox="0 0 60 60" version="1.1">
<g id="surface296">
<path style=" stroke:none;fill-rule:evenodd;fill:rgb(40.000001%,47.450981%,56.078434%);fill-opacity:1;" d="M 26.257812 0 L 30.007812 0 L 30.007812 26.25 L 26.257812 26.25 Z M 26.257812 0 "/>
<path style=" stroke:none;fill-rule:evenodd;fill:rgb(40.000001%,47.450981%,56.078434%);fill-opacity:1;" d="M 56.257812 30 L 56.257812 26.25 C 56.257812 24.179688 54.578125 22.5 52.507812 22.5 C 50.4375 22.5 48.757812 24.179688 48.757812 26.25 L 48.757812 30 C 48.757812 32.070312 50.4375 33.75 52.507812 33.75 C 54.578125 33.75 56.257812 32.070312 56.257812 30 Z M 56.257812 30 "/>
<path style=" stroke:none;fill-rule:evenodd;fill:rgb(40.000001%,47.450981%,56.078434%);fill-opacity:1;" d="M 0.0078125 30 L 0.0078125 26.25 C 0.0078125 24.179688 1.6875 22.5 3.757812 22.5 C 5.828125 22.5 7.507812 24.179688 7.507812 26.25 L 7.507812 30 C 7.507812 32.070312 5.828125 33.75 3.757812 33.75 C 1.6875 33.75 0.0078125 32.070312 0.0078125 30 Z M 0.0078125 30 "/>
<path style=" stroke:none;fill-rule:evenodd;fill:rgb(54.509807%,71.764708%,94.117647%);fill-opacity:1;" d="M 13.132812 55.472656 L 13.132812 46.898438 L 5.644531 46.898438 L 5.644531 13.097656 L 50.625 13.097656 L 50.625 46.898438 L 21.707031 46.898438 Z M 13.132812 55.472656 "/>
<path style=" stroke:none;fill-rule:evenodd;fill:rgb(30.588236%,48.235294%,70.980394%);fill-opacity:1;" d="M 11.257812 60.003906 L 11.257812 48.773438 L 3.769531 48.773438 L 3.769531 11.222656 L 52.5 11.222656 L 52.5 48.773438 L 22.480469 48.773438 Z M 15.007812 50.945312 L 20.929688 45.023438 L 48.75 45.023438 L 48.75 14.972656 L 7.519531 14.972656 L 7.519531 45.023438 L 15.007812 45.023438 Z M 15.007812 50.945312 "/>
<path style=" stroke:none;fill-rule:evenodd;fill:rgb(100%,100%,100%);fill-opacity:1;" d="M 22.515625 26.25 C 22.515625 28.320312 20.835938 30 18.761719 30 C 16.6875 30 15.007812 28.320312 15.007812 26.25 C 15.007812 24.179688 16.6875 22.5 18.761719 22.5 C 20.835938 22.5 22.515625 24.179688 22.515625 26.25 Z M 22.515625 26.25 "/>
<path style=" stroke:none;fill-rule:evenodd;fill:rgb(100%,100%,100%);fill-opacity:1;" d="M 41.277344 26.25 C 41.277344 28.320312 39.59375 30 37.523438 30 C 35.449219 30 33.769531 28.320312 33.769531 26.25 C 33.769531 24.179688 35.449219 22.5 37.523438 22.5 C 39.59375 22.5 41.277344 24.179688 41.277344 26.25 Z M 41.277344 26.25 "/>
<path style=" stroke:none;fill-rule:evenodd;fill:rgb(100%,100%,100%);fill-opacity:1;" d="M 22.507812 33.75 L 33.757812 33.75 C 32.917969 35.941406 30.707031 37.5 28.128906 37.5 C 25.542969 37.5 23.335938 35.941406 22.507812 33.75 Z M 22.507812 33.75 "/>
<path style=" stroke:none;fill-rule:evenodd;fill:rgb(40.000001%,47.450981%,56.078434%);fill-opacity:1;" d="M 22.507812 0 L 33.757812 0 L 33.757812 3.75 L 22.507812 3.75 Z M 22.507812 0 "/>
</g>
</svg>
