<?xml version="1.0" encoding="UTF-8"?>
<svg xmlns="http://www.w3.org/2000/svg" xmlns:xlink="http://www.w3.org/1999/xlink" width="48" height="48" viewBox="0 0 48 48" version="1.1">
<g transform="scale(2)">
<g id="surface932">
<path style=" stroke:none;fill-rule:nonzero;fill:rgb(100%,93.333334%,63.921571%);fill-opacity:1;" d="M 1.5 11.101562 L 1.5 3.898438 C 1.5 3.570312 1.769531 3.300781 2.101562 3.300781 L 9.300781 3.300781 C 9.632812 3.300781 9.898438 3.570312 9.898438 3.898438 L 9.898438 11.101562 C 9.898438 11.429688 9.632812 11.699219 9.300781 11.699219 L 2.101562 11.699219 C 1.769531 11.699219 1.5 11.429688 1.5 11.101562 Z M 1.5 11.101562 "/>
<path style=" stroke:none;fill-rule:nonzero;fill:rgb(72.941178%,87.843138%,74.117649%);fill-opacity:1;" d="M 1.5 21.898438 L 1.5 14.699219 C 1.5 14.367188 1.769531 14.101562 2.101562 14.101562 L 9.300781 14.101562 C 9.632812 14.101562 9.898438 14.367188 9.898438 14.699219 L 9.898438 21.898438 C 9.898438 22.230469 9.632812 22.5 9.300781 22.5 L 2.101562 22.5 C 1.769531 22.5 1.5 22.230469 1.5 21.898438 Z M 1.5 21.898438 "/>
<path style=" stroke:none;fill-rule:nonzero;fill:rgb(100%,70.980394%,82.352942%);fill-opacity:1;" d="M 12.300781 21.898438 L 12.300781 14.699219 C 12.300781 14.367188 12.570312 14.101562 12.898438 14.101562 L 20.101562 14.101562 C 20.429688 14.101562 20.699219 14.367188 20.699219 14.699219 L 20.699219 21.898438 C 20.699219 22.230469 20.429688 22.5 20.101562 22.5 L 12.898438 22.5 C 12.570312 22.5 12.300781 22.230469 12.300781 21.898438 Z M 12.300781 21.898438 "/>
<path style=" stroke:none;fill-rule:nonzero;fill:rgb(76.078433%,90.980393%,100%);fill-opacity:1;" d="M 11.894531 6.167969 L 16.984375 1.074219 C 17.21875 0.839844 17.597656 0.839844 17.832031 1.074219 L 22.921875 6.167969 C 23.15625 6.402344 23.15625 6.78125 22.921875 7.015625 L 17.832031 12.105469 C 17.597656 12.339844 17.21875 12.339844 16.984375 12.105469 L 11.894531 7.015625 C 11.660156 6.78125 11.660156 6.402344 11.894531 6.167969 Z M 11.894531 6.167969 "/>
<path style=" stroke:none;fill-rule:nonzero;fill:rgb(72.941178%,60.784316%,28.235295%);fill-opacity:1;" d="M 9.300781 12 L 2.101562 12 C 1.605469 12 1.199219 11.597656 1.199219 11.101562 L 1.199219 3.898438 C 1.199219 3.402344 1.605469 3 2.101562 3 L 9.300781 3 C 9.796875 3 10.199219 3.402344 10.199219 3.898438 L 10.199219 11.101562 C 10.199219 11.597656 9.796875 12 9.300781 12 Z M 2.101562 3.601562 C 1.933594 3.601562 1.800781 3.734375 1.800781 3.898438 L 1.800781 11.101562 C 1.800781 11.265625 1.933594 11.398438 2.101562 11.398438 L 9.300781 11.398438 C 9.464844 11.398438 9.601562 11.265625 9.601562 11.101562 L 9.601562 3.898438 C 9.601562 3.734375 9.464844 3.601562 9.300781 3.601562 Z M 2.101562 3.601562 "/>
<path style=" stroke:none;fill-rule:nonzero;fill:rgb(36.862746%,61.176473%,46.27451%);fill-opacity:1;" d="M 9.300781 22.800781 L 2.101562 22.800781 C 1.605469 22.800781 1.199219 22.394531 1.199219 21.898438 L 1.199219 14.699219 C 1.199219 14.203125 1.605469 13.800781 2.101562 13.800781 L 9.300781 13.800781 C 9.796875 13.800781 10.199219 14.203125 10.199219 14.699219 L 10.199219 21.898438 C 10.199219 22.394531 9.796875 22.800781 9.300781 22.800781 Z M 2.101562 14.398438 C 1.933594 14.398438 1.800781 14.535156 1.800781 14.699219 L 1.800781 21.898438 C 1.800781 22.066406 1.933594 22.199219 2.101562 22.199219 L 9.300781 22.199219 C 9.464844 22.199219 9.601562 22.066406 9.601562 21.898438 L 9.601562 14.699219 C 9.601562 14.535156 9.464844 14.398438 9.300781 14.398438 Z M 2.101562 14.398438 "/>
<path style=" stroke:none;fill-rule:nonzero;fill:rgb(91.764706%,29.803923%,53.725493%);fill-opacity:1;" d="M 20.101562 22.800781 L 12.898438 22.800781 C 12.402344 22.800781 12 22.394531 12 21.898438 L 12 14.699219 C 12 14.203125 12.402344 13.800781 12.898438 13.800781 L 20.101562 13.800781 C 20.597656 13.800781 21 14.203125 21 14.699219 L 21 21.898438 C 21 22.394531 20.597656 22.800781 20.101562 22.800781 Z M 12.898438 14.398438 C 12.734375 14.398438 12.601562 14.535156 12.601562 14.699219 L 12.601562 21.898438 C 12.601562 22.066406 12.734375 22.199219 12.898438 22.199219 L 20.101562 22.199219 C 20.265625 22.199219 20.398438 22.066406 20.398438 21.898438 L 20.398438 14.699219 C 20.398438 14.535156 20.265625 14.398438 20.101562 14.398438 Z M 12.898438 14.398438 "/>
<path style=" stroke:none;fill-rule:nonzero;fill:rgb(45.490196%,58.823532%,76.862746%);fill-opacity:1;" d="M 17.410156 12.582031 C 17.179688 12.582031 16.949219 12.496094 16.773438 12.320312 L 11.679688 7.226562 C 11.332031 6.878906 11.332031 6.304688 11.679688 5.957031 L 16.773438 0.863281 C 17.121094 0.515625 17.695312 0.515625 18.046875 0.863281 L 23.136719 5.957031 C 23.488281 6.304688 23.488281 6.878906 23.136719 7.226562 L 18.046875 12.320312 C 17.871094 12.492188 17.640625 12.582031 17.410156 12.582031 Z M 17.410156 1.199219 C 17.332031 1.199219 17.253906 1.230469 17.195312 1.289062 L 12.105469 6.378906 C 11.988281 6.496094 11.988281 6.6875 12.105469 6.804688 L 17.195312 11.894531 C 17.3125 12.011719 17.503906 12.011719 17.621094 11.894531 L 22.710938 6.804688 C 22.828125 6.6875 22.828125 6.496094 22.710938 6.378906 L 17.621094 1.289062 C 17.5625 1.230469 17.484375 1.199219 17.410156 1.199219 Z M 17.410156 1.199219 "/>
</g>
</g>
</svg>
