<?xml version="1.0" encoding="UTF-8"?>
<svg xmlns="http://www.w3.org/2000/svg" xmlns:xlink="http://www.w3.org/1999/xlink" width="48" height="48" viewBox="0 0 48 48" version="1.1">
<g transform="scale(1.33333333)">
<g id="surface1731">
<path style=" stroke:none;fill-rule:nonzero;fill:rgb(100%,93.333334%,63.921571%);fill-opacity:1;" d="M 2.023438 17.191406 L 2.023438 5.382812 C 2.023438 5.136719 2.226562 4.933594 2.476562 4.933594 L 14.28125 4.933594 C 14.527344 4.933594 14.730469 5.136719 14.730469 5.382812 L 14.730469 17.191406 C 14.730469 17.4375 14.527344 17.640625 14.28125 17.640625 L 2.476562 17.640625 C 2.226562 17.640625 2.023438 17.4375 2.023438 17.191406 Z M 2.023438 17.191406 "/>
<path style=" stroke:none;fill-rule:nonzero;fill:rgb(72.941178%,87.843138%,74.117649%);fill-opacity:1;" d="M 2.023438 33.523438 L 2.023438 21.71875 C 2.023438 21.472656 2.226562 21.269531 2.476562 21.269531 L 14.28125 21.269531 C 14.527344 21.269531 14.730469 21.472656 14.730469 21.71875 L 14.730469 33.523438 C 14.730469 33.773438 14.527344 33.976562 14.28125 33.976562 L 2.476562 33.976562 C 2.226562 33.976562 2.023438 33.773438 2.023438 33.523438 Z M 2.023438 33.523438 "/>
<path style=" stroke:none;fill-rule:nonzero;fill:rgb(100%,70.980394%,82.352942%);fill-opacity:1;" d="M 18.359375 33.523438 L 18.359375 21.71875 C 18.359375 21.472656 18.5625 21.269531 18.808594 21.269531 L 30.617188 21.269531 C 30.863281 21.269531 31.066406 21.472656 31.066406 21.71875 L 31.066406 33.523438 C 31.066406 33.773438 30.863281 33.976562 30.617188 33.976562 L 18.808594 33.976562 C 18.5625 33.976562 18.359375 33.773438 18.359375 33.523438 Z M 18.359375 33.523438 "/>
<path style=" stroke:none;fill-rule:nonzero;fill:rgb(76.078433%,90.980393%,100%);fill-opacity:1;" d="M 17.421875 9.59375 L 25.769531 1.246094 C 25.945312 1.070312 26.230469 1.070312 26.40625 1.246094 L 34.753906 9.59375 C 34.929688 9.769531 34.929688 10.054688 34.753906 10.230469 L 26.40625 18.578125 C 26.230469 18.753906 25.945312 18.753906 25.769531 18.578125 L 17.421875 10.230469 C 17.246094 10.054688 17.246094 9.769531 17.421875 9.59375 Z M 17.421875 9.59375 "/>
<path style=" stroke:none;fill-rule:nonzero;fill:rgb(72.941178%,60.784316%,28.235295%);fill-opacity:1;" d="M 14.28125 17.863281 L 2.476562 17.863281 C 2.101562 17.863281 1.800781 17.5625 1.800781 17.191406 L 1.800781 5.382812 C 1.800781 5.011719 2.101562 4.710938 2.476562 4.710938 L 14.28125 4.710938 C 14.652344 4.710938 14.953125 5.011719 14.953125 5.382812 L 14.953125 17.191406 C 14.953125 17.5625 14.652344 17.863281 14.28125 17.863281 Z M 2.476562 5.160156 C 2.351562 5.160156 2.25 5.261719 2.25 5.382812 L 2.25 17.191406 C 2.25 17.3125 2.351562 17.414062 2.476562 17.414062 L 14.28125 17.414062 C 14.402344 17.414062 14.503906 17.3125 14.503906 17.191406 L 14.503906 5.382812 C 14.503906 5.261719 14.402344 5.160156 14.28125 5.160156 Z M 2.476562 5.160156 "/>
<path style=" stroke:none;fill-rule:nonzero;fill:rgb(36.862746%,61.176473%,46.27451%);fill-opacity:1;" d="M 14.28125 34.199219 L 2.476562 34.199219 C 2.101562 34.199219 1.800781 33.898438 1.800781 33.523438 L 1.800781 21.71875 C 1.800781 21.347656 2.101562 21.046875 2.476562 21.046875 L 14.28125 21.046875 C 14.652344 21.046875 14.953125 21.347656 14.953125 21.71875 L 14.953125 33.523438 C 14.953125 33.898438 14.652344 34.199219 14.28125 34.199219 Z M 2.476562 21.496094 C 2.351562 21.496094 2.25 21.597656 2.25 21.71875 L 2.25 33.523438 C 2.25 33.648438 2.351562 33.75 2.476562 33.75 L 14.28125 33.75 C 14.402344 33.75 14.503906 33.648438 14.503906 33.523438 L 14.503906 21.71875 C 14.503906 21.597656 14.402344 21.496094 14.28125 21.496094 Z M 2.476562 21.496094 "/>
<path style=" stroke:none;fill-rule:nonzero;fill:rgb(91.764706%,29.803923%,53.725493%);fill-opacity:1;" d="M 30.617188 34.199219 L 18.808594 34.199219 C 18.4375 34.199219 18.136719 33.898438 18.136719 33.523438 L 18.136719 21.71875 C 18.136719 21.347656 18.4375 21.046875 18.808594 21.046875 L 30.617188 21.046875 C 30.988281 21.046875 31.289062 21.347656 31.289062 21.71875 L 31.289062 33.523438 C 31.289062 33.898438 30.988281 34.199219 30.617188 34.199219 Z M 18.808594 21.496094 C 18.6875 21.496094 18.585938 21.597656 18.585938 21.71875 L 18.585938 33.523438 C 18.585938 33.648438 18.6875 33.75 18.808594 33.75 L 30.617188 33.75 C 30.738281 33.75 30.839844 33.648438 30.839844 33.523438 L 30.839844 21.71875 C 30.839844 21.597656 30.738281 21.496094 30.617188 21.496094 Z M 18.808594 21.496094 "/>
<path style=" stroke:none;fill-rule:nonzero;fill:rgb(45.490196%,58.823532%,76.862746%);fill-opacity:1;" d="M 26.085938 18.933594 C 25.914062 18.933594 25.742188 18.867188 25.609375 18.738281 L 17.261719 10.390625 C 17 10.125 17 9.699219 17.261719 9.4375 L 25.609375 1.089844 C 25.871094 0.824219 26.300781 0.824219 26.5625 1.089844 L 34.910156 9.4375 C 35.175781 9.699219 35.175781 10.125 34.910156 10.390625 L 26.5625 18.738281 C 26.433594 18.867188 26.257812 18.933594 26.085938 18.933594 Z M 26.085938 1.339844 C 26.03125 1.339844 25.972656 1.363281 25.929688 1.40625 L 17.582031 9.753906 C 17.492188 9.839844 17.492188 9.984375 17.582031 10.070312 L 25.929688 18.417969 C 26.015625 18.507812 26.160156 18.507812 26.246094 18.417969 L 34.59375 10.070312 C 34.679688 9.984375 34.679688 9.839844 34.59375 9.753906 L 26.246094 1.40625 C 26.203125 1.363281 26.144531 1.339844 26.085938 1.339844 Z M 26.085938 1.339844 "/>
</g>
</g>
</svg>
