<?xml version="1.0" encoding="UTF-8"?>
<svg xmlns="http://www.w3.org/2000/svg" xmlns:xlink="http://www.w3.org/1999/xlink" width="48" height="48" viewBox="0 0 48 48" version="1.1">
<g transform="scale(1.33333333)">
<g id="surface1751">
<path style=" stroke:none;fill-rule:nonzero;fill:rgb(85.882354%,69.01961%,39.607844%);fill-opacity:1;" d="M 1.125 32.175781 L 1.125 3.824219 L 10.707031 3.824219 L 13.40625 6.523438 L 34.875 6.523438 L 34.875 32.175781 Z M 1.125 32.175781 "/>
<path style=" stroke:none;fill-rule:nonzero;fill:rgb(58.823532%,47.843137%,26.666668%);fill-opacity:1;" d="M 10.613281 4.050781 L 13.183594 6.617188 L 13.3125 6.75 L 34.648438 6.75 L 34.648438 31.949219 L 1.351562 31.949219 L 1.351562 4.050781 L 10.613281 4.050781 M 10.800781 3.601562 L 0.898438 3.601562 L 0.898438 32.398438 L 35.101562 32.398438 L 35.101562 6.300781 L 13.5 6.300781 Z M 10.800781 3.601562 "/>
<path style=" stroke:none;fill-rule:nonzero;fill:rgb(96.078432%,80.784315%,52.156866%);fill-opacity:1;" d="M 1.125 32.175781 L 1.125 8.324219 L 10.867188 8.324219 L 13.566406 6.523438 L 34.875 6.523438 L 34.875 32.175781 Z M 1.125 32.175781 "/>
<path style=" stroke:none;fill-rule:nonzero;fill:rgb(58.823532%,47.843137%,26.666668%);fill-opacity:1;" d="M 34.648438 6.75 L 34.648438 31.949219 L 1.351562 31.949219 L 1.351562 8.550781 L 10.9375 8.550781 L 11.050781 8.472656 L 13.636719 6.75 L 34.648438 6.75 M 35.101562 6.300781 L 13.5 6.300781 L 10.800781 8.101562 L 0.898438 8.101562 L 0.898438 32.398438 L 35.101562 32.398438 Z M 35.101562 6.300781 "/>
<path style=" stroke:none;fill-rule:nonzero;fill:rgb(58.823532%,47.843137%,26.666668%);fill-opacity:1;" d="M 22.5 18.898438 L 15.300781 26.101562 L 29.699219 26.101562 Z M 22.5 18.898438 "/>
<path style=" stroke:none;fill-rule:nonzero;fill:rgb(72.941178%,60.784316%,28.235295%);fill-opacity:1;" d="M 24.300781 12.601562 C 23.304688 12.601562 22.5 13.40625 22.5 14.398438 C 22.5 15.394531 23.304688 16.199219 24.300781 16.199219 C 25.292969 16.199219 26.101562 15.394531 26.101562 14.398438 C 26.101562 13.40625 25.292969 12.601562 24.300781 12.601562 Z M 22.5 26.101562 L 5.398438 26.101562 L 13.949219 17.101562 Z M 22.5 26.101562 "/>
</g>
</g>
</svg>
