<?xml version="1.0" encoding="UTF-8"?>
<svg xmlns="http://www.w3.org/2000/svg" xmlns:xlink="http://www.w3.org/1999/xlink" width="48" height="48" viewBox="0 0 48 48" version="1.1">
<g transform="scale(2)">
<g id="surface1318">
<path style=" stroke:none;fill-rule:nonzero;fill:rgb(85.882354%,69.01961%,39.607844%);fill-opacity:1;" d="M 0.75 21.449219 L 0.75 2.550781 L 7.136719 2.550781 L 8.9375 4.351562 L 23.25 4.351562 L 23.25 21.449219 Z M 0.75 21.449219 "/>
<path style=" stroke:none;fill-rule:nonzero;fill:rgb(58.823532%,47.843137%,26.666668%);fill-opacity:1;" d="M 7.074219 2.699219 L 8.789062 4.410156 L 8.875 4.5 L 23.101562 4.5 L 23.101562 21.300781 L 0.898438 21.300781 L 0.898438 2.699219 L 7.074219 2.699219 M 7.199219 2.398438 L 0.601562 2.398438 L 0.601562 21.601562 L 23.398438 21.601562 L 23.398438 4.199219 L 9 4.199219 Z M 7.199219 2.398438 "/>
<path style=" stroke:none;fill-rule:nonzero;fill:rgb(96.078432%,80.784315%,52.156866%);fill-opacity:1;" d="M 0.75 21.449219 L 0.75 5.550781 L 7.246094 5.550781 L 9.046875 4.351562 L 23.25 4.351562 L 23.25 21.449219 Z M 0.75 21.449219 "/>
<path style=" stroke:none;fill-rule:nonzero;fill:rgb(58.823532%,47.843137%,26.666668%);fill-opacity:1;" d="M 23.101562 4.5 L 23.101562 21.300781 L 0.898438 21.300781 L 0.898438 5.699219 L 7.289062 5.699219 L 7.367188 5.648438 L 9.089844 4.5 L 23.101562 4.5 M 23.398438 4.199219 L 9 4.199219 L 7.199219 5.398438 L 0.601562 5.398438 L 0.601562 21.601562 L 23.398438 21.601562 Z M 23.398438 4.199219 "/>
<path style=" stroke:none;fill-rule:nonzero;fill:rgb(58.823532%,47.843137%,26.666668%);fill-opacity:1;" d="M 15 12.601562 L 10.199219 17.398438 L 19.800781 17.398438 Z M 15 12.601562 "/>
<path style=" stroke:none;fill-rule:nonzero;fill:rgb(72.941178%,60.784316%,28.235295%);fill-opacity:1;" d="M 16.199219 8.398438 C 15.539062 8.398438 15 8.9375 15 9.601562 C 15 10.261719 15.539062 10.800781 16.199219 10.800781 C 16.863281 10.800781 17.398438 10.261719 17.398438 9.601562 C 17.398438 8.9375 16.863281 8.398438 16.199219 8.398438 Z M 15 17.398438 L 3.601562 17.398438 L 9.300781 11.398438 Z M 15 17.398438 "/>
</g>
</g>
</svg>
