<?xml version="1.0" encoding="UTF-8"?>
<svg xmlns="http://www.w3.org/2000/svg" xmlns:xlink="http://www.w3.org/1999/xlink" width="16" height="16" viewBox="0 0 16 16" version="1.1">
<g transform="scale(0.53333333)">
<g id="surface65">
<path style=" stroke:none;fill-rule:nonzero;fill:rgb(100%,100%,100%);fill-opacity:1;" d="M 0.9375 27.1875 L 0.9375 6.5625 L 27.1875 6.5625 L 27.1875 20.4375 L 18.375 27.1875 Z M 0.9375 27.1875 "/>
<path style=" stroke:none;fill-rule:nonzero;fill:rgb(47.058824%,54.509807%,61.176473%);fill-opacity:1;" d="M 26.25 7.5 L 26.25 19.875 L 18.1875 26.25 L 1.875 26.25 L 1.875 7.5 L 26.25 7.5 M 28.125 5.625 L 0 5.625 L 0 28.125 L 18.75 28.125 L 28.125 20.8125 Z M 28.125 5.625 "/>
<path style=" stroke:none;fill-rule:nonzero;fill:rgb(78.431374%,81.960785%,85.882354%);fill-opacity:1;" d="M 0.9375 6.5625 L 0.9375 3.75 C 0.9375 3.1875 1.3125 2.8125 1.875 2.8125 L 26.25 2.8125 C 26.8125 2.8125 27.1875 3.1875 27.1875 3.75 L 27.1875 6.5625 Z M 0.9375 6.5625 "/>
<path style=" stroke:none;fill-rule:nonzero;fill:rgb(40.000001%,47.450981%,56.078434%);fill-opacity:1;" d="M 26.25 3.75 L 26.25 5.625 L 1.875 5.625 L 1.875 3.75 L 26.25 3.75 M 26.25 1.875 L 1.875 1.875 C 0.75 1.875 0 2.625 0 3.75 L 0 7.5 L 28.125 7.5 L 28.125 3.75 C 28.125 2.625 27.375 1.875 26.25 1.875 Z M 26.25 1.875 "/>
<path style=" stroke:none;fill-rule:nonzero;fill:rgb(47.058824%,54.509807%,61.176473%);fill-opacity:1;" d="M 5.625 11.25 L 7.5 11.25 L 7.5 13.125 L 5.625 13.125 Z M 5.625 15 L 7.5 15 L 7.5 16.875 L 5.625 16.875 Z M 5.625 18.75 L 7.5 18.75 L 7.5 20.625 L 5.625 20.625 Z M 5.625 18.75 "/>
<path style=" stroke:none;fill-rule:nonzero;fill:rgb(83.92157%,89.019608%,92.941177%);fill-opacity:1;" d="M 28.125 18.5625 L 26.25 18.375 L 26.25 13.125 L 28.125 13.125 Z M 13.125 26.25 L 18.75 26.25 L 18.75 28.125 L 13.125 28.125 Z M 13.125 26.25 "/>
<path style=" stroke:none;fill-rule:nonzero;fill:rgb(100%,93.333334%,63.921571%);fill-opacity:1;" d="M 20.25 27 L 17.8125 27.375 L 17.4375 24.9375 L 15.1875 23.8125 L 16.3125 21.5625 L 15.1875 19.3125 L 17.4375 18.1875 L 17.8125 15.75 L 20.25 16.125 L 21.9375 14.4375 L 23.8125 16.125 L 26.25 15.75 L 26.625 18.1875 L 28.6875 19.3125 L 27.75 21.5625 L 28.6875 23.8125 L 26.625 24.9375 L 26.25 27.375 L 23.8125 27 L 21.9375 28.6875 Z M 20.25 27 "/>
<path style=" stroke:none;fill-rule:nonzero;fill:rgb(72.941178%,60.784316%,28.235295%);fill-opacity:1;" d="M 21.9375 15.75 L 22.6875 16.5 L 23.4375 17.0625 L 24.375 17.0625 L 25.3125 16.875 L 25.5 18 L 25.6875 18.9375 L 26.4375 19.3125 L 27.375 19.875 L 26.8125 20.8125 L 26.4375 21.5625 L 26.8125 22.3125 L 27.375 23.25 L 26.4375 23.8125 L 25.6875 24.375 L 25.3125 26.25 L 23.4375 25.875 L 22.6875 26.4375 L 21.9375 27.1875 L 21.1875 26.4375 L 20.625 26.0625 L 19.6875 26.25 L 18.5625 26.25 L 18.375 25.125 L 18.1875 24.375 L 17.4375 24 L 16.5 23.4375 L 16.875 22.3125 L 17.25 21.5625 L 16.875 20.8125 L 16.3125 19.875 L 18.1875 18.75 L 18.5625 16.875 L 19.6875 17.0625 L 20.625 17.0625 L 21.375 16.5 L 21.9375 15.75 M 21.9375 13.125 L 19.875 15.1875 L 17.0625 14.8125 L 16.5 17.625 L 13.875 18.9375 L 15.1875 21.5625 L 13.875 24.1875 L 16.5 25.5 L 17.0625 28.3125 L 19.875 27.9375 L 21.9375 30 L 24 27.9375 L 26.8125 28.3125 L 27.375 25.5 L 30 24.1875 L 28.6875 21.5625 L 30 18.9375 L 27.375 17.625 L 26.8125 14.8125 L 24 15.1875 Z M 21.9375 13.125 "/>
<path style=" stroke:none;fill-rule:nonzero;fill:rgb(47.058824%,54.509807%,61.176473%);fill-opacity:1;" d="M 15.5625 12.5625 L 18.9375 13.125 L 19.3125 13.125 L 21.1875 11.25 L 9.375 11.25 L 9.375 13.125 L 15.375 13.125 Z M 14.8125 16.3125 L 15 15 L 9.375 15 L 9.375 16.875 L 13.875 16.875 Z M 11.8125 18.75 L 9.375 18.75 L 9.375 20.625 L 12.75 20.625 Z M 11.8125 18.75 "/>
</g>
</g>
</svg>
