<?xml version="1.0" encoding="UTF-8"?>
<svg xmlns="http://www.w3.org/2000/svg" xmlns:xlink="http://www.w3.org/1999/xlink" width="16" height="16" viewBox="0 0 16 16" version="1.1">
<g transform="scale(0.53333333)">
<g id="surface42">
<path style=" stroke:none;fill-rule:nonzero;fill:rgb(76.078433%,90.980393%,100%);fill-opacity:1;" d="M 4.6875 27.1875 L 4.6875 0.9375 L 18.5625 0.9375 L 25.3125 7.875 L 25.3125 27.1875 Z M 4.6875 27.1875 "/>
<path style=" stroke:none;fill-rule:nonzero;fill:rgb(45.490196%,58.823532%,76.862746%);fill-opacity:1;" d="M 18.1875 1.875 L 24.375 8.25 L 24.375 26.25 L 5.625 26.25 L 5.625 1.875 L 18.1875 1.875 M 18.9375 0 L 3.75 0 L 3.75 28.125 L 26.25 28.125 L 26.25 7.5 Z M 18.9375 0 "/>
<path style=" stroke:none;fill-rule:nonzero;fill:rgb(100%,100%,100%);fill-opacity:1;" d="M 17.8125 8.4375 L 17.8125 0.9375 L 18.375 0.9375 L 25.3125 7.875 L 25.3125 8.4375 Z M 17.8125 8.4375 "/>
<path style=" stroke:none;fill-rule:nonzero;fill:rgb(45.490196%,58.823532%,76.862746%);fill-opacity:1;" d="M 18.75 2.625 L 23.625 7.5 L 18.75 7.5 L 18.75 2.625 M 18.75 0 L 16.875 0 L 16.875 9.375 L 26.25 9.375 L 26.25 7.5 Z M 18.75 0 "/>
<path style=" stroke:none;fill-rule:nonzero;fill:rgb(30.588236%,47.843137%,70.980394%);fill-opacity:1;" d="M 15.9375 20.625 C 15.375 20.625 15 20.25 15 19.6875 L 15 11.25 L 15.9375 11.25 C 18.375 11.25 19.875 12.5625 19.875 12.75 C 20.25 13.125 20.25 13.6875 19.875 14.0625 C 19.5 14.4375 18.9375 14.4375 18.5625 14.0625 C 18.5625 14.0625 18 13.5 16.875 13.3125 L 16.875 19.6875 C 16.875 20.25 16.5 20.625 15.9375 20.625 Z M 15.9375 20.625 "/>
<path style=" stroke:none;fill-rule:nonzero;fill:rgb(30.588236%,47.843137%,70.980394%);fill-opacity:1;" d="M 14.0625 16.875 C 12.507812 16.875 11.25 18.132812 11.25 19.6875 C 11.25 21.242188 12.507812 22.5 14.0625 22.5 C 15.617188 22.5 16.875 21.242188 16.875 19.6875 C 16.875 18.132812 15.617188 16.875 14.0625 16.875 Z M 14.0625 16.875 "/>
</g>
</g>
</svg>
