<?xml version="1.0" encoding="UTF-8"?>
<svg xmlns="http://www.w3.org/2000/svg" xmlns:xlink="http://www.w3.org/1999/xlink" width="16" height="16" viewBox="0 0 16 16" version="1.1">
<g transform="scale(1.33333333)">
<g id="surface1835">
<path style=" stroke:none;fill-rule:nonzero;fill:rgb(25.882354%,30.588236%,36.078432%);fill-opacity:1;" d="M 0.375 1.125 L 11.625 1.125 L 11.625 10.875 L 0.375 10.875 Z M 0.375 1.125 "/>
<path style=" stroke:none;fill-rule:nonzero;fill:rgb(68.627453%,77.254903%,84.705883%);fill-opacity:1;" d="M 11.25 1.5 L 11.25 10.5 L 0.75 10.5 L 0.75 1.5 L 11.25 1.5 M 12 0.75 L 0 0.75 L 0 11.25 L 12 11.25 Z M 12 0.75 "/>
<path style=" stroke:none;fill-rule:nonzero;fill:rgb(68.627453%,77.254903%,84.705883%);fill-opacity:1;" d="M 0 0.75 L 12 0.75 L 12 2.25 L 0 2.25 Z M 0 0.75 "/>
<path style=" stroke:none;fill-rule:nonzero;fill:rgb(72.941178%,87.843138%,74.117649%);fill-opacity:1;" d="M 6 8.25 L 9 8.25 L 9 9 L 6 9 Z M 3.074219 8.625 L 2.625 8.101562 L 4.125 6.75 L 2.625 5.398438 L 3.074219 4.875 L 5.25 6.75 Z M 3.074219 8.625 "/>
</g>
</g>
</svg>
