<?xml version="1.0" encoding="UTF-8"?>
<svg xmlns="http://www.w3.org/2000/svg" xmlns:xlink="http://www.w3.org/1999/xlink" width="16" height="16" viewBox="0 0 16 16" version="1.1">
<g transform="scale(0.71111111)">
<g id="surface2515">
<path style=" stroke:none;fill-rule:nonzero;fill:rgb(100%,100%,100%);fill-opacity:1;" d="M 0.6875 19.9375 L 0.6875 0.6875 L 13.566406 0.6875 L 17.1875 4.402344 L 17.1875 19.9375 Z M 0.6875 19.9375 "/>
<path style=" stroke:none;fill-rule:nonzero;fill:rgb(47.058824%,54.509807%,61.176473%);fill-opacity:1;" d="M 13.277344 1.375 L 16.5 4.683594 L 16.5 19.25 L 1.375 19.25 L 1.375 1.375 L 13.277344 1.375 M 13.855469 0 L 0 0 L 0 20.625 L 17.875 20.625 L 17.875 4.125 Z M 13.855469 0 "/>
<path style=" stroke:none;fill-rule:nonzero;fill:rgb(100%,100%,100%);fill-opacity:1;" d="M 13.0625 4.8125 L 13.0625 0.6875 L 13.519531 0.6875 L 17.1875 4.40625 L 17.1875 4.8125 Z M 13.0625 4.8125 "/>
<path style=" stroke:none;fill-rule:nonzero;fill:rgb(47.058824%,54.509807%,61.176473%);fill-opacity:1;" d="M 13.75 1.902344 L 15.941406 4.125 L 13.75 4.125 L 13.75 1.902344 M 13.804688 0 L 12.375 0 L 12.375 5.5 L 17.875 5.5 L 17.875 4.125 Z M 13.804688 0 "/>
<path style=" stroke:none;fill-rule:nonzero;fill:rgb(83.92157%,89.019608%,92.941177%);fill-opacity:1;" d="M 16.5 9.636719 L 16.5 19.25 L 12.375 19.25 L 13.75 20.625 L 17.875 20.625 L 17.875 11.011719 Z M 16.5 9.636719 "/>
<path style=" stroke:none;fill-rule:nonzero;fill:rgb(72.941178%,87.843138%,74.117649%);fill-opacity:1;" d="M 2.75 17.875 L 5.5 17.875 L 5.5 16.5 L 2.75 16.5 Z M 6.875 17.875 L 11 17.875 L 11 16.5 L 6.875 16.5 Z M 2.75 15.125 L 5.5 15.125 L 5.5 13.75 L 2.75 13.75 Z M 6.875 15.125 L 11 15.125 L 11 13.75 L 6.875 13.75 Z M 12.375 15.125 L 15.125 15.125 L 15.125 13.75 L 12.375 13.75 Z M 2.75 12.375 L 5.5 12.375 L 5.5 11 L 2.75 11 Z M 6.875 12.375 L 11 12.375 L 11 11 L 6.875 11 Z M 12.375 12.375 L 15.125 12.375 L 15.125 11 L 12.375 11 Z M 2.75 9.625 L 5.5 9.625 L 5.5 8.25 L 2.75 8.25 Z M 6.875 9.625 L 11 9.625 L 11 8.25 L 6.875 8.25 Z M 12.375 8.25 L 12.375 9.625 L 15.125 9.625 L 15.125 8.25 Z M 2.75 6.875 L 5.5 6.875 L 5.5 5.5 L 2.75 5.5 Z M 9.625 5.5 L 6.875 5.5 L 6.875 6.875 L 9.625 6.875 Z M 2.75 4.125 L 5.5 4.125 L 5.5 2.75 L 2.75 2.75 Z M 9.625 2.75 L 6.875 2.75 L 6.875 4.125 L 9.625 4.125 Z M 9.625 2.75 "/>
<path style=" stroke:none;fill-rule:nonzero;fill:rgb(36.862746%,61.176473%,46.27451%);fill-opacity:1;" d="M 0 4.125 L 17.875 4.125 L 17.875 13.75 L 0 13.75 Z M 0 4.125 "/>
<path style=" stroke:none;fill-rule:nonzero;fill:rgb(100%,100%,100%);fill-opacity:1;" d="M 5.457031 7.113281 L 5.457031 7.492188 L 4.195312 7.492188 L 4.195312 7.171875 C 4.195312 6.589844 3.65625 6.46875 3.417969 6.46875 C 3.101562 6.46875 2.636719 6.546875 2.636719 7.257812 L 2.636719 10.710938 C 2.636719 10.910156 2.644531 11.40625 3.40625 11.40625 C 4.121094 11.40625 4.195312 10.855469 4.195312 10.722656 L 4.195312 10.390625 L 5.457031 10.390625 L 5.457031 10.808594 C 5.457031 11.363281 4.898438 12.375 3.453125 12.375 C 3.214844 12.375 1.375 12.347656 1.375 10.78125 L 1.375 7.054688 C 1.375 6.363281 1.964844 5.5 3.429688 5.5 C 5.210938 5.5 5.457031 6.738281 5.457031 7.113281 Z M 8.894531 5.5 C 6.796875 5.5 6.730469 7.097656 6.730469 7.351562 C 6.730469 8.664062 7.558594 8.917969 8.105469 9.089844 L 9.007812 9.375 C 9.570312 9.574219 9.738281 9.609375 9.738281 10.402344 C 9.738281 11.21875 9.5 11.40625 8.820312 11.40625 C 8.101562 11.40625 7.929688 11.007812 7.929688 10.714844 L 7.929688 10.410156 L 6.667969 10.410156 L 6.667969 10.773438 C 6.667969 11.941406 8.003906 12.375 8.820312 12.375 C 10.515625 12.375 11 11.445312 11 10.390625 C 11 9.03125 10.410156 8.785156 9.675781 8.539062 L 8.710938 8.246094 C 7.980469 8.023438 8.023438 7.773438 8.011719 7.679688 C 8 7.585938 7.992188 7.476562 7.992188 7.34375 C 7.992188 6.460938 8.671875 6.46875 8.847656 6.46875 C 9.628906 6.46875 9.738281 7.066406 9.738281 7.285156 L 9.738281 7.503906 L 11 7.503906 L 11 7.027344 C 11 6.515625 10.445312 5.5 8.894531 5.5 Z M 15.164062 5.554688 L 14.148438 10.277344 L 14.125 10.277344 L 13.121094 5.554688 L 11.785156 5.554688 L 13.578125 12.320312 L 14.691406 12.320312 L 16.5 5.554688 Z M 15.164062 5.554688 "/>
<path style=" stroke:none;fill-rule:nonzero;fill:rgb(21.176471%,25.098041%,30.19608%);fill-opacity:1;" d="M 19.25 17.875 L 19.25 15.125 L 16.5 15.125 L 16.5 17.875 L 13.75 17.875 L 17.875 22 L 22 17.875 Z M 19.25 17.875 "/>
</g>
</g>
</svg>
