<?xml version="1.0" encoding="UTF-8"?>
<svg xmlns="http://www.w3.org/2000/svg" xmlns:xlink="http://www.w3.org/1999/xlink" width="16" height="16" viewBox="0 0 16 16" version="1.1">
<g transform="scale(0.71111111)">
<g id="surface2494">
<path style=" stroke:none;fill-rule:nonzero;fill:rgb(86.274511%,83.529413%,94.901961%);fill-opacity:1;" d="M 11 19.9375 C 6.601562 19.9375 3.4375 18.148438 3.4375 16.5 L 3.4375 5.5 L 18.5625 5.5 L 18.5625 16.5 C 18.5625 18.148438 15.398438 19.9375 11 19.9375 Z M 11 19.9375 "/>
<path style=" stroke:none;fill-rule:nonzero;fill:rgb(54.509807%,45.882353%,63.137257%);fill-opacity:1;" d="M 17.875 6.1875 L 17.875 16.5 C 17.875 17.601562 15.261719 19.25 11 19.25 C 6.738281 19.25 4.125 17.601562 4.125 16.5 L 4.125 6.1875 L 17.875 6.1875 M 19.25 4.8125 L 2.75 4.8125 C 2.75 4.8125 2.75 15.398438 2.75 16.5 C 2.75 18.835938 6.460938 20.625 11 20.625 C 15.539062 20.625 19.25 18.835938 19.25 16.5 C 19.25 15.398438 19.25 4.8125 19.25 4.8125 Z M 19.25 4.8125 "/>
<path style=" stroke:none;fill-rule:nonzero;fill:rgb(86.274511%,83.529413%,94.901961%);fill-opacity:1;" d="M 11 7.5625 C 6.738281 7.5625 3.4375 6.050781 3.4375 4.8125 C 3.4375 3.574219 6.738281 2.0625 11 2.0625 C 15.261719 2.0625 18.5625 3.574219 18.5625 4.8125 C 18.5625 6.050781 15.261719 7.5625 11 7.5625 Z M 11 7.5625 "/>
<path style=" stroke:none;fill-rule:nonzero;fill:rgb(54.509807%,45.882353%,63.137257%);fill-opacity:1;" d="M 11 2.75 C 15.539062 2.75 17.875 4.261719 17.875 4.8125 C 17.875 5.363281 15.539062 6.875 11 6.875 C 6.460938 6.875 4.125 5.363281 4.125 4.8125 C 4.125 4.261719 6.460938 2.75 11 2.75 M 11 1.375 C 6.460938 1.375 2.75 2.886719 2.75 4.8125 C 2.75 6.738281 6.460938 8.25 11 8.25 C 15.539062 8.25 19.25 6.738281 19.25 4.8125 C 19.25 2.886719 15.539062 1.375 11 1.375 Z M 11 12.375 C 6.324219 12.375 2.75 10.726562 2.75 8.523438 L 4.125 8.523438 C 4.125 9.625 6.738281 11 11 11 C 15.261719 11 17.875 9.625 17.875 8.523438 L 19.25 8.523438 C 19.25 10.726562 15.675781 12.375 11 12.375 Z M 11 16.5 C 6.324219 16.5 2.75 14.851562 2.75 12.648438 L 4.125 12.648438 C 4.125 13.75 6.738281 15.125 11 15.125 C 15.261719 15.125 17.875 13.75 17.875 12.648438 L 19.25 12.648438 C 19.25 14.851562 15.675781 16.5 11 16.5 Z M 11 16.5 "/>
<path style=" stroke:none;fill-rule:nonzero;fill:rgb(21.176471%,25.098041%,30.19608%);fill-opacity:1;" d="M 19.25 17.875 L 19.25 15.125 L 16.5 15.125 L 16.5 17.875 L 13.75 17.875 L 17.875 22 L 22 17.875 Z M 19.25 17.875 "/>
<path style=" stroke:none;fill-rule:nonzero;fill:rgb(86.274511%,83.529413%,94.901961%);fill-opacity:1;" d="M 13.75 17.875 L 16.5 17.875 L 16.5 15.125 L 19.25 15.125 C 19.25 14.710938 19.25 14.300781 19.25 13.75 L 17.875 13.75 L 17.875 12.375 L 15.125 12.375 L 15.125 16.5 L 13.199219 16.5 L 12.789062 18.835938 L 14.300781 20.351562 C 14.851562 20.210938 15.398438 20.074219 15.8125 19.9375 Z M 13.75 17.875 "/>
</g>
</g>
</svg>
