<svg xmlns="http://www.w3.org/2000/svg"  viewBox="0 0 16 16" width="30px" height="30px" baseProfile="basic"><path fill="#bae0bd" d="M0.5,14.5v-4c0-0.552,0.448-1,1-1h4c0.552,0,1,0.448,1,1v4c0,0.552-0.448,1-1,1h-4	C0.948,15.5,0.5,15.052,0.5,14.5z"/><path fill="#ffeea3" d="M0.5,6.5v-4c0-0.552,0.448-1,1-1h4c0.552,0,1,0.448,1,1v4c0,0.552-0.448,1-1,1h-4	C0.948,7.5,0.5,7.052,0.5,6.5z"/><path fill="#c2e8ff" d="M15.184,3.487l-2.671-2.671c-0.421-0.421-1.105-0.421-1.526,0L8.316,3.487	c-0.422,0.421-0.422,1.105,0,1.526l2.671,2.671c0.421,0.421,1.105,0.421,1.526,0l2.671-2.671	C15.605,4.592,15.605,3.908,15.184,3.487z"/><path fill="#ffb5d2" d="M8.5,14.5v-4c0-0.552,0.448-1,1-1h4c0.552,0,1,0.448,1,1v4c0,0.552-0.448,1-1,1h-4	C8.948,15.5,8.5,15.052,8.5,14.5z"/><path fill="#5e9c76" d="M5.5,16h-4C0.673,16,0,15.327,0,14.5v-4C0,9.673,0.673,9,1.5,9h4C6.327,9,7,9.673,7,10.5v4	C7,15.327,6.327,16,5.5,16z M1.5,10C1.225,10,1,10.225,1,10.5v4C1,14.775,1.225,15,1.5,15h4C5.775,15,6,14.775,6,14.5v-4	C6,10.225,5.775,10,5.5,10H1.5z"/><path fill="#ba9b48" d="M5.5,8h-4C0.673,8,0,7.327,0,6.5v-4C0,1.673,0.673,1,1.5,1h4C6.327,1,7,1.673,7,2.5v4	C7,7.327,6.327,8,5.5,8z M1.5,2C1.225,2,1,2.225,1,2.5v4C1,6.775,1.225,7,1.5,7h4C5.775,7,6,6.775,6,6.5v-4C6,2.225,5.775,2,5.5,2	H1.5z"/><path fill="#7496c4" d="M11.75,8.5c-0.422,0-0.818-0.164-1.116-0.463L7.963,5.366C7.664,5.068,7.5,4.672,7.5,4.25	s0.164-0.818,0.463-1.116l2.671-2.671c0.596-0.598,1.637-0.598,2.232,0l2.671,2.671C15.836,3.432,16,3.828,16,4.25	s-0.164,0.818-0.463,1.116l-2.671,2.671C12.568,8.336,12.172,8.5,11.75,8.5z M11.75,1c-0.154,0-0.3,0.061-0.409,0.17L8.67,3.841	C8.561,3.95,8.5,4.096,8.5,4.25s0.061,0.3,0.17,0.409l2.671,2.671c0.219,0.219,0.6,0.219,0.818,0l2.671-2.671	C14.939,4.55,15,4.404,15,4.25s-0.061-0.3-0.17-0.409l0,0L12.159,1.17C12.05,1.061,11.904,1,11.75,1z"/><path fill="#ea4c89" d="M13.5,16h-4C8.673,16,8,15.327,8,14.5v-4C8,9.673,8.673,9,9.5,9h4c0.827,0,1.5,0.673,1.5,1.5v4	C15,15.327,14.327,16,13.5,16z M9.5,10C9.225,10,9,10.225,9,10.5v4C9,14.775,9.225,15,9.5,15h4c0.275,0,0.5-0.225,0.5-0.5v-4	c0-0.275-0.225-0.5-0.5-0.5H9.5z"/></svg>