<?xml version="1.0" encoding="UTF-8"?>
<svg xmlns="http://www.w3.org/2000/svg" xmlns:xlink="http://www.w3.org/1999/xlink" width="16" height="16" viewBox="0 0 16 16" version="1.1">
<g transform="scale(0.53333333)">
<g id="surface34">
<path style=" stroke:none;fill-rule:nonzero;fill:rgb(85.882354%,69.01961%,39.607844%);fill-opacity:1;" d="M 0.9375 25.3125 L 0.9375 2.8125 L 8.988281 2.8125 L 12.738281 6.5625 L 29.0625 6.5625 L 29.0625 25.3125 Z M 0.9375 25.3125 "/>
<path style=" stroke:none;fill-rule:nonzero;fill:rgb(58.823532%,47.843137%,26.666668%);fill-opacity:1;" d="M 8.597656 3.75 L 11.800781 6.949219 L 12.347656 7.5 L 28.125 7.5 L 28.125 24.375 L 1.875 24.375 L 1.875 3.75 L 8.597656 3.75 M 9.375 1.875 L 0 1.875 L 0 26.25 L 30 26.25 L 30 5.625 L 13.125 5.625 Z M 9.375 1.875 "/>
<path style=" stroke:none;fill-rule:nonzero;fill:rgb(96.078432%,80.784315%,52.156866%);fill-opacity:1;" d="M 0.9375 27.1875 L 0.9375 8.4375 L 9.597656 8.4375 L 13.347656 6.5625 L 29.0625 6.5625 L 29.0625 27.1875 Z M 0.9375 27.1875 "/>
<path style=" stroke:none;fill-rule:nonzero;fill:rgb(58.823532%,47.843137%,26.666668%);fill-opacity:1;" d="M 28.125 7.5 L 28.125 26.25 L 1.875 26.25 L 1.875 9.375 L 9.816406 9.375 L 13.566406 7.5 L 28.125 7.5 M 30 5.625 L 13.125 5.625 L 9.375 7.5 L 0 7.5 L 0 28.125 L 30 28.125 Z M 30 5.625 "/>
<path style=" stroke:none;fill-rule:nonzero;fill:rgb(96.862745%,56.078434%,56.078434%);fill-opacity:1;" d="M 15.9375 10.992188 L 19.6875 13.132812 L 19.6875 15.257812 L 15.9375 13.117188 L 15.9375 19.6875 Z M 15.9375 10.992188 "/>
<path style=" stroke:none;fill-rule:nonzero;fill:rgb(78.039217%,26.274511%,26.274511%);fill-opacity:1;" d="M 15 9.375 L 15 20.625 L 16.875 20.625 L 16.875 14.730469 L 20.625 16.875 L 20.625 12.589844 Z M 15 9.375 "/>
<path style=" stroke:none;fill-rule:nonzero;fill:rgb(96.862745%,56.078434%,56.078434%);fill-opacity:1;" d="M 13.125 17.8125 C 11.570312 17.8125 10.3125 19.070312 10.3125 20.625 C 10.3125 22.179688 11.570312 23.4375 13.125 23.4375 C 14.679688 23.4375 15.9375 22.179688 15.9375 20.625 C 15.9375 19.070312 14.679688 17.8125 13.125 17.8125 Z M 13.125 17.8125 "/>
<path style=" stroke:none;fill-rule:nonzero;fill:rgb(78.039217%,26.274511%,26.274511%);fill-opacity:1;" d="M 13.125 18.75 C 14.15625 18.75 15 19.59375 15 20.625 C 15 21.65625 14.15625 22.5 13.125 22.5 C 12.09375 22.5 11.25 21.65625 11.25 20.625 C 11.25 19.59375 12.09375 18.75 13.125 18.75 M 13.125 16.875 C 11.054688 16.875 9.375 18.554688 9.375 20.625 C 9.375 22.695312 11.054688 24.375 13.125 24.375 C 15.195312 24.375 16.875 22.695312 16.875 20.625 C 16.875 18.554688 15.195312 16.875 13.125 16.875 Z M 13.125 16.875 "/>
</g>
</g>
</svg>
