<svg xmlns="http://www.w3.org/2000/svg"  viewBox="0 0 16 16" width="30px" height="30px"><rect width="1" height="7.111" x="7.63" y="1.944" fill="#66798f" transform="rotate(45.316 8.13 5.5)"/><rect width="7.111" height="1" x="4.575" y="10" fill="#66798f" transform="rotate(44.676 8.13 10.5)"/><path fill="#e1ebf2" d="M0.5,0.5h6v15h-6V0.5z"/><path fill="#66798f" d="M6,1v14H1V1H6 M7,0H0v16h7V0z"/><path fill="#4e7ab5" d="M3.5,11c-0.552,0-1,0.448-1,1s0.448,1,1,1s1-0.448,1-1S4.052,11,3.5,11z"/><path fill="#66798f" d="M2,5h3v1H2V5z M2,2h3v2H2V2z"/><path fill="#66798f" d="M11.5,5.254h2v1.313h-2V5.254z"/><path fill="#66798f" d="M14,7.066h-3V4.754h3V7.066z M12,6.066h1V5.754h-1V6.066z"/><path fill="#c2e8ff" d="M9.5,1.5h6v4h-6V1.5z"/><path fill="#66798f" d="M16,6H9V1h7V6z M10,5h5V2h-5V5z"/><path fill="#66798f" d="M15.562,8H9.438l0,0c0-0.552,0.448-1,1-1h4.125C15.115,7,15.562,7.448,15.562,8L15.562,8z"/><path fill="#66798f" d="M11.5,13.254h2v1.313h-2V13.254z"/><path fill="#66798f" d="M14,15.066h-3v-2.313h3V15.066z M12,14.066h1v-0.313h-1V14.066z"/><g><path fill="#c2e8ff" d="M9.5,9.5h6v4h-6V9.5z"/><path fill="#66798f" d="M16,14H9V9h7V14z M10,13h5v-3h-5V13z"/></g><path fill="#66798f" d="M15.562,16H9.438l0,0c0-0.552,0.448-1,1-1h4.125C15.115,15,15.562,15.448,15.562,16L15.562,16z"/></svg>