<?xml version="1.0" encoding="UTF-8"?>
<svg xmlns="http://www.w3.org/2000/svg" xmlns:xlink="http://www.w3.org/1999/xlink" width="24" height="24" viewBox="0 0 24 24" version="1.1">
<g transform="scale(1.33333333)">
<g id="surface912">
<path style=" stroke:none;fill-rule:nonzero;fill:rgb(30.588236%,47.843137%,70.980394%);fill-opacity:1;" d="M 1.980469 6.839844 L 1.621094 6.359375 L 4.800781 3.839844 L 7.738281 5.640625 L 10.738281 2.640625 L 13.738281 4.378906 L 15.960938 1.621094 L 16.441406 1.980469 L 13.859375 5.21875 L 10.859375 3.359375 L 7.859375 6.359375 L 4.800781 4.558594 Z M 1.980469 6.839844 "/>
<path style=" stroke:none;fill-rule:nonzero;fill:rgb(72.941178%,87.843138%,74.117649%);fill-opacity:1;" d="M 13.5 10.5 L 14.699219 10.5 L 14.699219 17.101562 L 13.5 17.101562 Z M 13.5 10.5 "/>
<path style=" stroke:none;fill-rule:nonzero;fill:rgb(36.862746%,61.176473%,46.27451%);fill-opacity:1;" d="M 14.398438 10.800781 L 14.398438 16.800781 L 13.800781 16.800781 L 13.800781 10.800781 L 14.398438 10.800781 M 15 10.199219 L 13.199219 10.199219 L 13.199219 17.398438 L 15 17.398438 Z M 15 10.199219 "/>
<path style=" stroke:none;fill-rule:nonzero;fill:rgb(72.941178%,87.843138%,74.117649%);fill-opacity:1;" d="M 11.101562 9.300781 L 12.300781 9.300781 L 12.300781 17.101562 L 11.101562 17.101562 Z M 11.101562 9.300781 "/>
<path style=" stroke:none;fill-rule:nonzero;fill:rgb(36.862746%,61.176473%,46.27451%);fill-opacity:1;" d="M 12 9.601562 L 12 16.800781 L 11.398438 16.800781 L 11.398438 9.601562 L 12 9.601562 M 12.601562 9 L 10.800781 9 L 10.800781 17.398438 L 12.601562 17.398438 Z M 12.601562 9 "/>
<path style=" stroke:none;fill-rule:nonzero;fill:rgb(72.941178%,87.843138%,74.117649%);fill-opacity:1;" d="M 8.699219 12.898438 L 9.898438 12.898438 L 9.898438 17.101562 L 8.699219 17.101562 Z M 8.699219 12.898438 "/>
<path style=" stroke:none;fill-rule:nonzero;fill:rgb(36.862746%,61.176473%,46.27451%);fill-opacity:1;" d="M 9.601562 13.199219 L 9.601562 16.800781 L 9 16.800781 L 9 13.199219 L 9.601562 13.199219 M 10.199219 12.601562 L 8.398438 12.601562 L 8.398438 17.398438 L 10.199219 17.398438 Z M 10.199219 12.601562 "/>
<path style=" stroke:none;fill-rule:nonzero;fill:rgb(72.941178%,87.843138%,74.117649%);fill-opacity:1;" d="M 6.300781 9.300781 L 7.5 9.300781 L 7.5 17.101562 L 6.300781 17.101562 Z M 6.300781 9.300781 "/>
<path style=" stroke:none;fill-rule:nonzero;fill:rgb(36.862746%,61.176473%,46.27451%);fill-opacity:1;" d="M 7.199219 9.601562 L 7.199219 16.800781 L 6.601562 16.800781 L 6.601562 9.601562 L 7.199219 9.601562 M 7.800781 9 L 6 9 L 6 17.398438 L 7.800781 17.398438 Z M 7.800781 9 "/>
<path style=" stroke:none;fill-rule:nonzero;fill:rgb(72.941178%,87.843138%,74.117649%);fill-opacity:1;" d="M 3.898438 11.699219 L 5.101562 11.699219 L 5.101562 17.101562 L 3.898438 17.101562 Z M 3.898438 11.699219 "/>
<path style=" stroke:none;fill-rule:nonzero;fill:rgb(36.862746%,61.176473%,46.27451%);fill-opacity:1;" d="M 4.800781 12 L 4.800781 16.800781 L 4.199219 16.800781 L 4.199219 12 L 4.800781 12 M 5.398438 11.398438 L 3.601562 11.398438 L 3.601562 17.398438 L 5.398438 17.398438 Z M 5.398438 11.398438 "/>
<path style=" stroke:none;fill-rule:nonzero;fill:rgb(72.941178%,87.843138%,74.117649%);fill-opacity:1;" d="M 1.5 12.898438 L 2.699219 12.898438 L 2.699219 17.101562 L 1.5 17.101562 Z M 1.5 12.898438 "/>
<path style=" stroke:none;fill-rule:nonzero;fill:rgb(36.862746%,61.176473%,46.27451%);fill-opacity:1;" d="M 2.398438 13.199219 L 2.398438 16.800781 L 1.800781 16.800781 L 1.800781 13.199219 L 2.398438 13.199219 M 3 12.601562 L 1.199219 12.601562 L 1.199219 17.398438 L 3 17.398438 Z M 3 12.601562 "/>
<path style=" stroke:none;fill-rule:nonzero;fill:rgb(72.941178%,87.843138%,74.117649%);fill-opacity:1;" d="M 15.898438 7.5 L 17.101562 7.5 L 17.101562 17.101562 L 15.898438 17.101562 Z M 15.898438 7.5 "/>
<path style=" stroke:none;fill-rule:nonzero;fill:rgb(36.862746%,61.176473%,46.27451%);fill-opacity:1;" d="M 16.800781 7.800781 L 16.800781 16.800781 L 16.199219 16.800781 L 16.199219 7.800781 L 16.800781 7.800781 M 17.398438 7.199219 L 15.601562 7.199219 L 15.601562 17.398438 L 17.398438 17.398438 Z M 17.398438 7.199219 "/>
<path style=" stroke:none;fill-rule:nonzero;fill:rgb(54.509807%,71.764708%,94.117647%);fill-opacity:1;" d="M 1.800781 5.699219 C 1.304688 5.699219 0.898438 6.101562 0.898438 6.601562 C 0.898438 7.097656 1.304688 7.5 1.800781 7.5 C 2.296875 7.5 2.699219 7.097656 2.699219 6.601562 C 2.699219 6.101562 2.296875 5.699219 1.800781 5.699219 Z M 1.800781 5.699219 "/>
<path style=" stroke:none;fill-rule:nonzero;fill:rgb(30.588236%,47.843137%,70.980394%);fill-opacity:1;" d="M 1.800781 6 C 2.160156 6 2.398438 6.238281 2.398438 6.601562 C 2.398438 6.960938 2.160156 7.199219 1.800781 7.199219 C 1.441406 7.199219 1.199219 6.960938 1.199219 6.601562 C 1.199219 6.238281 1.441406 6 1.800781 6 M 1.800781 5.398438 C 1.140625 5.398438 0.601562 5.941406 0.601562 6.601562 C 0.601562 7.261719 1.140625 7.800781 1.800781 7.800781 C 2.460938 7.800781 3 7.261719 3 6.601562 C 3 5.941406 2.460938 5.398438 1.800781 5.398438 Z M 1.800781 5.398438 "/>
<path style=" stroke:none;fill-rule:nonzero;fill:rgb(54.509807%,71.764708%,94.117647%);fill-opacity:1;" d="M 4.800781 3.300781 C 4.304688 3.300781 3.898438 3.703125 3.898438 4.199219 C 3.898438 4.695312 4.304688 5.101562 4.800781 5.101562 C 5.296875 5.101562 5.699219 4.695312 5.699219 4.199219 C 5.699219 3.703125 5.296875 3.300781 4.800781 3.300781 Z M 4.800781 3.300781 "/>
<path style=" stroke:none;fill-rule:nonzero;fill:rgb(30.588236%,47.843137%,70.980394%);fill-opacity:1;" d="M 4.800781 3.601562 C 5.160156 3.601562 5.398438 3.839844 5.398438 4.199219 C 5.398438 4.558594 5.160156 4.800781 4.800781 4.800781 C 4.441406 4.800781 4.199219 4.558594 4.199219 4.199219 C 4.199219 3.839844 4.441406 3.601562 4.800781 3.601562 M 4.800781 3 C 4.140625 3 3.601562 3.539062 3.601562 4.199219 C 3.601562 4.859375 4.140625 5.398438 4.800781 5.398438 C 5.460938 5.398438 6 4.859375 6 4.199219 C 6 3.539062 5.460938 3 4.800781 3 Z M 4.800781 3 "/>
<path style=" stroke:none;fill-rule:nonzero;fill:rgb(54.509807%,71.764708%,94.117647%);fill-opacity:1;" d="M 7.800781 5.101562 C 7.304688 5.101562 6.898438 5.503906 6.898438 6 C 6.898438 6.496094 7.304688 6.898438 7.800781 6.898438 C 8.296875 6.898438 8.699219 6.496094 8.699219 6 C 8.699219 5.503906 8.296875 5.101562 7.800781 5.101562 Z M 7.800781 5.101562 "/>
<path style=" stroke:none;fill-rule:nonzero;fill:rgb(30.588236%,47.843137%,70.980394%);fill-opacity:1;" d="M 7.800781 5.398438 C 8.160156 5.398438 8.398438 5.640625 8.398438 6 C 8.398438 6.359375 8.160156 6.601562 7.800781 6.601562 C 7.441406 6.601562 7.199219 6.359375 7.199219 6 C 7.199219 5.640625 7.441406 5.398438 7.800781 5.398438 M 7.800781 4.800781 C 7.140625 4.800781 6.601562 5.339844 6.601562 6 C 6.601562 6.660156 7.140625 7.199219 7.800781 7.199219 C 8.460938 7.199219 9 6.660156 9 6 C 9 5.339844 8.460938 4.800781 7.800781 4.800781 Z M 7.800781 4.800781 "/>
<path style=" stroke:none;fill-rule:nonzero;fill:rgb(54.509807%,71.764708%,94.117647%);fill-opacity:1;" d="M 10.800781 2.101562 C 10.304688 2.101562 9.898438 2.503906 9.898438 3 C 9.898438 3.496094 10.304688 3.898438 10.800781 3.898438 C 11.296875 3.898438 11.699219 3.496094 11.699219 3 C 11.699219 2.503906 11.296875 2.101562 10.800781 2.101562 Z M 10.800781 2.101562 "/>
<path style=" stroke:none;fill-rule:nonzero;fill:rgb(30.588236%,47.843137%,70.980394%);fill-opacity:1;" d="M 10.800781 2.398438 C 11.160156 2.398438 11.398438 2.640625 11.398438 3 C 11.398438 3.359375 11.160156 3.601562 10.800781 3.601562 C 10.441406 3.601562 10.199219 3.359375 10.199219 3 C 10.199219 2.640625 10.441406 2.398438 10.800781 2.398438 M 10.800781 1.800781 C 10.140625 1.800781 9.601562 2.339844 9.601562 3 C 9.601562 3.660156 10.140625 4.199219 10.800781 4.199219 C 11.460938 4.199219 12 3.660156 12 3 C 12 2.339844 11.460938 1.800781 10.800781 1.800781 Z M 10.800781 1.800781 "/>
<path style=" stroke:none;fill-rule:nonzero;fill:rgb(54.509807%,71.764708%,94.117647%);fill-opacity:1;" d="M 13.800781 3.898438 C 13.304688 3.898438 12.898438 4.304688 12.898438 4.800781 C 12.898438 5.296875 13.304688 5.699219 13.800781 5.699219 C 14.296875 5.699219 14.699219 5.296875 14.699219 4.800781 C 14.699219 4.304688 14.296875 3.898438 13.800781 3.898438 Z M 13.800781 3.898438 "/>
<path style=" stroke:none;fill-rule:nonzero;fill:rgb(30.588236%,47.843137%,70.980394%);fill-opacity:1;" d="M 13.800781 4.199219 C 14.160156 4.199219 14.398438 4.441406 14.398438 4.800781 C 14.398438 5.160156 14.160156 5.398438 13.800781 5.398438 C 13.441406 5.398438 13.199219 5.160156 13.199219 4.800781 C 13.199219 4.441406 13.441406 4.199219 13.800781 4.199219 M 13.800781 3.601562 C 13.140625 3.601562 12.601562 4.140625 12.601562 4.800781 C 12.601562 5.460938 13.140625 6 13.800781 6 C 14.460938 6 15 5.460938 15 4.800781 C 15 4.140625 14.460938 3.601562 13.800781 3.601562 Z M 13.800781 3.601562 "/>
<path style=" stroke:none;fill-rule:nonzero;fill:rgb(54.509807%,71.764708%,94.117647%);fill-opacity:1;" d="M 16.199219 0.898438 C 15.703125 0.898438 15.300781 1.304688 15.300781 1.800781 C 15.300781 2.296875 15.703125 2.699219 16.199219 2.699219 C 16.695312 2.699219 17.101562 2.296875 17.101562 1.800781 C 17.101562 1.304688 16.695312 0.898438 16.199219 0.898438 Z M 16.199219 0.898438 "/>
<path style=" stroke:none;fill-rule:nonzero;fill:rgb(30.588236%,47.843137%,70.980394%);fill-opacity:1;" d="M 16.199219 1.199219 C 16.558594 1.199219 16.800781 1.441406 16.800781 1.800781 C 16.800781 2.160156 16.558594 2.398438 16.199219 2.398438 C 15.839844 2.398438 15.601562 2.160156 15.601562 1.800781 C 15.601562 1.441406 15.839844 1.199219 16.199219 1.199219 M 16.199219 0.601562 C 15.539062 0.601562 15 1.140625 15 1.800781 C 15 2.460938 15.539062 3 16.199219 3 C 16.859375 3 17.398438 2.460938 17.398438 1.800781 C 17.398438 1.140625 16.859375 0.601562 16.199219 0.601562 Z M 16.199219 0.601562 "/>
</g>
</g>
</svg>
