<?xml version="1.0" encoding="UTF-8"?>
<svg xmlns="http://www.w3.org/2000/svg" xmlns:xlink="http://www.w3.org/1999/xlink" width="24" height="24" viewBox="0 0 24 24" version="1.1">
<g transform="scale(1.33333333)">
<g id="surface966">
<path style=" stroke:none;fill-rule:nonzero;fill:rgb(100%,100%,100%);fill-opacity:1;" d="M 3.300781 16.5 L 3.300781 1.5 L 11.28125 1.5 L 14.699219 4.921875 L 14.699219 16.5 Z M 3.300781 16.5 "/>
<path style=" stroke:none;fill-rule:nonzero;fill:rgb(47.058824%,54.509807%,61.176473%);fill-opacity:1;" d="M 11.160156 1.800781 L 14.398438 5.039062 L 14.398438 16.199219 L 3.601562 16.199219 L 3.601562 1.800781 L 11.160156 1.800781 M 11.398438 1.199219 L 3 1.199219 L 3 16.800781 L 15 16.800781 L 15 4.800781 Z M 11.398438 1.199219 "/>
<path style=" stroke:none;fill-rule:nonzero;fill:rgb(77.254903%,83.137256%,87.058824%);fill-opacity:1;" d="M 5.398438 7.199219 L 12.601562 7.199219 L 12.601562 7.800781 L 5.398438 7.800781 Z M 5.398438 9 L 11.398438 9 L 11.398438 9.601562 L 5.398438 9.601562 Z M 5.398438 10.800781 L 12.601562 10.800781 L 12.601562 11.398438 L 5.398438 11.398438 Z M 5.398438 12.601562 L 11.398438 12.601562 L 11.398438 13.199219 L 5.398438 13.199219 Z M 5.398438 12.601562 "/>
<path style=" stroke:none;fill-rule:nonzero;fill:rgb(100%,100%,100%);fill-opacity:1;" d="M 11.101562 5.101562 L 11.101562 1.5 L 11.28125 1.5 L 14.699219 4.921875 L 14.699219 5.101562 Z M 11.101562 5.101562 "/>
<path style=" stroke:none;fill-rule:nonzero;fill:rgb(47.058824%,54.509807%,61.176473%);fill-opacity:1;" d="M 11.398438 2.039062 L 14.160156 4.800781 L 11.398438 4.800781 L 11.398438 2.039062 M 11.398438 1.199219 L 10.800781 1.199219 L 10.800781 5.398438 L 15 5.398438 L 15 4.800781 Z M 11.398438 1.199219 "/>
<path style=" stroke:none;fill-rule:nonzero;fill:rgb(83.92157%,89.019608%,92.941177%);fill-opacity:1;" d="M 14.398438 9 L 14.398438 16.199219 L 10.199219 16.199219 L 10.199219 16.800781 L 15 16.800781 L 15 9 Z M 14.398438 9 "/>
<path style=" stroke:none;fill-rule:nonzero;fill:rgb(86.274511%,83.529413%,94.901961%);fill-opacity:1;" d="M 11.699219 10.5 L 17.699219 10.5 L 17.699219 17.699219 L 11.699219 17.699219 Z M 11.699219 10.5 "/>
<path style=" stroke:none;fill-rule:nonzero;fill:rgb(54.509807%,45.882353%,63.137257%);fill-opacity:1;" d="M 17.398438 10.800781 L 17.398438 17.398438 L 12 17.398438 L 12 10.800781 L 17.398438 10.800781 M 18 10.199219 L 11.398438 10.199219 L 11.398438 18 L 18 18 Z M 18 10.199219 "/>
<path style=" stroke:none;fill-rule:nonzero;fill:rgb(97.647059%,96.862745%,100%);fill-opacity:1;" d="M 13.199219 10.800781 L 13.800781 10.800781 L 13.800781 17.398438 L 13.199219 17.398438 Z M 13.199219 10.800781 "/>
<path style=" stroke:none;fill-rule:nonzero;fill:rgb(54.509807%,45.882353%,63.137257%);fill-opacity:1;" d="M 11.398438 12.601562 L 18 12.601562 L 18 13.199219 L 11.398438 13.199219 Z M 11.398438 15 L 18 15 L 18 15.601562 L 11.398438 15.601562 Z M 11.398438 15 "/>
</g>
</g>
</svg>
