<?xml version="1.0" encoding="UTF-8"?>
<svg xmlns="http://www.w3.org/2000/svg" xmlns:xlink="http://www.w3.org/1999/xlink" width="24" height="24" viewBox="0 0 24 24" version="1.1">
<g transform="scale(1.33333333)">
<g id="surface2013">
<path style=" stroke:none;fill-rule:nonzero;fill:rgb(100%,93.333334%,63.921571%);fill-opacity:1;" d="M 9 17.324219 C 4.410156 17.324219 0.675781 13.589844 0.675781 9 C 0.675781 4.410156 4.410156 0.675781 9 0.675781 C 13.589844 0.675781 17.324219 4.410156 17.324219 9 C 17.324219 13.589844 13.589844 17.324219 9 17.324219 Z M 9 17.324219 "/>
<path style=" stroke:none;fill-rule:nonzero;fill:rgb(72.941178%,60.784316%,28.235295%);fill-opacity:1;" d="M 9 0.898438 C 13.453125 0.898438 17.101562 4.546875 17.101562 9 C 17.101562 13.453125 13.453125 17.101562 9 17.101562 C 4.546875 17.101562 0.898438 13.453125 0.898438 9 C 0.898438 4.546875 4.546875 0.898438 9 0.898438 M 9 0.449219 C 4.273438 0.449219 0.449219 4.273438 0.449219 9 C 0.449219 13.726562 4.273438 17.550781 9 17.550781 C 13.726562 17.550781 17.550781 13.726562 17.550781 9 C 17.550781 4.273438 13.726562 0.449219 9 0.449219 Z M 9 0.449219 "/>
<path style=" stroke:none;fill-rule:nonzero;fill:rgb(21.176471%,25.098041%,30.19608%);fill-opacity:1;" d="M 9 11.476562 C 8.59375 11.476562 8.234375 11.835938 8.234375 12.238281 C 8.234375 12.644531 8.59375 13.003906 9 13.003906 C 9.40625 13.003906 9.765625 12.644531 9.765625 12.238281 C 9.765625 11.835938 9.40625 11.476562 9 11.476562 Z M 8.371094 4.90625 L 9.585938 4.90625 L 9.585938 10.394531 L 8.371094 10.394531 Z M 8.371094 4.90625 "/>
</g>
</g>
</svg>
