<?xml version="1.0" encoding="UTF-8"?>
<svg xmlns="http://www.w3.org/2000/svg" xmlns:xlink="http://www.w3.org/1999/xlink" width="24" height="24" viewBox="0 0 24 24" version="1.1">
<g transform="scale(1.33333333)">
<g id="surface1120">
<path style=" stroke:none;fill-rule:nonzero;fill:rgb(54.509807%,71.764708%,94.117647%);fill-opacity:1;" d="M 9 16.5 C 8.679688 16.5 8.390625 16.332031 8.226562 16.050781 L 8.136719 15.898438 L 1.199219 15.898438 C 1.035156 15.898438 0.898438 15.765625 0.898438 15.601562 L 0.898438 4.199219 C 0.898438 4.035156 1.035156 3.898438 1.199219 3.898438 L 16.800781 3.898438 C 16.964844 3.898438 17.101562 4.035156 17.101562 4.199219 L 17.101562 15.601562 C 17.101562 15.765625 16.964844 15.898438 16.800781 15.898438 L 9.863281 15.898438 L 9.773438 16.050781 C 9.609375 16.332031 9.320312 16.5 9 16.5 Z M 9 16.5 "/>
<path style=" stroke:none;fill-rule:nonzero;fill:rgb(30.588236%,47.843137%,70.980394%);fill-opacity:1;" d="M 16.800781 4.199219 L 16.800781 15.601562 L 9.6875 15.601562 L 9.515625 15.898438 C 9.40625 16.085938 9.210938 16.199219 9 16.199219 C 8.789062 16.199219 8.59375 16.085938 8.484375 15.898438 L 8.3125 15.601562 L 1.199219 15.601562 L 1.199219 4.199219 L 16.800781 4.199219 M 16.800781 3.601562 L 1.199219 3.601562 C 0.867188 3.601562 0.601562 3.867188 0.601562 4.199219 L 0.601562 15.601562 C 0.601562 15.929688 0.867188 16.199219 1.199219 16.199219 L 7.964844 16.199219 C 8.171875 16.558594 8.554688 16.800781 9 16.800781 C 9.445312 16.800781 9.824219 16.558594 10.035156 16.199219 L 16.800781 16.199219 C 17.132812 16.199219 17.398438 15.929688 17.398438 15.601562 L 17.398438 4.199219 C 17.398438 3.867188 17.132812 3.601562 16.800781 3.601562 Z M 16.800781 3.601562 "/>
<path style=" stroke:none;fill-rule:nonzero;fill:rgb(100%,100%,100%);fill-opacity:1;" d="M 9.003906 15.222656 C 8.535156 14.878906 7.234375 14.101562 5.101562 14.101562 C 3.320312 14.101562 2.121094 14.640625 1.5 15.019531 L 1.5 2.542969 C 1.839844 2.289062 3.054688 1.5 5.101562 1.5 C 7.53125 1.5 8.785156 2.609375 8.796875 2.621094 L 9 2.804688 L 9.199219 2.621094 C 9.214844 2.613281 10.480469 1.5 12.898438 1.5 C 14.9375 1.5 16.160156 2.289062 16.5 2.542969 L 16.5 15.03125 C 15.867188 14.652344 14.644531 14.101562 12.898438 14.101562 C 10.828125 14.101562 9.488281 14.882812 9.003906 15.222656 Z M 9.003906 15.222656 "/>
<path style=" stroke:none;fill-rule:nonzero;fill:rgb(47.058824%,54.509807%,61.176473%);fill-opacity:1;" d="M 12.898438 1.800781 C 14.679688 1.800781 15.777344 2.40625 16.199219 2.695312 L 16.199219 14.53125 C 15.472656 14.175781 14.355469 13.800781 12.898438 13.800781 C 10.960938 13.800781 9.628906 14.464844 9.007812 14.859375 C 8.394531 14.457031 7.089844 13.800781 5.101562 13.800781 C 3.621094 13.800781 2.519531 14.164062 1.800781 14.515625 L 1.800781 2.695312 C 2.222656 2.40625 3.316406 1.800781 5.101562 1.800781 C 7.398438 1.800781 8.550781 2.800781 8.59375 2.84375 L 8.996094 3.203125 L 9.402344 2.847656 C 9.449219 2.804688 10.609375 1.800781 12.898438 1.800781 M 12.898438 1.199219 C 10.320312 1.199219 9 2.398438 9 2.398438 C 9 2.398438 7.691406 1.199219 5.101562 1.199219 C 2.507812 1.199219 1.199219 2.398438 1.199219 2.398438 L 1.199219 15.601562 C 1.199219 15.601562 2.503906 14.398438 5.101562 14.398438 C 7.695312 14.398438 9 15.601562 9 15.601562 C 9 15.601562 10.390625 14.398438 12.898438 14.398438 C 15.410156 14.398438 16.800781 15.601562 16.800781 15.601562 L 16.800781 2.398438 C 16.800781 2.398438 15.480469 1.199219 12.898438 1.199219 Z M 12.898438 1.199219 "/>
<path style=" stroke:none;fill-rule:nonzero;fill:rgb(88.235295%,92.156863%,94.901961%);fill-opacity:1;" d="M 16.199219 14.53125 C 15.472656 14.175781 14.355469 13.800781 12.898438 13.800781 C 11.441406 13.800781 10.332031 14.097656 9 14.851562 L 9 3.195312 C 9.976562 2.28125 11.121094 1.800781 12.898438 1.800781 C 14.679688 1.800781 15.777344 2.40625 16.199219 2.695312 Z M 16.199219 14.53125 "/>
<path style=" stroke:none;fill-rule:nonzero;fill:rgb(21.176471%,25.098041%,30.19608%);fill-opacity:1;" d="M 12 7.199219 L 13.199219 7.199219 L 13.199219 11.398438 L 12 11.398438 Z M 12.601562 4.800781 C 12.269531 4.800781 12 5.070312 12 5.398438 C 12 5.730469 12.269531 6 12.601562 6 C 12.929688 6 13.199219 5.730469 13.199219 5.398438 C 13.199219 5.070312 12.929688 4.800781 12.601562 4.800781 Z M 12.601562 4.800781 "/>
<path style=" stroke:none;fill-rule:nonzero;fill:rgb(21.176471%,25.098041%,30.19608%);fill-opacity:1;" d="M 11.398438 7.199219 L 13.199219 7.199219 L 13.199219 7.800781 L 11.398438 7.800781 Z M 11.398438 10.800781 L 13.800781 10.800781 L 13.800781 11.398438 L 11.398438 11.398438 Z M 11.398438 10.800781 "/>
</g>
</g>
</svg>
