<?xml version="1.0" encoding="UTF-8"?>
<svg xmlns="http://www.w3.org/2000/svg" xmlns:xlink="http://www.w3.org/1999/xlink" width="24" height="24" viewBox="0 0 24 24" version="1.1">
<g transform="scale(1.33333333)">
<g id="surface1006">
<path style=" stroke:none;fill-rule:nonzero;fill:rgb(85.882354%,94.901961%,100%);fill-opacity:1;" d="M 1.5 17.101562 L 1.5 6.765625 L 9 2.152344 L 16.5 6.765625 L 16.5 17.101562 Z M 1.5 17.101562 "/>
<path style=" stroke:none;fill-rule:nonzero;fill:rgb(45.490196%,58.823532%,76.862746%);fill-opacity:1;" d="M 9 2.503906 L 16.199219 6.933594 L 16.199219 16.800781 L 1.800781 16.800781 L 1.800781 6.933594 L 9 2.503906 M 9 1.800781 L 1.199219 6.601562 L 1.199219 17.398438 L 16.800781 17.398438 L 16.800781 6.601562 Z M 9 1.800781 "/>
<path style=" stroke:none;fill-rule:nonzero;fill:rgb(70.980394%,86.666667%,96.078432%);fill-opacity:1;" d="M 1.800781 15 L 16.199219 15 L 16.199219 16.800781 L 1.800781 16.800781 Z M 1.800781 15 "/>
<path style=" stroke:none;fill-rule:nonzero;fill:rgb(96.862745%,56.078434%,56.078434%);fill-opacity:1;" d="M 9 2.785156 L 0.898438 7.769531 L 0.898438 5.9375 L 9 0.953125 L 17.101562 5.9375 L 17.101562 7.769531 Z M 9 2.785156 "/>
<path style=" stroke:none;fill-rule:nonzero;fill:rgb(78.039217%,26.274511%,26.274511%);fill-opacity:1;" d="M 9 1.304688 L 16.800781 6.105469 L 16.800781 7.234375 L 9.3125 2.628906 L 9 2.433594 L 8.683594 2.628906 L 1.199219 7.234375 L 1.199219 6.105469 L 9 1.304688 M 9 0.601562 L 0.601562 5.769531 L 0.601562 8.308594 L 9 3.136719 L 17.398438 8.308594 L 17.398438 5.769531 Z M 9 0.601562 "/>
<path style=" stroke:none;fill-rule:nonzero;fill:rgb(100%,76.862746%,61.176473%);fill-opacity:1;" d="M 6.898438 9.898438 L 11.101562 9.898438 L 11.101562 17.101562 L 6.898438 17.101562 Z M 6.898438 9.898438 "/>
<path style=" stroke:none;fill-rule:nonzero;fill:rgb(63.137257%,41.568628%,29.019609%);fill-opacity:1;" d="M 10.800781 10.199219 L 10.800781 16.800781 L 7.199219 16.800781 L 7.199219 10.199219 L 10.800781 10.199219 M 11.398438 9.601562 L 6.601562 9.601562 L 6.601562 17.398438 L 11.398438 17.398438 Z M 11.398438 9.601562 "/>
<path style=" stroke:none;fill-rule:nonzero;fill:rgb(63.137257%,41.568628%,29.019609%);fill-opacity:1;" d="M 9.898438 13.199219 C 9.734375 13.199219 9.601562 13.335938 9.601562 13.5 C 9.601562 13.664062 9.734375 13.800781 9.898438 13.800781 C 10.066406 13.800781 10.199219 13.664062 10.199219 13.5 C 10.199219 13.335938 10.066406 13.199219 9.898438 13.199219 Z M 9.898438 13.199219 "/>
</g>
</g>
</svg>
