<?xml version="1.0" encoding="UTF-8"?>
<svg xmlns="http://www.w3.org/2000/svg" xmlns:xlink="http://www.w3.org/1999/xlink" width="24" height="24" viewBox="0 0 24 24" version="1.1">
<g transform="scale(1.33333333)">
<g id="surface1092">
<path style=" stroke:none;fill-rule:nonzero;fill:rgb(100%,100%,100%);fill-opacity:1;" d="M 2.101562 3.300781 L 17.101562 3.300781 L 17.101562 17.101562 L 2.101562 17.101562 Z M 2.101562 3.300781 "/>
<path style=" stroke:none;fill-rule:nonzero;fill:rgb(47.058824%,54.509807%,61.176473%);fill-opacity:1;" d="M 16.800781 3.601562 L 16.800781 16.800781 L 2.398438 16.800781 L 2.398438 3.601562 L 16.800781 3.601562 M 17.398438 3 L 1.800781 3 L 1.800781 17.398438 L 17.398438 17.398438 Z M 17.398438 3 "/>
<path style=" stroke:none;fill-rule:nonzero;fill:rgb(96.862745%,56.078434%,56.078434%);fill-opacity:1;" d="M 2.101562 3.300781 L 17.101562 3.300781 L 17.101562 5.699219 L 2.101562 5.699219 Z M 2.101562 3.300781 "/>
<path style=" stroke:none;fill-rule:nonzero;fill:rgb(78.039217%,26.274511%,26.274511%);fill-opacity:1;" d="M 16.800781 3.601562 L 16.800781 5.398438 L 2.398438 5.398438 L 2.398438 3.601562 L 16.800781 3.601562 M 17.398438 3 L 1.800781 3 L 1.800781 6 L 17.398438 6 Z M 17.398438 3 "/>
<path style=" stroke:none;fill-rule:nonzero;fill:rgb(77.254903%,83.137256%,87.058824%);fill-opacity:1;" d="M 6.601562 7.800781 L 7.800781 7.800781 L 7.800781 9 L 6.601562 9 Z M 9 7.800781 L 10.199219 7.800781 L 10.199219 9 L 9 9 Z M 11.398438 7.800781 L 12.601562 7.800781 L 12.601562 9 L 11.398438 9 Z M 13.800781 7.800781 L 15 7.800781 L 15 9 L 13.800781 9 Z M 4.199219 10.199219 L 5.398438 10.199219 L 5.398438 11.398438 L 4.199219 11.398438 Z M 6.601562 10.199219 L 7.800781 10.199219 L 7.800781 11.398438 L 6.601562 11.398438 Z M 9 10.199219 L 10.199219 10.199219 L 10.199219 11.398438 L 9 11.398438 Z M 11.398438 10.199219 L 12.601562 10.199219 L 12.601562 11.398438 L 11.398438 11.398438 Z M 13.800781 10.199219 L 15 10.199219 L 15 11.398438 L 13.800781 11.398438 Z M 4.199219 12.601562 L 5.398438 12.601562 L 5.398438 13.800781 L 4.199219 13.800781 Z M 6.601562 12.601562 L 7.800781 12.601562 L 7.800781 13.800781 L 6.601562 13.800781 Z M 9 12.601562 L 10.199219 12.601562 L 10.199219 13.800781 L 9 13.800781 Z M 11.398438 12.601562 L 12.601562 12.601562 L 12.601562 13.800781 L 11.398438 13.800781 Z M 11.398438 12.601562 "/>
<path style=" stroke:none;fill-rule:nonzero;fill:rgb(88.235295%,92.156863%,94.901961%);fill-opacity:1;" d="M 2.398438 15.601562 L 16.800781 15.601562 L 16.800781 16.800781 L 2.398438 16.800781 Z M 2.398438 15.601562 "/>
<path style=" stroke:none;fill-rule:nonzero;fill:rgb(54.509807%,71.764708%,94.117647%);fill-opacity:1;" d="M 5.398438 0.898438 C 2.914062 0.898438 0.898438 2.914062 0.898438 5.398438 C 0.898438 7.886719 2.914062 9.898438 5.398438 9.898438 C 7.886719 9.898438 9.898438 7.886719 9.898438 5.398438 C 9.898438 2.914062 7.886719 0.898438 5.398438 0.898438 Z M 5.398438 0.898438 "/>
<path style=" stroke:none;fill-rule:nonzero;fill:rgb(30.588236%,47.843137%,70.980394%);fill-opacity:1;" d="M 5.398438 1.199219 C 7.738281 1.199219 9.601562 3.058594 9.601562 5.398438 C 9.601562 7.738281 7.738281 9.601562 5.398438 9.601562 C 3.058594 9.601562 1.199219 7.738281 1.199219 5.398438 C 1.199219 3.058594 3.058594 1.199219 5.398438 1.199219 M 5.398438 0.601562 C 2.761719 0.601562 0.601562 2.761719 0.601562 5.398438 C 0.601562 8.039062 2.761719 10.199219 5.398438 10.199219 C 8.039062 10.199219 10.199219 8.039062 10.199219 5.398438 C 10.199219 2.761719 8.039062 0.601562 5.398438 0.601562 Z M 5.398438 0.601562 "/>
<path style=" stroke:none;fill-rule:nonzero;fill:rgb(100%,100%,100%);fill-opacity:1;" d="M 5.398438 1.800781 C 3.410156 1.800781 1.800781 3.410156 1.800781 5.398438 C 1.800781 7.386719 3.410156 9 5.398438 9 C 7.386719 9 9 7.386719 9 5.398438 C 9 3.410156 7.386719 1.800781 5.398438 1.800781 Z M 5.398438 1.800781 "/>
<path style=" stroke:none;fill-rule:nonzero;fill:rgb(21.176471%,25.098041%,30.19608%);fill-opacity:1;" d="M 5.398438 4.800781 C 5.070312 4.800781 4.800781 5.070312 4.800781 5.398438 C 4.800781 5.730469 5.070312 6 5.398438 6 C 5.730469 6 6 5.730469 6 5.398438 C 6 5.070312 5.730469 4.800781 5.398438 4.800781 Z M 5.398438 4.800781 "/>
<path style=" stroke:none;fill-rule:nonzero;fill:rgb(21.176471%,25.098041%,30.19608%);fill-opacity:1;" d="M 6.539062 7.320312 L 5.039062 5.460938 L 6.121094 2.578125 L 6.71875 2.761719 L 5.761719 5.339844 L 7.019531 6.898438 Z M 6.539062 7.320312 "/>
</g>
</g>
</svg>
