<?xml version="1.0" encoding="UTF-8"?>
<svg xmlns="http://www.w3.org/2000/svg" xmlns:xlink="http://www.w3.org/1999/xlink" width="24" height="24" viewBox="0 0 24 24" version="1.1">
<g transform="scale(1.33333333)">
<g id="surface1054">
<path style=" stroke:none;fill-rule:nonzero;fill:rgb(88.235295%,92.156863%,94.901961%);fill-opacity:1;" d="M 9.300781 0.898438 L 17.101562 0.898438 L 17.101562 17.101562 L 9.300781 17.101562 Z M 9.300781 0.898438 "/>
<path style=" stroke:none;fill-rule:nonzero;fill:rgb(40.000001%,47.450981%,56.078434%);fill-opacity:1;" d="M 16.800781 1.199219 L 16.800781 16.800781 L 9.601562 16.800781 L 9.601562 1.199219 L 16.800781 1.199219 M 17.398438 0.601562 L 9 0.601562 L 9 17.398438 L 17.398438 17.398438 Z M 17.398438 0.601562 "/>
<path style=" stroke:none;fill-rule:nonzero;fill:rgb(54.509807%,71.764708%,94.117647%);fill-opacity:1;" d="M 13.199219 12.300781 C 12.703125 12.300781 12.300781 12.703125 12.300781 13.199219 C 12.300781 13.695312 12.703125 14.101562 13.199219 14.101562 C 13.695312 14.101562 14.101562 13.695312 14.101562 13.199219 C 14.101562 12.703125 13.695312 12.300781 13.199219 12.300781 Z M 13.199219 12.300781 "/>
<path style=" stroke:none;fill-rule:nonzero;fill:rgb(30.588236%,47.843137%,70.980394%);fill-opacity:1;" d="M 13.199219 12.601562 C 13.53125 12.601562 13.800781 12.867188 13.800781 13.199219 C 13.800781 13.53125 13.53125 13.800781 13.199219 13.800781 C 12.867188 13.800781 12.601562 13.53125 12.601562 13.199219 C 12.601562 12.867188 12.867188 12.601562 13.199219 12.601562 M 13.199219 12 C 12.539062 12 12 12.539062 12 13.199219 C 12 13.863281 12.539062 14.398438 13.199219 14.398438 C 13.863281 14.398438 14.398438 13.863281 14.398438 13.199219 C 14.398438 12.539062 13.863281 12 13.199219 12 Z M 13.199219 12 "/>
<path style=" stroke:none;fill-rule:nonzero;fill:rgb(69.01961%,75.686276%,83.137256%);fill-opacity:1;" d="M 10.5 5.699219 L 15.898438 5.699219 L 15.898438 6.898438 L 10.5 6.898438 Z M 10.5 5.699219 "/>
<path style=" stroke:none;fill-rule:nonzero;fill:rgb(40.000001%,47.450981%,56.078434%);fill-opacity:1;" d="M 15.601562 6 L 15.601562 6.601562 L 10.800781 6.601562 L 10.800781 6 L 15.601562 6 M 16.199219 5.398438 L 10.199219 5.398438 L 10.199219 7.199219 L 16.199219 7.199219 Z M 16.199219 5.398438 "/>
<path style=" stroke:none;fill-rule:nonzero;fill:rgb(21.176471%,25.098041%,30.19608%);fill-opacity:1;" d="M 8.359375 8.398438 C 8.382812 8.398438 8.398438 8.417969 8.398438 8.441406 L 8.398438 12.558594 C 8.398438 12.582031 8.382812 12.601562 8.359375 12.601562 L 4.84375 12.601562 C 4.820312 12.601562 4.800781 12.582031 4.800781 12.558594 L 4.800781 8.441406 C 4.800781 8.417969 4.820312 8.398438 4.84375 8.398438 L 8.359375 8.398438 M 8.359375 7.800781 L 4.84375 7.800781 C 4.488281 7.800781 4.199219 8.085938 4.199219 8.441406 L 4.199219 12.558594 C 4.199219 12.914062 4.488281 13.199219 4.84375 13.199219 L 8.359375 13.199219 C 8.710938 13.199219 9 12.914062 9 12.558594 L 9 8.441406 C 9 8.085938 8.710938 7.800781 8.359375 7.800781 Z M 8.359375 7.800781 "/>
<path style=" stroke:none;fill-rule:nonzero;fill:rgb(69.01961%,75.686276%,83.137256%);fill-opacity:1;" d="M 10.5 2.699219 L 15.898438 2.699219 L 15.898438 4.5 L 10.5 4.5 Z M 10.5 2.699219 "/>
<path style=" stroke:none;fill-rule:nonzero;fill:rgb(40.000001%,47.450981%,56.078434%);fill-opacity:1;" d="M 15.601562 3 L 15.601562 4.199219 L 10.800781 4.199219 L 10.800781 3 L 15.601562 3 M 16.199219 2.398438 L 10.199219 2.398438 L 10.199219 4.800781 L 16.199219 4.800781 Z M 16.199219 2.398438 "/>
<path style=" stroke:none;fill-rule:nonzero;fill:rgb(96.862745%,42.745098%,42.745098%);fill-opacity:1;" d="M 0.898438 11.101562 L 12.300781 11.101562 L 12.300781 17.101562 L 0.898438 17.101562 Z M 0.898438 11.101562 "/>
<path style=" stroke:none;fill-rule:nonzero;fill:rgb(78.039217%,26.274511%,26.274511%);fill-opacity:1;" d="M 12 11.398438 L 12 16.800781 L 1.199219 16.800781 L 1.199219 11.398438 L 12 11.398438 M 12.601562 10.800781 L 0.601562 10.800781 L 0.601562 17.398438 L 12.601562 17.398438 Z M 12.601562 10.800781 "/>
<path style=" stroke:none;fill-rule:nonzero;fill:rgb(96.862745%,56.078434%,56.078434%);fill-opacity:1;" d="M 0.898438 11.699219 L 0.898438 10.199219 C 0.898438 9.703125 1.304688 9.300781 1.800781 9.300781 L 11.398438 9.300781 C 11.898438 9.300781 12.300781 9.703125 12.300781 10.199219 L 12.300781 11.699219 Z M 0.898438 11.699219 "/>
<path style=" stroke:none;fill-rule:nonzero;fill:rgb(78.039217%,26.274511%,26.274511%);fill-opacity:1;" d="M 11.398438 9.601562 C 11.730469 9.601562 12 9.867188 12 10.199219 L 12 11.398438 L 1.199219 11.398438 L 1.199219 10.199219 C 1.199219 9.867188 1.46875 9.601562 1.800781 9.601562 L 11.398438 9.601562 M 11.398438 9 L 1.800781 9 C 1.136719 9 0.601562 9.539062 0.601562 10.199219 L 0.601562 12 L 12.601562 12 L 12.601562 10.199219 C 12.601562 9.539062 12.0625 9 11.398438 9 Z M 11.398438 9 "/>
<path style=" stroke:none;fill-rule:nonzero;fill:rgb(69.01961%,75.686276%,83.137256%);fill-opacity:1;" d="M 2.699219 11.101562 L 3.898438 11.101562 L 3.898438 12.300781 L 2.699219 12.300781 Z M 2.699219 11.101562 "/>
<path style=" stroke:none;fill-rule:nonzero;fill:rgb(40.000001%,47.450981%,56.078434%);fill-opacity:1;" d="M 3.601562 11.398438 L 3.601562 12 L 3 12 L 3 11.398438 L 3.601562 11.398438 M 4.199219 10.800781 L 2.398438 10.800781 L 2.398438 12.601562 L 4.199219 12.601562 Z M 4.199219 10.800781 "/>
<path style=" stroke:none;fill-rule:nonzero;fill:rgb(69.01961%,75.686276%,83.137256%);fill-opacity:1;" d="M 9.300781 11.101562 L 10.5 11.101562 L 10.5 12.300781 L 9.300781 12.300781 Z M 9.300781 11.101562 "/>
<path style=" stroke:none;fill-rule:nonzero;fill:rgb(40.000001%,47.450981%,56.078434%);fill-opacity:1;" d="M 10.199219 11.398438 L 10.199219 12 L 9.601562 12 L 9.601562 11.398438 L 10.199219 11.398438 M 10.800781 10.800781 L 9 10.800781 L 9 12.601562 L 10.800781 12.601562 Z M 10.800781 10.800781 "/>
</g>
</g>
</svg>
