<?xml version="1.0" encoding="UTF-8"?>
<svg xmlns="http://www.w3.org/2000/svg" xmlns:xlink="http://www.w3.org/1999/xlink" width="16" height="16" viewBox="0 0 16 16" version="1.1">
<g transform="scale(1.33333333)">
<g id="surface1246">
<path style=" stroke:none;fill-rule:nonzero;fill:rgb(100%,100%,100%);fill-opacity:1;" d="M 1.125 1.875 L 11.625 1.875 L 11.625 11.625 L 1.125 11.625 Z M 1.125 1.875 "/>
<path style=" stroke:none;fill-rule:nonzero;fill:rgb(47.058824%,54.509807%,61.176473%);fill-opacity:1;" d="M 11.25 2.25 L 11.25 11.25 L 1.5 11.25 L 1.5 2.25 L 11.25 2.25 M 12 1.5 L 0.75 1.5 L 0.75 12 L 12 12 Z M 12 1.5 "/>
<path style=" stroke:none;fill-rule:nonzero;fill:rgb(88.235295%,92.156863%,94.901961%);fill-opacity:1;" d="M 1.5 10.5 L 11.25 10.5 L 11.25 11.25 L 1.5 11.25 Z M 1.5 10.5 "/>
<path style=" stroke:none;fill-rule:nonzero;fill:rgb(77.254903%,83.137256%,87.058824%);fill-opacity:1;" d="M 4.5 5.25 L 5.25 5.25 L 5.25 6 L 4.5 6 Z M 6 5.25 L 6.75 5.25 L 6.75 6 L 6 6 Z M 7.5 5.25 L 8.25 5.25 L 8.25 6 L 7.5 6 Z M 9 5.25 L 9.75 5.25 L 9.75 6 L 9 6 Z M 3 6.75 L 3.75 6.75 L 3.75 7.5 L 3 7.5 Z M 4.5 6.75 L 5.25 6.75 L 5.25 7.5 L 4.5 7.5 Z M 6 6.75 L 6.75 6.75 L 6.75 7.5 L 6 7.5 Z M 7.5 6.75 L 8.25 6.75 L 8.25 7.5 L 7.5 7.5 Z M 9 6.75 L 9.75 6.75 L 9.75 7.5 L 9 7.5 Z M 3 8.25 L 3.75 8.25 L 3.75 9 L 3 9 Z M 4.5 8.25 L 5.25 8.25 L 5.25 9 L 4.5 9 Z M 6 8.25 L 6.75 8.25 L 6.75 9 L 6 9 Z M 7.5 8.25 L 8.25 8.25 L 8.25 9 L 7.5 9 Z M 7.5 8.25 "/>
<path style=" stroke:none;fill-rule:nonzero;fill:rgb(96.862745%,56.078434%,56.078434%);fill-opacity:1;" d="M 1.125 1.875 L 11.625 1.875 L 11.625 3.375 L 1.125 3.375 Z M 1.125 1.875 "/>
<path style=" stroke:none;fill-rule:nonzero;fill:rgb(78.039217%,26.274511%,26.274511%);fill-opacity:1;" d="M 11.25 2.25 L 11.25 3 L 1.5 3 L 1.5 2.25 L 11.25 2.25 M 12 1.5 L 0.75 1.5 L 0.75 3.75 L 12 3.75 Z M 12 1.5 "/>
<path style=" stroke:none;fill-rule:nonzero;fill:rgb(100%,100%,100%);fill-opacity:1;" d="M 3.375 0.375 C 1.71875 0.375 0.375 1.71875 0.375 3.375 C 0.375 5.03125 1.71875 6.375 3.375 6.375 C 5.03125 6.375 6.375 5.03125 6.375 3.375 C 6.375 1.71875 5.03125 0.375 3.375 0.375 Z M 3.375 0.375 "/>
<path style=" stroke:none;fill-rule:nonzero;fill:rgb(30.588236%,47.843137%,70.980394%);fill-opacity:1;" d="M 3.375 0.75 C 4.800781 0.75 6 1.949219 6 3.375 C 6 4.800781 4.800781 6 3.375 6 C 1.949219 6 0.75 4.800781 0.75 3.375 C 0.75 1.949219 1.949219 0.75 3.375 0.75 M 3.375 0 C 1.5 0 0 1.5 0 3.375 C 0 5.25 1.5 6.75 3.375 6.75 C 5.25 6.75 6.75 5.25 6.75 3.375 C 6.75 1.5 5.25 0 3.375 0 Z M 3.375 0 "/>
<path style=" stroke:none;fill-rule:nonzero;fill:rgb(21.176471%,25.098041%,30.19608%);fill-opacity:1;" d="M 3.375 2.925781 C 3.125 2.925781 2.925781 3.125 2.925781 3.375 C 2.925781 3.625 3.125 3.824219 3.375 3.824219 C 3.625 3.824219 3.824219 3.625 3.824219 3.375 C 3.824219 3.125 3.625 2.925781 3.375 2.925781 Z M 3.375 2.925781 "/>
<path style=" stroke:none;fill-rule:nonzero;fill:rgb(21.176471%,25.098041%,30.19608%);fill-opacity:1;" d="M 4.050781 4.800781 L 2.925781 3.449219 L 3.75 1.351562 L 4.425781 1.574219 L 3.824219 3.300781 L 4.648438 4.351562 Z M 4.050781 4.800781 "/>
</g>
</g>
</svg>
