<?xml version="1.0" encoding="UTF-8"?>
<svg xmlns="http://www.w3.org/2000/svg" xmlns:xlink="http://www.w3.org/1999/xlink" width="16" height="16" viewBox="0 0 16 16" version="1.1">
<g transform="scale(0.66666667)">
<g id="surface1326">
<path style=" stroke:none;fill-rule:nonzero;fill:rgb(86.274511%,83.529413%,94.901961%);fill-opacity:1;" d="M 7.949219 20.25 L 6.449219 17.25 L 3.75 17.25 L 3.75 11.25 L 6.300781 11.25 L 9.300781 8.25 L 20.25 8.25 L 20.25 17.550781 L 16.199219 20.25 Z M 7.949219 20.25 "/>
<path style=" stroke:none;fill-rule:nonzero;fill:rgb(54.509807%,45.882353%,63.137257%);fill-opacity:1;" d="M 19.5 9 L 19.5 17.25 L 16.050781 19.5 L 8.398438 19.5 L 7.351562 17.398438 L 6.898438 16.5 L 4.5 16.5 L 4.5 12 L 6.601562 12 L 9.601562 9 L 19.5 9 M 21 7.5 L 9 7.5 L 6 10.5 L 3 10.5 L 3 18 L 6 18 L 7.5 21 L 16.5 21 L 21 18 Z M 21 7.5 "/>
<path style=" stroke:none;fill-rule:nonzero;fill:rgb(54.509807%,45.882353%,63.137257%);fill-opacity:1;" d="M 12 4.5 L 15 4.5 L 15 9 L 12 9 Z M 13.5 18 L 15.75 14.25 L 13.5 13.351562 L 13.5 10.5 L 11.25 14.25 L 13.5 15 Z M 13.5 18 "/>
<path style=" stroke:none;fill-rule:nonzero;fill:rgb(86.274511%,83.529413%,94.901961%);fill-opacity:1;" d="M 10.5 4.5 L 16.5 4.5 L 16.5 6 L 10.5 6 Z M 10.5 4.5 "/>
<path style=" stroke:none;fill-rule:nonzero;fill:rgb(54.509807%,45.882353%,63.137257%);fill-opacity:1;" d="M 16.5 4.5 L 10.5 4.5 L 10.5 6 L 16.5 6 Z M 19.5 12 L 22.5 12 L 22.5 15 L 19.5 15 Z M 22.5 9 L 24 9 L 24 18 L 22.5 18 Z M 1.5 12 L 4.5 12 L 4.5 15 L 1.5 15 Z M 1.5 12 "/>
<path style=" stroke:none;fill-rule:nonzero;fill:rgb(54.509807%,45.882353%,63.137257%);fill-opacity:1;" d="M 0 10.5 L 1.5 10.5 L 1.5 16.5 L 0 16.5 Z M 0 10.5 "/>
</g>
</g>
</svg>
