<?xml version="1.0" encoding="UTF-8"?>
<svg xmlns="http://www.w3.org/2000/svg" xmlns:xlink="http://www.w3.org/1999/xlink" width="16" height="16" viewBox="0 0 16 16" version="1.1">
<g transform="scale(0.66666667)">
<g id="surface1309">
<path style=" stroke:none;fill-rule:nonzero;fill:rgb(96.078432%,76.078433%,46.27451%);fill-opacity:1;" d="M 1.5 7.5 L 22.5 7.5 L 22.5 9 L 1.5 9 Z M 1.5 4.5 L 22.5 4.5 L 22.5 6 L 1.5 6 Z M 1.5 10.5 L 22.5 10.5 L 22.5 12 L 1.5 12 Z M 1.5 13.5 L 22.5 13.5 L 22.5 15 L 1.5 15 Z M 1.5 16.5 L 22.5 16.5 L 22.5 18 L 1.5 18 Z M 1.5 19.5 L 22.5 19.5 L 22.5 21 L 1.5 21 Z M 1.5 19.5 "/>
<path style=" stroke:none;fill-rule:nonzero;fill:rgb(60.000002%,78.823531%,61.960787%);fill-opacity:1;" d="M 6 21.75 C 5.585938 21.75 5.25 21.414062 5.25 21 L 5.25 3 C 5.25 2.585938 5.585938 2.25 6 2.25 L 18 2.25 C 18.414062 2.25 18.75 2.585938 18.75 3 L 18.75 21 C 18.75 21.414062 18.414062 21.75 18 21.75 Z M 6 21.75 "/>
<path style=" stroke:none;fill-rule:nonzero;fill:rgb(36.862746%,61.176473%,46.27451%);fill-opacity:1;" d="M 18 3 L 18 21 L 6 21 L 6 3 L 18 3 M 18 1.5 L 6 1.5 C 5.171875 1.5 4.5 2.171875 4.5 3 L 4.5 21 C 4.5 21.828125 5.171875 22.5 6 22.5 L 18 22.5 C 18.828125 22.5 19.5 21.828125 19.5 21 L 19.5 3 C 19.5 2.171875 18.828125 1.5 18 1.5 Z M 18 1.5 "/>
<path style=" stroke:none;fill-rule:nonzero;fill:rgb(29.411766%,39.215687%,46.666667%);fill-opacity:1;" d="M 9 5.25 C 8.585938 5.25 8.25 5.585938 8.25 6 C 8.25 6.414062 8.585938 6.75 9 6.75 C 9.414062 6.75 9.75 6.414062 9.75 6 C 9.75 5.585938 9.414062 5.25 9 5.25 Z M 9 5.25 "/>
<path style=" stroke:none;fill-rule:nonzero;fill:rgb(21.176471%,25.098041%,30.19608%);fill-opacity:1;" d="M 9 4.5 C 8.171875 4.5 7.5 5.171875 7.5 6 C 7.5 6.828125 8.171875 7.5 9 7.5 C 9.828125 7.5 10.5 6.828125 10.5 6 C 10.5 5.171875 9.828125 4.5 9 4.5 Z M 9 4.5 "/>
</g>
</g>
</svg>
