<?xml version="1.0" encoding="UTF-8"?>
<svg xmlns="http://www.w3.org/2000/svg" xmlns:xlink="http://www.w3.org/1999/xlink" width="48" height="48" viewBox="0 0 48 48" version="1.1">
<g transform="scale(1.33333333)">
<g id="surface1441">
<path style=" stroke:none;fill-rule:nonzero;fill:rgb(54.509807%,71.764708%,94.117647%);fill-opacity:1;" d="M 33.976562 29.023438 L 28.574219 24.074219 L 28.574219 27.675781 L 6.523438 27.675781 L 6.523438 30.375 L 28.574219 30.375 L 28.574219 33.976562 Z M 33.976562 29.023438 "/>
<path style=" stroke:none;fill-rule:nonzero;fill:rgb(30.588236%,47.843137%,70.980394%);fill-opacity:1;" d="M 28.351562 34.488281 L 28.351562 30.601562 L 6.300781 30.601562 L 6.300781 27.449219 L 28.351562 27.449219 L 28.351562 23.5625 L 34.308594 29.023438 Z M 6.75 30.148438 L 28.800781 30.148438 L 28.800781 33.464844 L 33.640625 29.023438 L 28.800781 24.585938 L 28.800781 27.898438 L 6.75 27.898438 Z M 6.75 30.148438 "/>
<path style=" stroke:none;fill-rule:nonzero;fill:rgb(88.235295%,92.156863%,94.901961%);fill-opacity:1;" d="M 7.425781 2.023438 L 2.476562 7.425781 L 6.074219 7.425781 L 6.074219 29.476562 L 8.773438 29.476562 L 8.773438 7.425781 L 12.375 7.425781 Z M 7.425781 2.023438 "/>
<path style=" stroke:none;fill-rule:nonzero;fill:rgb(47.058824%,54.509807%,61.176473%);fill-opacity:1;" d="M 9 29.699219 L 5.851562 29.699219 L 5.851562 7.648438 L 1.964844 7.648438 L 7.425781 1.691406 L 12.886719 7.648438 L 9 7.648438 Z M 6.300781 29.25 L 8.550781 29.25 L 8.550781 7.199219 L 11.863281 7.199219 L 7.425781 2.359375 L 2.988281 7.199219 L 6.300781 7.199219 Z M 6.300781 29.25 "/>
<path style=" stroke:none;fill-rule:nonzero;fill:rgb(96.862745%,56.078434%,56.078434%);fill-opacity:1;" d="M 10.125 29.023438 C 10.125 30.515625 8.917969 31.726562 7.425781 31.726562 C 5.933594 31.726562 4.726562 30.515625 4.726562 29.023438 C 4.726562 27.535156 5.933594 26.324219 7.425781 26.324219 C 8.917969 26.324219 10.125 27.535156 10.125 29.023438 Z M 10.125 29.023438 "/>
<path style=" stroke:none;fill-rule:nonzero;fill:rgb(78.039217%,26.274511%,26.274511%);fill-opacity:1;" d="M 7.425781 31.949219 C 5.8125 31.949219 4.5 30.636719 4.5 29.023438 C 4.5 27.414062 5.8125 26.101562 7.425781 26.101562 C 9.039062 26.101562 10.351562 27.414062 10.351562 29.023438 C 10.351562 30.636719 9.039062 31.949219 7.425781 31.949219 Z M 7.425781 26.550781 C 6.0625 26.550781 4.949219 27.660156 4.949219 29.023438 C 4.949219 30.390625 6.0625 31.5 7.425781 31.5 C 8.789062 31.5 9.898438 30.390625 9.898438 29.023438 C 9.898438 27.660156 8.789062 26.550781 7.425781 26.550781 Z M 7.425781 26.550781 "/>
</g>
</g>
</svg>
