<?xml version="1.0" encoding="UTF-8"?>
<svg xmlns="http://www.w3.org/2000/svg" xmlns:xlink="http://www.w3.org/1999/xlink" width="48" height="48" viewBox="0 0 48 48" version="1.1">
<g transform="scale(1.33333333)">
<g id="surface1563">
<path style=" stroke:none;fill-rule:nonzero;fill:rgb(54.509807%,71.764708%,94.117647%);fill-opacity:1;" d="M 18 34.875 C 8.683594 34.875 1.125 27.316406 1.125 18 C 1.125 8.683594 8.683594 1.125 18 1.125 C 27.316406 1.125 34.875 8.683594 34.875 18 C 34.875 27.316406 27.316406 34.875 18 34.875 Z M 18 34.875 "/>
<path style=" stroke:none;fill-rule:nonzero;fill:rgb(30.588236%,47.843137%,70.980394%);fill-opacity:1;" d="M 18 1.351562 C 27.179688 1.351562 34.648438 8.820312 34.648438 18 C 34.648438 27.179688 27.179688 34.648438 18 34.648438 C 8.820312 34.648438 1.351562 27.179688 1.351562 18 C 1.351562 8.820312 8.820312 1.351562 18 1.351562 M 18 0.898438 C 8.550781 0.898438 0.898438 8.550781 0.898438 18 C 0.898438 27.449219 8.550781 35.101562 18 35.101562 C 27.449219 35.101562 35.101562 27.449219 35.101562 18 C 35.101562 8.550781 27.449219 0.898438 18 0.898438 Z M 18 0.898438 "/>
<path style=" stroke:none;fill-rule:nonzero;fill:rgb(100%,100%,100%);fill-opacity:1;" d="M 18 32.175781 C 10.171875 32.175781 3.824219 25.828125 3.824219 18 C 3.824219 10.171875 10.171875 3.824219 18 3.824219 C 25.828125 3.824219 32.175781 10.171875 32.175781 18 C 32.175781 25.828125 25.828125 32.175781 18 32.175781 Z M 18 32.175781 "/>
<path style=" stroke:none;fill-rule:nonzero;fill:rgb(30.588236%,47.843137%,70.980394%);fill-opacity:1;" d="M 18 4.050781 C 25.695312 4.050781 31.949219 10.304688 31.949219 18 C 31.949219 25.695312 25.695312 31.949219 18 31.949219 C 10.304688 31.949219 4.050781 25.695312 4.050781 18 C 4.050781 10.304688 10.304688 4.050781 18 4.050781 M 18 3.601562 C 10.035156 3.601562 3.601562 10.035156 3.601562 18 C 3.601562 25.964844 10.035156 32.398438 18 32.398438 C 25.964844 32.398438 32.398438 25.964844 32.398438 18 C 32.398438 10.035156 25.964844 3.601562 18 3.601562 Z M 18 3.601562 "/>
<path style=" stroke:none;fill-rule:nonzero;fill:rgb(40.000001%,47.450981%,56.078434%);fill-opacity:1;" d="M 21.914062 24.613281 C 21.78125 24.613281 21.601562 24.523438 21.554688 24.390625 L 17.503906 18 L 23.039062 8.460938 C 23.175781 8.234375 23.445312 8.191406 23.671875 8.28125 C 23.894531 8.414062 23.941406 8.683594 23.851562 8.910156 L 18.539062 18 L 22.320312 23.941406 C 22.453125 24.164062 22.410156 24.433594 22.183594 24.570312 C 22.09375 24.570312 22.003906 24.613281 21.914062 24.613281 Z M 21.914062 24.613281 "/>
<path style=" stroke:none;fill-rule:nonzero;fill:rgb(40.000001%,47.450981%,56.078434%);fill-opacity:1;" d="M 18 16.648438 C 17.253906 16.648438 16.648438 17.253906 16.648438 18 C 16.648438 18.746094 17.253906 19.351562 18 19.351562 C 18.746094 19.351562 19.351562 18.746094 19.351562 18 C 19.351562 17.253906 18.746094 16.648438 18 16.648438 Z M 18 16.648438 "/>
<path style=" stroke:none;fill-rule:nonzero;fill:rgb(77.254903%,83.137256%,87.058824%);fill-opacity:1;" d="M 18 4.949219 C 17.503906 4.949219 17.101562 5.351562 17.101562 5.851562 C 17.101562 6.347656 17.503906 6.75 18 6.75 C 18.496094 6.75 18.898438 6.347656 18.898438 5.851562 C 18.898438 5.351562 18.496094 4.949219 18 4.949219 Z M 18 4.949219 "/>
<path style=" stroke:none;fill-rule:nonzero;fill:rgb(77.254903%,83.137256%,87.058824%);fill-opacity:1;" d="M 11.695312 7.082031 C 11.480469 7.207031 11.40625 7.480469 11.53125 7.695312 C 11.65625 7.910156 11.929688 7.984375 12.144531 7.859375 C 12.359375 7.734375 12.433594 7.460938 12.3125 7.246094 C 12.1875 7.03125 11.910156 6.957031 11.695312 7.082031 Z M 11.695312 7.082031 "/>
<path style=" stroke:none;fill-rule:nonzero;fill:rgb(77.254903%,83.137256%,87.058824%);fill-opacity:1;" d="M 18 29.25 C 17.503906 29.25 17.101562 29.652344 17.101562 30.148438 C 17.101562 30.648438 17.503906 31.050781 18 31.050781 C 18.496094 31.050781 18.898438 30.648438 18.898438 30.148438 C 18.898438 29.652344 18.496094 29.25 18 29.25 Z M 18 29.25 "/>
<path style=" stroke:none;fill-rule:nonzero;fill:rgb(77.254903%,83.137256%,87.058824%);fill-opacity:1;" d="M 23.851562 28.136719 C 23.636719 28.261719 23.5625 28.539062 23.6875 28.753906 C 23.8125 28.96875 24.089844 29.042969 24.304688 28.917969 C 24.519531 28.792969 24.59375 28.519531 24.46875 28.304688 C 24.34375 28.089844 24.070312 28.015625 23.851562 28.136719 Z M 23.851562 28.136719 "/>
<path style=" stroke:none;fill-rule:nonzero;fill:rgb(77.254903%,83.137256%,87.058824%);fill-opacity:1;" d="M 23.675781 7.25 C 23.554688 7.464844 23.628906 7.738281 23.84375 7.863281 C 24.058594 7.988281 24.332031 7.914062 24.457031 7.699219 C 24.582031 7.484375 24.507812 7.210938 24.292969 7.085938 C 24.078125 6.960938 23.800781 7.035156 23.675781 7.25 Z M 23.675781 7.25 "/>
<path style=" stroke:none;fill-rule:nonzero;fill:rgb(77.254903%,83.137256%,87.058824%);fill-opacity:1;" d="M 11.539062 28.300781 C 11.417969 28.515625 11.488281 28.792969 11.707031 28.914062 C 11.921875 29.039062 12.195312 28.964844 12.320312 28.75 C 12.445312 28.535156 12.371094 28.261719 12.15625 28.136719 C 11.941406 28.011719 11.664062 28.085938 11.539062 28.300781 Z M 11.539062 28.300781 "/>
<path style=" stroke:none;fill-rule:nonzero;fill:rgb(77.254903%,83.137256%,87.058824%);fill-opacity:1;" d="M 7.246094 23.6875 C 7.03125 23.8125 6.957031 24.089844 7.082031 24.304688 C 7.207031 24.519531 7.480469 24.59375 7.695312 24.46875 C 7.910156 24.34375 7.984375 24.070312 7.859375 23.851562 C 7.738281 23.636719 7.460938 23.5625 7.246094 23.6875 Z M 7.246094 23.6875 "/>
<path style=" stroke:none;fill-rule:nonzero;fill:rgb(77.254903%,83.137256%,87.058824%);fill-opacity:1;" d="M 28.304688 11.53125 C 28.089844 11.65625 28.015625 11.929688 28.140625 12.144531 C 28.261719 12.359375 28.539062 12.433594 28.753906 12.3125 C 28.96875 12.1875 29.042969 11.910156 28.917969 11.695312 C 28.792969 11.480469 28.519531 11.40625 28.304688 11.53125 Z M 28.304688 11.53125 "/>
<path style=" stroke:none;fill-rule:nonzero;fill:rgb(77.254903%,83.137256%,87.058824%);fill-opacity:1;" d="M 7.082031 11.707031 C 6.960938 11.921875 7.03125 12.195312 7.25 12.320312 C 7.464844 12.445312 7.738281 12.371094 7.863281 12.15625 C 7.988281 11.941406 7.914062 11.664062 7.699219 11.542969 C 7.484375 11.417969 7.207031 11.492188 7.082031 11.707031 Z M 7.082031 11.707031 "/>
<path style=" stroke:none;fill-rule:nonzero;fill:rgb(77.254903%,83.137256%,87.058824%);fill-opacity:1;" d="M 28.136719 23.84375 C 28.011719 24.058594 28.085938 24.332031 28.300781 24.457031 C 28.515625 24.582031 28.789062 24.507812 28.914062 24.292969 C 29.039062 24.078125 28.964844 23.804688 28.75 23.679688 C 28.535156 23.554688 28.257812 23.628906 28.136719 23.84375 Z M 28.136719 23.84375 "/>
<path style=" stroke:none;fill-rule:nonzero;fill:rgb(77.254903%,83.137256%,87.058824%);fill-opacity:1;" d="M 30.148438 17.101562 C 29.652344 17.101562 29.25 17.503906 29.25 18 C 29.25 18.496094 29.652344 18.898438 30.148438 18.898438 C 30.648438 18.898438 31.050781 18.496094 31.050781 18 C 31.050781 17.503906 30.648438 17.101562 30.148438 17.101562 Z M 30.148438 17.101562 "/>
<path style=" stroke:none;fill-rule:nonzero;fill:rgb(77.254903%,83.137256%,87.058824%);fill-opacity:1;" d="M 5.851562 17.101562 C 5.351562 17.101562 4.949219 17.503906 4.949219 18 C 4.949219 18.496094 5.351562 18.898438 5.851562 18.898438 C 6.347656 18.898438 6.75 18.496094 6.75 18 C 6.75 17.503906 6.347656 17.101562 5.851562 17.101562 Z M 5.851562 17.101562 "/>
</g>
</g>
</svg>
