<?xml version="1.0" encoding="UTF-8"?>
<svg xmlns="http://www.w3.org/2000/svg" xmlns:xlink="http://www.w3.org/1999/xlink" width="48" height="48" viewBox="0 0 48 48" version="1.1">
<g transform="scale(1.33333333)">
<g id="surface1610">
<path style=" stroke:none;fill-rule:nonzero;fill:rgb(76.078433%,90.980393%,100%);fill-opacity:1;" d="M 18 31.726562 C 10.183594 31.726562 3.824219 25.367188 3.824219 17.550781 C 3.824219 11.171875 8.039062 5.632812 14.132812 3.910156 L 11.277344 9.984375 C 9.113281 11.90625 7.875 14.660156 7.875 17.550781 C 7.875 23.132812 12.417969 27.675781 18 27.675781 C 23.582031 27.675781 28.125 23.132812 28.125 17.550781 C 28.125 14.660156 26.886719 11.90625 24.722656 9.984375 L 21.867188 3.910156 C 27.960938 5.632812 32.175781 11.171875 32.175781 17.550781 C 32.175781 25.367188 25.816406 31.726562 18 31.726562 Z M 18 31.726562 "/>
<path style=" stroke:none;fill-rule:nonzero;fill:rgb(45.490196%,58.823532%,76.862746%);fill-opacity:1;" d="M 13.714844 4.273438 L 11.089844 9.847656 C 8.902344 11.808594 7.648438 14.613281 7.648438 17.550781 C 7.648438 23.257812 12.292969 27.898438 18 27.898438 C 23.707031 27.898438 28.351562 23.257812 28.351562 17.550781 C 28.351562 14.613281 27.097656 11.808594 24.910156 9.847656 L 22.285156 4.273438 C 28.023438 6.113281 31.949219 11.441406 31.949219 17.550781 C 31.949219 25.242188 25.691406 31.5 18 31.5 C 10.308594 31.5 4.050781 25.242188 4.050781 17.550781 C 4.050781 11.441406 7.976562 6.113281 13.714844 4.273438 M 21.457031 3.570312 L 24.539062 10.121094 C 26.597656 11.933594 27.898438 14.589844 27.898438 17.550781 C 27.898438 23.015625 23.46875 27.449219 18 27.449219 C 12.53125 27.449219 8.101562 23.015625 8.101562 17.550781 C 8.101562 14.589844 9.402344 11.933594 11.460938 10.121094 L 14.542969 3.570312 C 8.257812 5.121094 3.601562 10.789062 3.601562 17.550781 C 3.601562 25.503906 10.046875 31.949219 18 31.949219 C 25.953125 31.949219 32.398438 25.503906 32.398438 17.550781 C 32.398438 10.789062 27.742188 5.121094 21.457031 3.570312 Z M 21.457031 3.570312 "/>
<path style=" stroke:none;fill-rule:nonzero;fill:rgb(54.509807%,71.764708%,94.117647%);fill-opacity:1;" d="M 1.125 16.875 L 7.875 16.875 L 7.875 18.226562 L 1.125 18.226562 Z M 1.125 16.875 "/>
<path style=" stroke:none;fill-rule:nonzero;fill:rgb(30.588236%,47.843137%,70.980394%);fill-opacity:1;" d="M 7.648438 17.101562 L 7.648438 18 L 1.351562 18 L 1.351562 17.101562 L 7.648438 17.101562 M 8.101562 16.648438 L 0.898438 16.648438 L 0.898438 18.449219 L 8.101562 18.449219 Z M 8.101562 16.648438 "/>
<path style=" stroke:none;fill-rule:nonzero;fill:rgb(54.509807%,71.764708%,94.117647%);fill-opacity:1;" d="M 17.324219 27.675781 L 18.675781 27.675781 L 18.675781 34.425781 L 17.324219 34.425781 Z M 17.324219 27.675781 "/>
<path style=" stroke:none;fill-rule:nonzero;fill:rgb(30.588236%,47.843137%,70.980394%);fill-opacity:1;" d="M 18.449219 27.898438 L 18.449219 34.199219 L 17.550781 34.199219 L 17.550781 27.898438 L 18.449219 27.898438 M 18.898438 27.449219 L 17.101562 27.449219 L 17.101562 34.648438 L 18.898438 34.648438 Z M 18.898438 27.449219 "/>
<path style=" stroke:none;fill-rule:nonzero;fill:rgb(54.509807%,71.764708%,94.117647%);fill-opacity:1;" d="M 28.125 16.875 L 34.875 16.875 L 34.875 18.226562 L 28.125 18.226562 Z M 28.125 16.875 "/>
<path style=" stroke:none;fill-rule:nonzero;fill:rgb(30.588236%,47.843137%,70.980394%);fill-opacity:1;" d="M 34.648438 17.101562 L 34.648438 18 L 28.351562 18 L 28.351562 17.101562 L 34.648438 17.101562 M 35.101562 16.648438 L 27.898438 16.648438 L 27.898438 18.449219 L 35.101562 18.449219 Z M 35.101562 16.648438 "/>
<path style=" stroke:none;fill-rule:nonzero;fill:rgb(96.862745%,56.078434%,56.078434%);fill-opacity:1;" d="M 18 12.808594 L 11.238281 15.34375 L 18 0.976562 L 24.761719 15.34375 Z M 18 12.808594 "/>
<path style=" stroke:none;fill-rule:nonzero;fill:rgb(78.039217%,26.274511%,26.274511%);fill-opacity:1;" d="M 18 1.507812 L 24.320312 14.941406 L 18.15625 12.628906 L 18 12.570312 L 17.84375 12.628906 L 11.679688 14.941406 L 18 1.507812 M 18 0.449219 L 10.800781 15.75 L 18 13.050781 L 25.199219 15.75 Z M 18 0.449219 "/>
</g>
</g>
</svg>
