<?xml version="1.0" encoding="UTF-8"?>
<svg xmlns="http://www.w3.org/2000/svg" xmlns:xlink="http://www.w3.org/1999/xlink" width="48" height="48" viewBox="0 0 48 48" version="1.1">
<g transform="scale(1.33333333)">
<g id="surface1519">
<path style=" stroke:none;fill-rule:nonzero;fill:rgb(76.078433%,90.980393%,100%);fill-opacity:1;" d="M 4.050781 33.074219 C 3.179688 33.074219 2.476562 32.367188 2.476562 31.5 L 2.476562 4.050781 C 2.476562 3.179688 3.179688 2.476562 4.050781 2.476562 L 31.5 2.476562 C 32.367188 2.476562 33.074219 3.179688 33.074219 4.050781 L 33.074219 31.5 C 33.074219 32.367188 32.367188 33.074219 31.5 33.074219 Z M 4.050781 33.074219 "/>
<path style=" stroke:none;fill-rule:nonzero;fill:rgb(45.490196%,58.823532%,76.862746%);fill-opacity:1;" d="M 31.5 2.699219 C 32.246094 2.699219 32.851562 3.304688 32.851562 4.050781 L 32.851562 31.5 C 32.851562 32.246094 32.246094 32.851562 31.5 32.851562 L 4.050781 32.851562 C 3.304688 32.851562 2.699219 32.246094 2.699219 31.5 L 2.699219 4.050781 C 2.699219 3.304688 3.304688 2.699219 4.050781 2.699219 L 31.5 2.699219 M 31.5 2.25 L 4.050781 2.25 C 3.054688 2.25 2.25 3.054688 2.25 4.050781 L 2.25 31.5 C 2.25 32.492188 3.054688 33.300781 4.050781 33.300781 L 31.5 33.300781 C 32.492188 33.300781 33.300781 32.492188 33.300781 31.5 L 33.300781 4.050781 C 33.300781 3.054688 32.492188 2.25 31.5 2.25 Z M 31.5 2.25 "/>
<path style=" stroke:none;fill-rule:nonzero;fill:rgb(72.941178%,87.843138%,74.117649%);fill-opacity:1;" d="M 6.75 12.375 C 6.378906 12.375 6.074219 12.070312 6.074219 11.699219 L 6.074219 6.75 C 6.074219 6.378906 6.378906 6.074219 6.75 6.074219 L 11.699219 6.074219 C 12.070312 6.074219 12.375 6.378906 12.375 6.75 L 12.375 11.699219 C 12.375 12.070312 12.070312 12.375 11.699219 12.375 Z M 6.75 12.375 "/>
<path style=" stroke:none;fill-rule:nonzero;fill:rgb(36.862746%,61.176473%,46.27451%);fill-opacity:1;" d="M 11.699219 6.300781 C 11.949219 6.300781 12.148438 6.503906 12.148438 6.75 L 12.148438 11.699219 C 12.148438 11.949219 11.949219 12.148438 11.699219 12.148438 L 6.75 12.148438 C 6.503906 12.148438 6.300781 11.949219 6.300781 11.699219 L 6.300781 6.75 C 6.300781 6.503906 6.503906 6.300781 6.75 6.300781 L 11.699219 6.300781 M 11.699219 5.851562 L 6.75 5.851562 C 6.253906 5.851562 5.851562 6.253906 5.851562 6.75 L 5.851562 11.699219 C 5.851562 12.195312 6.253906 12.601562 6.75 12.601562 L 11.699219 12.601562 C 12.195312 12.601562 12.601562 12.195312 12.601562 11.699219 L 12.601562 6.75 C 12.601562 6.253906 12.195312 5.851562 11.699219 5.851562 Z M 11.699219 5.851562 "/>
<path style=" stroke:none;fill-rule:nonzero;fill:rgb(72.941178%,87.843138%,74.117649%);fill-opacity:1;" d="M 15.300781 12.375 C 14.929688 12.375 14.625 12.070312 14.625 11.699219 L 14.625 6.75 C 14.625 6.378906 14.929688 6.074219 15.300781 6.074219 L 20.25 6.074219 C 20.621094 6.074219 20.925781 6.378906 20.925781 6.75 L 20.925781 11.699219 C 20.925781 12.070312 20.621094 12.375 20.25 12.375 Z M 15.300781 12.375 "/>
<path style=" stroke:none;fill-rule:nonzero;fill:rgb(36.862746%,61.176473%,46.27451%);fill-opacity:1;" d="M 20.25 6.300781 C 20.496094 6.300781 20.699219 6.503906 20.699219 6.75 L 20.699219 11.699219 C 20.699219 11.949219 20.496094 12.148438 20.25 12.148438 L 15.300781 12.148438 C 15.050781 12.148438 14.851562 11.949219 14.851562 11.699219 L 14.851562 6.75 C 14.851562 6.503906 15.050781 6.300781 15.300781 6.300781 L 20.25 6.300781 M 20.25 5.851562 L 15.300781 5.851562 C 14.804688 5.851562 14.398438 6.253906 14.398438 6.75 L 14.398438 11.699219 C 14.398438 12.195312 14.804688 12.601562 15.300781 12.601562 L 20.25 12.601562 C 20.746094 12.601562 21.148438 12.195312 21.148438 11.699219 L 21.148438 6.75 C 21.148438 6.253906 20.746094 5.851562 20.25 5.851562 Z M 20.25 5.851562 "/>
<path style=" stroke:none;fill-rule:nonzero;fill:rgb(72.941178%,87.843138%,74.117649%);fill-opacity:1;" d="M 23.851562 12.375 C 23.476562 12.375 23.175781 12.070312 23.175781 11.699219 L 23.175781 6.75 C 23.175781 6.378906 23.476562 6.074219 23.851562 6.074219 L 28.800781 6.074219 C 29.171875 6.074219 29.476562 6.378906 29.476562 6.75 L 29.476562 11.699219 C 29.476562 12.070312 29.171875 12.375 28.800781 12.375 Z M 23.851562 12.375 "/>
<path style=" stroke:none;fill-rule:nonzero;fill:rgb(36.862746%,61.176473%,46.27451%);fill-opacity:1;" d="M 28.800781 6.300781 C 29.046875 6.300781 29.25 6.503906 29.25 6.75 L 29.25 11.699219 C 29.25 11.949219 29.046875 12.148438 28.800781 12.148438 L 23.851562 12.148438 C 23.601562 12.148438 23.398438 11.949219 23.398438 11.699219 L 23.398438 6.75 C 23.398438 6.503906 23.601562 6.300781 23.851562 6.300781 L 28.800781 6.300781 M 28.800781 5.851562 L 23.851562 5.851562 C 23.351562 5.851562 22.949219 6.253906 22.949219 6.75 L 22.949219 11.699219 C 22.949219 12.195312 23.351562 12.601562 23.851562 12.601562 L 28.800781 12.601562 C 29.296875 12.601562 29.699219 12.195312 29.699219 11.699219 L 29.699219 6.75 C 29.699219 6.253906 29.296875 5.851562 28.800781 5.851562 Z M 28.800781 5.851562 "/>
<path style=" stroke:none;fill-rule:nonzero;fill:rgb(72.941178%,87.843138%,74.117649%);fill-opacity:1;" d="M 6.75 20.925781 C 6.378906 20.925781 6.074219 20.621094 6.074219 20.25 L 6.074219 15.300781 C 6.074219 14.929688 6.378906 14.625 6.75 14.625 L 11.699219 14.625 C 12.070312 14.625 12.375 14.929688 12.375 15.300781 L 12.375 20.25 C 12.375 20.621094 12.070312 20.925781 11.699219 20.925781 Z M 6.75 20.925781 "/>
<path style=" stroke:none;fill-rule:nonzero;fill:rgb(36.862746%,61.176473%,46.27451%);fill-opacity:1;" d="M 11.699219 14.851562 C 11.949219 14.851562 12.148438 15.050781 12.148438 15.300781 L 12.148438 20.25 C 12.148438 20.496094 11.949219 20.699219 11.699219 20.699219 L 6.75 20.699219 C 6.503906 20.699219 6.300781 20.496094 6.300781 20.25 L 6.300781 15.300781 C 6.300781 15.050781 6.503906 14.851562 6.75 14.851562 L 11.699219 14.851562 M 11.699219 14.398438 L 6.75 14.398438 C 6.253906 14.398438 5.851562 14.804688 5.851562 15.300781 L 5.851562 20.25 C 5.851562 20.746094 6.253906 21.148438 6.75 21.148438 L 11.699219 21.148438 C 12.195312 21.148438 12.601562 20.746094 12.601562 20.25 L 12.601562 15.300781 C 12.601562 14.804688 12.195312 14.398438 11.699219 14.398438 Z M 11.699219 14.398438 "/>
<path style=" stroke:none;fill-rule:nonzero;fill:rgb(72.941178%,87.843138%,74.117649%);fill-opacity:1;" d="M 15.300781 20.925781 C 14.929688 20.925781 14.625 20.621094 14.625 20.25 L 14.625 15.300781 C 14.625 14.929688 14.929688 14.625 15.300781 14.625 L 20.25 14.625 C 20.621094 14.625 20.925781 14.929688 20.925781 15.300781 L 20.925781 20.25 C 20.925781 20.621094 20.621094 20.925781 20.25 20.925781 Z M 15.300781 20.925781 "/>
<path style=" stroke:none;fill-rule:nonzero;fill:rgb(36.862746%,61.176473%,46.27451%);fill-opacity:1;" d="M 20.25 14.851562 C 20.496094 14.851562 20.699219 15.050781 20.699219 15.300781 L 20.699219 20.25 C 20.699219 20.496094 20.496094 20.699219 20.25 20.699219 L 15.300781 20.699219 C 15.050781 20.699219 14.851562 20.496094 14.851562 20.25 L 14.851562 15.300781 C 14.851562 15.050781 15.050781 14.851562 15.300781 14.851562 L 20.25 14.851562 M 20.25 14.398438 L 15.300781 14.398438 C 14.804688 14.398438 14.398438 14.804688 14.398438 15.300781 L 14.398438 20.25 C 14.398438 20.746094 14.804688 21.148438 15.300781 21.148438 L 20.25 21.148438 C 20.746094 21.148438 21.148438 20.746094 21.148438 20.25 L 21.148438 15.300781 C 21.148438 14.804688 20.746094 14.398438 20.25 14.398438 Z M 20.25 14.398438 "/>
<path style=" stroke:none;fill-rule:nonzero;fill:rgb(72.941178%,87.843138%,74.117649%);fill-opacity:1;" d="M 23.851562 20.925781 C 23.476562 20.925781 23.175781 20.621094 23.175781 20.25 L 23.175781 15.300781 C 23.175781 14.929688 23.476562 14.625 23.851562 14.625 L 28.800781 14.625 C 29.171875 14.625 29.476562 14.929688 29.476562 15.300781 L 29.476562 20.25 C 29.476562 20.621094 29.171875 20.925781 28.800781 20.925781 Z M 23.851562 20.925781 "/>
<path style=" stroke:none;fill-rule:nonzero;fill:rgb(36.862746%,61.176473%,46.27451%);fill-opacity:1;" d="M 28.800781 14.851562 C 29.046875 14.851562 29.25 15.050781 29.25 15.300781 L 29.25 20.25 C 29.25 20.496094 29.046875 20.699219 28.800781 20.699219 L 23.851562 20.699219 C 23.601562 20.699219 23.398438 20.496094 23.398438 20.25 L 23.398438 15.300781 C 23.398438 15.050781 23.601562 14.851562 23.851562 14.851562 L 28.800781 14.851562 M 28.800781 14.398438 L 23.851562 14.398438 C 23.351562 14.398438 22.949219 14.804688 22.949219 15.300781 L 22.949219 20.25 C 22.949219 20.746094 23.351562 21.148438 23.851562 21.148438 L 28.800781 21.148438 C 29.296875 21.148438 29.699219 20.746094 29.699219 20.25 L 29.699219 15.300781 C 29.699219 14.804688 29.296875 14.398438 28.800781 14.398438 Z M 28.800781 14.398438 "/>
<path style=" stroke:none;fill-rule:nonzero;fill:rgb(72.941178%,87.843138%,74.117649%);fill-opacity:1;" d="M 6.75 29.476562 C 6.378906 29.476562 6.074219 29.171875 6.074219 28.800781 L 6.074219 23.851562 C 6.074219 23.476562 6.378906 23.175781 6.75 23.175781 L 11.699219 23.175781 C 12.070312 23.175781 12.375 23.476562 12.375 23.851562 L 12.375 28.800781 C 12.375 29.171875 12.070312 29.476562 11.699219 29.476562 Z M 6.75 29.476562 "/>
<path style=" stroke:none;fill-rule:nonzero;fill:rgb(36.862746%,61.176473%,46.27451%);fill-opacity:1;" d="M 11.699219 23.398438 C 11.949219 23.398438 12.148438 23.601562 12.148438 23.851562 L 12.148438 28.800781 C 12.148438 29.046875 11.949219 29.25 11.699219 29.25 L 6.75 29.25 C 6.503906 29.25 6.300781 29.046875 6.300781 28.800781 L 6.300781 23.851562 C 6.300781 23.601562 6.503906 23.398438 6.75 23.398438 L 11.699219 23.398438 M 11.699219 22.949219 L 6.75 22.949219 C 6.253906 22.949219 5.851562 23.351562 5.851562 23.851562 L 5.851562 28.800781 C 5.851562 29.296875 6.253906 29.699219 6.75 29.699219 L 11.699219 29.699219 C 12.195312 29.699219 12.601562 29.296875 12.601562 28.800781 L 12.601562 23.851562 C 12.601562 23.351562 12.195312 22.949219 11.699219 22.949219 Z M 11.699219 22.949219 "/>
<path style=" stroke:none;fill-rule:nonzero;fill:rgb(72.941178%,87.843138%,74.117649%);fill-opacity:1;" d="M 15.300781 29.476562 C 14.929688 29.476562 14.625 29.171875 14.625 28.800781 L 14.625 23.851562 C 14.625 23.476562 14.929688 23.175781 15.300781 23.175781 L 20.25 23.175781 C 20.621094 23.175781 20.925781 23.476562 20.925781 23.851562 L 20.925781 28.800781 C 20.925781 29.171875 20.621094 29.476562 20.25 29.476562 Z M 15.300781 29.476562 "/>
<path style=" stroke:none;fill-rule:nonzero;fill:rgb(36.862746%,61.176473%,46.27451%);fill-opacity:1;" d="M 20.25 23.398438 C 20.496094 23.398438 20.699219 23.601562 20.699219 23.851562 L 20.699219 28.800781 C 20.699219 29.046875 20.496094 29.25 20.25 29.25 L 15.300781 29.25 C 15.050781 29.25 14.851562 29.046875 14.851562 28.800781 L 14.851562 23.851562 C 14.851562 23.601562 15.050781 23.398438 15.300781 23.398438 L 20.25 23.398438 M 20.25 22.949219 L 15.300781 22.949219 C 14.804688 22.949219 14.398438 23.351562 14.398438 23.851562 L 14.398438 28.800781 C 14.398438 29.296875 14.804688 29.699219 15.300781 29.699219 L 20.25 29.699219 C 20.746094 29.699219 21.148438 29.296875 21.148438 28.800781 L 21.148438 23.851562 C 21.148438 23.351562 20.746094 22.949219 20.25 22.949219 Z M 20.25 22.949219 "/>
<path style=" stroke:none;fill-rule:nonzero;fill:rgb(72.941178%,87.843138%,74.117649%);fill-opacity:1;" d="M 23.851562 29.476562 C 23.476562 29.476562 23.175781 29.171875 23.175781 28.800781 L 23.175781 23.851562 C 23.175781 23.476562 23.476562 23.175781 23.851562 23.175781 L 28.800781 23.175781 C 29.171875 23.175781 29.476562 23.476562 29.476562 23.851562 L 29.476562 28.800781 C 29.476562 29.171875 29.171875 29.476562 28.800781 29.476562 Z M 23.851562 29.476562 "/>
<path style=" stroke:none;fill-rule:nonzero;fill:rgb(36.862746%,61.176473%,46.27451%);fill-opacity:1;" d="M 28.800781 23.398438 C 29.046875 23.398438 29.25 23.601562 29.25 23.851562 L 29.25 28.800781 C 29.25 29.046875 29.046875 29.25 28.800781 29.25 L 23.851562 29.25 C 23.601562 29.25 23.398438 29.046875 23.398438 28.800781 L 23.398438 23.851562 C 23.398438 23.601562 23.601562 23.398438 23.851562 23.398438 L 28.800781 23.398438 M 28.800781 22.949219 L 23.851562 22.949219 C 23.351562 22.949219 22.949219 23.351562 22.949219 23.851562 L 22.949219 28.800781 C 22.949219 29.296875 23.351562 29.699219 23.851562 29.699219 L 28.800781 29.699219 C 29.296875 29.699219 29.699219 29.296875 29.699219 28.800781 L 29.699219 23.851562 C 29.699219 23.351562 29.296875 22.949219 28.800781 22.949219 Z M 28.800781 22.949219 "/>
</g>
</g>
</svg>
