<?xml version="1.0" encoding="UTF-8"?>
<svg xmlns="http://www.w3.org/2000/svg" xmlns:xlink="http://www.w3.org/1999/xlink" width="48" height="48" viewBox="0 0 48 48" version="1.1">
<g transform="scale(1.33333333)">
<g id="surface1635">
<path style="fill-rule:nonzero;fill:rgb(54.509807%,71.764708%,94.117647%);fill-opacity:1;stroke-width:1;stroke-linecap:butt;stroke-linejoin:miter;stroke:rgb(30.588236%,47.843137%,70.980394%);stroke-opacity:1;stroke-miterlimit:4;" d="M 37.5 35.503472 L 42.5 35.503472 L 42.5 44.496528 L 37.5 44.496528 Z M 37.5 35.503472 " transform="matrix(0.45,0,0,0.45,0,0)"/>
<path style="fill-rule:nonzero;fill:rgb(54.509807%,71.764708%,94.117647%);fill-opacity:1;stroke-width:1;stroke-linecap:butt;stroke-linejoin:miter;stroke:rgb(30.588236%,47.843137%,70.980394%);stroke-opacity:1;stroke-miterlimit:4;" d="M 29.496528 27.5 L 34.496528 27.5 L 34.496528 52.5 L 29.496528 52.5 Z M 29.496528 27.5 " transform="matrix(0.45,0,0,0.45,0,0)"/>
<path style="fill-rule:nonzero;fill:rgb(54.509807%,71.764708%,94.117647%);fill-opacity:1;stroke-width:1;stroke-linecap:butt;stroke-linejoin:miter;stroke:rgb(30.588236%,47.843137%,70.980394%);stroke-opacity:1;stroke-miterlimit:4;" d="M 13.498264 26.501736 L 18.498264 26.501736 L 18.498264 53.498264 L 13.498264 53.498264 Z M 13.498264 26.501736 " transform="matrix(0.45,0,0,0.45,0,0)"/>
<path style="fill-rule:nonzero;fill:rgb(54.509807%,71.764708%,94.117647%);fill-opacity:1;stroke-width:1;stroke-linecap:butt;stroke-linejoin:miter;stroke:rgb(30.588236%,47.843137%,70.980394%);stroke-opacity:1;stroke-miterlimit:4;" d="M 5.503472 35.503472 L 10.503472 35.503472 L 10.503472 44.496528 L 5.503472 44.496528 Z M 5.503472 35.503472 " transform="matrix(0.45,0,0,0.45,0,0)"/>
<path style="fill-rule:nonzero;fill:rgb(54.509807%,71.764708%,94.117647%);fill-opacity:1;stroke-width:1;stroke-linecap:butt;stroke-linejoin:miter;stroke:rgb(30.588236%,47.843137%,70.980394%);stroke-opacity:1;stroke-miterlimit:4;" d="M 21.501736 13.498264 L 26.501736 13.498264 L 26.501736 66.501736 L 21.501736 66.501736 Z M 21.501736 13.498264 " transform="matrix(0.45,0,0,0.45,0,0)"/>
<path style="fill-rule:nonzero;fill:rgb(54.509807%,71.764708%,94.117647%);fill-opacity:1;stroke-width:1;stroke-linecap:butt;stroke-linejoin:miter;stroke:rgb(30.588236%,47.843137%,70.980394%);stroke-opacity:1;stroke-miterlimit:4;" d="M 45.503472 27.5 L 50.503472 27.5 L 50.503472 52.5 L 45.503472 52.5 Z M 45.503472 27.5 " transform="matrix(0.45,0,0,0.45,0,0)"/>
<path style="fill-rule:nonzero;fill:rgb(54.509807%,71.764708%,94.117647%);fill-opacity:1;stroke-width:1;stroke-linecap:butt;stroke-linejoin:miter;stroke:rgb(30.588236%,47.843137%,70.980394%);stroke-opacity:1;stroke-miterlimit:4;" d="M 61.501736 26.501736 L 66.501736 26.501736 L 66.501736 53.498264 L 61.501736 53.498264 Z M 61.501736 26.501736 " transform="matrix(0.45,0,0,0.45,0,0)"/>
<path style="fill-rule:nonzero;fill:rgb(54.509807%,71.764708%,94.117647%);fill-opacity:1;stroke-width:1;stroke-linecap:butt;stroke-linejoin:miter;stroke:rgb(30.588236%,47.843137%,70.980394%);stroke-opacity:1;stroke-miterlimit:4;" d="M 69.496528 35.503472 L 74.496528 35.503472 L 74.496528 44.496528 L 69.496528 44.496528 Z M 69.496528 35.503472 " transform="matrix(0.45,0,0,0.45,0,0)"/>
<path style="fill-rule:nonzero;fill:rgb(54.509807%,71.764708%,94.117647%);fill-opacity:1;stroke-width:1;stroke-linecap:butt;stroke-linejoin:miter;stroke:rgb(30.588236%,47.843137%,70.980394%);stroke-opacity:1;stroke-miterlimit:4;" d="M 53.498264 13.498264 L 58.498264 13.498264 L 58.498264 66.501736 L 53.498264 66.501736 Z M 53.498264 13.498264 " transform="matrix(0.45,0,0,0.45,0,0)"/>
</g>
</g>
</svg>
