<?xml version="1.0" encoding="UTF-8"?>
<svg xmlns="http://www.w3.org/2000/svg" xmlns:xlink="http://www.w3.org/1999/xlink" width="48" height="48" viewBox="0 0 48 48" version="1.1">
<g transform="scale(1.33333333)">
<g id="surface1702">
<path style=" stroke:none;fill-rule:nonzero;fill:rgb(94.901961%,98.039216%,100%);fill-opacity:1;" d="M 18 34.875 C 8.683594 34.875 1.125 27.316406 1.125 18 C 1.125 8.683594 8.683594 1.125 18 1.125 C 27.316406 1.125 34.875 8.683594 34.875 18 C 34.875 27.316406 27.316406 34.875 18 34.875 Z M 18 34.875 "/>
<path style=" stroke:none;fill-rule:nonzero;fill:rgb(47.058824%,54.509807%,61.176473%);fill-opacity:1;" d="M 18 1.351562 C 27.179688 1.351562 34.648438 8.820312 34.648438 18 C 34.648438 27.179688 27.179688 34.648438 18 34.648438 C 8.820312 34.648438 1.351562 27.179688 1.351562 18 C 1.351562 8.820312 8.820312 1.351562 18 1.351562 M 18 0.898438 C 8.550781 0.898438 0.898438 8.550781 0.898438 18 C 0.898438 27.449219 8.550781 35.101562 18 35.101562 C 27.449219 35.101562 35.101562 27.449219 35.101562 18 C 35.101562 8.550781 27.449219 0.898438 18 0.898438 Z M 18 0.898438 "/>
<path style=" stroke:none;fill-rule:nonzero;fill:rgb(94.901961%,98.039216%,100%);fill-opacity:1;" d="M 18 33.074219 C 9.675781 33.074219 2.925781 26.324219 2.925781 18 C 2.925781 9.675781 9.675781 2.925781 18 2.925781 C 26.324219 2.925781 33.074219 9.675781 33.074219 18 C 33.074219 26.324219 26.324219 33.074219 18 33.074219 Z M 18 33.074219 "/>
<path style=" stroke:none;fill-rule:nonzero;fill:rgb(47.058824%,54.509807%,61.176473%);fill-opacity:1;" d="M 18 3.148438 C 26.191406 3.148438 32.851562 9.808594 32.851562 18 C 32.851562 26.191406 26.191406 32.851562 18 32.851562 C 9.808594 32.851562 3.148438 26.191406 3.148438 18 C 3.148438 9.808594 9.808594 3.148438 18 3.148438 M 18 2.699219 C 9.539062 2.699219 2.699219 9.539062 2.699219 18 C 2.699219 26.460938 9.539062 33.300781 18 33.300781 C 26.460938 33.300781 33.300781 26.460938 33.300781 18 C 33.300781 9.539062 26.460938 2.699219 18 2.699219 Z M 18 2.699219 "/>
<path style=" stroke:none;fill-rule:nonzero;fill:rgb(30.588236%,47.843137%,70.980394%);fill-opacity:1;" d="M 10.199219 10.515625 L 10.515625 10.199219 L 18.152344 17.835938 L 17.835938 18.152344 Z M 10.199219 10.515625 "/>
<path style=" stroke:none;fill-rule:nonzero;fill:rgb(54.509807%,71.764708%,94.117647%);fill-opacity:1;" d="M 18 16.425781 C 17.128906 16.425781 16.425781 17.128906 16.425781 18 C 16.425781 18.871094 17.128906 19.574219 18 19.574219 C 18.871094 19.574219 19.574219 18.871094 19.574219 18 C 19.574219 17.128906 18.871094 16.425781 18 16.425781 Z M 18 16.425781 "/>
<path style=" stroke:none;fill-rule:nonzero;fill:rgb(30.588236%,47.843137%,70.980394%);fill-opacity:1;" d="M 18 16.648438 C 18.765625 16.648438 19.351562 17.234375 19.351562 18 C 19.351562 18.765625 18.765625 19.351562 18 19.351562 C 17.234375 19.351562 16.648438 18.765625 16.648438 18 C 16.648438 17.234375 17.234375 16.648438 18 16.648438 M 18 16.199219 C 17.011719 16.199219 16.199219 17.011719 16.199219 18 C 16.199219 18.988281 17.011719 19.800781 18 19.800781 C 18.988281 19.800781 19.800781 18.988281 19.800781 18 C 19.800781 17.011719 18.988281 16.199219 18 16.199219 Z M 18 16.199219 "/>
<path style=" stroke:none;fill-rule:nonzero;fill:rgb(47.058824%,54.509807%,61.176473%);fill-opacity:1;" d="M 14.882812 3.441406 L 15.324219 3.351562 L 15.804688 5.6875 L 15.363281 5.777344 Z M 14.882812 3.441406 "/>
<path style=" stroke:none;fill-rule:nonzero;fill:rgb(47.058824%,54.509807%,61.176473%);fill-opacity:1;" d="M 30.222656 15.351562 L 32.558594 14.886719 L 32.648438 15.328125 L 30.308594 15.792969 Z M 30.222656 15.351562 "/>
<path style=" stroke:none;fill-rule:nonzero;fill:rgb(47.058824%,54.509807%,61.176473%);fill-opacity:1;" d="M 3.351562 20.667969 L 5.691406 20.203125 L 5.777344 20.644531 L 3.441406 21.109375 Z M 3.351562 20.667969 "/>
<path style=" stroke:none;fill-rule:nonzero;fill:rgb(47.058824%,54.509807%,61.176473%);fill-opacity:1;" d="M 24.730469 7.5 L 26.054688 5.519531 L 26.429688 5.769531 L 25.105469 7.75 Z M 24.730469 7.5 "/>
<path style=" stroke:none;fill-rule:nonzero;fill:rgb(47.058824%,54.509807%,61.176473%);fill-opacity:1;" d="M 30.238281 26.460938 L 28.261719 25.109375 L 28.484375 24.75 L 30.511719 26.054688 Z M 30.238281 26.460938 "/>
<path style=" stroke:none;fill-rule:nonzero;fill:rgb(47.058824%,54.509807%,61.176473%);fill-opacity:1;" d="M 5.519531 9.9375 L 5.769531 9.5625 L 7.75 10.890625 L 7.5 11.261719 Z M 5.519531 9.9375 "/>
<path style=" stroke:none;fill-rule:nonzero;fill:rgb(47.058824%,54.509807%,61.176473%);fill-opacity:1;" d="M 9.554688 5.769531 L 9.929688 5.519531 L 11.253906 7.503906 L 10.878906 7.753906 Z M 9.554688 5.769531 "/>
<path style=" stroke:none;fill-rule:nonzero;fill:rgb(47.058824%,54.509807%,61.176473%);fill-opacity:1;" d="M 28.242188 10.875 L 30.226562 9.550781 L 30.476562 9.925781 L 28.492188 11.25 Z M 28.242188 10.875 "/>
<path style=" stroke:none;fill-rule:nonzero;fill:rgb(47.058824%,54.509807%,61.176473%);fill-opacity:1;" d="M 5.523438 26.074219 L 7.503906 24.75 L 7.753906 25.121094 L 5.773438 26.445312 Z M 5.523438 26.074219 "/>
<path style=" stroke:none;fill-rule:nonzero;fill:rgb(47.058824%,54.509807%,61.176473%);fill-opacity:1;" d="M 20.210938 5.695312 L 20.6875 3.355469 L 21.128906 3.449219 L 20.652344 5.785156 Z M 20.210938 5.695312 "/>
<path style=" stroke:none;fill-rule:nonzero;fill:rgb(47.058824%,54.509807%,61.176473%);fill-opacity:1;" d="M 30.210938 20.664062 L 30.296875 20.222656 L 32.636719 20.6875 L 32.550781 21.128906 Z M 30.210938 20.664062 "/>
<path style=" stroke:none;fill-rule:nonzero;fill:rgb(47.058824%,54.509807%,61.176473%);fill-opacity:1;" d="M 3.363281 15.3125 L 3.453125 14.871094 L 5.789062 15.335938 L 5.703125 15.777344 Z M 3.363281 15.3125 "/>
</g>
</g>
</svg>
