<?xml version="1.0" encoding="UTF-8"?>
<svg xmlns="http://www.w3.org/2000/svg" xmlns:xlink="http://www.w3.org/1999/xlink" width="48" height="48" viewBox="0 0 48 48" version="1.1">
<g transform="scale(1.33333333)">
<g id="surface1839">
<path style=" stroke:none;fill-rule:nonzero;fill:rgb(100%,100%,100%);fill-opacity:1;" d="M 1.125 3.824219 L 34.875 3.824219 L 34.875 32.175781 L 1.125 32.175781 Z M 1.125 3.824219 "/>
<path style=" stroke:none;fill-rule:nonzero;fill:rgb(47.058824%,54.509807%,61.176473%);fill-opacity:1;" d="M 34.648438 4.050781 L 34.648438 31.949219 L 1.351562 31.949219 L 1.351562 4.050781 L 34.648438 4.050781 M 35.101562 3.601562 L 0.898438 3.601562 L 0.898438 32.398438 L 35.101562 32.398438 Z M 35.101562 3.601562 "/>
<path style=" stroke:none;fill-rule:nonzero;fill:rgb(70.980394%,87.058824%,100%);fill-opacity:1;" d="M 5.398438 8.101562 L 30.601562 8.101562 L 30.601562 24.1875 L 5.398438 24.1875 Z M 5.398438 8.101562 "/>
<path style=" stroke:none;fill-rule:nonzero;fill:rgb(85.09804%,96.470588%,100%);fill-opacity:1;" d="M 5.398438 17.101562 L 30.601562 17.101562 L 30.601562 24.300781 L 5.398438 24.300781 Z M 5.398438 17.101562 "/>
<path style=" stroke:none;fill-rule:nonzero;fill:rgb(47.843137%,67.843139%,94.117647%);fill-opacity:1;" d="M 5.398438 24.300781 L 30.601562 24.300781 L 30.601562 27.898438 L 5.398438 27.898438 Z M 5.398438 24.300781 "/>
<path style=" stroke:none;fill-rule:nonzero;fill:rgb(85.09804%,96.470588%,100%);fill-opacity:1;" d="M 13.273438 13.5 C 11.535156 13.5 10.125 14.765625 10.125 16.328125 C 10.125 17.890625 11.535156 19.15625 13.273438 19.15625 C 15.015625 19.15625 16.425781 17.890625 16.425781 16.328125 C 16.425781 14.765625 15.015625 13.5 13.273438 13.5 Z M 13.273438 13.5 "/>
<path style=" stroke:none;fill-rule:nonzero;fill:rgb(85.09804%,96.470588%,100%);fill-opacity:1;" d="M 10.125 14.207031 C 8.820312 14.207031 7.761719 15.15625 7.761719 16.328125 C 7.761719 17.5 8.820312 18.449219 10.125 18.449219 C 11.429688 18.449219 12.488281 17.5 12.488281 16.328125 C 12.488281 15.15625 11.429688 14.207031 10.125 14.207031 Z M 18 14.914062 C 16.261719 14.914062 14.851562 16.179688 14.851562 17.742188 C 14.851562 19.304688 16.261719 20.570312 18 20.570312 C 19.738281 20.570312 21.148438 19.304688 21.148438 17.742188 C 21.148438 16.179688 19.738281 14.914062 18 14.914062 Z M 18 14.914062 "/>
<path style=" stroke:none;fill-rule:nonzero;fill:rgb(85.09804%,96.470588%,100%);fill-opacity:1;" d="M 22.726562 13.5 C 20.984375 13.5 19.574219 14.765625 19.574219 16.328125 C 19.574219 17.890625 20.984375 19.15625 22.726562 19.15625 C 24.464844 19.15625 25.875 17.890625 25.875 16.328125 C 25.875 14.765625 24.464844 13.5 22.726562 13.5 Z M 29.023438 14.914062 C 28.15625 14.914062 27.449219 15.546875 27.449219 16.328125 C 27.449219 17.109375 28.15625 17.742188 29.023438 17.742188 C 29.894531 17.742188 30.601562 17.109375 30.601562 16.328125 C 30.601562 15.546875 29.894531 14.914062 29.023438 14.914062 Z M 6.976562 14.914062 C 6.105469 14.914062 5.398438 15.546875 5.398438 16.328125 C 5.398438 17.109375 6.105469 17.742188 6.976562 17.742188 C 7.84375 17.742188 8.550781 17.109375 8.550781 16.328125 C 8.550781 15.546875 7.84375 14.914062 6.976562 14.914062 Z M 6.976562 14.914062 "/>
<path style=" stroke:none;fill-rule:nonzero;fill:rgb(85.09804%,96.470588%,100%);fill-opacity:1;" d="M 25.875 14.207031 C 24.570312 14.207031 23.511719 15.15625 23.511719 16.328125 C 23.511719 17.5 24.570312 18.449219 25.875 18.449219 C 27.179688 18.449219 28.238281 17.5 28.238281 16.328125 C 28.238281 15.15625 27.179688 14.207031 25.875 14.207031 Z M 25.875 14.207031 "/>
<path style=" stroke:none;fill-rule:nonzero;fill:rgb(29.019609%,42.745098%,61.176473%);fill-opacity:1;" d="M 5.398438 24.300781 L 30.601562 24.300781 L 30.601562 22.84375 L 22.726562 18 Z M 5.398438 24.300781 "/>
<path style=" stroke:none;fill-rule:nonzero;fill:rgb(36.470589%,51.764709%,72.156864%);fill-opacity:1;" d="M 24.300781 24.300781 L 5.398438 24.300781 L 5.398438 20.699219 L 13.273438 17.101562 Z M 24.300781 24.300781 "/>
</g>
</g>
</svg>
