<?xml version="1.0" encoding="UTF-8"?>
<svg xmlns="http://www.w3.org/2000/svg" xmlns:xlink="http://www.w3.org/1999/xlink" width="48" height="48" viewBox="0 0 48 48" version="1.1">
<g transform="scale(1.33333333)">
<g id="surface1866">
<path style=" stroke:none;fill-rule:nonzero;fill:rgb(100%,93.333334%,63.921571%);fill-opacity:1;" d="M 13.273438 20.925781 L 15.074219 20.925781 L 15.074219 33.976562 L 13.273438 33.976562 Z M 13.273438 20.925781 "/>
<path style=" stroke:none;fill-rule:nonzero;fill:rgb(96.078432%,76.078433%,46.27451%);fill-opacity:1;" d="M 14.851562 21.148438 L 14.851562 33.75 L 13.5 33.75 L 13.5 21.148438 L 14.851562 21.148438 M 15.300781 20.699219 L 13.050781 20.699219 L 13.050781 34.199219 L 15.300781 34.199219 Z M 15.300781 20.699219 "/>
<path style=" stroke:none;fill-rule:nonzero;fill:rgb(100%,93.333334%,63.921571%);fill-opacity:1;" d="M 20.925781 20.925781 L 22.726562 20.925781 L 22.726562 33.976562 L 20.925781 33.976562 Z M 20.925781 20.925781 "/>
<path style=" stroke:none;fill-rule:nonzero;fill:rgb(96.078432%,76.078433%,46.27451%);fill-opacity:1;" d="M 22.5 21.148438 L 22.5 33.75 L 21.148438 33.75 L 21.148438 21.148438 L 22.5 21.148438 M 22.949219 20.699219 L 20.699219 20.699219 L 20.699219 34.199219 L 22.949219 34.199219 Z M 22.949219 20.699219 "/>
<path style=" stroke:none;fill-rule:nonzero;fill:rgb(96.862745%,56.078434%,56.078434%);fill-opacity:1;" d="M 11.476562 18.675781 L 11.476562 8.550781 C 11.476562 4.953125 14.402344 2.023438 18 2.023438 C 21.597656 2.023438 24.523438 4.953125 24.523438 8.550781 L 24.523438 18.675781 Z M 11.476562 18.675781 "/>
<path style=" stroke:none;fill-rule:nonzero;fill:rgb(67.058825%,20.392157%,20.392157%);fill-opacity:1;" d="M 18 2.25 C 21.472656 2.25 24.300781 5.074219 24.300781 8.550781 L 24.300781 18.449219 L 11.699219 18.449219 L 11.699219 8.550781 C 11.699219 5.074219 14.527344 2.25 18 2.25 M 18 1.800781 C 14.289062 1.800781 11.25 4.835938 11.25 8.550781 L 11.25 18.898438 L 24.75 18.898438 L 24.75 8.550781 C 24.75 4.835938 21.710938 1.800781 18 1.800781 Z M 18 1.800781 "/>
<path style=" stroke:none;fill-rule:nonzero;fill:rgb(96.862745%,56.078434%,56.078434%);fill-opacity:1;" d="M 9.675781 20.925781 L 9.695312 18.226562 L 26.324219 18.226562 L 26.304688 20.925781 Z M 9.675781 20.925781 "/>
<path style=" stroke:none;fill-rule:nonzero;fill:rgb(67.058825%,20.392157%,20.392157%);fill-opacity:1;" d="M 26.097656 18.449219 L 26.078125 20.699219 L 9.902344 20.699219 L 9.921875 18.449219 L 26.097656 18.449219 M 26.550781 18 L 9.472656 18 L 9.449219 21.148438 L 26.527344 21.148438 Z M 26.550781 18 "/>
<path style=" stroke:none;fill-rule:nonzero;fill:rgb(96.862745%,32.156864%,32.156864%);fill-opacity:1;" d="M 13.050781 18.449219 L 15.300781 18.449219 L 15.300781 20.699219 L 13.050781 20.699219 Z M 20.699219 18.449219 L 22.949219 18.449219 L 22.949219 20.699219 L 20.699219 20.699219 Z M 15.300781 18 L 13.050781 18 L 13.050781 14.601562 C 13.050781 14.601562 12.957031 11.25 16.199219 11.25 L 16.199219 13.5 C 15.285156 13.5 15.300781 14.316406 15.300781 14.316406 Z M 20.699219 18 L 22.949219 18 L 22.949219 14.601562 C 22.949219 14.601562 23.042969 11.25 19.800781 11.25 L 19.800781 13.5 C 20.714844 13.5 20.699219 14.316406 20.699219 14.316406 Z M 20.699219 18 "/>
<path style=" stroke:none;fill-rule:nonzero;fill:rgb(100%,100%,100%);fill-opacity:1;" d="M 18 9.449219 C 16.507812 9.449219 15.300781 10.660156 15.300781 12.148438 C 15.300781 13.640625 16.507812 14.851562 18 14.851562 C 19.492188 14.851562 20.699219 13.640625 20.699219 12.148438 C 20.699219 10.660156 19.492188 9.449219 18 9.449219 Z M 18 9.449219 "/>
</g>
</g>
</svg>
