<?xml version="1.0" encoding="UTF-8"?>
<svg xmlns="http://www.w3.org/2000/svg" xmlns:xlink="http://www.w3.org/1999/xlink" width="48" height="48" viewBox="0 0 48 48" version="1.1">
<g transform="scale(1.33333333)">
<g id="surface1902">
<path style=" stroke:none;fill-rule:nonzero;fill:rgb(54.509807%,71.764708%,94.117647%);fill-opacity:1;" d="M 2.023438 25.25 L 2.023438 16.832031 L 11.78125 4.757812 L 24.335938 8.34375 L 33.976562 2.210938 L 33.976562 25.25 Z M 2.023438 25.25 "/>
<path style=" stroke:none;fill-rule:nonzero;fill:rgb(30.588236%,47.843137%,70.980394%);fill-opacity:1;" d="M 33.75 2.621094 L 33.75 25.027344 L 2.25 25.027344 L 2.25 16.914062 L 11.863281 5.015625 L 24.175781 8.53125 L 24.371094 8.589844 L 24.542969 8.480469 L 33.75 2.621094 M 34.199219 1.800781 L 24.300781 8.101562 L 11.699219 4.5 L 1.800781 16.753906 L 1.800781 25.476562 L 34.199219 25.476562 Z M 34.199219 1.800781 "/>
<path style=" stroke:none;fill-rule:nonzero;fill:rgb(72.941178%,87.843138%,74.117649%);fill-opacity:1;" d="M 2.023438 33.976562 L 2.023438 23.101562 L 11.738281 16.445312 L 24.316406 20.039062 L 33.976562 15.851562 L 33.976562 33.976562 Z M 2.023438 33.976562 "/>
<path style=" stroke:none;fill-rule:nonzero;fill:rgb(36.862746%,61.176473%,46.27451%);fill-opacity:1;" d="M 33.75 16.191406 L 33.75 33.75 L 2.25 33.75 L 2.25 23.222656 L 11.78125 16.691406 L 24.175781 20.234375 L 24.332031 20.277344 L 24.480469 20.214844 L 33.75 16.191406 M 34.199219 15.507812 L 24.300781 19.800781 L 11.699219 16.199219 L 1.800781 22.984375 L 1.800781 34.199219 L 34.199219 34.199219 Z M 34.199219 15.507812 "/>
</g>
</g>
</svg>
