<?xml version="1.0" encoding="UTF-8"?>
<svg xmlns="http://www.w3.org/2000/svg" xmlns:xlink="http://www.w3.org/1999/xlink" width="48" height="48" viewBox="0 0 48 48" version="1.1">
<g transform="scale(1.33333333)">
<g id="surface1917">
<path style=" stroke:none;fill-rule:nonzero;fill:rgb(71.372551%,78.823531%,83.92157%);fill-opacity:1;" d="M 4.5 33.976562 C 3.148438 33.976562 2.023438 32.851562 2.023438 31.5 L 2.023438 4.5 C 2.023438 3.148438 3.148438 2.023438 4.5 2.023438 L 31.5 2.023438 C 32.851562 2.023438 33.976562 3.148438 33.976562 4.5 L 33.976562 31.5 C 33.976562 32.851562 32.851562 33.976562 31.5 33.976562 Z M 4.5 33.976562 "/>
<path style=" stroke:none;fill-rule:nonzero;fill:rgb(47.058824%,54.509807%,61.176473%);fill-opacity:1;" d="M 31.5 2.25 C 32.761719 2.25 33.75 3.238281 33.75 4.5 L 33.75 31.5 C 33.75 32.761719 32.761719 33.75 31.5 33.75 L 4.5 33.75 C 3.238281 33.75 2.25 32.761719 2.25 31.5 L 2.25 4.5 C 2.25 3.238281 3.238281 2.25 4.5 2.25 L 31.5 2.25 M 31.5 1.800781 L 4.5 1.800781 C 3.015625 1.800781 1.800781 3.015625 1.800781 4.5 L 1.800781 31.5 C 1.800781 32.984375 3.015625 34.199219 4.5 34.199219 L 31.5 34.199219 C 32.984375 34.199219 34.199219 32.984375 34.199219 31.5 L 34.199219 4.5 C 34.199219 3.015625 32.984375 1.800781 31.5 1.800781 Z M 31.5 1.800781 "/>
<path style=" stroke:none;fill-rule:nonzero;fill:rgb(100%,100%,100%);fill-opacity:1;" d="M 18.449219 29.25 C 18.316406 29.25 18.226562 29.160156 18.226562 29.070312 L 15.613281 8.730469 L 12.195312 23.714844 C 12.148438 23.804688 12.105469 23.894531 11.96875 23.894531 C 11.878906 23.894531 11.789062 23.804688 11.746094 23.714844 L 10.035156 15.300781 L 8.460938 18.316406 C 8.414062 18.40625 8.324219 18.449219 8.28125 18.449219 L 2.25 18.449219 L 2.25 18 L 8.144531 18 L 9.945312 14.535156 C 9.988281 14.445312 10.078125 14.398438 10.171875 14.398438 C 10.261719 14.398438 10.351562 14.488281 10.351562 14.578125 L 12.015625 22.546875 L 15.480469 7.378906 C 15.523438 7.289062 15.613281 7.199219 15.703125 7.199219 C 15.796875 7.199219 15.886719 7.289062 15.929688 7.378906 L 18.539062 27.898438 L 22.859375 12.734375 C 22.90625 12.644531 22.996094 12.554688 23.085938 12.554688 C 23.175781 12.554688 23.265625 12.601562 23.308594 12.734375 L 25.921875 22.050781 L 27.539062 18.136719 C 27.585938 18.046875 27.675781 18 27.765625 18 L 33.75 18 L 33.75 18.449219 L 27.898438 18.449219 L 26.101562 22.816406 C 26.054688 22.90625 25.964844 22.949219 25.875 22.949219 C 25.785156 22.949219 25.695312 22.859375 25.648438 22.769531 L 23.085938 13.636719 L 18.675781 29.070312 C 18.628906 29.203125 18.585938 29.25 18.449219 29.25 Z M 18.449219 29.25 "/>
</g>
</g>
</svg>
