<?xml version="1.0" encoding="UTF-8"?>
<svg xmlns="http://www.w3.org/2000/svg" xmlns:xlink="http://www.w3.org/1999/xlink" width="48" height="48" viewBox="0 0 48 48" version="1.1">
<g transform="scale(1.33333333)">
<g id="surface1953">
<path style=" stroke:none;fill-rule:nonzero;fill:rgb(76.078433%,90.980393%,100%);fill-opacity:1;" d="M 1.125 5.175781 L 34.875 5.175781 L 34.875 28.125 L 1.125 28.125 Z M 1.125 5.175781 "/>
<path style=" stroke:none;fill-rule:nonzero;fill:rgb(45.490196%,58.823532%,76.862746%);fill-opacity:1;" d="M 34.648438 5.398438 L 34.648438 27.898438 L 1.351562 27.898438 L 1.351562 5.398438 L 34.648438 5.398438 M 35.101562 4.949219 L 0.898438 4.949219 L 0.898438 28.351562 L 35.101562 28.351562 Z M 35.101562 4.949219 "/>
<path style=" stroke:none;fill-rule:nonzero;fill:rgb(69.01961%,75.686276%,83.137256%);fill-opacity:1;" d="M 11.929688 30.824219 C 12.046875 27.578125 14.726562 24.976562 18 24.976562 C 21.273438 24.976562 23.953125 27.578125 24.070312 30.824219 Z M 11.929688 30.824219 "/>
<path style=" stroke:none;fill-rule:nonzero;fill:rgb(40.000001%,47.450981%,56.078434%);fill-opacity:1;" d="M 18 25.199219 C 21.074219 25.199219 23.601562 27.582031 23.832031 30.601562 L 12.167969 30.601562 C 12.398438 27.582031 14.925781 25.199219 18 25.199219 M 18 24.75 C 14.519531 24.75 11.699219 27.570312 11.699219 31.050781 L 24.300781 31.050781 C 24.300781 27.570312 21.480469 24.75 18 24.75 Z M 18 24.75 "/>
<path style=" stroke:none;fill-rule:nonzero;fill:rgb(54.509807%,71.764708%,94.117647%);fill-opacity:1;" d="M 10.800781 21.824219 C 7.449219 21.824219 4.726562 19.101562 4.726562 15.75 C 4.726562 12.398438 7.449219 9.675781 10.800781 9.675781 C 14.148438 9.675781 16.875 12.398438 16.875 15.75 C 16.875 19.101562 14.148438 21.824219 10.800781 21.824219 Z M 10.800781 21.824219 "/>
<path style=" stroke:none;fill-rule:nonzero;fill:rgb(30.588236%,47.843137%,70.980394%);fill-opacity:1;" d="M 10.800781 9.898438 C 14.027344 9.898438 16.648438 12.523438 16.648438 15.75 C 16.648438 18.976562 14.027344 21.601562 10.800781 21.601562 C 7.574219 21.601562 4.949219 18.976562 4.949219 15.75 C 4.949219 12.523438 7.574219 9.898438 10.800781 9.898438 M 10.800781 9.449219 C 7.320312 9.449219 4.5 12.269531 4.5 15.75 C 4.5 19.230469 7.320312 22.050781 10.800781 22.050781 C 14.28125 22.050781 17.101562 19.230469 17.101562 15.75 C 17.101562 12.269531 14.28125 9.449219 10.800781 9.449219 Z M 10.800781 9.449219 "/>
<path style=" stroke:none;fill-rule:nonzero;fill:rgb(96.862745%,56.078434%,56.078434%);fill-opacity:1;" d="M 11.023438 15.523438 L 11.023438 9.679688 C 14.195312 9.792969 16.753906 12.351562 16.871094 15.523438 Z M 11.023438 15.523438 "/>
<path style=" stroke:none;fill-rule:nonzero;fill:rgb(78.039217%,26.274511%,26.274511%);fill-opacity:1;" d="M 11.25 9.917969 C 14.117188 10.136719 16.414062 12.433594 16.632812 15.300781 L 11.25 15.300781 L 11.25 9.917969 M 10.800781 9.449219 L 10.800781 15.75 L 17.101562 15.75 C 17.101562 12.269531 14.28125 9.449219 10.800781 9.449219 Z M 10.800781 9.449219 "/>
<path style=" stroke:none;fill-rule:nonzero;fill:rgb(30.588236%,47.843137%,70.980394%);fill-opacity:1;" d="M 31.5 14.398438 L 20.699219 14.398438 L 20.699219 13.5 L 31.5 13.5 Z M 31.5 14.398438 "/>
<path style=" stroke:none;fill-rule:nonzero;fill:rgb(55.29412%,75.686276%,87.843138%);fill-opacity:1;" d="M 31.5 14.398438 L 27.898438 14.398438 L 27.898438 13.5 L 31.5 13.5 Z M 31.5 14.398438 "/>
<path style=" stroke:none;fill-rule:nonzero;fill:rgb(30.588236%,47.843137%,70.980394%);fill-opacity:1;" d="M 31.5 10.800781 L 20.699219 10.800781 L 20.699219 9.898438 L 31.5 9.898438 Z M 31.5 10.800781 "/>
<path style=" stroke:none;fill-rule:nonzero;fill:rgb(55.29412%,75.686276%,87.843138%);fill-opacity:1;" d="M 31.5 10.800781 L 28.800781 10.800781 L 28.800781 9.898438 L 31.5 9.898438 Z M 31.5 10.800781 "/>
<path style=" stroke:none;fill-rule:nonzero;fill:rgb(30.588236%,47.843137%,70.980394%);fill-opacity:1;" d="M 31.5 18 L 20.699219 18 L 20.699219 17.101562 L 31.5 17.101562 Z M 31.5 18 "/>
<path style=" stroke:none;fill-rule:nonzero;fill:rgb(30.588236%,47.843137%,70.980394%);fill-opacity:1;" d="M 31.5 21.601562 L 20.699219 21.601562 L 20.699219 20.699219 L 31.5 20.699219 Z M 31.5 21.601562 "/>
<path style=" stroke:none;fill-rule:nonzero;fill:rgb(55.29412%,75.686276%,87.843138%);fill-opacity:1;" d="M 31.5 18 L 28.800781 18 L 28.800781 17.101562 L 31.5 17.101562 Z M 31.5 18 "/>
<path style=" stroke:none;fill-rule:nonzero;fill:rgb(55.29412%,75.686276%,87.843138%);fill-opacity:1;" d="M 31.5 21.601562 L 25.199219 21.601562 L 25.199219 20.699219 L 31.5 20.699219 Z M 31.5 21.601562 "/>
</g>
</g>
</svg>
