<?xml version="1.0" encoding="UTF-8"?>
<svg xmlns="http://www.w3.org/2000/svg" xmlns:xlink="http://www.w3.org/1999/xlink" width="48" height="48" viewBox="0 0 48 48" version="1.1">
<g transform="scale(1.33333333)">
<g id="surface1981">
<path style=" stroke:none;fill-rule:nonzero;fill:rgb(96.078432%,80.784315%,52.156866%);fill-opacity:1;" d="M 1.171875 34.828125 C 1.476562 33.042969 3.097656 24.066406 5.308594 21.855469 C 6.488281 20.675781 8.058594 20.023438 9.726562 20.023438 C 11.394531 20.023438 12.964844 20.675781 14.144531 21.855469 C 15.324219 23.035156 15.976562 24.605469 15.976562 26.273438 C 15.976562 27.941406 15.324219 29.511719 14.144531 30.691406 C 11.933594 32.902344 2.957031 34.523438 1.171875 34.828125 Z M 1.171875 34.828125 "/>
<path style=" stroke:none;fill-rule:nonzero;fill:rgb(58.823532%,47.843137%,26.666668%);fill-opacity:1;" d="M 9.726562 20.25 C 11.335938 20.25 12.847656 20.875 13.984375 22.015625 C 16.335938 24.363281 16.335938 28.183594 13.984375 30.53125 C 11.925781 32.589844 3.773438 34.144531 1.449219 34.550781 C 1.617188 33.578125 1.988281 31.582031 2.515625 29.449219 C 3.472656 25.558594 4.492188 22.988281 5.46875 22.015625 C 6.605469 20.875 8.117188 20.25 9.726562 20.25 M 9.726562 19.800781 C 8.070312 19.800781 6.414062 20.433594 5.148438 21.695312 C 2.621094 24.222656 0.898438 35.101562 0.898438 35.101562 C 0.898438 35.101562 11.777344 33.378906 14.304688 30.851562 C 16.832031 28.320312 16.832031 24.222656 14.304688 21.695312 C 13.039062 20.433594 11.382812 19.800781 9.726562 19.800781 Z M 9.726562 19.800781 "/>
<path style=" stroke:none;fill-rule:nonzero;fill:rgb(100%,76.862746%,61.176473%);fill-opacity:1;" d="M 22.566406 8.316406 L 29.34375 1.222656 L 34.777344 6.65625 L 27.683594 13.433594 Z M 22.566406 8.316406 "/>
<path style=" stroke:none;fill-rule:nonzero;fill:rgb(63.137257%,41.568628%,29.019609%);fill-opacity:1;" d="M 29.347656 1.542969 L 34.457031 6.652344 L 27.6875 13.121094 L 22.878906 8.3125 L 29.347656 1.542969 M 29.34375 0.898438 L 22.25 8.320312 L 27.683594 13.75 L 35.101562 6.660156 Z M 29.34375 0.898438 "/>
<path style=" stroke:none;fill-rule:nonzero;fill:rgb(86.274511%,83.529413%,94.901961%);fill-opacity:1;" d="M 11.339844 20.210938 L 23.140625 7.523438 L 28.476562 12.859375 L 15.785156 24.660156 Z M 11.339844 20.210938 "/>
<path style=" stroke:none;fill-rule:nonzero;fill:rgb(54.509807%,45.882353%,63.137257%);fill-opacity:1;" d="M 23.148438 7.847656 L 28.152344 12.851562 L 15.792969 24.347656 L 11.652344 20.207031 L 23.148438 7.847656 M 23.136719 7.199219 L 11.027344 20.21875 L 15.78125 24.972656 L 28.800781 12.863281 Z M 23.136719 7.199219 "/>
</g>
</g>
</svg>
