<?xml version="1.0" encoding="UTF-8" standalone="no"?>
<!DOCTYPE svg PUBLIC "-//W3C//DTD SVG 1.1//EN" "http://www.w3.org/Graphics/SVG/1.1/DTD/svg11.dtd">
<svg width="48" height="48" viewBox="0 0 48 48" version="1.1" xmlns="http://www.w3.org/2000/svg" xmlns:xlink="http://www.w3.org/1999/xlink" xml:space="preserve" xmlns:serif="http://www.serif.com/" style="fill-rule:evenodd;clip-rule:evenodd;stroke-linejoin:round;stroke-miterlimit:2;">
<g transform="scale(1.33333333)">
    <g id="surface2012">
        <path d="M0.309,18L18,0.309L35.691,18L18,35.691L0.309,18Z" style="fill:rgb(88,156,219);fill-rule:nonzero;"/>
        <path d="M18,0.629L35.371,18L18,35.371L0.629,18L18,0.629M18,0L0,18L18,36L36,18L18,0Z" style="fill:rgb(78,121,181);fill-rule:nonzero;"/>
        <path d="M17.504,35.191L21.238,20.297L21.285,20.07L21.645,20.023L35.641,17.953L35.684,18L18,35.684L17.504,35.191Z" style="fill:rgb(69,133,191);fill-rule:nonzero;"/>
        <path d="M35.102,18.27L18,35.371L17.773,35.145L21.465,20.387L21.512,20.297L21.691,20.25L35.102,18.27M35.73,17.73L21.602,19.801L21.105,19.891L21.016,20.25L17.281,35.281L18,36L36,18L35.73,17.73Z" style="fill:rgb(78,121,181);fill-rule:nonzero;"/>
        <path d="M17.777,1.242L18.223,1.16L21.82,20.355L21.379,20.438L17.777,1.242Z" style="fill:rgb(115,115,115);fill-rule:nonzero;"/>
        <path d="M17.77,34.746L21.367,20.34L21.805,20.445L18.203,34.855L17.77,34.746Z" style="fill:rgb(115,115,115);fill-rule:nonzero;"/>
        <path d="M1.152,18.234L1.207,17.789L21.586,20.184L21.531,20.633L1.152,18.234Z" style="fill:rgb(115,115,115);fill-rule:nonzero;"/>
        <path d="M0.316,18L0.766,17.551L21.555,20.023L21.824,20.023L21.824,20.203L18.047,35.641L18,35.684L0.316,18Z" style="fill:rgb(151,201,254);fill-rule:nonzero;"/>
        <path d="M0.855,17.82L21.555,20.25L21.602,20.25L17.91,35.281L0.629,18L0.855,17.82M0.676,17.324L0,18L18,36L18.27,35.73L22.051,20.25L22.051,19.801L21.602,19.801L0.676,17.324Z" style="fill:rgb(78,121,181);fill-rule:nonzero;"/>
        <path d="M21.602,20.023L0.359,18.047L0.316,18L18,0.316L21.824,19.844L21.824,20.023L21.602,20.023Z" style="fill:rgb(194,232,254);fill-rule:nonzero;"/>
        <path d="M17.863,0.766L21.602,19.801L0.766,17.863L17.863,0.766M18,0L0,18L0.27,18.27L21.602,20.25L22.051,20.25L22.051,19.801L18.227,0.227L18,0Z" style="fill:rgb(78,121,181);fill-rule:nonzero;"/>
    </g>
</g>
</svg>
