<?xml version="1.0" encoding="UTF-8"?>
<svg xmlns="http://www.w3.org/2000/svg" xmlns:xlink="http://www.w3.org/1999/xlink" width="48" height="48" viewBox="0 0 48 48" version="1.1">
<g transform="scale(1.33333333)">
<g id="surface1887">
<path style=" stroke:none;fill-rule:nonzero;fill:rgb(88.235295%,92.156863%,94.901961%);fill-opacity:1;" d="M 2.699219 34.425781 C 1.84375 34.425781 1.125 33.703125 1.125 32.851562 L 1.125 2.699219 C 1.125 1.84375 1.84375 1.125 2.699219 1.125 L 32.851562 1.125 C 33.703125 1.125 34.425781 1.84375 34.425781 2.699219 L 34.425781 32.851562 C 34.425781 33.703125 33.703125 34.425781 32.851562 34.425781 Z M 2.699219 34.425781 "/>
<path style=" stroke:none;fill-rule:nonzero;fill:rgb(47.058824%,54.509807%,61.176473%);fill-opacity:1;" d="M 32.851562 1.351562 C 33.613281 1.351562 34.199219 1.933594 34.199219 2.699219 L 34.199219 32.851562 C 34.199219 33.613281 33.613281 34.199219 32.851562 34.199219 L 2.699219 34.199219 C 1.933594 34.199219 1.351562 33.613281 1.351562 32.851562 L 1.351562 2.699219 C 1.351562 1.933594 1.933594 1.351562 2.699219 1.351562 L 32.851562 1.351562 M 32.851562 0.898438 L 2.699219 0.898438 C 1.710938 0.898438 0.898438 1.710938 0.898438 2.699219 L 0.898438 32.851562 C 0.898438 33.839844 1.710938 34.648438 2.699219 34.648438 L 32.851562 34.648438 C 33.839844 34.648438 34.648438 33.839844 34.648438 32.851562 L 34.648438 2.699219 C 34.648438 1.710938 33.839844 0.898438 32.851562 0.898438 Z M 32.851562 0.898438 "/>
<path style=" stroke:none;fill-rule:nonzero;fill:rgb(71.372551%,78.823531%,83.92157%);fill-opacity:1;" d="M 17.550781 1.351562 L 18 1.351562 L 18 34.199219 L 17.550781 34.199219 Z M 17.550781 1.351562 "/>
<path style=" stroke:none;fill-rule:nonzero;fill:rgb(71.372551%,78.823531%,83.92157%);fill-opacity:1;" d="M 1.351562 17.550781 L 34.199219 17.550781 L 34.199219 18 L 1.351562 18 Z M 1.351562 17.550781 "/>
<path style=" stroke:none;fill-rule:nonzero;fill:rgb(78.039217%,26.274511%,26.274511%);fill-opacity:1;" d="M 34.199219 31.949219 C 29.339844 31.949219 27.179688 24.390625 25.109375 17.101562 C 23.21875 10.394531 21.421875 4.050781 17.773438 4.050781 C 14.175781 4.050781 12.375 10.351562 10.484375 17.011719 C 8.414062 24.34375 6.300781 31.949219 1.351562 31.949219 L 1.351562 31.5 C 5.941406 31.5 8.054688 24.074219 10.078125 16.921875 C 12.015625 10.078125 13.816406 3.601562 17.773438 3.601562 C 21.734375 3.601562 23.578125 10.078125 25.558594 16.964844 C 27.585938 24.121094 29.699219 31.5 34.199219 31.5 Z M 34.199219 31.949219 "/>
</g>
</g>
</svg>
