<?xml version="1.0" encoding="UTF-8"?>
<svg xmlns="http://www.w3.org/2000/svg" xmlns:xlink="http://www.w3.org/1999/xlink" width="48" height="48" viewBox="0 0 48 48" version="1.1">
<g transform="scale(1.33333333)">
<g id="surface2063">
<path style=" stroke:none;fill-rule:nonzero;fill:rgb(47.058824%,54.509807%,61.176473%);fill-opacity:1;" d="M 26.273438 9.0625 L 28.726562 6.613281 L 31.175781 9.0625 L 28.726562 11.515625 Z M 26.273438 9.0625 "/>
<path style=" stroke:none;fill-rule:nonzero;fill:rgb(47.058824%,54.509807%,61.176473%);fill-opacity:1;" d="M 16.199219 4.050781 L 19.800781 4.050781 L 19.800781 7.199219 L 16.199219 7.199219 Z M 16.199219 4.050781 "/>
<path style=" stroke:none;fill-rule:nonzero;fill:rgb(88.235295%,92.156863%,94.901961%);fill-opacity:1;" d="M 18 34.875 C 10.171875 34.875 3.824219 28.53125 3.824219 20.699219 C 3.824219 12.871094 10.171875 6.523438 18 6.523438 C 25.828125 6.523438 32.175781 12.871094 32.175781 20.699219 C 32.175781 28.53125 25.828125 34.875 18 34.875 Z M 18 34.875 "/>
<path style=" stroke:none;fill-rule:nonzero;fill:rgb(47.058824%,54.509807%,61.176473%);fill-opacity:1;" d="M 18 6.75 C 25.695312 6.75 31.949219 13.003906 31.949219 20.699219 C 31.949219 28.394531 25.695312 34.648438 18 34.648438 C 10.304688 34.648438 4.050781 28.394531 4.050781 20.699219 C 4.050781 13.003906 10.304688 6.75 18 6.75 M 18 6.300781 C 10.035156 6.300781 3.601562 12.734375 3.601562 20.699219 C 3.601562 28.664062 10.035156 35.101562 18 35.101562 C 25.964844 35.101562 32.398438 28.664062 32.398438 20.699219 C 32.398438 12.734375 25.964844 6.300781 18 6.300781 Z M 18 6.300781 "/>
<path style=" stroke:none;fill-rule:nonzero;fill:rgb(100%,100%,100%);fill-opacity:1;" d="M 18 32.488281 C 11.519531 32.488281 6.210938 27.226562 6.210938 20.699219 C 6.210938 14.175781 11.519531 8.910156 18 8.910156 C 24.480469 8.910156 29.789062 14.21875 29.789062 20.699219 C 29.789062 27.179688 24.480469 32.488281 18 32.488281 Z M 18 32.488281 "/>
<path style=" stroke:none;fill-rule:nonzero;fill:rgb(47.058824%,54.509807%,61.176473%);fill-opacity:1;" d="M 18 9.136719 C 24.390625 9.136719 29.566406 14.308594 29.566406 20.699219 C 29.566406 27.089844 24.390625 32.265625 18 32.265625 C 11.609375 32.265625 6.433594 27.089844 6.433594 20.699219 C 6.433594 14.308594 11.609375 9.136719 18 9.136719 M 18 8.683594 C 11.386719 8.683594 5.984375 14.039062 5.984375 20.699219 C 5.984375 27.359375 11.386719 32.714844 18 32.714844 C 24.613281 32.714844 30.015625 27.316406 30.015625 20.699219 C 30.015625 14.085938 24.613281 8.683594 18 8.683594 Z M 18 8.683594 "/>
<path style=" stroke:none;fill-rule:nonzero;fill:rgb(40.000001%,47.450981%,56.078434%);fill-opacity:1;" d="M 18 21.148438 C 17.863281 21.148438 17.773438 21.105469 17.683594 21.015625 L 11.699219 15.03125 C 11.519531 14.851562 11.519531 14.578125 11.699219 14.398438 C 11.878906 14.21875 12.148438 14.21875 12.328125 14.398438 L 18.316406 20.386719 C 18.496094 20.566406 18.496094 20.835938 18.316406 21.015625 C 18.226562 21.105469 18.136719 21.148438 18 21.148438 Z M 18 21.148438 "/>
<path style=" stroke:none;fill-rule:nonzero;fill:rgb(40.000001%,47.450981%,56.078434%);fill-opacity:1;" d="M 18 19.484375 C 17.328125 19.484375 16.785156 20.027344 16.785156 20.699219 C 16.785156 21.371094 17.328125 21.914062 18 21.914062 C 18.671875 21.914062 19.214844 21.371094 19.214844 20.699219 C 19.214844 20.027344 18.671875 19.484375 18 19.484375 Z M 18 19.484375 "/>
<path style=" stroke:none;fill-rule:nonzero;fill:rgb(88.235295%,92.156863%,94.901961%);fill-opacity:1;" d="M 15.300781 5.175781 C 14.941406 5.175781 14.625 4.859375 14.625 4.5 L 14.625 1.800781 C 14.625 1.441406 14.941406 1.125 15.300781 1.125 L 20.699219 1.125 C 21.058594 1.125 21.375 1.441406 21.375 1.800781 L 21.375 4.5 C 21.375 4.859375 21.058594 5.175781 20.699219 5.175781 Z M 15.300781 5.175781 "/>
<path style=" stroke:none;fill-rule:nonzero;fill:rgb(47.058824%,54.509807%,61.176473%);fill-opacity:1;" d="M 20.699219 1.351562 C 20.96875 1.351562 21.148438 1.53125 21.148438 1.800781 L 21.148438 4.5 C 21.148438 4.769531 20.96875 4.949219 20.699219 4.949219 L 15.300781 4.949219 C 15.03125 4.949219 14.851562 4.769531 14.851562 4.5 L 14.851562 1.800781 C 14.851562 1.53125 15.03125 1.351562 15.300781 1.351562 L 20.699219 1.351562 M 20.699219 0.898438 L 15.300781 0.898438 C 14.804688 0.898438 14.398438 1.304688 14.398438 1.800781 L 14.398438 4.5 C 14.398438 4.996094 14.804688 5.398438 15.300781 5.398438 L 20.699219 5.398438 C 21.195312 5.398438 21.601562 4.996094 21.601562 4.5 L 21.601562 1.800781 C 21.601562 1.304688 21.195312 0.898438 20.699219 0.898438 Z M 20.699219 0.898438 "/>
<path style=" stroke:none;fill-rule:nonzero;fill:rgb(88.235295%,92.156863%,94.901961%);fill-opacity:1;" d="M 30.421875 11.023438 C 30.195312 11.023438 30.015625 10.933594 29.878906 10.800781 L 27 7.921875 C 26.863281 7.785156 26.773438 7.558594 26.773438 7.378906 C 26.773438 7.199219 26.863281 6.976562 27 6.839844 L 27.988281 5.851562 C 28.125 5.714844 28.351562 5.625 28.53125 5.625 C 28.710938 5.625 28.933594 5.714844 29.070312 5.851562 L 31.90625 8.683594 C 32.21875 9 32.21875 9.496094 31.90625 9.808594 L 30.960938 10.800781 C 30.824219 10.933594 30.644531 11.023438 30.421875 11.023438 Z M 30.421875 11.023438 "/>
<path style=" stroke:none;fill-rule:nonzero;fill:rgb(47.058824%,54.509807%,61.176473%);fill-opacity:1;" d="M 28.53125 5.851562 C 28.664062 5.851562 28.800781 5.894531 28.933594 6.03125 L 31.769531 8.863281 C 31.996094 9.089844 31.996094 9.449219 31.769531 9.675781 L 30.78125 10.664062 C 30.691406 10.753906 30.554688 10.84375 30.375 10.84375 C 30.195312 10.84375 30.105469 10.800781 29.96875 10.664062 L 27.136719 7.828125 C 26.910156 7.605469 26.910156 7.246094 27.136719 7.019531 L 28.125 6.03125 C 28.261719 5.894531 28.394531 5.851562 28.53125 5.851562 M 28.53125 5.398438 C 28.261719 5.398438 28.035156 5.488281 27.808594 5.714844 L 26.820312 6.703125 C 26.414062 7.109375 26.414062 7.738281 26.820312 8.144531 L 29.65625 10.980469 C 29.835938 11.160156 30.105469 11.296875 30.375 11.296875 C 30.644531 11.296875 30.871094 11.203125 31.09375 10.980469 L 32.085938 9.988281 C 32.488281 9.585938 32.488281 8.953125 32.085938 8.550781 L 29.25 5.714844 C 29.070312 5.488281 28.800781 5.398438 28.53125 5.398438 Z M 28.53125 5.398438 "/>
</g>
</g>
</svg>
