<?xml version="1.0" encoding="UTF-8"?>
<svg xmlns="http://www.w3.org/2000/svg" xmlns:xlink="http://www.w3.org/1999/xlink" width="48" height="48" viewBox="0 0 48 48" version="1.1">
<g transform="scale(1.33333333)">
<g id="surface2085">
<path style=" stroke:none;fill-rule:nonzero;fill:rgb(25.882354%,30.588236%,36.078432%);fill-opacity:1;" d="M 2.023438 2.925781 L 33.976562 2.925781 L 33.976562 33.074219 L 2.023438 33.074219 Z M 2.023438 2.925781 "/>
<path style=" stroke:none;fill-rule:nonzero;fill:rgb(68.627453%,77.254903%,84.705883%);fill-opacity:1;" d="M 33.75 3.148438 L 33.75 32.851562 L 2.25 32.851562 L 2.25 3.148438 L 33.75 3.148438 M 34.199219 2.699219 L 1.800781 2.699219 L 1.800781 33.300781 L 34.199219 33.300781 Z M 34.199219 2.699219 "/>
<path style=" stroke:none;fill-rule:nonzero;fill:rgb(68.627453%,77.254903%,84.705883%);fill-opacity:1;" d="M 1.800781 2.699219 L 34.199219 2.699219 L 34.199219 8.101562 L 1.800781 8.101562 Z M 1.800781 2.699219 "/>
<path style=" stroke:none;fill-rule:nonzero;fill:rgb(72.941178%,87.843138%,74.117649%);fill-opacity:1;" d="M 17.101562 24.300781 L 27 24.300781 L 27 25.199219 L 17.101562 25.199219 Z M 9.945312 24.480469 L 9.359375 23.804688 L 13.949219 19.800781 L 9.359375 15.796875 L 9.945312 15.121094 L 15.300781 19.800781 Z M 9.945312 24.480469 "/>
</g>
</g>
</svg>
