<?xml version="1.0" encoding="UTF-8"?>
<svg xmlns="http://www.w3.org/2000/svg" xmlns:xlink="http://www.w3.org/1999/xlink" width="48" height="48" viewBox="0 0 48 48" version="1.1">
<g transform="scale(1.33333333)">
<g id="surface2134">
<path style=" stroke:none;fill-rule:nonzero;fill:rgb(100%,100%,100%);fill-opacity:1;" d="M 1.125 12.871094 L 29.476562 12.871094 L 29.476562 33.074219 L 1.125 33.074219 Z M 1.125 12.871094 "/>
<path style=" stroke:none;fill-rule:nonzero;fill:rgb(47.058824%,54.509807%,61.176473%);fill-opacity:1;" d="M 29.25 13.09375 L 29.25 32.851562 L 1.351562 32.851562 L 1.351562 13.09375 L 29.25 13.09375 M 29.699219 12.644531 L 0.898438 12.644531 L 0.898438 33.300781 L 29.699219 33.300781 Z M 29.699219 12.644531 "/>
<path style=" stroke:none;fill-rule:nonzero;fill:rgb(78.431374%,81.960785%,85.882354%);fill-opacity:1;" d="M 1.125 13.273438 L 1.125 11.25 C 1.125 10.125 2.023438 9.226562 3.148438 9.226562 L 27.449219 9.226562 C 28.574219 9.226562 29.476562 10.125 29.476562 11.25 L 29.476562 13.273438 Z M 1.125 13.273438 "/>
<path style=" stroke:none;fill-rule:nonzero;fill:rgb(40.000001%,47.450981%,56.078434%);fill-opacity:1;" d="M 27.449219 9.449219 C 28.441406 9.449219 29.25 10.261719 29.25 11.25 L 29.25 13.050781 L 1.351562 13.050781 L 1.351562 11.25 C 1.351562 10.261719 2.160156 9.449219 3.148438 9.449219 L 27.449219 9.449219 M 27.449219 9 L 3.148438 9 C 1.890625 9 0.898438 9.988281 0.898438 11.25 L 0.898438 13.5 L 29.699219 13.5 L 29.699219 11.25 C 29.699219 9.988281 28.710938 9 27.449219 9 Z M 27.449219 9 "/>
<path style=" stroke:none;fill-rule:nonzero;fill:rgb(100%,100%,100%);fill-opacity:1;" d="M 6.523438 6.570312 L 34.875 6.570312 L 34.875 26.773438 L 6.523438 26.773438 Z M 6.523438 6.570312 "/>
<path style=" stroke:none;fill-rule:nonzero;fill:rgb(47.058824%,54.509807%,61.176473%);fill-opacity:1;" d="M 34.648438 6.796875 L 34.648438 26.550781 L 6.75 26.550781 L 6.75 6.796875 L 34.648438 6.796875 M 35.101562 6.34375 L 6.300781 6.34375 L 6.300781 27 L 35.101562 27 Z M 35.101562 6.34375 "/>
<path style=" stroke:none;fill-rule:nonzero;fill:rgb(78.431374%,81.960785%,85.882354%);fill-opacity:1;" d="M 6.523438 6.976562 L 6.523438 4.949219 C 6.523438 3.824219 7.425781 2.925781 8.550781 2.925781 L 32.851562 2.925781 C 33.976562 2.925781 34.875 3.824219 34.875 4.949219 L 34.875 6.976562 Z M 6.523438 6.976562 "/>
<path style=" stroke:none;fill-rule:nonzero;fill:rgb(40.000001%,47.450981%,56.078434%);fill-opacity:1;" d="M 32.851562 3.148438 C 33.839844 3.148438 34.648438 3.960938 34.648438 4.949219 L 34.648438 6.75 L 6.75 6.75 L 6.75 4.949219 C 6.75 3.960938 7.558594 3.148438 8.550781 3.148438 L 32.851562 3.148438 M 32.851562 2.699219 L 8.550781 2.699219 C 7.289062 2.699219 6.300781 3.691406 6.300781 4.949219 L 6.300781 7.199219 L 35.101562 7.199219 L 35.101562 4.949219 C 35.101562 3.691406 34.109375 2.699219 32.851562 2.699219 Z M 32.851562 2.699219 "/>
<path style=" stroke:none;fill-rule:nonzero;fill:rgb(47.058824%,54.509807%,61.176473%);fill-opacity:1;" d="M 11.699219 13.050781 L 14.398438 13.050781 L 14.398438 13.5 L 11.699219 13.5 Z M 17.101562 13.050781 L 29.699219 13.050781 L 29.699219 13.5 L 17.101562 13.5 Z M 11.699219 16.648438 L 14.398438 16.648438 L 14.398438 17.101562 L 11.699219 17.101562 Z M 17.101562 16.648438 L 29.699219 16.648438 L 29.699219 17.101562 L 17.101562 17.101562 Z M 11.699219 20.25 L 14.398438 20.25 L 14.398438 20.699219 L 11.699219 20.699219 Z M 17.101562 20.25 L 29.699219 20.25 L 29.699219 20.699219 L 17.101562 20.699219 Z M 17.101562 20.25 "/>
</g>
</g>
</svg>
