<?xml version="1.0" encoding="UTF-8"?>
<svg xmlns="http://www.w3.org/2000/svg" xmlns:xlink="http://www.w3.org/1999/xlink" width="48" height="48" viewBox="0 0 48 48" version="1.1">
<g transform="scale(1.33333333)">
<g id="surface538">
<path style=" stroke:none;fill-rule:nonzero;fill:rgb(100%,100%,100%);fill-opacity:1;" d="M 6.523438 33.976562 L 6.523438 2.023438 L 23.308594 2.023438 L 31.273438 9.988281 L 31.273438 31.726562 C 31.273438 32.984375 30.285156 33.976562 29.023438 33.976562 Z M 6.523438 33.976562 "/>
<path style=" stroke:none;fill-rule:nonzero;fill:rgb(47.058824%,54.509807%,61.176473%);fill-opacity:1;" d="M 23.21875 2.25 L 31.050781 10.078125 L 31.050781 31.726562 C 31.050781 32.851562 30.148438 33.75 29.023438 33.75 L 6.75 33.75 L 6.75 2.25 L 23.21875 2.25 M 23.398438 1.800781 L 6.300781 1.800781 L 6.300781 34.199219 L 29.023438 34.199219 C 30.375 34.199219 31.5 33.074219 31.5 31.726562 L 31.5 9.898438 Z M 23.398438 1.800781 "/>
<path style=" stroke:none;fill-rule:nonzero;fill:rgb(100%,100%,100%);fill-opacity:1;" d="M 23.175781 10.125 L 23.175781 2.023438 L 23.308594 2.023438 L 31.273438 9.988281 L 31.273438 10.125 Z M 23.175781 10.125 "/>
<path style=" stroke:none;fill-rule:nonzero;fill:rgb(47.058824%,54.509807%,61.176473%);fill-opacity:1;" d="M 23.398438 2.429688 L 30.871094 9.898438 L 23.398438 9.898438 L 23.398438 2.429688 M 23.398438 1.800781 L 22.949219 1.800781 L 22.949219 10.351562 L 31.5 10.351562 L 31.5 9.898438 Z M 23.398438 1.800781 "/>
<path style=" stroke:none;fill-rule:nonzero;fill:rgb(77.254903%,83.137256%,87.058824%);fill-opacity:1;" d="M 11.699219 13.949219 L 26.101562 13.949219 L 26.101562 14.398438 L 11.699219 14.398438 Z M 11.699219 16.648438 L 22.5 16.648438 L 22.5 17.101562 L 11.699219 17.101562 Z M 11.699219 19.351562 L 26.101562 19.351562 L 26.101562 19.800781 L 11.699219 19.800781 Z M 11.699219 22.050781 L 22.5 22.050781 L 22.5 22.5 L 11.699219 22.5 Z M 11.699219 24.75 L 26.101562 24.75 L 26.101562 25.199219 L 11.699219 25.199219 Z M 11.699219 24.75 "/>
<path style=" stroke:none;fill-rule:nonzero;fill:rgb(83.92157%,89.019608%,92.941177%);fill-opacity:1;" d="M 31.050781 20.699219 L 31.050781 31.050781 C 31.050781 31.589844 30.871094 32.128906 30.601562 32.535156 L 30.601562 33.300781 L 29.835938 33.300781 C 29.429688 33.570312 28.890625 33.75 28.351562 33.75 L 23.398438 33.75 L 23.398438 34.199219 L 28.800781 34.199219 C 30.285156 34.199219 31.5 32.984375 31.5 31.5 L 31.5 20.699219 Z M 31.050781 20.699219 "/>
<path style=" stroke:none;fill-rule:nonzero;fill:rgb(86.274511%,83.529413%,94.901961%);fill-opacity:1;" d="M 24.523438 21.824219 L 35.773438 21.824219 L 35.773438 35.773438 L 24.523438 35.773438 Z M 24.523438 21.824219 "/>
<path style=" stroke:none;fill-rule:nonzero;fill:rgb(54.509807%,45.882353%,63.137257%);fill-opacity:1;" d="M 35.550781 22.050781 L 35.550781 35.550781 L 24.75 35.550781 L 24.75 22.050781 L 35.550781 22.050781 M 36 21.601562 L 24.300781 21.601562 L 24.300781 36 L 36 36 Z M 36 21.601562 "/>
<path style=" stroke:none;fill-rule:nonzero;fill:rgb(97.647059%,96.862745%,100%);fill-opacity:1;" d="M 27.449219 22.050781 L 27.898438 22.050781 L 27.898438 35.550781 L 27.449219 35.550781 Z M 27.449219 22.050781 "/>
<path style=" stroke:none;fill-rule:nonzero;fill:rgb(54.509807%,45.882353%,63.137257%);fill-opacity:1;" d="M 24.300781 31.050781 L 36 31.050781 L 36 31.5 L 24.300781 31.5 Z M 24.300781 26.101562 L 36 26.101562 L 36 26.550781 L 24.300781 26.550781 Z M 24.300781 26.101562 "/>
</g>
</g>
</svg>
