<?xml version="1.0" encoding="UTF-8"?>
<svg xmlns="http://www.w3.org/2000/svg" xmlns:xlink="http://www.w3.org/1999/xlink" width="48" height="48" viewBox="0 0 48 48" version="1.1">
<g transform="scale(1.33333333)">
<g id="surface375">
<path style=" stroke:none;fill-rule:nonzero;fill:rgb(100%,93.333334%,63.921571%);fill-opacity:1;" d="M 18 34.875 C 8.683594 34.875 1.125 27.316406 1.125 18 C 1.125 8.683594 8.683594 1.125 18 1.125 C 27.316406 1.125 34.875 8.683594 34.875 18 C 34.875 27.316406 27.316406 34.875 18 34.875 Z M 18 34.875 "/>
<path style=" stroke:none;fill-rule:nonzero;fill:rgb(72.941178%,60.784316%,28.235295%);fill-opacity:1;" d="M 18 1.351562 C 27.179688 1.351562 34.648438 8.820312 34.648438 18 C 34.648438 27.179688 27.179688 34.648438 18 34.648438 C 8.820312 34.648438 1.351562 27.179688 1.351562 18 C 1.351562 8.820312 8.820312 1.351562 18 1.351562 M 18 0.898438 C 8.550781 0.898438 0.898438 8.550781 0.898438 18 C 0.898438 27.449219 8.550781 35.101562 18 35.101562 C 27.449219 35.101562 35.101562 27.449219 35.101562 18 C 35.101562 8.550781 27.449219 0.898438 18 0.898438 Z M 18 0.898438 "/>
<path style=" stroke:none;fill-rule:nonzero;fill:rgb(21.176471%,25.098041%,30.19608%);fill-opacity:1;" d="M 18 23.398438 C 17.234375 23.398438 16.648438 23.984375 16.648438 24.75 C 16.648438 25.515625 17.234375 26.101562 18 26.101562 C 18.765625 26.101562 19.351562 25.515625 19.351562 24.75 C 19.351562 23.984375 18.765625 23.398438 18 23.398438 Z M 16.648438 10.351562 L 19.351562 10.351562 L 19.351562 21.601562 L 16.648438 21.601562 Z M 16.648438 10.351562 "/>
</g>
</g>
</svg>
