<?xml version="1.0" encoding="UTF-8"?>
<svg xmlns="http://www.w3.org/2000/svg" xmlns:xlink="http://www.w3.org/1999/xlink" width="48" height="48" viewBox="0 0 48 48" version="1.1">
<g transform="scale(1.33333333)">
<g id="surface395">
<path style=" stroke:none;fill-rule:nonzero;fill:rgb(54.509807%,71.764708%,94.117647%);fill-opacity:1;" d="M 18 31.726562 C 17.4375 31.726562 16.933594 31.429688 16.644531 30.9375 L 16.578125 30.824219 L 2.699219 30.824219 C 1.832031 30.824219 1.125 30.117188 1.125 29.25 L 1.125 10.800781 C 1.125 9.929688 1.832031 9.226562 2.699219 9.226562 L 33.300781 9.226562 C 34.167969 9.226562 34.875 9.929688 34.875 10.800781 L 34.875 29.25 C 34.875 30.117188 34.167969 30.824219 33.300781 30.824219 L 19.421875 30.824219 L 19.355469 30.9375 C 19.066406 31.429688 18.5625 31.726562 18 31.726562 Z M 18 31.726562 "/>
<path style=" stroke:none;fill-rule:nonzero;fill:rgb(30.588236%,47.843137%,70.980394%);fill-opacity:1;" d="M 33.300781 9.449219 C 34.042969 9.449219 34.648438 10.054688 34.648438 10.800781 L 34.648438 29.25 C 34.648438 29.996094 34.042969 30.601562 33.300781 30.601562 L 19.292969 30.601562 L 19.160156 30.824219 C 18.914062 31.246094 18.480469 31.5 18 31.5 C 17.519531 31.5 17.085938 31.246094 16.839844 30.824219 L 16.707031 30.601562 L 2.699219 30.601562 C 1.957031 30.601562 1.351562 29.996094 1.351562 29.25 L 1.351562 10.800781 C 1.351562 10.054688 1.957031 9.449219 2.699219 9.449219 L 33.300781 9.449219 M 33.300781 9 L 2.699219 9 C 1.707031 9 0.898438 9.804688 0.898438 10.800781 L 0.898438 29.25 C 0.898438 30.242188 1.707031 31.050781 2.699219 31.050781 L 16.449219 31.050781 C 16.761719 31.585938 17.335938 31.949219 18 31.949219 C 18.664062 31.949219 19.238281 31.585938 19.550781 31.050781 L 33.300781 31.050781 C 34.292969 31.050781 35.101562 30.242188 35.101562 29.25 L 35.101562 10.800781 C 35.101562 9.804688 34.292969 9 33.300781 9 Z M 33.300781 9 "/>
<path style=" stroke:none;fill-rule:nonzero;fill:rgb(100%,100%,100%);fill-opacity:1;" d="M 18.003906 28.941406 C 17.363281 28.351562 14.828125 26.324219 10.351562 26.324219 C 6.289062 26.324219 3.828125 27.992188 2.925781 28.742188 L 2.925781 6.84375 C 3.34375 6.449219 5.855469 4.273438 10.351562 4.273438 C 15.269531 4.273438 17.8125 6.878906 17.835938 6.90625 L 18 7.074219 L 18.160156 6.90625 C 18.1875 6.878906 20.753906 4.273438 25.648438 4.273438 C 30.125 4.273438 32.652344 6.449219 33.074219 6.84375 L 33.074219 28.757812 C 32.15625 28.015625 29.613281 26.324219 25.648438 26.324219 C 21.304688 26.324219 18.667969 28.359375 18.003906 28.941406 Z M 18.003906 28.941406 "/>
<path style=" stroke:none;fill-rule:nonzero;fill:rgb(47.058824%,54.509807%,61.176473%);fill-opacity:1;" d="M 25.648438 4.496094 C 29.839844 4.496094 32.289062 6.441406 32.851562 6.945312 L 32.851562 28.304688 C 31.6875 27.46875 29.238281 26.097656 25.648438 26.097656 C 21.511719 26.097656 18.886719 27.921875 18.007812 28.644531 C 17.15625 27.910156 14.609375 26.097656 10.351562 26.097656 C 6.6875 26.097656 4.292969 27.441406 3.148438 28.28125 L 3.148438 6.941406 C 3.703125 6.4375 6.121094 4.496094 10.351562 4.496094 C 15.160156 4.496094 17.648438 7.035156 17.671875 7.058594 L 17.996094 7.398438 L 18.324219 7.0625 C 18.347656 7.035156 20.859375 4.496094 25.648438 4.496094 M 25.648438 4.046875 C 20.589844 4.046875 18 6.75 18 6.75 C 18 6.75 15.433594 4.046875 10.351562 4.046875 C 5.265625 4.046875 2.699219 6.75 2.699219 6.75 L 2.699219 29.25 C 2.699219 29.25 5.261719 26.546875 10.351562 26.546875 C 15.4375 26.546875 18 29.25 18 29.25 C 18 29.25 20.726562 26.546875 25.648438 26.546875 C 30.574219 26.546875 33.300781 29.25 33.300781 29.25 L 33.300781 6.75 C 33.300781 6.75 30.710938 4.046875 25.648438 4.046875 Z M 25.648438 4.046875 "/>
<path style=" stroke:none;fill-rule:nonzero;fill:rgb(88.235295%,92.156863%,94.901961%);fill-opacity:1;" d="M 32.851562 28.351562 C 31.699219 27.515625 29.246094 26.101562 25.648438 26.101562 C 21.492188 26.101562 18.859375 27.941406 18.007812 28.648438 C 18.007812 28.648438 18 12.429688 18 7.425781 C 18.183594 7.085938 20.769531 4.5 25.648438 4.5 C 29.804688 4.5 32.246094 6.332031 32.851562 6.863281 Z M 32.851562 28.351562 "/>
<path style=" stroke:none;fill-rule:nonzero;fill:rgb(21.176471%,25.098041%,30.19608%);fill-opacity:1;" d="M 25.648438 8.550781 C 24.90625 8.550781 24.300781 9.15625 24.300781 9.898438 C 24.300781 10.644531 24.90625 11.25 25.648438 11.25 C 26.394531 11.25 27 10.644531 27 9.898438 C 27 9.15625 26.394531 8.550781 25.648438 8.550781 Z M 25.648438 8.550781 "/>
<path style=" stroke:none;fill-rule:nonzero;fill:rgb(21.176471%,25.098041%,30.19608%);fill-opacity:1;" d="M 27 21.148438 L 27 13.050781 L 23.398438 13.050781 L 23.398438 13.949219 L 24.300781 13.949219 L 24.300781 21.148438 L 23.398438 21.148438 L 23.398438 22.050781 L 27.898438 22.050781 L 27.898438 21.148438 Z M 27 21.148438 "/>
</g>
</g>
</svg>
