<?xml version="1.0" encoding="UTF-8"?>
<svg xmlns="http://www.w3.org/2000/svg" xmlns:xlink="http://www.w3.org/1999/xlink" width="48" height="48" viewBox="0 0 48 48" version="1.1">
<g transform="scale(1.33333333)">
<g id="surface416">
<path style=" stroke:none;fill-rule:nonzero;fill:rgb(85.882354%,94.901961%,100%);fill-opacity:1;" d="M 2.925781 34.875 L 2.925781 11.828125 L 18 2.960938 L 33.074219 11.828125 L 33.074219 34.875 Z M 2.925781 34.875 "/>
<path style=" stroke:none;fill-rule:nonzero;fill:rgb(45.490196%,58.823532%,76.862746%);fill-opacity:1;" d="M 18 3.222656 L 32.851562 11.957031 L 32.851562 34.648438 L 3.148438 34.648438 L 3.148438 11.957031 L 18 3.222656 M 18 2.699219 L 2.699219 11.699219 L 2.699219 35.101562 L 33.300781 35.101562 L 33.300781 11.699219 Z M 18 2.699219 "/>
<path style=" stroke:none;fill-rule:nonzero;fill:rgb(70.980394%,86.666667%,96.078432%);fill-opacity:1;" d="M 3.148438 31.949219 L 32.851562 31.949219 L 32.851562 34.648438 L 3.148438 34.648438 Z M 3.148438 31.949219 "/>
<path style=" stroke:none;fill-rule:nonzero;fill:rgb(96.862745%,56.078434%,56.078434%);fill-opacity:1;" d="M 17.996094 4.445312 L 1.125 14.761719 L 1.125 11.480469 L 17.996094 1.164062 L 34.875 11.480469 L 34.875 14.761719 Z M 17.996094 4.445312 "/>
<path style=" stroke:none;fill-rule:nonzero;fill:rgb(78.039217%,26.274511%,26.274511%);fill-opacity:1;" d="M 17.996094 1.425781 L 34.648438 11.605469 L 34.648438 14.359375 L 18.234375 4.324219 L 17.996094 4.179688 L 17.761719 4.324219 L 1.351562 14.359375 L 1.351562 11.605469 L 17.996094 1.425781 M 17.996094 0.898438 L 0.898438 11.355469 L 0.898438 15.160156 L 17.996094 4.707031 L 35.101562 15.160156 L 35.101562 11.351562 Z M 17.996094 0.898438 "/>
<path style=" stroke:none;fill-rule:nonzero;fill:rgb(100%,76.862746%,61.176473%);fill-opacity:1;" d="M 12.824219 19.125 L 23.175781 19.125 L 23.175781 34.875 L 12.824219 34.875 Z M 12.824219 19.125 "/>
<path style=" stroke:none;fill-rule:nonzero;fill:rgb(63.137257%,41.568628%,29.019609%);fill-opacity:1;" d="M 22.949219 19.351562 L 22.949219 34.648438 L 13.050781 34.648438 L 13.050781 19.351562 L 22.949219 19.351562 M 23.398438 18.898438 L 12.601562 18.898438 L 12.601562 35.101562 L 23.398438 35.101562 Z M 23.398438 18.898438 "/>
<path style=" stroke:none;fill-rule:nonzero;fill:rgb(63.137257%,41.568628%,29.019609%);fill-opacity:1;" d="M 20.925781 27 C 20.550781 27 20.25 27.300781 20.25 27.675781 C 20.25 28.046875 20.550781 28.351562 20.925781 28.351562 C 21.296875 28.351562 21.601562 28.046875 21.601562 27.675781 C 21.601562 27.300781 21.296875 27 20.925781 27 Z M 20.925781 27 "/>
</g>
</g>
</svg>
