<?xml version="1.0" encoding="UTF-8"?>
<svg xmlns="http://www.w3.org/2000/svg" xmlns:xlink="http://www.w3.org/1999/xlink" width="48" height="48" viewBox="0 0 48 48" version="1.1">
<g transform="scale(1.33333333)">
<g id="surface441">
<path style=" stroke:none;fill-rule:nonzero;fill:rgb(100%,100%,100%);fill-opacity:1;" d="M 3.824219 5.625 L 34.875 5.625 L 34.875 34.875 L 3.824219 34.875 Z M 3.824219 5.625 "/>
<path style=" stroke:none;fill-rule:nonzero;fill:rgb(47.058824%,54.509807%,61.176473%);fill-opacity:1;" d="M 34.648438 5.851562 L 34.648438 34.648438 L 4.050781 34.648438 L 4.050781 5.851562 L 34.648438 5.851562 M 35.101562 5.398438 L 3.601562 5.398438 L 3.601562 35.101562 L 35.101562 35.101562 Z M 35.101562 5.398438 "/>
<path style=" stroke:none;fill-rule:nonzero;fill:rgb(96.862745%,56.078434%,56.078434%);fill-opacity:1;" d="M 3.824219 5.625 L 34.875 5.625 L 34.875 11.476562 L 3.824219 11.476562 Z M 3.824219 5.625 "/>
<path style=" stroke:none;fill-rule:nonzero;fill:rgb(78.039217%,26.274511%,26.274511%);fill-opacity:1;" d="M 34.648438 5.851562 L 34.648438 11.25 L 4.050781 11.25 L 4.050781 5.851562 L 34.648438 5.851562 M 35.101562 5.398438 L 3.601562 5.398438 L 3.601562 11.699219 L 35.101562 11.699219 Z M 35.101562 5.398438 "/>
<path style=" stroke:none;fill-rule:nonzero;fill:rgb(77.254903%,83.137256%,87.058824%);fill-opacity:1;" d="M 27 15.300781 L 29.699219 15.300781 L 29.699219 18 L 27 18 Z M 22.5 15.300781 L 25.199219 15.300781 L 25.199219 18 L 22.5 18 Z M 18 15.300781 L 20.699219 15.300781 L 20.699219 18 L 18 18 Z M 13.5 15.300781 L 16.199219 15.300781 L 16.199219 18 L 13.5 18 Z M 27 19.800781 L 29.699219 19.800781 L 29.699219 22.5 L 27 22.5 Z M 22.5 19.800781 L 25.199219 19.800781 L 25.199219 22.5 L 22.5 22.5 Z M 18 19.800781 L 20.699219 19.800781 L 20.699219 22.5 L 18 22.5 Z M 13.5 19.800781 L 16.199219 19.800781 L 16.199219 22.5 L 13.5 22.5 Z M 9 19.800781 L 11.699219 19.800781 L 11.699219 22.5 L 9 22.5 Z M 22.5 24.300781 L 25.199219 24.300781 L 25.199219 27 L 22.5 27 Z M 18 24.300781 L 20.699219 24.300781 L 20.699219 27 L 18 27 Z M 13.5 24.300781 L 16.199219 24.300781 L 16.199219 27 L 13.5 27 Z M 9 24.300781 L 11.699219 24.300781 L 11.699219 27 L 9 27 Z M 9 24.300781 "/>
<path style=" stroke:none;fill-rule:nonzero;fill:rgb(88.235295%,92.156863%,94.901961%);fill-opacity:1;" d="M 4.050781 31.949219 L 34.648438 31.949219 L 34.648438 34.648438 L 4.050781 34.648438 Z M 4.050781 31.949219 "/>
<path style=" stroke:none;fill-rule:nonzero;fill:rgb(54.509807%,71.764708%,94.117647%);fill-opacity:1;" d="M 10.351562 19.574219 C 5.265625 19.574219 1.125 15.433594 1.125 10.351562 C 1.125 5.265625 5.265625 1.125 10.351562 1.125 C 15.433594 1.125 19.574219 5.265625 19.574219 10.351562 C 19.574219 15.433594 15.433594 19.574219 10.351562 19.574219 Z M 10.351562 19.574219 "/>
<path style=" stroke:none;fill-rule:nonzero;fill:rgb(30.588236%,47.843137%,70.980394%);fill-opacity:1;" d="M 10.351562 1.351562 C 15.300781 1.351562 19.351562 5.398438 19.351562 10.351562 C 19.351562 15.300781 15.300781 19.351562 10.351562 19.351562 C 5.398438 19.351562 1.351562 15.300781 1.351562 10.351562 C 1.351562 5.398438 5.398438 1.351562 10.351562 1.351562 M 10.351562 0.898438 C 5.128906 0.898438 0.898438 5.128906 0.898438 10.351562 C 0.898438 15.570312 5.128906 19.800781 10.351562 19.800781 C 15.570312 19.800781 19.800781 15.570312 19.800781 10.351562 C 19.800781 5.128906 15.570312 0.898438 10.351562 0.898438 Z M 10.351562 0.898438 "/>
<path style=" stroke:none;fill-rule:nonzero;fill:rgb(100%,100%,100%);fill-opacity:1;" d="M 10.351562 3.148438 C 6.375 3.148438 3.148438 6.375 3.148438 10.351562 C 3.148438 14.328125 6.375 17.550781 10.351562 17.550781 C 14.328125 17.550781 17.550781 14.328125 17.550781 10.351562 C 17.550781 6.375 14.328125 3.148438 10.351562 3.148438 Z M 10.351562 3.148438 "/>
<path style=" stroke:none;fill-rule:nonzero;fill:rgb(21.176471%,25.098041%,30.19608%);fill-opacity:1;" d="M 10.351562 9.675781 C 9.976562 9.675781 9.675781 9.976562 9.675781 10.351562 C 9.675781 10.722656 9.976562 11.023438 10.351562 11.023438 C 10.722656 11.023438 11.023438 10.722656 11.023438 10.351562 C 11.023438 9.976562 10.722656 9.675781 10.351562 9.675781 Z M 10.351562 9.675781 "/>
<path style=" stroke:none;fill-rule:nonzero;fill:rgb(21.176471%,25.098041%,30.19608%);fill-opacity:1;" d="M 12.871094 13.859375 L 10.078125 10.394531 L 12.148438 4.859375 L 12.601562 5.039062 L 10.621094 10.304688 L 13.230469 13.589844 Z M 12.871094 13.859375 "/>
</g>
</g>
</svg>
