<?xml version="1.0" encoding="UTF-8"?>
<svg xmlns="http://www.w3.org/2000/svg" xmlns:xlink="http://www.w3.org/1999/xlink" width="48" height="48" viewBox="0 0 48 48" version="1.1">
<g transform="scale(1.33333333)">
<g id="surface495">
<path style=" stroke:none;fill-rule:nonzero;fill:rgb(88.235295%,92.156863%,94.901961%);fill-opacity:1;" d="M 17.773438 1.125 L 34.875 1.125 L 34.875 34.875 L 17.773438 34.875 Z M 17.773438 1.125 "/>
<path style=" stroke:none;fill-rule:nonzero;fill:rgb(40.000001%,47.450981%,56.078434%);fill-opacity:1;" d="M 34.648438 1.351562 L 34.648438 34.648438 L 18 34.648438 L 18 1.351562 L 34.648438 1.351562 M 35.101562 0.898438 L 17.550781 0.898438 L 17.550781 35.101562 L 35.101562 35.101562 Z M 35.101562 0.898438 "/>
<path style=" stroke:none;fill-rule:nonzero;fill:rgb(54.509807%,71.764708%,94.117647%);fill-opacity:1;" d="M 26.324219 21.824219 C 25.082031 21.824219 24.074219 22.832031 24.074219 24.074219 C 24.074219 25.316406 25.082031 26.324219 26.324219 26.324219 C 27.566406 26.324219 28.574219 25.316406 28.574219 24.074219 C 28.574219 22.832031 27.566406 21.824219 26.324219 21.824219 Z M 26.324219 21.824219 "/>
<path style=" stroke:none;fill-rule:nonzero;fill:rgb(30.588236%,47.843137%,70.980394%);fill-opacity:1;" d="M 26.324219 22.050781 C 27.441406 22.050781 28.351562 22.957031 28.351562 24.074219 C 28.351562 25.191406 27.441406 26.101562 26.324219 26.101562 C 25.207031 26.101562 24.300781 25.191406 24.300781 24.074219 C 24.300781 22.957031 25.207031 22.050781 26.324219 22.050781 M 26.324219 21.601562 C 24.957031 21.601562 23.851562 22.707031 23.851562 24.074219 C 23.851562 25.441406 24.957031 26.550781 26.324219 26.550781 C 27.691406 26.550781 28.800781 25.441406 28.800781 24.074219 C 28.800781 22.707031 27.691406 21.601562 26.324219 21.601562 Z M 26.324219 21.601562 "/>
<path style=" stroke:none;fill-rule:nonzero;fill:rgb(69.01961%,75.686276%,83.137256%);fill-opacity:1;" d="M 20.476562 11.476562 L 32.175781 11.476562 L 32.175781 13.726562 L 20.476562 13.726562 Z M 20.476562 11.476562 "/>
<path style=" stroke:none;fill-rule:nonzero;fill:rgb(40.000001%,47.450981%,56.078434%);fill-opacity:1;" d="M 31.949219 11.699219 L 31.949219 13.5 L 20.699219 13.5 L 20.699219 11.699219 L 31.949219 11.699219 M 32.398438 11.25 L 20.25 11.25 L 20.25 13.949219 L 32.398438 13.949219 Z M 32.398438 11.25 "/>
<path style=" stroke:none;fill-rule:nonzero;fill:rgb(21.176471%,25.098041%,30.19608%);fill-opacity:1;" d="M 15.75 16.648438 L 15.75 22.050781 L 9 22.050781 L 9 16.648438 L 15.75 16.648438 M 16.199219 15.300781 L 8.550781 15.300781 C 8.054688 15.300781 7.648438 15.703125 7.648438 16.199219 L 7.648438 22.5 C 7.648438 22.996094 8.054688 23.398438 8.550781 23.398438 L 16.199219 23.398438 C 16.695312 23.398438 17.101562 22.996094 17.101562 22.5 L 17.101562 16.199219 C 17.101562 15.703125 16.695312 15.300781 16.199219 15.300781 Z M 16.199219 15.300781 "/>
<path style=" stroke:none;fill-rule:nonzero;fill:rgb(69.01961%,75.686276%,83.137256%);fill-opacity:1;" d="M 20.476562 6.074219 L 32.175781 6.074219 L 32.175781 9.226562 L 20.476562 9.226562 Z M 20.476562 6.074219 "/>
<path style=" stroke:none;fill-rule:nonzero;fill:rgb(40.000001%,47.450981%,56.078434%);fill-opacity:1;" d="M 31.949219 6.300781 L 31.949219 9 L 20.699219 9 L 20.699219 6.300781 L 31.949219 6.300781 M 32.398438 5.851562 L 20.25 5.851562 L 20.25 9.449219 L 32.398438 9.449219 Z M 32.398438 5.851562 "/>
<path style=" stroke:none;fill-rule:nonzero;fill:rgb(96.862745%,42.745098%,42.745098%);fill-opacity:1;" d="M 1.125 24.523438 L 23.625 24.523438 L 23.625 34.875 L 1.125 34.875 Z M 1.125 24.523438 "/>
<path style=" stroke:none;fill-rule:nonzero;fill:rgb(78.039217%,26.274511%,26.274511%);fill-opacity:1;" d="M 23.398438 24.75 L 23.398438 34.648438 L 1.351562 34.648438 L 1.351562 24.75 L 23.398438 24.75 M 23.851562 24.300781 L 0.898438 24.300781 L 0.898438 35.101562 L 23.851562 35.101562 Z M 23.851562 24.300781 "/>
<path style=" stroke:none;fill-rule:nonzero;fill:rgb(96.862745%,56.078434%,56.078434%);fill-opacity:1;" d="M 1.125 24.523438 L 1.125 20.25 C 1.125 19.382812 1.832031 18.675781 2.699219 18.675781 L 22.050781 18.675781 C 22.917969 18.675781 23.625 19.382812 23.625 20.25 L 23.625 24.523438 Z M 1.125 24.523438 "/>
<path style=" stroke:none;fill-rule:nonzero;fill:rgb(78.039217%,26.274511%,26.274511%);fill-opacity:1;" d="M 22.050781 18.898438 C 22.792969 18.898438 23.398438 19.503906 23.398438 20.25 L 23.398438 24.300781 L 1.351562 24.300781 L 1.351562 20.25 C 1.351562 19.503906 1.957031 18.898438 2.699219 18.898438 L 22.050781 18.898438 M 22.050781 18.449219 L 2.699219 18.449219 C 1.707031 18.449219 0.898438 19.257812 0.898438 20.25 L 0.898438 24.75 L 23.851562 24.75 L 23.851562 20.25 C 23.851562 19.257812 23.042969 18.449219 22.050781 18.449219 Z M 22.050781 18.449219 "/>
<path style=" stroke:none;fill-rule:nonzero;fill:rgb(69.01961%,75.686276%,83.137256%);fill-opacity:1;" d="M 4.273438 22.726562 L 7.425781 22.726562 L 7.425781 25.875 L 4.273438 25.875 Z M 4.273438 22.726562 "/>
<path style=" stroke:none;fill-rule:nonzero;fill:rgb(40.000001%,47.450981%,56.078434%);fill-opacity:1;" d="M 7.199219 22.949219 L 7.199219 25.648438 L 4.5 25.648438 L 4.5 22.949219 L 7.199219 22.949219 M 7.648438 22.5 L 4.050781 22.5 L 4.050781 26.101562 L 7.648438 26.101562 Z M 7.648438 22.5 "/>
<path style=" stroke:none;fill-rule:nonzero;fill:rgb(69.01961%,75.686276%,83.137256%);fill-opacity:1;" d="M 17.324219 22.726562 L 20.476562 22.726562 L 20.476562 25.875 L 17.324219 25.875 Z M 17.324219 22.726562 "/>
<path style=" stroke:none;fill-rule:nonzero;fill:rgb(40.000001%,47.450981%,56.078434%);fill-opacity:1;" d="M 20.25 22.949219 L 20.25 25.648438 L 17.550781 25.648438 L 17.550781 22.949219 L 20.25 22.949219 M 20.699219 22.5 L 17.101562 22.5 L 17.101562 26.101562 L 20.699219 26.101562 Z M 20.699219 22.5 "/>
</g>
</g>
</svg>
