<?xml version="1.0" encoding="UTF-8"?>
<svg xmlns="http://www.w3.org/2000/svg" xmlns:xlink="http://www.w3.org/1999/xlink" width="30pt" height="30pt" viewBox="0 0 30 30" version="1.1">
<g id="surface63">
<path style=" stroke:none;fill-rule:nonzero;fill:rgb(96.078432%,80.784315%,52.156866%);fill-opacity:1;" d="M 1.207031 28.792969 C 1.546875 26.855469 2.839844 20.0625 4.554688 18.34375 C 5.503906 17.398438 6.765625 16.875 8.105469 16.875 C 9.445312 16.875 10.707031 17.398438 11.652344 18.34375 C 13.609375 20.300781 13.609375 23.484375 11.652344 25.441406 C 9.9375 27.160156 3.144531 28.453125 1.207031 28.792969 Z M 1.207031 28.792969 "/>
<path style=" stroke:none;fill-rule:nonzero;fill:rgb(58.823532%,47.843137%,26.666668%);fill-opacity:1;" d="M 8.105469 17.25 C 9.347656 17.25 10.511719 17.734375 11.390625 18.609375 C 13.199219 20.421875 13.199219 23.367188 11.390625 25.179688 C 9.992188 26.578125 4.605469 27.796875 1.667969 28.332031 C 2.203125 25.394531 3.421875 20.007812 4.824219 18.609375 C 5.699219 17.734375 6.867188 17.25 8.105469 17.25 M 8.105469 16.5 C 6.726562 16.5 5.34375 17.027344 4.292969 18.082031 C 2.183594 20.1875 0.75 29.25 0.75 29.25 C 0.75 29.25 9.8125 27.816406 11.917969 25.707031 C 14.027344 23.601562 14.027344 20.1875 11.917969 18.082031 C 10.867188 17.027344 9.484375 16.5 8.105469 16.5 Z M 8.105469 16.5 "/>
<path style=" stroke:none;fill-rule:nonzero;fill:rgb(100%,76.862746%,61.176473%);fill-opacity:1;" d="M 19.066406 6.925781 L 24.457031 1.285156 L 28.714844 5.542969 L 23.074219 10.933594 Z M 19.066406 6.925781 "/>
<path style=" stroke:none;fill-rule:nonzero;fill:rgb(63.137257%,41.568628%,29.019609%);fill-opacity:1;" d="M 24.464844 1.824219 L 28.175781 5.535156 L 23.078125 10.410156 L 19.589844 6.921875 L 24.464844 1.824219 M 24.453125 0.75 L 18.542969 6.933594 L 23.066406 11.457031 L 29.25 5.550781 Z M 24.453125 0.75 "/>
<path style=" stroke:none;fill-rule:nonzero;fill:rgb(86.274511%,83.529413%,94.901961%);fill-opacity:1;" d="M 9.519531 16.976562 L 19.230469 6.539062 L 23.460938 10.769531 L 13.023438 20.480469 Z M 9.519531 16.976562 "/>
<path style=" stroke:none;fill-rule:nonzero;fill:rgb(54.509807%,45.882353%,63.137257%);fill-opacity:1;" d="M 19.238281 7.078125 L 22.917969 10.761719 L 13.03125 19.957031 L 10.042969 16.96875 L 19.238281 7.078125 M 19.21875 6 L 9 16.988281 L 13.011719 21 L 24 10.78125 Z M 19.21875 6 "/>
</g>
</svg>
