<?xml version="1.0" encoding="UTF-8"?>
<svg xmlns="http://www.w3.org/2000/svg" xmlns:xlink="http://www.w3.org/1999/xlink" width="24" height="24" viewBox="0 0 24 24" version="1.1">
<g transform="scale(1.33333333)">
<g id="surface61">
<path style=" stroke:none;fill-rule:nonzero;fill:rgb(96.862745%,65.882355%,65.882355%);fill-opacity:1;" d="M 1.5 15.898438 C 1.167969 15.898438 0.898438 15.628906 0.898438 15.300781 C 0.898438 15.195312 0.925781 15.089844 0.980469 15 C 1.082031 14.824219 4.34375 9.351562 6.5 5.730469 C 8.464844 2.429688 8.464844 2.429688 8.472656 2.417969 C 8.574219 2.222656 8.777344 2.101562 9 2.101562 C 9.222656 2.101562 9.425781 2.222656 9.53125 2.421875 C 9.535156 2.429688 9.535156 2.429688 11.5 5.730469 C 13.65625 9.351562 16.917969 14.824219 17.019531 15 C 17.074219 15.089844 17.101562 15.195312 17.101562 15.300781 C 17.101562 15.628906 16.832031 15.898438 16.5 15.898438 Z M 1.5 15.898438 "/>
<path style=" stroke:none;fill-rule:nonzero;fill:rgb(78.039217%,26.274511%,26.274511%);fill-opacity:1;" d="M 9 2.398438 C 9.132812 2.398438 9.226562 2.484375 9.265625 2.558594 C 9.277344 2.578125 9.277344 2.578125 11.042969 5.542969 C 13.140625 9.070312 16.65625 14.96875 16.761719 15.152344 C 16.785156 15.195312 16.800781 15.246094 16.800781 15.300781 C 16.800781 15.464844 16.664062 15.601562 16.5 15.601562 L 1.5 15.601562 C 1.335938 15.601562 1.199219 15.464844 1.199219 15.300781 C 1.199219 15.246094 1.214844 15.195312 1.238281 15.152344 C 1.34375 14.96875 4.859375 9.066406 6.960938 5.539062 C 8.722656 2.578125 8.722656 2.578125 8.734375 2.5625 C 8.773438 2.484375 8.867188 2.398438 9 2.398438 M 9 1.800781 C 8.65625 1.800781 8.355469 1.996094 8.203125 2.28125 C 8.195312 2.296875 0.875 14.582031 0.71875 14.851562 C 0.644531 14.980469 0.601562 15.136719 0.601562 15.300781 C 0.601562 15.796875 1.003906 16.199219 1.5 16.199219 C 1.878906 16.199219 16.121094 16.199219 16.5 16.199219 C 16.996094 16.199219 17.398438 15.796875 17.398438 15.300781 C 17.398438 15.136719 17.355469 14.980469 17.28125 14.851562 C 17.125 14.582031 9.804688 2.296875 9.796875 2.28125 C 9.644531 1.996094 9.34375 1.800781 9 1.800781 Z M 9 1.800781 "/>
<path style=" stroke:none;fill-rule:nonzero;fill:rgb(21.176471%,25.098041%,30.19608%);fill-opacity:1;" d="M 9 12.601562 C 8.511719 12.601562 8.117188 13.003906 8.117188 13.5 C 8.117188 13.996094 8.511719 14.398438 9 14.398438 C 9.488281 14.398438 9.882812 13.996094 9.882812 13.5 C 9.882812 13.003906 9.488281 12.601562 9 12.601562 Z M 9 12.601562 "/>
<path style=" stroke:none;fill-rule:nonzero;fill:rgb(78.039217%,26.274511%,26.274511%);fill-opacity:1;" d="M 0.734375 7.785156 L 3.355469 8.074219 C 3.46875 7.890625 3.582031 7.699219 3.695312 7.507812 L 1.074219 7.21875 C 0.957031 7.410156 0.847656 7.597656 0.734375 7.785156 Z M 2.382812 5.019531 L 4.472656 6.199219 C 4.574219 6.027344 4.679688 5.855469 4.78125 5.683594 L 2.6875 4.503906 C 2.582031 4.683594 2.484375 4.847656 2.382812 5.019531 Z M 4.238281 1.902344 C 4.136719 2.074219 4.027344 2.261719 3.910156 2.453125 L 5.503906 4.46875 C 5.617188 4.277344 5.726562 4.09375 5.832031 3.917969 Z M 17.265625 7.785156 L 14.644531 8.074219 C 14.53125 7.890625 14.417969 7.699219 14.304688 7.507812 L 16.925781 7.21875 C 17.042969 7.410156 17.152344 7.597656 17.265625 7.785156 Z M 15.617188 5.019531 L 13.527344 6.199219 C 13.425781 6.027344 13.320312 5.855469 13.21875 5.683594 L 15.3125 4.503906 C 15.417969 4.683594 15.515625 4.847656 15.617188 5.019531 Z M 13.761719 1.902344 C 13.863281 2.074219 13.972656 2.261719 14.089844 2.453125 L 12.496094 4.46875 C 12.382812 4.277344 12.273438 4.09375 12.167969 3.917969 Z M 13.761719 1.902344 "/>
<path style=" stroke:none;fill-rule:nonzero;fill:rgb(21.176471%,25.098041%,30.19608%);fill-opacity:1;" d="M 9 6.601562 C 8.511719 6.601562 8.117188 6.972656 8.117188 7.429688 C 8.117188 7.738281 8.558594 11.019531 8.5625 11.035156 C 8.585938 11.242188 8.773438 11.398438 9 11.398438 C 9.226562 11.398438 9.414062 11.242188 9.4375 11.035156 C 9.441406 11.019531 9.882812 7.738281 9.882812 7.429688 C 9.882812 6.972656 9.488281 6.601562 9 6.601562 Z M 9 6.601562 "/>
</g>
</g>
</svg>
