<?xml version="1.0" encoding="UTF-8"?>
<svg xmlns="http://www.w3.org/2000/svg" xmlns:xlink="http://www.w3.org/1999/xlink" width="24" height="24" viewBox="0 0 24 24" version="1.1">
<g transform="scale(1.33333333)">
<g id="surface43">
<path style=" stroke:none;fill-rule:nonzero;fill:rgb(54.509807%,71.764708%,94.117647%);fill-opacity:1;" d="M 9 17.101562 C 4.535156 17.101562 0.898438 13.464844 0.898438 9 C 0.898438 4.535156 4.535156 0.898438 9 0.898438 C 13.464844 0.898438 17.101562 4.535156 17.101562 9 C 17.101562 13.464844 13.464844 17.101562 9 17.101562 Z M 9 17.101562 "/>
<path style=" stroke:none;fill-rule:nonzero;fill:rgb(30.588236%,47.843137%,70.980394%);fill-opacity:1;" d="M 9 1.199219 C 13.300781 1.199219 16.800781 4.699219 16.800781 9 C 16.800781 13.300781 13.300781 16.800781 9 16.800781 C 4.699219 16.800781 1.199219 13.300781 1.199219 9 C 1.199219 4.699219 4.699219 1.199219 9 1.199219 M 9 0.601562 C 4.359375 0.601562 0.601562 4.359375 0.601562 9 C 0.601562 13.640625 4.359375 17.398438 9 17.398438 C 13.640625 17.398438 17.398438 13.640625 17.398438 9 C 17.398438 4.359375 13.640625 0.601562 9 0.601562 Z M 9 0.601562 "/>
<path style=" stroke:none;fill-rule:nonzero;fill:rgb(100%,100%,100%);fill-opacity:1;" d="M 9 4.648438 C 8.585938 4.648438 8.25 4.984375 8.25 5.398438 C 8.25 5.8125 8.585938 6.148438 9 6.148438 C 9.414062 6.148438 9.75 5.8125 9.75 5.398438 C 9.75 4.984375 9.414062 4.648438 9 4.648438 Z M 9.601562 12.601562 L 9.601562 7.199219 L 7.800781 7.199219 L 7.800781 7.800781 L 8.398438 7.800781 L 8.398438 12.601562 L 7.800781 12.601562 L 7.800781 13.199219 L 10.199219 13.199219 L 10.199219 12.601562 Z M 9.601562 12.601562 "/>
</g>
</g>
</svg>
