<?xml version="1.0" encoding="UTF-8"?>
<svg xmlns="http://www.w3.org/2000/svg" xmlns:xlink="http://www.w3.org/1999/xlink" width="24" height="24" viewBox="0 0 24 24" version="1.1">
<g transform="scale(1.33333333)">
<g id="surface31">
<path style=" stroke:none;fill-rule:nonzero;fill:rgb(100%,93.333334%,63.921571%);fill-opacity:1;" d="M 1.578125 15.300781 C 1.332031 15.300781 1.113281 15.175781 0.992188 14.960938 C 0.871094 14.75 0.871094 14.5 0.992188 14.289062 L 8.414062 1.429688 C 8.539062 1.21875 8.753906 1.09375 9 1.09375 C 9.246094 1.09375 9.460938 1.21875 9.585938 1.429688 L 17.007812 14.285156 C 17.128906 14.5 17.128906 14.75 17.007812 14.960938 C 16.886719 15.171875 16.667969 15.296875 16.421875 15.296875 L 1.578125 15.296875 Z M 1.578125 15.300781 "/>
<path style=" stroke:none;fill-rule:nonzero;fill:rgb(72.941178%,60.784316%,28.235295%);fill-opacity:1;" d="M 9 1.390625 C 9.066406 1.390625 9.226562 1.410156 9.324219 1.578125 L 16.75 14.4375 C 16.847656 14.605469 16.78125 14.753906 16.75 14.8125 C 16.714844 14.867188 16.617188 15 16.421875 15 L 1.578125 15 C 1.382812 15 1.285156 14.867188 1.25 14.8125 C 1.21875 14.753906 1.152344 14.605469 1.25 14.4375 L 8.675781 1.578125 C 8.773438 1.410156 8.933594 1.390625 9 1.390625 M 9 0.792969 C 8.671875 0.792969 8.34375 0.953125 8.15625 1.28125 L 0.730469 14.136719 C 0.355469 14.789062 0.828125 15.601562 1.578125 15.601562 L 16.421875 15.601562 C 17.175781 15.601562 17.644531 14.789062 17.269531 14.136719 L 9.84375 1.28125 C 9.65625 0.953125 9.328125 0.792969 9 0.792969 Z M 9 0.792969 "/>
<path style=" stroke:none;fill-rule:nonzero;fill:rgb(21.176471%,25.098041%,30.19608%);fill-opacity:1;" d="M 9 11.851562 C 8.585938 11.851562 8.25 12.1875 8.25 12.601562 C 8.25 13.015625 8.585938 13.351562 9 13.351562 C 9.414062 13.351562 9.75 13.015625 9.75 12.601562 C 9.75 12.1875 9.414062 11.851562 9 11.851562 Z M 8.398438 5.398438 L 9.601562 5.398438 L 9.601562 10.800781 L 8.398438 10.800781 Z M 8.398438 5.398438 "/>
</g>
</g>
</svg>
