<?xml version="1.0" encoding="UTF-8"?>
<svg xmlns="http://www.w3.org/2000/svg" xmlns:xlink="http://www.w3.org/1999/xlink" width="32" height="32" viewBox="0 0 32 32" version="1.1">
<g transform="scale(1.33333333)">
<g id="surface139">
<path style=" stroke:none;fill-rule:nonzero;fill:rgb(76.078433%,90.980393%,100%);fill-opacity:1;" d="M 7.359375 7.800781 L 0 7.800781 L 0 10.199219 L 6.878906 10.199219 Z M 6.339844 13.199219 L 6.660156 11.398438 L 0 11.398438 L 0 13.199219 Z M 6 15.601562 L 6.160156 14.398438 L 0 14.398438 L 0 15.601562 Z M 6 15.601562 "/>
<path style=" stroke:none;fill-rule:nonzero;fill:rgb(100%,100%,100%);fill-opacity:1;" d="M 4.5625 19.5 L 7.449219 4.5 L 23.632812 4.5 L 20.632812 19.5 Z M 4.5625 19.5 "/>
<path style=" stroke:none;fill-rule:nonzero;fill:rgb(47.058824%,54.509807%,61.176473%);fill-opacity:1;" d="M 23.269531 4.800781 L 20.386719 19.199219 L 4.925781 19.199219 L 7.695312 4.800781 L 23.269531 4.800781 M 24 4.199219 L 7.199219 4.199219 L 4.199219 19.800781 L 20.878906 19.800781 Z M 24 4.199219 "/>
<path style=" stroke:none;fill-rule:nonzero;fill:rgb(54.509807%,71.764708%,94.117647%);fill-opacity:1;" d="M 8.136719 14.699219 L 9.246094 9.300781 L 20.035156 9.300781 L 18.953125 14.699219 Z M 8.136719 14.699219 "/>
<path style=" stroke:none;fill-rule:nonzero;fill:rgb(30.588236%,47.843137%,70.980394%);fill-opacity:1;" d="M 19.667969 9.601562 L 18.707031 14.398438 L 8.503906 14.398438 L 9.488281 9.601562 L 19.667969 9.601562 M 20.398438 9 L 9 9 L 7.769531 15 L 19.199219 15 Z M 20.398438 9 "/>
<path style=" stroke:none;fill-rule:nonzero;fill:rgb(47.058824%,54.509807%,61.176473%);fill-opacity:1;" d="M 23.398438 4.199219 L 7.800781 4.199219 L 7.199219 7.199219 L 22.800781 7.199219 Z M 23.398438 4.199219 "/>
<path style=" stroke:none;fill-rule:nonzero;fill:rgb(100%,100%,100%);fill-opacity:1;" d="M 9.5 12.601562 L 18.421875 12.601562 L 18.78125 10.800781 L 9.863281 10.800781 Z M 9.5 12.601562 "/>
<path style=" stroke:none;fill-rule:nonzero;fill:rgb(21.568628%,27.843139%,30.980393%);fill-opacity:1;" d="M 11.832031 12.601562 L 12.191406 10.800781 L 11.578125 10.800781 L 11.21875 12.601562 Z M 11.832031 12.601562 "/>
</g>
</g>

<g transform="scale(1.33333333)">    <g id="surface131">
        <path d="M18.602,13.5C15.785,13.5 13.5,15.785 13.5,18.602C13.5,21.418 15.785,23.699 18.602,23.699C21.418,23.699 23.699,21.418 23.699,18.602C23.699,15.785 21.418,13.5 18.602,13.5Z" style="fill:rgb(186,224,189);fill-rule:nonzero;"/>
        <path d="M18.602,13.801C21.246,13.801 23.398,15.953 23.398,18.602C23.398,21.246 21.246,23.398 18.602,23.398C15.953,23.398 13.801,21.246 13.801,18.602C13.801,15.953 15.953,13.801 18.602,13.801M18.602,13.199C15.617,13.199 13.199,15.617 13.199,18.602C13.199,21.582 15.617,24 18.602,24C21.582,24 24,21.582 24,18.602C24,15.617 21.582,13.199 18.602,13.199Z" style="fill:rgb(94,156,118);fill-rule:nonzero;"/>
        <g transform="matrix(0.6,0,0,0.6,0,0)">
            <path d="M31.003,36.003L31.003,26.003M26.003,31.003L36.003,31.003" style="fill:none;fill-rule:nonzero;stroke:rgb(254,254,254);stroke-width:2px;"/>
        </g>
    </g></g>
</svg>
