<?xml version="1.0" encoding="UTF-8"?>
<svg id="add-waterfall" xmlns="http://www.w3.org/2000/svg" width="32" height="32" viewBox="0 0 32 32" version="1.1">
<g transform="scale(1.06666667)">
<g id="surface_waterfall_large">
<path fill="rgb(88.235295%,92.156863%,94.901961%)" d="M 3 28.125 C 1.964844 28.125 1.125 27.285156 1.125 26.25 L 1.125 3 C 1.125 1.964844 1.964844 1.125 3 1.125 L 26.25 1.125 C 27.285156 1.125 28.125 1.964844 28.125 3 L 28.125 26.25 C 28.125 27.285156 27.285156 28.125 26.25 28.125 Z"/>
<path fill="rgb(47.058824%,54.509807%,61.176473%)" d="M 26.25 1.5 C 27.078125 1.5 27.75 2.171875 27.75 3 L 27.75 26.25 C 27.75 27.078125 27.078125 27.75 26.25 27.75 L 3 27.75 C 2.171875 27.75 1.5 27.078125 1.5 26.25 L 1.5 3 C 1.5 2.171875 2.171875 1.5 3 1.5 L 26.25 1.5 M 26.25 0.75 L 3 0.75 C 1.757812 0.75 0.75 1.757812 0.75 3 L 0.75 26.25 C 0.75 27.492188 1.757812 28.5 3 28.5 L 26.25 28.5 C 27.492188 28.5 28.5 27.492188 28.5 26.25 L 28.5 3 C 28.5 1.757812 27.492188 0.75 26.25 0.75 Z"/>
<rect x="3"   y="3"   width="22.5" height="3.5" fill="rgb(99.2%,90.6%,14.4%)"/>
<rect x="3"   y="6.6" width="22.5" height="3.5" fill="rgb(96.4%,49.2%,16.5%)"/>
<rect x="3"   y="10.2" width="22.5" height="3.5" fill="rgb(81.6%,28.6%,40.8%)"/>
<rect x="3"   y="13.8" width="22.5" height="3.5" fill="rgb(57.7%,17.4%,46.3%)"/>
<rect x="3"   y="17.4" width="22.5" height="3.5" fill="rgb(38.0%,12.5%,46.0%)"/>
<rect x="3"   y="21.0" width="22.5" height="3.5" fill="rgb(20.0%, 8.0%,33.0%)"/>
<rect x="3"   y="24.6" width="22.5" height="1.5" fill="rgb(8.0%, 3.0%,18.0%)"/>
</g>
</g>

<g transform="scale(1.33333333)">    <g id="surface131">
        <path d="M18.602,13.5C15.785,13.5 13.5,15.785 13.5,18.602C13.5,21.418 15.785,23.699 18.602,23.699C21.418,23.699 23.699,21.418 23.699,18.602C23.699,15.785 21.418,13.5 18.602,13.5Z" style="fill:rgb(186,224,189);fill-rule:nonzero;"/>
        <path d="M18.602,13.801C21.246,13.801 23.398,15.953 23.398,18.602C23.398,21.246 21.246,23.398 18.602,23.398C15.953,23.398 13.801,21.246 13.801,18.602C13.801,15.953 15.953,13.801 18.602,13.801M18.602,13.199C15.617,13.199 13.199,15.617 13.199,18.602C13.199,21.582 15.617,24 18.602,24C21.582,24 24,21.582 24,18.602C24,15.617 21.582,13.199 18.602,13.199Z" style="fill:rgb(94,156,118);fill-rule:nonzero;"/>
        <g transform="matrix(0.6,0,0,0.6,0,0)">
            <path d="M31.003,36.003L31.003,26.003M26.003,31.003L36.003,31.003" style="fill:none;fill-rule:nonzero;stroke:rgb(254,254,254);stroke-width:2px;"/>
        </g>
    </g></g>
</svg>
