<?xml version="1.0" encoding="UTF-8"?>
<svg id="add-bar" xmlns="http://www.w3.org/2000/svg" viewBox="0 0 32 32" width="32" height="32">
<g transform="translate(-3.69230769,-0.49230769) scale(0.98461538)">
<g id="surface-bar-large">
  <path fill="#e1ebf2" d="M13.5,19.5v-16h-1c-0.552,0-1-0.448-1-1s0.448-1,1-1h15c0.552,0,1,0.448,1,1s-0.448,1-1,1h-1v16 H13.5z"/>
  <path fill="#788b9c" d="M27.5,2C27.771,2,28,2.229,28,2.5S27.771,3,27.5,3H27h-1v1v15H14V4V3h-1h-0.5 C12.229,3,12,2.771,12,2.5S12.229,2,12.5,2H27.5 M27.5,1h-15C11.675,1,11,1.675,11,2.5S11.675,4,12.5,4H13v16h14V4h0.5 C28.325,4,29,3.325,29,2.5S28.325,1,27.5,1L27.5,1z"/>
  <path fill="#8bb7f0" d="M15,32.5c-0.827,0-1.5-0.673-1.5-1.5V16.5h13V31c0,0.827-0.673,1.5-1.5,1.5H15z"/>
  <path fill="#4e7ab5" d="M26,17v14c0,0.551-0.449,1-1,1H15c-0.551,0-1-0.449-1-1V17H26 M27,16H13v15c0,1.1,0.9,2,2,2h10 c1.1,0,2-0.9,2-2V16L27,16z"/>
  <path fill="#788b9c" d="M18 4H19V16H18z"/>
  <path fill="#788b9c" d="M18 4H23V5H18zM19 8H21V9H19zM18 12H21V13H18z"/>
  <path fill="#4e7ab5" d="M18 20H23V21H18zM18 24H21V25H18zM18 28H21V29H18z"/>
  <path fill="#4e7ab5" d="M18 16H19V33H18z"/>
</g>
</g>

<g transform="scale(1.33333333)">    <g id="surface131">
        <path d="M18.602,13.5C15.785,13.5 13.5,15.785 13.5,18.602C13.5,21.418 15.785,23.699 18.602,23.699C21.418,23.699 23.699,21.418 23.699,18.602C23.699,15.785 21.418,13.5 18.602,13.5Z" style="fill:rgb(186,224,189);fill-rule:nonzero;"/>
        <path d="M18.602,13.801C21.246,13.801 23.398,15.953 23.398,18.602C23.398,21.246 21.246,23.398 18.602,23.398C15.953,23.398 13.801,21.246 13.801,18.602C13.801,15.953 15.953,13.801 18.602,13.801M18.602,13.199C15.617,13.199 13.199,15.617 13.199,18.602C13.199,21.582 15.617,24 18.602,24C21.582,24 24,21.582 24,18.602C24,15.617 21.582,13.199 18.602,13.199Z" style="fill:rgb(94,156,118);fill-rule:nonzero;"/>
        <g transform="matrix(0.6,0,0,0.6,0,0)">
            <path d="M31.003,36.003L31.003,26.003M26.003,31.003L36.003,31.003" style="fill:none;fill-rule:nonzero;stroke:rgb(254,254,254);stroke-width:2px;"/>
        </g>
    </g></g>
</svg>
