<?xml version="1.0" encoding="UTF-8"?>
<svg xmlns="http://www.w3.org/2000/svg" xmlns:xlink="http://www.w3.org/1999/xlink" width="32" height="32" viewBox="0 0 32 32" version="1.1">
<g transform="scale(0.66666667)">
<g transform="scale(1.33333333)">
<g id="surface2575">
<path style=" stroke:none;fill-rule:nonzero;fill:rgb(100%,93.333334%,63.921571%);fill-opacity:1;" d="M 25.875 1.574219 L 27.675781 1.574219 L 27.675781 33.523438 L 25.875 33.523438 Z M 25.875 1.574219 "/>
<path style=" stroke:none;fill-rule:nonzero;fill:rgb(96.078432%,76.078433%,46.27451%);fill-opacity:1;" d="M 27.449219 1.800781 L 27.449219 33.300781 L 26.101562 33.300781 L 26.101562 1.800781 L 27.449219 1.800781 M 27.898438 1.351562 L 25.648438 1.351562 L 25.648438 33.75 L 27.898438 33.75 Z M 27.898438 1.351562 "/>
<path style=" stroke:none;fill-rule:nonzero;fill:rgb(100%,93.333334%,63.921571%);fill-opacity:1;" d="M 22.273438 1.574219 L 24.074219 1.574219 L 24.074219 33.523438 L 22.273438 33.523438 Z M 22.273438 1.574219 "/>
<path style=" stroke:none;fill-rule:nonzero;fill:rgb(96.078432%,76.078433%,46.27451%);fill-opacity:1;" d="M 23.851562 1.800781 L 23.851562 33.300781 L 22.5 33.300781 L 22.5 1.800781 L 23.851562 1.800781 M 24.300781 1.351562 L 22.050781 1.351562 L 22.050781 33.75 L 24.300781 33.75 Z M 24.300781 1.351562 "/>
<path style=" stroke:none;fill-rule:nonzero;fill:rgb(100%,93.333334%,63.921571%);fill-opacity:1;" d="M 18.675781 1.574219 L 20.476562 1.574219 L 20.476562 33.523438 L 18.675781 33.523438 Z M 18.675781 1.574219 "/>
<path style=" stroke:none;fill-rule:nonzero;fill:rgb(96.078432%,76.078433%,46.27451%);fill-opacity:1;" d="M 20.25 1.800781 L 20.25 33.300781 L 18.898438 33.300781 L 18.898438 1.800781 L 20.25 1.800781 M 20.699219 1.351562 L 18.449219 1.351562 L 18.449219 33.75 L 20.699219 33.75 Z M 20.699219 1.351562 "/>
<path style=" stroke:none;fill-rule:nonzero;fill:rgb(100%,93.333334%,63.921571%);fill-opacity:1;" d="M 15.074219 1.574219 L 16.875 1.574219 L 16.875 33.523438 L 15.074219 33.523438 Z M 15.074219 1.574219 "/>
<path style=" stroke:none;fill-rule:nonzero;fill:rgb(96.078432%,76.078433%,46.27451%);fill-opacity:1;" d="M 16.648438 1.800781 L 16.648438 33.300781 L 15.300781 33.300781 L 15.300781 1.800781 L 16.648438 1.800781 M 17.101562 1.351562 L 14.851562 1.351562 L 14.851562 33.75 L 17.101562 33.75 Z M 17.101562 1.351562 "/>
<path style=" stroke:none;fill-rule:nonzero;fill:rgb(100%,93.333334%,63.921571%);fill-opacity:1;" d="M 11.476562 1.574219 L 13.273438 1.574219 L 13.273438 33.523438 L 11.476562 33.523438 Z M 11.476562 1.574219 "/>
<path style=" stroke:none;fill-rule:nonzero;fill:rgb(96.078432%,76.078433%,46.27451%);fill-opacity:1;" d="M 13.050781 1.800781 L 13.050781 33.300781 L 11.699219 33.300781 L 11.699219 1.800781 L 13.050781 1.800781 M 13.5 1.351562 L 11.25 1.351562 L 11.25 33.75 L 13.5 33.75 Z M 13.5 1.351562 "/>
<path style=" stroke:none;fill-rule:nonzero;fill:rgb(100%,93.333334%,63.921571%);fill-opacity:1;" d="M 7.875 1.574219 L 9.675781 1.574219 L 9.675781 33.523438 L 7.875 33.523438 Z M 7.875 1.574219 "/>
<path style=" stroke:none;fill-rule:nonzero;fill:rgb(96.078432%,76.078433%,46.27451%);fill-opacity:1;" d="M 9.449219 1.800781 L 9.449219 33.300781 L 8.101562 33.300781 L 8.101562 1.800781 L 9.449219 1.800781 M 9.898438 1.351562 L 7.648438 1.351562 L 7.648438 33.75 L 9.898438 33.75 Z M 9.898438 1.351562 "/>
<path style=" stroke:none;fill-rule:nonzero;fill:rgb(100%,93.333334%,63.921571%);fill-opacity:1;" d="M 2.023438 25.425781 L 33.976562 25.425781 L 33.976562 27.226562 L 2.023438 27.226562 Z M 2.023438 25.425781 "/>
<path style=" stroke:none;fill-rule:nonzero;fill:rgb(96.078432%,76.078433%,46.27451%);fill-opacity:1;" d="M 33.75 25.648438 L 33.75 27 L 2.25 27 L 2.25 25.648438 L 33.75 25.648438 M 34.199219 25.199219 L 1.800781 25.199219 L 1.800781 27.449219 L 34.199219 27.449219 Z M 34.199219 25.199219 "/>
<path style=" stroke:none;fill-rule:nonzero;fill:rgb(100%,93.333334%,63.921571%);fill-opacity:1;" d="M 2.023438 21.824219 L 33.976562 21.824219 L 33.976562 23.625 L 2.023438 23.625 Z M 2.023438 21.824219 "/>
<path style=" stroke:none;fill-rule:nonzero;fill:rgb(96.078432%,76.078433%,46.27451%);fill-opacity:1;" d="M 33.75 22.050781 L 33.75 23.398438 L 2.25 23.398438 L 2.25 22.050781 L 33.75 22.050781 M 34.199219 21.601562 L 1.800781 21.601562 L 1.800781 23.851562 L 34.199219 23.851562 Z M 34.199219 21.601562 "/>
<path style=" stroke:none;fill-rule:nonzero;fill:rgb(100%,93.333334%,63.921571%);fill-opacity:1;" d="M 2.023438 18.226562 L 33.976562 18.226562 L 33.976562 20.023438 L 2.023438 20.023438 Z M 2.023438 18.226562 "/>
<path style=" stroke:none;fill-rule:nonzero;fill:rgb(96.078432%,76.078433%,46.27451%);fill-opacity:1;" d="M 33.75 18.449219 L 33.75 19.800781 L 2.25 19.800781 L 2.25 18.449219 L 33.75 18.449219 M 34.199219 18 L 1.800781 18 L 1.800781 20.25 L 34.199219 20.25 Z M 34.199219 18 "/>
<path style=" stroke:none;fill-rule:nonzero;fill:rgb(100%,93.333334%,63.921571%);fill-opacity:1;" d="M 2.023438 14.625 L 33.976562 14.625 L 33.976562 16.425781 L 2.023438 16.425781 Z M 2.023438 14.625 "/>
<path style=" stroke:none;fill-rule:nonzero;fill:rgb(96.078432%,76.078433%,46.27451%);fill-opacity:1;" d="M 33.75 14.851562 L 33.75 16.199219 L 2.25 16.199219 L 2.25 14.851562 L 33.75 14.851562 M 34.199219 14.398438 L 1.800781 14.398438 L 1.800781 16.648438 L 34.199219 16.648438 Z M 34.199219 14.398438 "/>
<path style=" stroke:none;fill-rule:nonzero;fill:rgb(100%,93.333334%,63.921571%);fill-opacity:1;" d="M 2.023438 11.023438 L 33.976562 11.023438 L 33.976562 12.824219 L 2.023438 12.824219 Z M 2.023438 11.023438 "/>
<path style=" stroke:none;fill-rule:nonzero;fill:rgb(96.078432%,76.078433%,46.27451%);fill-opacity:1;" d="M 33.75 11.25 L 33.75 12.601562 L 2.25 12.601562 L 2.25 11.25 L 33.75 11.25 M 34.199219 10.800781 L 1.800781 10.800781 L 1.800781 13.050781 L 34.199219 13.050781 Z M 34.199219 10.800781 "/>
<path style=" stroke:none;fill-rule:nonzero;fill:rgb(100%,93.333334%,63.921571%);fill-opacity:1;" d="M 2.023438 7.425781 L 33.976562 7.425781 L 33.976562 9.226562 L 2.023438 9.226562 Z M 2.023438 7.425781 "/>
<path style=" stroke:none;fill-rule:nonzero;fill:rgb(96.078432%,76.078433%,46.27451%);fill-opacity:1;" d="M 33.75 7.648438 L 33.75 9 L 2.25 9 L 2.25 7.648438 L 33.75 7.648438 M 34.199219 7.199219 L 1.800781 7.199219 L 1.800781 9.449219 L 34.199219 9.449219 Z M 34.199219 7.199219 "/>
<path style=" stroke:none;fill-rule:nonzero;fill:rgb(29.411766%,39.215687%,46.666667%);fill-opacity:1;" d="M 6.691406 30.375 C 5.855469 30.375 5.175781 29.695312 5.175781 28.859375 L 5.175781 6.238281 C 5.175781 5.40625 5.855469 4.726562 6.691406 4.726562 L 29.308594 4.726562 C 30.144531 4.726562 30.824219 5.40625 30.824219 6.238281 L 30.824219 28.859375 C 30.824219 29.695312 30.144531 30.375 29.308594 30.375 Z M 6.691406 30.375 "/>
<path style=" stroke:none;fill-rule:nonzero;fill:rgb(21.176471%,25.098041%,30.19608%);fill-opacity:1;" d="M 29.308594 4.949219 C 30.019531 4.949219 30.601562 5.527344 30.601562 6.238281 L 30.601562 28.859375 C 30.601562 29.570312 30.019531 30.148438 29.308594 30.148438 L 6.691406 30.148438 C 5.980469 30.148438 5.398438 29.570312 5.398438 28.859375 L 5.398438 6.238281 C 5.398438 5.527344 5.980469 4.949219 6.691406 4.949219 L 29.308594 4.949219 M 29.308594 4.5 L 6.691406 4.5 C 5.730469 4.5 4.949219 5.277344 4.949219 6.238281 L 4.949219 28.859375 C 4.949219 29.820312 5.730469 30.601562 6.691406 30.601562 L 29.308594 30.601562 C 30.269531 30.601562 31.050781 29.820312 31.050781 28.859375 L 31.050781 6.238281 C 31.050781 5.277344 30.269531 4.5 29.308594 4.5 Z M 29.308594 4.5 "/>
<path style=" stroke:none;fill-rule:nonzero;fill:rgb(77.254903%,83.137256%,87.058824%);fill-opacity:1;" d="M 26.101562 8.101562 C 25.355469 8.101562 24.75 8.703125 24.75 9.449219 C 24.75 10.195312 25.355469 10.800781 26.101562 10.800781 C 26.84375 10.800781 27.449219 10.195312 27.449219 9.449219 C 27.449219 8.703125 26.84375 8.101562 26.101562 8.101562 Z M 26.101562 8.101562 "/>
<path style=" stroke:none;fill-rule:nonzero;fill:rgb(77.254903%,83.137256%,87.058824%);fill-opacity:1;" d="M 9.898438 8.101562 C 9.15625 8.101562 8.550781 8.703125 8.550781 9.449219 C 8.550781 10.195312 9.15625 10.800781 9.898438 10.800781 C 10.644531 10.800781 11.25 10.195312 11.25 9.449219 C 11.25 8.703125 10.644531 8.101562 9.898438 8.101562 Z M 9.898438 8.101562 "/>
<path style=" stroke:none;fill-rule:nonzero;fill:rgb(77.254903%,83.137256%,87.058824%);fill-opacity:1;" d="M 26.101562 24.300781 C 25.355469 24.300781 24.75 24.90625 24.75 25.648438 C 24.75 26.394531 25.355469 27 26.101562 27 C 26.84375 27 27.449219 26.394531 27.449219 25.648438 C 27.449219 24.90625 26.84375 24.300781 26.101562 24.300781 Z M 26.101562 24.300781 "/>
<path style=" stroke:none;fill-rule:nonzero;fill:rgb(77.254903%,83.137256%,87.058824%);fill-opacity:1;" d="M 9.898438 24.300781 C 9.15625 24.300781 8.550781 24.90625 8.550781 25.648438 C 8.550781 26.394531 9.15625 27 9.898438 27 C 10.644531 27 11.25 26.394531 11.25 25.648438 C 11.25 24.90625 10.644531 24.300781 9.898438 24.300781 Z M 9.898438 24.300781 "/>
</g>
</g>
</g>

<g transform="scale(1.33333333)">    <g id="surface131">
        <path d="M18.602,13.5C15.785,13.5 13.5,15.785 13.5,18.602C13.5,21.418 15.785,23.699 18.602,23.699C21.418,23.699 23.699,21.418 23.699,18.602C23.699,15.785 21.418,13.5 18.602,13.5Z" style="fill:rgb(186,224,189);fill-rule:nonzero;"/>
        <path d="M18.602,13.801C21.246,13.801 23.398,15.953 23.398,18.602C23.398,21.246 21.246,23.398 18.602,23.398C15.953,23.398 13.801,21.246 13.801,18.602C13.801,15.953 15.953,13.801 18.602,13.801M18.602,13.199C15.617,13.199 13.199,15.617 13.199,18.602C13.199,21.582 15.617,24 18.602,24C21.582,24 24,21.582 24,18.602C24,15.617 21.582,13.199 18.602,13.199Z" style="fill:rgb(94,156,118);fill-rule:nonzero;"/>
        <g transform="matrix(0.6,0,0,0.6,0,0)">
            <path d="M31.003,36.003L31.003,26.003M26.003,31.003L36.003,31.003" style="fill:none;fill-rule:nonzero;stroke:rgb(254,254,254);stroke-width:2px;"/>
        </g>
    </g></g>
</svg>
