<?xml version="1.0" encoding="UTF-8"?>
<svg id="add-group" xmlns="http://www.w3.org/2000/svg" xmlns:xlink="http://www.w3.org/1999/xlink" width="32" height="32" viewBox="0 0 32 32" version="1.1">
<g transform="scale(1.06666667)">
<g id="surface3714">
<path style=" stroke:none;fill-rule:nonzero;fill:rgb(40.000001%,47.450981%,56.078434%);fill-opacity:1;" d="M 26.25 3.75 L 26.25 26.25 L 3.75 26.25 L 3.75 3.75 L 26.25 3.75 M 27 3 L 3 3 L 3 27 L 27 27 Z M 27 3 "/>
<path style=" stroke:none;fill-rule:nonzero;fill:rgb(54.509807%,71.764708%,94.117647%);fill-opacity:1;" d="M 24.375 1.125 L 28.875 1.125 L 28.875 5.625 L 24.375 5.625 Z M 24.375 1.125 "/>
<path style=" stroke:none;fill-rule:nonzero;fill:rgb(30.588236%,47.843137%,70.980394%);fill-opacity:1;" d="M 28.5 1.5 L 28.5 5.25 L 24.75 5.25 L 24.75 1.5 L 28.5 1.5 M 29.25 0.75 L 24 0.75 L 24 6 L 29.25 6 Z M 29.25 0.75 "/>
<path style=" stroke:none;fill-rule:nonzero;fill:rgb(54.509807%,71.764708%,94.117647%);fill-opacity:1;" d="M 1.125 1.125 L 5.625 1.125 L 5.625 5.625 L 1.125 5.625 Z M 1.125 1.125 "/>
<path style=" stroke:none;fill-rule:nonzero;fill:rgb(30.588236%,47.843137%,70.980394%);fill-opacity:1;" d="M 5.25 1.5 L 5.25 5.25 L 1.5 5.25 L 1.5 1.5 L 5.25 1.5 M 6 0.75 L 0.75 0.75 L 0.75 6 L 6 6 Z M 6 0.75 "/>
<path style=" stroke:none;fill-rule:nonzero;fill:rgb(54.509807%,71.764708%,94.117647%);fill-opacity:1;" d="M 24.375 24.375 L 28.875 24.375 L 28.875 28.875 L 24.375 28.875 Z M 24.375 24.375 "/>
<path style=" stroke:none;fill-rule:nonzero;fill:rgb(30.588236%,47.843137%,70.980394%);fill-opacity:1;" d="M 28.5 24.75 L 28.5 28.5 L 24.75 28.5 L 24.75 24.75 L 28.5 24.75 M 29.25 24 L 24 24 L 24 29.25 L 29.25 29.25 Z M 29.25 24 "/>
<path style=" stroke:none;fill-rule:nonzero;fill:rgb(54.509807%,71.764708%,94.117647%);fill-opacity:1;" d="M 1.125 24.375 L 5.625 24.375 L 5.625 28.875 L 1.125 28.875 Z M 1.125 24.375 "/>
<path style=" stroke:none;fill-rule:nonzero;fill:rgb(30.588236%,47.843137%,70.980394%);fill-opacity:1;" d="M 5.25 24.75 L 5.25 28.5 L 1.5 28.5 L 1.5 24.75 L 5.25 24.75 M 6 24 L 0.75 24 L 0.75 29.25 L 6 29.25 Z M 6 24 "/>
<path style=" stroke:none;fill-rule:nonzero;fill:rgb(86.274511%,83.529413%,94.901961%);fill-opacity:1;" d="M 13.875 13.875 L 22.125 13.875 L 22.125 22.125 L 13.875 22.125 Z M 13.875 13.875 "/>
<path style=" stroke:none;fill-rule:nonzero;fill:rgb(54.509807%,45.882353%,63.137257%);fill-opacity:1;" d="M 21.75 14.25 L 21.75 21.75 L 14.25 21.75 L 14.25 14.25 L 21.75 14.25 M 22.5 13.5 L 13.5 13.5 L 13.5 22.5 L 22.5 22.5 Z M 22.5 13.5 "/>
<path style=" stroke:none;fill-rule:nonzero;fill:rgb(94.901961%,98.039216%,100%);fill-opacity:1;" d="M 7.875 7.875 L 16.125 7.875 L 16.125 16.125 L 7.875 16.125 Z M 7.875 7.875 "/>
<path style=" stroke:none;fill-rule:nonzero;fill:rgb(47.058824%,54.509807%,61.176473%);fill-opacity:1;" d="M 15.75 8.25 L 15.75 15.75 L 8.25 15.75 L 8.25 8.25 L 15.75 8.25 M 16.5 7.5 L 7.5 7.5 L 7.5 16.5 L 16.5 16.5 Z M 16.5 7.5 "/>
</g>
</g>

<g id="add-badge"><g transform="scale(1.33333333)">
    <g id="surface131">
        <path d="M18.602,13.5C15.785,13.5 13.5,15.785 13.5,18.602C13.5,21.418 15.785,23.699 18.602,23.699C21.418,23.699 23.699,21.418 23.699,18.602C23.699,15.785 21.418,13.5 18.602,13.5Z" style="fill:rgb(186,224,189);fill-rule:nonzero;"/>
        <path d="M18.602,13.801C21.246,13.801 23.398,15.953 23.398,18.602C23.398,21.246 21.246,23.398 18.602,23.398C15.953,23.398 13.801,21.246 13.801,18.602C13.801,15.953 15.953,13.801 18.602,13.801M18.602,13.199C15.617,13.199 13.199,15.617 13.199,18.602C13.199,21.582 15.617,24 18.602,24C21.582,24 24,21.582 24,18.602C24,15.617 21.582,13.199 18.602,13.199Z" style="fill:rgb(94,156,118);fill-rule:nonzero;"/>
        <g transform="matrix(0.6,0,0,0.6,0,0)">
            <path d="M31.003,36.003L31.003,26.003M26.003,31.003L36.003,31.003" style="fill:none;fill-rule:nonzero;stroke:rgb(254,254,254);stroke-width:2px;"/>
        </g>
    </g>
</g></g>
</svg>
