<?xml version="1.0" encoding="UTF-8"?>
<svg id="add-folder" xmlns="http://www.w3.org/2000/svg" xmlns:xlink="http://www.w3.org/1999/xlink" width="32" height="32" viewBox="0 0 32 32" version="1.1">
<g transform="scale(0.53333333)">
<g id="surface17">
<path style=" stroke:none;fill-rule:nonzero;fill:rgb(85.882354%,69.01961%,39.607844%);fill-opacity:1;" d="M 2.25 53.25 L 2.25 6.75 L 17.691406 6.75 L 22.191406 11.25 L 57.75 11.25 L 57.75 53.25 Z M 2.25 53.25 "/>
<path style=" stroke:none;fill-rule:nonzero;fill:rgb(58.823532%,47.843137%,26.666668%);fill-opacity:1;" d="M 17.378906 7.5 L 21.441406 11.558594 L 21.878906 12 L 57 12 L 57 52.5 L 3 52.5 L 3 7.5 L 17.378906 7.5 M 18 6 L 1.5 6 L 1.5 54 L 58.5 54 L 58.5 10.5 L 22.5 10.5 Z M 18 6 "/>
<path style=" stroke:none;fill-rule:nonzero;fill:rgb(96.078432%,80.784315%,52.156866%);fill-opacity:1;" d="M 2.25 53.25 L 2.25 14.25 L 18.226562 14.25 L 22.726562 11.25 L 57.75 11.25 L 57.75 53.25 Z M 2.25 53.25 "/>
<path style=" stroke:none;fill-rule:nonzero;fill:rgb(58.823532%,47.843137%,26.666668%);fill-opacity:1;" d="M 57 12 L 57 52.5 L 3 52.5 L 3 15 L 18.453125 15 L 18.832031 14.746094 L 22.953125 12 L 57 12 M 58.5 10.5 L 22.5 10.5 L 18 13.5 L 1.5 13.5 L 1.5 54 L 58.5 54 Z M 58.5 10.5 "/>
</g>
</g>

<g transform="scale(1.33333333)">    <g id="surface131">
        <path d="M18.602,13.5C15.785,13.5 13.5,15.785 13.5,18.602C13.5,21.418 15.785,23.699 18.602,23.699C21.418,23.699 23.699,21.418 23.699,18.602C23.699,15.785 21.418,13.5 18.602,13.5Z" style="fill:rgb(186,224,189);fill-rule:nonzero;"/>
        <path d="M18.602,13.801C21.246,13.801 23.398,15.953 23.398,18.602C23.398,21.246 21.246,23.398 18.602,23.398C15.953,23.398 13.801,21.246 13.801,18.602C13.801,15.953 15.953,13.801 18.602,13.801M18.602,13.199C15.617,13.199 13.199,15.617 13.199,18.602C13.199,21.582 15.617,24 18.602,24C21.582,24 24,21.582 24,18.602C24,15.617 21.582,13.199 18.602,13.199Z" style="fill:rgb(94,156,118);fill-rule:nonzero;"/>
        <g transform="matrix(0.6,0,0,0.6,0,0)">
            <path d="M31.003,36.003L31.003,26.003M26.003,31.003L36.003,31.003" style="fill:none;fill-rule:nonzero;stroke:rgb(254,254,254);stroke-width:2px;"/>
        </g>
    </g></g>
</svg>
