<?xml version="1.0" encoding="UTF-8"?>
<svg id="add-led" xmlns="http://www.w3.org/2000/svg" xmlns:xlink="http://www.w3.org/1999/xlink" width="32" height="32" viewBox="0 0 32 32" version="1.1">
<g transform="scale(1.06666667)">
<g id="surface4274">
<path style=" stroke:none;fill-rule:nonzero;fill:rgb(100%,93.333334%,63.921571%);fill-opacity:1;" d="M 17.625 17.625 L 19.125 17.625 L 19.125 28.875 L 17.625 28.875 Z M 17.625 17.625 "/>
<path style=" stroke:none;fill-rule:nonzero;fill:rgb(96.078432%,76.078433%,46.27451%);fill-opacity:1;" d="M 18.75 18 L 18.75 28.5 L 18 28.5 L 18 18 L 18.75 18 M 19.5 17.25 L 17.25 17.25 L 17.25 29.25 L 19.5 29.25 Z M 19.5 17.25 "/>
<path style=" stroke:none;fill-rule:nonzero;fill:rgb(100%,93.333334%,63.921571%);fill-opacity:1;" d="M 10.875 17.625 L 12.375 17.625 L 12.375 28.875 L 10.875 28.875 Z M 10.875 17.625 "/>
<path style=" stroke:none;fill-rule:nonzero;fill:rgb(96.078432%,76.078433%,46.27451%);fill-opacity:1;" d="M 12 18 L 12 28.5 L 11.25 28.5 L 11.25 18 L 12 18 M 12.75 17.25 L 10.5 17.25 L 10.5 29.25 L 12.75 29.25 Z M 12.75 17.25 "/>
<path style=" stroke:none;fill-rule:nonzero;fill:rgb(96.862745%,56.078434%,56.078434%);fill-opacity:1;" d="M 9.375 15.375 L 9.375 6.75 C 9.375 3.648438 11.898438 1.125 15 1.125 C 18.101562 1.125 20.625 3.648438 20.625 6.75 L 20.625 15.375 Z M 9.375 15.375 "/>
<path style=" stroke:none;fill-rule:nonzero;fill:rgb(67.058825%,20.392157%,20.392157%);fill-opacity:1;" d="M 15 1.5 C 17.894531 1.5 20.25 3.855469 20.25 6.75 L 20.25 15 L 9.75 15 L 9.75 6.75 C 9.75 3.855469 12.105469 1.5 15 1.5 M 15 0.75 C 11.699219 0.75 9 3.449219 9 6.75 L 9 15.75 L 21 15.75 L 21 6.75 C 21 3.449219 18.300781 0.75 15 0.75 Z M 15 0.75 "/>
<path style=" stroke:none;fill-rule:nonzero;fill:rgb(96.862745%,56.078434%,56.078434%);fill-opacity:1;" d="M 7.875 15.375 L 22.125 15.375 L 22.125 17.625 L 7.875 17.625 Z M 7.875 15.375 "/>
<path style=" stroke:none;fill-rule:nonzero;fill:rgb(67.058825%,20.392157%,20.392157%);fill-opacity:1;" d="M 21.75 15.75 L 21.75 17.25 L 8.25 17.25 L 8.25 15.75 L 21.75 15.75 M 22.5 15 L 7.5 15 L 7.5 18 L 22.5 18 Z M 22.5 15 "/>
<path style=" stroke:none;fill-rule:nonzero;fill:rgb(96.862745%,32.156864%,32.156864%);fill-opacity:1;" d="M 10.5 15.75 L 12.75 15.75 L 12.75 17.25 L 10.5 17.25 Z M 17.25 15.75 L 19.5 15.75 L 19.5 17.25 L 17.25 17.25 Z M 12.75 15 L 10.5 15 L 10.5 11.945312 C 10.5 11.945312 10.40625 9 13.5 9 L 13.5 11.25 C 12.695312 11.25 12.75 11.96875 12.75 11.96875 Z M 17.25 15 L 19.5 15 L 19.5 11.945312 C 19.5 11.945312 19.59375 9 16.5 9 L 16.5 11.25 C 17.304688 11.25 17.25 11.96875 17.25 11.96875 Z M 17.25 15 "/>
<path style=" stroke:none;fill-rule:nonzero;fill:rgb(100%,100%,100%);fill-opacity:1;" d="M 15 7.5 C 13.757812 7.5 12.75 8.507812 12.75 9.75 C 12.75 10.992188 13.757812 12 15 12 C 16.242188 12 17.25 10.992188 17.25 9.75 C 17.25 8.507812 16.242188 7.5 15 7.5 Z M 15 7.5 "/>
</g>
</g>

<g transform="scale(1.33333333)">    <g id="surface131">
        <path d="M18.602,13.5C15.785,13.5 13.5,15.785 13.5,18.602C13.5,21.418 15.785,23.699 18.602,23.699C21.418,23.699 23.699,21.418 23.699,18.602C23.699,15.785 21.418,13.5 18.602,13.5Z" style="fill:rgb(186,224,189);fill-rule:nonzero;"/>
        <path d="M18.602,13.801C21.246,13.801 23.398,15.953 23.398,18.602C23.398,21.246 21.246,23.398 18.602,23.398C15.953,23.398 13.801,21.246 13.801,18.602C13.801,15.953 15.953,13.801 18.602,13.801M18.602,13.199C15.617,13.199 13.199,15.617 13.199,18.602C13.199,21.582 15.617,24 18.602,24C21.582,24 24,21.582 24,18.602C24,15.617 21.582,13.199 18.602,13.199Z" style="fill:rgb(94,156,118);fill-rule:nonzero;"/>
        <g transform="matrix(0.6,0,0,0.6,0,0)">
            <path d="M31.003,36.003L31.003,26.003M26.003,31.003L36.003,31.003" style="fill:none;fill-rule:nonzero;stroke:rgb(254,254,254);stroke-width:2px;"/>
        </g>
    </g></g>
</svg>
