<svg xmlns="http://www.w3.org/2000/svg"  viewBox="0 0 40 40" width="40px" height="40px"><path fill="#f5ce85" d="M4.12,24.331c3.25-0.421,11.458-2.169,15.807-9.265l15.701,8.762 c-4.733,7.976-10.336,13.323-11.659,14.531L4.12,24.331z"/><path fill="#967a44" d="M20.098,15.733l14.836,8.28c-4.346,7.186-9.34,12.144-11.007,13.704L5.443,24.653 C9.211,24.001,16.043,21.98,20.098,15.733 M19.746,14.391C14.461,23.599,2.731,23.96,2.731,23.96l21.276,15.037 c0,0,6.774-5.847,12.312-15.358L19.746,14.391L19.746,14.391z"/><path fill="#8bb7f0" d="M19.765,15.382l0.43-0.771c0.415-0.742,1.083-1.311,1.881-1.601 c0.389-0.142,0.796-0.213,1.21-0.213c0.603,0,1.199,0.155,1.725,0.449l2.423,1.353l8.199-12.397 c0.29-0.439,0.778-0.701,1.305-0.701c0.265,0,0.528,0.068,0.76,0.198c0.709,0.396,0.998,1.284,0.656,2.021l-6.249,13.485 l2.27,1.268c0.706,0.394,1.261,1.024,1.561,1.775l0.083,0.208c0.399,0.995,0.328,2.103-0.195,3.04l-0.361,0.647L19.765,15.382z"/><path fill="#4e7ab5" d="M36.939,2c0.182,0,0.356,0.045,0.516,0.135c0.482,0.269,0.678,0.873,0.446,1.374l-6.054,13.065 l-0.39,0.842l0.81,0.452l1.866,1.041c0.606,0.338,1.082,0.88,1.34,1.524l0.083,0.209c0.342,0.855,0.281,1.807-0.168,2.611 l-0.118,0.211l-14.826-8.274l0.186-0.334c0.356-0.637,0.929-1.126,1.615-1.375c0.334-0.122,0.684-0.183,1.039-0.183 c0.518,0,1.03,0.133,1.482,0.385l2.018,1.126l0.81,0.452l0.512-0.774l7.943-12.01C36.248,2.178,36.58,2,36.939,2 M36.939,1 c-0.672,0-1.327,0.328-1.722,0.925l-7.943,12.01l-2.018-1.126c-0.609-0.34-1.287-0.512-1.969-0.512 c-0.466,0-0.933,0.081-1.381,0.243c-0.912,0.332-1.674,0.98-2.147,1.827l-0.674,1.207l16.572,9.248l0.605-1.084 c0.594-1.064,0.676-2.339,0.223-3.47l-0.083-0.208c-0.344-0.859-0.973-1.575-1.782-2.026l-1.866-1.041l6.054-13.065 c0.454-0.979,0.076-2.142-0.866-2.668C37.625,1.085,37.28,1,36.939,1L36.939,1z"/><path fill="#967a44" d="M11.122 29.226l1.962 1.276c0 0 1.766-1.472 6.378-6.525C14.912 27.719 11.122 29.226 11.122 29.226zM18.284 34.23l1.557 1.15c0 0 2.028-2.041 4.672-5.355C21.145 32.715 18.284 34.23 18.284 34.23z"/><path fill="#b0c1d4" d="M4 6.5A2.5 2.5 0 1 0 4 11.5A2.5 2.5 0 1 0 4 6.5Z"/><path fill="#66798f" d="M4,7c1.103,0,2,0.897,2,2s-0.897,2-2,2s-2-0.897-2-2S2.897,7,4,7 M4,6C2.343,6,1,7.343,1,9 c0,1.657,1.343,3,3,3s3-1.343,3-3C7,7.343,5.657,6,4,6L4,6z"/><g><path fill="#b0c1d4" d="M9 14.5A1.5 1.5 0 1 0 9 17.5A1.5 1.5 0 1 0 9 14.5Z"/><path fill="#66798f" d="M9,15c0.551,0,1,0.449,1,1s-0.449,1-1,1s-1-0.449-1-1S8.449,15,9,15 M9,14c-1.105,0-2,0.895-2,2 s0.895,2,2,2s2-0.895,2-2S10.105,14,9,14L9,14z"/></g><path fill="none" stroke="#c74343" stroke-linecap="round" stroke-linejoin="round" stroke-miterlimit="10" d="M17.612,18.029	c0,0,0.77,1.993,3.175,2.076c0.483,1.126,1.85,2.172,4.147,2.457c0.484,1.166,2.489,2.403,4.477,2.261	c0.509,0.966,2.321,2.263,3.925,2.371"/></svg>