<?xml version="1.0" encoding="UTF-8"?>
<svg xmlns="http://www.w3.org/2000/svg" xmlns:xlink="http://www.w3.org/1999/xlink" width="32" height="32" viewBox="0 0 32 32" version="1.1">
<g transform="scale(1.33333333)">
<g id="surface57">
<path style=" stroke:none;fill-rule:nonzero;fill:rgb(96.078432%,80.784315%,52.156866%);fill-opacity:1;" d="M 3.039062 14.640625 C 5.121094 14.320312 9.601562 13.28125 12.078125 9.199219 L 21.199219 14.238281 C 18.480469 18.800781 15.359375 21.839844 14.480469 22.640625 Z M 3.039062 14.640625 "/>
<path style=" stroke:none;fill-rule:nonzero;fill:rgb(58.823532%,47.843137%,26.666668%);fill-opacity:1;" d="M 12.238281 9.761719 L 20.640625 14.398438 C 18.238281 18.320312 15.519531 21.121094 14.398438 22.160156 L 4 14.878906 C 6.320312 14.398438 9.921875 13.121094 12.238281 9.761719 M 11.921875 8.640625 C 8.800781 14.078125 1.921875 14.320312 1.921875 14.320312 L 14.480469 23.199219 C 14.480469 23.199219 18.480469 19.761719 21.761719 14.160156 Z M 11.921875 8.640625 "/>
<path style=" stroke:none;fill-rule:nonzero;fill:rgb(54.509807%,71.764708%,94.117647%);fill-opacity:1;" d="M 12.078125 9.199219 L 12.320312 8.800781 C 12.558594 8.398438 12.960938 8.078125 13.359375 7.921875 C 13.601562 7.839844 13.839844 7.839844 14 7.839844 C 14.320312 7.839844 14.640625 7.921875 14.960938 8.078125 L 16.480469 8.960938 L 21.359375 1.601562 C 21.519531 1.359375 21.761719 1.199219 22.078125 1.199219 C 22.238281 1.199219 22.320312 1.199219 22.480469 1.28125 C 22.878906 1.519531 23.039062 1.921875 22.800781 2.320312 L 19.121094 10.398438 L 20.558594 11.199219 C 20.960938 11.441406 21.28125 11.761719 21.441406 12.160156 L 21.519531 12.320312 C 21.761719 12.878906 21.679688 13.519531 21.441406 14 L 21.28125 14.320312 Z M 12.078125 9.199219 "/>
<path style=" stroke:none;fill-rule:nonzero;fill:rgb(30.588236%,47.843137%,70.980394%);fill-opacity:1;" d="M 22.078125 1.601562 C 22.160156 1.601562 22.238281 1.601562 22.320312 1.679688 C 22.480469 1.761719 22.558594 2 22.480469 2.238281 L 18.878906 9.921875 L 18.558594 10.558594 L 19.199219 10.960938 L 20.320312 11.601562 C 20.640625 11.761719 20.878906 12.078125 21.039062 12.398438 L 21.121094 12.558594 C 21.28125 12.960938 21.28125 13.441406 21.039062 13.839844 L 12.640625 9.199219 C 12.800781 8.878906 13.121094 8.640625 13.519531 8.480469 C 13.679688 8.398438 13.839844 8.398438 14.078125 8.398438 C 14.320312 8.398438 14.640625 8.480469 14.878906 8.640625 L 16.078125 9.28125 L 16.71875 9.679688 L 17.121094 9.039062 L 21.839844 1.921875 C 21.839844 1.679688 21.921875 1.601562 22.078125 1.601562 M 22.078125 0.800781 C 21.679688 0.800781 21.28125 0.960938 21.039062 1.359375 L 16.320312 8.480469 L 15.199219 7.761719 C 14.878906 7.519531 14.398438 7.441406 14 7.441406 C 13.761719 7.441406 13.441406 7.519531 13.199219 7.601562 C 12.640625 7.761719 12.238281 8.160156 11.921875 8.640625 L 11.519531 9.359375 L 21.28125 14.800781 L 21.601562 14.160156 C 21.921875 13.519531 22 12.800781 21.761719 12.078125 L 21.761719 12 C 21.519531 11.519531 21.199219 11.039062 20.71875 10.800781 L 19.601562 10.160156 L 23.199219 2.480469 C 23.441406 1.921875 23.28125 1.199219 22.71875 0.878906 C 22.480469 0.800781 22.320312 0.800781 22.078125 0.800781 Z M 22.078125 0.800781 "/>
<path style=" stroke:none;fill-rule:nonzero;fill:rgb(58.823532%,47.843137%,26.666668%);fill-opacity:1;" d="M 6.398438 16.960938 L 7.839844 18 C 7.839844 18 9.679688 16.878906 12.238281 13.839844 C 9.519531 16.078125 6.398438 16.960938 6.398438 16.960938 Z M 10.640625 20.238281 L 12 21.121094 C 12 21.121094 13.039062 20.640625 14.558594 18.71875 C 12.558594 20.238281 10.640625 20.238281 10.640625 20.238281 Z M 10.640625 20.238281 "/>
<path style=" stroke:none;fill-rule:nonzero;fill:rgb(69.01961%,75.686276%,83.137256%);fill-opacity:1;" d="M 2.800781 4.398438 C 1.917969 4.398438 1.199219 5.117188 1.199219 6 C 1.199219 6.882812 1.917969 7.601562 2.800781 7.601562 C 3.683594 7.601562 4.398438 6.882812 4.398438 6 C 4.398438 5.117188 3.683594 4.398438 2.800781 4.398438 Z M 2.800781 4.398438 "/>
<path style=" stroke:none;fill-rule:nonzero;fill:rgb(40.000001%,47.450981%,56.078434%);fill-opacity:1;" d="M 2.800781 4.800781 C 3.441406 4.800781 4 5.359375 4 6 C 4 6.640625 3.441406 7.199219 2.800781 7.199219 C 2.160156 7.199219 1.601562 6.640625 1.601562 6 C 1.601562 5.359375 2.160156 4.800781 2.800781 4.800781 M 2.800781 4 C 1.679688 4 0.800781 4.878906 0.800781 6 C 0.800781 7.121094 1.679688 8 2.800781 8 C 3.921875 8 4.800781 7.121094 4.800781 6 C 4.800781 4.878906 3.921875 4 2.800781 4 Z M 2.800781 4 "/>
<path style=" stroke:none;fill-rule:nonzero;fill:rgb(69.01961%,75.686276%,83.137256%);fill-opacity:1;" d="M 6 9.199219 C 5.558594 9.199219 5.199219 9.558594 5.199219 10 C 5.199219 10.441406 5.558594 10.800781 6 10.800781 C 6.441406 10.800781 6.800781 10.441406 6.800781 10 C 6.800781 9.558594 6.441406 9.199219 6 9.199219 Z M 6 9.199219 "/>
<path style=" stroke:none;fill-rule:nonzero;fill:rgb(40.000001%,47.450981%,56.078434%);fill-opacity:1;" d="M 6 9.601562 C 6.238281 9.601562 6.398438 9.761719 6.398438 10 C 6.398438 10.238281 6.238281 10.398438 6 10.398438 C 5.761719 10.398438 5.601562 10.238281 5.601562 10 C 5.601562 9.761719 5.761719 9.601562 6 9.601562 M 6 8.800781 C 5.359375 8.800781 4.800781 9.359375 4.800781 10 C 4.800781 10.640625 5.359375 11.199219 6 11.199219 C 6.640625 11.199219 7.199219 10.640625 7.199219 10 C 7.199219 9.359375 6.640625 8.800781 6 8.800781 Z M 6 8.800781 "/>
<path style=" stroke:none;fill-rule:nonzero;fill:rgb(78.039217%,26.274511%,26.274511%);fill-opacity:1;" d="M 20 16.640625 C 19.921875 16.640625 19.921875 16.640625 20 16.640625 C 19.039062 16.558594 17.921875 15.921875 17.441406 15.28125 C 16.320312 15.28125 15.199219 14.640625 14.71875 13.921875 C 13.601562 13.761719 12.71875 13.199219 12.238281 12.480469 C 10.800781 12.320312 10.238281 11.039062 10.238281 11.039062 C 10.160156 10.800781 10.238281 10.640625 10.480469 10.558594 C 10.71875 10.480469 10.878906 10.558594 10.960938 10.800781 C 10.960938 10.878906 11.359375 11.761719 12.480469 11.761719 C 12.640625 11.761719 12.800781 11.839844 12.800781 12 C 13.039062 12.640625 13.839844 13.039062 14.960938 13.199219 C 15.121094 13.199219 15.199219 13.28125 15.28125 13.441406 C 15.519531 13.921875 16.480469 14.640625 17.519531 14.558594 C 17.679688 14.558594 17.839844 14.640625 17.921875 14.800781 C 18.160156 15.199219 19.121094 15.921875 19.921875 16 C 20.160156 16 20.320312 16.238281 20.320312 16.398438 C 20.320312 16.480469 20.160156 16.640625 20 16.640625 Z M 20 16.640625 "/>
</g>
</g>
</svg>
