<?xml version="1.0" encoding="UTF-8"?>
<svg xmlns="http://www.w3.org/2000/svg" xmlns:xlink="http://www.w3.org/1999/xlink" width="32" height="32" viewBox="0 0 32 32" version="1.1">
<g transform="scale(2.66666667)">
<g id="surface269">
<path style=" stroke:none;fill-rule:nonzero;fill:rgb(54.509807%,71.764708%,94.117647%);fill-opacity:1;" d="M 7.050781 4.949219 L 7.050781 1.863281 L 8.15625 2.96875 L 10.617188 0.511719 L 11.488281 1.382812 L 9.03125 3.84375 L 10.136719 4.949219 Z M 7.050781 4.949219 "/>
<path style=" stroke:none;fill-rule:nonzero;fill:rgb(30.588236%,47.843137%,70.980394%);fill-opacity:1;" d="M 10.617188 0.722656 L 11.277344 1.382812 L 8.816406 3.84375 L 9.03125 4.054688 L 9.777344 4.800781 L 7.199219 4.800781 L 7.199219 2.222656 L 7.945312 2.96875 L 8.15625 3.183594 L 10.617188 0.722656 M 10.617188 0.300781 L 8.15625 2.757812 L 6.898438 1.5 L 6.898438 5.101562 L 10.5 5.101562 L 9.242188 3.84375 L 11.699219 1.382812 Z M 10.617188 0.300781 "/>
<path style=" stroke:none;fill-rule:nonzero;fill:rgb(54.509807%,71.764708%,94.117647%);fill-opacity:1;" d="M 0.511719 10.617188 L 2.96875 8.15625 L 1.863281 7.050781 L 4.949219 7.050781 L 4.949219 10.136719 L 3.84375 9.03125 L 1.382812 11.488281 Z M 0.511719 10.617188 "/>
<path style=" stroke:none;fill-rule:nonzero;fill:rgb(30.588236%,47.843137%,70.980394%);fill-opacity:1;" d="M 4.800781 7.199219 L 4.800781 9.777344 L 4.054688 9.03125 L 3.84375 8.816406 L 1.382812 11.277344 L 0.722656 10.617188 L 3.183594 8.15625 L 2.96875 7.945312 L 2.222656 7.199219 L 4.800781 7.199219 M 5.101562 6.898438 L 1.5 6.898438 L 2.757812 8.15625 L 0.300781 10.617188 L 1.382812 11.699219 L 3.84375 9.242188 L 5.101562 10.5 Z M 5.101562 6.898438 "/>
</g>
</g>
</svg>
