<?xml version="1.0" encoding="UTF-8"?>
<svg xmlns="http://www.w3.org/2000/svg" xmlns:xlink="http://www.w3.org/1999/xlink" width="32" height="32" viewBox="0 0 32 32" version="1.1">
<g transform="scale(1.33333333)">
<g id="surface60">
<path style="fill-rule:nonzero;fill:rgb(72.941178%,87.843138%,74.117649%);fill-opacity:1;stroke-width:1;stroke-linecap:butt;stroke-linejoin:miter;stroke:rgb(36.862746%,61.176473%,46.27451%);stroke-opacity:1;stroke-miterlimit:10;" d="M 1.796875 23.502604 C 1.601562 22.298177 1.497396 21.197917 1.497396 20 C 1.497396 15.299479 3.300781 10.898438 6.497396 7.402344 L 6.796875 6.998698 L 4.199219 4.498698 L 12.5 4.498698 L 12.5 12.799479 L 9.602865 9.902344 L 9.199219 10.299479 C 6.796875 13.001302 5.501302 16.39974 5.501302 20 C 5.501302 21.197917 5.598958 22.298177 5.898438 23.502604 Z M 1.796875 23.502604 " transform="matrix(0.6,0,0,0.6,0,0)"/>
<path style="fill-rule:nonzero;fill:rgb(72.941178%,87.843138%,74.117649%);fill-opacity:1;stroke-width:1;stroke-linecap:butt;stroke-linejoin:miter;stroke:rgb(36.862746%,61.176473%,46.27451%);stroke-opacity:1;stroke-miterlimit:10;" d="M 27.200521 12.5 L 30.097656 9.602865 L 29.700521 9.199219 C 26.998698 6.796875 23.60026 5.501302 20 5.501302 C 18.802083 5.501302 17.701823 5.598958 16.497396 5.898438 L 16.497396 1.796875 C 17.701823 1.601562 18.802083 1.497396 20 1.497396 C 24.700521 1.497396 29.101562 3.300781 32.597656 6.497396 L 33.001302 6.796875 L 35.598958 4.199219 L 35.598958 12.5 Z M 27.200521 12.5 " transform="matrix(0.6,0,0,0.6,0,0)"/>
<path style="fill-rule:nonzero;fill:rgb(72.941178%,87.843138%,74.117649%);fill-opacity:1;stroke-width:1;stroke-linecap:butt;stroke-linejoin:miter;stroke:rgb(36.862746%,61.176473%,46.27451%);stroke-opacity:1;stroke-miterlimit:10;" d="M 27.5 35.501302 L 27.5 27.200521 L 30.397135 30.097656 L 30.800781 29.700521 C 33.203125 26.998698 34.602865 23.60026 34.602865 20 C 34.602865 18.802083 34.498698 17.701823 34.199219 16.497396 L 38.300781 16.497396 C 38.502604 17.701823 38.60026 18.802083 38.60026 20 C 38.60026 24.700521 36.796875 29.101562 33.60026 32.597656 L 33.300781 33.001302 L 35.898438 35.598958 Z M 27.5 35.501302 " transform="matrix(0.6,0,0,0.6,0,0)"/>
<path style="fill-rule:nonzero;fill:rgb(72.941178%,87.843138%,74.117649%);fill-opacity:1;stroke-width:1;stroke-linecap:butt;stroke-linejoin:miter;stroke:rgb(36.862746%,61.176473%,46.27451%);stroke-opacity:1;stroke-miterlimit:10;" d="M 20 38.502604 C 15.299479 38.502604 10.898438 36.699219 7.402344 33.502604 L 6.998698 33.203125 L 4.401042 35.800781 L 4.401042 27.5 L 12.701823 27.5 L 9.798177 30.397135 L 10.201823 30.800781 C 12.897135 33.203125 16.302083 34.602865 19.902344 34.602865 C 21.10026 34.602865 22.200521 34.498698 23.398438 34.199219 L 23.398438 38.300781 C 22.298177 38.398438 21.197917 38.502604 20 38.502604 Z M 20 38.502604 " transform="matrix(0.6,0,0,0.6,0,0)"/>
</g>
</g>
</svg>
