<?xml version="1.0" encoding="UTF-8"?>
<svg xmlns="http://www.w3.org/2000/svg" xmlns:xlink="http://www.w3.org/1999/xlink" width="32" height="32" viewBox="0 0 32 32" version="1.1">
<g transform="scale(2.66666667)">
<g id="surface342">
<path style=" stroke:none;fill-rule:nonzero;fill:rgb(54.509807%,71.764708%,94.117647%);fill-opacity:1;" d="M 7.351562 8.550781 L 11.550781 8.550781 L 11.550781 11.550781 L 7.351562 11.550781 Z M 7.351562 8.550781 "/>
<path style=" stroke:none;fill-rule:nonzero;fill:rgb(30.588236%,47.843137%,70.980394%);fill-opacity:1;" d="M 11.398438 8.699219 L 11.398438 11.398438 L 7.5 11.398438 L 7.5 8.699219 L 11.398438 8.699219 M 11.699219 8.398438 L 7.199219 8.398438 L 7.199219 11.699219 L 11.699219 11.699219 Z M 11.699219 8.398438 "/>
<path style=" stroke:none;fill-rule:nonzero;fill:rgb(54.509807%,71.764708%,94.117647%);fill-opacity:1;" d="M 7.351562 4.050781 L 11.550781 4.050781 L 11.550781 7.050781 L 7.351562 7.050781 Z M 7.351562 4.050781 "/>
<path style=" stroke:none;fill-rule:nonzero;fill:rgb(30.588236%,47.843137%,70.980394%);fill-opacity:1;" d="M 11.398438 4.199219 L 11.398438 6.898438 L 7.5 6.898438 L 7.5 4.199219 L 11.398438 4.199219 M 11.699219 3.898438 L 7.199219 3.898438 L 7.199219 7.199219 L 11.699219 7.199219 Z M 11.699219 3.898438 "/>
<path style=" stroke:none;fill-rule:nonzero;fill:rgb(96.862745%,56.078434%,56.078434%);fill-opacity:1;" d="M 0.449219 0.449219 L 4.648438 0.449219 L 4.648438 3.449219 L 0.449219 3.449219 Z M 0.449219 0.449219 "/>
<path style=" stroke:none;fill-rule:nonzero;fill:rgb(78.039217%,26.274511%,26.274511%);fill-opacity:1;" d="M 4.5 0.601562 L 4.5 3.300781 L 0.601562 3.300781 L 0.601562 0.601562 L 4.5 0.601562 M 4.800781 0.300781 L 0.300781 0.300781 L 0.300781 3.601562 L 4.800781 3.601562 Z M 4.800781 0.300781 "/>
<path style=" stroke:none;fill-rule:nonzero;fill:rgb(40.000001%,47.450981%,56.078434%);fill-opacity:1;" d="M 7.199219 9.898438 L 2.699219 9.898438 L 2.699219 3.601562 L 2.398438 3.601562 L 2.398438 10.199219 L 7.199219 10.199219 Z M 7.199219 9.898438 "/>
<path style=" stroke:none;fill-rule:nonzero;fill:rgb(40.000001%,47.450981%,56.078434%);fill-opacity:1;" d="M 2.398438 5.699219 L 2.398438 5.398438 L 7.199219 5.398438 L 7.199219 5.699219 Z M 2.398438 5.699219 "/>
</g>
</g>
</svg>
