<?xml version="1.0" encoding="UTF-8"?>
<svg xmlns="http://www.w3.org/2000/svg" xmlns:xlink="http://www.w3.org/1999/xlink" width="32" height="32" viewBox="0 0 32 32" version="1.1">
<g transform="scale(1.33333333)">
<g id="surface2965">
<path style=" stroke:none;fill-rule:nonzero;fill:rgb(54.509807%,71.764708%,94.117647%);fill-opacity:1;" d="M 12 23.101562 C 5.878906 23.101562 0.898438 18.121094 0.898438 12 C 0.898438 5.878906 5.878906 0.898438 12 0.898438 C 18.121094 0.898438 23.101562 5.878906 23.101562 12 C 23.101562 18.121094 18.121094 23.101562 12 23.101562 Z M 12 23.101562 "/>
<path style=" stroke:none;fill-rule:nonzero;fill:rgb(30.588236%,47.843137%,70.980394%);fill-opacity:1;" d="M 12 1.199219 C 17.953125 1.199219 22.800781 6.046875 22.800781 12 C 22.800781 17.953125 17.953125 22.800781 12 22.800781 C 6.046875 22.800781 1.199219 17.953125 1.199219 12 C 1.199219 6.046875 6.046875 1.199219 12 1.199219 M 12 0.601562 C 5.703125 0.601562 0.601562 5.703125 0.601562 12 C 0.601562 18.296875 5.703125 23.398438 12 23.398438 C 18.296875 23.398438 23.398438 18.296875 23.398438 12 C 23.398438 5.703125 18.296875 0.601562 12 0.601562 Z M 12 0.601562 "/>
<path style=" stroke:none;fill-rule:nonzero;fill:rgb(100%,100%,100%);fill-opacity:1;" d="M 12 16.800781 C 11.335938 16.800781 10.800781 17.335938 10.800781 18 C 10.800781 18.664062 11.335938 19.199219 12 19.199219 C 12.664062 19.199219 13.199219 18.664062 13.199219 18 C 13.199219 17.335938 12.664062 16.800781 12 16.800781 Z M 12 16.800781 "/>
<path style="fill:none;stroke-width:3;stroke-linecap:butt;stroke-linejoin:miter;stroke:rgb(100%,100%,100%);stroke-opacity:1;stroke-miterlimit:10;" d="M 15.501302 16.998698 L 15.501302 15 C 15.501302 12.513021 17.513021 10.501302 20 10.501302 C 22.486979 10.501302 24.498698 12.49349 24.498698 15 C 24.498698 19.69401 20 19.791667 20 23.997396 L 20 25.501302 " transform="matrix(0.6,0,0,0.6,0,0)"/>
</g>
</g>
</svg>
