<?xml version="1.0" encoding="UTF-8"?>
<svg id="add-gyroscope" xmlns="http://www.w3.org/2000/svg" xmlns:xlink="http://www.w3.org/1999/xlink" width="48" height="48" viewBox="0 0 48 48" version="1.1">
<g transform="scale(1.33333333)">
<g id="surface1389">
<path style=" stroke:none;fill-rule:nonzero;fill:rgb(76.078433%,58.823532%,32.549021%);fill-opacity:1;" d="M 24.796875 27.226562 C 23.894531 27.226562 22.726562 26.863281 21.421875 26.191406 C 19.394531 25.15625 17.011719 23.355469 14.851562 21.148438 C 12.644531 18.945312 10.84375 16.605469 9.808594 14.535156 C 8.28125 11.519531 8.773438 10.078125 9.449219 9.40625 C 9.898438 8.953125 10.484375 8.773438 11.203125 8.773438 C 12.105469 8.773438 13.273438 9.136719 14.578125 9.808594 C 16.648438 10.890625 18.988281 12.644531 21.195312 14.851562 C 23.398438 17.054688 25.199219 19.394531 26.234375 21.464844 C 27.765625 24.480469 27.269531 25.921875 26.59375 26.59375 C 26.144531 27 25.558594 27.226562 24.796875 27.226562 Z M 11.203125 9.675781 C 10.710938 9.675781 10.351562 9.808594 10.078125 10.078125 C 9.40625 10.753906 9.628906 12.238281 10.621094 14.175781 C 11.65625 16.15625 13.363281 18.449219 15.523438 20.566406 C 17.640625 22.679688 19.933594 24.433594 21.914062 25.425781 C 23.398438 26.191406 24.34375 26.324219 24.886719 26.324219 C 25.378906 26.324219 25.738281 26.191406 26.011719 25.921875 C 26.683594 25.246094 26.460938 23.761719 25.46875 21.824219 C 24.433594 19.84375 22.726562 17.550781 20.609375 15.433594 C 18.496094 13.320312 16.199219 11.566406 14.21875 10.53125 C 12.644531 9.855469 11.699219 9.675781 11.203125 9.675781 Z M 11.203125 9.675781 "/>
<path style=" stroke:none;fill-rule:nonzero;fill:rgb(58.823532%,47.843137%,26.666668%);fill-opacity:1;" d="M 11.203125 9 C 12.105469 9 13.183594 9.316406 14.488281 9.988281 C 16.558594 11.023438 18.855469 12.824219 21.058594 14.984375 C 23.21875 17.144531 25.019531 19.484375 26.054688 21.554688 C 27.226562 23.851562 27.359375 25.515625 26.460938 26.414062 C 26.054688 26.820312 25.515625 27 24.839844 27 C 23.941406 27 22.859375 26.683594 21.601562 26.011719 C 19.53125 24.976562 17.234375 23.175781 15.03125 21.015625 C 12.871094 18.855469 11.070312 16.515625 10.035156 14.445312 C 8.863281 12.148438 8.730469 10.484375 9.628906 9.585938 C 9.988281 9.179688 10.53125 9 11.203125 9 M 24.796875 26.550781 C 25.335938 26.550781 25.785156 26.414062 26.101562 26.101562 C 26.820312 25.378906 26.683594 23.804688 25.605469 21.78125 C 24.570312 19.753906 22.816406 17.460938 20.699219 15.300781 C 18.585938 13.140625 16.246094 11.386719 14.265625 10.394531 C 12.734375 9.628906 11.746094 9.449219 11.203125 9.449219 C 10.664062 9.449219 10.214844 9.585938 9.945312 9.898438 C 9.226562 10.621094 9.359375 12.195312 10.441406 14.21875 C 11.476562 16.246094 13.230469 18.539062 15.34375 20.65625 C 17.460938 22.769531 19.800781 24.570312 21.78125 25.558594 C 23.265625 26.371094 24.253906 26.550781 24.796875 26.550781 M 11.203125 8.550781 C 10.261719 8.550781 9.675781 8.863281 9.269531 9.269531 C 8.550781 9.988281 8.011719 11.519531 9.585938 14.671875 C 10.664062 16.738281 12.464844 19.125 14.671875 21.328125 C 16.875 23.535156 19.261719 25.335938 21.328125 26.414062 C 22.816406 27.179688 23.941406 27.449219 24.796875 27.449219 C 25.738281 27.449219 26.324219 27.136719 26.730469 26.730469 C 27.449219 26.011719 27.988281 24.480469 26.414062 21.328125 C 25.335938 19.261719 23.535156 16.875 21.328125 14.671875 C 19.125 12.464844 16.738281 10.664062 14.671875 9.585938 C 13.140625 8.820312 12.015625 8.550781 11.203125 8.550781 Z M 11.203125 9.898438 C 11.699219 9.898438 12.601562 10.035156 14.039062 10.800781 C 16.019531 11.789062 18.269531 13.546875 20.386719 15.660156 C 22.5 17.773438 24.210938 20.023438 25.246094 22.003906 C 26.191406 23.804688 26.371094 25.246094 25.828125 25.828125 C 25.605469 26.054688 25.289062 26.144531 24.886719 26.144531 C 24.390625 26.144531 23.488281 26.011719 22.050781 25.246094 C 20.070312 24.253906 17.820312 22.5 15.703125 20.386719 C 13.5 18.269531 11.789062 16.019531 10.800781 14.039062 C 9.855469 12.238281 9.675781 10.800781 10.214844 10.214844 C 10.441406 9.988281 10.753906 9.898438 11.203125 9.898438 Z M 11.203125 9.898438 "/>
<path style=" stroke:none;fill-rule:nonzero;fill:rgb(58.823532%,47.843137%,26.666668%);fill-opacity:1;" d="M 3.199219 32.195312 L 16.847656 18.542969 L 17.484375 19.179688 L 3.835938 32.832031 Z M 3.199219 32.195312 "/>
<path style=" stroke:none;fill-rule:nonzero;fill:rgb(76.078433%,58.823532%,32.549021%);fill-opacity:1;" d="M 13.726562 28.125 C 11.878906 28.125 10.394531 27.585938 9.40625 26.59375 C 6.75 23.941406 7.46875 17.324219 12.421875 12.375 C 15.210938 9.585938 18.988281 7.875 22.320312 7.875 C 24.121094 7.875 25.695312 8.414062 26.640625 9.359375 C 29.296875 12.015625 28.574219 18.628906 23.625 23.578125 C 20.835938 26.371094 17.054688 28.125 13.726562 28.125 Z M 22.320312 8.773438 C 19.214844 8.773438 15.660156 10.394531 13.050781 13.003906 C 10.933594 15.121094 9.449219 17.820312 8.953125 20.429688 C 8.503906 22.769531 8.910156 24.839844 10.035156 25.964844 C 10.84375 26.773438 12.148438 27.226562 13.726562 27.226562 C 16.785156 27.226562 20.339844 25.605469 22.949219 22.949219 C 25.066406 20.835938 26.503906 18.136719 27 15.523438 C 27.449219 13.183594 27.046875 11.113281 25.964844 10.035156 C 25.199219 9.226562 23.894531 8.773438 22.320312 8.773438 Z M 22.320312 8.773438 "/>
<path style=" stroke:none;fill-rule:nonzero;fill:rgb(58.823532%,47.843137%,26.666668%);fill-opacity:1;" d="M 22.320312 8.101562 C 24.074219 8.101562 25.558594 8.59375 26.460938 9.539062 C 27.71875 10.800781 28.171875 13.050781 27.71875 15.660156 C 27.179688 18.449219 25.695312 21.238281 23.488281 23.445312 C 20.699219 26.191406 16.964844 27.898438 13.726562 27.898438 C 11.925781 27.898438 10.484375 27.40625 9.539062 26.460938 C 8.234375 25.15625 7.785156 22.90625 8.28125 20.339844 C 8.820312 17.550781 10.351562 14.804688 12.554688 12.554688 C 15.300781 9.808594 19.035156 8.101562 22.320312 8.101562 M 13.726562 27.449219 C 16.828125 27.449219 20.429688 25.785156 23.128906 23.128906 C 25.246094 21.015625 26.773438 18.269531 27.269531 15.570312 C 27.71875 13.140625 27.316406 11.023438 26.144531 9.855469 C 25.335938 9 23.941406 8.550781 22.320312 8.550781 C 19.171875 8.550781 15.570312 10.214844 12.914062 12.871094 C 10.800781 14.984375 9.269531 17.773438 8.773438 20.386719 C 8.324219 22.816406 8.730469 24.929688 9.898438 26.101562 C 10.753906 27 12.105469 27.449219 13.726562 27.449219 M 22.320312 7.648438 C 19.171875 7.648438 15.300781 9.179688 12.238281 12.238281 C 7.378906 17.101562 6.34375 23.894531 9.226562 26.773438 C 10.304688 27.855469 11.878906 28.351562 13.726562 28.351562 C 16.875 28.351562 20.699219 26.820312 23.761719 23.761719 C 28.621094 18.898438 29.609375 12.015625 26.773438 9.226562 C 25.738281 8.191406 24.164062 7.648438 22.320312 7.648438 Z M 22.320312 9 C 23.851562 9 25.109375 9.40625 25.828125 10.171875 C 26.863281 11.203125 27.226562 13.183594 26.820312 15.480469 C 26.324219 18.089844 24.886719 20.746094 22.816406 22.816406 C 20.25 25.378906 16.738281 27 13.726562 27 C 12.195312 27 10.933594 26.59375 10.171875 25.785156 C 9.089844 24.703125 8.730469 22.726562 9.136719 20.476562 C 9.628906 17.910156 11.070312 15.253906 13.183594 13.183594 C 15.796875 10.621094 19.261719 9 22.320312 9 Z M 22.320312 7.648438 Z M 22.320312 7.648438 "/>
<path style=" stroke:none;fill-rule:nonzero;fill:rgb(76.078433%,58.823532%,32.549021%);fill-opacity:1;" d="M 21.328125 21.824219 C 20.386719 21.824219 18.585938 20.699219 16.964844 19.078125 C 15.929688 18.046875 15.121094 17.011719 14.625 16.066406 C 14.175781 15.210938 14.085938 14.578125 14.355469 14.308594 C 14.445312 14.21875 14.578125 14.175781 14.761719 14.175781 C 15.703125 14.175781 17.503906 15.300781 19.125 16.921875 C 21.285156 19.078125 22.230469 21.195312 21.734375 21.691406 C 21.644531 21.78125 21.511719 21.824219 21.328125 21.824219 Z M 17.28125 16.875 C 17.144531 16.875 17.054688 16.921875 17.011719 16.964844 C 16.695312 17.28125 17.101562 17.953125 17.59375 18.40625 C 17.910156 18.71875 18.40625 19.078125 18.765625 19.078125 C 18.898438 19.078125 18.988281 19.035156 19.035156 18.988281 C 19.078125 18.945312 19.125 18.855469 19.125 18.71875 C 19.125 18.359375 18.765625 17.863281 18.449219 17.550781 C 18.136719 17.234375 17.640625 16.875 17.28125 16.875 Z M 17.28125 16.875 "/>
<path style=" stroke:none;fill-rule:nonzero;fill:rgb(58.823532%,47.843137%,26.666668%);fill-opacity:1;" d="M 14.761719 14.398438 C 15.523438 14.398438 17.234375 15.300781 18.988281 17.054688 C 21.285156 19.351562 21.914062 21.195312 21.601562 21.511719 C 21.511719 21.601562 21.375 21.601562 21.328125 21.601562 C 20.566406 21.601562 18.855469 20.699219 17.101562 18.945312 C 14.804688 16.648438 14.175781 14.804688 14.488281 14.488281 C 14.535156 14.398438 14.671875 14.398438 14.761719 14.398438 M 18.765625 19.351562 C 18.988281 19.351562 19.125 19.261719 19.214844 19.171875 C 19.304688 19.078125 19.394531 18.945312 19.394531 18.71875 C 19.394531 18.179688 18.808594 17.550781 18.628906 17.414062 C 18.449219 17.28125 17.820312 16.648438 17.28125 16.648438 C 17.101562 16.648438 16.964844 16.695312 16.828125 16.828125 C 16.378906 17.28125 16.828125 18.046875 17.414062 18.585938 C 17.59375 18.765625 18.226562 19.351562 18.765625 19.351562 M 14.761719 13.949219 C 14.535156 13.949219 14.308594 13.996094 14.175781 14.128906 C 13.5 14.851562 14.671875 17.101562 16.785156 19.261719 C 18.496094 20.96875 20.296875 22.050781 21.328125 22.050781 C 21.554688 22.050781 21.78125 22.003906 21.914062 21.871094 C 22.589844 21.195312 21.421875 18.898438 19.304688 16.785156 C 17.550781 15.03125 15.75 13.949219 14.761719 13.949219 Z M 18.765625 18.898438 C 18.539062 18.898438 18.136719 18.675781 17.773438 18.269531 C 17.28125 17.820312 17.054688 17.28125 17.191406 17.144531 C 17.234375 17.101562 17.28125 17.101562 17.324219 17.101562 C 17.550781 17.101562 17.953125 17.324219 18.316406 17.730469 C 18.808594 18.179688 19.035156 18.71875 18.898438 18.855469 C 18.855469 18.898438 18.808594 18.898438 18.765625 18.898438 Z M 18.765625 18.898438 "/>
<path style=" stroke:none;fill-rule:nonzero;fill:rgb(76.078433%,58.823532%,32.549021%);fill-opacity:1;" d="M 3.601562 33.976562 C 2.746094 33.976562 2.023438 33.253906 2.023438 32.398438 C 2.023438 31.546875 2.746094 30.824219 3.601562 30.824219 C 4.453125 30.824219 5.175781 31.546875 5.175781 32.398438 C 5.175781 33.253906 4.453125 33.976562 3.601562 33.976562 Z M 3.601562 33.976562 "/>
<path style=" stroke:none;fill-rule:nonzero;fill:rgb(58.823532%,47.843137%,26.666668%);fill-opacity:1;" d="M 3.601562 31.050781 C 4.363281 31.050781 4.949219 31.636719 4.949219 32.398438 C 4.949219 33.164062 4.363281 33.75 3.601562 33.75 C 2.835938 33.75 2.25 33.164062 2.25 32.398438 C 2.25 31.636719 2.835938 31.050781 3.601562 31.050781 M 3.601562 30.601562 C 2.609375 30.601562 1.800781 31.410156 1.800781 32.398438 C 1.800781 33.390625 2.609375 34.199219 3.601562 34.199219 C 4.589844 34.199219 5.398438 33.390625 5.398438 32.398438 C 5.398438 31.410156 4.589844 30.601562 3.601562 30.601562 Z M 3.601562 30.601562 "/>
<path style=" stroke:none;fill-rule:nonzero;fill:rgb(58.823532%,47.843137%,26.666668%);fill-opacity:1;" d="M 18.109375 17.242188 L 32.171875 3.175781 L 32.808594 3.8125 L 18.746094 17.878906 Z M 18.109375 17.242188 "/>
<path style=" stroke:none;fill-rule:nonzero;fill:rgb(76.078433%,58.823532%,32.549021%);fill-opacity:1;" d="M 32.398438 5.175781 C 31.546875 5.175781 30.824219 4.453125 30.824219 3.601562 C 30.824219 2.746094 31.546875 2.023438 32.398438 2.023438 C 33.253906 2.023438 33.976562 2.746094 33.976562 3.601562 C 33.976562 4.453125 33.253906 5.175781 32.398438 5.175781 Z M 32.398438 5.175781 "/>
<path style=" stroke:none;fill-rule:nonzero;fill:rgb(58.823532%,47.843137%,26.666668%);fill-opacity:1;" d="M 32.398438 2.25 C 33.164062 2.25 33.75 2.835938 33.75 3.601562 C 33.75 4.363281 33.164062 4.949219 32.398438 4.949219 C 31.636719 4.949219 31.050781 4.363281 31.050781 3.601562 C 31.050781 2.835938 31.636719 2.25 32.398438 2.25 M 32.398438 1.800781 C 31.410156 1.800781 30.601562 2.609375 30.601562 3.601562 C 30.601562 4.589844 31.410156 5.398438 32.398438 5.398438 C 33.390625 5.398438 34.199219 4.589844 34.199219 3.601562 C 34.199219 2.609375 33.390625 1.800781 32.398438 1.800781 Z M 32.398438 1.800781 "/>
<path style=" stroke:none;fill-rule:nonzero;fill:rgb(100%,93.333334%,63.921571%);fill-opacity:1;" d="M 18 33.976562 C 9.179688 33.976562 2.023438 26.820312 2.023438 18 C 2.023438 9.179688 9.179688 2.023438 18 2.023438 C 26.820312 2.023438 33.976562 9.179688 33.976562 18 C 33.976562 26.820312 26.820312 33.976562 18 33.976562 Z M 18 4.273438 C 10.441406 4.273438 4.273438 10.441406 4.273438 18 C 4.273438 25.558594 10.441406 31.726562 18 31.726562 C 25.558594 31.726562 31.726562 25.558594 31.726562 18 C 31.726562 10.441406 25.558594 4.273438 18 4.273438 Z M 18 4.273438 "/>
<path style=" stroke:none;fill-rule:nonzero;fill:rgb(96.078432%,76.078433%,46.27451%);fill-opacity:1;" d="M 18 2.25 C 26.683594 2.25 33.75 9.316406 33.75 18 C 33.75 26.683594 26.683594 33.75 18 33.75 C 9.316406 33.75 2.25 26.683594 2.25 18 C 2.25 9.316406 9.316406 2.25 18 2.25 M 18 31.949219 C 25.695312 31.949219 31.949219 25.695312 31.949219 18 C 31.949219 10.304688 25.695312 4.050781 18 4.050781 C 10.304688 4.050781 4.050781 10.304688 4.050781 18 C 4.050781 25.695312 10.304688 31.949219 18 31.949219 M 18 1.800781 C 9.046875 1.800781 1.800781 9.046875 1.800781 18 C 1.800781 26.953125 9.046875 34.199219 18 34.199219 C 26.953125 34.199219 34.199219 26.953125 34.199219 18 C 34.199219 9.046875 26.953125 1.800781 18 1.800781 Z M 18 31.5 C 10.574219 31.5 4.5 25.425781 4.5 18 C 4.5 10.574219 10.574219 4.5 18 4.5 C 25.425781 4.5 31.5 10.574219 31.5 18 C 31.5 25.425781 25.425781 31.5 18 31.5 Z M 18 31.5 "/>
<path style=" stroke:none;fill-rule:nonzero;fill:rgb(76.078433%,58.823532%,32.549021%);fill-opacity:1;" d="M 21.960938 25.199219 C 19.980469 24.210938 17.730469 22.453125 15.613281 20.339844 C 13.5 18.269531 11.789062 16.019531 10.800781 14.039062 C 10.710938 13.859375 10.621094 13.679688 10.53125 13.5 L 9.046875 13.5 C 9.179688 13.859375 9.359375 14.21875 9.585938 14.671875 C 10.664062 16.738281 12.464844 19.125 14.671875 21.328125 C 16.875 23.535156 19.261719 25.335938 21.328125 26.414062 C 21.914062 26.730469 22.453125 26.953125 22.949219 27.089844 L 22.949219 25.648438 C 22.636719 25.558594 22.320312 25.378906 21.960938 25.199219 Z M 21.960938 25.199219 "/>
<path style=" stroke:none;fill-rule:nonzero;fill:rgb(58.823532%,47.843137%,26.666668%);fill-opacity:1;" d="M 22.949219 26.640625 C 22.5 26.503906 22.050781 26.28125 21.554688 26.011719 C 19.484375 24.976562 17.191406 23.175781 14.984375 21.015625 C 12.824219 18.855469 11.023438 16.515625 9.988281 14.445312 C 9.808594 14.128906 9.675781 13.816406 9.539062 13.5 L 9.046875 13.5 C 9.179688 13.859375 9.359375 14.21875 9.585938 14.671875 C 10.664062 16.738281 12.464844 19.125 14.671875 21.328125 C 16.875 23.535156 19.261719 25.335938 21.328125 26.414062 C 21.914062 26.730469 22.453125 26.953125 22.949219 27.089844 Z M 22.949219 26.640625 "/>
<path style=" stroke:none;fill-rule:nonzero;fill:rgb(58.823532%,47.843137%,26.666668%);fill-opacity:1;" d="M 15.300781 20.699219 C 17.460938 22.859375 19.753906 24.613281 21.734375 25.605469 C 22.183594 25.828125 22.589844 26.011719 22.949219 26.144531 L 22.949219 25.648438 C 22.636719 25.515625 22.320312 25.378906 21.960938 25.199219 C 19.980469 24.210938 17.730469 22.453125 15.613281 20.339844 C 13.5 18.269531 11.789062 16.019531 10.800781 14.039062 C 10.710938 13.859375 10.621094 13.679688 10.53125 13.5 L 10.035156 13.5 C 10.125 13.726562 10.261719 13.996094 10.394531 14.265625 C 11.429688 16.246094 13.183594 18.539062 15.300781 20.699219 Z M 15.300781 20.699219 "/>
</g>
</g>

<g transform="scale(1.33333333)">    <g id="surface178">
        <path d="M27.898,35.773C23.578,35.773 20.023,32.219 20.023,27.898C20.023,23.578 23.578,20.023 27.898,20.023C32.219,20.023 35.773,23.578 35.773,27.898C35.773,32.219 32.219,35.773 27.898,35.773Z" style="fill:rgb(186,224,189);fill-rule:nonzero;"/>
        <path d="M27.898,20.25C32.129,20.25 35.551,23.672 35.551,27.898C35.551,32.129 32.129,35.551 27.898,35.551C23.672,35.551 20.25,32.129 20.25,27.898C20.25,23.672 23.672,20.25 27.898,20.25M27.898,19.801C23.445,19.801 19.801,23.445 19.801,27.898C19.801,32.355 23.445,36 27.898,36C32.355,36 36,32.355 36,27.898C36,23.445 32.355,19.801 27.898,19.801Z" style="fill:rgb(94,156,118);fill-rule:nonzero;"/>
        <rect x="27" y="23.398" width="1.801" height="9" style="fill:rgb(254,254,254);fill-rule:nonzero;"/>
        <rect x="23.398" y="27" width="9" height="1.801" style="fill:rgb(254,254,254);fill-rule:nonzero;"/>
    </g></g>
</svg>
