<?xml version="1.0" encoding="UTF-8"?>
<svg id="add-gps" xmlns="http://www.w3.org/2000/svg" xmlns:xlink="http://www.w3.org/1999/xlink" width="48" height="48" viewBox="0 0 48 48" version="1.1">
<g transform="scale(1.33333333)">
<g id="surface1752">
<path style=" stroke:none;fill-rule:nonzero;fill:rgb(72.941178%,87.843138%,74.117649%);fill-opacity:1;" d="M 27.921875 34.875 C 27.789062 34.875 27.660156 34.835938 27.546875 34.761719 L 22.757812 31.402344 L 22.515625 31.28125 L 19.652344 30.410156 C 19.550781 30.386719 19.46875 30.375 19.386719 30.375 C 18.929688 30.375 18.554688 30.605469 18.359375 31.003906 L 17.171875 33.609375 C 17.0625 33.832031 16.828125 33.976562 16.574219 33.976562 C 16.535156 33.976562 16.496094 33.972656 16.460938 33.964844 L 11.832031 33.09375 L 11.648438 33.074219 L 10.273438 33.074219 C 10.09375 33.074219 9.921875 33.003906 9.796875 32.878906 L 7.621094 30.703125 C 7.496094 30.578125 7.425781 30.40625 7.425781 30.226562 L 7.425781 28.382812 C 7.425781 28.003906 7.238281 27.65625 6.925781 27.445312 L 5.027344 26.179688 C 4.835938 26.054688 4.726562 25.84375 4.726562 25.617188 L 4.726562 22.121094 C 4.726562 21.71875 4.507812 21.347656 4.160156 21.144531 L 1.566406 19.65625 C 1.28125 19.359375 1.125 18.972656 1.125 18.5625 C 1.125 18.316406 1.179688 18.078125 1.292969 17.859375 L 3.292969 14.613281 C 3.574219 14.058594 4.113281 13.726562 4.710938 13.726562 L 6.300781 13.726562 C 6.921875 13.726562 7.425781 13.21875 7.425781 12.601562 L 7.425781 12.074219 C 7.425781 11.773438 7.308594 11.488281 7.09375 11.277344 L 6.707031 10.96875 C 6.589844 10.847656 6.515625 10.660156 6.523438 10.472656 C 6.527344 10.382812 6.550781 10.300781 6.585938 10.222656 C 6.847656 9.671875 7.527344 9.222656 8.101562 9.222656 L 26.234375 9.222656 C 26.660156 9.222656 27.074219 9.402344 27.371094 9.707031 L 29.203125 11.578125 C 29.40625 11.792969 29.699219 11.921875 30 11.925781 C 30.09375 11.925781 30.175781 11.914062 30.257812 11.898438 L 33.675781 11.042969 C 33.726562 11.03125 33.78125 11.023438 33.835938 11.023438 C 34.09375 11.023438 34.335938 11.175781 34.445312 11.410156 C 34.445312 11.410156 34.765625 12.183594 34.777344 12.214844 C 34.839844 12.382812 34.871094 12.5625 34.875 12.746094 C 34.875 12.933594 34.84375 13.121094 34.777344 13.300781 L 34.207031 15.003906 C 34.152344 15.167969 34.042969 15.304688 33.894531 15.386719 L 31.816406 16.566406 C 31.390625 16.828125 31.1875 17.324219 31.308594 17.804688 L 31.875 20.316406 C 31.945312 20.632812 32.09375 20.933594 32.304688 21.179688 L 33.820312 22.96875 C 33.917969 23.089844 33.972656 23.242188 33.972656 23.398438 C 33.972656 23.550781 33.921875 23.699219 33.828125 23.820312 L 29.660156 28.996094 C 29.367188 29.464844 29.433594 30.035156 29.804688 30.410156 L 31.070312 31.757812 C 31.214844 31.902344 31.289062 32.09375 31.273438 32.289062 C 31.257812 32.484375 31.160156 32.664062 31.003906 32.78125 C 29.9375 33.5625 28.316406 34.742188 28.234375 34.796875 C 28.148438 34.84375 28.039062 34.875 27.925781 34.875 Z M 27.921875 34.875 "/>
<path style=" stroke:none;fill-rule:nonzero;fill:rgb(36.862746%,61.176473%,46.27451%);fill-opacity:1;" d="M 26.234375 9.449219 C 26.597656 9.449219 26.953125 9.601562 27.210938 9.867188 L 29.039062 11.734375 C 29.289062 11.996094 29.636719 12.144531 30.011719 12.148438 C 30.109375 12.148438 30.210938 12.140625 30.316406 12.113281 L 33.726562 11.261719 C 33.761719 11.253906 33.800781 11.25 33.835938 11.25 C 34.007812 11.25 34.167969 11.351562 34.234375 11.488281 C 34.394531 11.878906 34.484375 12.09375 34.542969 12.214844 L 34.535156 12.21875 C 34.546875 12.242188 34.558594 12.269531 34.566406 12.292969 C 34.621094 12.441406 34.648438 12.59375 34.652344 12.75 C 34.652344 12.910156 34.625 13.074219 34.566406 13.238281 L 33.992188 14.941406 C 33.957031 15.046875 33.882812 15.136719 33.785156 15.195312 L 31.691406 16.378906 C 31.1875 16.691406 30.945312 17.285156 31.089844 17.851562 L 31.65625 20.367188 C 31.734375 20.71875 31.902344 21.050781 32.132812 21.328125 L 33.648438 23.113281 C 33.714844 23.195312 33.75 23.296875 33.75 23.398438 C 33.75 23.503906 33.714844 23.601562 33.652344 23.679688 L 29.484375 28.855469 L 29.46875 28.875 L 29.457031 28.898438 C 29.121094 29.433594 29.199219 30.121094 29.636719 30.558594 L 30.917969 31.925781 C 31.011719 32.019531 31.058594 32.140625 31.046875 32.273438 C 31.039062 32.40625 30.976562 32.523438 30.875 32.597656 C 29.851562 33.34375 28.316406 34.464844 28.125 34.601562 C 28.0625 34.632812 27.992188 34.648438 27.921875 34.648438 C 27.832031 34.648438 27.746094 34.625 27.683594 34.582031 L 22.886719 31.21875 L 22.859375 31.195312 L 22.828125 31.179688 L 22.730469 31.136719 L 22.582031 31.0625 L 22.546875 31.050781 L 19.699219 30.191406 C 19.589844 30.164062 19.484375 30.148438 19.386719 30.148438 C 18.847656 30.148438 18.390625 30.433594 18.152344 30.917969 L 16.976562 33.5 C 16.898438 33.65625 16.746094 33.75 16.570312 33.75 C 16.546875 33.75 16.523438 33.746094 16.507812 33.746094 L 11.875 32.871094 L 11.851562 32.867188 L 11.832031 32.867188 L 11.726562 32.855469 L 11.667969 32.851562 L 10.273438 32.851562 C 10.152344 32.851562 10.039062 32.804688 9.953125 32.71875 L 7.78125 30.546875 C 7.695312 30.460938 7.648438 30.347656 7.648438 30.226562 L 7.648438 28.382812 C 7.648438 27.929688 7.425781 27.507812 7.046875 27.257812 L 5.148438 25.992188 C 5.023438 25.910156 4.949219 25.769531 4.949219 25.617188 L 4.949219 22.121094 C 4.949219 21.640625 4.691406 21.191406 4.273438 20.949219 L 1.707031 19.476562 C 1.476562 19.226562 1.351562 18.90625 1.351562 18.5625 C 1.351562 18.359375 1.394531 18.160156 1.484375 17.976562 L 3.484375 14.730469 L 3.496094 14.714844 L 3.503906 14.695312 C 3.734375 14.234375 4.199219 13.949219 4.710938 13.949219 L 6.300781 13.949219 C 7.042969 13.949219 7.648438 13.34375 7.648438 12.601562 L 7.648438 12.074219 C 7.648438 11.710938 7.507812 11.371094 7.253906 11.117188 L 7.234375 11.101562 L 7.214844 11.082031 L 6.871094 10.8125 C 6.789062 10.722656 6.746094 10.601562 6.75 10.480469 C 6.75 10.425781 6.765625 10.371094 6.789062 10.320312 C 7.019531 9.839844 7.605469 9.449219 8.101562 9.449219 L 26.234375 9.449219 M 26.234375 9 L 8.101562 9 C 7.429688 9 6.679688 9.5 6.382812 10.125 C 6.332031 10.234375 6.304688 10.347656 6.300781 10.460938 C 6.289062 10.710938 6.382812 10.960938 6.566406 11.144531 L 6.9375 11.4375 C 7.105469 11.605469 7.199219 11.835938 7.199219 12.074219 L 7.199219 12.601562 C 7.199219 13.097656 6.796875 13.5 6.300781 13.5 L 4.710938 13.5 C 4.03125 13.5 3.40625 13.886719 3.101562 14.496094 L 1.089844 17.757812 C 0.960938 18.015625 0.898438 18.289062 0.898438 18.5625 C 0.898438 19.03125 1.082031 19.492188 1.425781 19.835938 L 4.046875 21.339844 C 4.328125 21.5 4.5 21.800781 4.5 22.121094 L 4.5 25.617188 C 4.5 25.917969 4.648438 26.199219 4.902344 26.367188 L 6.800781 27.632812 C 7.050781 27.800781 7.199219 28.082031 7.199219 28.382812 L 7.199219 30.226562 C 7.199219 30.464844 7.296875 30.695312 7.464844 30.863281 L 9.636719 33.035156 C 9.804688 33.203125 10.035156 33.300781 10.273438 33.300781 L 11.625 33.300781 C 11.679688 33.304688 11.734375 33.308594 11.789062 33.316406 L 16.425781 34.1875 C 16.472656 34.195312 16.523438 34.199219 16.570312 34.199219 C 16.570312 34.199219 16.574219 34.199219 16.574219 34.199219 C 16.910156 34.199219 17.222656 34.011719 17.378906 33.703125 L 18.5625 31.105469 C 18.71875 30.785156 19.011719 30.601562 19.386719 30.601562 C 19.453125 30.601562 19.519531 30.609375 19.589844 30.628906 L 22.417969 31.484375 C 22.488281 31.515625 22.558594 31.550781 22.628906 31.585938 L 27.421875 34.949219 C 27.574219 35.050781 27.75 35.101562 27.921875 35.101562 C 27.921875 35.101562 27.925781 35.101562 27.925781 35.101562 C 28.074219 35.097656 28.222656 35.0625 28.359375 34.988281 C 28.394531 34.96875 31.140625 32.960938 31.140625 32.960938 C 31.578125 32.632812 31.625 31.992188 31.234375 31.605469 L 29.964844 30.25 C 29.667969 29.953125 29.613281 29.492188 29.835938 29.136719 L 34.003906 23.960938 C 34.132812 23.796875 34.199219 23.597656 34.199219 23.398438 C 34.199219 23.195312 34.132812 22.992188 33.992188 22.828125 L 32.476562 21.039062 C 32.289062 20.816406 32.160156 20.550781 32.09375 20.269531 L 31.527344 17.75 C 31.429688 17.371094 31.59375 16.96875 31.929688 16.761719 L 34.007812 15.585938 C 34.203125 15.472656 34.351562 15.292969 34.417969 15.078125 L 34.992188 13.378906 C 35.066406 13.175781 35.101562 12.957031 35.101562 12.742188 C 35.097656 12.539062 35.058594 12.332031 34.988281 12.136719 C 34.976562 12.105469 34.960938 12.070312 34.949219 12.039062 L 34.648438 11.316406 C 34.5 10.996094 34.179688 10.800781 33.835938 10.800781 C 33.765625 10.800781 33.691406 10.808594 33.621094 10.824219 L 30.207031 11.679688 C 30.144531 11.691406 30.078125 11.699219 30.011719 11.699219 C 30.007812 11.699219 30.007812 11.699219 30.003906 11.699219 C 29.765625 11.699219 29.53125 11.601562 29.363281 11.421875 L 27.53125 9.554688 C 27.191406 9.199219 26.722656 9 26.234375 9 Z M 26.234375 9 "/>
<path style=" stroke:none;fill-rule:nonzero;fill:rgb(36.862746%,61.176473%,46.27451%);fill-opacity:1;" d="M 12.601562 19.800781 C 11.605469 19.800781 10.800781 20.605469 10.800781 21.601562 C 10.800781 22.59375 11.605469 23.398438 12.601562 23.398438 C 13.59375 23.398438 14.398438 22.59375 14.398438 21.601562 C 14.398438 20.605469 13.59375 19.800781 12.601562 19.800781 Z M 12.601562 19.800781 "/>
<path style=" stroke:none;fill-rule:nonzero;fill:rgb(96.862745%,56.078434%,56.078434%);fill-opacity:1;" d="M 18.898438 18.5625 C 16.945312 16.386719 12.824219 11.316406 12.824219 7.199219 C 12.824219 3.851562 15.550781 1.125 18.898438 1.125 C 22.25 1.125 24.976562 3.851562 24.976562 7.199219 C 24.976562 11.292969 20.855469 16.382812 18.898438 18.5625 Z M 18.898438 5.175781 C 17.785156 5.175781 16.875 6.082031 16.875 7.199219 C 16.875 8.316406 17.785156 9.226562 18.898438 9.226562 C 20.015625 9.226562 20.925781 8.316406 20.925781 7.199219 C 20.925781 6.082031 20.015625 5.175781 18.898438 5.175781 Z M 18.898438 5.175781 "/>
<path style=" stroke:none;fill-rule:nonzero;fill:rgb(78.039217%,26.274511%,26.274511%);fill-opacity:1;" d="M 18.898438 1.351562 C 22.125 1.351562 24.75 3.972656 24.75 7.199219 C 24.75 11.105469 20.894531 15.972656 18.898438 18.226562 C 16.902344 15.976562 13.050781 11.125 13.050781 7.199219 C 13.050781 3.972656 15.675781 1.351562 18.898438 1.351562 M 18.898438 9.449219 C 20.140625 9.449219 21.148438 8.441406 21.148438 7.199219 C 21.148438 5.960938 20.140625 4.949219 18.898438 4.949219 C 17.660156 4.949219 16.648438 5.960938 16.648438 7.199219 C 16.648438 8.441406 17.660156 9.449219 18.898438 9.449219 M 18.898438 0.898438 C 15.421875 0.898438 12.601562 3.71875 12.601562 7.199219 C 12.601562 11.914062 17.839844 17.734375 18.898438 18.898438 C 19.960938 17.730469 25.199219 11.890625 25.199219 7.199219 C 25.199219 3.71875 22.378906 0.898438 18.898438 0.898438 Z M 18.898438 9 C 17.90625 9 17.101562 8.191406 17.101562 7.199219 C 17.101562 6.207031 17.90625 5.398438 18.898438 5.398438 C 19.890625 5.398438 20.699219 6.207031 20.699219 7.199219 C 20.699219 8.191406 19.890625 9 18.898438 9 Z M 18.898438 9 "/>
</g>
</g>

<g transform="scale(1.33333333)">    <g id="surface178">
        <path d="M27.898,35.773C23.578,35.773 20.023,32.219 20.023,27.898C20.023,23.578 23.578,20.023 27.898,20.023C32.219,20.023 35.773,23.578 35.773,27.898C35.773,32.219 32.219,35.773 27.898,35.773Z" style="fill:rgb(186,224,189);fill-rule:nonzero;"/>
        <path d="M27.898,20.25C32.129,20.25 35.551,23.672 35.551,27.898C35.551,32.129 32.129,35.551 27.898,35.551C23.672,35.551 20.25,32.129 20.25,27.898C20.25,23.672 23.672,20.25 27.898,20.25M27.898,19.801C23.445,19.801 19.801,23.445 19.801,27.898C19.801,32.355 23.445,36 27.898,36C32.355,36 36,32.355 36,27.898C36,23.445 32.355,19.801 27.898,19.801Z" style="fill:rgb(94,156,118);fill-rule:nonzero;"/>
        <rect x="27" y="23.398" width="1.801" height="9" style="fill:rgb(254,254,254);fill-rule:nonzero;"/>
        <rect x="23.398" y="27" width="9" height="1.801" style="fill:rgb(254,254,254);fill-rule:nonzero;"/>
    </g></g>
</svg>
