<?xml version="1.0" encoding="UTF-8"?>
<svg xmlns="http://www.w3.org/2000/svg" xmlns:xlink="http://www.w3.org/1999/xlink" width="48" height="48" viewBox="0 0 48 48" version="1.1">
<g transform="scale(1.33333333)">
<g id="surface2289">
<path style=" stroke:none;fill-rule:nonzero;fill:rgb(85.882354%,69.01961%,39.607844%);fill-opacity:1;" d="M 1.125 32.175781 L 1.125 3.824219 L 10.710938 3.824219 L 13.410156 6.523438 L 34.875 6.523438 L 34.875 30.601562 C 34.875 31.453125 34.15625 32.175781 33.300781 32.175781 Z M 1.125 32.175781 "/>
<path style=" stroke:none;fill-rule:nonzero;fill:rgb(58.823532%,47.843137%,26.666668%);fill-opacity:1;" d="M 10.621094 4.050781 L 13.320312 6.75 L 34.648438 6.75 L 34.648438 30.601562 C 34.648438 31.363281 34.066406 31.949219 33.300781 31.949219 L 1.351562 31.949219 L 1.351562 4.050781 L 10.621094 4.050781 M 10.800781 3.601562 L 0.898438 3.601562 L 0.898438 32.398438 L 33.300781 32.398438 C 34.289062 32.398438 35.101562 31.589844 35.101562 30.601562 L 35.101562 6.300781 L 13.5 6.300781 Z M 10.800781 3.601562 "/>
<path style=" stroke:none;fill-rule:nonzero;fill:rgb(96.078432%,80.784315%,52.156866%);fill-opacity:1;" d="M 1.125 32.175781 L 1.125 8.324219 L 10.890625 8.324219 L 13.589844 6.523438 L 34.875 6.523438 L 34.875 30.601562 C 34.875 31.453125 34.15625 32.175781 33.300781 32.175781 Z M 1.125 32.175781 "/>
<path style=" stroke:none;fill-rule:nonzero;fill:rgb(58.823532%,47.843137%,26.666668%);fill-opacity:1;" d="M 34.648438 6.75 L 34.648438 30.601562 C 34.648438 31.363281 34.066406 31.949219 33.300781 31.949219 L 1.351562 31.949219 L 1.351562 8.550781 L 10.933594 8.550781 L 11.070312 8.460938 L 13.636719 6.75 L 34.648438 6.75 M 35.101562 6.300781 L 13.5 6.300781 L 10.800781 8.101562 L 0.898438 8.101562 L 0.898438 32.398438 L 33.300781 32.398438 C 34.289062 32.398438 35.101562 31.589844 35.101562 30.601562 Z M 35.101562 6.300781 "/>
<path style=" stroke:none;fill-rule:nonzero;fill:rgb(72.941178%,87.843138%,74.117649%);fill-opacity:1;" d="M 27.898438 35.773438 C 23.578125 35.773438 20.023438 32.21875 20.023438 27.898438 C 20.023438 23.578125 23.578125 20.023438 27.898438 20.023438 C 32.21875 20.023438 35.773438 23.578125 35.773438 27.898438 C 35.773438 32.21875 32.21875 35.773438 27.898438 35.773438 Z M 27.898438 35.773438 "/>
<path style=" stroke:none;fill-rule:nonzero;fill:rgb(36.862746%,61.176473%,46.27451%);fill-opacity:1;" d="M 27.898438 20.25 C 32.128906 20.25 35.550781 23.671875 35.550781 27.898438 C 35.550781 32.128906 32.128906 35.550781 27.898438 35.550781 C 23.671875 35.550781 20.25 32.128906 20.25 27.898438 C 20.25 23.671875 23.671875 20.25 27.898438 20.25 M 27.898438 19.800781 C 23.445312 19.800781 19.800781 23.445312 19.800781 27.898438 C 19.800781 32.355469 23.445312 36 27.898438 36 C 32.355469 36 36 32.355469 36 27.898438 C 36 23.445312 32.355469 19.800781 27.898438 19.800781 Z M 27.898438 19.800781 "/>
<path style=" stroke:none;fill-rule:nonzero;fill:rgb(100%,100%,100%);fill-opacity:1;" d="M 27 23.398438 L 28.800781 23.398438 L 28.800781 32.398438 L 27 32.398438 Z M 27 23.398438 "/>
<path style=" stroke:none;fill-rule:nonzero;fill:rgb(100%,100%,100%);fill-opacity:1;" d="M 23.398438 27 L 32.398438 27 L 32.398438 28.800781 L 23.398438 28.800781 Z M 23.398438 27 "/>
</g>
</g>
</svg>
