<?xml version="1.0" encoding="UTF-8"?>
<svg id="add-webview" xmlns="http://www.w3.org/2000/svg" xmlns:xlink="http://www.w3.org/1999/xlink" width="48" height="48" viewBox="0 0 48 48" version="1.1">
<g transform="scale(1.33333333)">
<g id="surface2102">
<path style=" stroke:none;fill-rule:nonzero;fill:rgb(75.686276%,89.019608%,96.862745%);fill-opacity:1;" d="M 35.101562 18 C 35.101562 27.519531 27.34375 35.101562 18 35.101562 C 8.65625 35.101562 0.898438 27.519531 0.898438 18 C 0.898438 8.480469 8.480469 0.898438 18 0.898438 C 27.519531 0.898438 35.101562 8.480469 35.101562 18 Z M 35.101562 18 "/>
<path style=" stroke:none;fill-rule:nonzero;fill:rgb(44.705883%,56.470591%,73.333335%);fill-opacity:1;" d="M 27.265625 31.828125 C 24.613281 33.609375 21.425781 34.648438 18 34.648438 C 8.820312 34.648438 1.351562 27.179688 1.351562 18 C 1.351562 13.515625 3.070312 9.324219 6.199219 6.199219 C 9.324219 3.070312 13.515625 1.351562 18 1.351562 C 22.484375 1.351562 26.675781 3.070312 29.800781 6.199219 C 32.929688 9.324219 34.648438 13.515625 34.648438 18 C 34.648438 21.644531 33.46875 25.019531 31.472656 27.765625 L 31.796875 28.089844 C 33.867188 25.269531 35.101562 21.789062 35.101562 18 C 35.101562 8.480469 27.519531 0.898438 18 0.898438 C 8.480469 0.898438 0.898438 8.480469 0.898438 18 C 0.898438 27.519531 8.65625 35.101562 18 35.101562 C 21.535156 35.101562 24.839844 34.015625 27.585938 32.148438 Z M 27.265625 31.828125 "/>
<path style=" stroke:none;fill-rule:nonzero;fill:rgb(44.705883%,56.470591%,73.333335%);fill-opacity:1;" d="M 1.351562 20.25 L 19.800781 20.25 L 19.800781 20.699219 L 1.351562 20.699219 Z M 1.351562 15.300781 L 34.648438 15.300781 L 34.648438 15.75 L 1.351562 15.75 Z M 2.699219 25.199219 L 19.800781 25.199219 L 19.800781 25.648438 L 2.699219 25.648438 Z M 6.523438 30.148438 L 19.800781 30.148438 L 19.800781 30.601562 L 6.523438 30.601562 Z M 2.699219 10.351562 L 33.300781 10.351562 L 33.300781 10.800781 L 2.699219 10.800781 Z M 6.300781 5.398438 L 29.699219 5.398438 L 29.699219 5.851562 L 6.300781 5.851562 Z M 6.300781 5.398438 "/>
<path style=" stroke:none;fill-rule:nonzero;fill:rgb(39.215687%,46.666667%,54.901963%);fill-opacity:1;" d="M 24.023438 27.324219 L 20.925781 30.496094 L 20.925781 21.375 L 30.046875 21.375 L 26.886719 24.460938 L 35.261719 32.820312 L 32.398438 35.683594 Z M 24.023438 27.324219 "/>
<path style=" stroke:none;fill-rule:nonzero;fill:rgb(21.176471%,25.098041%,29.803923%);fill-opacity:1;" d="M 29.496094 21.601562 L 26.894531 24.140625 L 26.566406 24.457031 L 26.890625 24.78125 L 34.945312 32.820312 L 32.398438 35.363281 L 24.34375 27.324219 L 24.023438 27.003906 L 23.703125 27.328125 L 21.148438 29.945312 L 21.148438 21.601562 L 29.496094 21.601562 M 30.601562 21.148438 L 20.699219 21.148438 L 20.699219 31.050781 L 24.027344 27.644531 L 32.398438 36 L 35.582031 32.816406 L 27.207031 24.460938 Z M 30.601562 21.148438 "/>
<path style=" stroke:none;fill-rule:nonzero;fill:rgb(44.705883%,56.470591%,73.333335%);fill-opacity:1;" d="M 19.800781 32.730469 C 19.226562 33.96875 18.601562 34.648438 17.996094 34.648438 C 16.082031 34.648438 13.945312 27.8125 13.945312 18 C 13.945312 8.1875 16.082031 1.351562 17.996094 1.351562 C 19.910156 1.351562 22.046875 8.1875 22.046875 18 C 22.046875 18.769531 22.03125 19.519531 22.007812 20.25 L 22.457031 20.25 C 22.480469 19.511719 22.496094 18.761719 22.496094 18 C 22.496094 8.554688 20.480469 0.898438 17.996094 0.898438 C 15.511719 0.898438 13.5 8.554688 13.5 18 C 13.5 27.445312 15.511719 35.101562 17.996094 35.101562 C 18.636719 35.101562 19.246094 34.585938 19.800781 33.667969 Z M 19.800781 32.730469 "/>
<path style=" stroke:none;fill-rule:nonzero;fill:rgb(44.705883%,56.470591%,73.333335%);fill-opacity:1;" d="M 19.800781 34.59375 C 19.210938 34.734375 18.609375 34.648438 17.996094 34.648438 C 11.792969 34.648438 6.746094 27.179688 6.746094 18 C 6.746094 8.820312 11.792969 1.351562 17.996094 1.351562 C 24.199219 1.351562 29.246094 8.820312 29.246094 18 C 29.246094 18.761719 29.207031 19.511719 29.140625 20.25 L 29.589844 20.25 C 29.65625 19.511719 29.695312 18.761719 29.695312 18 C 29.695312 8.554688 24.457031 0.898438 17.996094 0.898438 C 11.535156 0.898438 6.300781 8.554688 6.300781 18 C 6.300781 27.445312 11.535156 35.101562 17.996094 35.101562 C 18.609375 35.101562 19.210938 35.03125 19.800781 34.898438 Z M 19.800781 34.59375 "/>
</g>
</g>

<g transform="scale(1.33333333)">    <g id="surface178">
        <path d="M27.898,35.773C23.578,35.773 20.023,32.219 20.023,27.898C20.023,23.578 23.578,20.023 27.898,20.023C32.219,20.023 35.773,23.578 35.773,27.898C35.773,32.219 32.219,35.773 27.898,35.773Z" style="fill:rgb(186,224,189);fill-rule:nonzero;"/>
        <path d="M27.898,20.25C32.129,20.25 35.551,23.672 35.551,27.898C35.551,32.129 32.129,35.551 27.898,35.551C23.672,35.551 20.25,32.129 20.25,27.898C20.25,23.672 23.672,20.25 27.898,20.25M27.898,19.801C23.445,19.801 19.801,23.445 19.801,27.898C19.801,32.355 23.445,36 27.898,36C32.355,36 36,32.355 36,27.898C36,23.445 32.355,19.801 27.898,19.801Z" style="fill:rgb(94,156,118);fill-rule:nonzero;"/>
        <rect x="27" y="23.398" width="1.801" height="9" style="fill:rgb(254,254,254);fill-rule:nonzero;"/>
        <rect x="23.398" y="27" width="9" height="1.801" style="fill:rgb(254,254,254);fill-rule:nonzero;"/>
    </g></g>
</svg>
