<?xml version="1.0" encoding="UTF-8"?>
<svg id="add-meter" xmlns="http://www.w3.org/2000/svg" xmlns:xlink="http://www.w3.org/1999/xlink" width="48" height="48" viewBox="0 0 48 48" version="1.1">
<g transform="scale(1.33333333)">
<g id="surface1734">
<path style=" stroke:none;fill-rule:nonzero;fill:rgb(100%,100%,100%);fill-opacity:1;" d="M 3.824219 31.273438 C 1.753906 28.351562 0.675781 24.929688 0.675781 21.375 C 0.675781 11.925781 8.324219 4.273438 17.773438 4.273438 C 27.226562 4.273438 34.875 11.925781 34.875 21.375 C 34.875 24.929688 33.796875 28.351562 31.726562 31.273438 Z M 3.824219 31.273438 "/>
<path style=" stroke:none;fill-rule:nonzero;fill:rgb(30.588236%,47.843137%,70.980394%);fill-opacity:1;" d="M 17.773438 4.5 C 27.089844 4.5 34.648438 12.058594 34.648438 21.375 C 34.648438 24.886719 33.613281 28.214844 31.589844 31.050781 L 3.960938 31.050781 C 1.933594 28.214844 0.898438 24.886719 0.898438 21.375 C 0.898438 12.058594 8.460938 4.5 17.773438 4.5 M 17.773438 4.050781 C 8.191406 4.050781 0.449219 11.789062 0.449219 21.375 C 0.449219 25.15625 1.664062 28.664062 3.734375 31.5 L 31.859375 31.5 C 33.929688 28.664062 35.144531 25.15625 35.144531 21.375 C 35.101562 11.789062 27.359375 4.050781 17.773438 4.050781 Z M 17.773438 4.050781 "/>
<path style=" stroke:none;fill-rule:nonzero;fill:rgb(71.372551%,78.823531%,83.92157%);fill-opacity:1;" d="M 13.5 26.550781 L 22.050781 26.550781 L 22.050781 27.449219 L 13.5 27.449219 Z M 13.5 26.550781 "/>
<path style=" stroke:none;fill-rule:nonzero;fill:rgb(78.039217%,26.274511%,26.274511%);fill-opacity:1;" d="M 17.234375 21.289062 L 26.78125 11.742188 L 27.417969 12.378906 L 17.871094 21.925781 Z M 17.234375 21.289062 "/>
<path style=" stroke:none;fill-rule:nonzero;fill:rgb(96.862745%,56.078434%,56.078434%);fill-opacity:1;" d="M 17.773438 20.476562 C 17.277344 20.476562 16.875 20.878906 16.875 21.375 C 16.875 21.871094 17.277344 22.273438 17.773438 22.273438 C 18.273438 22.273438 18.675781 21.871094 18.675781 21.375 C 18.675781 20.878906 18.273438 20.476562 17.773438 20.476562 Z M 17.773438 20.476562 "/>
<path style=" stroke:none;fill-rule:nonzero;fill:rgb(78.039217%,26.274511%,26.274511%);fill-opacity:1;" d="M 17.773438 20.699219 C 18.136719 20.699219 18.449219 21.015625 18.449219 21.375 C 18.449219 21.734375 18.136719 22.050781 17.773438 22.050781 C 17.414062 22.050781 17.101562 21.734375 17.101562 21.375 C 17.101562 21.015625 17.414062 20.699219 17.773438 20.699219 M 17.773438 20.25 C 17.144531 20.25 16.648438 20.746094 16.648438 21.375 C 16.648438 22.003906 17.144531 22.5 17.773438 22.5 C 18.40625 22.5 18.898438 22.003906 18.898438 21.375 C 18.898438 20.746094 18.40625 20.25 17.773438 20.25 Z M 17.773438 20.25 "/>
<path style=" stroke:none;fill-rule:nonzero;fill:rgb(40.000001%,47.450981%,56.078434%);fill-opacity:1;" d="M 18 4.5 C 17.910156 4.5 17.863281 4.5 17.773438 4.5 C 17.683594 4.5 17.640625 4.5 17.550781 4.5 L 17.550781 6.75 L 18 6.75 Z M 32.398438 21.601562 L 34.648438 21.601562 C 34.648438 21.511719 34.648438 21.464844 34.648438 21.375 C 34.648438 21.285156 34.648438 21.238281 34.648438 21.148438 L 32.398438 21.148438 Z M 32.488281 29.609375 L 30.554688 28.484375 L 30.328125 28.890625 L 32.265625 30.015625 C 32.355469 29.878906 32.398438 29.746094 32.488281 29.609375 Z M 0.898438 21.601562 L 3.148438 21.601562 L 3.148438 21.148438 L 0.898438 21.148438 C 0.898438 21.238281 0.898438 21.285156 0.898438 21.375 C 0.898438 21.464844 0.898438 21.511719 0.898438 21.601562 Z M 3.285156 30.015625 L 5.21875 28.890625 L 4.996094 28.484375 L 3.058594 29.609375 C 3.148438 29.746094 3.195312 29.878906 3.285156 30.015625 Z M 26.414062 6.886719 C 26.28125 6.796875 26.144531 6.75 26.011719 6.660156 L 24.886719 8.59375 L 25.289062 8.820312 Z M 4.996094 14.265625 L 5.21875 13.859375 L 3.285156 12.734375 C 3.195312 12.871094 3.148438 13.003906 3.058594 13.140625 Z M 32.265625 12.734375 L 30.328125 13.859375 L 30.554688 14.265625 L 32.488281 13.140625 C 32.398438 13.003906 32.355469 12.871094 32.265625 12.734375 Z M 10.261719 8.820312 L 10.664062 8.59375 L 9.539062 6.660156 C 9.40625 6.75 9.269531 6.796875 9.136719 6.886719 Z M 10.261719 8.820312 "/>
</g>
</g>

<g transform="scale(1.33333333)">    <g id="surface178">
        <path d="M27.898,35.773C23.578,35.773 20.023,32.219 20.023,27.898C20.023,23.578 23.578,20.023 27.898,20.023C32.219,20.023 35.773,23.578 35.773,27.898C35.773,32.219 32.219,35.773 27.898,35.773Z" style="fill:rgb(186,224,189);fill-rule:nonzero;"/>
        <path d="M27.898,20.25C32.129,20.25 35.551,23.672 35.551,27.898C35.551,32.129 32.129,35.551 27.898,35.551C23.672,35.551 20.25,32.129 20.25,27.898C20.25,23.672 23.672,20.25 27.898,20.25M27.898,19.801C23.445,19.801 19.801,23.445 19.801,27.898C19.801,32.355 23.445,36 27.898,36C32.355,36 36,32.355 36,27.898C36,23.445 32.355,19.801 27.898,19.801Z" style="fill:rgb(94,156,118);fill-rule:nonzero;"/>
        <rect x="27" y="23.398" width="1.801" height="9" style="fill:rgb(254,254,254);fill-rule:nonzero;"/>
        <rect x="23.398" y="27" width="9" height="1.801" style="fill:rgb(254,254,254);fill-rule:nonzero;"/>
    </g></g>
</svg>
