<?xml version="1.0" encoding="UTF-8"?>
<svg id="add-fft" xmlns="http://www.w3.org/2000/svg" xmlns:xlink="http://www.w3.org/1999/xlink" width="48" height="48" viewBox="0 0 48 48" version="1.1">
<g transform="scale(1.33333333)">
<g id="surface1635">
<path style="fill-rule:nonzero;fill:rgb(54.509807%,71.764708%,94.117647%);fill-opacity:1;stroke-width:1;stroke-linecap:butt;stroke-linejoin:miter;stroke:rgb(30.588236%,47.843137%,70.980394%);stroke-opacity:1;stroke-miterlimit:4;" d="M 37.5 35.503472 L 42.5 35.503472 L 42.5 44.496528 L 37.5 44.496528 Z M 37.5 35.503472 " transform="matrix(0.45,0,0,0.45,0,0)"/>
<path style="fill-rule:nonzero;fill:rgb(54.509807%,71.764708%,94.117647%);fill-opacity:1;stroke-width:1;stroke-linecap:butt;stroke-linejoin:miter;stroke:rgb(30.588236%,47.843137%,70.980394%);stroke-opacity:1;stroke-miterlimit:4;" d="M 29.496528 27.5 L 34.496528 27.5 L 34.496528 52.5 L 29.496528 52.5 Z M 29.496528 27.5 " transform="matrix(0.45,0,0,0.45,0,0)"/>
<path style="fill-rule:nonzero;fill:rgb(54.509807%,71.764708%,94.117647%);fill-opacity:1;stroke-width:1;stroke-linecap:butt;stroke-linejoin:miter;stroke:rgb(30.588236%,47.843137%,70.980394%);stroke-opacity:1;stroke-miterlimit:4;" d="M 13.498264 26.501736 L 18.498264 26.501736 L 18.498264 53.498264 L 13.498264 53.498264 Z M 13.498264 26.501736 " transform="matrix(0.45,0,0,0.45,0,0)"/>
<path style="fill-rule:nonzero;fill:rgb(54.509807%,71.764708%,94.117647%);fill-opacity:1;stroke-width:1;stroke-linecap:butt;stroke-linejoin:miter;stroke:rgb(30.588236%,47.843137%,70.980394%);stroke-opacity:1;stroke-miterlimit:4;" d="M 5.503472 35.503472 L 10.503472 35.503472 L 10.503472 44.496528 L 5.503472 44.496528 Z M 5.503472 35.503472 " transform="matrix(0.45,0,0,0.45,0,0)"/>
<path style="fill-rule:nonzero;fill:rgb(54.509807%,71.764708%,94.117647%);fill-opacity:1;stroke-width:1;stroke-linecap:butt;stroke-linejoin:miter;stroke:rgb(30.588236%,47.843137%,70.980394%);stroke-opacity:1;stroke-miterlimit:4;" d="M 21.501736 13.498264 L 26.501736 13.498264 L 26.501736 66.501736 L 21.501736 66.501736 Z M 21.501736 13.498264 " transform="matrix(0.45,0,0,0.45,0,0)"/>
<path style="fill-rule:nonzero;fill:rgb(54.509807%,71.764708%,94.117647%);fill-opacity:1;stroke-width:1;stroke-linecap:butt;stroke-linejoin:miter;stroke:rgb(30.588236%,47.843137%,70.980394%);stroke-opacity:1;stroke-miterlimit:4;" d="M 45.503472 27.5 L 50.503472 27.5 L 50.503472 52.5 L 45.503472 52.5 Z M 45.503472 27.5 " transform="matrix(0.45,0,0,0.45,0,0)"/>
<path style="fill-rule:nonzero;fill:rgb(54.509807%,71.764708%,94.117647%);fill-opacity:1;stroke-width:1;stroke-linecap:butt;stroke-linejoin:miter;stroke:rgb(30.588236%,47.843137%,70.980394%);stroke-opacity:1;stroke-miterlimit:4;" d="M 61.501736 26.501736 L 66.501736 26.501736 L 66.501736 53.498264 L 61.501736 53.498264 Z M 61.501736 26.501736 " transform="matrix(0.45,0,0,0.45,0,0)"/>
<path style="fill-rule:nonzero;fill:rgb(54.509807%,71.764708%,94.117647%);fill-opacity:1;stroke-width:1;stroke-linecap:butt;stroke-linejoin:miter;stroke:rgb(30.588236%,47.843137%,70.980394%);stroke-opacity:1;stroke-miterlimit:4;" d="M 69.496528 35.503472 L 74.496528 35.503472 L 74.496528 44.496528 L 69.496528 44.496528 Z M 69.496528 35.503472 " transform="matrix(0.45,0,0,0.45,0,0)"/>
<path style="fill-rule:nonzero;fill:rgb(54.509807%,71.764708%,94.117647%);fill-opacity:1;stroke-width:1;stroke-linecap:butt;stroke-linejoin:miter;stroke:rgb(30.588236%,47.843137%,70.980394%);stroke-opacity:1;stroke-miterlimit:4;" d="M 53.498264 13.498264 L 58.498264 13.498264 L 58.498264 66.501736 L 53.498264 66.501736 Z M 53.498264 13.498264 " transform="matrix(0.45,0,0,0.45,0,0)"/>
</g>
</g>

<g transform="scale(1.33333333)">    <g id="surface178">
        <path d="M27.898,35.773C23.578,35.773 20.023,32.219 20.023,27.898C20.023,23.578 23.578,20.023 27.898,20.023C32.219,20.023 35.773,23.578 35.773,27.898C35.773,32.219 32.219,35.773 27.898,35.773Z" style="fill:rgb(186,224,189);fill-rule:nonzero;"/>
        <path d="M27.898,20.25C32.129,20.25 35.551,23.672 35.551,27.898C35.551,32.129 32.129,35.551 27.898,35.551C23.672,35.551 20.25,32.129 20.25,27.898C20.25,23.672 23.672,20.25 27.898,20.25M27.898,19.801C23.445,19.801 19.801,23.445 19.801,27.898C19.801,32.355 23.445,36 27.898,36C32.355,36 36,32.355 36,27.898C36,23.445 32.355,19.801 27.898,19.801Z" style="fill:rgb(94,156,118);fill-rule:nonzero;"/>
        <rect x="27" y="23.398" width="1.801" height="9" style="fill:rgb(254,254,254);fill-rule:nonzero;"/>
        <rect x="23.398" y="27" width="9" height="1.801" style="fill:rgb(254,254,254);fill-rule:nonzero;"/>
    </g></g>
</svg>
