<?xml version="1.0" encoding="UTF-8"?>
<svg id="add-group" xmlns="http://www.w3.org/2000/svg" xmlns:xlink="http://www.w3.org/1999/xlink" width="48" height="48" viewBox="0 0 48 48" version="1.1">
<g transform="scale(1.33333333)">
<g id="surface1802">
<path style=" stroke:none;fill-rule:nonzero;fill:rgb(86.274511%,83.529413%,94.901961%);fill-opacity:1;" d="M 16.425781 16.425781 L 26.773438 16.425781 L 26.773438 26.773438 L 16.425781 26.773438 Z M 16.425781 16.425781 "/>
<path style=" stroke:none;fill-rule:nonzero;fill:rgb(54.509807%,45.882353%,63.137257%);fill-opacity:1;" d="M 26.550781 16.648438 L 26.550781 26.550781 L 16.648438 26.550781 L 16.648438 16.648438 L 26.550781 16.648438 M 27 16.199219 L 16.199219 16.199219 L 16.199219 27 L 27 27 Z M 27 16.199219 "/>
<path style=" stroke:none;fill-rule:nonzero;fill:rgb(94.901961%,98.039216%,100%);fill-opacity:1;" d="M 9.226562 9.226562 L 19.574219 9.226562 L 19.574219 19.574219 L 9.226562 19.574219 Z M 9.226562 9.226562 "/>
<path style=" stroke:none;fill-rule:nonzero;fill:rgb(47.058824%,54.509807%,61.176473%);fill-opacity:1;" d="M 19.351562 9.449219 L 19.351562 19.351562 L 9.449219 19.351562 L 9.449219 9.449219 L 19.351562 9.449219 M 19.800781 9 L 9 9 L 9 19.800781 L 19.800781 19.800781 Z M 19.800781 9 "/>
<path style=" stroke:none;fill-rule:nonzero;fill:rgb(40.000001%,47.450981%,56.078434%);fill-opacity:1;" d="M 32.851562 3.148438 L 32.851562 32.851562 L 3.148438 32.851562 L 3.148438 3.148438 L 32.851562 3.148438 M 33.300781 2.699219 L 2.699219 2.699219 L 2.699219 33.300781 L 33.300781 33.300781 Z M 33.300781 2.699219 "/>
<path style=" stroke:none;fill-rule:nonzero;fill:rgb(54.509807%,71.764708%,94.117647%);fill-opacity:1;" d="M 31.273438 1.125 L 34.875 1.125 L 34.875 4.726562 L 31.273438 4.726562 Z M 31.273438 1.125 "/>
<path style=" stroke:none;fill-rule:nonzero;fill:rgb(30.588236%,47.843137%,70.980394%);fill-opacity:1;" d="M 34.648438 1.351562 L 34.648438 4.5 L 31.5 4.5 L 31.5 1.351562 L 34.648438 1.351562 M 35.101562 0.898438 L 31.050781 0.898438 L 31.050781 4.949219 L 35.101562 4.949219 Z M 35.101562 0.898438 "/>
<path style=" stroke:none;fill-rule:nonzero;fill:rgb(54.509807%,71.764708%,94.117647%);fill-opacity:1;" d="M 1.125 1.125 L 4.726562 1.125 L 4.726562 4.726562 L 1.125 4.726562 Z M 1.125 1.125 "/>
<path style=" stroke:none;fill-rule:nonzero;fill:rgb(30.588236%,47.843137%,70.980394%);fill-opacity:1;" d="M 4.5 1.351562 L 4.5 4.5 L 1.351562 4.5 L 1.351562 1.351562 L 4.5 1.351562 M 4.949219 0.898438 L 0.898438 0.898438 L 0.898438 4.949219 L 4.949219 4.949219 Z M 4.949219 0.898438 "/>
<path style=" stroke:none;fill-rule:nonzero;fill:rgb(54.509807%,71.764708%,94.117647%);fill-opacity:1;" d="M 31.273438 31.273438 L 34.875 31.273438 L 34.875 34.875 L 31.273438 34.875 Z M 31.273438 31.273438 "/>
<path style=" stroke:none;fill-rule:nonzero;fill:rgb(30.588236%,47.843137%,70.980394%);fill-opacity:1;" d="M 34.648438 31.5 L 34.648438 34.648438 L 31.5 34.648438 L 31.5 31.5 L 34.648438 31.5 M 35.101562 31.050781 L 31.050781 31.050781 L 31.050781 35.101562 L 35.101562 35.101562 Z M 35.101562 31.050781 "/>
<path style=" stroke:none;fill-rule:nonzero;fill:rgb(54.509807%,71.764708%,94.117647%);fill-opacity:1;" d="M 1.125 31.273438 L 4.726562 31.273438 L 4.726562 34.875 L 1.125 34.875 Z M 1.125 31.273438 "/>
<path style=" stroke:none;fill-rule:nonzero;fill:rgb(30.588236%,47.843137%,70.980394%);fill-opacity:1;" d="M 4.5 31.5 L 4.5 34.648438 L 1.351562 34.648438 L 1.351562 31.5 L 4.5 31.5 M 4.949219 31.050781 L 0.898438 31.050781 L 0.898438 35.101562 L 4.949219 35.101562 Z M 4.949219 31.050781 "/>
</g>
</g>

<g id="add-badge"><g transform="scale(1.33333333)">
    <g id="surface178">
        <path d="M27.898,35.773C23.578,35.773 20.023,32.219 20.023,27.898C20.023,23.578 23.578,20.023 27.898,20.023C32.219,20.023 35.773,23.578 35.773,27.898C35.773,32.219 32.219,35.773 27.898,35.773Z" style="fill:rgb(186,224,189);fill-rule:nonzero;"/>
        <path d="M27.898,20.25C32.129,20.25 35.551,23.672 35.551,27.898C35.551,32.129 32.129,35.551 27.898,35.551C23.672,35.551 20.25,32.129 20.25,27.898C20.25,23.672 23.672,20.25 27.898,20.25M27.898,19.801C23.445,19.801 19.801,23.445 19.801,27.898C19.801,32.355 23.445,36 27.898,36C32.355,36 36,32.355 36,27.898C36,23.445 32.355,19.801 27.898,19.801Z" style="fill:rgb(94,156,118);fill-rule:nonzero;"/>
        <rect x="27" y="23.398" width="1.801" height="9" style="fill:rgb(254,254,254);fill-rule:nonzero;"/>
        <rect x="23.398" y="27" width="9" height="1.801" style="fill:rgb(254,254,254);fill-rule:nonzero;"/>
    </g>
</g></g>
</svg>
