<?xml version="1.0" encoding="UTF-8"?>
<svg xmlns="http://www.w3.org/2000/svg" xmlns:xlink="http://www.w3.org/1999/xlink" width="48" height="48" viewBox="0 0 48 48" version="1.1">
<g transform="scale(1.33333333)">
<g id="surface197">
<path style=" stroke:none;fill-rule:nonzero;fill:rgb(76.078433%,90.980393%,100%);fill-opacity:1;" d="M 11.039062 11.699219 L 0 11.699219 L 0 15.300781 L 10.320312 15.300781 Z M 9.511719 19.800781 L 9.988281 17.101562 L 0 17.101562 L 0 19.800781 Z M 9 23.398438 L 9.238281 21.601562 L 0 21.601562 L 0 23.398438 Z M 9 23.398438 "/>
<path style=" stroke:none;fill-rule:nonzero;fill:rgb(100%,100%,100%);fill-opacity:1;" d="M 6.570312 29.476562 L 10.984375 6.523438 L 35.726562 6.523438 L 31.136719 29.476562 Z M 6.570312 29.476562 "/>
<path style=" stroke:none;fill-rule:nonzero;fill:rgb(47.058824%,54.509807%,61.176473%);fill-opacity:1;" d="M 35.449219 6.75 L 30.949219 29.25 L 6.84375 29.25 L 11.171875 6.75 L 35.449219 6.75 M 36 6.300781 L 10.800781 6.300781 L 6.300781 29.699219 L 31.320312 29.699219 Z M 36 6.300781 "/>
<path style=" stroke:none;fill-rule:nonzero;fill:rgb(54.509807%,71.764708%,94.117647%);fill-opacity:1;" d="M 11.929688 22.273438 L 13.683594 13.726562 L 30.324219 13.726562 L 28.617188 22.273438 Z M 11.929688 22.273438 "/>
<path style=" stroke:none;fill-rule:nonzero;fill:rgb(30.588236%,47.843137%,70.980394%);fill-opacity:1;" d="M 30.050781 13.949219 L 28.429688 22.050781 L 12.207031 22.050781 L 13.867188 13.949219 L 30.050781 13.949219 M 30.601562 13.5 L 13.5 13.5 L 11.652344 22.5 L 28.800781 22.5 Z M 30.601562 13.5 "/>
<path style=" stroke:none;fill-rule:nonzero;fill:rgb(47.058824%,54.509807%,61.176473%);fill-opacity:1;" d="M 35.550781 6.300781 L 11.25 6.300781 L 10.351562 10.800781 L 34.648438 10.800781 Z M 35.550781 6.300781 "/>
<path style=" stroke:none;fill-rule:nonzero;fill:rgb(100%,100%,100%);fill-opacity:1;" d="M 14.253906 18.898438 L 27.628906 18.898438 L 28.171875 16.199219 L 14.792969 16.199219 Z M 14.253906 18.898438 "/>
<path style=" stroke:none;fill-rule:nonzero;fill:rgb(21.568628%,27.843139%,30.980393%);fill-opacity:1;" d="M 17.292969 18.898438 L 17.835938 16.199219 L 17.367188 16.199219 L 16.828125 18.898438 Z M 17.292969 18.898438 "/>
</g>
</g>

<g transform="scale(1.33333333)">    <g id="surface178">
        <path d="M27.898,35.773C23.578,35.773 20.023,32.219 20.023,27.898C20.023,23.578 23.578,20.023 27.898,20.023C32.219,20.023 35.773,23.578 35.773,27.898C35.773,32.219 32.219,35.773 27.898,35.773Z" style="fill:rgb(186,224,189);fill-rule:nonzero;"/>
        <path d="M27.898,20.25C32.129,20.25 35.551,23.672 35.551,27.898C35.551,32.129 32.129,35.551 27.898,35.551C23.672,35.551 20.25,32.129 20.25,27.898C20.25,23.672 23.672,20.25 27.898,20.25M27.898,19.801C23.445,19.801 19.801,23.445 19.801,27.898C19.801,32.355 23.445,36 27.898,36C32.355,36 36,32.355 36,27.898C36,23.445 32.355,19.801 27.898,19.801Z" style="fill:rgb(94,156,118);fill-rule:nonzero;"/>
        <rect x="27" y="23.398" width="1.801" height="9" style="fill:rgb(254,254,254);fill-rule:nonzero;"/>
        <rect x="23.398" y="27" width="9" height="1.801" style="fill:rgb(254,254,254);fill-rule:nonzero;"/>
    </g></g>
</svg>
