<?xml version="1.0" encoding="UTF-8" standalone="no"?>
<!DOCTYPE svg PUBLIC "-//W3C//DTD SVG 1.1//EN" "http://www.w3.org/Graphics/SVG/1.1/DTD/svg11.dtd">
<svg id="add-plot3d" width="48" height="48" viewBox="0 0 48 48" version="1.1" xmlns="http://www.w3.org/2000/svg" xmlns:xlink="http://www.w3.org/1999/xlink" xml:space="preserve" xmlns:serif="http://www.serif.com/" style="fill-rule:evenodd;clip-rule:evenodd;stroke-linejoin:round;stroke-miterlimit:2;">
<g transform="scale(1.33333333)">
    <g id="surface2012">
        <path d="M0.309,18L18,0.309L35.691,18L18,35.691L0.309,18Z" style="fill:rgb(88,156,219);fill-rule:nonzero;"/>
        <path d="M18,0.629L35.371,18L18,35.371L0.629,18L18,0.629M18,0L0,18L18,36L36,18L18,0Z" style="fill:rgb(78,121,181);fill-rule:nonzero;"/>
        <path d="M17.504,35.191L21.238,20.297L21.285,20.07L21.645,20.023L35.641,17.953L35.684,18L18,35.684L17.504,35.191Z" style="fill:rgb(69,133,191);fill-rule:nonzero;"/>
        <path d="M35.102,18.27L18,35.371L17.773,35.145L21.465,20.387L21.512,20.297L21.691,20.25L35.102,18.27M35.73,17.73L21.602,19.801L21.105,19.891L21.016,20.25L17.281,35.281L18,36L36,18L35.73,17.73Z" style="fill:rgb(78,121,181);fill-rule:nonzero;"/>
        <path d="M17.777,1.242L18.223,1.16L21.82,20.355L21.379,20.438L17.777,1.242Z" style="fill:rgb(115,115,115);fill-rule:nonzero;"/>
        <path d="M17.77,34.746L21.367,20.34L21.805,20.445L18.203,34.855L17.77,34.746Z" style="fill:rgb(115,115,115);fill-rule:nonzero;"/>
        <path d="M1.152,18.234L1.207,17.789L21.586,20.184L21.531,20.633L1.152,18.234Z" style="fill:rgb(115,115,115);fill-rule:nonzero;"/>
        <path d="M0.316,18L0.766,17.551L21.555,20.023L21.824,20.023L21.824,20.203L18.047,35.641L18,35.684L0.316,18Z" style="fill:rgb(151,201,254);fill-rule:nonzero;"/>
        <path d="M0.855,17.82L21.555,20.25L21.602,20.25L17.91,35.281L0.629,18L0.855,17.82M0.676,17.324L0,18L18,36L18.27,35.73L22.051,20.25L22.051,19.801L21.602,19.801L0.676,17.324Z" style="fill:rgb(78,121,181);fill-rule:nonzero;"/>
        <path d="M21.602,20.023L0.359,18.047L0.316,18L18,0.316L21.824,19.844L21.824,20.023L21.602,20.023Z" style="fill:rgb(194,232,254);fill-rule:nonzero;"/>
        <path d="M17.863,0.766L21.602,19.801L0.766,17.863L17.863,0.766M18,0L0,18L0.27,18.27L21.602,20.25L22.051,20.25L22.051,19.801L18.227,0.227L18,0Z" style="fill:rgb(78,121,181);fill-rule:nonzero;"/>
    </g>
</g>

<g transform="scale(1.33333333)">    <g id="surface178">
        <path d="M27.898,35.773C23.578,35.773 20.023,32.219 20.023,27.898C20.023,23.578 23.578,20.023 27.898,20.023C32.219,20.023 35.773,23.578 35.773,27.898C35.773,32.219 32.219,35.773 27.898,35.773Z" style="fill:rgb(186,224,189);fill-rule:nonzero;"/>
        <path d="M27.898,20.25C32.129,20.25 35.551,23.672 35.551,27.898C35.551,32.129 32.129,35.551 27.898,35.551C23.672,35.551 20.25,32.129 20.25,27.898C20.25,23.672 23.672,20.25 27.898,20.25M27.898,19.801C23.445,19.801 19.801,23.445 19.801,27.898C19.801,32.355 23.445,36 27.898,36C32.355,36 36,32.355 36,27.898C36,23.445 32.355,19.801 27.898,19.801Z" style="fill:rgb(94,156,118);fill-rule:nonzero;"/>
        <rect x="27" y="23.398" width="1.801" height="9" style="fill:rgb(254,254,254);fill-rule:nonzero;"/>
        <rect x="23.398" y="27" width="9" height="1.801" style="fill:rgb(254,254,254);fill-rule:nonzero;"/>
    </g></g>
</svg>
