<?xml version="1.0" encoding="UTF-8"?>
<svg id="add-folder" xmlns="http://www.w3.org/2000/svg" xmlns:xlink="http://www.w3.org/1999/xlink" width="48" height="48" viewBox="0 0 48 48" version="1.1">
<g transform="scale(1.33333333)">
<g id="surface1654">
<path style=" stroke:none;fill-rule:nonzero;fill:rgb(85.882354%,69.01961%,39.607844%);fill-opacity:1;" d="M 1.125 32.175781 L 1.125 3.824219 L 10.707031 3.824219 L 13.40625 6.523438 L 34.875 6.523438 L 34.875 32.175781 Z M 1.125 32.175781 "/>
<path style=" stroke:none;fill-rule:nonzero;fill:rgb(58.823532%,47.843137%,26.666668%);fill-opacity:1;" d="M 10.613281 4.050781 L 13.183594 6.617188 L 13.3125 6.75 L 34.648438 6.75 L 34.648438 31.949219 L 1.351562 31.949219 L 1.351562 4.050781 L 10.613281 4.050781 M 10.800781 3.601562 L 0.898438 3.601562 L 0.898438 32.398438 L 35.101562 32.398438 L 35.101562 6.300781 L 13.5 6.300781 Z M 10.800781 3.601562 "/>
<path style=" stroke:none;fill-rule:nonzero;fill:rgb(96.078432%,80.784315%,52.156866%);fill-opacity:1;" d="M 1.125 32.175781 L 1.125 8.324219 L 10.867188 8.324219 L 13.566406 6.523438 L 34.875 6.523438 L 34.875 32.175781 Z M 1.125 32.175781 "/>
<path style=" stroke:none;fill-rule:nonzero;fill:rgb(58.823532%,47.843137%,26.666668%);fill-opacity:1;" d="M 34.648438 6.75 L 34.648438 31.949219 L 1.351562 31.949219 L 1.351562 8.550781 L 10.9375 8.550781 L 11.050781 8.472656 L 13.636719 6.75 L 34.648438 6.75 M 35.101562 6.300781 L 13.5 6.300781 L 10.800781 8.101562 L 0.898438 8.101562 L 0.898438 32.398438 L 35.101562 32.398438 Z M 35.101562 6.300781 "/>
</g>
</g>

<g transform="scale(1.33333333)">    <g id="surface178">
        <path d="M27.898,35.773C23.578,35.773 20.023,32.219 20.023,27.898C20.023,23.578 23.578,20.023 27.898,20.023C32.219,20.023 35.773,23.578 35.773,27.898C35.773,32.219 32.219,35.773 27.898,35.773Z" style="fill:rgb(186,224,189);fill-rule:nonzero;"/>
        <path d="M27.898,20.25C32.129,20.25 35.551,23.672 35.551,27.898C35.551,32.129 32.129,35.551 27.898,35.551C23.672,35.551 20.25,32.129 20.25,27.898C20.25,23.672 23.672,20.25 27.898,20.25M27.898,19.801C23.445,19.801 19.801,23.445 19.801,27.898C19.801,32.355 23.445,36 27.898,36C32.355,36 36,32.355 36,27.898C36,23.445 32.355,19.801 27.898,19.801Z" style="fill:rgb(94,156,118);fill-rule:nonzero;"/>
        <rect x="27" y="23.398" width="1.801" height="9" style="fill:rgb(254,254,254);fill-rule:nonzero;"/>
        <rect x="23.398" y="27" width="9" height="1.801" style="fill:rgb(254,254,254);fill-rule:nonzero;"/>
    </g></g>
</svg>
