<?xml version="1.0" encoding="UTF-8"?>
<svg xmlns="http://www.w3.org/2000/svg" xmlns:xlink="http://www.w3.org/1999/xlink" width="60pt" height="60pt" viewBox="0 0 60 60" version="1.1">
<g id="surface64">
<path style=" stroke:none;fill-rule:evenodd;fill:rgb(69.01961%,75.686276%,83.137256%);fill-opacity:1;" d="M 57.75 35.25 C 57.75 34.359375 57.75 28.648438 57.75 27.75 C 57.75 26.09375 56.40625 24.75 54.75 24.75 C 54.492188 24.75 52.007812 24.75 51.75 24.75 C 50.09375 24.75 48.75 26.09375 48.75 27.75 C 48.75 28.648438 48.75 34.359375 48.75 35.25 C 48.75 36.90625 50.09375 38.25 51.75 38.25 C 52.007812 38.25 54.492188 38.25 54.75 38.25 C 56.40625 38.25 57.75 36.90625 57.75 35.25 Z M 57.75 35.25 "/>
<path style=" stroke:none;fill-rule:evenodd;fill:rgb(40.000001%,47.450981%,56.078434%);fill-opacity:1;" d="M 48 35.25 L 48 27.75 C 48 25.679688 49.675781 24 51.75 24 L 54.75 24 C 56.820312 24 58.5 25.679688 58.5 27.75 L 58.5 35.25 C 58.5 37.324219 56.820312 39 54.75 39 L 51.75 39 C 49.675781 39 48 37.324219 48 35.25 Z M 57 35.25 L 57 27.75 C 57 26.511719 55.988281 25.5 54.75 25.5 L 51.75 25.5 C 50.507812 25.5 49.5 26.511719 49.5 27.75 L 49.5 35.25 C 49.5 36.492188 50.507812 37.5 51.75 37.5 L 54.75 37.5 C 55.988281 37.5 57 36.492188 57 35.25 Z M 57 35.25 "/>
<path style=" stroke:none;fill-rule:evenodd;fill:rgb(69.01961%,75.686276%,83.137256%);fill-opacity:1;" d="M 11.25 35.25 C 11.25 34.359375 11.25 28.648438 11.25 27.75 C 11.25 26.09375 9.90625 24.75 8.25 24.75 C 7.992188 24.75 5.507812 24.75 5.25 24.75 C 3.59375 24.75 2.25 26.09375 2.25 27.75 C 2.25 28.648438 2.25 34.359375 2.25 35.25 C 2.25 36.90625 3.59375 38.25 5.25 38.25 C 5.507812 38.25 7.992188 38.25 8.25 38.25 C 9.90625 38.25 11.25 36.90625 11.25 35.25 Z M 11.25 35.25 "/>
<path style=" stroke:none;fill-rule:evenodd;fill:rgb(40.000001%,47.450981%,56.078434%);fill-opacity:1;" d="M 1.5 35.25 L 1.5 27.75 C 1.5 25.679688 3.175781 24 5.25 24 L 8.25 24 C 10.320312 24 12 25.679688 12 27.75 L 12 35.25 C 12 37.324219 10.320312 39 8.25 39 L 5.25 39 C 3.175781 39 1.5 37.324219 1.5 35.25 Z M 10.5 35.25 L 10.5 27.75 C 10.5 26.511719 9.488281 25.5 8.25 25.5 L 5.25 25.5 C 4.007812 25.5 3 26.511719 3 27.75 L 3 35.25 C 3 36.492188 4.007812 37.5 5.25 37.5 L 8.25 37.5 C 9.488281 37.5 10.5 36.492188 10.5 35.25 Z M 10.5 35.25 "/>
<path style=" stroke:none;fill-rule:evenodd;fill:rgb(69.01961%,75.686276%,83.137256%);fill-opacity:1;" d="M 27.765625 6 L 32.234375 6 L 32.234375 18 L 27.765625 18 Z M 27.765625 6 "/>
<path style=" stroke:none;fill-rule:evenodd;fill:rgb(40.000001%,47.450981%,56.078434%);fill-opacity:1;" d="M 27.011719 18.75 L 27.011719 5.253906 L 32.984375 5.253906 L 32.984375 18.75 Z M 31.484375 17.25 L 31.484375 6.753906 L 28.511719 6.753906 L 28.511719 17.25 Z M 31.484375 17.25 "/>
<path style=" stroke:none;fill-rule:evenodd;fill:rgb(69.01961%,75.686276%,83.137256%);fill-opacity:1;" d="M 33.746094 6.003906 C 33.746094 8.074219 32.066406 9.753906 29.996094 9.753906 C 27.925781 9.753906 26.246094 8.074219 26.246094 6.003906 C 26.246094 3.933594 27.925781 2.253906 29.996094 2.253906 C 32.066406 2.253906 33.746094 3.933594 33.746094 6.003906 Z M 33.746094 6.003906 "/>
<path style=" stroke:none;fill-rule:evenodd;fill:rgb(40.000001%,47.450981%,56.078434%);fill-opacity:1;" d="M 25.496094 6.003906 C 25.496094 3.519531 27.511719 1.503906 29.996094 1.503906 C 32.480469 1.503906 34.496094 3.519531 34.496094 6.003906 C 34.496094 8.488281 32.480469 10.503906 29.996094 10.503906 C 27.511719 10.503906 25.496094 8.488281 25.496094 6.003906 Z M 32.996094 6.003906 C 32.996094 4.347656 31.652344 3.003906 29.996094 3.003906 C 28.339844 3.003906 26.996094 4.347656 26.996094 6.003906 C 26.996094 7.660156 28.339844 9.003906 29.996094 9.003906 C 31.652344 9.003906 32.996094 7.660156 32.996094 6.003906 Z M 32.996094 6.003906 "/>
<path style=" stroke:none;fill-rule:evenodd;fill:rgb(54.509807%,71.764708%,94.117647%);fill-opacity:1;" d="M 14.25 56.691406 L 14.25 48.75 L 6.75 48.75 L 6.75 14.25 L 53.25 14.25 L 53.25 48.75 L 22.191406 48.75 Z M 14.25 56.691406 "/>
<path style=" stroke:none;fill-rule:evenodd;fill:rgb(30.588236%,48.235294%,70.980394%);fill-opacity:1;" d="M 13.5 58.503906 L 13.5 49.5 L 6 49.5 L 6 13.5 L 54 13.5 L 54 49.5 L 22.5 49.5 Z M 15 54.878906 L 21.875 48 L 52.5 48 L 52.5 15 L 7.5 15 L 7.5 48 L 15 48 Z M 15 54.878906 "/>
<path style=" stroke:none;fill-rule:evenodd;fill:rgb(100%,100%,100%);fill-opacity:1;" d="M 24 37.5 L 36 37.5 C 35.109375 40.125 32.753906 42 30 42 C 27.238281 42 24.890625 40.125 24 37.5 Z M 24 37.5 "/>
<path style=" stroke:none;fill-rule:evenodd;fill:rgb(100%,100%,100%);fill-opacity:1;" d="M 24 27.753906 C 24 29.824219 22.320312 31.5 20.25 31.5 C 18.175781 31.5 16.5 29.824219 16.5 27.753906 C 16.5 25.683594 18.175781 24.003906 20.25 24.003906 C 22.320312 24.003906 24 25.683594 24 27.753906 Z M 24 27.753906 "/>
<path style=" stroke:none;fill-rule:evenodd;fill:rgb(100%,100%,100%);fill-opacity:1;" d="M 43.5 27.753906 C 43.5 29.824219 41.820312 31.5 39.75 31.5 C 37.675781 31.5 36 29.824219 36 27.753906 C 36 25.683594 37.675781 24.003906 39.75 24.003906 C 41.820312 24.003906 43.5 25.683594 43.5 27.753906 Z M 43.5 27.753906 "/>
</g>
</svg>
