<?xml version="1.0" encoding="UTF-8"?>
<svg xmlns="http://www.w3.org/2000/svg" xmlns:xlink="http://www.w3.org/1999/xlink" width="48" height="48" viewBox="0 0 48 48" version="1.1">
<g transform="scale(4)">
<g id="surface292">
<path style=" stroke:none;fill-rule:nonzero;fill:rgb(54.509807%,71.764708%,94.117647%);fill-opacity:1;" d="M 6.976562 5.023438 L 6.976562 1.679688 L 8.15625 2.863281 L 10.617188 0.40625 L 11.59375 1.382812 L 9.136719 3.84375 L 10.320312 5.023438 Z M 6.976562 5.023438 "/>
<path style=" stroke:none;fill-rule:nonzero;fill:rgb(30.588236%,47.843137%,70.980394%);fill-opacity:1;" d="M 10.617188 0.511719 L 11.488281 1.382812 L 9.136719 3.734375 L 9.03125 3.84375 L 10.136719 4.949219 L 7.050781 4.949219 L 7.050781 1.863281 L 8.15625 2.96875 L 8.265625 2.863281 L 10.617188 0.511719 M 10.617188 0.300781 L 8.15625 2.757812 L 6.898438 1.5 L 6.898438 5.101562 L 10.5 5.101562 L 9.242188 3.84375 L 11.699219 1.382812 Z M 10.617188 0.300781 "/>
<path style=" stroke:none;fill-rule:nonzero;fill:rgb(54.509807%,71.764708%,94.117647%);fill-opacity:1;" d="M 0.40625 10.617188 L 2.863281 8.15625 L 1.679688 6.976562 L 5.023438 6.976562 L 5.023438 10.320312 L 3.84375 9.136719 L 1.382812 11.59375 Z M 0.40625 10.617188 "/>
<path style=" stroke:none;fill-rule:nonzero;fill:rgb(30.588236%,47.843137%,70.980394%);fill-opacity:1;" d="M 4.949219 7.050781 L 4.949219 10.136719 L 3.84375 9.03125 L 3.734375 9.136719 L 1.382812 11.488281 L 0.511719 10.617188 L 2.863281 8.265625 L 2.96875 8.15625 L 1.863281 7.050781 L 4.949219 7.050781 M 5.101562 6.898438 L 1.5 6.898438 L 2.757812 8.15625 L 0.300781 10.617188 L 1.382812 11.699219 L 3.84375 9.242188 L 5.101562 10.5 Z M 5.101562 6.898438 "/>
</g>
</g>
</svg>
