<?xml version="1.0" encoding="UTF-8"?>
<svg xmlns="http://www.w3.org/2000/svg" xmlns:xlink="http://www.w3.org/1999/xlink" width="48" height="48" viewBox="0 0 48 48" version="1.1">
<g transform="scale(1.33333333)">
<g id="surface96">
<path style=" stroke:none;fill-rule:nonzero;fill:rgb(72.941178%,87.843138%,74.117649%);fill-opacity:1;" d="M 1.46875 21.375 C 1.242188 20.25 1.125 19.117188 1.125 18 C 1.125 13.738281 2.730469 9.664062 5.644531 6.53125 L 5.792969 6.371094 L 3.242188 3.824219 L 11.476562 3.824219 L 11.476562 12.058594 L 8.65625 9.234375 L 8.496094 9.410156 C 6.355469 11.773438 5.175781 14.824219 5.175781 18 C 5.175781 19.132812 5.328125 20.265625 5.628906 21.375 Z M 1.46875 21.375 "/>
<path style=" stroke:none;fill-rule:nonzero;fill:rgb(36.862746%,61.176473%,46.27451%);fill-opacity:1;" d="M 11.25 4.050781 L 11.25 11.515625 L 8.980469 9.246094 L 8.648438 8.910156 L 8.328125 9.261719 C 6.148438 11.664062 4.949219 14.769531 4.949219 18 C 4.949219 19.058594 5.082031 20.113281 5.339844 21.148438 L 1.65625 21.148438 C 1.453125 20.101562 1.351562 19.042969 1.351562 18 C 1.351562 13.792969 2.933594 9.777344 5.808594 6.683594 L 6.105469 6.367188 L 5.796875 6.0625 L 3.785156 4.050781 L 11.25 4.050781 M 11.699219 3.601562 L 2.699219 3.601562 L 5.480469 6.378906 C 2.640625 9.429688 0.898438 13.507812 0.898438 18 C 0.898438 19.234375 1.039062 20.4375 1.285156 21.601562 L 5.929688 21.601562 C 5.589844 20.457031 5.398438 19.25 5.398438 18 C 5.398438 14.75 6.640625 11.796875 8.664062 9.5625 L 11.699219 12.601562 Z M 11.699219 3.601562 "/>
<path style=" stroke:none;fill-rule:nonzero;fill:rgb(72.941178%,87.843138%,74.117649%);fill-opacity:1;" d="M 23.941406 11.476562 L 26.765625 8.65625 L 26.589844 8.496094 C 24.222656 6.355469 21.175781 5.175781 18 5.175781 C 16.867188 5.175781 15.734375 5.328125 14.625 5.628906 L 14.625 1.46875 C 15.75 1.242188 16.882812 1.125 18 1.125 C 22.261719 1.125 26.335938 2.730469 29.46875 5.644531 L 29.628906 5.792969 L 32.175781 3.242188 L 32.175781 11.476562 Z M 23.941406 11.476562 "/>
<path style=" stroke:none;fill-rule:nonzero;fill:rgb(36.862746%,61.176473%,46.27451%);fill-opacity:1;" d="M 18 1.351562 C 22.207031 1.351562 26.222656 2.933594 29.316406 5.808594 L 29.632812 6.105469 L 29.9375 5.796875 L 31.949219 3.785156 L 31.949219 11.25 L 24.484375 11.25 L 27.089844 8.644531 L 26.738281 8.328125 C 24.335938 6.148438 21.230469 4.949219 18 4.949219 C 16.941406 4.949219 15.886719 5.082031 14.851562 5.339844 L 14.851562 1.65625 C 15.898438 1.453125 16.957031 1.351562 18 1.351562 M 18 0.898438 C 16.765625 0.898438 15.5625 1.039062 14.398438 1.285156 L 14.398438 5.929688 C 15.542969 5.589844 16.75 5.398438 18 5.398438 C 21.25 5.398438 24.203125 6.640625 26.4375 8.664062 L 23.398438 11.699219 L 32.398438 11.699219 L 32.398438 2.699219 L 29.621094 5.480469 C 26.570312 2.640625 22.492188 0.898438 18 0.898438 Z M 18 0.898438 "/>
<path style=" stroke:none;fill-rule:nonzero;fill:rgb(72.941178%,87.843138%,74.117649%);fill-opacity:1;" d="M 24.523438 32.175781 L 24.523438 23.941406 L 27.34375 26.765625 L 27.503906 26.589844 C 29.644531 24.226562 30.824219 21.175781 30.824219 18 C 30.824219 16.867188 30.671875 15.734375 30.371094 14.625 L 34.53125 14.625 C 34.757812 15.75 34.875 16.882812 34.875 18 C 34.875 22.261719 33.269531 26.335938 30.355469 29.46875 L 30.207031 29.628906 L 32.757812 32.175781 Z M 24.523438 32.175781 "/>
<path style=" stroke:none;fill-rule:nonzero;fill:rgb(36.862746%,61.176473%,46.27451%);fill-opacity:1;" d="M 34.34375 14.851562 C 34.546875 15.898438 34.648438 16.957031 34.648438 18 C 34.648438 22.207031 33.066406 26.222656 30.191406 29.316406 L 29.894531 29.632812 L 30.203125 29.9375 L 32.214844 31.949219 L 24.75 31.949219 L 24.75 24.484375 L 27.355469 27.089844 L 27.671875 26.738281 C 29.851562 24.335938 31.050781 21.230469 31.050781 18 C 31.050781 16.941406 30.917969 15.886719 30.660156 14.851562 L 34.34375 14.851562 M 34.714844 14.398438 L 30.070312 14.398438 C 30.410156 15.542969 30.601562 16.75 30.601562 18 C 30.601562 21.25 29.359375 24.203125 27.335938 26.4375 L 24.300781 23.398438 L 24.300781 32.398438 L 33.300781 32.398438 L 30.519531 29.621094 C 33.359375 26.570312 35.101562 22.492188 35.101562 18 C 35.101562 16.765625 34.960938 15.5625 34.714844 14.398438 Z M 34.714844 14.398438 "/>
<path style=" stroke:none;fill-rule:nonzero;fill:rgb(72.941178%,87.843138%,74.117649%);fill-opacity:1;" d="M 18 34.875 C 13.738281 34.875 9.664062 33.269531 6.53125 30.355469 L 6.371094 30.207031 L 3.824219 32.757812 L 3.824219 24.523438 L 12.058594 24.523438 L 9.234375 27.34375 L 9.410156 27.503906 C 11.777344 29.644531 14.824219 30.824219 18 30.824219 C 19.132812 30.824219 20.265625 30.671875 21.375 30.371094 L 21.375 34.53125 C 20.25 34.757812 19.117188 34.875 18 34.875 Z M 18 34.875 "/>
<path style=" stroke:none;fill-rule:nonzero;fill:rgb(36.862746%,61.176473%,46.27451%);fill-opacity:1;" d="M 11.515625 24.75 L 9.246094 27.019531 L 8.910156 27.351562 L 9.261719 27.671875 C 11.664062 29.851562 14.769531 31.050781 18 31.050781 C 19.058594 31.050781 20.113281 30.917969 21.148438 30.660156 L 21.148438 34.34375 C 20.101562 34.546875 19.042969 34.648438 18 34.648438 C 13.792969 34.648438 9.777344 33.066406 6.683594 30.191406 L 6.367188 29.894531 L 6.0625 30.203125 L 4.050781 32.214844 L 4.050781 24.75 L 11.515625 24.75 M 12.601562 24.300781 L 3.601562 24.300781 L 3.601562 33.300781 L 6.378906 30.519531 C 9.429688 33.359375 13.507812 35.101562 18 35.101562 C 19.234375 35.101562 20.4375 34.960938 21.601562 34.714844 L 21.601562 30.070312 C 20.457031 30.410156 19.25 30.601562 18 30.601562 C 14.75 30.601562 11.796875 29.359375 9.5625 27.335938 Z M 12.601562 24.300781 "/>
</g>
</g>
</svg>
