<?xml version="1.0" encoding="UTF-8"?>
<svg xmlns="http://www.w3.org/2000/svg" xmlns:xlink="http://www.w3.org/1999/xlink" width="48" height="48" viewBox="0 0 48 48" version="1.1">
<g transform="scale(1.33333333)">
<g id="surface2376">
<path style="fill-rule:nonzero;fill:rgb(72.941178%,87.843138%,74.117649%);fill-opacity:1;stroke-width:1;stroke-linecap:butt;stroke-linejoin:miter;stroke:rgb(36.862746%,61.176473%,46.27451%);stroke-opacity:1;stroke-miterlimit:10;" d="M 3.298611 47.5 C 2.803819 45 2.5 42.5 2.5 40 C 2.5 30.503472 6.102431 21.501736 12.5 14.496528 L 12.803819 14.097222 L 7.196181 8.498264 L 25.503472 8.498264 L 25.503472 26.796875 L 19.201389 20.503472 L 18.802083 20.902778 C 14.001736 26.197917 11.397569 32.899306 11.397569 40 C 11.397569 42.5 11.701389 45 12.395833 47.5 Z M 3.298611 47.5 " transform="matrix(0.45,0,0,0.45,0,0)"/>
<path style="fill-rule:nonzero;fill:rgb(72.941178%,87.843138%,74.117649%);fill-opacity:1;stroke-width:1;stroke-linecap:butt;stroke-linejoin:miter;stroke:rgb(36.862746%,61.176473%,46.27451%);stroke-opacity:1;stroke-miterlimit:10;" d="M 53.203125 25.503472 L 59.496528 19.201389 L 59.097222 18.802083 C 53.802083 14.001736 47.100694 11.397569 40 11.397569 C 37.5 11.397569 35 11.701389 32.5 12.395833 L 32.5 3.298611 C 35 2.803819 37.5 2.5 40 2.5 C 49.496528 2.5 58.498264 6.102431 65.503472 12.5 L 65.902778 12.803819 L 71.597222 7.100694 L 71.597222 25.399306 L 53.203125 25.399306 Z M 53.203125 25.503472 " transform="matrix(0.45,0,0,0.45,0,0)"/>
<path style="fill-rule:nonzero;fill:rgb(72.941178%,87.843138%,74.117649%);fill-opacity:1;stroke-width:1;stroke-linecap:butt;stroke-linejoin:miter;stroke:rgb(36.862746%,61.176473%,46.27451%);stroke-opacity:1;stroke-miterlimit:10;" d="M 54.496528 71.501736 L 54.496528 53.203125 L 60.798611 59.496528 L 61.197917 59.097222 C 65.998264 53.802083 68.602431 47.100694 68.602431 40 C 68.602431 37.5 68.298611 35 67.604167 32.5 L 76.796875 32.5 C 77.300347 35 77.604167 37.5 77.604167 40 C 77.604167 49.496528 74.001736 58.498264 67.604167 65.503472 L 67.300347 65.902778 L 73.003472 71.597222 L 54.496528 71.597222 Z M 54.496528 71.501736 " transform="matrix(0.45,0,0,0.45,0,0)"/>
<path style="fill-rule:nonzero;fill:rgb(72.941178%,87.843138%,74.117649%);fill-opacity:1;stroke-width:1;stroke-linecap:butt;stroke-linejoin:miter;stroke:rgb(36.862746%,61.176473%,46.27451%);stroke-opacity:1;stroke-miterlimit:10;" d="M 40 77.5 C 30.503472 77.5 21.501736 73.897569 14.496528 67.5 L 14.097222 67.196181 L 8.402778 72.899306 L 8.402778 54.496528 L 26.701389 54.496528 L 20.399306 60.798611 L 20.798611 61.197917 C 26.102431 65.998264 32.803819 68.602431 39.895833 68.602431 C 42.395833 68.602431 44.895833 68.298611 47.395833 67.604167 L 47.395833 76.796875 C 45 77.196181 42.5 77.5 40 77.5 Z M 40 77.5 " transform="matrix(0.45,0,0,0.45,0,0)"/>
</g>
</g>
</svg>
