<?xml version="1.0" encoding="UTF-8"?>
<svg xmlns="http://www.w3.org/2000/svg" xmlns:xlink="http://www.w3.org/1999/xlink" width="48" height="48" viewBox="0 0 48 48" version="1.1">
<g transform="scale(1.33333333)">
<g id="surface2495">
<path style=" stroke:none;fill-rule:nonzero;fill:rgb(30.588236%,47.843137%,70.980394%);fill-opacity:1;" d="M 3.734375 13.230469 L 3.464844 12.871094 L 8.953125 8.28125 L 15.253906 11.878906 L 20.65625 5.578125 L 26.953125 9.179688 L 32.21875 3.015625 L 32.578125 3.285156 L 27.046875 9.71875 L 20.746094 6.121094 L 15.34375 12.421875 L 9.046875 8.820312 Z M 3.734375 13.230469 "/>
<path style=" stroke:none;fill-rule:nonzero;fill:rgb(54.509807%,71.764708%,94.117647%);fill-opacity:1;" d="M 3.601562 11.476562 C 2.730469 11.476562 2.023438 12.179688 2.023438 13.050781 C 2.023438 13.917969 2.730469 14.625 3.601562 14.625 C 4.46875 14.625 5.175781 13.917969 5.175781 13.050781 C 5.175781 12.179688 4.46875 11.476562 3.601562 11.476562 Z M 3.601562 11.476562 "/>
<path style=" stroke:none;fill-rule:nonzero;fill:rgb(30.588236%,47.843137%,70.980394%);fill-opacity:1;" d="M 3.601562 11.699219 C 4.363281 11.699219 4.949219 12.285156 4.949219 13.050781 C 4.949219 13.816406 4.363281 14.398438 3.601562 14.398438 C 2.835938 14.398438 2.25 13.816406 2.25 13.050781 C 2.25 12.285156 2.835938 11.699219 3.601562 11.699219 M 3.601562 11.25 C 2.609375 11.25 1.800781 12.058594 1.800781 13.050781 C 1.800781 14.039062 2.609375 14.851562 3.601562 14.851562 C 4.589844 14.851562 5.398438 14.039062 5.398438 13.050781 C 5.398438 12.058594 4.589844 11.25 3.601562 11.25 Z M 3.601562 11.25 "/>
<path style=" stroke:none;fill-rule:nonzero;fill:rgb(54.509807%,71.764708%,94.117647%);fill-opacity:1;" d="M 9 6.976562 C 8.128906 6.976562 7.425781 7.679688 7.425781 8.550781 C 7.425781 9.417969 8.128906 10.125 9 10.125 C 9.871094 10.125 10.574219 9.417969 10.574219 8.550781 C 10.574219 7.679688 9.871094 6.976562 9 6.976562 Z M 9 6.976562 "/>
<path style=" stroke:none;fill-rule:nonzero;fill:rgb(30.588236%,47.843137%,70.980394%);fill-opacity:1;" d="M 9 7.199219 C 9.765625 7.199219 10.351562 7.785156 10.351562 8.550781 C 10.351562 9.316406 9.765625 9.898438 9 9.898438 C 8.234375 9.898438 7.648438 9.316406 7.648438 8.550781 C 7.648438 7.785156 8.234375 7.199219 9 7.199219 M 9 6.75 C 8.011719 6.75 7.199219 7.558594 7.199219 8.550781 C 7.199219 9.539062 8.011719 10.351562 9 10.351562 C 9.988281 10.351562 10.800781 9.539062 10.800781 8.550781 C 10.800781 7.558594 9.988281 6.75 9 6.75 Z M 9 6.75 "/>
<path style=" stroke:none;fill-rule:nonzero;fill:rgb(54.509807%,71.764708%,94.117647%);fill-opacity:1;" d="M 15.300781 10.574219 C 14.429688 10.574219 13.726562 11.28125 13.726562 12.148438 C 13.726562 13.019531 14.429688 13.726562 15.300781 13.726562 C 16.167969 13.726562 16.875 13.019531 16.875 12.148438 C 16.875 11.28125 16.167969 10.574219 15.300781 10.574219 Z M 15.300781 10.574219 "/>
<path style=" stroke:none;fill-rule:nonzero;fill:rgb(30.588236%,47.843137%,70.980394%);fill-opacity:1;" d="M 15.300781 10.800781 C 16.066406 10.800781 16.648438 11.386719 16.648438 12.148438 C 16.648438 12.914062 16.066406 13.5 15.300781 13.5 C 14.535156 13.5 13.949219 12.914062 13.949219 12.148438 C 13.949219 11.386719 14.535156 10.800781 15.300781 10.800781 M 15.300781 10.351562 C 14.308594 10.351562 13.5 11.160156 13.5 12.148438 C 13.5 13.140625 14.308594 13.949219 15.300781 13.949219 C 16.289062 13.949219 17.101562 13.140625 17.101562 12.148438 C 17.101562 11.160156 16.289062 10.351562 15.300781 10.351562 Z M 15.300781 10.351562 "/>
<path style=" stroke:none;fill-rule:nonzero;fill:rgb(54.509807%,71.764708%,94.117647%);fill-opacity:1;" d="M 20.699219 4.273438 C 19.832031 4.273438 19.125 4.980469 19.125 5.851562 C 19.125 6.71875 19.832031 7.425781 20.699219 7.425781 C 21.570312 7.425781 22.273438 6.71875 22.273438 5.851562 C 22.273438 4.980469 21.570312 4.273438 20.699219 4.273438 Z M 20.699219 4.273438 "/>
<path style=" stroke:none;fill-rule:nonzero;fill:rgb(30.588236%,47.843137%,70.980394%);fill-opacity:1;" d="M 20.699219 4.5 C 21.464844 4.5 22.050781 5.085938 22.050781 5.851562 C 22.050781 6.613281 21.464844 7.199219 20.699219 7.199219 C 19.933594 7.199219 19.351562 6.613281 19.351562 5.851562 C 19.351562 5.085938 19.933594 4.5 20.699219 4.5 M 20.699219 4.050781 C 19.710938 4.050781 18.898438 4.859375 18.898438 5.851562 C 18.898438 6.839844 19.710938 7.648438 20.699219 7.648438 C 21.691406 7.648438 22.5 6.839844 22.5 5.851562 C 22.5 4.859375 21.691406 4.050781 20.699219 4.050781 Z M 20.699219 4.050781 "/>
<path style=" stroke:none;fill-rule:nonzero;fill:rgb(54.509807%,71.764708%,94.117647%);fill-opacity:1;" d="M 27 7.875 C 26.128906 7.875 25.425781 8.582031 25.425781 9.449219 C 25.425781 10.320312 26.128906 11.023438 27 11.023438 C 27.871094 11.023438 28.574219 10.320312 28.574219 9.449219 C 28.574219 8.582031 27.871094 7.875 27 7.875 Z M 27 7.875 "/>
<path style=" stroke:none;fill-rule:nonzero;fill:rgb(30.588236%,47.843137%,70.980394%);fill-opacity:1;" d="M 27 8.101562 C 27.765625 8.101562 28.351562 8.683594 28.351562 9.449219 C 28.351562 10.214844 27.765625 10.800781 27 10.800781 C 26.234375 10.800781 25.648438 10.214844 25.648438 9.449219 C 25.648438 8.683594 26.234375 8.101562 27 8.101562 M 27 7.648438 C 26.011719 7.648438 25.199219 8.460938 25.199219 9.449219 C 25.199219 10.441406 26.011719 11.25 27 11.25 C 27.988281 11.25 28.800781 10.441406 28.800781 9.449219 C 28.800781 8.460938 27.988281 7.648438 27 7.648438 Z M 27 7.648438 "/>
<path style=" stroke:none;fill-rule:nonzero;fill:rgb(54.509807%,71.764708%,94.117647%);fill-opacity:1;" d="M 32.398438 1.574219 C 31.53125 1.574219 30.824219 2.28125 30.824219 3.148438 C 30.824219 4.019531 31.53125 4.726562 32.398438 4.726562 C 33.269531 4.726562 33.976562 4.019531 33.976562 3.148438 C 33.976562 2.28125 33.269531 1.574219 32.398438 1.574219 Z M 32.398438 1.574219 "/>
<path style=" stroke:none;fill-rule:nonzero;fill:rgb(30.588236%,47.843137%,70.980394%);fill-opacity:1;" d="M 32.398438 1.800781 C 33.164062 1.800781 33.75 2.386719 33.75 3.148438 C 33.75 3.914062 33.164062 4.5 32.398438 4.5 C 31.636719 4.5 31.050781 3.914062 31.050781 3.148438 C 31.050781 2.386719 31.636719 1.800781 32.398438 1.800781 M 32.398438 1.351562 C 31.410156 1.351562 30.601562 2.160156 30.601562 3.148438 C 30.601562 4.140625 31.410156 4.949219 32.398438 4.949219 C 33.390625 4.949219 34.199219 4.140625 34.199219 3.148438 C 34.199219 2.160156 33.390625 1.351562 32.398438 1.351562 Z M 32.398438 1.351562 "/>
<path style=" stroke:none;fill-rule:nonzero;fill:rgb(72.941178%,87.843138%,74.117649%);fill-opacity:1;" d="M 29.925781 13.273438 L 33.976562 13.273438 L 33.976562 34.425781 L 29.925781 34.425781 Z M 29.925781 13.273438 "/>
<path style=" stroke:none;fill-rule:nonzero;fill:rgb(36.862746%,61.176473%,46.27451%);fill-opacity:1;" d="M 33.75 13.5 L 33.75 34.199219 L 30.148438 34.199219 L 30.148438 13.5 L 33.75 13.5 M 34.199219 13.050781 L 29.699219 13.050781 L 29.699219 34.648438 L 34.199219 34.648438 Z M 34.199219 13.050781 "/>
<path style=" stroke:none;fill-rule:nonzero;fill:rgb(72.941178%,87.843138%,74.117649%);fill-opacity:1;" d="M 19.125 17.773438 L 23.175781 17.773438 L 23.175781 34.425781 L 19.125 34.425781 Z M 19.125 17.773438 "/>
<path style=" stroke:none;fill-rule:nonzero;fill:rgb(36.862746%,61.176473%,46.27451%);fill-opacity:1;" d="M 22.949219 18 L 22.949219 34.199219 L 19.351562 34.199219 L 19.351562 18 L 22.949219 18 M 23.398438 17.550781 L 18.898438 17.550781 L 18.898438 34.648438 L 23.398438 34.648438 Z M 23.398438 17.550781 "/>
<path style=" stroke:none;fill-rule:nonzero;fill:rgb(72.941178%,87.843138%,74.117649%);fill-opacity:1;" d="M 13.726562 24.074219 L 17.773438 24.074219 L 17.773438 34.425781 L 13.726562 34.425781 Z M 13.726562 24.074219 "/>
<path style=" stroke:none;fill-rule:nonzero;fill:rgb(36.862746%,61.176473%,46.27451%);fill-opacity:1;" d="M 17.550781 24.300781 L 17.550781 34.199219 L 13.949219 34.199219 L 13.949219 24.300781 L 17.550781 24.300781 M 18 23.851562 L 13.5 23.851562 L 13.5 34.648438 L 18 34.648438 Z M 18 23.851562 "/>
<path style=" stroke:none;fill-rule:nonzero;fill:rgb(72.941178%,87.843138%,74.117649%);fill-opacity:1;" d="M 8.324219 21.375 L 12.375 21.375 L 12.375 34.425781 L 8.324219 34.425781 Z M 8.324219 21.375 "/>
<path style=" stroke:none;fill-rule:nonzero;fill:rgb(36.862746%,61.176473%,46.27451%);fill-opacity:1;" d="M 12.148438 21.601562 L 12.148438 34.199219 L 8.550781 34.199219 L 8.550781 21.601562 L 12.148438 21.601562 M 12.601562 21.148438 L 8.101562 21.148438 L 8.101562 34.648438 L 12.601562 34.648438 Z M 12.601562 21.148438 "/>
<path style=" stroke:none;fill-rule:nonzero;fill:rgb(72.941178%,87.843138%,74.117649%);fill-opacity:1;" d="M 2.925781 25.875 L 6.976562 25.875 L 6.976562 34.425781 L 2.925781 34.425781 Z M 2.925781 25.875 "/>
<path style=" stroke:none;fill-rule:nonzero;fill:rgb(36.862746%,61.176473%,46.27451%);fill-opacity:1;" d="M 6.75 26.101562 L 6.75 34.199219 L 3.148438 34.199219 L 3.148438 26.101562 L 6.75 26.101562 M 7.199219 25.648438 L 2.699219 25.648438 L 2.699219 34.648438 L 7.199219 34.648438 Z M 7.199219 25.648438 "/>
<path style=" stroke:none;fill-rule:nonzero;fill:rgb(72.941178%,87.843138%,74.117649%);fill-opacity:1;" d="M 24.523438 20.476562 L 28.574219 20.476562 L 28.574219 34.425781 L 24.523438 34.425781 Z M 24.523438 20.476562 "/>
<path style=" stroke:none;fill-rule:nonzero;fill:rgb(36.862746%,61.176473%,46.27451%);fill-opacity:1;" d="M 28.351562 20.699219 L 28.351562 34.199219 L 24.75 34.199219 L 24.75 20.699219 L 28.351562 20.699219 M 28.800781 20.25 L 24.300781 20.25 L 24.300781 34.648438 L 28.800781 34.648438 Z M 28.800781 20.25 "/>
</g>
</g>
</svg>
