<?xml version="1.0" encoding="UTF-8"?>
<svg xmlns="http://www.w3.org/2000/svg" xmlns:xlink="http://www.w3.org/1999/xlink" width="48" height="48" viewBox="0 0 48 48" version="1.1">
<g transform="scale(1.33333333)">
<g id="surface2528">
<path style=" stroke:none;fill-rule:nonzero;fill:rgb(54.509807%,71.764708%,94.117647%);fill-opacity:1;" d="M 13.589844 33.074219 C 7.566406 33.074219 2.476562 26.667969 2.476562 19.078125 L 2.476562 16.558594 C 2.476562 8.914062 6.726562 2.925781 12.148438 2.925781 C 17.730469 2.925781 20.105469 7.609375 21.835938 12.671875 L 22.105469 13.460938 L 24.035156 3.824219 L 28.074219 3.824219 L 24.691406 20.75 L 24.902344 21.476562 C 25.988281 25.242188 27.34375 29.925781 29.699219 29.925781 C 31.78125 29.925781 33.074219 28.113281 33.074219 25.199219 L 33.074219 24.523438 L 33.523438 24.523438 L 33.523438 25.199219 C 33.523438 31.007812 32.0625 32.175781 29.699219 32.175781 C 26.015625 32.175781 23.941406 25.199219 23.921875 25.128906 L 23.722656 24.445312 L 23.492188 25.117188 C 22.25 28.746094 19.523438 33.074219 13.589844 33.074219 Z M 13.589844 5.175781 C 10.003906 5.175781 6.835938 10.277344 6.523438 16.546875 L 6.523438 19.078125 C 6.839844 25.453125 10.078125 30.824219 13.589844 30.824219 C 18.160156 30.824219 21.238281 18.574219 21.367188 18.054688 L 21.382812 18 L 21.367188 17.945312 C 20.042969 12.644531 16.753906 5.175781 13.589844 5.175781 Z M 13.589844 5.175781 "/>
<path style=" stroke:none;fill-rule:nonzero;fill:rgb(30.588236%,47.843137%,70.980394%);fill-opacity:1;" d="M 12.148438 3.148438 C 17.589844 3.148438 19.917969 7.761719 21.625 12.746094 L 22.164062 14.324219 L 22.492188 12.6875 L 24.21875 4.050781 L 27.800781 4.050781 L 24.480469 20.652344 L 24.457031 20.761719 L 24.488281 20.867188 L 24.683594 21.539062 C 25.851562 25.574219 27.171875 30.148438 29.699219 30.148438 C 31.921875 30.148438 33.300781 28.253906 33.300781 25.199219 C 33.300781 31.429688 31.523438 31.949219 29.699219 31.949219 C 26.183594 31.949219 24.160156 25.132812 24.136719 25.066406 L 23.742188 23.699219 L 23.28125 25.042969 C 22.058594 28.605469 19.390625 32.851562 13.589844 32.851562 C 7.6875 32.851562 2.699219 26.542969 2.699219 19.078125 L 2.699219 16.558594 C 2.699219 12.933594 3.6875 9.546875 5.480469 7.019531 C 7.25 4.523438 9.617188 3.148438 12.148438 3.148438 M 13.589844 31.050781 C 18.253906 31.050781 21.261719 19.433594 21.585938 18.109375 L 21.613281 18 L 21.585938 17.890625 C 20.53125 13.667969 17.1875 4.949219 13.589844 4.949219 C 9.886719 4.949219 6.617188 10.148438 6.300781 16.558594 L 6.300781 19.101562 C 6.621094 25.578125 9.960938 31.050781 13.589844 31.050781 M 12.148438 2.699219 C 6.582031 2.699219 2.25 8.90625 2.25 16.558594 L 2.25 19.078125 C 2.25 26.734375 7.328125 33.300781 13.589844 33.300781 C 18.757812 33.300781 22.035156 30.066406 23.707031 25.191406 C 23.707031 25.191406 25.800781 32.398438 29.699219 32.398438 C 32.25 32.398438 33.75 31.03125 33.75 25.199219 L 33.75 24.300781 L 32.851562 24.300781 L 32.851562 25.199219 C 32.851562 27.636719 31.894531 29.699219 29.699219 29.699219 C 27.375 29.699219 26.007812 24.472656 24.921875 20.738281 L 28.351562 3.601562 L 23.851562 3.601562 L 22.050781 12.601562 C 20.125 6.976562 17.589844 2.699219 12.148438 2.699219 Z M 13.589844 30.601562 C 10.324219 30.601562 7.066406 25.445312 6.75 19.078125 L 6.75 16.558594 C 7.066406 10.191406 10.324219 5.398438 13.589844 5.398438 C 16.601562 5.398438 19.882812 12.9375 21.148438 18 C 21.148438 18 18.039062 30.601562 13.589844 30.601562 Z M 13.589844 30.601562 "/>
</g>
</g>
</svg>
