<?xml version="1.0" encoding="UTF-8"?>
<svg xmlns="http://www.w3.org/2000/svg" xmlns:xlink="http://www.w3.org/1999/xlink" width="48" height="48" viewBox="0 0 48 48" version="1.1">
<g transform="scale(4)">
<g id="surface315">
<path style=" stroke:none;fill-rule:nonzero;fill:rgb(54.509807%,71.764708%,94.117647%);fill-opacity:1;" d="M 7.425781 8.476562 L 11.625 8.476562 L 11.625 11.625 L 7.425781 11.625 Z M 7.425781 8.476562 "/>
<path style=" stroke:none;fill-rule:nonzero;fill:rgb(30.588236%,47.843137%,70.980394%);fill-opacity:1;" d="M 11.550781 8.550781 L 11.550781 11.550781 L 7.5 11.550781 L 7.5 8.550781 L 11.550781 8.550781 M 11.699219 8.398438 L 7.351562 8.398438 L 7.351562 11.699219 L 11.699219 11.699219 Z M 11.699219 8.398438 "/>
<path style=" stroke:none;fill-rule:nonzero;fill:rgb(54.509807%,71.764708%,94.117647%);fill-opacity:1;" d="M 7.425781 3.976562 L 11.625 3.976562 L 11.625 6.976562 L 7.425781 6.976562 Z M 7.425781 3.976562 "/>
<path style=" stroke:none;fill-rule:nonzero;fill:rgb(30.588236%,47.843137%,70.980394%);fill-opacity:1;" d="M 11.550781 4.050781 L 11.550781 6.898438 L 7.5 6.898438 L 7.5 4.050781 L 11.550781 4.050781 M 11.699219 3.898438 L 7.351562 3.898438 L 7.351562 7.050781 L 11.699219 7.050781 Z M 11.699219 3.898438 "/>
<path style=" stroke:none;fill-rule:nonzero;fill:rgb(96.862745%,56.078434%,56.078434%);fill-opacity:1;" d="M 0.375 0.375 L 4.574219 0.375 L 4.574219 3.523438 L 0.375 3.523438 Z M 0.375 0.375 "/>
<path style=" stroke:none;fill-rule:nonzero;fill:rgb(78.039217%,26.274511%,26.274511%);fill-opacity:1;" d="M 4.5 0.449219 L 4.5 3.449219 L 0.449219 3.449219 L 0.449219 0.449219 L 4.5 0.449219 M 4.648438 0.300781 L 0.300781 0.300781 L 0.300781 3.601562 L 4.648438 3.601562 Z M 4.648438 0.300781 "/>
<path style=" stroke:none;fill-rule:nonzero;fill:rgb(40.000001%,47.450981%,56.078434%);fill-opacity:1;" d="M 7.351562 10.050781 L 2.550781 10.050781 L 2.550781 3.601562 L 2.402344 3.601562 L 2.402344 10.199219 L 7.351562 10.199219 Z M 7.351562 10.050781 "/>
<path style=" stroke:none;fill-rule:nonzero;fill:rgb(40.000001%,47.450981%,56.078434%);fill-opacity:1;" d="M 2.402344 5.550781 L 2.402344 5.398438 L 7.351562 5.398438 L 7.351562 5.550781 Z M 2.402344 5.550781 "/>
</g>
</g>
</svg>
