<?xml version="1.0" encoding="UTF-8"?>
<svg xmlns="http://www.w3.org/2000/svg" xmlns:xlink="http://www.w3.org/1999/xlink" width="48" height="48" viewBox="0 0 48 48" version="1.1">
<g transform="scale(1.33333333)">
<g id="surface124">
<path style=" stroke:none;fill-rule:nonzero;fill:rgb(29.019609%,54.901963%,82.745099%);fill-opacity:1;" d="M 18 20.023438 C 16.882812 20.023438 15.976562 19.117188 15.976562 18 C 15.976562 16.882812 16.882812 15.976562 18 15.976562 C 19.117188 15.976562 20.023438 16.882812 20.023438 18 C 20.023438 19.117188 19.117188 20.023438 18 20.023438 Z M 18 20.023438 "/>
<path style=" stroke:none;fill-rule:nonzero;fill:rgb(30.588236%,47.843137%,70.980394%);fill-opacity:1;" d="M 18 16.199219 C 18.992188 16.199219 19.800781 17.007812 19.800781 18 C 19.800781 18.992188 18.992188 19.800781 18 19.800781 C 17.007812 19.800781 16.199219 18.992188 16.199219 18 C 16.199219 17.007812 17.007812 16.199219 18 16.199219 M 18 15.75 C 16.757812 15.75 15.75 16.757812 15.75 18 C 15.75 19.242188 16.757812 20.25 18 20.25 C 19.242188 20.25 20.25 19.242188 20.25 18 C 20.25 16.757812 19.242188 15.75 18 15.75 Z M 18 15.75 "/>
<path style=" stroke:none;fill-rule:nonzero;fill:rgb(76.078433%,90.980393%,100%);fill-opacity:1;" d="M 10.253906 32.992188 C 4.617188 30.074219 1.125 24.351562 1.125 18 C 1.125 11.648438 4.617188 5.925781 10.253906 3.007812 L 10.855469 4.21875 C 5.679688 6.902344 2.476562 12.164062 2.476562 18 C 2.476562 23.835938 5.679688 29.097656 10.855469 31.78125 Z M 10.253906 32.992188 "/>
<path style=" stroke:none;fill-rule:nonzero;fill:rgb(54.509807%,71.764708%,94.117647%);fill-opacity:1;" d="M 10.152344 3.316406 L 10.558594 4.121094 C 5.421875 6.875 2.25 12.152344 2.25 18 C 2.25 23.847656 5.421875 29.125 10.558594 31.878906 L 10.152344 32.683594 C 4.710938 29.777344 1.351562 24.191406 1.351562 18 C 1.351562 11.808594 4.710938 6.222656 10.152344 3.316406 M 10.351562 2.707031 C 4.75 5.511719 0.898438 11.304688 0.898438 18 C 0.898438 24.695312 4.75 30.488281 10.351562 33.292969 L 11.15625 31.683594 C 6.144531 29.171875 2.699219 23.988281 2.699219 18 C 2.699219 12.011719 6.144531 6.828125 11.15625 4.316406 Z M 10.351562 2.707031 "/>
<path style=" stroke:none;fill-rule:nonzero;fill:rgb(76.078433%,90.980393%,100%);fill-opacity:1;" d="M 25.144531 31.78125 C 30.320312 29.097656 33.523438 23.835938 33.523438 18 C 33.523438 12.164062 30.320312 6.902344 25.144531 4.21875 L 25.746094 3.007812 C 31.382812 5.925781 34.875 11.648438 34.875 18 C 34.875 24.351562 31.382812 30.074219 25.746094 32.992188 Z M 25.144531 31.78125 "/>
<path style=" stroke:none;fill-rule:nonzero;fill:rgb(54.509807%,71.764708%,94.117647%);fill-opacity:1;" d="M 25.847656 3.316406 C 31.289062 6.222656 34.648438 11.808594 34.648438 18 C 34.648438 24.191406 31.289062 29.777344 25.847656 32.683594 L 25.441406 31.878906 C 30.578125 29.125 33.75 23.847656 33.75 18 C 33.75 12.152344 30.578125 6.875 25.441406 4.121094 L 25.847656 3.316406 M 25.648438 2.707031 L 24.84375 4.316406 C 29.855469 6.828125 33.300781 12.011719 33.300781 18 C 33.300781 23.988281 29.855469 29.171875 24.84375 31.683594 L 25.648438 33.292969 C 31.25 30.488281 35.101562 24.695312 35.101562 18 C 35.101562 11.304688 31.25 5.511719 25.648438 2.707031 Z M 25.648438 2.707031 "/>
<path style=" stroke:none;fill-rule:nonzero;fill:rgb(54.509807%,71.764708%,94.117647%);fill-opacity:1;" d="M 12.46875 28.5625 C 8.519531 26.492188 6.074219 22.464844 6.074219 18 C 6.074219 13.535156 8.519531 9.507812 12.46875 7.4375 L 13.070312 8.644531 C 9.582031 10.484375 7.425781 14.046875 7.425781 18 C 7.425781 21.953125 9.582031 25.515625 13.070312 27.355469 Z M 12.46875 28.5625 "/>
<path style=" stroke:none;fill-rule:nonzero;fill:rgb(45.490196%,58.823532%,76.862746%);fill-opacity:1;" d="M 12.371094 7.746094 L 12.773438 8.550781 C 9.324219 10.457031 7.199219 14.039062 7.199219 18 C 7.199219 21.960938 9.324219 25.542969 12.773438 27.449219 L 12.371094 28.253906 C 8.613281 26.195312 6.300781 22.304688 6.300781 18 C 6.300781 13.695312 8.613281 9.804688 12.371094 7.746094 M 12.566406 7.132812 C 8.585938 9.128906 5.851562 13.242188 5.851562 18 C 5.851562 22.757812 8.585938 26.871094 12.566406 28.867188 L 13.371094 27.257812 C 9.980469 25.558594 7.648438 22.050781 7.648438 18 C 7.648438 13.949219 9.980469 10.441406 13.371094 8.742188 Z M 12.566406 7.132812 "/>
<path style=" stroke:none;fill-rule:nonzero;fill:rgb(54.509807%,71.764708%,94.117647%);fill-opacity:1;" d="M 22.929688 27.355469 C 26.417969 25.515625 28.574219 21.953125 28.574219 18 C 28.574219 14.046875 26.417969 10.484375 22.929688 8.644531 L 23.53125 7.4375 C 27.480469 9.507812 29.925781 13.535156 29.925781 18 C 29.925781 22.464844 27.480469 26.492188 23.53125 28.5625 Z M 22.929688 27.355469 "/>
<path style=" stroke:none;fill-rule:nonzero;fill:rgb(45.490196%,58.823532%,76.862746%);fill-opacity:1;" d="M 23.628906 7.746094 C 27.386719 9.804688 29.699219 13.695312 29.699219 18 C 29.699219 22.304688 27.386719 26.195312 23.628906 28.253906 L 23.226562 27.449219 C 26.675781 25.542969 28.800781 21.960938 28.800781 18 C 28.800781 14.039062 26.675781 10.457031 23.226562 8.550781 L 23.628906 7.746094 M 23.433594 7.132812 L 22.628906 8.742188 C 26.019531 10.441406 28.351562 13.949219 28.351562 18 C 28.351562 22.050781 26.019531 25.558594 22.628906 27.257812 L 23.433594 28.867188 C 27.414062 26.871094 30.148438 22.757812 30.148438 18 C 30.148438 13.242188 27.414062 9.128906 23.433594 7.132812 Z M 23.433594 7.132812 "/>
<path style=" stroke:none;fill-rule:nonzero;fill:rgb(29.019609%,54.901963%,82.745099%);fill-opacity:1;" d="M 20.710938 22.921875 C 22.515625 21.929688 23.625 20.066406 23.625 18 C 23.625 15.933594 22.515625 14.070312 20.714844 13.078125 L 21.316406 11.871094 C 23.578125 13.09375 24.976562 15.421875 24.976562 18 C 24.976562 20.578125 23.578125 22.90625 21.316406 24.128906 Z M 20.710938 22.921875 "/>
<path style=" stroke:none;fill-rule:nonzero;fill:rgb(30.588236%,47.843137%,70.980394%);fill-opacity:1;" d="M 21.410156 12.183594 C 23.480469 13.394531 24.75 15.582031 24.75 18 C 24.75 20.417969 23.480469 22.605469 21.410156 23.816406 L 21.007812 23.011719 C 22.773438 21.957031 23.851562 20.074219 23.851562 18 C 23.851562 15.925781 22.773438 14.042969 21.007812 12.988281 L 21.410156 12.183594 M 21.21875 11.566406 L 20.414062 13.175781 C 22.183594 14.0625 23.398438 15.886719 23.398438 18 C 23.398438 20.113281 22.183594 21.9375 20.414062 22.824219 L 21.21875 24.433594 C 23.578125 23.253906 25.199219 20.820312 25.199219 18 C 25.199219 15.179688 23.578125 12.746094 21.21875 11.566406 Z M 21.21875 11.566406 "/>
<path style=" stroke:none;fill-rule:nonzero;fill:rgb(29.019609%,54.901963%,82.745099%);fill-opacity:1;" d="M 14.683594 24.128906 C 12.421875 22.90625 11.023438 20.578125 11.023438 18 C 11.023438 15.421875 12.421875 13.09375 14.683594 11.871094 L 15.285156 13.078125 C 13.484375 14.070312 12.375 15.933594 12.375 18 C 12.375 20.066406 13.484375 21.929688 15.289062 22.921875 Z M 14.683594 24.128906 "/>
<path style=" stroke:none;fill-rule:nonzero;fill:rgb(30.588236%,47.843137%,70.980394%);fill-opacity:1;" d="M 14.589844 12.183594 L 14.992188 12.988281 C 13.226562 14.042969 12.148438 15.925781 12.148438 18 C 12.148438 20.074219 13.226562 21.957031 14.992188 23.011719 L 14.589844 23.816406 C 12.519531 22.605469 11.25 20.417969 11.25 18 C 11.25 15.582031 12.519531 13.394531 14.589844 12.183594 M 14.78125 11.566406 C 12.421875 12.746094 10.800781 15.179688 10.800781 18 C 10.800781 20.820312 12.421875 23.253906 14.78125 24.433594 L 15.585938 22.824219 C 13.816406 21.9375 12.601562 20.113281 12.601562 18 C 12.601562 15.886719 13.816406 14.0625 15.585938 13.175781 Z M 14.78125 11.566406 "/>
</g>
</g>
</svg>
