<?xml version="1.0" encoding="UTF-8"?>
<svg xmlns="http://www.w3.org/2000/svg" xmlns:xlink="http://www.w3.org/1999/xlink" width="48" height="48" viewBox="0 0 48 48" version="1.1">
<g transform="scale(1.33333333)">
<g id="surface2679">
<path style=" stroke:none;fill-rule:nonzero;fill:rgb(85.882354%,69.01961%,39.607844%);fill-opacity:1;" d="M 1.125 32.175781 L 1.125 3.824219 L 10.707031 3.824219 L 13.40625 6.523438 L 33.074219 6.523438 L 33.074219 32.175781 Z M 1.125 32.175781 "/>
<path style=" stroke:none;fill-rule:nonzero;fill:rgb(58.823532%,47.843137%,26.666668%);fill-opacity:1;" d="M 10.613281 4.050781 L 13.183594 6.617188 L 13.3125 6.75 L 32.851562 6.75 L 32.851562 31.949219 L 1.351562 31.949219 L 1.351562 4.050781 L 10.613281 4.050781 M 10.800781 3.601562 L 0.898438 3.601562 L 0.898438 32.398438 L 33.300781 32.398438 L 33.300781 6.300781 L 13.5 6.300781 Z M 10.800781 3.601562 "/>
<path style=" stroke:none;fill-rule:nonzero;fill:rgb(96.078432%,80.784315%,52.156866%);fill-opacity:1;" d="M 1.15625 32.175781 L 3.796875 12.824219 L 13.566406 12.824219 L 16.269531 11.023438 L 35.746094 11.023438 L 33.101562 32.175781 Z M 1.15625 32.175781 "/>
<path style=" stroke:none;fill-rule:nonzero;fill:rgb(58.823532%,47.843137%,26.666668%);fill-opacity:1;" d="M 35.488281 11.25 L 32.902344 31.949219 L 1.414062 31.949219 L 3.992188 13.050781 L 13.636719 13.050781 L 13.75 12.972656 L 16.335938 11.25 L 35.488281 11.25 M 36 10.800781 L 16.199219 10.800781 L 13.5 12.601562 L 3.601562 12.601562 L 0.898438 32.398438 L 33.300781 32.398438 Z M 36 10.800781 "/>
</g>
</g>
</svg>
