<?xml version="1.0" encoding="UTF-8"?>
<svg xmlns="http://www.w3.org/2000/svg" xmlns:xlink="http://www.w3.org/1999/xlink" width="48" height="48" viewBox="0 0 48 48" version="1.1">
<g transform="scale(1.33333333)">
<g id="surface2695">
<path style=" stroke:none;fill-rule:nonzero;fill:rgb(100%,100%,100%);fill-opacity:1;" d="M 18 29.476562 C 8.851562 29.476562 1.191406 19.265625 0.277344 18 C 1.191406 16.734375 8.851562 6.523438 18 6.523438 C 27.148438 6.523438 34.808594 16.734375 35.722656 18 C 34.808594 19.265625 27.148438 29.476562 18 29.476562 Z M 18 29.476562 "/>
<path style=" stroke:none;fill-rule:nonzero;fill:rgb(72.941178%,60.784316%,28.235295%);fill-opacity:1;" d="M 18 6.75 C 26.777344 6.75 34.199219 16.300781 35.445312 18 C 34.199219 19.699219 26.777344 29.25 18 29.25 C 9.222656 29.25 1.800781 19.699219 0.554688 18 C 1.800781 16.300781 9.222656 6.75 18 6.75 M 18 6.300781 C 8.058594 6.300781 0 18 0 18 C 0 18 8.058594 29.699219 18 29.699219 C 27.941406 29.699219 36 18 36 18 C 36 18 27.941406 6.300781 18 6.300781 Z M 18 6.300781 "/>
<path style=" stroke:none;fill-rule:nonzero;fill:rgb(54.509807%,71.764708%,94.117647%);fill-opacity:1;" d="M 18 25.875 C 13.65625 25.875 10.125 22.34375 10.125 18 C 10.125 13.65625 13.65625 10.125 18 10.125 C 22.34375 10.125 25.875 13.65625 25.875 18 C 25.875 22.34375 22.34375 25.875 18 25.875 Z M 18 25.875 "/>
<path style=" stroke:none;fill-rule:nonzero;fill:rgb(30.588236%,47.843137%,70.980394%);fill-opacity:1;" d="M 18 10.351562 C 22.21875 10.351562 25.648438 13.78125 25.648438 18 C 25.648438 22.21875 22.21875 25.648438 18 25.648438 C 13.78125 25.648438 10.351562 22.21875 10.351562 18 C 10.351562 13.78125 13.78125 10.351562 18 10.351562 M 18 9.898438 C 13.527344 9.898438 9.898438 13.527344 9.898438 18 C 9.898438 22.472656 13.527344 26.101562 18 26.101562 C 22.472656 26.101562 26.101562 22.472656 26.101562 18 C 26.101562 13.527344 22.472656 9.898438 18 9.898438 Z M 18 9.898438 "/>
<path style=" stroke:none;fill-rule:nonzero;fill:rgb(21.176471%,25.098041%,30.19608%);fill-opacity:1;" d="M 18 14.398438 C 16.011719 14.398438 14.398438 16.011719 14.398438 18 C 14.398438 19.988281 16.011719 21.601562 18 21.601562 C 19.988281 21.601562 21.601562 19.988281 21.601562 18 C 21.601562 16.011719 19.988281 14.398438 18 14.398438 Z M 18 14.398438 "/>
<path style=" stroke:none;fill-rule:nonzero;fill:rgb(100%,100%,100%);fill-opacity:1;" d="M 20.699219 12.601562 C 19.707031 12.601562 18.898438 13.40625 18.898438 14.398438 C 18.898438 15.394531 19.707031 16.199219 20.699219 16.199219 C 21.695312 16.199219 22.5 15.394531 22.5 14.398438 C 22.5 13.40625 21.695312 12.601562 20.699219 12.601562 Z M 20.699219 12.601562 "/>
</g>
</g>
</svg>
