<?xml version="1.0" encoding="UTF-8"?>
<svg xmlns="http://www.w3.org/2000/svg" xmlns:xlink="http://www.w3.org/1999/xlink" width="48" height="48" viewBox="0 0 48 48" version="1.1">
<g transform="scale(1.33333333)">
<g id="surface2759">
<path style="fill-rule:nonzero;fill:rgb(88.235295%,92.156863%,94.901961%);fill-opacity:1;stroke-width:1;stroke-linecap:butt;stroke-linejoin:miter;stroke:rgb(40.000001%,47.450981%,56.078434%);stroke-opacity:1;stroke-miterlimit:10;" d="M 8.498264 4.496528 L 71.501736 4.496528 C 73.706597 4.496528 75.503472 6.293403 75.503472 8.498264 L 75.503472 71.501736 C 75.503472 73.706597 73.706597 75.503472 71.501736 75.503472 L 8.498264 75.503472 C 6.293403 75.503472 4.496528 73.706597 4.496528 71.501736 L 4.496528 8.498264 C 4.496528 6.293403 6.293403 4.496528 8.498264 4.496528 Z M 8.498264 4.496528 " transform="matrix(0.45,0,0,0.45,0,0)"/>
<path style=" stroke:none;fill-rule:nonzero;fill:rgb(54.509807%,71.764708%,94.117647%);fill-opacity:1;" d="M 5.398438 12.824219 C 5.277344 12.824219 5.175781 12.722656 5.175781 12.601562 L 5.175781 5.398438 C 5.175781 5.277344 5.277344 5.175781 5.398438 5.175781 L 12.601562 5.175781 C 12.722656 5.175781 12.824219 5.277344 12.824219 5.398438 L 12.824219 12.601562 C 12.824219 12.722656 12.722656 12.824219 12.601562 12.824219 Z M 5.398438 12.824219 "/>
<path style=" stroke:none;fill-rule:nonzero;fill:rgb(30.588236%,47.843137%,70.980394%);fill-opacity:1;" d="M 12.601562 5.398438 L 12.601562 12.601562 L 5.398438 12.601562 L 5.398438 5.398438 L 12.601562 5.398438 M 12.601562 4.949219 L 5.398438 4.949219 C 5.152344 4.949219 4.949219 5.152344 4.949219 5.398438 L 4.949219 12.601562 C 4.949219 12.847656 5.152344 13.050781 5.398438 13.050781 L 12.601562 13.050781 C 12.847656 13.050781 13.050781 12.847656 13.050781 12.601562 L 13.050781 5.398438 C 13.050781 5.152344 12.847656 4.949219 12.601562 4.949219 Z M 12.601562 4.949219 "/>
<path style=" stroke:none;fill-rule:nonzero;fill:rgb(54.509807%,71.764708%,94.117647%);fill-opacity:1;" d="M 23.398438 12.824219 C 23.277344 12.824219 23.175781 12.722656 23.175781 12.601562 L 23.175781 5.398438 C 23.175781 5.277344 23.277344 5.175781 23.398438 5.175781 L 30.601562 5.175781 C 30.722656 5.175781 30.824219 5.277344 30.824219 5.398438 L 30.824219 12.601562 C 30.824219 12.722656 30.722656 12.824219 30.601562 12.824219 Z M 23.398438 12.824219 "/>
<path style=" stroke:none;fill-rule:nonzero;fill:rgb(30.588236%,47.843137%,70.980394%);fill-opacity:1;" d="M 30.601562 5.398438 L 30.601562 12.601562 L 23.398438 12.601562 L 23.398438 5.398438 L 30.601562 5.398438 M 30.601562 4.949219 L 23.398438 4.949219 C 23.152344 4.949219 22.949219 5.152344 22.949219 5.398438 L 22.949219 12.601562 C 22.949219 12.847656 23.152344 13.050781 23.398438 13.050781 L 30.601562 13.050781 C 30.847656 13.050781 31.050781 12.847656 31.050781 12.601562 L 31.050781 5.398438 C 31.050781 5.152344 30.847656 4.949219 30.601562 4.949219 Z M 30.601562 4.949219 "/>
<path style=" stroke:none;fill-rule:nonzero;fill:rgb(54.509807%,71.764708%,94.117647%);fill-opacity:1;" d="M 5.398438 30.824219 C 5.277344 30.824219 5.175781 30.722656 5.175781 30.601562 L 5.175781 23.398438 C 5.175781 23.277344 5.277344 23.175781 5.398438 23.175781 L 12.601562 23.175781 C 12.722656 23.175781 12.824219 23.277344 12.824219 23.398438 L 12.824219 30.601562 C 12.824219 30.722656 12.722656 30.824219 12.601562 30.824219 Z M 5.398438 30.824219 "/>
<path style=" stroke:none;fill-rule:nonzero;fill:rgb(30.588236%,47.843137%,70.980394%);fill-opacity:1;" d="M 12.601562 23.398438 L 12.601562 30.601562 L 5.398438 30.601562 L 5.398438 23.398438 L 12.601562 23.398438 M 12.601562 22.949219 L 5.398438 22.949219 C 5.152344 22.949219 4.949219 23.152344 4.949219 23.398438 L 4.949219 30.601562 C 4.949219 30.847656 5.152344 31.050781 5.398438 31.050781 L 12.601562 31.050781 C 12.847656 31.050781 13.050781 30.847656 13.050781 30.601562 L 13.050781 23.398438 C 13.050781 23.152344 12.847656 22.949219 12.601562 22.949219 Z M 12.601562 22.949219 "/>
<path style=" stroke:none;fill-rule:nonzero;fill:rgb(54.509807%,71.764708%,94.117647%);fill-opacity:1;" d="M 23.398438 30.824219 C 23.277344 30.824219 23.175781 30.722656 23.175781 30.601562 L 23.175781 23.398438 C 23.175781 23.277344 23.277344 23.175781 23.398438 23.175781 L 30.601562 23.175781 C 30.722656 23.175781 30.824219 23.277344 30.824219 23.398438 L 30.824219 30.601562 C 30.824219 30.722656 30.722656 30.824219 30.601562 30.824219 Z M 23.398438 30.824219 "/>
<path style=" stroke:none;fill-rule:nonzero;fill:rgb(30.588236%,47.843137%,70.980394%);fill-opacity:1;" d="M 30.601562 23.398438 L 30.601562 30.601562 L 23.398438 30.601562 L 23.398438 23.398438 L 30.601562 23.398438 M 30.601562 22.949219 L 23.398438 22.949219 C 23.152344 22.949219 22.949219 23.152344 22.949219 23.398438 L 22.949219 30.601562 C 22.949219 30.847656 23.152344 31.050781 23.398438 31.050781 L 30.601562 31.050781 C 30.847656 31.050781 31.050781 30.847656 31.050781 30.601562 L 31.050781 23.398438 C 31.050781 23.152344 30.847656 22.949219 30.601562 22.949219 Z M 30.601562 22.949219 "/>
<path style=" stroke:none;fill-rule:nonzero;fill:rgb(54.509807%,71.764708%,94.117647%);fill-opacity:1;" d="M 8.773438 20.925781 L 9.226562 20.925781 L 9.226562 23.175781 L 8.773438 23.175781 Z M 8.773438 20.925781 "/>
<path style=" stroke:none;fill-rule:nonzero;fill:rgb(30.588236%,47.843137%,70.980394%);fill-opacity:1;" d="M 9 21.148438 L 9 22.949219 L 9 21.148438 M 9.449219 20.699219 L 8.550781 20.699219 L 8.550781 23.398438 L 9.449219 23.398438 Z M 9.449219 20.699219 "/>
<path style=" stroke:none;fill-rule:nonzero;fill:rgb(54.509807%,71.764708%,94.117647%);fill-opacity:1;" d="M 8.773438 19.125 L 9.226562 19.125 L 9.226562 19.574219 L 8.773438 19.574219 Z M 8.773438 19.125 "/>
<path style=" stroke:none;fill-rule:nonzero;fill:rgb(30.588236%,47.843137%,70.980394%);fill-opacity:1;" d="M 9.449219 18.898438 L 8.550781 18.898438 L 8.550781 19.800781 L 9.449219 19.800781 Z M 9.449219 18.898438 "/>
<path style=" stroke:none;fill-rule:nonzero;fill:rgb(54.509807%,71.764708%,94.117647%);fill-opacity:1;" d="M 8.773438 17.324219 L 9.226562 17.324219 L 9.226562 17.773438 L 8.773438 17.773438 Z M 8.773438 17.324219 "/>
<path style=" stroke:none;fill-rule:nonzero;fill:rgb(30.588236%,47.843137%,70.980394%);fill-opacity:1;" d="M 9.449219 17.101562 L 8.550781 17.101562 L 8.550781 18 L 9.449219 18 Z M 9.449219 17.101562 "/>
<path style=" stroke:none;fill-rule:nonzero;fill:rgb(54.509807%,71.764708%,94.117647%);fill-opacity:1;" d="M 8.773438 15.523438 L 9.226562 15.523438 L 9.226562 15.976562 L 8.773438 15.976562 Z M 8.773438 15.523438 "/>
<path style=" stroke:none;fill-rule:nonzero;fill:rgb(30.588236%,47.843137%,70.980394%);fill-opacity:1;" d="M 9.449219 15.300781 L 8.550781 15.300781 L 8.550781 16.199219 L 9.449219 16.199219 Z M 9.449219 15.300781 "/>
<path style=" stroke:none;fill-rule:nonzero;fill:rgb(54.509807%,71.764708%,94.117647%);fill-opacity:1;" d="M 8.773438 12.824219 L 9.226562 12.824219 L 9.226562 14.175781 L 8.773438 14.175781 Z M 8.773438 12.824219 "/>
<path style=" stroke:none;fill-rule:nonzero;fill:rgb(30.588236%,47.843137%,70.980394%);fill-opacity:1;" d="M 9 13.050781 L 9 13.949219 L 9 13.050781 M 9.449219 12.601562 L 8.550781 12.601562 L 8.550781 14.398438 L 9.449219 14.398438 Z M 9.449219 12.601562 "/>
<path style=" stroke:none;fill-rule:nonzero;fill:rgb(54.509807%,71.764708%,94.117647%);fill-opacity:1;" d="M 12.824219 8.773438 L 15.074219 8.773438 L 15.074219 9.226562 L 12.824219 9.226562 Z M 12.824219 8.773438 "/>
<path style=" stroke:none;fill-rule:nonzero;fill:rgb(30.588236%,47.843137%,70.980394%);fill-opacity:1;" d="M 15.300781 8.550781 L 12.601562 8.550781 L 12.601562 9.449219 L 15.300781 9.449219 Z M 15.300781 8.550781 "/>
<path style=" stroke:none;fill-rule:nonzero;fill:rgb(54.509807%,71.764708%,94.117647%);fill-opacity:1;" d="M 16.425781 8.773438 L 16.875 8.773438 L 16.875 9.226562 L 16.425781 9.226562 Z M 16.425781 8.773438 "/>
<path style=" stroke:none;fill-rule:nonzero;fill:rgb(30.588236%,47.843137%,70.980394%);fill-opacity:1;" d="M 17.101562 8.550781 L 16.199219 8.550781 L 16.199219 9.449219 L 17.101562 9.449219 Z M 17.101562 8.550781 "/>
<path style=" stroke:none;fill-rule:nonzero;fill:rgb(54.509807%,71.764708%,94.117647%);fill-opacity:1;" d="M 18.226562 8.773438 L 18.675781 8.773438 L 18.675781 9.226562 L 18.226562 9.226562 Z M 18.226562 8.773438 "/>
<path style=" stroke:none;fill-rule:nonzero;fill:rgb(30.588236%,47.843137%,70.980394%);fill-opacity:1;" d="M 18.898438 8.550781 L 18 8.550781 L 18 9.449219 L 18.898438 9.449219 Z M 18.898438 8.550781 "/>
<path style=" stroke:none;fill-rule:nonzero;fill:rgb(54.509807%,71.764708%,94.117647%);fill-opacity:1;" d="M 20.023438 8.773438 L 20.476562 8.773438 L 20.476562 9.226562 L 20.023438 9.226562 Z M 20.023438 8.773438 "/>
<path style=" stroke:none;fill-rule:nonzero;fill:rgb(30.588236%,47.843137%,70.980394%);fill-opacity:1;" d="M 20.699219 8.550781 L 19.800781 8.550781 L 19.800781 9.449219 L 20.699219 9.449219 Z M 20.699219 8.550781 "/>
<path style=" stroke:none;fill-rule:nonzero;fill:rgb(54.509807%,71.764708%,94.117647%);fill-opacity:1;" d="M 21.824219 8.773438 L 23.175781 8.773438 L 23.175781 9.226562 L 21.824219 9.226562 Z M 21.824219 8.773438 "/>
<path style=" stroke:none;fill-rule:nonzero;fill:rgb(30.588236%,47.843137%,70.980394%);fill-opacity:1;" d="M 23.398438 8.550781 L 21.601562 8.550781 L 21.601562 9.449219 L 23.398438 9.449219 Z M 23.398438 8.550781 "/>
<path style=" stroke:none;fill-rule:nonzero;fill:rgb(54.509807%,71.764708%,94.117647%);fill-opacity:1;" d="M 26.773438 12.824219 L 27.226562 12.824219 L 27.226562 15.074219 L 26.773438 15.074219 Z M 26.773438 12.824219 "/>
<path style=" stroke:none;fill-rule:nonzero;fill:rgb(30.588236%,47.843137%,70.980394%);fill-opacity:1;" d="M 27 13.050781 L 27 14.851562 L 27 13.050781 M 27.449219 12.601562 L 26.550781 12.601562 L 26.550781 15.300781 L 27.449219 15.300781 Z M 27.449219 12.601562 "/>
<path style=" stroke:none;fill-rule:nonzero;fill:rgb(54.509807%,71.764708%,94.117647%);fill-opacity:1;" d="M 26.773438 16.425781 L 27.226562 16.425781 L 27.226562 16.875 L 26.773438 16.875 Z M 26.773438 16.425781 "/>
<path style=" stroke:none;fill-rule:nonzero;fill:rgb(30.588236%,47.843137%,70.980394%);fill-opacity:1;" d="M 27.449219 16.199219 L 26.550781 16.199219 L 26.550781 17.101562 L 27.449219 17.101562 Z M 27.449219 16.199219 "/>
<path style=" stroke:none;fill-rule:nonzero;fill:rgb(54.509807%,71.764708%,94.117647%);fill-opacity:1;" d="M 26.773438 18.226562 L 27.226562 18.226562 L 27.226562 18.675781 L 26.773438 18.675781 Z M 26.773438 18.226562 "/>
<path style=" stroke:none;fill-rule:nonzero;fill:rgb(30.588236%,47.843137%,70.980394%);fill-opacity:1;" d="M 27.449219 18 L 26.550781 18 L 26.550781 18.898438 L 27.449219 18.898438 Z M 27.449219 18 "/>
<path style=" stroke:none;fill-rule:nonzero;fill:rgb(54.509807%,71.764708%,94.117647%);fill-opacity:1;" d="M 26.773438 20.023438 L 27.226562 20.023438 L 27.226562 20.476562 L 26.773438 20.476562 Z M 26.773438 20.023438 "/>
<path style=" stroke:none;fill-rule:nonzero;fill:rgb(30.588236%,47.843137%,70.980394%);fill-opacity:1;" d="M 27.449219 19.800781 L 26.550781 19.800781 L 26.550781 20.699219 L 27.449219 20.699219 Z M 27.449219 19.800781 "/>
<path style=" stroke:none;fill-rule:nonzero;fill:rgb(54.509807%,71.764708%,94.117647%);fill-opacity:1;" d="M 26.773438 21.824219 L 27.226562 21.824219 L 27.226562 23.175781 L 26.773438 23.175781 Z M 26.773438 21.824219 "/>
<path style=" stroke:none;fill-rule:nonzero;fill:rgb(30.588236%,47.843137%,70.980394%);fill-opacity:1;" d="M 27 22.050781 L 27 22.949219 L 27 22.050781 M 27.449219 21.601562 L 26.550781 21.601562 L 26.550781 23.398438 L 27.449219 23.398438 Z M 27.449219 21.601562 "/>
<path style=" stroke:none;fill-rule:nonzero;fill:rgb(54.509807%,71.764708%,94.117647%);fill-opacity:1;" d="M 20.925781 26.773438 L 23.175781 26.773438 L 23.175781 27.226562 L 20.925781 27.226562 Z M 20.925781 26.773438 "/>
<path style=" stroke:none;fill-rule:nonzero;fill:rgb(30.588236%,47.843137%,70.980394%);fill-opacity:1;" d="M 23.398438 26.550781 L 20.699219 26.550781 L 20.699219 27.449219 L 23.398438 27.449219 Z M 23.398438 26.550781 "/>
<path style=" stroke:none;fill-rule:nonzero;fill:rgb(54.509807%,71.764708%,94.117647%);fill-opacity:1;" d="M 19.125 26.773438 L 19.574219 26.773438 L 19.574219 27.226562 L 19.125 27.226562 Z M 19.125 26.773438 "/>
<path style=" stroke:none;fill-rule:nonzero;fill:rgb(30.588236%,47.843137%,70.980394%);fill-opacity:1;" d="M 19.800781 26.550781 L 18.898438 26.550781 L 18.898438 27.449219 L 19.800781 27.449219 Z M 19.800781 26.550781 "/>
<path style=" stroke:none;fill-rule:nonzero;fill:rgb(54.509807%,71.764708%,94.117647%);fill-opacity:1;" d="M 17.324219 26.773438 L 17.773438 26.773438 L 17.773438 27.226562 L 17.324219 27.226562 Z M 17.324219 26.773438 "/>
<path style=" stroke:none;fill-rule:nonzero;fill:rgb(30.588236%,47.843137%,70.980394%);fill-opacity:1;" d="M 18 26.550781 L 17.101562 26.550781 L 17.101562 27.449219 L 18 27.449219 Z M 18 26.550781 "/>
<path style=" stroke:none;fill-rule:nonzero;fill:rgb(54.509807%,71.764708%,94.117647%);fill-opacity:1;" d="M 15.523438 26.773438 L 15.976562 26.773438 L 15.976562 27.226562 L 15.523438 27.226562 Z M 15.523438 26.773438 "/>
<path style=" stroke:none;fill-rule:nonzero;fill:rgb(30.588236%,47.843137%,70.980394%);fill-opacity:1;" d="M 16.199219 26.550781 L 15.300781 26.550781 L 15.300781 27.449219 L 16.199219 27.449219 Z M 16.199219 26.550781 "/>
<path style=" stroke:none;fill-rule:nonzero;fill:rgb(54.509807%,71.764708%,94.117647%);fill-opacity:1;" d="M 12.824219 26.773438 L 14.175781 26.773438 L 14.175781 27.226562 L 12.824219 27.226562 Z M 12.824219 26.773438 "/>
<path style=" stroke:none;fill-rule:nonzero;fill:rgb(30.588236%,47.843137%,70.980394%);fill-opacity:1;" d="M 14.398438 26.550781 L 12.601562 26.550781 L 12.601562 27.449219 L 14.398438 27.449219 Z M 14.398438 26.550781 "/>
</g>
</g>
</svg>
