<?xml version="1.0" encoding="UTF-8"?>
<svg xmlns="http://www.w3.org/2000/svg" xmlns:xlink="http://www.w3.org/1999/xlink" width="24" height="24" viewBox="0 0 24 24" version="1.1">
<g transform="scale(1.33333333)">
<g id="surface98">
<path style=" stroke:none;fill-rule:evenodd;fill:rgb(69.01961%,75.686276%,83.137256%);fill-opacity:1;" d="M 0.898438 10.789062 L 0.898438 8.390625 C 0.898438 7.894531 1.304688 7.492188 1.800781 7.492188 C 2.296875 7.492188 2.703125 7.894531 2.703125 8.390625 L 2.703125 10.789062 C 2.703125 11.289062 2.296875 11.691406 1.800781 11.691406 C 1.300781 11.691406 0.898438 11.289062 0.898438 10.789062 Z M 0.898438 10.789062 "/>
<path style=" stroke:none;fill-rule:evenodd;fill:rgb(40.000001%,47.450981%,56.078434%);fill-opacity:1;" d="M 0.597656 10.789062 L 0.601562 8.390625 C 0.601562 7.730469 1.136719 7.191406 1.800781 7.191406 C 2.464844 7.191406 3 7.730469 3 8.390625 L 3 10.789062 C 3 11.453125 2.460938 11.992188 1.800781 11.992188 C 1.136719 11.992188 0.597656 11.453125 0.597656 10.789062 Z M 2.402344 10.792969 L 2.402344 8.390625 C 2.402344 8.0625 2.132812 7.789062 1.800781 7.789062 C 1.46875 7.789062 1.199219 8.0625 1.199219 8.390625 L 1.199219 10.792969 C 1.199219 11.121094 1.46875 11.390625 1.800781 11.390625 C 2.132812 11.390625 2.402344 11.121094 2.402344 10.792969 Z M 2.402344 10.792969 "/>
<path style=" stroke:none;fill-rule:evenodd;fill:rgb(69.01961%,75.686276%,83.137256%);fill-opacity:1;" d="M 8.089844 6.601562 L 8.089844 1.792969 C 8.089844 1.296875 8.363281 0.890625 8.699219 0.890625 C 9.035156 0.890625 9.304688 1.296875 9.304688 1.792969 L 9.304688 6.601562 C 9.304688 7.101562 9.035156 7.503906 8.699219 7.503906 C 8.363281 7.503906 8.089844 7.101562 8.089844 6.601562 Z M 8.089844 6.601562 "/>
<path style=" stroke:none;fill-rule:evenodd;fill:rgb(40.000001%,47.450981%,56.078434%);fill-opacity:1;" d="M 8.019531 7.40625 C 7.871094 7.1875 7.789062 6.902344 7.789062 6.601562 L 7.789062 1.792969 C 7.789062 1.496094 7.871094 1.210938 8.019531 0.988281 C 8.167969 0.769531 8.402344 0.59375 8.699219 0.59375 C 8.992188 0.59375 9.230469 0.773438 9.375 0.988281 C 9.523438 1.210938 9.605469 1.496094 9.605469 1.792969 L 9.605469 6.601562 C 9.605469 6.902344 9.523438 7.1875 9.375 7.40625 C 9.230469 7.628906 8.992188 7.804688 8.699219 7.804688 C 8.402344 7.804688 8.164062 7.625 8.019531 7.40625 Z M 9.007812 6.601562 L 9.007812 1.792969 C 9.007812 1.425781 8.820312 1.191406 8.699219 1.191406 C 8.578125 1.191406 8.390625 1.421875 8.390625 1.792969 L 8.390625 6.601562 C 8.390625 6.972656 8.578125 7.203125 8.699219 7.203125 C 8.816406 7.203125 9.007812 6.976562 9.007812 6.601562 Z M 9.007812 6.601562 "/>
<path style=" stroke:none;fill-rule:evenodd;fill:rgb(69.01961%,75.686276%,83.137256%);fill-opacity:1;" d="M 16.5 10.789062 L 16.5 8.390625 C 16.5 7.894531 16.097656 7.492188 15.597656 7.492188 C 15.101562 7.492188 14.699219 7.894531 14.699219 8.390625 L 14.699219 10.789062 C 14.699219 11.289062 15.101562 11.691406 15.601562 11.691406 C 16.097656 11.691406 16.5 11.289062 16.5 10.789062 Z M 16.5 10.789062 "/>
<path style=" stroke:none;fill-rule:evenodd;fill:rgb(40.000001%,47.450981%,56.078434%);fill-opacity:1;" d="M 14.398438 10.789062 L 14.398438 8.390625 C 14.398438 7.730469 14.9375 7.191406 15.597656 7.191406 C 16.261719 7.191406 16.800781 7.730469 16.800781 8.390625 L 16.800781 10.789062 C 16.800781 11.453125 16.261719 11.992188 15.597656 11.992188 C 14.9375 11.992188 14.398438 11.453125 14.398438 10.789062 Z M 16.199219 10.792969 L 16.199219 8.390625 C 16.199219 8.0625 15.929688 7.789062 15.597656 7.789062 C 15.269531 7.789062 15 8.0625 15 8.390625 L 15 10.792969 C 15 11.121094 15.265625 11.390625 15.601562 11.390625 C 15.929688 11.390625 16.199219 11.121094 16.199219 10.792969 Z M 16.199219 10.792969 "/>
<path style=" stroke:none;fill-rule:evenodd;fill:rgb(54.509807%,71.764708%,94.117647%);fill-opacity:1;" d="M 4.5 17.273438 L 4.5 14.699219 L 2.097656 14.699219 L 2.097656 4.5 L 15.300781 4.5 L 15.300781 14.699219 L 7.074219 14.699219 Z M 4.5 17.273438 "/>
<path style=" stroke:none;fill-rule:evenodd;fill:rgb(30.588236%,48.235294%,70.980394%);fill-opacity:1;" d="M 4.199219 18 L 4.199219 15 L 1.800781 15 L 1.800781 4.199219 L 15.597656 4.199219 L 15.597656 15 L 7.199219 15 Z M 4.800781 16.550781 L 6.949219 14.398438 L 15 14.398438 L 15 4.796875 L 2.398438 4.796875 L 2.398438 14.398438 L 4.800781 14.398438 Z M 4.800781 16.550781 "/>
<path style=" stroke:none;fill-rule:evenodd;fill:rgb(100%,100%,100%);fill-opacity:1;" d="M 7.199219 11.398438 L 10.800781 11.398438 C 10.535156 12.097656 9.828125 12.597656 9 12.597656 C 8.171875 12.597656 7.464844 12.097656 7.199219 11.398438 Z M 7.199219 11.398438 "/>
<path style=" stroke:none;fill-rule:evenodd;fill:rgb(100%,100%,100%);fill-opacity:1;" d="M 7.199219 8.402344 C 7.199219 9.0625 6.664062 9.601562 6 9.601562 C 5.335938 9.601562 4.796875 9.0625 4.796875 8.402344 C 4.796875 7.738281 5.335938 7.199219 6 7.199219 C 6.664062 7.199219 7.199219 7.738281 7.199219 8.402344 Z M 7.199219 8.402344 "/>
<path style=" stroke:none;fill-rule:evenodd;fill:rgb(100%,100%,100%);fill-opacity:1;" d="M 13.199219 8.398438 C 13.199219 9.0625 12.664062 9.597656 12 9.597656 C 11.335938 9.597656 10.800781 9.0625 10.800781 8.398438 C 10.800781 7.738281 11.335938 7.199219 12 7.199219 C 12.664062 7.199219 13.199219 7.738281 13.199219 8.398438 Z M 13.199219 8.398438 "/>
<path style=" stroke:none;fill-rule:evenodd;fill:rgb(69.01961%,75.686276%,83.137256%);fill-opacity:1;" d="M 9.898438 1.5 C 9.898438 2.160156 9.359375 2.695312 8.699219 2.695312 C 8.035156 2.695312 7.5 2.160156 7.5 1.5 C 7.5 0.835938 8.035156 0.300781 8.699219 0.300781 C 9.359375 0.300781 9.898438 0.835938 9.898438 1.5 Z M 9.898438 1.5 "/>
<path style=" stroke:none;fill-rule:evenodd;fill:rgb(40.000001%,47.450981%,56.078434%);fill-opacity:1;" d="M 7.199219 1.5 C 7.199219 0.671875 7.871094 0 8.699219 0 C 9.523438 0 10.199219 0.671875 10.199219 1.5 C 10.199219 2.324219 9.523438 2.996094 8.699219 2.996094 C 7.871094 2.996094 7.199219 2.324219 7.199219 1.5 Z M 9.597656 1.5 C 9.597656 1.003906 9.195312 0.601562 8.699219 0.601562 C 8.203125 0.601562 7.796875 1.003906 7.796875 1.5 C 7.796875 1.992188 8.203125 2.394531 8.699219 2.394531 C 9.195312 2.398438 9.597656 1.992188 9.597656 1.5 Z M 9.597656 1.5 "/>
</g>
</g>
</svg>
