<?xml version="1.0" encoding="UTF-8"?>
<svg xmlns="http://www.w3.org/2000/svg" xmlns:xlink="http://www.w3.org/1999/xlink" width="24" height="24" viewBox="0 0 24 24" version="1.1">
<g transform="scale(1.33333333)">
<g id="surface360">
<path style=" stroke:none;fill-rule:nonzero;fill:rgb(69.01961%,75.686276%,83.137256%);fill-opacity:1;" d="M 0.300781 6.625 L 0.300781 7.335938 L 2.875 7.335938 L 2.875 6.625 C 2.875 6.625 3.578125 4.300781 3.976562 4.300781 C 3.886719 4.910156 3.953125 5.601562 4.34375 5.675781 C 4.996094 5.792969 5.082031 5.203125 5.082031 5.203125 C 5.136719 4.382812 5.144531 3.324219 3.976562 3.324219 C 2.8125 3.324219 0.300781 6.625 0.300781 6.625 Z M 0.300781 6.625 "/>
<path style=" stroke:none;fill-rule:nonzero;fill:rgb(40.000001%,47.450981%,56.078434%);fill-opacity:1;" d="M 3.175781 7.636719 L 0 7.636719 L 0 6.527344 L 0.0585938 6.445312 C 0.492188 5.859375 2.722656 3.023438 3.976562 3.023438 C 4.402344 3.023438 4.742188 3.066406 4.984375 3.328125 C 5.417969 3.789062 5.425781 4.546875 5.378906 5.226562 C 5.335938 5.535156 5.085938 6.109375 4.292969 5.96875 C 3.949219 5.90625 3.761719 5.621094 3.6875 5.253906 C 3.511719 5.660156 3.324219 6.183594 3.175781 6.671875 Z M 0.601562 7.035156 L 2.574219 7.035156 L 2.585938 6.539062 C 3.355469 4 3.808594 4 3.976562 4 L 4.324219 4 L 4.273438 4.34375 C 4.183594 4.957031 4.300781 5.363281 4.398438 5.378906 C 4.710938 5.441406 4.777344 5.207031 4.785156 5.164062 C 4.820312 4.632812 4.820312 4.03125 4.546875 3.734375 C 4.421875 3.601562 4.234375 3.625 3.976562 3.625 C 3.292969 3.625 1.613281 5.375 0.601562 6.726562 Z M 0.601562 7.035156 "/>
<path style=" stroke:none;fill-rule:nonzero;fill:rgb(69.01961%,75.686276%,83.137256%);fill-opacity:1;" d="M 17.699219 6.625 L 17.699219 7.335938 L 15.128906 7.335938 L 15.128906 6.625 C 15.128906 6.625 14.425781 4.300781 14.027344 4.300781 C 14.175781 5.050781 14.050781 5.59375 13.660156 5.675781 C 12.992188 5.816406 12.925781 5.207031 12.925781 5.207031 C 12.851562 4.476562 12.863281 3.300781 14.027344 3.300781 C 15.191406 3.300781 17.699219 6.625 17.699219 6.625 Z M 17.699219 6.625 "/>
<path style=" stroke:none;fill-rule:nonzero;fill:rgb(40.000001%,47.450981%,56.078434%);fill-opacity:1;" d="M 18 7.636719 L 14.828125 7.636719 L 14.828125 6.671875 C 14.6875 6.207031 14.507812 5.703125 14.339844 5.304688 C 14.25 5.667969 14.042969 5.902344 13.722656 5.96875 C 13.636719 5.988281 13.550781 5.996094 13.472656 5.996094 C 12.910156 5.996094 12.660156 5.542969 12.628906 5.238281 C 12.539062 4.371094 12.667969 3.734375 13.015625 3.347656 C 13.261719 3.074219 13.601562 3 14.027344 3 C 15.277344 3 17.507812 5.863281 17.941406 6.449219 L 18 6.527344 Z M 15.429688 7.035156 L 17.398438 7.035156 L 17.398438 6.726562 C 16.386719 5.375 14.710938 3.601562 14.027344 3.601562 C 13.777344 3.601562 13.59375 3.605469 13.460938 3.75 C 13.234375 4 13.152344 4.492188 13.226562 5.171875 C 13.238281 5.269531 13.328125 5.4375 13.601562 5.382812 C 13.757812 5.347656 13.855469 4.980469 13.734375 4.359375 L 13.664062 4 L 14.027344 4 C 14.199219 4 14.648438 4 15.417969 6.539062 L 15.429688 6.625 Z M 15.429688 7.035156 "/>
<path style=" stroke:none;fill-rule:nonzero;fill:rgb(88.235295%,92.156863%,94.901961%);fill-opacity:1;" d="M 17.699219 6.898438 L 0.300781 6.898438 L 0.300781 12.898438 C 0.300781 12.898438 0.46875 12.898438 0.679688 12.898438 L 7.019531 12.898438 C 7.308594 12.898438 7.570312 12.738281 7.695312 12.484375 L 8.453125 10.472656 C 8.566406 10.25 8.78125 10.136719 9 10.136719 C 9.21875 10.136719 9.433594 10.25 9.546875 10.472656 L 10.304688 12.484375 C 10.429688 12.738281 10.695312 12.898438 10.980469 12.898438 L 17.320312 12.898438 C 17.53125 12.898438 17.699219 12.898438 17.699219 12.898438 Z M 17.699219 6.898438 "/>
<path style=" stroke:none;fill-rule:nonzero;fill:rgb(47.058824%,54.509807%,61.176473%);fill-opacity:1;" d="M 18 13.199219 L 10.980469 13.199219 C 10.585938 13.199219 10.214844 12.972656 10.035156 12.621094 L 9.265625 10.578125 C 9.183594 10.421875 8.828125 10.394531 8.722656 10.605469 L 7.976562 12.589844 C 7.78125 12.980469 7.421875 13.199219 7.019531 13.199219 L 0 13.199219 L 0 6.601562 L 18 6.601562 Z M 9 9.835938 C 9.347656 9.835938 9.660156 10.027344 9.8125 10.339844 L 10.585938 12.378906 C 10.648438 12.5 10.808594 12.601562 10.980469 12.601562 L 17.398438 12.601562 L 17.398438 7.199219 L 0.601562 7.199219 L 0.601562 12.601562 L 7.019531 12.601562 C 7.195312 12.601562 7.351562 12.503906 7.429688 12.351562 L 8.171875 10.367188 C 8.339844 10.027344 8.652344 9.835938 9 9.835938 Z M 9 9.835938 "/>
<path style=" stroke:none;fill-rule:nonzero;fill:rgb(54.509807%,71.764708%,94.117647%);fill-opacity:1;" d="M 2.175781 11.699219 C 2.136719 11.699219 2.101562 11.664062 2.101562 11.617188 L 2.101562 8.203125 C 2.101562 8.148438 2.144531 8.097656 2.199219 8.097656 L 7.203125 8.097656 C 7.300781 8.097656 7.375 8.132812 7.425781 8.203125 C 7.507812 8.308594 7.523438 8.484375 7.46875 8.660156 C 7.371094 8.976562 7.269531 9.347656 7.164062 9.714844 C 6.96875 10.425781 6.722656 11.308594 6.578125 11.519531 C 6.515625 11.648438 6.4375 11.699219 6.359375 11.699219 Z M 2.175781 11.699219 "/>
<path style=" stroke:none;fill-rule:nonzero;fill:rgb(30.588236%,47.843137%,70.980394%);fill-opacity:1;" d="M 7.195312 8.398438 C 7.203125 8.433594 7.207031 8.492188 7.183594 8.570312 C 7.082031 8.894531 6.980469 9.261719 6.878906 9.632812 C 6.707031 10.242188 6.453125 11.160156 6.328125 11.347656 L 6.296875 11.398438 L 2.398438 11.398438 L 2.398438 8.398438 L 7.195312 8.398438 M 7.203125 7.800781 L 2.199219 7.800781 C 1.980469 7.800781 1.800781 7.980469 1.800781 8.207031 L 1.800781 11.617188 C 1.800781 11.828125 1.96875 12 2.175781 12 L 6.355469 12 C 6.558594 12 6.742188 11.878906 6.824219 11.691406 C 7.074219 11.328125 7.4375 9.78125 7.753906 8.746094 C 7.898438 8.277344 7.6875 7.800781 7.203125 7.800781 Z M 7.203125 7.800781 "/>
<path style=" stroke:none;fill-rule:nonzero;fill:rgb(96.862745%,56.078434%,56.078434%);fill-opacity:1;" d="M 11.644531 11.699219 C 11.5625 11.699219 11.488281 11.648438 11.453125 11.570312 C 11.277344 11.308594 11.03125 10.425781 10.835938 9.714844 C 10.730469 9.347656 10.628906 8.976562 10.53125 8.660156 C 10.476562 8.484375 10.492188 8.308594 10.574219 8.203125 C 10.625 8.132812 10.699219 8.097656 10.800781 8.097656 L 15.800781 8.097656 C 15.855469 8.097656 15.902344 8.148438 15.902344 8.203125 L 15.902344 11.617188 C 15.902344 11.664062 15.867188 11.699219 15.824219 11.699219 Z M 11.644531 11.699219 "/>
<path style=" stroke:none;fill-rule:nonzero;fill:rgb(78.039217%,26.274511%,26.274511%);fill-opacity:1;" d="M 15.601562 8.398438 L 15.601562 11.398438 L 11.703125 11.398438 L 11.699219 11.390625 L 11.671875 11.347656 C 11.550781 11.160156 11.292969 10.242188 11.125 9.632812 C 11.019531 9.261719 10.917969 8.894531 10.820312 8.570312 C 10.792969 8.492188 10.796875 8.433594 10.808594 8.398438 L 15.601562 8.398438 M 15.800781 7.800781 L 10.796875 7.800781 C 10.3125 7.800781 10.101562 8.277344 10.246094 8.746094 C 10.5625 9.777344 10.925781 11.328125 11.175781 11.691406 C 11.257812 11.878906 11.441406 12 11.644531 12 L 15.824219 12 C 16.03125 12 16.199219 11.828125 16.199219 11.617188 L 16.199219 8.207031 C 16.199219 7.980469 16.019531 7.800781 15.800781 7.800781 Z M 15.800781 7.800781 "/>
</g>
</g>
</svg>
