<?xml version="1.0" encoding="UTF-8"?>
<svg xmlns="http://www.w3.org/2000/svg" xmlns:xlink="http://www.w3.org/1999/xlink" width="24" height="24" viewBox="0 0 24 24" version="1.1">
<g transform="scale(1.33333333)">
<g id="surface29">
<path style=" stroke:none;fill-rule:nonzero;fill:rgb(25.882354%,30.588236%,36.078432%);fill-opacity:1;" d="M 1.5 2.101562 L 16.5 2.101562 L 16.5 15.898438 L 1.5 15.898438 Z M 1.5 2.101562 "/>
<path style=" stroke:none;fill-rule:nonzero;fill:rgb(68.627453%,77.254903%,84.705883%);fill-opacity:1;" d="M 16.199219 2.398438 L 16.199219 15.601562 L 1.800781 15.601562 L 1.800781 2.398438 L 16.199219 2.398438 M 16.800781 1.800781 L 1.199219 1.800781 L 1.199219 16.199219 L 16.800781 16.199219 Z M 16.800781 1.800781 "/>
<path style=" stroke:none;fill-rule:nonzero;fill:rgb(68.627453%,77.254903%,84.705883%);fill-opacity:1;" d="M 1.199219 1.800781 L 16.800781 1.800781 L 16.800781 4.199219 L 1.199219 4.199219 Z M 1.199219 1.800781 "/>
<path style=" stroke:none;fill-rule:nonzero;fill:rgb(72.941178%,87.843138%,74.117649%);fill-opacity:1;" d="M 8.398438 12 L 13.199219 12 L 13.199219 12.601562 L 8.398438 12.601562 Z M 5.101562 12.238281 L 4.679688 11.761719 L 6.839844 9.898438 L 4.679688 8.039062 L 5.101562 7.558594 L 7.738281 9.898438 Z M 5.101562 12.238281 "/>
</g>
</g>
</svg>
