<?xml version="1.0" encoding="UTF-8"?>
<svg xmlns="http://www.w3.org/2000/svg" xmlns:xlink="http://www.w3.org/1999/xlink" width="24" height="24" viewBox="0 0 24 24" version="1.1">
<g transform="scale(1.33333333)">
<g id="surface1426">
<path style=" stroke:none;fill-rule:nonzero;fill:rgb(40.000001%,47.450981%,56.078434%);fill-opacity:1;" d="M 5.632812 4.78125 C 7.59375 3.214844 10.40625 3.210938 12.367188 4.78125 L 13.222656 3.929688 C 10.78125 1.894531 7.21875 1.894531 4.777344 3.929688 Z M 13.21875 12.367188 L 14.070312 13.222656 C 16.105469 10.78125 16.105469 7.21875 14.070312 4.777344 L 13.21875 5.628906 C 14.789062 7.59375 14.785156 10.40625 13.21875 12.367188 Z M 12.367188 13.21875 C 10.40625 14.785156 7.59375 14.789062 5.632812 13.21875 L 4.777344 14.070312 C 7.21875 16.105469 10.78125 16.105469 13.222656 14.070312 Z M 4.78125 5.632812 L 3.929688 4.777344 C 1.894531 7.21875 1.894531 10.78125 3.929688 13.222656 L 4.78125 12.367188 C 3.210938 10.40625 3.214844 7.59375 4.78125 5.632812 Z M 4.78125 5.632812 "/>
<path style=" stroke:none;fill-rule:nonzero;fill:rgb(96.862745%,56.078434%,56.078434%);fill-opacity:1;" d="M 9 8.101562 C 8.503906 8.101562 8.101562 8.503906 8.101562 9 C 8.101562 9.496094 8.503906 9.898438 9 9.898438 C 9.496094 9.898438 9.898438 9.496094 9.898438 9 C 9.898438 8.503906 9.496094 8.101562 9 8.101562 Z M 9 8.101562 "/>
<path style=" stroke:none;fill-rule:nonzero;fill:rgb(78.039217%,26.274511%,26.274511%);fill-opacity:1;" d="M 9 8.398438 C 9.332031 8.398438 9.601562 8.667969 9.601562 9 C 9.601562 9.332031 9.332031 9.601562 9 9.601562 C 8.667969 9.601562 8.398438 9.332031 8.398438 9 C 8.398438 8.667969 8.667969 8.398438 9 8.398438 M 9 7.800781 C 8.335938 7.800781 7.800781 8.335938 7.800781 9 C 7.800781 9.664062 8.335938 10.199219 9 10.199219 C 9.664062 10.199219 10.199219 9.664062 10.199219 9 C 10.199219 8.335938 9.664062 7.800781 9 7.800781 Z M 9 7.800781 "/>
<path style=" stroke:none;fill-rule:nonzero;fill:rgb(96.862745%,56.078434%,56.078434%);fill-opacity:1;" d="M 9.898438 5.207031 C 9.601562 5.136719 9.300781 5.101562 9 5.101562 C 8.699219 5.101562 8.398438 5.136719 8.101562 5.207031 L 8.101562 0.898438 L 9.898438 0.898438 Z M 9.898438 5.207031 "/>
<path style=" stroke:none;fill-rule:nonzero;fill:rgb(78.039217%,26.274511%,26.274511%);fill-opacity:1;" d="M 9.601562 1.199219 L 9.601562 4.84375 C 9.402344 4.816406 9.199219 4.800781 9 4.800781 C 8.800781 4.800781 8.597656 4.816406 8.398438 4.84375 L 8.398438 1.199219 L 9.601562 1.199219 M 10.199219 0.601562 L 7.800781 0.601562 L 7.800781 5.609375 C 8.175781 5.476562 8.578125 5.398438 9 5.398438 C 9.421875 5.398438 9.824219 5.476562 10.199219 5.609375 Z M 10.199219 0.601562 "/>
<path style=" stroke:none;fill-rule:nonzero;fill:rgb(96.862745%,56.078434%,56.078434%);fill-opacity:1;" d="M 0.898438 9.898438 L 0.898438 8.101562 L 5.207031 8.101562 C 5.136719 8.398438 5.101562 8.699219 5.101562 9 C 5.101562 9.300781 5.136719 9.601562 5.207031 9.898438 Z M 0.898438 9.898438 "/>
<path style=" stroke:none;fill-rule:nonzero;fill:rgb(78.039217%,26.274511%,26.274511%);fill-opacity:1;" d="M 4.84375 8.398438 C 4.816406 8.597656 4.800781 8.800781 4.800781 9 C 4.800781 9.199219 4.816406 9.402344 4.84375 9.601562 L 1.199219 9.601562 L 1.199219 8.398438 L 4.84375 8.398438 M 5.609375 7.800781 L 0.601562 7.800781 L 0.601562 10.199219 L 5.609375 10.199219 C 5.476562 9.824219 5.398438 9.421875 5.398438 9 C 5.398438 8.578125 5.476562 8.175781 5.609375 7.800781 Z M 5.609375 7.800781 "/>
<path style=" stroke:none;fill-rule:nonzero;fill:rgb(96.862745%,56.078434%,56.078434%);fill-opacity:1;" d="M 12.792969 9.898438 C 12.863281 9.601562 12.898438 9.300781 12.898438 9 C 12.898438 8.699219 12.863281 8.398438 12.792969 8.101562 L 17.101562 8.101562 L 17.101562 9.898438 Z M 12.792969 9.898438 "/>
<path style=" stroke:none;fill-rule:nonzero;fill:rgb(78.039217%,26.274511%,26.274511%);fill-opacity:1;" d="M 16.800781 8.398438 L 16.800781 9.601562 L 13.15625 9.601562 C 13.183594 9.402344 13.199219 9.199219 13.199219 9 C 13.199219 8.800781 13.183594 8.597656 13.15625 8.398438 L 16.800781 8.398438 M 17.398438 7.800781 L 12.390625 7.800781 C 12.523438 8.175781 12.601562 8.578125 12.601562 9 C 12.601562 9.421875 12.523438 9.824219 12.390625 10.199219 L 17.398438 10.199219 Z M 17.398438 7.800781 "/>
<path style=" stroke:none;fill-rule:nonzero;fill:rgb(96.862745%,56.078434%,56.078434%);fill-opacity:1;" d="M 8.101562 17.101562 L 8.101562 12.792969 C 8.398438 12.863281 8.699219 12.898438 9 12.898438 C 9.300781 12.898438 9.601562 12.863281 9.898438 12.792969 L 9.898438 17.101562 Z M 8.101562 17.101562 "/>
<path style=" stroke:none;fill-rule:nonzero;fill:rgb(78.039217%,26.274511%,26.274511%);fill-opacity:1;" d="M 9.601562 13.15625 L 9.601562 16.800781 L 8.398438 16.800781 L 8.398438 13.15625 C 8.597656 13.183594 8.800781 13.199219 9 13.199219 C 9.199219 13.199219 9.402344 13.183594 9.601562 13.15625 M 10.199219 12.390625 C 9.824219 12.523438 9.421875 12.601562 9 12.601562 C 8.578125 12.601562 8.175781 12.523438 7.800781 12.390625 L 7.800781 17.398438 L 10.199219 17.398438 Z M 10.199219 12.390625 "/>
</g>
</g>
</svg>
