<?xml version="1.0" encoding="UTF-8"?>
<svg xmlns="http://www.w3.org/2000/svg" xmlns:xlink="http://www.w3.org/1999/xlink" width="24" height="24" viewBox="0 0 24 24" version="1.1">
<g transform="scale(1.33333333)">
<g id="surface198">
<path style=" stroke:none;fill-rule:nonzero;fill:rgb(100%,76.862746%,61.176473%);fill-opacity:1;" d="M 1.5 16.5 L 1.5 4.320312 L 3.179688 2.101562 L 14.878906 2.101562 L 16.5 4.320312 L 16.5 16.5 Z M 1.5 16.5 "/>
<path style=" stroke:none;fill-rule:nonzero;fill:rgb(63.137257%,41.568628%,29.019609%);fill-opacity:1;" d="M 14.699219 2.398438 L 16.199219 4.378906 L 16.199219 16.199219 L 1.800781 16.199219 L 1.800781 4.378906 L 3.300781 2.398438 L 14.699219 2.398438 M 15 1.800781 L 3 1.800781 L 1.199219 4.199219 L 1.199219 16.800781 L 16.800781 16.800781 L 16.800781 4.199219 Z M 15 1.800781 "/>
<path style=" stroke:none;fill-rule:nonzero;fill:rgb(83.92157%,59.215689%,42.745098%);fill-opacity:1;" d="M 1.5 4.5 L 1.5 4.320312 L 3.179688 2.101562 L 14.878906 2.101562 L 16.5 4.320312 L 16.5 4.5 Z M 1.5 4.5 "/>
<path style=" stroke:none;fill-rule:nonzero;fill:rgb(63.137257%,41.568628%,29.019609%);fill-opacity:1;" d="M 14.699219 2.398438 L 16.078125 4.199219 L 1.980469 4.199219 L 3.359375 2.398438 L 14.699219 2.398438 M 15 1.800781 L 3 1.800781 L 1.199219 4.199219 L 1.199219 4.800781 L 16.800781 4.800781 L 16.800781 4.199219 Z M 15 1.800781 "/>
<path style=" stroke:none;fill-rule:nonzero;fill:rgb(88.235295%,92.156863%,94.901961%);fill-opacity:1;" d="M 2.578125 4.5 L 6.601562 0.960938 L 11.640625 4.5 Z M 2.578125 4.5 "/>
<path style=" stroke:none;fill-rule:nonzero;fill:rgb(47.058824%,54.509807%,61.176473%);fill-opacity:1;" d="M 6.660156 1.378906 L 10.679688 4.199219 L 3.421875 4.199219 L 6.660156 1.378906 M 6.601562 0.601562 L 1.800781 4.800781 L 12.601562 4.800781 Z M 6.601562 0.601562 "/>
<path style=" stroke:none;fill-rule:nonzero;fill:rgb(100%,100%,100%);fill-opacity:1;" d="M 4.800781 4.5 L 11.339844 0.960938 L 15.421875 4.5 Z M 4.800781 4.5 "/>
<path style=" stroke:none;fill-rule:nonzero;fill:rgb(47.058824%,54.509807%,61.176473%);fill-opacity:1;" d="M 11.339844 1.320312 L 14.578125 4.199219 L 6 4.199219 L 11.339844 1.320312 M 11.398438 0.601562 L 3.601562 4.800781 L 16.199219 4.800781 Z M 11.398438 0.601562 "/>
<path style=" stroke:none;fill-rule:nonzero;fill:rgb(63.137257%,41.568628%,29.019609%);fill-opacity:1;" d="M 11.398438 7.199219 L 6.601562 7.199219 C 6.238281 7.199219 6 6.960938 6 6.601562 C 6 6.238281 6.238281 6 6.601562 6 L 11.398438 6 C 11.761719 6 12 6.238281 12 6.601562 C 12 6.960938 11.761719 7.199219 11.398438 7.199219 Z M 1.199219 4.199219 L 16.800781 4.199219 L 16.800781 4.800781 L 1.199219 4.800781 Z M 1.199219 4.199219 "/>
</g>
</g>
</svg>
