<?xml version="1.0" encoding="UTF-8"?>
<svg xmlns="http://www.w3.org/2000/svg" xmlns:xlink="http://www.w3.org/1999/xlink" width="24" height="24" viewBox="0 0 24 24" version="1.1">
<g transform="scale(1.33333333)">
<g id="surface55">
<path style=" stroke:none;fill-rule:nonzero;fill:rgb(90.980393%,83.137256%,48.235294%);fill-opacity:1;" d="M 0.898438 15.898438 L 0.898438 2.101562 L 5.878906 2.101562 L 7.679688 3.898438 L 17.101562 3.898438 L 17.101562 15.898438 Z M 0.898438 15.898438 "/>
<path style=" stroke:none;fill-rule:nonzero;fill:rgb(72.941178%,60.784316%,28.235295%);fill-opacity:1;" d="M 5.761719 2.398438 L 7.378906 4.019531 L 7.558594 4.199219 L 16.800781 4.199219 L 16.800781 15.601562 L 1.199219 15.601562 L 1.199219 2.398438 L 5.761719 2.398438 M 6 1.800781 L 0.601562 1.800781 L 0.601562 16.199219 L 17.398438 16.199219 L 17.398438 3.601562 L 7.800781 3.601562 Z M 6 1.800781 "/>
<path style=" stroke:none;fill-rule:nonzero;fill:rgb(100%,93.333334%,63.921571%);fill-opacity:1;" d="M 0.898438 15.898438 L 0.898438 5.101562 L 6.121094 5.101562 L 7.921875 3.898438 L 17.101562 3.898438 L 17.101562 15.898438 Z M 0.898438 15.898438 "/>
<path style=" stroke:none;fill-rule:nonzero;fill:rgb(72.941178%,60.784316%,28.235295%);fill-opacity:1;" d="M 16.800781 4.199219 L 16.800781 15.601562 L 1.199219 15.601562 L 1.199219 5.398438 L 6.179688 5.398438 L 6.359375 5.28125 L 7.980469 4.199219 L 16.800781 4.199219 M 17.398438 3.601562 L 7.800781 3.601562 L 6 4.800781 L 0.601562 4.800781 L 0.601562 16.199219 L 17.398438 16.199219 Z M 17.398438 3.601562 "/>
<path style=" stroke:none;fill-rule:nonzero;fill:rgb(100%,93.333334%,63.921571%);fill-opacity:1;" d="M 10.800781 3.601562 L 17.398438 3.601562 L 17.398438 10.199219 L 10.800781 10.199219 Z M 6 15 L 12 15 L 12 16.199219 L 6 16.199219 Z M 6 15 "/>
<path style=" stroke:none;fill-rule:nonzero;fill:rgb(78.039217%,26.274511%,26.274511%);fill-opacity:1;" d="M 15.601562 3.601562 C 15.601562 4.621094 16.378906 5.398438 17.398438 5.398438 L 17.398438 3.601562 Z M 17.398438 7.199219 C 15.421875 7.199219 13.800781 5.578125 13.800781 3.601562 L 14.398438 3.601562 C 14.398438 5.28125 15.71875 6.601562 17.398438 6.601562 Z M 17.398438 7.199219 "/>
<path style=" stroke:none;fill-rule:nonzero;fill:rgb(78.039217%,26.274511%,26.274511%);fill-opacity:1;" d="M 17.398438 9 C 14.398438 9 12 6.601562 12 3.601562 L 12.601562 3.601562 C 12.601562 6.238281 14.761719 8.398438 17.398438 8.398438 Z M 17.398438 9 "/>
<path style=" stroke:none;fill-rule:nonzero;fill:rgb(78.039217%,26.274511%,26.274511%);fill-opacity:1;" d="M 8.398438 11.398438 L 8.398438 17.398438 L 9.601562 17.398438 L 9.601562 11.398438 L 12 11.398438 L 9 8.398438 L 6 11.398438 Z M 8.398438 11.398438 "/>
</g>
</g>
</svg>
