<?xml version="1.0" encoding="UTF-8"?>
<svg xmlns="http://www.w3.org/2000/svg" xmlns:xlink="http://www.w3.org/1999/xlink" width="24" height="24" viewBox="0 0 24 24" version="1.1">
<g transform="scale(1.33333333)">
<g id="surface1035">
<path style="fill:none;stroke-width:2;stroke-linecap:butt;stroke-linejoin:miter;stroke:rgb(40.000001%,47.450981%,56.078434%);stroke-opacity:1;stroke-miterlimit:10;" d="M 26.996528 17.395833 C 26.996528 17.395833 26.996528 9.288194 26.996528 9.001736 C 26.996528 5.130208 23.862847 1.996528 20 1.996528 C 16.137153 1.996528 13.003472 5.130208 13.003472 9.001736 C 13.003472 9.288194 13.003472 17.395833 13.003472 17.395833 " transform="matrix(0.45,0,0,0.45,0,0)"/>
<path style=" stroke:none;fill-rule:nonzero;fill:rgb(54.509807%,71.764708%,94.117647%);fill-opacity:1;" d="M 9 17.324219 C 5.898438 17.324219 3.375 14.800781 3.375 11.699219 C 3.375 8.597656 5.898438 6.074219 9 6.074219 C 12.101562 6.074219 14.625 8.597656 14.625 11.699219 C 14.625 14.800781 12.101562 17.324219 9 17.324219 Z M 9 17.324219 "/>
<path style=" stroke:none;fill-rule:nonzero;fill:rgb(30.588236%,47.843137%,70.980394%);fill-opacity:1;" d="M 9 6.300781 C 11.976562 6.300781 14.398438 8.722656 14.398438 11.699219 C 14.398438 14.675781 11.976562 17.101562 9 17.101562 C 6.023438 17.101562 3.601562 14.675781 3.601562 11.699219 C 3.601562 8.722656 6.023438 6.300781 9 6.300781 M 9 5.851562 C 5.769531 5.851562 3.148438 8.46875 3.148438 11.699219 C 3.148438 14.929688 5.769531 17.550781 9 17.550781 C 12.230469 17.550781 14.851562 14.929688 14.851562 11.699219 C 14.851562 8.46875 12.230469 5.851562 9 5.851562 Z M 9 5.851562 "/>
<path style=" stroke:none;fill-rule:nonzero;fill:rgb(85.882354%,94.901961%,100%);fill-opacity:1;" d="M 9 8.101562 C 7.011719 8.101562 5.398438 9.710938 5.398438 11.699219 C 5.398438 13.6875 7.011719 15.300781 9 15.300781 C 10.988281 15.300781 12.601562 13.6875 12.601562 11.699219 C 12.601562 9.710938 10.988281 8.101562 9 8.101562 Z M 9 8.101562 "/>
<path style=" stroke:none;fill-rule:nonzero;fill:rgb(21.176471%,25.098041%,30.19608%);fill-opacity:1;" d="M 8.550781 11.699219 L 9.449219 11.699219 L 9.449219 13.949219 L 8.550781 13.949219 Z M 8.550781 11.699219 "/>
</g>
</g>
</svg>
