<?xml version="1.0" encoding="UTF-8"?>
<svg xmlns="http://www.w3.org/2000/svg" xmlns:xlink="http://www.w3.org/1999/xlink" width="24" height="24" viewBox="0 0 24 24" version="1.1">
<g transform="scale(1.33333333)">
<g id="surface218">
<path style=" stroke:none;fill-rule:nonzero;fill:rgb(40.000001%,47.450981%,56.078434%);fill-opacity:1;" d="M 12.601562 7.800781 L 11.398438 7.800781 L 11.398438 4.199219 C 11.398438 2.878906 10.320312 1.800781 9 1.800781 C 7.679688 1.800781 6.601562 2.878906 6.601562 4.199219 L 6.601562 7.800781 L 5.398438 7.800781 L 5.398438 4.199219 C 5.398438 2.21875 7.019531 0.601562 9 0.601562 C 10.980469 0.601562 12.601562 2.21875 12.601562 4.199219 Z M 12.601562 7.800781 "/>
<path style=" stroke:none;fill-rule:nonzero;fill:rgb(54.509807%,71.764708%,94.117647%);fill-opacity:1;" d="M 9 17.101562 C 5.878906 17.101562 3.300781 14.519531 3.300781 11.398438 C 3.300781 8.28125 5.878906 5.699219 9 5.699219 C 12.121094 5.699219 14.699219 8.28125 14.699219 11.398438 C 14.699219 14.519531 12.121094 17.101562 9 17.101562 Z M 9 17.101562 "/>
<path style=" stroke:none;fill-rule:nonzero;fill:rgb(30.588236%,47.843137%,70.980394%);fill-opacity:1;" d="M 9 6 C 12 6 14.398438 8.398438 14.398438 11.398438 C 14.398438 14.398438 12 16.800781 9 16.800781 C 6 16.800781 3.601562 14.398438 3.601562 11.398438 C 3.601562 8.398438 6 6 9 6 M 9 5.398438 C 5.699219 5.398438 3 8.101562 3 11.398438 C 3 14.699219 5.699219 17.398438 9 17.398438 C 12.300781 17.398438 15 14.699219 15 11.398438 C 15 8.101562 12.300781 5.398438 9 5.398438 Z M 9 5.398438 "/>
<path style=" stroke:none;fill-rule:nonzero;fill:rgb(85.882354%,94.901961%,100%);fill-opacity:1;" d="M 9 7.800781 C 7.011719 7.800781 5.398438 9.410156 5.398438 11.398438 C 5.398438 13.386719 7.011719 15 9 15 C 10.988281 15 12.601562 13.386719 12.601562 11.398438 C 12.601562 9.410156 10.988281 7.800781 9 7.800781 Z M 9 7.800781 "/>
<path style=" stroke:none;fill-rule:nonzero;fill:rgb(21.176471%,25.098041%,30.19608%);fill-opacity:1;" d="M 8.398438 11.398438 L 9.601562 11.398438 L 9.601562 13.800781 L 8.398438 13.800781 Z M 8.398438 11.398438 "/>
</g>
</g>
</svg>
