<?xml version="1.0" encoding="UTF-8"?>
<svg xmlns="http://www.w3.org/2000/svg" xmlns:xlink="http://www.w3.org/1999/xlink" width="24" height="24" viewBox="0 0 24 24" version="1.1">
<g transform="scale(1.33333333)">
<g id="surface1454">
<path style=" stroke:none;fill-rule:nonzero;fill:rgb(100%,100%,100%);fill-opacity:1;" d="M 4.921875 16.5 L 1.5 13.078125 L 1.5 1.5 L 13.078125 1.5 L 16.5 4.921875 L 16.5 16.5 Z M 4.921875 16.5 "/>
<path style=" stroke:none;fill-rule:nonzero;fill:rgb(47.058824%,54.509807%,61.176473%);fill-opacity:1;" d="M 12.960938 1.800781 L 16.199219 5.039062 L 16.199219 16.199219 L 5.039062 16.199219 L 1.800781 12.960938 L 1.800781 1.800781 L 12.960938 1.800781 M 13.199219 1.199219 L 1.199219 1.199219 L 1.199219 13.199219 L 4.800781 16.800781 L 16.800781 16.800781 L 16.800781 4.800781 Z M 13.199219 1.199219 "/>
<path style=" stroke:none;fill-rule:nonzero;fill:rgb(47.058824%,54.509807%,61.176473%);fill-opacity:1;" d="M 1.625 2.007812 L 2.050781 1.582031 L 5.359375 4.890625 L 4.933594 5.316406 Z M 1.625 2.007812 "/>
<path style=" stroke:none;fill-rule:nonzero;fill:rgb(72.941178%,87.843138%,74.117649%);fill-opacity:1;" d="M 5.101562 5.101562 L 16.5 5.101562 L 16.5 16.5 L 5.101562 16.5 Z M 5.101562 5.101562 "/>
<path style=" stroke:none;fill-rule:nonzero;fill:rgb(36.862746%,61.176473%,46.27451%);fill-opacity:1;" d="M 16.199219 5.398438 L 16.199219 16.199219 L 5.398438 16.199219 L 5.398438 5.398438 L 16.199219 5.398438 M 16.800781 4.800781 L 4.800781 4.800781 L 4.800781 16.800781 L 16.800781 16.800781 Z M 16.800781 4.800781 "/>
</g>
</g>
</svg>
