<?xml version="1.0" encoding="UTF-8"?>
<svg xmlns="http://www.w3.org/2000/svg" xmlns:xlink="http://www.w3.org/1999/xlink" width="24" height="24" viewBox="0 0 24 24" version="1.1">
<g transform="scale(1.33333333)">
<g id="surface1526">
<path style=" stroke:none;fill-rule:nonzero;fill:rgb(100%,93.333334%,63.921571%);fill-opacity:1;" d="M 5.996094 15.285156 L 0.898438 16.984375 L 0.898438 2.613281 L 6.003906 0.914062 L 12.003906 2.714844 L 17.101562 1.015625 L 17.101562 15.382812 L 11.996094 17.085938 Z M 5.996094 15.285156 "/>
<path style=" stroke:none;fill-rule:nonzero;fill:rgb(72.941178%,60.784316%,28.235295%);fill-opacity:1;" d="M 6.007812 1.230469 L 11.828125 2.976562 L 12.007812 3.03125 L 12.191406 2.96875 L 16.800781 1.429688 L 16.800781 15.167969 L 11.992188 16.769531 L 6.171875 15.027344 L 5.992188 14.972656 L 5.808594 15.03125 L 1.199219 16.566406 L 1.199219 2.832031 L 6.007812 1.230469 M 17.398438 0.597656 L 12 2.398438 L 6 0.601562 L 0.601562 2.398438 L 0.601562 17.398438 L 6 15.601562 L 12 17.398438 L 17.398438 15.597656 Z M 17.398438 0.597656 "/>
<path style=" stroke:none;fill-rule:nonzero;fill:rgb(100%,100%,100%);fill-opacity:1;" d="M 12 16.800781 L 6 15 L 6 1.199219 L 12 3 Z M 12 16.800781 "/>
<path style=" stroke:none;fill-rule:nonzero;fill:rgb(72.941178%,60.784316%,28.235295%);fill-opacity:1;" d="M 6.3125 9.441406 C 6.023438 9.382812 5.710938 9.421875 5.4375 9.289062 C 5.3125 9.226562 5.203125 9.140625 5.070312 9.082031 C 4.984375 9.042969 4.851562 9.007812 4.726562 8.964844 C 4.59375 8.695312 4.53125 8.417969 4.40625 8.152344 C 4.328125 7.984375 4.066406 7.554688 4.460938 7.542969 C 4.582031 7.542969 4.976562 7.664062 5.035156 7.746094 C 5.179688 7.960938 4.894531 8.460938 5.195312 8.523438 C 5.699219 8.628906 6.261719 7.789062 6.253906 7.402344 C 6.253906 7.332031 6.195312 7.304688 6.1875 7.238281 C 6.160156 6.976562 6.320312 6.808594 6.199219 6.546875 C 6.117188 6.375 6.035156 6.234375 6.046875 6.039062 C 6.070312 5.589844 6.179688 5.148438 6.171875 4.691406 C 6.171875 4.554688 6.132812 4.476562 6.066406 4.4375 C 5.746094 4.253906 4.816406 5.035156 4.785156 5 C 4.199219 4.421875 3.15625 4.117188 2.453125 4.734375 C 2.261719 4.902344 1.878906 5.105469 1.949219 5.386719 C 2.015625 5.671875 2.132812 5.664062 2.371094 5.535156 C 2.597656 5.410156 2.863281 5.328125 3.113281 5.488281 C 3.386719 5.660156 3.175781 5.929688 3.027344 6.113281 C 2.8125 6.375 2.675781 6.597656 2.570312 6.902344 C 2.488281 7.160156 2.441406 7.453125 2.625 7.6875 C 2.808594 7.929688 3.203125 7.933594 3.34375 8.152344 C 3.496094 8.378906 3.515625 8.695312 3.804688 8.824219 C 4 8.910156 4.195312 8.816406 4.417969 8.90625 C 4.492188 8.9375 4.554688 8.96875 4.621094 9.007812 C 4.71875 9.167969 4.785156 9.355469 4.78125 9.539062 C 4.777344 9.800781 4.621094 9.835938 4.417969 9.960938 C 4.136719 10.132812 3.5625 10.460938 3.632812 10.871094 C 3.691406 11.191406 4.0625 10.996094 4.164062 11.242188 C 4.242188 11.441406 4.019531 11.703125 4.011719 11.890625 C 4.542969 12.011719 4.847656 12.445312 4.84375 12.984375 C 4.839844 13.753906 4.964844 14.328125 5.574219 14.777344 C 5.722656 14.75 5.796875 14.679688 5.816406 14.511719 C 5.894531 13.859375 5.765625 13.28125 6.265625 12.746094 C 6.480469 12.515625 6.4375 12.425781 6.421875 12.136719 C 6.410156 11.988281 6.441406 11.636719 6.5625 11.554688 C 6.710938 11.628906 7.015625 11.667969 7.148438 11.550781 C 7.238281 11.46875 7.339844 11.023438 7.359375 10.902344 C 7.417969 10.527344 7.285156 10.226562 7.0625 9.9375 C 6.882812 9.703125 6.601562 9.5 6.3125 9.441406 Z M 7.570312 3.636719 C 6.855469 3.464844 6.339844 4.054688 6.550781 4.746094 C 6.898438 5.875 7.621094 4.097656 7.570312 3.636719 Z M 15.585938 6.136719 C 15.632812 5.90625 15.582031 5.636719 15.308594 5.640625 C 15.289062 5.355469 15.097656 4.6875 14.792969 4.539062 C 14.511719 4.394531 14.496094 4.597656 14.265625 4.820312 C 14.007812 5.070312 13.691406 5.230469 13.472656 5.472656 C 13.273438 5.695312 12.863281 6.238281 12.582031 6.023438 C 12.433594 5.90625 12.464844 5.496094 12.355469 5.324219 C 12.207031 5.097656 12.109375 5.058594 11.832031 5.015625 C 11.863281 4.964844 11.871094 4.839844 11.90625 4.78125 C 11.820312 4.8125 11.671875 4.785156 11.585938 4.8125 C 11.570312 4.460938 12.113281 4.445312 12.234375 4.203125 C 12 4.1875 11.78125 4.179688 11.578125 4.3125 C 11.410156 4.421875 11.371094 4.671875 11.21875 4.746094 C 10.820312 4.941406 9.871094 4.28125 9.4375 4.1875 C 8.808594 4.050781 8.472656 4.316406 8.222656 4.894531 C 8.054688 4.863281 7.859375 4.808594 7.726562 4.945312 C 7.828125 5.074219 7.972656 5.136719 8.140625 5.160156 C 8.152344 5.21875 8.152344 5.289062 8.140625 5.351562 C 8 5.378906 7.648438 5.609375 7.5625 5.6875 C 7.382812 5.859375 7.355469 5.929688 7.316406 6.183594 C 7.300781 6.316406 7.285156 6.480469 7.292969 6.640625 C 7.308594 6.941406 7.40625 7.234375 7.691406 7.300781 C 7.875 7.339844 8.085938 7.261719 8.195312 7.0625 C 8.355469 6.785156 7.921875 6.039062 8.410156 6.074219 C 8.761719 6.101562 8.777344 6.644531 8.886719 6.882812 C 8.914062 6.894531 8.945312 6.894531 8.976562 6.882812 C 9.058594 6.652344 9.011719 6.390625 9.03125 6.15625 C 9.445312 6.046875 9.671875 6.65625 9.769531 6.960938 C 9.847656 7.210938 10.011719 7.296875 9.59375 7.394531 C 9.371094 7.449219 9.207031 7.398438 9.054688 7.214844 C 8.804688 7.386719 8.667969 7.574219 8.394531 7.714844 C 7.625 8.113281 7.417969 9.277344 7.828125 10.070312 C 8.105469 10.613281 8.753906 10.117188 9.089844 9.953125 C 9.074219 10.257812 9.34375 10.5625 9.4375 10.851562 C 9.710938 11.671875 9.515625 12.457031 9.507812 13.304688 C 9.507812 13.472656 9.550781 14.121094 9.765625 14.160156 C 10.015625 14.207031 10.230469 13.4375 10.285156 13.257812 C 10.515625 12.519531 10.515625 11.761719 10.925781 11.078125 C 11.085938 10.8125 11.371094 10.589844 11.242188 10.253906 C 11.109375 9.917969 10.4375 9.855469 10.511719 9.417969 C 10.492188 9.539062 11.175781 10.175781 11.332031 10.191406 C 12.054688 10.265625 11.371094 9.304688 11.589844 9.058594 C 11.941406 8.671875 12.195312 9.636719 12.214844 9.820312 C 12.269531 10.316406 12.167969 10.816406 12.160156 11.3125 C 12.15625 11.523438 12.097656 12.382812 12.488281 12.257812 C 12.792969 12.160156 12.644531 11.496094 12.6875 11.261719 C 12.722656 11.046875 12.953125 10.226562 13.136719 10.125 C 13.542969 9.914062 13.761719 10.828125 14.261719 10.808594 C 14.378906 10.386719 14.273438 10.183594 14.597656 9.875 C 14.839844 9.648438 15.203125 9.5 15.34375 9.160156 C 15.457031 8.898438 15.492188 8.367188 15.414062 8.09375 C 15.269531 7.578125 14.777344 7.785156 14.316406 7.664062 C 14.296875 7.398438 14.574219 7.273438 14.582031 6.996094 C 14.589844 6.859375 14.371094 6.855469 14.394531 6.683594 C 14.410156 6.574219 14.570312 6.398438 14.640625 6.308594 C 14.886719 5.988281 15.230469 5.792969 15.585938 6.136719 Z M 15.167969 11.6875 C 15.070312 11.773438 14.808594 12.1875 14.714844 12.214844 C 14.316406 12.332031 14.539062 11.855469 14.644531 11.699219 C 14.265625 11.832031 13.9375 12.144531 13.714844 12.523438 L 13.730469 12.46875 C 13.714844 12.503906 13.695312 12.550781 13.675781 12.601562 C 13.511719 12.914062 13.417969 13.261719 13.441406 13.585938 L 13.453125 13.542969 C 13.429688 13.839844 13.464844 14.089844 13.648438 14.125 C 14.160156 14.226562 14.371094 13.390625 14.878906 13.511719 C 14.925781 13.757812 15.109375 13.820312 15.25 13.621094 C 15.339844 13.496094 15.242188 13.101562 15.222656 12.96875 C 15.148438 12.480469 15.050781 12.183594 15.167969 11.6875 Z M 15.167969 11.6875 "/>
<path style=" stroke:none;fill-rule:nonzero;fill:rgb(85.882354%,77.254903%,40.392157%);fill-opacity:1;" d="M 6.550781 4.746094 C 6.898438 5.875 7.621094 4.097656 7.570312 3.636719 C 6.855469 3.464844 6.339844 4.054688 6.550781 4.746094 Z M 12 5.046875 C 11.953125 5.035156 11.898438 5.027344 11.832031 5.015625 C 11.863281 4.964844 11.871094 4.839844 11.90625 4.78125 C 11.820312 4.8125 11.671875 4.785156 11.585938 4.8125 C 11.578125 4.582031 11.804688 4.496094 12 4.394531 L 12 4.195312 C 11.851562 4.199219 11.710938 4.222656 11.578125 4.3125 C 11.410156 4.421875 11.371094 4.671875 11.21875 4.746094 C 10.820312 4.941406 9.871094 4.28125 9.4375 4.1875 C 8.808594 4.050781 8.472656 4.316406 8.222656 4.894531 C 8.054688 4.863281 7.859375 4.808594 7.730469 4.945312 C 7.828125 5.074219 7.972656 5.136719 8.140625 5.160156 C 8.152344 5.21875 8.152344 5.289062 8.140625 5.351562 C 8 5.378906 7.648438 5.609375 7.566406 5.6875 C 7.382812 5.859375 7.355469 5.929688 7.316406 6.183594 C 7.300781 6.316406 7.285156 6.480469 7.296875 6.640625 C 7.3125 6.941406 7.40625 7.234375 7.691406 7.300781 C 7.875 7.339844 8.085938 7.261719 8.199219 7.0625 C 8.355469 6.785156 7.921875 6.039062 8.410156 6.074219 C 8.761719 6.101562 8.777344 6.644531 8.886719 6.882812 C 8.917969 6.894531 8.945312 6.894531 8.976562 6.882812 C 9.058594 6.652344 9.011719 6.390625 9.03125 6.15625 C 9.445312 6.046875 9.675781 6.65625 9.769531 6.960938 C 9.847656 7.210938 10.011719 7.296875 9.59375 7.394531 C 9.371094 7.449219 9.207031 7.398438 9.054688 7.214844 C 8.804688 7.386719 8.667969 7.574219 8.394531 7.714844 C 7.625 8.113281 7.417969 9.277344 7.828125 10.070312 C 8.109375 10.613281 8.753906 10.117188 9.089844 9.953125 C 9.078125 10.257812 9.347656 10.5625 9.441406 10.851562 C 9.710938 11.671875 9.515625 12.457031 9.511719 13.304688 C 9.507812 13.472656 9.550781 14.121094 9.769531 14.160156 C 10.015625 14.207031 10.234375 13.4375 10.289062 13.257812 C 10.515625 12.519531 10.515625 11.761719 10.925781 11.078125 C 11.085938 10.8125 11.371094 10.589844 11.242188 10.253906 C 11.109375 9.917969 10.4375 9.855469 10.511719 9.417969 C 10.492188 9.539062 11.175781 10.175781 11.332031 10.191406 C 12.054688 10.265625 11.371094 9.304688 11.589844 9.058594 C 11.753906 8.878906 11.894531 8.992188 12 9.179688 Z M 6 8.03125 C 6.152344 7.8125 6.257812 7.566406 6.253906 7.402344 C 6.253906 7.332031 6.195312 7.304688 6.1875 7.238281 C 6.160156 6.976562 6.320312 6.808594 6.199219 6.546875 C 6.117188 6.375 6.035156 6.234375 6.046875 6.039062 C 6.070312 5.589844 6.179688 5.148438 6.171875 4.691406 C 6.171875 4.554688 6.132812 4.476562 6.066406 4.4375 C 6.046875 4.429688 6.023438 4.429688 6 4.425781 Z M 6.265625 12.746094 C 6.480469 12.515625 6.4375 12.425781 6.421875 12.136719 C 6.410156 11.988281 6.441406 11.636719 6.5625 11.554688 C 6.710938 11.625 7.015625 11.667969 7.148438 11.546875 C 7.238281 11.46875 7.339844 11.023438 7.359375 10.902344 C 7.417969 10.527344 7.285156 10.222656 7.0625 9.9375 C 6.882812 9.703125 6.601562 9.5 6.3125 9.441406 C 6.210938 9.421875 6.105469 9.410156 6 9.402344 L 6 13.148438 C 6.058594 13.011719 6.140625 12.878906 6.265625 12.746094 Z M 6.265625 12.746094 "/>
</g>
</g>
</svg>
