<?xml version="1.0" encoding="UTF-8"?>
<svg xmlns="http://www.w3.org/2000/svg" xmlns:xlink="http://www.w3.org/1999/xlink" width="24" height="24" viewBox="0 0 24 24" version="1.1">
<g transform="scale(1.33333333)">
<g id="surface170">
<path style=" stroke:none;fill-rule:nonzero;fill:rgb(96.078432%,80.784315%,52.156866%);fill-opacity:1;" d="M 9 17.101562 C 4.535156 17.101562 0.898438 13.464844 0.898438 9 C 0.898438 4.535156 4.535156 0.898438 9 0.898438 C 13.464844 0.898438 17.101562 4.535156 17.101562 9 C 17.101562 13.464844 13.464844 17.101562 9 17.101562 Z M 9 17.101562 "/>
<path style=" stroke:none;fill-rule:nonzero;fill:rgb(58.823532%,47.843137%,26.666668%);fill-opacity:1;" d="M 9 1.199219 C 13.300781 1.199219 16.800781 4.699219 16.800781 9 C 16.800781 13.300781 13.300781 16.800781 9 16.800781 C 4.699219 16.800781 1.199219 13.300781 1.199219 9 C 1.199219 4.699219 4.699219 1.199219 9 1.199219 M 9 0.601562 C 4.359375 0.601562 0.601562 4.359375 0.601562 9 C 0.601562 13.640625 4.359375 17.398438 9 17.398438 C 13.640625 17.398438 17.398438 13.640625 17.398438 9 C 17.398438 4.359375 13.640625 0.601562 9 0.601562 Z M 9 0.601562 "/>
<path style=" stroke:none;fill-rule:nonzero;fill:rgb(100%,100%,100%);fill-opacity:1;" d="M 15.300781 9 L 11.101562 9 L 13.199219 6.898438 Z M 2.699219 9 L 6.898438 9 L 4.800781 11.101562 Z M 2.699219 9 "/>
<path style=" stroke:none;fill-rule:nonzero;fill:rgb(100%,100%,100%);fill-opacity:1;" d="M 9 5.398438 C 9.992188 5.398438 10.890625 5.804688 11.542969 6.457031 L 12.390625 5.609375 C 11.523438 4.742188 10.324219 4.199219 9 4.199219 C 6.347656 4.199219 4.199219 6.347656 4.199219 9 C 4.199219 9.203125 4.21875 9.402344 4.242188 9.601562 L 5.453125 9.601562 C 5.421875 9.40625 5.398438 9.203125 5.398438 9 C 5.398438 7.015625 7.015625 5.398438 9 5.398438 Z M 13.757812 8.398438 L 12.546875 8.398438 C 12.578125 8.59375 12.601562 8.796875 12.601562 9 C 12.601562 10.984375 10.984375 12.601562 9 12.601562 C 8.007812 12.601562 7.109375 12.195312 6.457031 11.542969 L 5.609375 12.390625 C 6.476562 13.257812 7.675781 13.800781 9 13.800781 C 11.652344 13.800781 13.800781 11.652344 13.800781 9 C 13.800781 8.796875 13.78125 8.597656 13.757812 8.398438 Z M 13.757812 8.398438 "/>
</g>
</g>
</svg>
