<?xml version="1.0" encoding="UTF-8"?>
<svg xmlns="http://www.w3.org/2000/svg" xmlns:xlink="http://www.w3.org/1999/xlink" width="24" height="24" viewBox="0 0 24 24" version="1.1">
<g transform="scale(1.33333333)">
<g id="surface121">
<path style=" stroke:none;fill-rule:nonzero;fill:#f2faff;fill-opacity:1;" d="M 3.636719 17.101562 C 2.902344 17.101562 2.210938 16.8125 1.691406 16.289062 C 1.179688 15.769531 0.898438 15.082031 0.902344 14.351562 C 0.902344 13.621094 1.191406 12.933594 1.710938 12.417969 L 8.390625 5.8125 L 12.242188 9.699219 L 5.5625 16.308594 C 5.046875 16.820312 4.363281 17.101562 3.636719 17.101562 Z M 3.601562 12.898438 C 2.777344 12.898438 2.105469 13.570312 2.101562 14.394531 C 2.097656 14.792969 2.25 15.171875 2.535156 15.457031 C 2.816406 15.738281 3.191406 15.898438 3.59375 15.898438 C 4.421875 15.898438 5.097656 15.230469 5.101562 14.40625 C 5.101562 14.007812 4.949219 13.628906 4.667969 13.34375 C 4.382812 13.058594 4.007812 12.902344 3.605469 12.898438 Z M 3.601562 12.898438 "/>
<path style=" stroke:none;fill-rule:nonzero;fill:#8398ab;fill-opacity:1;" d="M 8.390625 6.234375 L 11.816406 9.695312 L 5.351562 16.09375 C 4.890625 16.550781 4.28125 16.800781 3.636719 16.800781 C 2.980469 16.800781 2.367188 16.542969 1.90625 16.078125 C 0.960938 15.125 0.96875 13.578125 1.921875 12.632812 L 8.390625 6.234375 M 3.597656 16.199219 L 3.601562 16.199219 C 4.585938 16.199219 5.394531 15.398438 5.398438 14.410156 C 5.40625 13.417969 4.601562 12.605469 3.601562 12.601562 C 2.613281 12.601562 1.804688 13.402344 1.800781 14.390625 C 1.796875 15.382812 2.597656 16.195312 3.589844 16.199219 L 3.597656 16.199219 M 8.394531 5.386719 L 1.5 12.207031 C 0.308594 13.386719 0.296875 15.308594 1.480469 16.5 C 2.074219 17.097656 2.855469 17.398438 3.636719 17.398438 C 4.40625 17.398438 5.179688 17.105469 5.773438 16.523438 L 12.664062 9.703125 Z M 3.601562 15.601562 C 3.597656 15.601562 3.597656 15.601562 3.59375 15.601562 C 2.929688 15.597656 2.398438 15.058594 2.398438 14.394531 C 2.402344 13.734375 2.941406 13.199219 3.601562 13.199219 C 3.601562 13.199219 3.605469 13.199219 3.605469 13.199219 C 4.269531 13.203125 4.804688 13.742188 4.800781 14.40625 C 4.796875 15.066406 4.261719 15.601562 3.601562 15.601562 Z M 3.601562 15.601562 "/>
<path style=" stroke:none;fill-rule:nonzero;fill:#f2faff;fill-opacity:1;" d="M 12.988281 10.519531 C 11.632812 10.519531 10.242188 9.898438 9.167969 8.8125 C 8.226562 7.859375 7.640625 6.671875 7.523438 5.460938 C 7.40625 4.273438 7.753906 3.214844 8.5 2.472656 C 9.339844 1.644531 10.796875 1.085938 12.136719 1.085938 C 12.636719 1.085938 13.09375 1.160156 13.503906 1.308594 L 10.34375 4.441406 L 11.164062 6.832031 L 13.546875 7.679688 L 16.710938 4.546875 C 17.296875 6.234375 16.597656 8.460938 15.5 9.542969 C 14.855469 10.183594 13.988281 10.519531 12.988281 10.519531 Z M 12.988281 10.519531 "/>
<path style=" stroke:none;fill-rule:nonzero;fill:#8398ab;fill-opacity:1;" d="M 12.132812 1.386719 C 12.414062 1.386719 12.675781 1.414062 12.925781 1.460938 L 10.261719 4.097656 L 9.996094 4.363281 L 10.117188 4.71875 L 10.832031 6.796875 L 10.925781 7.070312 L 11.199219 7.164062 L 13.269531 7.902344 L 13.625 8.027344 L 13.890625 7.761719 L 16.550781 5.125 C 16.820312 6.605469 16.210938 8.417969 15.289062 9.332031 C 14.703125 9.910156 13.90625 10.21875 12.984375 10.21875 C 11.710938 10.21875 10.398438 9.628906 9.382812 8.601562 C 7.566406 6.769531 7.265625 4.117188 8.710938 2.6875 C 9.496094 1.910156 10.871094 1.386719 12.132812 1.386719 M 12.132812 0.789062 C 10.683594 0.789062 9.164062 1.394531 8.289062 2.261719 C 6.609375 3.925781 6.90625 6.953125 8.957031 9.023438 C 10.125 10.207031 11.613281 10.820312 12.988281 10.820312 C 14.019531 10.820312 14.988281 10.472656 15.710938 9.757812 C 16.988281 8.492188 17.722656 5.839844 16.8125 4.019531 L 13.46875 7.335938 L 11.398438 6.601562 L 10.6875 4.523438 L 14.03125 1.210938 C 13.460938 0.917969 12.804688 0.789062 12.132812 0.789062 Z M 12.132812 0.789062 "/>
</g>
</g>
</svg>
