<?xml version="1.0" encoding="UTF-8"?>
<svg xmlns="http://www.w3.org/2000/svg" xmlns:xlink="http://www.w3.org/1999/xlink" width="24" height="24" viewBox="0 0 24 24" version="1.1">
<g transform="scale(1.33333333)">
<g id="surface1486">
<path style=" stroke:none;fill-rule:nonzero;fill:rgb(100%,100%,100%);fill-opacity:1;" d="M 4.925781 16.5 L 1.5 13.074219 L 1.5 1.5 L 13.074219 1.5 L 16.5 4.925781 L 16.5 16.5 Z M 4.925781 16.5 "/>
<path style=" stroke:none;fill-rule:nonzero;fill:rgb(47.058824%,54.509807%,61.176473%);fill-opacity:1;" d="M 12.953125 1.800781 L 16.199219 5.046875 L 16.199219 16.199219 L 5.046875 16.199219 L 1.800781 12.953125 L 1.800781 1.800781 L 12.953125 1.800781 M 13.199219 1.199219 L 1.199219 1.199219 L 1.199219 13.199219 L 4.800781 16.800781 L 16.800781 16.800781 L 16.800781 4.800781 Z M 13.199219 1.199219 "/>
<path style=" stroke:none;fill-rule:nonzero;fill:rgb(47.058824%,54.509807%,61.176473%);fill-opacity:1;" d="M 5.398438 4.800781 L 5.398438 16.800781 L 4.800781 16.800781 L 4.800781 4.800781 Z M 5.398438 4.800781 "/>
<path style=" stroke:none;fill-rule:nonzero;fill:rgb(72.941178%,87.843138%,74.117649%);fill-opacity:1;" d="M 4.9375 5.101562 L 1.851562 1.5 L 13.074219 1.5 L 16.5 4.925781 L 16.5 5.101562 Z M 4.9375 5.101562 "/>
<path style=" stroke:none;fill-rule:nonzero;fill:rgb(36.862746%,61.176473%,46.27451%);fill-opacity:1;" d="M 12.953125 1.800781 L 15.953125 4.800781 L 5.074219 4.800781 L 2.503906 1.800781 L 12.953125 1.800781 M 13.199219 1.199219 L 1.199219 1.199219 L 4.800781 5.398438 L 16.800781 5.398438 L 16.800781 4.800781 Z M 13.199219 1.199219 "/>
</g>
</g>
</svg>
