<?xml version="1.0" encoding="UTF-8"?>
<svg xmlns="http://www.w3.org/2000/svg" xmlns:xlink="http://www.w3.org/1999/xlink" width="24" height="24" viewBox="0 0 24 24" version="1.1">
<g transform="scale(1.33333333)">
<g id="surface1595">
<path style=" stroke:none;fill-rule:nonzero;fill:rgb(100%,93.333334%,63.921571%);fill-opacity:1;" d="M 3.875 8.03125 L 3.574219 7.953125 L 2.53125 8.507812 L 2.492188 7.332031 L 2.324219 7.164062 L 2.152344 7.105469 L 1.09375 7.066406 L 1.648438 6.027344 L 1.582031 5.796875 L 1.464844 5.664062 L 0.566406 5.101562 L 1.566406 4.476562 L 1.625 4.246094 L 1.589844 4.066406 L 1.09375 3.132812 L 2.273438 3.09375 L 2.4375 2.921875 L 2.496094 2.75 L 2.53125 1.691406 L 3.574219 2.246094 L 3.875 2.167969 L 4.5 1.164062 L 5.125 2.167969 L 5.425781 2.246094 L 6.46875 1.691406 L 6.507812 2.867188 L 6.675781 3.035156 L 6.847656 3.097656 L 7.90625 3.132812 L 7.351562 4.175781 L 7.417969 4.402344 L 7.535156 4.539062 L 8.433594 5.101562 L 7.433594 5.726562 L 7.375 5.953125 L 7.410156 6.132812 L 7.90625 7.066406 L 6.726562 7.109375 L 6.5625 7.277344 L 6.503906 7.449219 L 6.46875 8.507812 L 5.425781 7.953125 L 5.125 8.03125 L 4.5 9.035156 Z M 3.875 8.03125 "/>
<path style=" stroke:none;fill-rule:nonzero;fill:rgb(76.078433%,58.823532%,32.549021%);fill-opacity:1;" d="M 4.5 1.730469 L 4.808594 2.222656 L 4.960938 2.433594 L 5.195312 2.496094 L 5.230469 2.503906 L 5.460938 2.566406 L 5.671875 2.457031 L 6.183594 2.183594 L 6.203125 2.761719 L 6.214844 3 L 6.386719 3.167969 L 6.429688 3.214844 L 6.597656 3.386719 L 6.839844 3.394531 L 7.417969 3.417969 L 7.144531 3.925781 L 7.03125 4.140625 L 7.097656 4.371094 L 7.113281 4.433594 L 7.171875 4.664062 L 7.375 4.792969 L 7.867188 5.101562 L 7.375 5.40625 L 7.164062 5.558594 L 7.105469 5.792969 L 7.097656 5.832031 L 7.03125 6.0625 L 7.144531 6.273438 L 7.417969 6.785156 L 6.839844 6.804688 L 6.601562 6.8125 L 6.433594 6.984375 L 6.386719 7.03125 L 6.214844 7.199219 L 6.207031 7.441406 L 6.183594 8.015625 L 5.671875 7.746094 L 5.460938 7.632812 L 5.230469 7.695312 L 5.167969 7.710938 L 4.933594 7.773438 L 4.808594 7.976562 L 4.5 8.46875 L 4.191406 7.976562 L 4.039062 7.765625 L 3.804688 7.707031 L 3.769531 7.695312 L 3.539062 7.632812 L 3.328125 7.746094 L 2.816406 8.015625 L 2.796875 7.4375 L 2.789062 7.199219 L 2.617188 7.03125 L 2.570312 6.984375 L 2.402344 6.8125 L 2.160156 6.804688 L 1.582031 6.785156 L 1.855469 6.273438 L 1.96875 6.0625 L 1.902344 5.832031 L 1.886719 5.765625 L 1.828125 5.535156 L 1.625 5.40625 L 1.132812 5.101562 L 1.625 4.792969 L 1.835938 4.640625 L 1.894531 4.40625 L 1.902344 4.371094 L 1.96875 4.140625 L 1.855469 3.925781 L 1.582031 3.414062 L 2.160156 3.394531 L 2.402344 3.386719 L 2.570312 3.214844 L 2.617188 3.167969 L 2.789062 3 L 2.796875 2.761719 L 2.816406 2.183594 L 3.328125 2.457031 L 3.539062 2.566406 L 3.769531 2.503906 L 4.066406 2.429688 L 4.191406 2.222656 L 4.5 1.730469 M 4.5 0.601562 L 3.683594 1.90625 C 3.660156 1.914062 3.632812 1.917969 3.609375 1.925781 L 2.25 1.203125 L 2.195312 2.738281 C 2.175781 2.757812 2.15625 2.777344 2.140625 2.796875 L 0.601562 2.851562 L 1.324219 4.210938 C 1.316406 4.234375 1.3125 4.257812 1.304688 4.285156 L 0 5.101562 L 1.304688 5.914062 C 1.3125 5.941406 1.320312 5.964844 1.324219 5.992188 L 0.601562 7.351562 L 2.140625 7.402344 C 2.15625 7.421875 2.175781 7.441406 2.195312 7.460938 L 2.25 8.996094 L 3.609375 8.273438 C 3.632812 8.28125 3.660156 8.289062 3.683594 8.292969 L 4.5 9.601562 L 5.316406 8.292969 C 5.339844 8.289062 5.367188 8.28125 5.390625 8.273438 L 6.75 8.996094 L 6.804688 7.460938 C 6.824219 7.441406 6.84375 7.421875 6.859375 7.402344 L 8.398438 7.351562 L 7.675781 5.992188 C 7.683594 5.964844 7.6875 5.941406 7.695312 5.914062 L 9 5.101562 L 7.695312 4.285156 C 7.6875 4.257812 7.679688 4.234375 7.675781 4.210938 L 8.398438 2.851562 L 6.859375 2.796875 C 6.84375 2.777344 6.824219 2.757812 6.804688 2.738281 L 6.75 1.203125 L 5.390625 1.925781 C 5.367188 1.917969 5.339844 1.914062 5.316406 1.90625 Z M 4.5 0.601562 "/>
<path style=" stroke:none;fill-rule:nonzero;fill:rgb(96.078432%,80.784315%,52.156866%);fill-opacity:1;" d="M 4.5 3 C 3.339844 3 2.398438 3.941406 2.398438 5.101562 C 2.398438 6.261719 3.339844 7.199219 4.5 7.199219 C 5.660156 7.199219 6.601562 6.261719 6.601562 5.101562 C 6.601562 3.941406 5.660156 3 4.5 3 Z M 4.5 3 "/>
<path style=" stroke:none;fill-rule:nonzero;fill:rgb(88.235295%,92.156863%,94.901961%);fill-opacity:1;" d="M 3 15.894531 C 1.511719 15.894531 0.300781 14.683594 0.300781 13.195312 C 0.300781 12.117188 0.941406 11.144531 1.9375 10.714844 L 2.097656 10.644531 L 2.117188 10.46875 C 2.28125 8.773438 3.695312 7.496094 5.398438 7.496094 L 5.5 7.5 L 5.742188 7.507812 L 5.800781 7.269531 C 6.183594 5.636719 7.621094 4.496094 9.300781 4.496094 C 10.53125 4.496094 11.664062 5.117188 12.332031 6.160156 L 12.417969 6.296875 C 12.417969 6.296875 12.585938 6.296875 12.585938 6.296875 C 14.390625 6.296875 15.835938 7.699219 15.894531 9.488281 L 15.898438 9.65625 L 16.042969 9.738281 C 17.066406 10.328125 17.699219 11.421875 17.699219 12.597656 C 17.699219 14.296875 16.371094 15.742188 14.675781 15.882812 L 14.503906 15.894531 Z M 3 15.894531 "/>
<path style=" stroke:none;fill-rule:nonzero;fill:rgb(69.01961%,75.686276%,83.137256%);fill-opacity:1;" d="M 9.300781 4.796875 C 10.429688 4.796875 11.464844 5.367188 12.078125 6.320312 L 12.257812 6.597656 L 12.617188 6.597656 C 14.234375 6.605469 15.542969 7.875 15.59375 9.496094 L 15.605469 9.832031 L 15.894531 10 C 16.824219 10.535156 17.402344 11.53125 17.402344 12.597656 C 17.402344 14.144531 16.191406 15.457031 14.652344 15.582031 L 14.53125 15.597656 L 3 15.597656 C 1.675781 15.597656 0.601562 14.519531 0.601562 13.195312 C 0.601562 12.238281 1.171875 11.371094 2.054688 10.992188 L 2.378906 10.851562 L 2.414062 10.5 C 2.566406 8.960938 3.847656 7.796875 5.417969 7.796875 L 5.488281 7.800781 L 5.980469 7.816406 L 6.09375 7.339844 C 6.445312 5.839844 7.761719 4.796875 9.300781 4.796875 M 9.300781 4.195312 C 7.453125 4.195312 5.910156 5.480469 5.507812 7.203125 C 5.472656 7.199219 5.4375 7.195312 5.398438 7.195312 C 3.53125 7.195312 1.996094 8.617188 1.816406 10.441406 C 0.75 10.898438 0 11.960938 0 13.195312 C 0 14.851562 1.34375 16.195312 3 16.195312 L 14.699219 16.195312 L 14.699219 16.179688 C 16.546875 16.027344 18 14.484375 18 12.597656 C 18 11.261719 17.273438 10.101562 16.195312 9.476562 C 16.132812 7.546875 14.546875 5.996094 12.601562 5.996094 C 12.59375 5.996094 12.589844 5.996094 12.582031 5.996094 C 11.890625 4.914062 10.679688 4.195312 9.300781 4.195312 Z M 9.300781 4.195312 "/>
<path style=" stroke:none;fill-rule:nonzero;fill:rgb(100%,100%,100%);fill-opacity:1;" d="M 2.292969 11.542969 L 2.941406 11.261719 L 3.011719 10.558594 C 3.132812 9.332031 4.160156 8.40625 5.40625 8.398438 L 5.472656 8.402344 L 5.960938 8.414062 L 6.453125 8.429688 L 6.5625 7.953125 L 6.675781 7.476562 C 6.941406 6.351562 7.875 5.546875 9 5.421875 L 9 4.820312 C 7.59375 4.949219 6.421875 5.941406 6.09375 7.339844 L 5.980469 7.816406 L 5.488281 7.800781 L 5.417969 7.796875 C 3.847656 7.796875 2.566406 8.960938 2.414062 10.5 L 2.378906 10.851562 L 2.054688 10.992188 C 1.171875 11.371094 0.601562 12.234375 0.601562 13.195312 L 1.199219 13.195312 C 1.199219 12.476562 1.628906 11.828125 2.292969 11.542969 Z M 2.292969 11.542969 "/>
</g>
</g>
</svg>
