<?xml version="1.0" encoding="UTF-8"?>
<svg xmlns="http://www.w3.org/2000/svg" xmlns:xlink="http://www.w3.org/1999/xlink" width="24" height="24" viewBox="0 0 24 24" version="1.1">
<g transform="scale(1.33333333)">
<g id="surface1547">
<path style=" stroke:none;fill-rule:nonzero;fill:rgb(71.372551%,78.823531%,83.92157%);fill-opacity:1;" d="M 1.757812 17.101562 C 1.53125 17.101562 1.3125 17.011719 1.152344 16.847656 C 0.816406 16.515625 0.816406 15.96875 1.152344 15.632812 L 9.554688 7.621094 L 10.378906 8.449219 L 2.359375 16.851562 C 2.203125 17.011719 1.988281 17.101562 1.757812 17.101562 Z M 1.757812 17.101562 "/>
<path style=" stroke:none;fill-rule:nonzero;fill:rgb(47.058824%,54.509807%,61.176473%);fill-opacity:1;" d="M 9.550781 8.042969 L 9.960938 8.453125 L 2.152344 16.636719 C 2.046875 16.742188 1.90625 16.800781 1.757812 16.800781 C 1.609375 16.800781 1.46875 16.742188 1.363281 16.636719 C 1.144531 16.417969 1.144531 16.0625 1.355469 15.855469 L 9.550781 8.042969 M 9.558594 7.203125 L 0.9375 15.421875 C 0.488281 15.875 0.488281 16.609375 0.9375 17.0625 C 1.164062 17.285156 1.460938 17.398438 1.757812 17.398438 C 2.054688 17.398438 2.351562 17.285156 2.578125 17.058594 L 10.800781 8.445312 Z M 9.558594 7.203125 "/>
<path style=" stroke:none;fill-rule:nonzero;fill:rgb(81.960785%,92.941177%,100%);fill-opacity:1;" d="M 11.398438 12.300781 C 8.257812 12.300781 5.699219 9.742188 5.699219 6.601562 C 5.699219 3.457031 8.257812 0.898438 11.398438 0.898438 C 14.542969 0.898438 17.101562 3.457031 17.101562 6.601562 C 17.101562 9.742188 14.542969 12.300781 11.398438 12.300781 Z M 11.398438 12.300781 "/>
<path style=" stroke:none;fill-rule:nonzero;fill:rgb(47.058824%,54.509807%,61.176473%);fill-opacity:1;" d="M 11.398438 1.199219 C 14.378906 1.199219 16.800781 3.621094 16.800781 6.601562 C 16.800781 9.578125 14.378906 12 11.398438 12 C 8.421875 12 6 9.578125 6 6.601562 C 6 3.621094 8.421875 1.199219 11.398438 1.199219 M 11.398438 0.601562 C 8.085938 0.601562 5.398438 3.285156 5.398438 6.601562 C 5.398438 9.914062 8.085938 12.601562 11.398438 12.601562 C 14.714844 12.601562 17.398438 9.914062 17.398438 6.601562 C 17.398438 3.285156 14.714844 0.601562 11.398438 0.601562 Z M 11.398438 0.601562 "/>
<path style=" stroke:none;fill-rule:nonzero;fill:rgb(21.176471%,25.098041%,30.19608%);fill-opacity:1;" d="M 10.800781 3.601562 L 12 3.601562 L 12 9.601562 L 10.800781 9.601562 Z M 10.800781 3.601562 "/>
<path style=" stroke:none;fill-rule:nonzero;fill:rgb(21.176471%,25.098041%,30.19608%);fill-opacity:1;" d="M 14.398438 6 L 14.398438 7.199219 L 8.398438 7.199219 L 8.398438 6 Z M 14.398438 6 "/>
</g>
</g>
</svg>
