<?xml version="1.0" encoding="UTF-8"?>
<svg xmlns="http://www.w3.org/2000/svg" xmlns:xlink="http://www.w3.org/1999/xlink" width="24" height="24" viewBox="0 0 24 24" version="1.1">
<g transform="scale(1.33333333)">
<g id="surface335">
<path style=" stroke:none;fill-rule:nonzero;fill:rgb(96.078432%,80.784315%,52.156866%);fill-opacity:1;" d="M 2.28125 10.980469 C 3.839844 10.738281 7.199219 9.960938 9.058594 6.898438 L 15.898438 10.679688 C 13.859375 14.101562 11.519531 16.378906 10.859375 16.980469 Z M 2.28125 10.980469 "/>
<path style=" stroke:none;fill-rule:nonzero;fill:rgb(58.823532%,47.843137%,26.666668%);fill-opacity:1;" d="M 9.179688 7.320312 L 15.480469 10.800781 C 13.679688 13.738281 11.640625 15.839844 10.800781 16.621094 L 3 11.160156 C 4.738281 10.800781 7.441406 9.839844 9.179688 7.320312 M 8.941406 6.480469 C 6.601562 10.558594 1.441406 10.738281 1.441406 10.738281 L 10.859375 17.398438 C 10.859375 17.398438 13.859375 14.820312 16.320312 10.621094 Z M 8.941406 6.480469 "/>
<path style=" stroke:none;fill-rule:nonzero;fill:rgb(54.509807%,71.764708%,94.117647%);fill-opacity:1;" d="M 9.058594 6.898438 L 9.238281 6.601562 C 9.421875 6.300781 9.71875 6.058594 10.019531 5.941406 C 10.199219 5.878906 10.378906 5.878906 10.5 5.878906 C 10.738281 5.878906 10.980469 5.941406 11.21875 6.058594 L 12.359375 6.71875 L 16.019531 1.199219 C 16.140625 1.019531 16.320312 0.898438 16.558594 0.898438 C 16.679688 0.898438 16.738281 0.898438 16.859375 0.960938 C 17.160156 1.140625 17.28125 1.441406 17.101562 1.738281 L 14.339844 7.800781 L 15.421875 8.398438 C 15.71875 8.578125 15.960938 8.820312 16.078125 9.121094 L 16.140625 9.238281 C 16.320312 9.660156 16.261719 10.140625 16.078125 10.5 L 15.960938 10.738281 Z M 9.058594 6.898438 "/>
<path style=" stroke:none;fill-rule:nonzero;fill:rgb(30.588236%,47.843137%,70.980394%);fill-opacity:1;" d="M 16.558594 1.199219 C 16.621094 1.199219 16.679688 1.199219 16.738281 1.261719 C 16.859375 1.320312 16.921875 1.5 16.859375 1.679688 L 14.160156 7.441406 L 13.921875 7.921875 L 14.398438 8.21875 L 15.238281 8.699219 C 15.480469 8.820312 15.660156 9.058594 15.78125 9.300781 L 15.839844 9.421875 C 15.960938 9.71875 15.960938 10.078125 15.78125 10.378906 L 9.480469 6.898438 C 9.601562 6.660156 9.839844 6.480469 10.140625 6.359375 C 10.261719 6.300781 10.378906 6.300781 10.558594 6.300781 C 10.738281 6.300781 10.980469 6.359375 11.160156 6.480469 L 12.058594 6.960938 L 12.539062 7.261719 L 12.839844 6.78125 L 16.378906 1.441406 C 16.378906 1.261719 16.441406 1.199219 16.558594 1.199219 M 16.558594 0.601562 C 16.261719 0.601562 15.960938 0.71875 15.78125 1.019531 L 12.238281 6.359375 L 11.398438 5.820312 C 11.160156 5.640625 10.800781 5.578125 10.5 5.578125 C 10.320312 5.578125 10.078125 5.640625 9.898438 5.699219 C 9.480469 5.820312 9.179688 6.121094 8.941406 6.480469 L 8.640625 7.019531 L 15.960938 11.101562 L 16.199219 10.621094 C 16.441406 10.140625 16.5 9.601562 16.320312 9.058594 L 16.320312 9 C 16.140625 8.640625 15.898438 8.28125 15.539062 8.101562 L 14.699219 7.621094 L 17.398438 1.859375 C 17.578125 1.441406 17.460938 0.898438 17.039062 0.660156 C 16.859375 0.601562 16.738281 0.601562 16.558594 0.601562 Z M 16.558594 0.601562 "/>
<path style=" stroke:none;fill-rule:nonzero;fill:rgb(58.823532%,47.843137%,26.666668%);fill-opacity:1;" d="M 4.800781 12.71875 L 5.878906 13.5 C 5.878906 13.5 7.261719 12.660156 9.179688 10.378906 C 7.140625 12.058594 4.800781 12.71875 4.800781 12.71875 Z M 7.980469 15.179688 L 9 15.839844 C 9 15.839844 9.78125 15.480469 10.921875 14.039062 C 9.421875 15.179688 7.980469 15.179688 7.980469 15.179688 Z M 7.980469 15.179688 "/>
<path style=" stroke:none;fill-rule:nonzero;fill:rgb(69.01961%,75.686276%,83.137256%);fill-opacity:1;" d="M 2.101562 3.300781 C 1.4375 3.300781 0.898438 3.835938 0.898438 4.5 C 0.898438 5.164062 1.4375 5.699219 2.101562 5.699219 C 2.761719 5.699219 3.300781 5.164062 3.300781 4.5 C 3.300781 3.835938 2.761719 3.300781 2.101562 3.300781 Z M 2.101562 3.300781 "/>
<path style=" stroke:none;fill-rule:nonzero;fill:rgb(40.000001%,47.450981%,56.078434%);fill-opacity:1;" d="M 2.101562 3.601562 C 2.578125 3.601562 3 4.019531 3 4.5 C 3 4.980469 2.578125 5.398438 2.101562 5.398438 C 1.621094 5.398438 1.199219 4.980469 1.199219 4.5 C 1.199219 4.019531 1.621094 3.601562 2.101562 3.601562 M 2.101562 3 C 1.261719 3 0.601562 3.660156 0.601562 4.5 C 0.601562 5.339844 1.261719 6 2.101562 6 C 2.941406 6 3.601562 5.339844 3.601562 4.5 C 3.601562 3.660156 2.941406 3 2.101562 3 Z M 2.101562 3 "/>
<path style=" stroke:none;fill-rule:nonzero;fill:rgb(69.01961%,75.686276%,83.137256%);fill-opacity:1;" d="M 4.5 6.898438 C 4.167969 6.898438 3.898438 7.167969 3.898438 7.5 C 3.898438 7.832031 4.167969 8.101562 4.5 8.101562 C 4.832031 8.101562 5.101562 7.832031 5.101562 7.5 C 5.101562 7.167969 4.832031 6.898438 4.5 6.898438 Z M 4.5 6.898438 "/>
<path style=" stroke:none;fill-rule:nonzero;fill:rgb(40.000001%,47.450981%,56.078434%);fill-opacity:1;" d="M 4.5 7.199219 C 4.679688 7.199219 4.800781 7.320312 4.800781 7.5 C 4.800781 7.679688 4.679688 7.800781 4.5 7.800781 C 4.320312 7.800781 4.199219 7.679688 4.199219 7.5 C 4.199219 7.320312 4.320312 7.199219 4.5 7.199219 M 4.5 6.601562 C 4.019531 6.601562 3.601562 7.019531 3.601562 7.5 C 3.601562 7.980469 4.019531 8.398438 4.5 8.398438 C 4.980469 8.398438 5.398438 7.980469 5.398438 7.5 C 5.398438 7.019531 4.980469 6.601562 4.5 6.601562 Z M 4.5 6.601562 "/>
<path style=" stroke:none;fill-rule:nonzero;fill:rgb(78.039217%,26.274511%,26.274511%);fill-opacity:1;" d="M 15 12.480469 C 14.941406 12.480469 14.941406 12.480469 15 12.480469 C 14.28125 12.421875 13.441406 11.941406 13.078125 11.460938 C 12.238281 11.460938 11.398438 10.980469 11.039062 10.441406 C 10.199219 10.320312 9.539062 9.898438 9.179688 9.359375 C 8.101562 9.238281 7.679688 8.28125 7.679688 8.28125 C 7.621094 8.101562 7.679688 7.980469 7.859375 7.921875 C 8.039062 7.859375 8.160156 7.921875 8.21875 8.101562 C 8.21875 8.160156 8.519531 8.820312 9.359375 8.820312 C 9.480469 8.820312 9.601562 8.878906 9.601562 9 C 9.78125 9.480469 10.378906 9.78125 11.21875 9.898438 C 11.339844 9.898438 11.398438 9.960938 11.460938 10.078125 C 11.640625 10.441406 12.359375 10.980469 13.140625 10.921875 C 13.261719 10.921875 13.378906 10.980469 13.441406 11.101562 C 13.621094 11.398438 14.339844 11.941406 14.941406 12 C 15.121094 12 15.238281 12.179688 15.238281 12.300781 C 15.238281 12.359375 15.121094 12.480469 15 12.480469 Z M 15 12.480469 "/>
</g>
</g>
</svg>
