<?xml version="1.0" encoding="UTF-8"?>
<svg xmlns="http://www.w3.org/2000/svg" width="24" height="24" viewBox="0 0 24 24" version="1.1">
<g transform="scale(2)">
<path fill="rgb(30.588236%,47.843137%,70.980394%)" d="M1.924 6Q1.924 5.778 1.928 5.508Q1.933 5.239 1.971 4.969Q2.01 4.7 2.082 4.443Q2.155 4.187 2.296 3.994Q2.437 3.802 2.651 3.682Q2.865 3.562 3.173 3.562Q3.481 3.562 3.695 3.682Q3.909 3.802 4.05 3.994Q4.191 4.187 4.264 4.443Q4.336 4.7 4.375 4.969Q4.413 5.239 4.418 5.508Q4.422 5.778 4.422 6Q4.422 6.342 4.4 6.766Q4.379 7.189 4.264 7.561Q4.148 7.933 3.892 8.19Q3.635 8.446 3.173 8.446Q2.711 8.446 2.455 8.19Q2.198 7.933 2.082 7.561Q1.967 7.189 1.946 6.766Q1.924 6.342 1.924 6ZM1.154 6.009Q1.154 6.342 1.171 6.701Q1.189 7.061 1.257 7.403Q1.325 7.745 1.454 8.049Q1.582 8.352 1.804 8.583Q2.027 8.814 2.365 8.947Q2.703 9.079 3.173 9.079Q3.652 9.079 3.986 8.947Q4.319 8.814 4.542 8.583Q4.764 8.352 4.892 8.049Q5.021 7.745 5.089 7.403Q5.157 7.061 5.175 6.701Q5.192 6.342 5.192 6.009Q5.192 5.675 5.175 5.316Q5.157 4.956 5.089 4.614Q5.021 4.272 4.892 3.964Q4.764 3.656 4.542 3.425Q4.319 3.194 3.981 3.058Q3.643 2.921 3.173 2.921Q2.703 2.921 2.365 3.058Q2.027 3.194 1.804 3.425Q1.582 3.656 1.454 3.964Q1.325 4.272 1.257 4.614Q1.189 4.956 1.171 5.316Q1.154 5.675 1.154 6.009ZM8.228 6.659 6.569 8.985H7.45L8.682 7.155L9.913 8.985H10.846L9.135 6.599L10.657 4.563H9.785L8.682 6.111L7.621 4.563H6.689Z"/>
</g>
</svg>
